<svg width="393" height="721" viewBox="0 0 393 721" fill="none" xmlns="http://www.w3.org/2000/svg">
<g style="mix-blend-mode:screen" opacity="0.49">
<path d="M318.503 368.566C310.764 355.701 296.437 368.566 299.566 375.095C287.709 370.794 279.475 375.671 286.721 380.472C293.967 385.272 511.473 397.166 511.999 375.095C512.13 369.565 503.051 369.718 498.495 370.486C493.621 361.884 486.144 363.446 483.015 365.302C478.009 349.326 467.755 354.549 463.254 359.157C466.493 346.42 463.254 310 422.909 310C382.161 310 374.164 334.259 379.269 353.013C366.918 334.579 349.627 339.123 341.723 355.509C325.42 351.861 318.503 359.349 318.503 368.566Z" fill="url(#paint0_linear_633_5534)"/>
</g>
<g style="mix-blend-mode:screen" opacity="0.49">
<path d="M-116.813 404.291C-125.155 393.903 -140.596 404.292 -137.224 409.563C-150.003 406.09 -158.877 410.028 -151.068 413.905C-143.258 417.781 91.1624 427.385 91.729 409.563C91.871 405.098 82.0858 405.222 77.1754 405.842C71.9219 398.896 63.8642 400.157 60.492 401.656C55.0965 388.755 44.0453 392.973 39.1941 396.694C42.6846 386.409 39.1941 357 -4.28917 357C-48.2052 357 -56.8241 376.589 -51.3222 391.732C-64.6335 376.847 -83.2692 380.517 -91.7883 393.748C-109.359 390.802 -116.813 396.849 -116.813 404.291Z" fill="url(#paint1_linear_633_5534)"/>
</g>
<path d="M293.33 65.1484C281.912 52.4895 261.062 59.4085 260.287 65.1484C249.272 65.1484 235 65.1484 235 71.5088C235 82.358 264.579 79.8343 275.335 76.1628C295.036 87.1773 320.789 73.6807 320.789 73.6807C320.789 73.6807 357.865 79.4206 365.777 71.5088C372.138 65.1484 349.592 64.6313 337.543 65.1484C327.49 55.7163 303.879 61.2183 293.33 65.1484Z" fill="url(#paint2_linear_633_5534)"/>
<path d="M88.7561 702.496C76.0972 679.412 42.3713 696.29 42.3713 708.081C37.0969 705.443 33.5288 702.496 23.7555 710.718C22.0557 712.148 23.7555 716.458 23.7555 716.458C26.9243 719.695 96.3482 722.736 116.215 716.458C116.215 699.548 96.823 698.152 88.7561 702.496Z" fill="url(#paint3_linear_633_5534)"/>
<path d="M78.1362 376.593C86.4972 361.346 108.773 372.494 108.773 380.282C112.257 378.54 114.613 376.593 121.069 382.023C122.191 382.968 121.069 385.815 121.069 385.815C118.976 387.952 73.1216 389.961 60 385.815C60 374.646 72.808 373.724 78.1362 376.593Z" fill="url(#paint4_linear_633_5534)"/>
<path d="M2.21805 111.145C-8.90452 112.355 -13.4584 124.543 -13.4584 129.731C-25.1284 124.256 -33.989 129.731 -33.989 141.832C-36.8705 136.876 -43.5497 137.702 -44.174 141.832C-54.9508 134.801 -59.2778 143.034 -62.1113 147.668C-72.5807 145.843 -91.6898 145.55 -84.3709 158.978C-77.0519 172.406 -54.5234 165.822 -44.174 160.851C-30.4005 176.642 -2.36833 167.43 9.92605 160.851C21.0486 169.956 43.8076 166.806 53.7968 164.093C60.4242 169.207 80.8108 165.245 84.8449 158.978C88.0722 153.964 79.8503 151.798 75.336 151.342C72.3968 145.521 67.0517 148.917 64.7465 151.342C62.7294 142.582 56.6062 145.243 53.7968 147.668C45.6134 133.03 37.2282 141.569 34.0586 147.668C33.7944 144.859 32.6898 137.338 30.3847 129.731C27.5032 120.222 16.1213 109.632 2.21805 111.145Z" fill="url(#paint5_linear_633_5534)"/>
<path d="M365.847 544.238C345.946 546.222 337.798 566.198 337.798 574.701C316.917 565.728 301.062 574.701 301.062 594.536C295.907 586.412 283.956 587.766 282.839 594.536C263.556 583.012 255.814 596.506 250.744 604.102C232.011 601.11 197.819 600.63 210.915 622.639C224.011 644.648 264.321 633.856 282.839 625.709C307.483 651.591 357.641 636.493 379.639 625.709C399.54 640.634 440.263 635.47 458.136 631.023C469.995 639.406 506.472 632.912 513.69 622.639C519.465 614.421 504.753 610.871 496.676 610.123C491.417 600.583 481.853 606.148 477.728 610.123C474.119 595.766 463.163 600.127 458.136 604.102C443.494 580.109 428.49 594.105 422.819 604.102C422.346 599.497 420.37 587.17 416.245 574.701C411.089 559.115 390.724 541.758 365.847 544.238Z" fill="url(#paint6_linear_633_5534)"/>
<path d="M403.171 0.199243C388.227 1.8597 382.108 18.5813 382.108 25.6991C366.429 18.1875 354.524 25.6991 354.524 42.3021C350.652 35.5021 341.678 36.6354 340.839 42.3021C326.36 32.6556 320.546 43.9509 316.739 50.3094C302.673 47.8055 276.998 47.4036 286.832 65.8267C296.665 84.2499 326.934 75.2162 340.839 68.3965C359.345 90.0615 397.009 77.4236 413.527 68.3965C428.471 80.8895 459.05 76.567 472.471 72.8441C481.376 79.8615 508.766 74.4255 514.187 65.8267C518.523 58.9477 507.476 55.976 501.411 55.3501C497.462 47.3641 490.28 52.0226 487.183 55.3501C484.473 43.3315 476.246 46.9819 472.471 50.3094C461.476 30.2258 450.21 41.9412 445.951 50.3094C445.596 46.4548 444.112 36.1362 441.015 25.6991C437.143 12.6527 421.851 -1.87633 403.171 0.199243Z" fill="url(#paint7_linear_633_5534)"/>
<defs>
<linearGradient id="paint0_linear_633_5534" x1="410.636" y1="310" x2="410.636" y2="400.634" gradientUnits="userSpaceOnUse">
<stop stop-color="#DAAFED"/>
<stop offset="1" stop-color="#7C6487" stop-opacity="0"/>
</linearGradient>
<linearGradient id="paint1_linear_633_5534" x1="-17.5156" y1="357" x2="-17.5156" y2="430.186" gradientUnits="userSpaceOnUse">
<stop stop-color="#DAAFED"/>
<stop offset="1" stop-color="#7C6487" stop-opacity="0"/>
</linearGradient>
<linearGradient id="paint2_linear_633_5534" x1="308.378" y1="45.6093" x2="308.253" y2="84.1275" gradientUnits="userSpaceOnUse">
<stop stop-color="#DAAFED"/>
<stop offset="1" stop-color="#7C6487" stop-opacity="0"/>
</linearGradient>
<linearGradient id="paint3_linear_633_5534" x1="75.1044" y1="680.001" x2="74.7735" y2="724.828" gradientUnits="userSpaceOnUse">
<stop stop-color="#DAAFED"/>
<stop offset="1" stop-color="#7C6487" stop-opacity="0"/>
</linearGradient>
<linearGradient id="paint4_linear_633_5534" x1="87.153" y1="361.735" x2="87.3715" y2="391.343" gradientUnits="userSpaceOnUse">
<stop stop-color="#DAAFED"/>
<stop offset="1" stop-color="#7C6487" stop-opacity="0"/>
</linearGradient>
<linearGradient id="paint5_linear_633_5534" x1="9.2978" y1="111" x2="9.2978" y2="179.056" gradientUnits="userSpaceOnUse">
<stop stop-color="#DAAFED"/>
<stop offset="1" stop-color="#7C6487" stop-opacity="0"/>
</linearGradient>
<linearGradient id="paint6_linear_633_5534" x1="377.037" y1="499.302" x2="379.757" y2="655.528" gradientUnits="userSpaceOnUse">
<stop stop-color="#DAAFED"/>
<stop offset="1" stop-color="#7C6487" stop-opacity="0"/>
</linearGradient>
<linearGradient id="paint7_linear_633_5534" x1="412.683" y1="4.64059e-06" x2="412.683" y2="93.3747" gradientUnits="userSpaceOnUse">
<stop stop-color="#DAAFED"/>
<stop offset="1" stop-color="#7C6487" stop-opacity="0"/>
</linearGradient>
</defs>
</svg>
