<svg width="198" height="104" viewBox="0 0 198 104" fill="none" xmlns="http://www.w3.org/2000/svg">
<g filter="url(#filter0_f_633_5584)">
<path d="M57.7973 12H65.7173V40H57.7973V12ZM46.9973 40H39.0773V12H46.9973V40ZM58.3573 29.08H46.4373V22.52H58.3573V29.08ZM67.9439 40L80.3039 12H88.1039L100.504 40H92.2639L82.5839 15.88H85.7039L76.0239 40H67.9439ZM74.7039 34.56L76.7439 28.72H90.4239L92.4639 34.56H74.7039ZM116.319 40.56C114.105 40.56 112.052 40.2133 110.159 39.52C108.292 38.8 106.665 37.7867 105.279 36.48C103.919 35.1733 102.852 33.64 102.079 31.88C101.305 30.0933 100.919 28.1333 100.919 26C100.919 23.8667 101.305 21.92 102.079 20.16C102.852 18.3733 103.919 16.8267 105.279 15.52C106.665 14.2133 108.292 13.2133 110.159 12.52C112.052 11.8 114.105 11.44 116.319 11.44C118.905 11.44 121.212 11.8933 123.239 12.8C125.292 13.7067 126.999 15.0133 128.359 16.72L123.319 21.28C122.412 20.2133 121.412 19.4 120.319 18.84C119.252 18.28 118.052 18 116.719 18C115.572 18 114.519 18.1867 113.559 18.56C112.599 18.9333 111.772 19.48 111.079 20.2C110.412 20.8933 109.879 21.7333 109.479 22.72C109.105 23.7067 108.919 24.8 108.919 26C108.919 27.2 109.105 28.2933 109.479 29.28C109.879 30.2667 110.412 31.12 111.079 31.84C111.772 32.5333 112.599 33.0667 113.559 33.44C114.519 33.8133 115.572 34 116.719 34C118.052 34 119.252 33.72 120.319 33.16C121.412 32.6 122.412 31.7867 123.319 30.72L128.359 35.28C126.999 36.96 125.292 38.2667 123.239 39.2C121.212 40.1067 118.905 40.56 116.319 40.56ZM138.97 33.8L138.53 24.92L150.57 12H159.29L147.29 25L142.89 29.6L138.97 33.8ZM131.89 40V12H139.73V40H131.89ZM150.69 40L141.57 28.44L146.73 22.92L159.89 40H150.69ZM9.8 91V63H17.72V91H9.8ZM23.3547 91V63H31.2747V84.72H44.6347V91H23.3547ZM47.7688 91V63H55.6888V84.72H69.0488V91H47.7688ZM72.1828 91V63H80.1028V91H72.1828ZM85.7375 91V63H92.2575L107.698 81.64H104.618V63H112.378V91H105.858L90.4175 72.36H93.4975V91H85.7375ZM132.084 91.56C129.844 91.56 127.777 91.2 125.884 90.48C123.991 89.76 122.337 88.7467 120.924 87.44C119.537 86.1067 118.457 84.56 117.684 82.8C116.911 81.04 116.524 79.1067 116.524 77C116.524 74.8933 116.911 72.96 117.684 71.2C118.457 69.44 119.537 67.9067 120.924 66.6C122.337 65.2667 123.991 64.24 125.884 63.52C127.777 62.8 129.844 62.44 132.084 62.44C134.351 62.44 136.417 62.8 138.284 63.52C140.177 64.24 141.817 65.2667 143.204 66.6C144.591 67.9067 145.671 69.44 146.444 71.2C147.244 72.96 147.644 74.8933 147.644 77C147.644 79.1067 147.244 81.0533 146.444 82.84C145.671 84.6 144.591 86.1333 143.204 87.44C141.817 88.7467 140.177 89.76 138.284 90.48C136.417 91.2 134.351 91.56 132.084 91.56ZM132.084 85C133.151 85 134.137 84.8133 135.044 84.44C135.977 84.0667 136.777 83.5333 137.444 82.84C138.137 82.12 138.671 81.2667 139.044 80.28C139.444 79.2933 139.644 78.2 139.644 77C139.644 75.7733 139.444 74.68 139.044 73.72C138.671 72.7333 138.137 71.8933 137.444 71.2C136.777 70.48 135.977 69.9333 135.044 69.56C134.137 69.1867 133.151 69 132.084 69C131.017 69 130.017 69.1867 129.084 69.56C128.177 69.9333 127.377 70.48 126.684 71.2C126.017 71.8933 125.484 72.7333 125.084 73.72C124.711 74.68 124.524 75.7733 124.524 77C124.524 78.2 124.711 79.2933 125.084 80.28C125.484 81.2667 126.017 82.12 126.684 82.84C127.377 83.5333 128.177 84.0667 129.084 84.44C130.017 84.8133 131.017 85 132.084 85ZM151.792 91V63H159.712V91H151.792ZM175.187 91.56C172.894 91.56 170.68 91.28 168.547 90.72C166.44 90.1333 164.72 89.3867 163.387 88.48L165.987 82.64C167.24 83.44 168.68 84.1067 170.307 84.64C171.96 85.1467 173.6 85.4 175.227 85.4C176.32 85.4 177.2 85.3067 177.867 85.12C178.534 84.9067 179.014 84.64 179.307 84.32C179.627 83.9733 179.787 83.5733 179.787 83.12C179.787 82.48 179.494 81.9733 178.907 81.6C178.32 81.2267 177.56 80.92 176.627 80.68C175.694 80.44 174.654 80.2 173.507 79.96C172.387 79.72 171.254 79.4133 170.107 79.04C168.987 78.6667 167.96 78.1867 167.027 77.6C166.094 76.9867 165.334 76.2 164.747 75.24C164.16 74.2533 163.867 73.0133 163.867 71.52C163.867 69.84 164.32 68.32 165.227 66.96C166.16 65.6 167.547 64.5067 169.387 63.68C171.227 62.8533 173.52 62.44 176.267 62.44C178.107 62.44 179.907 62.6533 181.667 63.08C183.454 63.48 185.04 64.08 186.427 64.88L183.987 70.76C182.654 70.04 181.334 69.5067 180.027 69.16C178.72 68.7867 177.454 68.6 176.227 68.6C175.134 68.6 174.254 68.72 173.587 68.96C172.92 69.1733 172.44 69.4667 172.147 69.84C171.854 70.2133 171.707 70.64 171.707 71.12C171.707 71.7333 171.987 72.2267 172.547 72.6C173.134 72.9467 173.894 73.24 174.827 73.48C175.787 73.6933 176.827 73.92 177.947 74.16C179.094 74.4 180.227 74.7067 181.347 75.08C182.494 75.4267 183.534 75.9067 184.467 76.52C185.4 77.1067 186.147 77.8933 186.707 78.88C187.294 79.84 187.587 81.0533 187.587 82.52C187.587 84.1467 187.12 85.6533 186.187 87.04C185.28 88.4 183.907 89.4933 182.067 90.32C180.254 91.1467 177.96 91.56 175.187 91.56Z" fill="url(#paint0_linear_633_5584)"/>
</g>
<path d="M57.7973 12H65.7173V40H57.7973V12ZM46.9973 40H39.0773V12H46.9973V40ZM58.3573 29.08H46.4373V22.52H58.3573V29.08ZM67.9439 40L80.3039 12H88.1039L100.504 40H92.2639L82.5839 15.88H85.7039L76.0239 40H67.9439ZM74.7039 34.56L76.7439 28.72H90.4239L92.4639 34.56H74.7039ZM116.319 40.56C114.105 40.56 112.052 40.2133 110.159 39.52C108.292 38.8 106.665 37.7867 105.279 36.48C103.919 35.1733 102.852 33.64 102.079 31.88C101.305 30.0933 100.919 28.1333 100.919 26C100.919 23.8667 101.305 21.92 102.079 20.16C102.852 18.3733 103.919 16.8267 105.279 15.52C106.665 14.2133 108.292 13.2133 110.159 12.52C112.052 11.8 114.105 11.44 116.319 11.44C118.905 11.44 121.212 11.8933 123.239 12.8C125.292 13.7067 126.999 15.0133 128.359 16.72L123.319 21.28C122.412 20.2133 121.412 19.4 120.319 18.84C119.252 18.28 118.052 18 116.719 18C115.572 18 114.519 18.1867 113.559 18.56C112.599 18.9333 111.772 19.48 111.079 20.2C110.412 20.8933 109.879 21.7333 109.479 22.72C109.105 23.7067 108.919 24.8 108.919 26C108.919 27.2 109.105 28.2933 109.479 29.28C109.879 30.2667 110.412 31.12 111.079 31.84C111.772 32.5333 112.599 33.0667 113.559 33.44C114.519 33.8133 115.572 34 116.719 34C118.052 34 119.252 33.72 120.319 33.16C121.412 32.6 122.412 31.7867 123.319 30.72L128.359 35.28C126.999 36.96 125.292 38.2667 123.239 39.2C121.212 40.1067 118.905 40.56 116.319 40.56ZM138.97 33.8L138.53 24.92L150.57 12H159.29L147.29 25L142.89 29.6L138.97 33.8ZM131.89 40V12H139.73V40H131.89ZM150.69 40L141.57 28.44L146.73 22.92L159.89 40H150.69ZM9.8 91V63H17.72V91H9.8ZM23.3547 91V63H31.2747V84.72H44.6347V91H23.3547ZM47.7688 91V63H55.6888V84.72H69.0488V91H47.7688ZM72.1828 91V63H80.1028V91H72.1828ZM85.7375 91V63H92.2575L107.698 81.64H104.618V63H112.378V91H105.858L90.4175 72.36H93.4975V91H85.7375ZM132.084 91.56C129.844 91.56 127.777 91.2 125.884 90.48C123.991 89.76 122.337 88.7467 120.924 87.44C119.537 86.1067 118.457 84.56 117.684 82.8C116.911 81.04 116.524 79.1067 116.524 77C116.524 74.8933 116.911 72.96 117.684 71.2C118.457 69.44 119.537 67.9067 120.924 66.6C122.337 65.2667 123.991 64.24 125.884 63.52C127.777 62.8 129.844 62.44 132.084 62.44C134.351 62.44 136.417 62.8 138.284 63.52C140.177 64.24 141.817 65.2667 143.204 66.6C144.591 67.9067 145.671 69.44 146.444 71.2C147.244 72.96 147.644 74.8933 147.644 77C147.644 79.1067 147.244 81.0533 146.444 82.84C145.671 84.6 144.591 86.1333 143.204 87.44C141.817 88.7467 140.177 89.76 138.284 90.48C136.417 91.2 134.351 91.56 132.084 91.56ZM132.084 85C133.151 85 134.137 84.8133 135.044 84.44C135.977 84.0667 136.777 83.5333 137.444 82.84C138.137 82.12 138.671 81.2667 139.044 80.28C139.444 79.2933 139.644 78.2 139.644 77C139.644 75.7733 139.444 74.68 139.044 73.72C138.671 72.7333 138.137 71.8933 137.444 71.2C136.777 70.48 135.977 69.9333 135.044 69.56C134.137 69.1867 133.151 69 132.084 69C131.017 69 130.017 69.1867 129.084 69.56C128.177 69.9333 127.377 70.48 126.684 71.2C126.017 71.8933 125.484 72.7333 125.084 73.72C124.711 74.68 124.524 75.7733 124.524 77C124.524 78.2 124.711 79.2933 125.084 80.28C125.484 81.2667 126.017 82.12 126.684 82.84C127.377 83.5333 128.177 84.0667 129.084 84.44C130.017 84.8133 131.017 85 132.084 85ZM151.792 91V63H159.712V91H151.792ZM175.187 91.56C172.894 91.56 170.68 91.28 168.547 90.72C166.44 90.1333 164.72 89.3867 163.387 88.48L165.987 82.64C167.24 83.44 168.68 84.1067 170.307 84.64C171.96 85.1467 173.6 85.4 175.227 85.4C176.32 85.4 177.2 85.3067 177.867 85.12C178.534 84.9067 179.014 84.64 179.307 84.32C179.627 83.9733 179.787 83.5733 179.787 83.12C179.787 82.48 179.494 81.9733 178.907 81.6C178.32 81.2267 177.56 80.92 176.627 80.68C175.694 80.44 174.654 80.2 173.507 79.96C172.387 79.72 171.254 79.4133 170.107 79.04C168.987 78.6667 167.96 78.1867 167.027 77.6C166.094 76.9867 165.334 76.2 164.747 75.24C164.16 74.2533 163.867 73.0133 163.867 71.52C163.867 69.84 164.32 68.32 165.227 66.96C166.16 65.6 167.547 64.5067 169.387 63.68C171.227 62.8533 173.52 62.44 176.267 62.44C178.107 62.44 179.907 62.6533 181.667 63.08C183.454 63.48 185.04 64.08 186.427 64.88L183.987 70.76C182.654 70.04 181.334 69.5067 180.027 69.16C178.72 68.7867 177.454 68.6 176.227 68.6C175.134 68.6 174.254 68.72 173.587 68.96C172.92 69.1733 172.44 69.4667 172.147 69.84C171.854 70.2133 171.707 70.64 171.707 71.12C171.707 71.7333 171.987 72.2267 172.547 72.6C173.134 72.9467 173.894 73.24 174.827 73.48C175.787 73.6933 176.827 73.92 177.947 74.16C179.094 74.4 180.227 74.7067 181.347 75.08C182.494 75.4267 183.534 75.9067 184.467 76.52C185.4 77.1067 186.147 77.8933 186.707 78.88C187.294 79.84 187.587 81.0533 187.587 82.52C187.587 84.1467 187.12 85.6533 186.187 87.04C185.28 88.4 183.907 89.4933 182.067 90.32C180.254 91.1467 177.96 91.56 175.187 91.56Z" fill="white"/>
<defs>
<filter id="filter0_f_633_5584" x="2.86102e-06" y="1.63994" width="197.387" height="99.72" filterUnits="userSpaceOnUse" color-interpolation-filters="sRGB">
<feFlood flood-opacity="0" result="BackgroundImageFix"/>
<feBlend mode="normal" in="SourceGraphic" in2="BackgroundImageFix" result="shape"/>
<feGaussianBlur stdDeviation="4.9" result="effect1_foregroundBlur_633_5584"/>
</filter>
<linearGradient id="paint0_linear_633_5584" x1="190.723" y1="52" x2="4.72266" y2="52" gradientUnits="userSpaceOnUse">
<stop stop-color="#A315D6"/>
<stop offset="0.5" stop-color="#FDAB60"/>
<stop offset="1" stop-color="#A315D6"/>
</linearGradient>
</defs>
</svg>
