<svg width="393" height="614" viewBox="0 0 393 614" fill="none" xmlns="http://www.w3.org/2000/svg">
<g opacity="0.8">
<circle cx="1.18101" cy="1.18101" r="1.18101" transform="matrix(1 0 0 -1 295.307 244.043)" fill="#D9D9D9"/>
<circle cx="249.074" cy="164.685" r="1.18101" fill="#D9D9D9"/>
<circle cx="1.18101" cy="1.18101" r="1.18101" transform="matrix(1 0 0 -1 389.104 207.508)" fill="#D9D9D9"/>
<circle cx="16.8088" cy="115.345" r="1.18101" fill="#D9D9D9"/>
<circle cx="1.18101" cy="1.18101" r="1.18101" transform="matrix(1 0 0 -1 176.747 245.122)" fill="#D9D9D9"/>
<circle cx="1.18101" cy="1.18101" r="1.18101" transform="matrix(1 0 0 -1 4.13933 524.09)" fill="#D9D9D9"/>
<circle cx="1.18101" cy="1.18101" r="1.18101" transform="matrix(1 0 0 -1 64.6542 257.696)" fill="#D9D9D9"/>
<circle cx="1.18101" cy="1.18101" r="1.18101" transform="matrix(1 0 0 -1 44.6619 614)" fill="#D9D9D9"/>
<circle cx="55.4165" cy="51.8382" r="1.18101" fill="#D9D9D9"/>
<circle cx="1.18101" cy="1.18101" r="1.18101" transform="matrix(1 0 0 -1 267.256 539.799)" fill="#D9D9D9"/>
<circle cx="1.18101" cy="1.18101" r="1.18101" transform="matrix(1 0 0 -1 107.451 62.653)" fill="#D9D9D9"/>
<circle cx="389.019" cy="322.468" r="1.18101" fill="#D9D9D9"/>
<circle cx="361.159" cy="605.221" r="1.18101" fill="#D9D9D9"/>
<circle cx="1.18101" cy="1.18101" r="1.18101" transform="matrix(1 0 0 -1 383.283 33.259)" fill="#D9D9D9"/>
<circle cx="1.18101" cy="1.18101" r="1.18101" transform="matrix(1 0 0 -1 200.421 279.689)" fill="#D9D9D9"/>
<circle cx="21.7952" cy="208.859" r="1.18101" fill="#D9D9D9"/>
<circle cx="1.18101" cy="1.18101" r="1.18101" transform="matrix(1 0 0 -1 132.916 227.877)" fill="#D9D9D9"/>
<circle cx="1.18101" cy="1.18101" r="1.18101" transform="matrix(1 0 0 -1 101.94 140.6)" fill="#D9D9D9"/>
<circle cx="39.8145" cy="380.42" r="1.18101" fill="#D9D9D9"/>
<circle cx="1.18101" cy="1.18101" r="1.18101" transform="matrix(1 0 0 -1 197.598 122.002)" fill="#D9D9D9"/>
<circle cx="169.943" cy="108.819" r="1.18101" fill="#D9D9D9"/>
<circle cx="1.18101" cy="1.18101" r="1.18101" transform="matrix(1 0 0 -1 365.044 472.171)" fill="#D9D9D9"/>
<circle cx="1.18101" cy="1.18101" r="1.18101" transform="matrix(1 0 0 -1 332.63 53.7299)" fill="#D9D9D9"/>
<circle cx="276.215" cy="370.72" r="1.18101" fill="#D9D9D9"/>
<circle cx="1.18101" cy="1.18101" r="1.18101" transform="matrix(1 0 0 -1 362.812 82.3365)" fill="#D9D9D9"/>
<circle cx="1.18101" cy="1.18101" r="1.18101" transform="matrix(1 0 0 -1 246.548 71.839)" fill="#D9D9D9"/>
</g>
</svg>
