<svg xmlns="http://www.w3.org/2000/svg" fill="none" viewBox="891.9555555555555 1842.2240000000002 422.25555555555553 546.02" style="max-height: 500px" width="422.25555555555553" height="546.02">
<path fill="#C3C1E3" d="M1095.17 2299.36C1097.04 2299.05 1099.17 2298.79 1100.92 2298.99C1103.41 2299.24 1104.94 2300.48 1105.79 2302.39C1106.67 2300.73 1108.15 2299.66 1110.45 2299.43C1112.2 2299.23 1114.33 2299.48 1116.2 2299.79C1127.71 2301.79 1139.27 2303.81 1150.78 2305.82C1154.37 2306.46 1158.14 2307.34 1161.15 2309.34L1161.21 2309.38L1161.2 2309.38C1165.09 2311.9 1167.36 2316.15 1169.42 2320.22C1173.19 2327.64 1176.57 2336.02 1179 2343.97C1180.11 2347.68 1181.3 2351.79 1181.94 2355.46C1182.37 2358.03 1182.27 2360.86 1180.57 2362.75C1179.2 2364.35 1176.75 2365.34 1174.56 2365.96C1172.51 2366.54 1170.28 2367.05 1168.04 2367.57C1165.54 2368.13 1162.97 2368.67 1160.42 2369.16C1148.93 2371.37 1136.77 2372.78 1125.07 2373.26C1112.23 2373.54 1099.17 2373.11 1086.3 2372.82C1074.6 2372.35 1062.45 2370.93 1050.96 2368.72C1048.4 2368.23 1045.84 2367.69 1043.33 2367.13C1041.09 2366.61 1038.86 2366.1 1036.81 2365.52C1034.62 2364.9 1032.18 2363.92 1030.8 2362.31C1029.11 2360.42 1029.01 2357.59 1029.44 2355.02C1030.07 2351.35 1031.26 2347.24 1032.37 2343.54C1034.8 2335.59 1038.18 2327.2 1041.96 2319.79C1044.01 2315.71 1046.28 2311.46 1050.17 2308.94L1050.17 2308.94L1050.23 2308.9C1053.23 2306.91 1057 2306.02 1060.59 2305.39C1072.11 2303.37 1083.66 2301.35 1095.17 2299.36Z"/>
<path fill="#9395C5" d="M1097.16 2297.38C1098.72 2297.12 1100.49 2296.91 1101.94 2297.07C1104.02 2297.28 1105.29 2298.31 1105.99 2299.9C1106.72 2298.52 1107.95 2297.63 1109.86 2297.44C1111.32 2297.27 1113.09 2297.49 1114.64 2297.74C1124.21 2299.4 1133.81 2301.08 1143.38 2302.75C1146.36 2303.28 1149.49 2304.01 1151.99 2305.66L1152.04 2305.7L1152.03 2305.7C1155.26 2307.79 1157.15 2311.32 1158.86 2314.7C1162 2320.85 1164.8 2327.82 1166.82 2334.41C1167.75 2337.49 1168.74 2340.9 1169.26 2343.95C1169.62 2346.08 1169.54 2348.43 1168.13 2350C1166.98 2351.33 1164.95 2352.15 1163.13 2352.66C1161.43 2353.15 1159.58 2353.57 1157.72 2354C1155.64 2354.47 1153.51 2354.91 1151.38 2355.32C1141.83 2357.16 1131.73 2358.33 1122.01 2358.72C1111.34 2358.96 1100.49 2358.6 1089.8 2358.36C1080.08 2357.96 1069.97 2356.79 1060.43 2354.95C1058.3 2354.55 1056.17 2354.1 1054.09 2353.63C1052.23 2353.2 1050.38 2352.78 1048.68 2352.3C1046.85 2351.78 1044.82 2350.97 1043.68 2349.63C1042.27 2348.07 1042.19 2345.71 1042.55 2343.58C1043.07 2340.54 1044.06 2337.12 1044.99 2334.05C1047 2327.45 1049.81 2320.49 1052.95 2314.34C1054.66 2310.95 1056.54 2307.43 1059.78 2305.34L1059.77 2305.33L1059.82 2305.3C1062.32 2303.65 1065.45 2302.91 1068.43 2302.38C1078 2300.71 1087.6 2299.04 1097.16 2297.38Z" opacity="0.66"/>
<path fill="#FB9840" d="M1098.61 2257.27C1100.88 2256.73 1103.44 2256.5 1104.2 2258.95C1105.11 2256.97 1107.5 2257.2 1109.61 2257.71C1119.8 2260.16 1139.46 2255.59 1161.48 2269.15C1162.63 2269.87 1163.55 2270.48 1164.11 2270.86H1164.11C1165.16 2272.38 1164.87 2274.52 1164.77 2276.3C1164.13 2284.42 1163.51 2292.54 1162.84 2300.65C1162.78 2301.35 1162.75 2302.94 1161.96 2304.79C1161.03 2306.96 1159.58 2308.38 1158.61 2309.18C1130.21 2309.42 1109.31 2309.36 1106.36 2309.03C1105.85 2308.98 1104.68 2308.85 1103.71 2308.17C1102.97 2308.47 1102.24 2308.56 1101.87 2308.6C1098.92 2308.92 1078.01 2308.98 1049.62 2308.74C1048.65 2307.94 1047.2 2306.52 1046.27 2304.35C1045.48 2302.5 1045.44 2300.92 1045.39 2300.21C1044.72 2292.1 1044.1 2283.98 1043.46 2275.87C1043.35 2274.08 1043.07 2271.94 1044.12 2270.42H1044.11C1044.67 2270.04 1045.59 2269.43 1046.75 2268.72C1068.77 2255.15 1088.42 2259.72 1098.61 2257.27Z"/>
<path fill="#EB9840" d="M1008.84 2105.87C1007.98 2106.65 1006.41 2108.08 1004.47 2109.89C1004.47 2109.89 962.035 2149.61 929.99 2220.58C929.13 2222.49 928.181 2225.16 928.095 2228.46C928.095 2228.46 927.667 2231.03 928.629 2233.45C943.024 2269.8 956.738 2306.52 971.761 2342.58C973.647 2345.55 977.082 2346.44 979.185 2343.28C980.004 2342.11 980.497 2340.46 980.863 2338.98C985.74 2319.68 990.271 2300.27 995.332 2281.02C996.073 2278.84 997.251 2277.03 999.06 2275.66C1000.16 2274.81 1001.45 2274.13 1002.72 2273.53C1010.41 2269.9 1018.1 2266.28 1025.79 2262.65C1028.27 2261.43 1031.33 2260.3 1032.93 2258.55C1033.59 2257.84 1034.06 2257 1034.29 2256.06C1034.6 2254.88 1034.56 2253.52 1034.36 2252.08C1033.65 2246.93 1037.32 2210.69 1010.72 2112.73C1010 2110.08 1009.36 2107.76 1008.84 2105.87L1008.84 2105.87Z"/>
<path fill="#3263C3" d="M1018.3 2102.67C1017.61 2102.23 1016.6 2102.36 1015.8 2102.52C1013.68 2102.95 1011.52 2103.38 1009.41 2103.83C1008.46 2104.04 1007.42 2104.46 1007.09 2105.43C1013.42 2157.17 1021.64 2209.02 1028.86 2260.74C1029.24 2262.35 1030.89 2262.64 1032.37 2262.38C1035.39 2262 1038.43 2261.64 1041.44 2261.26C1042.41 2261.14 1043.57 2260.88 1043.98 2259.94C1036.92 2208.26 1027.28 2156.49 1019.35 2104.81C1019.18 2103.86 1018.9 2103.08 1018.35 2102.7L1018.3 2102.67L1018.3 2102.67Z"/>
<path fill="#3263C3" d="M1106.65 2065.3C1097.27 2064.75 1087.05 2064.66 1076.11 2065.3C1050.07 2066.81 1027.74 2072.02 1010.03 2077.73C1009.67 2079.05 1009.27 2081.2 1009.57 2083.82C1009.93 2086.99 1011.15 2089.31 1011.92 2090.55C1029.96 2084.6 1052.61 2079.25 1078.96 2077.7C1088.77 2077.13 1098.01 2077.14 1106.59 2077.55C1106.61 2073.46 1106.63 2069.38 1106.65 2065.3Z"/>
<path fill="#FB9840" d="M1104.43 2082.34C1091.41 2081.38 1078.38 2082.77 1065.51 2084.7C1061.86 2085.25 1058.22 2085.83 1054.58 2086.42C1054.04 2086.51 1053.49 2086.28 1053.33 2085.71C1053.19 2085.22 1053.49 2084.54 1054.04 2084.45C1067.07 2082.35 1080.18 2080.23 1093.41 2080C1097.09 2079.94 1100.76 2080.03 1104.43 2080.3C1104.98 2080.34 1105.45 2080.74 1105.45 2081.32C1105.45 2081.84 1104.98 2082.38 1104.43 2082.34V2082.34Z"/>
<path fill="#FB9840" d="M1043.52 2087.13C1043.53 2087.06 1043.55 2086.97 1043.56 2086.89L1043.52 2087.16C1043.54 2087.07 1043.54 2086.99 1043.53 2086.9L1043.56 2087.17C1043.56 2087.11 1043.54 2087.06 1043.52 2087.02L1043.63 2087.26C1043.61 2087.22 1043.59 2087.19 1043.56 2087.15L1043.72 2087.36C1043.7 2087.33 1043.67 2087.3 1043.64 2087.28L1043.85 2087.44C1043.81 2087.41 1043.76 2087.38 1043.71 2087.36L1043.96 2087.46C1043.9 2087.44 1043.85 2087.43 1043.8 2087.42L1044.07 2087.46C1044 2087.45 1043.92 2087.45 1043.85 2087.46L1044.12 2087.42C1044.05 2087.43 1043.98 2087.45 1043.91 2087.48L1044.16 2087.38C1044.08 2087.41 1044.01 2087.46 1043.94 2087.51L1044.15 2087.35C1044.09 2087.4 1044.03 2087.46 1043.98 2087.52L1044.14 2087.32C1044.09 2087.38 1044.05 2087.44 1044.02 2087.51L1044.12 2087.26C1044.09 2087.34 1044.07 2087.41 1044.06 2087.5L1044.09 2087.23C1044.09 2087.31 1044.09 2087.39 1044.09 2087.47L1044.06 2087.2C1044.07 2087.29 1044.09 2087.38 1044.13 2087.46L1044.03 2087.22C1044.05 2087.28 1044.09 2087.34 1044.14 2087.41L1043.98 2087.2C1044.01 2087.24 1044.05 2087.28 1044.09 2087.31L1043.88 2087.15C1043.92 2087.18 1043.96 2087.21 1044 2087.22L1043.75 2087.12C1043.81 2087.15 1043.88 2087.16 1043.94 2087.17L1043.67 2087.13C1043.76 2087.14 1043.83 2087.14 1043.92 2087.13L1043.65 2087.17C1043.74 2087.16 1043.82 2087.14 1043.9 2087.1L1043.65 2087.2C1043.73 2087.17 1043.79 2087.13 1043.86 2087.08L1043.65 2087.24C1043.71 2087.2 1043.76 2087.15 1043.8 2087.1L1043.64 2087.3C1043.68 2087.25 1043.72 2087.19 1043.74 2087.12L1043.64 2087.37C1043.67 2087.3 1043.7 2087.22 1043.7 2087.14L1043.67 2087.41C1043.67 2087.34 1043.67 2087.27 1043.67 2087.2L1043.7 2087.47C1043.7 2087.41 1043.68 2087.36 1043.66 2087.3L1043.76 2087.55C1043.74 2087.49 1043.7 2087.43 1043.66 2087.38L1043.82 2087.59C1043.78 2087.53 1043.72 2087.48 1043.67 2087.43L1043.87 2087.59C1043.82 2087.56 1043.76 2087.52 1043.71 2087.5L1043.95 2087.6C1043.9 2087.58 1043.85 2087.56 1043.79 2087.55L1044.06 2087.59C1043.99 2087.58 1043.93 2087.58 1043.86 2087.59L1044.13 2087.55C1044.07 2087.56 1044 2087.58 1043.94 2087.6L1044.19 2087.5C1044.13 2087.52 1044.07 2087.56 1044.02 2087.6L1044.23 2087.44C1044.18 2087.48 1044.13 2087.52 1044.09 2087.57L1044.25 2087.37C1044.22 2087.41 1044.19 2087.46 1044.16 2087.51C1044.06 2087.73 1043.78 2087.92 1043.56 2087.98C1043.31 2088.05 1042.99 2088.02 1042.77 2087.88C1042.55 2087.74 1042.36 2087.53 1042.3 2087.27L1042.27 2087C1042.27 2086.82 1042.31 2086.65 1042.4 2086.49C1042.49 2086.3 1042.63 2086.13 1042.79 2086C1042.9 2085.91 1043 2085.82 1043.13 2085.76C1043.26 2085.7 1043.4 2085.63 1043.54 2085.6C1043.84 2085.54 1044.12 2085.53 1044.41 2085.61C1044.71 2085.69 1044.92 2085.84 1045.15 2086.03C1045.52 2086.35 1045.75 2086.9 1045.71 2087.39C1045.69 2087.7 1045.62 2087.97 1045.47 2088.24C1045.31 2088.51 1045.1 2088.7 1044.86 2088.88C1044.8 2088.91 1044.75 2088.95 1044.69 2088.97C1044.55 2089.03 1044.41 2089.1 1044.27 2089.13C1043.94 2089.19 1043.67 2089.2 1043.35 2089.13C1042.75 2089.01 1042.31 2088.49 1042.13 2087.92C1042.09 2087.78 1042.08 2087.62 1042.06 2087.48C1042.05 2087.4 1042.05 2087.32 1042.06 2087.25C1042.09 2086.93 1042.15 2086.68 1042.31 2086.4C1042.56 2085.96 1042.99 2085.63 1043.47 2085.49C1043.61 2085.45 1043.76 2085.43 1043.92 2085.42C1044.07 2085.41 1044.23 2085.44 1044.38 2085.47C1044.52 2085.5 1044.66 2085.56 1044.78 2085.63C1044.82 2085.64 1044.85 2085.66 1044.88 2085.69C1044.97 2085.75 1045.06 2085.81 1045.14 2085.89C1045.31 2086.07 1045.41 2086.25 1045.49 2086.49C1045.55 2086.63 1045.56 2086.8 1045.57 2086.96C1045.58 2087.08 1045.56 2087.19 1045.55 2087.31C1045.53 2087.43 1045.51 2087.56 1045.48 2087.68C1045.43 2087.92 1045.23 2088.17 1045.02 2088.29C1044.8 2088.41 1044.47 2088.47 1044.23 2088.39C1043.98 2088.31 1043.74 2088.16 1043.62 2087.92C1043.49 2087.67 1043.46 2087.41 1043.52 2087.14L1043.52 2087.13Z"/>
<path fill="#EB9840" d="M1008.92 2105.87C1008.05 2106.65 1006.48 2108.08 1004.55 2109.89C1004.55 2109.89 962.11 2149.61 930.065 2220.58C929.205 2222.49 928.256 2225.16 928.17 2228.46C928.17 2228.46 927.742 2231.03 928.704 2233.45C943.099 2269.8 956.813 2306.52 971.836 2342.58C973.722 2345.55 977.157 2346.44 979.26 2343.28C980.079 2342.11 980.572 2340.46 980.938 2338.98C985.815 2319.68 990.346 2300.27 995.407 2281.02C996.148 2278.84 997.326 2277.03 999.135 2275.66C1000.24 2274.81 1001.53 2274.13 1002.8 2273.53C1010.48 2269.9 1018.17 2266.28 1025.86 2262.65C1028.34 2261.43 1031.41 2260.3 1033.01 2258.55C1033.67 2257.84 1034.13 2257 1034.37 2256.06C1034.67 2254.88 1034.63 2253.52 1034.43 2252.08C1033.72 2246.93 1037.4 2210.69 1010.8 2112.73C1010.08 2110.08 1009.44 2107.76 1008.91 2105.87L1008.92 2105.87Z"/>
<path fill="#3263C3" d="M1018.37 2102.67C1017.69 2102.23 1016.68 2102.36 1015.87 2102.52C1013.75 2102.95 1011.59 2103.38 1009.48 2103.83C1008.53 2104.04 1007.5 2104.46 1007.17 2105.43C1013.5 2157.17 1021.72 2209.02 1028.94 2260.74C1029.32 2262.35 1030.97 2262.64 1032.45 2262.38C1035.47 2262 1038.5 2261.64 1041.52 2261.26C1042.48 2261.14 1043.65 2260.88 1044.06 2259.94C1036.99 2208.26 1027.35 2156.49 1019.43 2104.81C1019.25 2103.86 1018.98 2103.08 1018.42 2102.7L1018.38 2102.67L1018.37 2102.67Z"/>
<path fill="#3263C3" d="M1106.73 2065.3C1097.35 2064.75 1087.13 2064.66 1076.19 2065.3C1050.14 2066.81 1027.81 2072.02 1010.11 2077.73C1009.75 2079.05 1009.35 2081.2 1009.64 2083.82C1010.01 2086.99 1011.22 2089.31 1011.99 2090.55C1030.04 2084.6 1052.69 2079.25 1079.03 2077.7C1088.84 2077.13 1098.08 2077.14 1106.66 2077.55C1106.68 2073.46 1106.71 2069.38 1106.73 2065.3Z"/>
<path fill="#FB9840" d="M1104.5 2082.34C1091.49 2081.38 1078.45 2082.77 1065.58 2084.7C1061.94 2085.25 1058.3 2085.83 1054.66 2086.42C1054.12 2086.51 1053.56 2086.28 1053.4 2085.71C1053.27 2085.22 1053.57 2084.54 1054.12 2084.45C1067.15 2082.35 1080.26 2080.23 1093.49 2080C1097.16 2079.94 1100.84 2080.03 1104.5 2080.3C1105.05 2080.34 1105.52 2080.74 1105.52 2081.32C1105.52 2081.84 1105.05 2082.38 1104.5 2082.34V2082.34Z"/>
<path fill="#FB9840" d="M1043.59 2087.13C1043.61 2087.06 1043.62 2086.97 1043.64 2086.89L1043.6 2087.16C1043.61 2087.07 1043.62 2086.99 1043.6 2086.9L1043.64 2087.17C1043.63 2087.11 1043.62 2087.06 1043.6 2087.02L1043.7 2087.26C1043.68 2087.22 1043.66 2087.19 1043.64 2087.15L1043.8 2087.36C1043.77 2087.33 1043.75 2087.3 1043.72 2087.28L1043.93 2087.44C1043.88 2087.41 1043.84 2087.38 1043.79 2087.36L1044.03 2087.46C1043.98 2087.44 1043.93 2087.43 1043.87 2087.42L1044.14 2087.46C1044.07 2087.45 1044 2087.45 1043.93 2087.46L1044.2 2087.42C1044.12 2087.43 1044.06 2087.45 1043.99 2087.48L1044.23 2087.38C1044.15 2087.41 1044.08 2087.46 1044.02 2087.51L1044.23 2087.35C1044.16 2087.4 1044.1 2087.46 1044.05 2087.52L1044.21 2087.32C1044.17 2087.38 1044.13 2087.44 1044.1 2087.51L1044.2 2087.26C1044.17 2087.34 1044.15 2087.41 1044.13 2087.5L1044.17 2087.23C1044.16 2087.31 1044.16 2087.39 1044.17 2087.47L1044.13 2087.2C1044.15 2087.29 1044.17 2087.38 1044.2 2087.46L1044.1 2087.22C1044.13 2087.28 1044.17 2087.34 1044.21 2087.41L1044.05 2087.2C1044.08 2087.24 1044.12 2087.28 1044.16 2087.31L1043.95 2087.15C1043.99 2087.18 1044.03 2087.21 1044.07 2087.22L1043.83 2087.12C1043.89 2087.15 1043.95 2087.16 1044.02 2087.17L1043.75 2087.13C1043.83 2087.14 1043.91 2087.14 1043.99 2087.13L1043.72 2087.17C1043.81 2087.16 1043.89 2087.14 1043.97 2087.1L1043.73 2087.2C1043.8 2087.17 1043.87 2087.13 1043.93 2087.08L1043.73 2087.24C1043.78 2087.2 1043.83 2087.15 1043.87 2087.1L1043.71 2087.3C1043.75 2087.25 1043.79 2087.19 1043.82 2087.12L1043.72 2087.37C1043.75 2087.3 1043.77 2087.22 1043.78 2087.14L1043.74 2087.41C1043.75 2087.34 1043.75 2087.27 1043.74 2087.2L1043.78 2087.47C1043.77 2087.41 1043.75 2087.36 1043.73 2087.3L1043.84 2087.55C1043.81 2087.49 1043.78 2087.43 1043.74 2087.38L1043.9 2087.59C1043.85 2087.53 1043.8 2087.48 1043.74 2087.43L1043.95 2087.59C1043.9 2087.56 1043.84 2087.52 1043.78 2087.5L1044.03 2087.6C1043.97 2087.58 1043.92 2087.56 1043.86 2087.55L1044.13 2087.59C1044.07 2087.58 1044 2087.58 1043.94 2087.59L1044.21 2087.55C1044.14 2087.56 1044.08 2087.58 1044.02 2087.6L1044.26 2087.5C1044.2 2087.52 1044.15 2087.56 1044.1 2087.6L1044.3 2087.44C1044.25 2087.48 1044.21 2087.52 1044.17 2087.57L1044.32 2087.37C1044.29 2087.41 1044.26 2087.46 1044.24 2087.51C1044.14 2087.73 1043.85 2087.92 1043.63 2087.98C1043.39 2088.05 1043.06 2088.02 1042.85 2087.88C1042.63 2087.74 1042.44 2087.53 1042.38 2087.27L1042.34 2087C1042.34 2086.82 1042.39 2086.65 1042.48 2086.49C1042.56 2086.3 1042.7 2086.13 1042.86 2086C1042.97 2085.91 1043.08 2085.82 1043.2 2085.76C1043.33 2085.7 1043.48 2085.63 1043.62 2085.6C1043.91 2085.54 1044.19 2085.53 1044.49 2085.61C1044.78 2085.69 1045 2085.84 1045.23 2086.03C1045.6 2086.35 1045.83 2086.9 1045.79 2087.39C1045.76 2087.7 1045.7 2087.97 1045.54 2088.24C1045.39 2088.51 1045.18 2088.7 1044.93 2088.88C1044.88 2088.91 1044.82 2088.95 1044.76 2088.97C1044.63 2089.03 1044.49 2089.1 1044.34 2089.13C1044.02 2089.19 1043.75 2089.2 1043.43 2089.13C1042.82 2089.01 1042.39 2088.49 1042.21 2087.92C1042.17 2087.78 1042.15 2087.62 1042.14 2087.48C1042.13 2087.4 1042.13 2087.32 1042.14 2087.25C1042.17 2086.93 1042.23 2086.68 1042.39 2086.4C1042.63 2085.96 1043.07 2085.63 1043.54 2085.49C1043.68 2085.45 1043.84 2085.43 1043.99 2085.42C1044.14 2085.41 1044.3 2085.44 1044.45 2085.47C1044.6 2085.5 1044.73 2085.56 1044.86 2085.63C1044.89 2085.64 1044.92 2085.66 1044.96 2085.69C1045.04 2085.75 1045.14 2085.81 1045.21 2085.89C1045.38 2086.07 1045.48 2086.25 1045.57 2086.49C1045.62 2086.63 1045.64 2086.8 1045.65 2086.96C1045.66 2087.08 1045.64 2087.19 1045.62 2087.31C1045.6 2087.43 1045.58 2087.56 1045.56 2087.68C1045.51 2087.92 1045.3 2088.17 1045.09 2088.29C1044.88 2088.41 1044.55 2088.47 1044.3 2088.39C1044.06 2088.31 1043.82 2088.16 1043.7 2087.92C1043.57 2087.67 1043.53 2087.41 1043.6 2087.14L1043.59 2087.13Z"/>
<path stroke-linecap="round" stroke-width="1.75275" stroke="#A9A9B9" d="M1026.15 2050.69C1021.99 2037.91 1023.96 1989.56 1034.48 1977.29"/>
<g opacity="0.7" style="mix-blend-mode:screen">
<path fill="#EB9840" d="M1039.73 1947.85C1017.98 1974.15 1011.7 1997.98 1009.54 2009.52C1006.72 2024.56 1006.92 2040.09 1007.01 2045.36C1007.23 2058.46 1008.66 2069.51 1010.1 2077.73C1014.32 2076.31 1018.83 2074.93 1023.63 2073.66C1027.55 2072.62 1031.34 2071.74 1034.96 2071C1030.43 2070.98 1026.98 2070.53 1025.37 2069.97C1024.9 2069.8 1024.04 2069.49 1023.35 2068.68C1022.8 2068.04 1022.6 2067.38 1022.51 2067.07C1022.1 2065.67 1020.97 2061.7 1019.52 2056.3C1016.61 2042.62 1014.12 2022.2 1018.25 1999.1C1021.54 1980.7 1027.72 1967.99 1029.02 1965.38C1032.72 1957.9 1036.64 1952.02 1039.72 1947.85L1039.73 1947.85Z"/>
</g>
<g opacity="0.7" style="mix-blend-mode:screen">
<path fill="#EB9840" d="M1034.97 2071C1034.73 2071.35 1032.52 2074.74 1033.96 2078.67C1035.09 2081.75 1037.7 2083.07 1038.27 2083.34C1033.64 2084.36 1028.8 2085.56 1023.78 2086.96C1019.68 2088.1 1015.75 2089.31 1012 2090.54C1011.26 2089.39 1010.06 2087.21 1009.65 2084.2C1009.25 2081.34 1009.74 2079.02 1010.11 2077.73C1011.46 2077.3 1013.35 2076.71 1015.61 2076.01C1019.02 2074.96 1020.76 2074.42 1022.67 2073.91C1024.3 2073.48 1025.7 2073.14 1028.5 2072.48C1031.18 2071.85 1033.4 2071.34 1034.97 2070.99L1034.97 2071Z"/>
</g>
<g opacity="0.3" style="mix-blend-mode:screen">
<path fill="#EB9840" d="M1038.27 2083.34C1035.22 2085.99 1030.41 2090.81 1027.1 2098.11C1023.75 2105.48 1023.46 2112.02 1023.35 2115.13C1022.86 2129.1 1027 2181.73 1034.87 2252.71C1027.29 2198.64 1019.71 2144.57 1012.13 2090.5C1016.08 2089.2 1020.24 2087.93 1024.6 2086.73C1029.33 2085.43 1033.9 2084.31 1038.28 2083.34H1038.27Z"/>
</g>
<g opacity="0.4" style="mix-blend-mode:multiply">
<path fill="#9395C5" d="M1033.98 2084.33C1049.33 2080.68 1066.99 2077.92 1086.58 2077.37C1091.63 2077.22 1096.53 2077.23 1101.27 2077.37V2086.06C1094.29 2084.7 1086.58 2083.59 1078.25 2082.94C1061.34 2081.63 1046.35 2082.59 1033.98 2084.33Z"/>
</g>
<g opacity="0.5" style="mix-blend-mode:screen">
<path fill="#EB9840" d="M1013.78 2102.95C1012.19 2103.28 1010.6 2103.62 1009.01 2103.96C1008.9 2103.99 1008.74 2104.04 1008.56 2104.11C1008.29 2104.23 1007.92 2104.38 1007.6 2104.73C1007.48 2104.87 1007.3 2105.09 1007.17 2105.43C1007.67 2109.42 1008.16 2113.41 1008.67 2117.4C1008.45 2111.97 1008.42 2107.96 1008.54 2106.74C1008.56 2106.5 1008.62 2106.07 1008.88 2105.63C1009.26 2104.96 1009.85 2104.64 1010.47 2104.33C1011.28 2103.92 1012.39 2103.43 1013.78 2102.95H1013.78Z"/>
</g>
<g opacity="0.7" style="mix-blend-mode:screen">
<path fill="#EB9840" d="M1007.39 2107.65C1007 2107.3 997.183 2117.68 988.859 2127.43C977.402 2140.85 969.603 2151.71 967.965 2154.01C948.97 2180.63 935.374 2209.01 929.751 2221.3C929.311 2222.38 928.887 2223.65 928.565 2225.09C927.946 2227.87 927.93 2230.31 928.076 2232.15C931.035 2240.08 934.172 2248.12 937.501 2256.26C937.839 2257.08 941.184 2265.11 941.184 2265.12C938.756 2255.71 936.645 2248.3 935.182 2243.31C933.601 2237.92 932.644 2234.93 932.542 2230.55C932.375 2223.56 934.506 2218.12 935.879 2214.95C952.022 2177.63 981.334 2140.36 981.334 2140.36C997.212 2120.17 1007.82 2108.01 1007.4 2107.64L1007.39 2107.65Z"/>
</g>
<path stroke-width="1.75275" stroke="#DE7A40" d="M997.025 2149.79C981.934 2168.71 971.832 2191.11 967.643 2214.94L967.583 2215.29L967.303 2215.49L960.002 2220.93C952.754 2226.33 949.766 2235.76 952.579 2244.35L975.021 2312.88L984.23 2276.75C985.795 2270.61 989.847 2265.4 995.413 2262.37L1013.81 2252.35L999.734 2146.4L997.025 2149.79Z"/>
<path stroke-width="2.62912" stroke="#474985" d="M1073.14 2095.57C1071.11 2095.73 1069.1 2096.18 1067.2 2096.93L1044.56 2105.82C1035.66 2109.31 1030.33 2118.48 1031.7 2127.95L1044.93 2219.04L1057.82 2233.87L1058.12 2234.21L1058.14 2234.67C1058.69 2246.71 1069.62 2255.58 1081.52 2253.64L1081.81 2253.59L1081.85 2253.58L1081.88 2253.58L1105.47 2251.07V2093.08L1073.14 2095.57Z"/>
<path stroke-linecap="round" stroke-width="2.62912" stroke="#474985" d="M1039.74 2124.52L1044.12 2158.48"/>
<path stroke-linecap="round" stroke-width="2.62912" stroke="#474985" d="M1045.87 2169.66L1048.06 2185.21"/>
<path stroke-width="0.438187" stroke="#DE7A40" fill="#DE7A40" d="M991.985 2157.23L994.595 2179.86L1005.69 2192.21L999.715 2147.41L991.985 2157.23Z"/>
<path stroke-width="0.438187" stroke="#DE7A40" fill="#DE7A40" d="M1001.34 2207.99L1000.17 2197.07L995.351 2191.39L997.967 2212.48L1001.34 2207.99Z"/>
<path fill="#474985" d="M1102.84 2093.85L1083.12 2095.61L1083.17 2096.01C1083.77 2100.68 1088.11 2103.92 1092.75 2103.17L1092.85 2103.15L1102.84 2110.06V2093.85Z"/>
<path fill="#EB9840" d="M1199.39 2106.31C1200.25 2107.09 1201.82 2108.52 1203.75 2110.33C1203.75 2110.33 1246.19 2150.05 1278.24 2221.02C1279.1 2222.92 1280.05 2225.6 1280.13 2228.9C1280.13 2228.9 1280.56 2231.46 1279.6 2233.89C1265.2 2270.24 1251.49 2306.96 1236.47 2343.01C1234.58 2345.99 1231.15 2346.88 1229.04 2343.72C1228.22 2342.55 1227.73 2340.9 1227.36 2339.42C1222.49 2320.12 1217.96 2300.71 1212.9 2281.45C1212.15 2279.28 1210.98 2277.47 1209.17 2276.1C1208.06 2275.24 1206.78 2274.57 1205.51 2273.96C1197.82 2270.34 1190.13 2266.72 1182.44 2263.09C1179.96 2261.86 1176.89 2260.74 1175.3 2258.99C1174.64 2258.28 1174.17 2257.43 1173.94 2256.5C1173.63 2255.32 1173.67 2253.96 1173.87 2252.52C1174.58 2247.37 1170.9 2211.13 1197.5 2113.17C1198.22 2110.51 1198.86 2108.2 1199.39 2106.31L1199.39 2106.31Z"/>
<path fill="#3263C3" d="M1189.93 2103.11C1190.61 2102.67 1191.62 2102.79 1192.43 2102.96C1194.55 2103.39 1196.71 2103.82 1198.82 2104.27C1199.77 2104.48 1200.8 2104.9 1201.14 2105.87C1194.81 2157.61 1186.59 2209.46 1179.36 2261.18C1178.98 2262.79 1177.33 2263.08 1175.86 2262.81C1172.84 2262.44 1169.8 2262.08 1166.79 2261.7C1165.82 2261.58 1164.65 2261.32 1164.25 2260.38C1171.31 2208.7 1180.95 2156.93 1188.88 2105.25C1189.05 2104.3 1189.33 2103.52 1189.88 2103.14L1189.92 2103.11L1189.93 2103.11Z"/>
<path fill="#FB9840" d="M1164.11 2270.86C1165.16 2272.38 1164.87 2274.52 1164.77 2276.3C1164.13 2284.42 1163.51 2292.54 1162.84 2300.65C1162.78 2301.35 1162.75 2302.94 1161.96 2304.79C1161.03 2306.96 1159.58 2308.38 1158.61 2309.18C1130.21 2309.42 1109.31 2309.36 1106.36 2309.03C1105.72 2308.96 1104.06 2308.78 1103.05 2307.55C1102.3 2306.62 1102.21 2305.52 1102.22 2305.14C1102.52 2290.11 1102.95 2275 1103.89 2259.99C1104.39 2256.91 1107.18 2257.12 1109.61 2257.71C1119.8 2260.16 1139.46 2255.59 1161.48 2269.15C1162.63 2269.87 1163.55 2270.48 1164.11 2270.86H1164.11Z"/>
<path fill="#3263C3" d="M1126.03 2058.44C1146.58 2058.44 1163.24 2041.78 1163.24 2021.23C1163.24 2000.68 1146.58 1984.02 1126.03 1984.02C1105.48 1984.02 1088.82 2000.68 1088.82 2021.23C1088.82 2041.78 1105.48 2058.44 1126.03 2058.44Z"/>
<path fill="#CBCBEB" d="M1156.02 2022.74C1156.95 2005.68 1143.87 1991.1 1126.81 1990.17C1109.75 1989.25 1095.16 2002.33 1094.24 2019.39C1093.31 2036.45 1106.39 2051.03 1123.45 2051.96C1140.51 2052.89 1155.09 2039.81 1156.02 2022.74Z"/>
<path fill="#3263C3" d="M1101.57 2065.74C1110.95 2065.19 1121.18 2065.1 1132.12 2065.74C1158.16 2067.25 1180.49 2072.45 1198.2 2078.17C1198.55 2079.49 1198.96 2081.64 1198.66 2084.26C1198.3 2087.42 1197.08 2089.75 1196.31 2090.99C1178.26 2085.04 1155.62 2079.69 1129.27 2078.14C1119.46 2077.56 1110.22 2077.58 1101.64 2077.98C1101.62 2073.9 1101.59 2069.82 1101.57 2065.74Z"/>
<path fill="#FB9840" d="M1103.8 2082.78C1116.82 2081.82 1129.85 2083.21 1142.72 2085.14C1146.36 2085.69 1150.01 2086.27 1153.65 2086.86C1154.19 2086.95 1154.74 2086.72 1154.9 2086.15C1155.03 2085.66 1154.73 2084.98 1154.19 2084.89C1141.15 2082.78 1128.05 2080.67 1114.82 2080.44C1111.14 2080.38 1107.47 2080.47 1103.8 2080.74C1103.25 2080.78 1102.78 2081.18 1102.78 2081.76C1102.78 2082.28 1103.25 2082.82 1103.8 2082.78V2082.78Z"/>
<path fill="#FB9840" d="M1164.71 2087.57C1164.7 2087.49 1164.68 2087.41 1164.67 2087.33L1164.7 2087.6C1164.69 2087.51 1164.69 2087.42 1164.7 2087.34L1164.66 2087.6C1164.67 2087.55 1164.68 2087.5 1164.7 2087.46L1164.6 2087.7C1164.62 2087.66 1164.64 2087.63 1164.66 2087.59L1164.5 2087.8C1164.53 2087.77 1164.55 2087.74 1164.59 2087.72L1164.38 2087.88C1164.42 2087.84 1164.47 2087.82 1164.52 2087.8L1164.27 2087.9C1164.32 2087.88 1164.37 2087.87 1164.43 2087.86L1164.16 2087.9C1164.23 2087.89 1164.3 2087.89 1164.37 2087.9L1164.1 2087.86C1164.18 2087.87 1164.25 2087.89 1164.32 2087.92L1164.07 2087.82C1164.15 2087.85 1164.22 2087.9 1164.28 2087.95L1164.08 2087.79C1164.14 2087.84 1164.2 2087.9 1164.25 2087.96L1164.09 2087.75C1164.14 2087.82 1164.17 2087.88 1164.21 2087.95L1164.1 2087.7C1164.14 2087.78 1164.16 2087.85 1164.17 2087.93L1164.13 2087.67C1164.14 2087.75 1164.14 2087.83 1164.13 2087.91L1164.17 2087.64C1164.16 2087.73 1164.13 2087.82 1164.1 2087.9L1164.2 2087.66C1164.17 2087.72 1164.14 2087.78 1164.09 2087.84L1164.25 2087.64C1164.22 2087.68 1164.18 2087.72 1164.14 2087.75L1164.35 2087.59C1164.31 2087.62 1164.27 2087.64 1164.23 2087.66L1164.48 2087.56C1164.41 2087.58 1164.35 2087.6 1164.28 2087.61L1164.55 2087.57C1164.47 2087.58 1164.39 2087.58 1164.31 2087.57L1164.58 2087.61C1164.49 2087.6 1164.41 2087.58 1164.33 2087.54L1164.57 2087.64C1164.5 2087.61 1164.43 2087.57 1164.37 2087.52L1164.58 2087.68C1164.52 2087.64 1164.47 2087.59 1164.43 2087.53L1164.59 2087.74C1164.55 2087.69 1164.51 2087.62 1164.48 2087.56L1164.59 2087.81C1164.56 2087.73 1164.53 2087.66 1164.52 2087.58L1164.56 2087.85C1164.55 2087.78 1164.55 2087.71 1164.56 2087.64L1164.52 2087.91C1164.53 2087.85 1164.55 2087.8 1164.57 2087.74L1164.47 2087.99C1164.49 2087.93 1164.52 2087.87 1164.57 2087.82L1164.41 2088.03C1164.45 2087.97 1164.5 2087.92 1164.56 2087.87L1164.35 2088.03C1164.41 2088 1164.46 2087.96 1164.52 2087.93L1164.28 2088.04C1164.33 2088.02 1164.38 2088 1164.44 2087.99L1164.17 2088.03C1164.24 2088.02 1164.3 2088.02 1164.37 2088.03L1164.1 2087.99C1164.16 2088 1164.22 2088.02 1164.28 2088.04L1164.04 2087.94C1164.1 2087.96 1164.15 2088 1164.21 2088.04L1164 2087.88C1164.05 2087.92 1164.1 2087.96 1164.14 2088.01L1163.98 2087.8C1164.01 2087.85 1164.04 2087.9 1164.06 2087.95C1164.17 2088.17 1164.45 2088.36 1164.67 2088.42C1164.92 2088.48 1165.24 2088.46 1165.46 2088.32C1165.67 2088.18 1165.86 2087.97 1165.93 2087.71L1165.96 2087.44C1165.96 2087.26 1165.91 2087.09 1165.82 2086.93C1165.74 2086.74 1165.6 2086.57 1165.44 2086.44C1165.33 2086.35 1165.23 2086.26 1165.1 2086.2C1164.97 2086.14 1164.83 2086.07 1164.68 2086.04C1164.39 2085.98 1164.11 2085.97 1163.82 2086.05C1163.52 2086.13 1163.31 2086.28 1163.08 2086.47C1162.71 2086.78 1162.47 2087.34 1162.52 2087.83C1162.54 2088.14 1162.61 2088.41 1162.76 2088.68C1162.92 2088.95 1163.12 2089.14 1163.37 2089.32C1163.42 2089.35 1163.48 2089.38 1163.54 2089.41C1163.68 2089.47 1163.82 2089.54 1163.96 2089.57C1164.28 2089.63 1164.56 2089.64 1164.87 2089.57C1165.48 2089.45 1165.91 2088.92 1166.09 2088.36C1166.14 2088.22 1166.15 2088.06 1166.17 2087.91C1166.17 2087.84 1166.17 2087.76 1166.17 2087.69C1166.13 2087.37 1166.08 2087.11 1165.92 2086.84C1165.67 2086.4 1165.24 2086.07 1164.76 2085.93C1164.62 2085.89 1164.46 2085.87 1164.31 2085.86C1164.16 2085.85 1164 2085.88 1163.85 2085.91C1163.71 2085.94 1163.57 2086 1163.44 2086.06C1163.41 2086.08 1163.38 2086.1 1163.35 2086.12C1163.26 2086.19 1163.16 2086.25 1163.09 2086.33C1162.92 2086.51 1162.82 2086.69 1162.74 2086.92C1162.68 2087.07 1162.67 2087.24 1162.65 2087.4C1162.65 2087.51 1162.67 2087.63 1162.68 2087.75C1162.7 2087.87 1162.72 2088 1162.74 2088.12C1162.8 2088.36 1163 2088.61 1163.21 2088.73C1163.42 2088.85 1163.75 2088.91 1164 2088.83C1164.24 2088.75 1164.48 2088.6 1164.61 2088.36C1164.74 2088.11 1164.77 2087.85 1164.71 2087.58L1164.71 2087.57Z"/>
<path fill="#EB9840" d="M1199.39 2106.31C1200.25 2107.09 1201.82 2108.52 1203.75 2110.33C1203.75 2110.33 1246.19 2150.05 1278.24 2221.02C1279.1 2222.92 1280.05 2225.6 1280.13 2228.9C1280.13 2228.9 1280.56 2231.46 1279.6 2233.89C1265.2 2270.24 1251.49 2306.96 1236.47 2343.01C1234.58 2345.99 1231.15 2346.88 1229.04 2343.72C1228.22 2342.55 1227.73 2340.9 1227.36 2339.42C1222.49 2320.12 1217.96 2300.71 1212.9 2281.45C1212.15 2279.28 1210.98 2277.47 1209.17 2276.1C1208.06 2275.24 1206.78 2274.57 1205.51 2273.96C1197.82 2270.34 1190.13 2266.72 1182.44 2263.09C1179.96 2261.86 1176.89 2260.74 1175.3 2258.99C1174.64 2258.28 1174.17 2257.43 1173.94 2256.5C1173.63 2255.32 1173.67 2253.96 1173.87 2252.52C1174.58 2247.37 1170.9 2211.13 1197.5 2113.17C1198.22 2110.51 1198.86 2108.2 1199.39 2106.31L1199.39 2106.31Z"/>
<path fill="#3263C3" d="M1189.93 2103.11C1190.61 2102.67 1191.62 2102.79 1192.43 2102.96C1194.55 2103.39 1196.71 2103.82 1198.82 2104.27C1199.77 2104.48 1200.8 2104.9 1201.14 2105.87C1194.81 2157.61 1186.59 2209.46 1179.36 2261.18C1178.98 2262.79 1177.33 2263.08 1175.86 2262.81C1172.84 2262.44 1169.8 2262.08 1166.79 2261.7C1165.82 2261.58 1164.65 2261.32 1164.25 2260.38C1171.31 2208.7 1180.95 2156.93 1188.88 2105.25C1189.05 2104.3 1189.33 2103.52 1189.88 2103.14L1189.92 2103.11L1189.93 2103.11Z"/>
<path fill="#E6E7E8" d="M1107.82 1929.25C1132.42 1942.01 1157.02 1954.77 1181.62 1967.53V1967.53C1186.03 1974.65 1191.59 1985.17 1195.6 1998.74C1196.71 2002.49 1199.52 2012.61 1200.73 2028.42C1202.46 2050.81 1199.73 2068.17 1198.93 2073.36C1194.6 2101.39 1184.76 2173.55 1170.88 2271.22C1168.84 2272.92 1166.52 2273.41 1164.48 2275.11C1123.29 2272.34 1084.49 2271.9 1043.24 2274.67C1041.21 2272.97 1039.46 2272.48 1037.43 2270.78C1023.54 2173.12 1013.71 2100.95 1009.37 2072.92C1008.57 2067.73 1005.85 2050.37 1007.57 2027.98C1008.79 2012.18 1011.59 2002.06 1012.7 1998.3C1016.71 1984.73 1022.27 1974.21 1026.68 1967.09V1967.09C1051.28 1954.33 1075.88 1941.58 1100.48 1928.82C1100.47 1927.69 1100.46 1926.56 1100.45 1925.43L1103.73 1927.13C1105.1 1926.42 1106.48 1925.71 1107.85 1924.99C1107.84 1926.41 1107.83 1927.83 1107.82 1929.25Z"/>
<path stroke-linecap="round" stroke-width="1.75275" stroke="#A9A9B9" d="M1182.15 2051.13C1186.31 2038.35 1184.34 1990 1173.82 1977.73"/>
<path stroke-linecap="round" stroke-width="1.75275" stroke="#A9A9B9" d="M1022.49 2051.13C1018.33 2038.35 1020.3 1990 1030.82 1977.73"/>
<path fill="#3263C3" d="M1101.57 2065.74C1110.95 2065.19 1121.18 2065.1 1132.12 2065.74C1158.16 2067.25 1180.49 2072.45 1198.2 2078.17C1198.55 2079.49 1198.96 2081.64 1198.66 2084.26C1198.3 2087.42 1197.08 2089.75 1196.31 2090.99C1178.26 2085.04 1155.62 2079.69 1129.27 2078.14C1119.46 2077.56 1110.22 2077.58 1101.64 2077.98C1101.62 2073.9 1101.59 2069.82 1101.57 2065.74Z"/>
<path fill="#FB9840" d="M1103.8 2082.78C1116.82 2081.82 1129.85 2083.21 1142.72 2085.14C1146.36 2085.69 1150.01 2086.27 1153.65 2086.86C1154.19 2086.95 1154.74 2086.72 1154.9 2086.15C1155.03 2085.66 1154.73 2084.98 1154.19 2084.89C1141.15 2082.78 1128.05 2080.67 1114.82 2080.44C1111.14 2080.38 1107.47 2080.47 1103.8 2080.74C1103.25 2080.78 1102.78 2081.18 1102.78 2081.76C1102.78 2082.28 1103.25 2082.82 1103.8 2082.78V2082.78Z"/>
<path fill="#FB9840" d="M1164.71 2087.57C1164.7 2087.49 1164.68 2087.41 1164.67 2087.33L1164.7 2087.6C1164.69 2087.51 1164.69 2087.42 1164.7 2087.34L1164.66 2087.6C1164.67 2087.55 1164.68 2087.5 1164.7 2087.46L1164.6 2087.7C1164.62 2087.66 1164.64 2087.63 1164.66 2087.59L1164.5 2087.8C1164.53 2087.77 1164.55 2087.74 1164.59 2087.72L1164.38 2087.88C1164.42 2087.84 1164.47 2087.82 1164.52 2087.8L1164.27 2087.9C1164.32 2087.88 1164.37 2087.87 1164.43 2087.86L1164.16 2087.9C1164.23 2087.89 1164.3 2087.89 1164.37 2087.9L1164.1 2087.86C1164.18 2087.87 1164.25 2087.89 1164.32 2087.92L1164.07 2087.82C1164.15 2087.85 1164.22 2087.9 1164.28 2087.95L1164.08 2087.79C1164.14 2087.84 1164.2 2087.9 1164.25 2087.96L1164.09 2087.75C1164.14 2087.82 1164.17 2087.88 1164.21 2087.95L1164.1 2087.7C1164.14 2087.78 1164.16 2087.85 1164.17 2087.93L1164.13 2087.67C1164.14 2087.75 1164.14 2087.83 1164.13 2087.91L1164.17 2087.64C1164.16 2087.73 1164.13 2087.82 1164.1 2087.9L1164.2 2087.66C1164.17 2087.72 1164.14 2087.78 1164.09 2087.84L1164.25 2087.64C1164.22 2087.68 1164.18 2087.72 1164.14 2087.75L1164.35 2087.59C1164.31 2087.62 1164.27 2087.64 1164.23 2087.66L1164.48 2087.56C1164.41 2087.58 1164.35 2087.6 1164.28 2087.61L1164.55 2087.57C1164.47 2087.58 1164.39 2087.58 1164.31 2087.57L1164.58 2087.61C1164.49 2087.6 1164.41 2087.58 1164.33 2087.54L1164.57 2087.64C1164.5 2087.61 1164.43 2087.57 1164.37 2087.52L1164.58 2087.68C1164.52 2087.64 1164.47 2087.59 1164.43 2087.53L1164.59 2087.74C1164.55 2087.69 1164.51 2087.62 1164.48 2087.56L1164.59 2087.81C1164.56 2087.73 1164.53 2087.66 1164.52 2087.58L1164.56 2087.85C1164.55 2087.78 1164.55 2087.71 1164.56 2087.64L1164.52 2087.91C1164.53 2087.85 1164.55 2087.8 1164.57 2087.74L1164.47 2087.99C1164.49 2087.93 1164.52 2087.87 1164.56 2087.82L1164.41 2088.03C1164.45 2087.97 1164.5 2087.92 1164.56 2087.87L1164.35 2088.03C1164.41 2088 1164.46 2087.96 1164.52 2087.93L1164.28 2088.04C1164.33 2088.02 1164.38 2088 1164.44 2087.99L1164.17 2088.03C1164.23 2088.02 1164.3 2088.02 1164.37 2088.03L1164.1 2087.99C1164.16 2088 1164.22 2088.02 1164.28 2088.04L1164.04 2087.94C1164.1 2087.96 1164.15 2088 1164.21 2088.04L1164 2087.88C1164.05 2087.92 1164.1 2087.96 1164.14 2088.01L1163.98 2087.8C1164.01 2087.85 1164.04 2087.9 1164.06 2087.95C1164.17 2088.17 1164.45 2088.36 1164.67 2088.42C1164.92 2088.48 1165.24 2088.46 1165.46 2088.32C1165.67 2088.18 1165.86 2087.97 1165.93 2087.71L1165.96 2087.44C1165.96 2087.26 1165.91 2087.09 1165.82 2086.93C1165.74 2086.74 1165.6 2086.57 1165.44 2086.44C1165.33 2086.35 1165.22 2086.26 1165.1 2086.2C1164.97 2086.14 1164.83 2086.07 1164.68 2086.04C1164.39 2085.98 1164.11 2085.97 1163.82 2086.05C1163.52 2086.13 1163.31 2086.28 1163.08 2086.47C1162.71 2086.78 1162.47 2087.34 1162.52 2087.83C1162.54 2088.14 1162.61 2088.41 1162.76 2088.68C1162.91 2088.95 1163.12 2089.14 1163.37 2089.32C1163.42 2089.35 1163.48 2089.38 1163.54 2089.41C1163.68 2089.47 1163.82 2089.54 1163.96 2089.57C1164.28 2089.63 1164.56 2089.64 1164.87 2089.57C1165.48 2089.45 1165.91 2088.92 1166.09 2088.36C1166.14 2088.22 1166.15 2088.06 1166.17 2087.91C1166.17 2087.84 1166.17 2087.76 1166.17 2087.69C1166.13 2087.37 1166.08 2087.11 1165.92 2086.84C1165.67 2086.4 1165.24 2086.07 1164.76 2085.93C1164.62 2085.89 1164.46 2085.87 1164.31 2085.86C1164.16 2085.85 1164 2085.88 1163.85 2085.91C1163.71 2085.94 1163.57 2086 1163.44 2086.06C1163.41 2086.08 1163.38 2086.1 1163.35 2086.12C1163.26 2086.19 1163.16 2086.25 1163.09 2086.33C1162.92 2086.51 1162.82 2086.69 1162.74 2086.92C1162.68 2087.07 1162.67 2087.24 1162.65 2087.4C1162.65 2087.51 1162.67 2087.63 1162.68 2087.75C1162.7 2087.87 1162.72 2088 1162.74 2088.12C1162.8 2088.36 1163 2088.61 1163.21 2088.73C1163.42 2088.85 1163.75 2088.91 1164 2088.83C1164.24 2088.75 1164.48 2088.6 1164.61 2088.36C1164.74 2088.11 1164.77 2087.85 1164.71 2087.58L1164.71 2087.57Z"/>
<g opacity="0.7" style="mix-blend-mode:screen">
<path fill="#EB9840" d="M1168.57 1948.29C1190.32 1974.59 1196.61 1998.42 1198.77 2009.96C1201.58 2025 1201.38 2040.52 1201.3 2045.8C1201.08 2058.9 1199.65 2069.95 1198.2 2078.17C1193.99 2076.75 1189.47 2075.37 1184.67 2074.1C1180.75 2073.06 1176.97 2072.18 1173.34 2071.44C1177.87 2071.42 1181.33 2070.97 1182.93 2070.41C1183.41 2070.24 1184.26 2069.93 1184.96 2069.12C1185.5 2068.48 1185.7 2067.82 1185.79 2067.51C1186.2 2066.11 1187.33 2062.14 1188.79 2056.74C1191.69 2043.05 1194.18 2022.64 1190.05 1999.54C1186.76 1981.14 1180.58 1968.43 1179.29 1965.81C1175.58 1958.34 1171.67 1952.46 1168.58 1948.29L1168.57 1948.29Z"/>
</g>
<g opacity="0.7" style="mix-blend-mode:screen">
<path fill="#EB9840" d="M1173.34 2071.44C1173.57 2071.79 1175.78 2075.18 1174.34 2079.1C1173.21 2082.19 1170.6 2083.51 1170.03 2083.78C1174.67 2084.8 1179.51 2085.99 1184.52 2087.4C1188.62 2088.54 1192.56 2089.75 1196.3 2090.98C1197.05 2089.83 1198.24 2087.65 1198.66 2084.64C1199.05 2081.78 1198.57 2079.46 1198.19 2078.16C1196.84 2077.74 1194.96 2077.14 1192.69 2076.45C1189.28 2075.4 1187.54 2074.86 1185.63 2074.35C1184 2073.91 1182.6 2073.58 1179.8 2072.92C1177.13 2072.29 1174.9 2071.78 1173.33 2071.43L1173.34 2071.44Z"/>
</g>
<g opacity="0.1" style="mix-blend-mode:screen">
<path fill="#D1E7FF" d="M1107.66 1981.53C1110.79 1981.46 1115.78 1981.73 1121.44 1983.82C1124.54 1984.96 1130 1987.44 1135.11 1992.64C1139.43 1997.04 1141.77 2001.61 1143.01 2004.66C1144.2 2007.55 1145.76 2012.42 1145.79 2018.58C1145.82 2027.99 1142.26 2034.85 1140.78 2037.39C1136.09 2045.5 1129.61 2049.63 1126.69 2051.25C1138.6 2042.11 1144.47 2027.23 1141.76 2012.93C1138.67 1996.58 1124.88 1983.76 1107.66 1981.53H1107.66Z"/>
</g>
<g opacity="0.3" style="mix-blend-mode:screen">
<path fill="#EB9840" d="M1170.03 2083.78C1173.08 2086.43 1177.89 2091.25 1181.2 2098.55C1184.55 2105.92 1184.84 2112.45 1184.95 2115.57C1185.44 2129.54 1181.3 2182.17 1173.43 2253.15C1181.01 2199.08 1188.6 2145.01 1196.17 2090.94C1192.22 2089.64 1188.06 2088.37 1183.7 2087.17C1178.97 2085.86 1174.4 2084.74 1170.02 2083.78H1170.03Z"/>
</g>
<g opacity="0.6" style="mix-blend-mode:multiply">
<path fill="#9395C5" d="M1137.89 2267.14C1149.18 2268.25 1160 2269.59 1170.31 2271.11H1170.32L1164.08 2276.58C1155.16 2275.81 1146.13 2275.08 1137 2274.41C1114.47 2272.77 1093.36 2272.33 1070.86 2273.97C1061.73 2274.64 1052.71 2275.37 1043.79 2276.14L1037.55 2270.67H1037.56C1047.86 2269.16 1058.68 2267.81 1069.98 2266.7C1093.28 2264.42 1114.65 2264.86 1137.89 2267.14Z"/>
</g>
<g opacity="0.7" style="mix-blend-mode:multiply">
<path fill="#9395C5" d="M1103.96 2057.15C1100.82 2057.62 1089.12 2058.99 1078.04 2051.62C1069.1 2044.84 1066.91 2034.32 1068 2023.59C1068.85 2025.51 1072.68 2039.42 1074.67 2042.1C1075.82 2043.65 1078.98 2047.66 1084.18 2051.07C1092.1 2056.26 1100.15 2057.04 1103.95 2057.15L1103.96 2057.15Z"/>
</g>
<g opacity="0.5" style="mix-blend-mode:screen">
<path fill="#EB9840" d="M1194.52 2103.38C1196.11 2103.72 1197.71 2104.06 1199.3 2104.39C1199.41 2104.43 1199.56 2104.48 1199.74 2104.55C1200.01 2104.66 1200.38 2104.82 1200.71 2105.17C1200.83 2105.3 1201 2105.53 1201.14 2105.87C1200.64 2109.86 1200.14 2113.85 1199.64 2117.84C1199.85 2112.41 1199.89 2108.4 1199.76 2107.18C1199.74 2106.93 1199.68 2106.51 1199.42 2106.07C1199.04 2105.4 1198.45 2105.08 1197.83 2104.77C1197.02 2104.36 1195.91 2103.87 1194.52 2103.38H1194.52Z"/>
</g>
<g opacity="0.7" style="mix-blend-mode:screen">
<path fill="#EB9840" d="M1200.91 2108.09C1201.3 2107.74 1211.12 2118.12 1219.44 2127.87C1230.9 2141.29 1238.7 2152.15 1240.34 2154.45C1259.33 2181.07 1272.93 2209.45 1278.55 2221.74C1278.99 2222.81 1279.42 2224.09 1279.74 2225.53C1280.36 2228.31 1280.37 2230.75 1280.23 2232.59C1277.27 2240.51 1274.13 2248.56 1270.8 2256.7C1270.46 2257.52 1267.12 2265.55 1267.12 2265.56C1269.55 2256.14 1271.66 2248.74 1273.12 2243.75C1274.7 2238.36 1275.66 2235.36 1275.76 2230.99C1275.93 2224 1273.8 2218.56 1272.42 2215.39C1256.28 2178.07 1226.97 2140.8 1226.97 2140.8C1211.09 2120.61 1200.49 2108.45 1200.9 2108.08L1200.91 2108.09Z"/>
</g>
<g opacity="0.2" style="mix-blend-mode:multiply">
<path fill="#6B00FF" d="M1157.47 2281.84C1154.25 2279.85 1146.93 2279.61 1141.82 2279.63C1117.87 2279.65 1093.57 2279.39 1069.62 2278.84C1064.9 2278.74 1059.28 2278.6 1055.06 2279.64C1047.61 2281.46 1049.41 2285.07 1056.18 2286.52C1060.23 2287.45 1065.43 2287.49 1069.99 2287.5C1093.4 2287.54 1116.94 2287.49 1140.27 2287.31C1142.97 2287.28 1145.87 2287.21 1148.43 2286.97C1153.19 2286.62 1161.35 2284.57 1157.52 2281.88L1157.47 2281.84L1157.47 2281.84Z"/>
</g>
<g opacity="0.2" style="mix-blend-mode:multiply">
<path fill="#6B00FF" d="M1154.75 2295.12C1151.64 2293.16 1144.67 2293.03 1139.8 2293.13C1116.98 2293.52 1093.83 2293.63 1071 2293.45C1066.51 2293.42 1061.14 2293.37 1057.15 2294.47C1050.08 2296.43 1051.87 2300.04 1058.34 2301.4C1062.22 2302.28 1067.17 2302.24 1071.52 2302.18C1093.82 2301.86 1116.24 2301.44 1138.47 2300.9C1141.05 2300.84 1143.8 2300.72 1146.24 2300.43C1150.76 2300.01 1158.5 2297.82 1154.8 2295.15L1154.75 2295.12L1154.75 2295.12Z"/>
</g>
<path stroke-width="1.75275" stroke="#DE7A40" d="M1211.28 2150.23C1226.37 2169.15 1236.47 2191.55 1240.66 2215.38L1240.72 2215.72L1241 2215.93L1248.3 2221.37C1255.55 2226.77 1258.54 2236.2 1255.72 2244.79L1233.28 2313.32L1224.07 2277.19C1222.51 2271.05 1218.46 2265.84 1212.89 2262.81L1194.49 2252.79L1208.57 2146.84L1211.28 2150.23Z"/>
<path stroke-width="0.438187" stroke="#DE7A40" fill="#DE7A40" d="M1216.32 2157.67L1213.71 2180.3L1202.61 2192.65L1208.59 2147.85L1216.32 2157.67Z"/>
<path stroke-width="0.438187" stroke="#DE7A40" fill="#DE7A40" d="M1206.96 2208.43L1208.13 2197.51L1212.95 2191.83L1210.34 2212.92L1206.96 2208.43Z"/>
<path fill="#474985" d="M1041.31 2168.79C1042.03 2168.69 1042.69 2169.19 1042.79 2169.91L1044.98 2185.47C1045.08 2186.19 1044.58 2186.85 1043.86 2186.95C1043.15 2187.05 1042.48 2186.55 1042.38 2185.84L1040.19 2170.28C1040.09 2169.56 1040.59 2168.9 1041.31 2168.79Z"/>
<path fill="#474985" d="M1035.19 2123.66C1035.91 2123.57 1036.57 2124.07 1036.66 2124.79L1041.04 2158.75C1041.13 2159.47 1040.63 2160.13 1039.91 2160.23C1039.19 2160.32 1038.53 2159.81 1038.43 2159.09L1034.05 2125.13C1033.96 2124.41 1034.47 2123.75 1035.19 2123.66Z"/>
<path fill="#474985" d="M1161.13 2169.91C1161.23 2169.19 1161.89 2168.69 1162.61 2168.79C1163.33 2168.9 1163.83 2169.56 1163.73 2170.28L1161.54 2185.84C1161.44 2186.55 1160.77 2187.05 1160.06 2186.95C1159.34 2186.85 1158.84 2186.19 1158.94 2185.47L1161.13 2169.91Z"/>
<path fill="#474985" d="M1167.26 2124.79C1167.35 2124.08 1168.01 2123.57 1168.73 2123.66C1169.45 2123.75 1169.96 2124.41 1169.87 2125.13L1165.49 2159.09C1165.39 2159.81 1164.73 2160.32 1164.01 2160.23C1163.29 2160.13 1162.79 2159.47 1162.88 2158.75L1167.26 2124.79Z"/>
<path fill="#474985" d="M1102.4 2092.17L1135.26 2094.7C1137.43 2094.86 1139.56 2095.35 1141.58 2096.15L1164.22 2105.03C1173.7 2108.75 1179.36 2118.5 1177.9 2128.57L1164.62 2220.05L1151.48 2235.17C1150.9 2247.9 1139.43 2257.3 1126.87 2255.42L1126.57 2255.37L1126.28 2255.32L1101.96 2252.74L1077.64 2255.32L1077.35 2255.37L1077.05 2255.42C1064.49 2257.3 1053.02 2247.9 1052.45 2235.17L1039.3 2220.05L1026.02 2128.57C1024.56 2118.5 1030.22 2108.75 1039.7 2105.03L1062.34 2096.15C1064.36 2095.35 1066.49 2094.86 1068.66 2094.7L1101.52 2092.17V2092.1L1101.96 2092.13L1102.4 2092.1V2092.17ZM1068.86 2097.32C1066.95 2097.46 1065.08 2097.89 1063.3 2098.59L1040.66 2107.48C1032.32 2110.75 1027.34 2119.33 1028.62 2128.2L1041.79 2218.91L1055.03 2234.13L1055.07 2235.05C1055.58 2246.31 1065.8 2254.6 1076.92 2252.78L1077.29 2252.72L1077.36 2252.71L1099.77 2250.33V2109.59L1091.1 2103.59L1091 2103.61C1086.36 2104.35 1082.02 2101.11 1081.42 2096.45L1081.4 2096.35L1068.86 2097.32ZM1122.5 2096.45C1121.9 2101.11 1117.56 2104.35 1112.92 2103.61L1112.82 2103.59L1104.15 2109.59V2250.33L1126.56 2252.71L1126.63 2252.72L1127 2252.78C1138.12 2254.6 1148.34 2246.31 1148.85 2235.05L1148.89 2234.13L1162.13 2218.91L1175.3 2128.2C1176.58 2119.33 1171.6 2110.75 1163.26 2107.48L1140.62 2098.59C1138.84 2097.89 1136.97 2097.46 1135.06 2097.32L1122.52 2096.35L1122.5 2096.45Z" clip-rule="evenodd" fill-rule="evenodd"/>
<path fill="#3263C3" d="M1104.99 2058.44C1125.55 2058.44 1142.21 2041.78 1142.21 2021.23C1142.21 2000.68 1125.55 1984.02 1104.99 1984.02C1084.44 1984.02 1067.78 2000.68 1067.78 2021.23C1067.78 2041.78 1084.44 2058.44 1104.99 2058.44Z"/>
<path fill="#CBCBEB" d="M1134.99 2022.74C1135.91 2005.68 1122.83 1991.1 1105.77 1990.17C1088.71 1989.25 1074.13 2002.33 1073.2 2019.39C1072.28 2036.45 1085.35 2051.03 1102.42 2051.96C1119.48 2052.89 1134.06 2039.81 1134.99 2022.74Z"/>
<path fill="#D1E7FF" d="M1099.42 1990.47C1098.27 1990.64 1097 1990.9 1095.62 1991.29C1094.18 1991.7 1092.91 1992.17 1091.82 1992.64C1096.21 2012.43 1100.6 2032.22 1104.99 2052C1106.35 2051.97 1107.97 2051.84 1109.76 2051.51C1111.59 2051.17 1113.18 2050.69 1114.48 2050.2C1109.46 2030.29 1104.44 2010.38 1099.41 1990.46L1099.42 1990.47Z" opacity="0.1"/>
<path fill="#D1E7FF" d="M1107.82 1990.35C1113.45 2008.27 1119.07 2026.2 1124.7 2044.13C1125.28 2043.53 1125.86 2042.93 1126.45 2042.32C1126.93 2041.82 1127.42 2041.32 1127.9 2040.81C1122.38 2024.2 1116.87 2007.59 1111.35 1990.98C1110.88 1990.83 1110.34 1990.68 1109.73 1990.57C1109.03 1990.43 1108.38 1990.37 1107.82 1990.34V1990.35Z" opacity="0.1"/>
<path fill="#3263C3" d="M1105.76 2065.74C1096.38 2065.19 1086.16 2065.1 1075.22 2065.74C1049.17 2067.25 1026.84 2072.45 1009.14 2078.17C1008.78 2079.49 1008.38 2081.64 1008.67 2084.26C1009.04 2087.42 1010.25 2089.75 1011.02 2090.99C1029.07 2085.04 1051.72 2079.69 1078.06 2078.14C1087.87 2077.56 1097.11 2077.58 1105.69 2077.98C1105.71 2073.9 1105.74 2069.82 1105.76 2065.74Z"/>
<path fill="#FB9840" d="M1103.53 2082.78C1090.52 2081.82 1077.48 2083.21 1064.62 2085.14C1060.97 2085.69 1057.33 2086.27 1053.69 2086.86C1053.15 2086.95 1052.59 2086.72 1052.43 2086.15C1052.3 2085.66 1052.6 2084.98 1053.15 2084.89C1066.18 2082.78 1079.29 2080.67 1092.52 2080.44C1096.19 2080.38 1099.87 2080.47 1103.53 2080.74C1104.08 2080.78 1104.55 2081.18 1104.55 2081.76C1104.55 2082.28 1104.08 2082.82 1103.53 2082.78V2082.78Z"/>
<path fill="#FB9840" d="M1042.62 2087.57C1042.64 2087.49 1042.65 2087.41 1042.67 2087.33L1042.63 2087.6C1042.64 2087.51 1042.65 2087.42 1042.63 2087.34L1042.67 2087.6C1042.66 2087.55 1042.65 2087.5 1042.63 2087.46L1042.73 2087.7C1042.72 2087.66 1042.7 2087.63 1042.67 2087.59L1042.83 2087.8C1042.81 2087.77 1042.78 2087.74 1042.75 2087.72L1042.96 2087.88C1042.91 2087.84 1042.87 2087.82 1042.82 2087.8L1043.06 2087.9C1043.01 2087.88 1042.96 2087.87 1042.9 2087.86L1043.17 2087.9C1043.1 2087.89 1043.03 2087.89 1042.96 2087.9L1043.23 2087.86C1043.16 2087.87 1043.09 2087.89 1043.02 2087.92L1043.26 2087.82C1043.18 2087.85 1043.11 2087.9 1043.05 2087.95L1043.26 2087.79C1043.19 2087.84 1043.14 2087.9 1043.08 2087.96L1043.24 2087.75C1043.2 2087.82 1043.16 2087.88 1043.13 2087.95L1043.23 2087.7C1043.2 2087.78 1043.18 2087.85 1043.16 2087.93L1043.2 2087.67C1043.19 2087.75 1043.19 2087.83 1043.2 2087.91L1043.16 2087.64C1043.18 2087.73 1043.2 2087.82 1043.23 2087.9L1043.13 2087.66C1043.16 2087.72 1043.2 2087.78 1043.24 2087.84L1043.08 2087.64C1043.11 2087.68 1043.15 2087.72 1043.19 2087.75L1042.98 2087.59C1043.02 2087.62 1043.06 2087.64 1043.1 2087.66L1042.86 2087.56C1042.92 2087.58 1042.98 2087.6 1043.05 2087.61L1042.78 2087.57C1042.86 2087.58 1042.94 2087.58 1043.02 2087.57L1042.75 2087.61C1042.84 2087.6 1042.92 2087.58 1043 2087.54L1042.76 2087.64C1042.83 2087.61 1042.9 2087.57 1042.96 2087.52L1042.76 2087.68C1042.81 2087.64 1042.86 2087.59 1042.9 2087.53L1042.74 2087.74C1042.78 2087.69 1042.82 2087.62 1042.85 2087.56L1042.75 2087.81C1042.78 2087.73 1042.8 2087.66 1042.81 2087.58L1042.77 2087.85C1042.78 2087.78 1042.78 2087.71 1042.77 2087.64L1042.81 2087.91C1042.8 2087.85 1042.78 2087.8 1042.76 2087.74L1042.87 2087.99C1042.84 2087.93 1042.81 2087.87 1042.77 2087.82L1042.93 2088.03C1042.88 2087.97 1042.83 2087.92 1042.77 2087.87L1042.98 2088.03C1042.93 2088 1042.87 2087.96 1042.81 2087.93L1043.06 2088.04C1043 2088.02 1042.95 2088 1042.89 2087.99L1043.16 2088.03C1043.1 2088.02 1043.03 2088.02 1042.97 2088.03L1043.24 2087.99C1043.17 2088 1043.11 2088.02 1043.05 2088.04L1043.29 2087.94C1043.23 2087.96 1043.18 2088 1043.13 2088.04L1043.33 2087.88C1043.28 2087.92 1043.24 2087.96 1043.2 2088.01L1043.36 2087.8C1043.32 2087.85 1043.29 2087.9 1043.27 2087.95C1043.17 2088.17 1042.88 2088.36 1042.66 2088.42C1042.42 2088.48 1042.09 2088.46 1041.88 2088.32C1041.66 2088.18 1041.47 2087.97 1041.41 2087.71L1041.37 2087.44C1041.37 2087.26 1041.42 2087.09 1041.51 2086.93C1041.6 2086.74 1041.73 2086.57 1041.89 2086.44C1042 2086.35 1042.11 2086.26 1042.23 2086.2C1042.36 2086.14 1042.51 2086.07 1042.65 2086.04C1042.94 2085.98 1043.22 2085.97 1043.52 2086.05C1043.81 2086.13 1044.03 2086.28 1044.26 2086.47C1044.63 2086.78 1044.86 2087.34 1044.82 2087.83C1044.79 2088.14 1044.73 2088.41 1044.57 2088.68C1044.42 2088.95 1044.21 2089.14 1043.96 2089.32C1043.91 2089.35 1043.85 2089.38 1043.79 2089.41C1043.66 2089.47 1043.52 2089.54 1043.37 2089.57C1043.05 2089.63 1042.78 2089.64 1042.46 2089.57C1041.85 2089.45 1041.42 2088.92 1041.24 2088.36C1041.2 2088.22 1041.18 2088.06 1041.17 2087.91C1041.16 2087.84 1041.16 2087.76 1041.17 2087.69C1041.2 2087.37 1041.26 2087.11 1041.42 2086.84C1041.66 2086.4 1042.1 2086.07 1042.57 2085.93C1042.72 2085.89 1042.87 2085.87 1043.02 2085.86C1043.17 2085.85 1043.33 2085.88 1043.48 2085.91C1043.63 2085.94 1043.76 2086 1043.89 2086.06C1043.92 2086.08 1043.95 2086.1 1043.99 2086.12C1044.07 2086.19 1044.17 2086.25 1044.24 2086.33C1044.41 2086.51 1044.51 2086.69 1044.6 2086.92C1044.66 2087.07 1044.67 2087.24 1044.68 2087.4C1044.69 2087.51 1044.67 2087.63 1044.65 2087.75C1044.63 2087.87 1044.61 2088 1044.59 2088.12C1044.54 2088.36 1044.33 2088.61 1044.12 2088.73C1043.91 2088.85 1043.58 2088.91 1043.33 2088.83C1043.09 2088.75 1042.85 2088.6 1042.73 2088.36C1042.6 2088.11 1042.56 2087.85 1042.63 2087.58L1042.62 2087.57Z"/>
<g opacity="0.7" style="mix-blend-mode:screen">
<path fill="#EB9840" d="M1038.76 1948.29C1017.01 1974.59 1010.73 1998.42 1008.57 2009.96C1005.75 2025 1005.95 2040.52 1006.04 2045.8C1006.26 2058.9 1007.69 2069.95 1009.13 2078.17C1013.35 2076.75 1017.86 2075.37 1022.67 2074.1C1026.58 2073.06 1030.37 2072.18 1033.99 2071.44C1029.47 2071.42 1026.01 2070.97 1024.4 2070.41C1023.93 2070.24 1023.07 2069.93 1022.38 2069.12C1021.83 2068.48 1021.63 2067.82 1021.54 2067.51C1021.13 2066.11 1020 2062.14 1018.55 2056.74C1015.64 2043.05 1013.15 2022.64 1017.28 1999.54C1020.57 1981.14 1026.75 1968.43 1028.05 1965.81C1031.75 1958.34 1035.67 1952.46 1038.76 1948.29L1038.76 1948.29Z"/>
</g>
<g opacity="0.7" style="mix-blend-mode:screen">
<path fill="#EB9840" d="M1034 2071.44C1033.76 2071.79 1031.56 2075.18 1032.99 2079.1C1034.12 2082.19 1036.73 2083.51 1037.3 2083.78C1032.67 2084.8 1027.83 2085.99 1022.81 2087.4C1018.71 2088.54 1014.78 2089.75 1011.03 2090.98C1010.29 2089.83 1009.09 2087.65 1008.68 2084.64C1008.28 2081.78 1008.77 2079.46 1009.14 2078.16C1010.49 2077.74 1012.38 2077.14 1014.64 2076.45C1018.05 2075.4 1019.79 2074.86 1021.7 2074.35C1023.33 2073.91 1024.73 2073.58 1027.53 2072.92C1030.21 2072.29 1032.43 2071.78 1034 2071.43L1034 2071.44Z"/>
</g>
<g opacity="0.3" style="mix-blend-mode:screen">
<path fill="#EB9840" d="M1037.3 2083.78C1034.25 2086.43 1029.44 2091.25 1026.13 2098.55C1022.78 2105.92 1022.49 2112.45 1022.38 2115.57C1021.89 2129.54 1026.03 2182.17 1033.9 2253.15C1026.32 2199.08 1018.74 2145.01 1011.16 2090.94C1015.12 2089.64 1019.28 2088.37 1023.63 2087.17C1028.36 2085.86 1032.93 2084.74 1037.31 2083.78H1037.3Z"/>
</g>
<path fill="#EB9840" d="M1105.25 1942.96C1070.54 1942.96 1031.19 1969.4 1018.7 1978.23C1027.03 1940.55 1088.38 1869.68 1105.25 1870C1122.12 1870.32 1183.83 1955.45 1188.5 1978.23C1177.04 1969.4 1139.95 1942.96 1105.25 1942.96Z"/>
<path fill="#DE7A40" d="M1105.02 1943.4C1079.06 1943.37 1049.53 1957.75 1040.18 1964.35C1046.44 1936.16 1092.4 1883.19 1105.02 1883.44C1117.65 1883.69 1163.75 1947.45 1167.23 1964.5C1158.66 1957.88 1130.99 1943.43 1105.02 1943.4Z"/>
</svg>