<svg width="393" height="852" viewBox="0 0 393 852" fill="none" xmlns="http://www.w3.org/2000/svg">
<g clip-path="url(#clip0_750_5707)">
<rect width="393" height="852" fill="url(#paint0_radial_750_5707)"/>
<g opacity="0.8">
<circle cx="1.18101" cy="1.18101" r="1.18101" transform="matrix(1 0 0 -1 295.307 259.043)" fill="#D9D9D9"/>
<circle cx="249.074" cy="179.685" r="1.18101" fill="#D9D9D9"/>
<circle cx="1.18101" cy="1.18101" r="1.18101" transform="matrix(1 0 0 -1 389.104 222.508)" fill="#D9D9D9"/>
<circle cx="16.8088" cy="130.345" r="1.18101" fill="#D9D9D9"/>
<circle cx="1.18101" cy="1.18101" r="1.18101" transform="matrix(1 0 0 -1 176.747 260.122)" fill="#D9D9D9"/>
<circle cx="1.18101" cy="1.18101" r="1.18101" transform="matrix(1 0 0 -1 4.13933 539.09)" fill="#D9D9D9"/>
<circle cx="1.18101" cy="1.18101" r="1.18101" transform="matrix(1 0 0 -1 64.6542 272.696)" fill="#D9D9D9"/>
<circle cx="1.18101" cy="1.18101" r="1.18101" transform="matrix(1 0 0 -1 44.6619 629)" fill="#D9D9D9"/>
<circle cx="55.4165" cy="66.8382" r="1.18101" fill="#D9D9D9"/>
<circle cx="1.18101" cy="1.18101" r="1.18101" transform="matrix(1 0 0 -1 267.256 554.799)" fill="#D9D9D9"/>
<circle cx="1.18101" cy="1.18101" r="1.18101" transform="matrix(1 0 0 -1 107.451 77.653)" fill="#D9D9D9"/>
<circle cx="389.019" cy="337.468" r="1.18101" fill="#D9D9D9"/>
<circle cx="361.159" cy="620.221" r="1.18101" fill="#D9D9D9"/>
<circle cx="1.18101" cy="1.18101" r="1.18101" transform="matrix(1 0 0 -1 383.283 48.259)" fill="#D9D9D9"/>
<circle cx="1.18101" cy="1.18101" r="1.18101" transform="matrix(1 0 0 -1 200.421 294.689)" fill="#D9D9D9"/>
<circle cx="21.7952" cy="223.859" r="1.18101" fill="#D9D9D9"/>
<circle cx="1.18101" cy="1.18101" r="1.18101" transform="matrix(1 0 0 -1 132.916 242.877)" fill="#D9D9D9"/>
<circle cx="1.18101" cy="1.18101" r="1.18101" transform="matrix(1 0 0 -1 101.94 155.6)" fill="#D9D9D9"/>
<circle cx="39.8145" cy="395.42" r="1.18101" fill="#D9D9D9"/>
<circle cx="1.18101" cy="1.18101" r="1.18101" transform="matrix(1 0 0 -1 197.598 137.002)" fill="#D9D9D9"/>
<circle cx="169.943" cy="123.819" r="1.18101" fill="#D9D9D9"/>
<circle cx="1.18101" cy="1.18101" r="1.18101" transform="matrix(1 0 0 -1 365.044 487.171)" fill="#D9D9D9"/>
<circle cx="1.18101" cy="1.18101" r="1.18101" transform="matrix(1 0 0 -1 332.63 68.7299)" fill="#D9D9D9"/>
<circle cx="276.215" cy="385.72" r="1.18101" fill="#D9D9D9"/>
<circle cx="1.18101" cy="1.18101" r="1.18101" transform="matrix(1 0 0 -1 362.812 97.3365)" fill="#D9D9D9"/>
<circle cx="1.18101" cy="1.18101" r="1.18101" transform="matrix(1 0 0 -1 246.548 86.839)" fill="#D9D9D9"/>
</g>
<g opacity="0.8">
<circle cx="296.488" cy="642.138" r="1.18101" fill="#D9D9D9"/>
<circle cx="1.18101" cy="1.18101" r="1.18101" transform="matrix(1 0 0 -1 247.893 721.496)" fill="#D9D9D9"/>
<circle cx="390.285" cy="678.673" r="1.18101" fill="#D9D9D9"/>
<circle cx="1.18101" cy="1.18101" r="1.18101" transform="matrix(1 0 0 -1 15.6278 770.836)" fill="#D9D9D9"/>
<circle cx="177.928" cy="641.059" r="1.18101" fill="#D9D9D9"/>
<circle cx="5.32034" cy="362.091" r="1.18101" fill="#D9D9D9"/>
<circle cx="65.8352" cy="628.485" r="1.18101" fill="#D9D9D9"/>
<circle cx="45.8429" cy="272.181" r="1.18101" fill="#D9D9D9"/>
<circle cx="1.18101" cy="1.18101" r="1.18101" transform="matrix(1 0 0 -1 54.2355 834.343)" fill="#D9D9D9"/>
<circle cx="268.437" cy="346.382" r="1.18101" fill="#D9D9D9"/>
<circle cx="108.632" cy="823.528" r="1.18101" fill="#D9D9D9"/>
<circle cx="1.18101" cy="1.18101" r="1.18101" transform="matrix(1 0 0 -1 387.838 563.713)" fill="#D9D9D9"/>
<circle cx="1.18101" cy="1.18101" r="1.18101" transform="matrix(1 0 0 -1 359.978 280.96)" fill="#D9D9D9"/>
<circle cx="384.464" cy="852.922" r="1.18101" fill="#D9D9D9"/>
<circle cx="201.602" cy="606.492" r="1.18101" fill="#D9D9D9"/>
<circle cx="1.18101" cy="1.18101" r="1.18101" transform="matrix(1 0 0 -1 20.6142 677.322)" fill="#D9D9D9"/>
<circle cx="134.097" cy="658.304" r="1.18101" fill="#D9D9D9"/>
<circle cx="103.121" cy="745.581" r="1.18101" fill="#D9D9D9"/>
<circle cx="1.18101" cy="1.18101" r="1.18101" transform="matrix(1 0 0 -1 38.6335 505.761)" fill="#D9D9D9"/>
<circle cx="198.779" cy="764.179" r="1.18101" fill="#D9D9D9"/>
<circle cx="1.18101" cy="1.18101" r="1.18101" transform="matrix(1 0 0 -1 168.762 777.362)" fill="#D9D9D9"/>
<circle cx="366.225" cy="414.01" r="1.18101" fill="#D9D9D9"/>
<circle cx="333.811" cy="832.451" r="1.18101" fill="#D9D9D9"/>
<circle cx="1.18101" cy="1.18101" r="1.18101" transform="matrix(1 0 0 -1 275.034 515.461)" fill="#D9D9D9"/>
<circle cx="363.993" cy="803.845" r="1.18101" fill="#D9D9D9"/>
<circle cx="247.729" cy="814.342" r="1.18101" fill="#D9D9D9"/>
</g>
</g>
<defs>
<radialGradient id="paint0_radial_750_5707" cx="0" cy="0" r="1" gradientUnits="userSpaceOnUse" gradientTransform="translate(197 256.5) rotate(90) scale(460.5 286.594)">
<stop stop-color="#841982"/>
<stop offset="0.471154" stop-color="#441568"/>
<stop offset="1" stop-color="#11104A"/>
</radialGradient>
<clipPath id="clip0_750_5707">
<rect width="393" height="852" fill="white"/>
</clipPath>
</defs>
</svg>
