<svg width="248" height="40" viewBox="0 0 248 40" fill="none" xmlns="http://www.w3.org/2000/svg">
<rect x="1" y="1" width="246" height="38" rx="19" stroke="white" stroke-width="2"/>
<path d="M28.008 24.36C28.1573 24.1787 28.3547 24.088 28.6 24.088C28.8133 24.088 29 24.168 29.16 24.328C29.32 24.4773 29.4 24.664 29.4 24.888C29.4 25.0907 29.32 25.2827 29.16 25.464C28.6587 25.976 27.976 26.3973 27.112 26.728C26.248 27.048 25.3893 27.208 24.536 27.208C23.288 27.208 22.1627 26.9307 21.16 26.376C20.168 25.8213 19.384 25.048 18.808 24.056C18.2427 23.0533 17.96 21.912 17.96 20.632C17.96 19.352 18.2427 18.2107 18.808 17.208C19.384 16.1947 20.1733 15.4053 21.176 14.84C22.1787 14.2747 23.2987 13.992 24.536 13.992C25.4107 13.992 26.2587 14.1573 27.08 14.488C27.912 14.8187 28.584 15.2773 29.096 15.864C29.256 16.056 29.336 16.248 29.336 16.44C29.336 16.664 29.256 16.856 29.096 17.016C28.9467 17.1653 28.7547 17.24 28.52 17.24C28.4133 17.24 28.3067 17.2187 28.2 17.176C28.0933 17.1333 28.008 17.0747 27.944 17C27.5813 16.584 27.096 16.264 26.488 16.04C25.8907 15.816 25.24 15.704 24.536 15.704C23.5867 15.704 22.744 15.9067 22.008 16.312C21.272 16.7173 20.696 17.2933 20.28 18.04C19.8747 18.7867 19.672 19.6507 19.672 20.632C19.672 21.6133 19.8747 22.4773 20.28 23.224C20.696 23.96 21.272 24.5253 22.008 24.92C22.744 25.3147 23.5867 25.512 24.536 25.512C25.3147 25.512 26.0133 25.4107 26.632 25.208C27.2613 25.0053 27.72 24.7227 28.008 24.36ZM40.3966 14.12C40.6313 14.12 40.834 14.2 41.0046 14.36C41.1753 14.52 41.2606 14.7067 41.2606 14.92V26.344C41.2606 26.5573 41.1753 26.744 41.0046 26.904C40.834 27.064 40.6313 27.144 40.3966 27.144C40.162 27.144 39.9593 27.064 39.7886 26.904C39.6286 26.744 39.5486 26.5573 39.5486 26.344V20.84H33.1326V26.344C33.1326 26.5573 33.0473 26.744 32.8766 26.904C32.706 27.064 32.5033 27.144 32.2686 27.144C32.034 27.144 31.8313 27.064 31.6606 26.904C31.5006 26.744 31.4206 26.5573 31.4206 26.344V14.92C31.4206 14.7067 31.5006 14.52 31.6606 14.36C31.8313 14.2 32.034 14.12 32.2686 14.12C32.5033 14.12 32.706 14.2 32.8766 14.36C33.0473 14.52 33.1326 14.7067 33.1326 14.92V19.24H39.5486V14.92C39.5486 14.7067 39.6286 14.52 39.7886 14.36C39.9593 14.2 40.162 14.12 40.3966 14.12ZM49.9389 27.432C48.7229 27.432 47.6242 27.1493 46.6429 26.584C45.6722 26.008 44.9042 25.208 44.3389 24.184C43.7842 23.16 43.5069 22.0027 43.5069 20.712C43.5069 19.4213 43.7842 18.264 44.3389 17.24C44.9042 16.216 45.6722 15.4213 46.6429 14.856C47.6242 14.28 48.7229 13.992 49.9389 13.992C51.1549 13.992 52.2482 14.28 53.2189 14.856C54.2002 15.4213 54.9682 16.216 55.5229 17.24C56.0882 18.264 56.3709 19.4213 56.3709 20.712C56.3709 22.0027 56.0882 23.16 55.5229 24.184C54.9682 25.208 54.2002 26.008 53.2189 26.584C52.2482 27.1493 51.1549 27.432 49.9389 27.432ZM49.9389 25.72C50.8349 25.72 51.6402 25.512 52.3549 25.096C53.0695 24.6693 53.6295 24.0773 54.0349 23.32C54.4509 22.5627 54.6589 21.6933 54.6589 20.712C54.6589 19.7307 54.4509 18.8613 54.0349 18.104C53.6295 17.3467 53.0695 16.76 52.3549 16.344C51.6402 15.9173 50.8349 15.704 49.9389 15.704C49.0429 15.704 48.2375 15.9173 47.5229 16.344C46.8082 16.76 46.2429 17.3467 45.8269 18.104C45.4215 18.8613 45.2189 19.7307 45.2189 20.712C45.2189 21.6933 45.4215 22.5627 45.8269 23.32C46.2429 24.0773 46.8082 24.6693 47.5229 25.096C48.2375 25.512 49.0429 25.72 49.9389 25.72ZM64.7201 27.432C63.5041 27.432 62.4055 27.1493 61.4241 26.584C60.4535 26.008 59.6855 25.208 59.1201 24.184C58.5655 23.16 58.2881 22.0027 58.2881 20.712C58.2881 19.4213 58.5655 18.264 59.1201 17.24C59.6855 16.216 60.4535 15.4213 61.4241 14.856C62.4055 14.28 63.5041 13.992 64.7201 13.992C65.9361 13.992 67.0295 14.28 68.0001 14.856C68.9815 15.4213 69.7495 16.216 70.3041 17.24C70.8695 18.264 71.1521 19.4213 71.1521 20.712C71.1521 22.0027 70.8695 23.16 70.3041 24.184C69.7495 25.208 68.9815 26.008 68.0001 26.584C67.0295 27.1493 65.9361 27.432 64.7201 27.432ZM64.7201 25.72C65.6161 25.72 66.4215 25.512 67.1361 25.096C67.8508 24.6693 68.4108 24.0773 68.8161 23.32C69.2321 22.5627 69.4401 21.6933 69.4401 20.712C69.4401 19.7307 69.2321 18.8613 68.8161 18.104C68.4108 17.3467 67.8508 16.76 67.1361 16.344C66.4215 15.9173 65.6161 15.704 64.7201 15.704C63.8241 15.704 63.0188 15.9173 62.3041 16.344C61.5895 16.76 61.0241 17.3467 60.6081 18.104C60.2028 18.8613 60.0001 19.7307 60.0001 20.712C60.0001 21.6933 60.2028 22.5627 60.6081 23.32C61.0241 24.0773 61.5895 24.6693 62.3041 25.096C63.0188 25.512 63.8241 25.72 64.7201 25.72ZM77.2134 27.256C76.4134 27.256 75.6507 27.0587 74.9254 26.664C74.2 26.2693 73.6294 25.736 73.2134 25.064C73.1387 24.9147 73.1014 24.7653 73.1014 24.616C73.1014 24.3493 73.1707 24.136 73.3094 23.976C73.448 23.816 73.6347 23.736 73.8694 23.736C74.2534 23.736 74.5467 23.9067 74.7494 24.248C74.984 24.632 75.32 24.9413 75.7574 25.176C76.2054 25.4107 76.6907 25.528 77.2134 25.528C78.0134 25.528 78.6267 25.368 79.0534 25.048C79.4907 24.7173 79.7094 24.264 79.7094 23.688C79.7094 23.1867 79.5014 22.7227 79.0854 22.296C78.68 21.8693 78.0454 21.4587 77.1814 21.064C76.2427 20.6267 75.512 20.2267 74.9894 19.864C74.4667 19.5013 74.088 19.1173 73.8534 18.712C73.6187 18.296 73.5014 17.8053 73.5014 17.24C73.5014 16.6107 73.672 16.0453 74.0134 15.544C74.3547 15.032 74.8187 14.6373 75.4054 14.36C76.0027 14.072 76.6694 13.928 77.4054 13.928C78.2374 13.928 78.9894 14.1093 79.6614 14.472C80.344 14.824 80.8774 15.32 81.2614 15.96C81.3467 16.088 81.3894 16.2373 81.3894 16.408C81.3894 16.6213 81.32 16.808 81.1814 16.968C81.0534 17.128 80.888 17.208 80.6854 17.208C80.536 17.208 80.3814 17.1653 80.2214 17.08C80.0614 16.984 79.9334 16.872 79.8374 16.744C79.5707 16.3707 79.24 16.0933 78.8454 15.912C78.4507 15.7307 77.9707 15.64 77.4054 15.64C76.7334 15.64 76.1947 15.784 75.7894 16.072C75.3947 16.36 75.1974 16.7493 75.1974 17.24C75.1974 17.5387 75.272 17.7947 75.4214 18.008C75.5707 18.2107 75.8267 18.424 76.1894 18.648C76.552 18.8613 77.096 19.1333 77.8214 19.464C79.1014 20.0507 80.0187 20.6747 80.5734 21.336C81.1387 21.9973 81.4214 22.7813 81.4214 23.688C81.4214 24.392 81.2454 25.016 80.8934 25.56C80.5414 26.0933 80.0454 26.5093 79.4054 26.808C78.776 27.1067 78.0454 27.256 77.2134 27.256ZM93.8969 24.088C94.1102 24.088 94.2969 24.168 94.4569 24.328C94.6169 24.4773 94.6969 24.664 94.6969 24.888C94.6969 25.0907 94.6169 25.2827 94.4569 25.464C93.9555 25.976 93.2729 26.3973 92.4089 26.728C91.5449 27.048 90.6862 27.208 89.8329 27.208C88.5849 27.208 87.4595 26.9307 86.4569 26.376C85.4649 25.8213 84.6809 25.048 84.1049 24.056C83.5395 23.0533 83.2569 21.912 83.2569 20.632C83.2569 19.352 83.5395 18.2107 84.1049 17.208C84.6809 16.1947 85.4702 15.4053 86.4729 14.84C87.4755 14.2747 88.5955 13.992 89.8329 13.992C90.7075 13.992 91.5555 14.1573 92.3769 14.488C93.2089 14.8187 93.8809 15.2773 94.3929 15.864C94.5529 16.056 94.6329 16.248 94.6329 16.44C94.6329 16.664 94.5529 16.856 94.3929 17.016C94.2435 17.1653 94.0515 17.24 93.8169 17.24C93.7102 17.24 93.6035 17.2187 93.4969 17.176C93.3902 17.1333 93.3049 17.0747 93.2409 17C92.8782 16.584 92.3929 16.264 91.7849 16.04C91.1875 15.816 90.5369 15.704 89.8329 15.704C88.5849 15.704 87.5289 16.0507 86.6649 16.744C85.8115 17.4267 85.2782 18.36 85.0649 19.544H90.4409C90.6649 19.544 90.8515 19.624 91.0009 19.784C91.1609 19.9333 91.2409 20.12 91.2409 20.344C91.2409 20.568 91.1609 20.76 91.0009 20.92C90.8515 21.0693 90.6649 21.144 90.4409 21.144H84.9849C85.0595 22.0293 85.3102 22.8027 85.7369 23.464C86.1635 24.1253 86.7289 24.632 87.4329 24.984C88.1369 25.336 88.9369 25.512 89.8329 25.512C90.6115 25.512 91.3102 25.4107 91.9289 25.208C92.5582 25.0053 93.0169 24.7227 93.3049 24.36C93.4542 24.1787 93.6515 24.088 93.8969 24.088ZM111.598 14.808C111.598 14.9573 111.555 15.1067 111.47 15.256L107.47 21.752V26.376C107.47 26.6213 107.39 26.8293 107.23 27C107.07 27.1813 106.872 27.272 106.638 27.272C106.403 27.272 106.206 27.1813 106.046 27C105.886 26.8293 105.806 26.6213 105.806 26.376V21.768L101.854 15.144C101.768 15.0267 101.726 14.8827 101.726 14.712C101.726 14.4987 101.806 14.3013 101.966 14.12C102.126 13.9387 102.318 13.848 102.542 13.848C102.702 13.848 102.856 13.896 103.006 13.992C103.166 14.0773 103.283 14.184 103.358 14.312C103.742 14.984 104.334 16.0133 105.134 17.4C105.934 18.776 106.419 19.5973 106.59 19.864L106.654 20.024L106.702 19.864C107.086 19.2453 107.603 18.392 108.254 17.304C108.904 16.216 109.48 15.2507 109.982 14.408C110.067 14.2693 110.184 14.1573 110.334 14.072C110.494 13.976 110.654 13.928 110.814 13.928C111.038 13.928 111.224 14.0187 111.374 14.2C111.523 14.3707 111.598 14.5733 111.598 14.808ZM119.955 27.432C118.739 27.432 117.64 27.1493 116.659 26.584C115.688 26.008 114.92 25.208 114.355 24.184C113.8 23.16 113.523 22.0027 113.523 20.712C113.523 19.4213 113.8 18.264 114.355 17.24C114.92 16.216 115.688 15.4213 116.659 14.856C117.64 14.28 118.739 13.992 119.955 13.992C121.171 13.992 122.264 14.28 123.235 14.856C124.216 15.4213 124.984 16.216 125.539 17.24C126.104 18.264 126.387 19.4213 126.387 20.712C126.387 22.0027 126.104 23.16 125.539 24.184C124.984 25.208 124.216 26.008 123.235 26.584C122.264 27.1493 121.171 27.432 119.955 27.432ZM119.955 25.72C120.851 25.72 121.656 25.512 122.371 25.096C123.085 24.6693 123.645 24.0773 124.051 23.32C124.467 22.5627 124.675 21.6933 124.675 20.712C124.675 19.7307 124.467 18.8613 124.051 18.104C123.645 17.3467 123.085 16.76 122.371 16.344C121.656 15.9173 120.851 15.704 119.955 15.704C119.059 15.704 118.253 15.9173 117.539 16.344C116.824 16.76 116.259 17.3467 115.843 18.104C115.437 18.8613 115.235 19.7307 115.235 20.712C115.235 21.6933 115.437 22.5627 115.843 23.32C116.259 24.0773 116.824 24.6693 117.539 25.096C118.253 25.512 119.059 25.72 119.955 25.72ZM136.656 14.904C136.656 14.6907 136.736 14.504 136.896 14.344C137.066 14.184 137.269 14.104 137.504 14.104C137.738 14.104 137.936 14.184 138.096 14.344C138.266 14.504 138.352 14.6907 138.352 14.904V22.088C138.352 23.144 138.154 24.0667 137.76 24.856C137.376 25.6347 136.816 26.2373 136.08 26.664C135.354 27.0907 134.49 27.304 133.488 27.304C132.485 27.304 131.616 27.0907 130.88 26.664C130.154 26.2373 129.594 25.6347 129.2 24.856C128.816 24.0667 128.624 23.144 128.624 22.088V14.76C128.624 14.5467 128.704 14.36 128.864 14.2C129.034 14.04 129.237 13.96 129.472 13.96C129.706 13.96 129.909 14.04 130.08 14.2C130.25 14.36 130.336 14.5467 130.336 14.76V22.088C130.336 23.176 130.613 24.0347 131.168 24.664C131.722 25.2933 132.496 25.608 133.488 25.608C134.48 25.608 135.253 25.2933 135.808 24.664C136.373 24.024 136.656 23.1653 136.656 22.088V14.904ZM148.937 25.784C149.044 25.8693 149.145 25.9867 149.241 26.136C149.348 26.2747 149.401 26.4133 149.401 26.552C149.401 26.776 149.321 26.952 149.161 27.08C149.012 27.2187 148.825 27.288 148.601 27.288C148.398 27.288 148.238 27.256 148.121 27.192C147.716 26.9787 147.417 26.664 147.225 26.248C147.033 25.832 146.894 25.2613 146.809 24.536C146.777 24.3333 146.74 23.992 146.697 23.512C146.665 23.0213 146.644 22.632 146.633 22.344C146.612 21.7893 146.318 21.368 145.753 21.08C145.198 20.792 144.548 20.648 143.801 20.648H142.505V26.376C142.505 26.6 142.425 26.792 142.265 26.952C142.116 27.1013 141.929 27.176 141.705 27.176C141.481 27.176 141.289 27.1013 141.129 26.952C140.98 26.792 140.905 26.6 140.905 26.376V14.904C140.905 14.6587 140.98 14.4613 141.129 14.312C141.289 14.152 141.492 14.0613 141.737 14.04C142.1 14.0293 142.606 14.024 143.257 14.024C143.908 14.0133 144.441 14.008 144.857 14.008C145.636 14.008 146.324 14.1467 146.921 14.424C147.518 14.6907 147.982 15.0747 148.313 15.576C148.644 16.0773 148.809 16.6587 148.809 17.32C148.809 18.024 148.617 18.6107 148.233 19.08C147.86 19.5387 147.321 19.8747 146.617 20.088C147.62 20.4933 148.158 21.2027 148.233 22.216L148.281 22.824C148.324 23.5387 148.366 24.056 148.409 24.376C148.462 24.76 148.526 25.0693 148.601 25.304C148.686 25.528 148.798 25.688 148.937 25.784ZM142.505 19.16H144.745C145.556 19.16 146.169 19.016 146.585 18.728C147.001 18.4293 147.209 17.96 147.209 17.32C147.209 16.7653 147.001 16.344 146.585 16.056C146.18 15.7573 145.604 15.608 144.857 15.608C143.577 15.608 142.793 15.6133 142.505 15.624V19.16ZM167.275 26.008C167.318 26.0827 167.339 26.1627 167.339 26.248C167.339 26.4827 167.259 26.6853 167.099 26.856C166.95 27.016 166.758 27.096 166.523 27.096C166.363 27.096 166.214 27.0533 166.075 26.968C165.936 26.872 165.835 26.7493 165.771 26.6L164.443 23.144H159.403L158.059 26.616C158.006 26.7547 157.91 26.872 157.771 26.968C157.632 27.0533 157.478 27.096 157.307 27.096C157.083 27.096 156.891 27.016 156.731 26.856C156.582 26.696 156.507 26.504 156.507 26.28C156.507 26.184 156.528 26.0987 156.571 26.024L161.259 14.504C161.334 14.3333 161.43 14.2053 161.547 14.12C161.675 14.024 161.803 13.976 161.931 13.976C162.08 13.976 162.219 14.024 162.347 14.12C162.486 14.2053 162.587 14.3387 162.651 14.52L167.275 26.008ZM161.819 16.856L159.963 21.656H163.883L162.043 16.856L161.947 16.456L161.819 16.856ZM178.546 13.96C178.77 13.96 178.962 14.04 179.122 14.2C179.282 14.3493 179.362 14.5307 179.362 14.744C179.362 14.872 179.341 14.9787 179.298 15.064L174.098 26.712C173.938 27.064 173.693 27.24 173.362 27.24C173.234 27.24 173.111 27.192 172.994 27.096C172.877 27 172.781 26.8667 172.706 26.696L167.602 14.984C167.559 14.888 167.538 14.776 167.538 14.648C167.538 14.424 167.613 14.2427 167.762 14.104C167.922 13.9547 168.119 13.88 168.354 13.88C168.525 13.88 168.685 13.928 168.834 14.024C168.983 14.12 169.09 14.2427 169.154 14.392C169.218 14.5413 170.002 16.3707 171.506 19.88L173.25 23.96L173.41 24.408L173.554 23.976C173.959 23.016 175.373 19.8107 177.794 14.36C177.911 14.0933 178.162 13.96 178.546 13.96ZM190.572 26.008C190.614 26.0827 190.636 26.1627 190.636 26.248C190.636 26.4827 190.556 26.6853 190.396 26.856C190.246 27.016 190.054 27.096 189.82 27.096C189.66 27.096 189.51 27.0533 189.372 26.968C189.233 26.872 189.132 26.7493 189.068 26.6L187.74 23.144H182.7L181.356 26.616C181.302 26.7547 181.206 26.872 181.068 26.968C180.929 27.0533 180.774 27.096 180.604 27.096C180.38 27.096 180.188 27.016 180.028 26.856C179.878 26.696 179.804 26.504 179.804 26.28C179.804 26.184 179.825 26.0987 179.868 26.024L184.556 14.504C184.63 14.3333 184.726 14.2053 184.844 14.12C184.972 14.024 185.1 13.976 185.228 13.976C185.377 13.976 185.516 14.024 185.644 14.12C185.782 14.2053 185.884 14.3387 185.948 14.52L190.572 26.008ZM185.116 16.856L183.26 21.656H187.18L185.34 16.856L185.244 16.456L185.116 16.856ZM199.931 14.2C200.155 14.2 200.342 14.28 200.491 14.44C200.651 14.5893 200.731 14.776 200.731 15C200.731 15.224 200.651 15.416 200.491 15.576C200.342 15.7253 200.155 15.8 199.931 15.8H196.651V26.344C196.651 26.5573 196.566 26.744 196.395 26.904C196.235 27.064 196.038 27.144 195.803 27.144C195.568 27.144 195.366 27.064 195.195 26.904C195.024 26.744 194.939 26.5573 194.939 26.344V15.8H191.643C191.419 15.8 191.227 15.7253 191.067 15.576C190.918 15.416 190.843 15.224 190.843 15C190.843 14.776 190.918 14.5893 191.067 14.44C191.227 14.28 191.419 14.2 191.643 14.2H199.931ZM211.712 26.008C211.755 26.0827 211.776 26.1627 211.776 26.248C211.776 26.4827 211.696 26.6853 211.536 26.856C211.387 27.016 211.195 27.096 210.96 27.096C210.8 27.096 210.651 27.0533 210.512 26.968C210.374 26.872 210.272 26.7493 210.208 26.6L208.88 23.144H203.84L202.496 26.616C202.443 26.7547 202.347 26.872 202.208 26.968C202.07 27.0533 201.915 27.096 201.744 27.096C201.52 27.096 201.328 27.016 201.168 26.856C201.019 26.696 200.944 26.504 200.944 26.28C200.944 26.184 200.966 26.0987 201.008 26.024L205.696 14.504C205.771 14.3333 205.867 14.2053 205.984 14.12C206.112 14.024 206.24 13.976 206.368 13.976C206.518 13.976 206.656 14.024 206.784 14.12C206.923 14.2053 207.024 14.3387 207.088 14.52L211.712 26.008ZM206.256 16.856L204.4 21.656H208.32L206.48 16.856L206.384 16.456L206.256 16.856ZM222.046 25.784C222.153 25.8693 222.254 25.9867 222.35 26.136C222.457 26.2747 222.51 26.4133 222.51 26.552C222.51 26.776 222.43 26.952 222.27 27.08C222.121 27.2187 221.934 27.288 221.71 27.288C221.508 27.288 221.348 27.256 221.23 27.192C220.825 26.9787 220.526 26.664 220.334 26.248C220.142 25.832 220.004 25.2613 219.918 24.536C219.886 24.3333 219.849 23.992 219.806 23.512C219.774 23.0213 219.753 22.632 219.742 22.344C219.721 21.7893 219.428 21.368 218.862 21.08C218.308 20.792 217.657 20.648 216.91 20.648H215.614V26.376C215.614 26.6 215.534 26.792 215.374 26.952C215.225 27.1013 215.038 27.176 214.814 27.176C214.59 27.176 214.398 27.1013 214.238 26.952C214.089 26.792 214.014 26.6 214.014 26.376V14.904C214.014 14.6587 214.089 14.4613 214.238 14.312C214.398 14.152 214.601 14.0613 214.846 14.04C215.209 14.0293 215.716 14.024 216.366 14.024C217.017 14.0133 217.55 14.008 217.966 14.008C218.745 14.008 219.433 14.1467 220.03 14.424C220.628 14.6907 221.092 15.0747 221.422 15.576C221.753 16.0773 221.918 16.6587 221.918 17.32C221.918 18.024 221.726 18.6107 221.342 19.08C220.969 19.5387 220.43 19.8747 219.726 20.088C220.729 20.4933 221.268 21.2027 221.342 22.216L221.39 22.824C221.433 23.5387 221.476 24.056 221.518 24.376C221.572 24.76 221.636 25.0693 221.71 25.304C221.796 25.528 221.908 25.688 222.046 25.784ZM215.614 19.16H217.854C218.665 19.16 219.278 19.016 219.694 18.728C220.11 18.4293 220.318 17.96 220.318 17.32C220.318 16.7653 220.11 16.344 219.694 16.056C219.289 15.7573 218.713 15.608 217.966 15.608C216.686 15.608 215.902 15.6133 215.614 15.624V19.16ZM225.984 24.344C225.771 24.344 225.595 24.2907 225.456 24.184C225.328 24.0667 225.259 23.9013 225.248 23.688C225.227 23.24 225.211 21.9493 225.2 19.816C225.189 17.6827 225.184 16.0667 225.184 14.968C225.184 14.6373 225.253 14.3813 225.392 14.2C225.531 14.008 225.733 13.912 226 13.912C226.256 13.912 226.448 14.0133 226.576 14.216C226.704 14.4187 226.768 14.6907 226.768 15.032C226.757 16.0773 226.731 17.5227 226.688 19.368C226.656 21.2027 226.624 22.6427 226.592 23.688C226.581 23.8907 226.523 24.0507 226.416 24.168C226.309 24.2853 226.165 24.344 225.984 24.344ZM225.92 27.288C225.621 27.288 225.36 27.1813 225.136 26.968C224.923 26.744 224.816 26.4827 224.816 26.184C224.816 25.8853 224.923 25.6293 225.136 25.416C225.36 25.2027 225.621 25.096 225.92 25.096C226.219 25.096 226.475 25.208 226.688 25.432C226.901 25.6453 227.008 25.896 227.008 26.184C227.008 26.4827 226.901 26.744 226.688 26.968C226.475 27.1813 226.219 27.288 225.92 27.288Z" fill="white"/>
</svg>
