<svg width="317" height="52" viewBox="0 0 317 52" fill="none" xmlns="http://www.w3.org/2000/svg">
<rect x="88" y="2.11133" width="141" height="47" rx="23.5" fill="#401A79" stroke="url(#paint0_linear_750_7889)" stroke-width="4.2227"/>
<path d="M121.84 4.22351H142.409L121.176 46.9987H100.607L121.84 4.22351Z" fill="#894697" fill-opacity="0.49"/>
<path d="M126.94 34.4345C126.056 34.4345 125.217 34.2191 124.423 33.7881C123.629 33.3458 123.005 32.7561 122.551 32.0189C122.461 31.8601 122.415 31.673 122.415 31.4575C122.415 31.106 122.5 30.8281 122.671 30.624C122.852 30.4198 123.09 30.3178 123.385 30.3178C123.635 30.3178 123.85 30.3688 124.031 30.4709C124.213 30.5729 124.372 30.7374 124.508 30.9642C124.723 31.3271 125.058 31.6277 125.511 31.8658C125.976 32.0926 126.453 32.206 126.94 32.206C128.574 32.206 129.39 31.639 129.39 30.5049C129.39 30.0172 129.186 29.5749 128.778 29.178C128.381 28.7811 127.746 28.3785 126.872 27.9702C125.84 27.4939 125.035 27.0629 124.457 26.6773C123.89 26.2804 123.481 25.8608 123.232 25.4185C122.982 24.9648 122.858 24.4318 122.858 23.8194C122.858 23.1163 123.045 22.4925 123.419 21.9481C123.793 21.3924 124.309 20.9615 124.967 20.6553C125.625 20.3377 126.362 20.179 127.179 20.179C128.086 20.179 128.919 20.3831 129.679 20.7914C130.439 21.1883 131.017 21.7327 131.414 22.4245C131.528 22.6059 131.585 22.793 131.585 22.9858C131.585 23.258 131.494 23.4962 131.312 23.7003C131.142 23.9045 130.927 24.0065 130.666 24.0065C130.473 24.0065 130.275 23.9555 130.071 23.8534C129.866 23.74 129.708 23.6039 129.594 23.4452C129.333 23.0822 129.004 22.8157 128.608 22.6456C128.222 22.4755 127.746 22.3904 127.179 22.3904C126.509 22.3904 125.982 22.5152 125.596 22.7647C125.222 23.0029 125.035 23.3544 125.035 23.8194C125.035 24.1029 125.103 24.3411 125.239 24.5339C125.387 24.7153 125.631 24.9025 125.971 25.0953C126.322 25.2881 126.895 25.5659 127.689 25.9288C129.073 26.5753 130.065 27.25 130.666 27.9532C131.278 28.6563 131.585 29.5069 131.585 30.5049C131.585 31.2874 131.392 31.9792 131.006 32.5803C130.621 33.17 130.076 33.6293 129.373 33.9582C128.67 34.2758 127.859 34.4345 126.94 34.4345ZM144.914 30.692C145.197 30.692 145.435 30.7941 145.628 30.9982C145.832 31.191 145.934 31.4292 145.934 31.7127C145.934 31.9849 145.838 32.2287 145.645 32.4442C145.123 32.9999 144.392 33.4592 143.451 33.8221C142.509 34.1737 141.574 34.3495 140.644 34.3495C139.294 34.3495 138.075 34.0546 136.986 33.4649C135.897 32.8752 135.041 32.0473 134.417 30.9812C133.794 29.9152 133.482 28.6903 133.482 27.3067C133.482 25.9345 133.794 24.7097 134.417 23.6323C135.041 22.5549 135.897 21.7213 136.986 21.1316C138.075 20.5305 139.294 20.23 140.644 20.23C141.574 20.23 142.504 20.4171 143.434 20.7914C144.363 21.1656 145.095 21.6589 145.628 22.2714C145.821 22.4982 145.917 22.742 145.917 23.0029C145.917 23.2864 145.815 23.5302 145.611 23.7343C145.407 23.9271 145.163 24.0235 144.88 24.0235C144.743 24.0235 144.607 23.9952 144.471 23.9385C144.335 23.8818 144.227 23.8024 144.148 23.7003C143.819 23.3034 143.331 22.9915 142.685 22.7647C142.039 22.5379 141.358 22.4245 140.644 22.4245C139.385 22.4245 138.324 22.742 137.463 23.3771C136.612 24.0009 136.062 24.8798 135.812 26.0139H141.12C141.403 26.0139 141.642 26.1159 141.834 26.3201C142.039 26.5129 142.141 26.751 142.141 27.0346C142.141 27.3181 142.039 27.5619 141.834 27.7661C141.642 27.9589 141.403 28.0553 141.12 28.0553H135.727C135.875 29.3368 136.391 30.3461 137.275 31.0833C138.171 31.8091 139.294 32.172 140.644 32.172C141.426 32.172 142.141 32.07 142.787 31.8658C143.434 31.6617 143.887 31.3952 144.148 31.0663C144.239 30.9529 144.352 30.8621 144.488 30.7941C144.636 30.7261 144.777 30.692 144.914 30.692ZM153.724 32.121C154.007 32.121 154.245 32.2231 154.438 32.4272C154.642 32.62 154.744 32.8582 154.744 33.1417C154.744 33.4252 154.642 33.669 154.438 33.8732C154.245 34.066 154.007 34.1624 153.724 34.1624H149.165C148.847 34.1624 148.586 34.0603 148.382 33.8562C148.178 33.652 148.076 33.3912 148.076 33.0736V21.2847C148.076 21.0012 148.172 20.763 148.365 20.5702C148.569 20.3661 148.813 20.264 149.096 20.264C149.38 20.264 149.618 20.3661 149.811 20.5702C150.015 20.763 150.117 21.0012 150.117 21.2847V32.121H153.724ZM168.055 30.692C168.339 30.692 168.577 30.7941 168.77 30.9982C168.974 31.191 169.076 31.4292 169.076 31.7127C169.076 31.9849 168.979 32.2287 168.787 32.4442C168.265 32.9999 167.533 33.4592 166.592 33.8221C165.651 34.1737 164.715 34.3495 163.785 34.3495C162.436 34.3495 161.216 34.0546 160.128 33.4649C159.039 32.8752 158.183 32.0473 157.559 30.9812C156.935 29.9152 156.623 28.6903 156.623 27.3067C156.623 25.9345 156.935 24.7097 157.559 23.6323C158.183 22.5549 159.039 21.7213 160.128 21.1316C161.216 20.5305 162.436 20.23 163.785 20.23C164.715 20.23 165.645 20.4171 166.575 20.7914C167.505 21.1656 168.237 21.6589 168.77 22.2714C168.962 22.4982 169.059 22.742 169.059 23.0029C169.059 23.2864 168.957 23.5302 168.753 23.7343C168.548 23.9271 168.305 24.0235 168.021 24.0235C167.885 24.0235 167.749 23.9952 167.613 23.9385C167.477 23.8818 167.369 23.8024 167.29 23.7003C166.961 23.3034 166.473 22.9915 165.827 22.7647C165.18 22.5379 164.5 22.4245 163.785 22.4245C162.526 22.4245 161.466 22.742 160.604 23.3771C159.753 24.0009 159.203 24.8798 158.954 26.0139H164.262C164.545 26.0139 164.783 26.1159 164.976 26.3201C165.18 26.5129 165.282 26.751 165.282 27.0346C165.282 27.3181 165.18 27.5619 164.976 27.7661C164.783 27.9589 164.545 28.0553 164.262 28.0553H158.869C159.016 29.3368 159.532 30.3461 160.417 31.0833C161.313 31.8091 162.436 32.172 163.785 32.172C164.568 32.172 165.282 32.07 165.929 31.8658C166.575 31.6617 167.029 31.3952 167.29 31.0663C167.38 30.9529 167.494 30.8621 167.63 30.7941C167.777 30.7261 167.919 30.692 168.055 30.692ZM181.543 31.0663C181.634 30.9529 181.747 30.8621 181.884 30.7941C182.031 30.7261 182.173 30.692 182.309 30.692C182.592 30.692 182.83 30.7941 183.023 30.9982C183.227 31.191 183.329 31.4292 183.329 31.7127C183.329 31.9849 183.233 32.2287 183.04 32.4442C182.519 32.9999 181.787 33.4592 180.846 33.8221C179.905 34.1737 178.969 34.3495 178.039 34.3495C176.689 34.3495 175.47 34.0546 174.381 33.4649C173.293 32.8752 172.436 32.0473 171.813 30.9812C171.189 29.9152 170.877 28.6903 170.877 27.3067C170.877 25.9345 171.189 24.7097 171.813 23.6323C172.436 22.5549 173.293 21.7213 174.381 21.1316C175.47 20.5305 176.689 20.23 178.039 20.23C178.969 20.23 179.899 20.4171 180.829 20.7914C181.759 21.1656 182.49 21.6589 183.023 22.2714C183.216 22.4982 183.312 22.742 183.312 23.0029C183.312 23.2864 183.21 23.5302 183.006 23.7343C182.802 23.9271 182.558 24.0235 182.275 24.0235C182.139 24.0235 182.003 23.9952 181.867 23.9385C181.73 23.8818 181.623 23.8024 181.543 23.7003C181.214 23.3034 180.727 22.9915 180.08 22.7647C179.434 22.5379 178.753 22.4245 178.039 22.4245C177.064 22.4245 176.196 22.6229 175.436 23.0199C174.688 23.4055 174.104 23.9668 173.684 24.704C173.276 25.4298 173.072 26.2974 173.072 27.3067C173.072 28.3048 173.281 29.1723 173.701 29.9095C174.121 30.6353 174.705 31.1967 175.453 31.5936C176.202 31.9792 177.064 32.172 178.039 32.172C178.821 32.172 179.536 32.07 180.182 31.8658C180.829 31.6617 181.282 31.3952 181.543 31.0663ZM194.878 20.5022C195.162 20.5022 195.4 20.6042 195.593 20.8084C195.797 21.0012 195.899 21.2393 195.899 21.5229C195.899 21.8064 195.797 22.0502 195.593 22.2543C195.4 22.4471 195.162 22.5435 194.878 22.5435H191.425V33.3288C191.425 33.6123 191.312 33.8562 191.085 34.0603C190.869 34.2531 190.614 34.3495 190.319 34.3495C190.024 34.3495 189.769 34.2531 189.554 34.0603C189.338 33.8562 189.231 33.6123 189.231 33.3288V22.5435H185.76C185.477 22.5435 185.233 22.4471 185.029 22.2543C184.836 22.0502 184.74 21.8064 184.74 21.5229C184.74 21.2393 184.836 21.0012 185.029 20.8084C185.233 20.6042 185.477 20.5022 185.76 20.5022H194.878Z" fill="white"/>
<path d="M4.03035 28.6498C2.1621 27.4731 2.1621 24.7496 4.03035 23.5729L28.4012 8.22322C30.3989 6.96496 33 8.4007 33 10.7617L33 41.461C33 43.822 30.3989 45.2577 28.4012 43.9994L4.03035 28.6498Z" fill="#401A79" stroke="url(#paint1_linear_750_7889)" stroke-width="3"/>
<path d="M312.97 28.6498C314.838 27.4731 314.838 24.7496 312.97 23.5729L288.599 8.22322C286.601 6.96496 284 8.4007 284 10.7617V41.461C284 43.822 286.601 45.2577 288.599 43.9994L312.97 28.6498Z" fill="#401A79" stroke="url(#paint2_linear_750_7889)" stroke-width="3"/>
<defs>
<linearGradient id="paint0_linear_750_7889" x1="88" y1="25.6113" x2="229" y2="25.6113" gradientUnits="userSpaceOnUse">
<stop stop-color="#A315D6"/>
<stop offset="0.514423" stop-color="#FDAB60"/>
<stop offset="1" stop-color="#A315D6"/>
</linearGradient>
<linearGradient id="paint1_linear_750_7889" x1="22" y1="2.11133" x2="22" y2="50.1113" gradientUnits="userSpaceOnUse">
<stop stop-color="#A315D6"/>
<stop offset="0.5" stop-color="#FDAB60"/>
<stop offset="1" stop-color="#A315D6"/>
</linearGradient>
<linearGradient id="paint2_linear_750_7889" x1="295" y1="2.11133" x2="295" y2="50.1113" gradientUnits="userSpaceOnUse">
<stop stop-color="#A315D6"/>
<stop offset="0.5" stop-color="#FDAB60"/>
<stop offset="1" stop-color="#A315D6"/>
</linearGradient>
</defs>
</svg>
