<svg width="242" height="488" viewBox="0 0 242 488" fill="none" xmlns="http://www.w3.org/2000/svg">
<path d="M93.0688 205.582C92.7671 200.067 96.993 195.352 102.508 195.051L157.425 192.046C162.94 191.744 167.655 195.97 167.957 201.485L172.054 276.373L97.1658 280.47L93.0688 205.582Z" fill="#090828"/>
<path d="M164.023 208C161.623 202.4 160.523 201 159.523 200.5L151.523 234L163.023 278.5C169.856 277 183.723 273.7 184.523 272.5C185.523 271 184.523 266.5 184.523 264.5C184.523 262.5 184.023 254 182.023 251.5C180.023 249 171.523 234.5 170.023 231.5C168.523 228.5 167.023 215 164.023 208Z" fill="#313A5B"/>
<path d="M166.023 207C166.856 214 167.523 235.5 155.523 238" stroke="#090828" stroke-width="4"/>
<path d="M157.023 217C156.356 222.833 156.123 234.8 156.523 236C156.993 237.41 166.744 265.785 167.492 277.483C165.842 277.867 164.308 278.217 163.023 278.5L151.523 234L152.631 227.808L157.023 217Z" fill="#313A5B"/>
<g style="mix-blend-mode:multiply">
<path d="M158.523 211.5C158.023 217.333 157.323 229.4 158.523 231C159.723 232.6 163.689 227.666 165.523 225C163.689 229.166 160.123 237.8 160.523 239C161.023 240.5 162.189 247 164.023 252.5C164.523 254 165.023 255 165.523 257C166.4 260.509 171.443 260.474 174.962 259.635C178.385 258.82 181.364 257.49 183.023 255.5C184.673 253.519 181.022 269.465 185.252 270.955C185.124 271.288 184.997 271.59 184.873 271.852C183.324 272.64 181.493 273.532 179.561 274.414C174.905 275.767 168.034 277.387 163.607 278.368C163.279 278 162.94 277.484 162.593 276.838L151.841 235.234C151.747 234.724 151.654 234.227 151.567 233.746L151.727 232.855L158.523 211.5Z" fill="#313A5B"/>
</g>
<path d="M189.023 288C189.023 287.2 185.689 282 184.023 279.5L162.523 285V293C163.689 296 166.523 302.2 168.523 303C171.023 304 173.523 302.207 173.523 301.5C173.523 300 173.523 295.5 174.023 294C174.149 293.62 176.023 294.166 177.023 294.5C177.423 295.3 178.189 299.5 178.523 301.5C177.523 302 174.523 306 174.023 307.5C173.523 309 177.523 310 178.523 310C179.523 310 189.023 304.5 190.023 302C191.023 299.5 189.023 289 189.023 288Z" fill="#29355B"/>
<g style="mix-blend-mode:multiply">
<path d="M185.34 281.513C180.408 288.101 169.31 289.119 167.023 289.5C166.189 293 167.023 299.5 169.023 303L167.673 302.4C165.788 300.582 163.532 295.594 162.523 293V290.399L164.023 286.5L184.884 280.809C185.032 281.036 185.184 281.272 185.34 281.513Z" fill="#29355B"/>
</g>
<path d="M185.023 271.5C182.023 274 169.189 276.666 163.023 277.5V288.5C170.023 286.666 184.223 282.5 185.023 280.5C185.823 278.5 185.689 273.666 185.023 271.5Z" fill="#29355B"/>
<g style="mix-blend-mode:multiply">
<path d="M169.523 276.5C168.414 279.034 166.343 284.61 166.483 287.56C165.404 287.862 164.39 288.137 163.481 288.378C163.318 288.25 163.163 288.123 163.023 288L163.482 277.433C165.025 277.214 166.923 276.894 168.954 276.5H169.523Z" fill="#29355B"/>
</g>
<path d="M98.4304 473.031C82.0593 496.951 47.2626 475.968 46.0225 466.5C40.5224 445.874 49.5778 414.837 62.0045 385.746C64.4807 379.95 67.0907 374.23 69.7462 368.686C77.9933 351.466 86.6781 335.935 93.1494 325.022C89.5225 291 95.9167 269.942 104.366 252.5L131.172 261.968L163.513 253.496C175.131 285.889 163.513 309 160.218 323.527C167.673 343.39 172.962 362.066 176.525 379.184C176.777 380.394 177.02 381.596 177.255 382.79C177.569 384.388 177.868 385.972 178.152 387.541C178.923 391.799 179.585 395.951 180.146 399.989C185.457 438.257 181.648 466.379 175.022 479C136.154 495.744 126.244 481.835 124.835 473.031C125.891 462.565 133.285 338.477 131.172 332.996C130.56 331.406 132.229 302.098 133.285 287.646L129.022 286C126.485 286.853 121.987 317.879 119.522 332.996C107.271 349.74 101.247 433.661 98.4304 473.031Z" fill="#313A5B"/>
<path d="M90.4014 270.263C90.4014 268.451 92.9014 266.763 93.9014 267.263L104.401 258.763L97.9014 284.763C96.7348 284.93 93.1514 285.263 91.9014 284.763C88.9653 283.588 84.9014 276.263 84.9014 274.263C84.9014 273.032 85.9014 272.013 86.9014 271.763C89.4014 271.138 91.5681 274.263 92.9014 275.763V273.263C92.4014 272.263 90.4014 271.263 90.4014 270.263Z" fill="#29355B"/>
<g style="mix-blend-mode:multiply">
<path d="M101.401 270.763L96.6885 284.899C96.6334 284.904 96.5774 284.908 96.5206 284.913C97.3453 279.107 98.0689 273.722 99.0225 268C98.5217 268.5 95.5224 269 95.0225 269C94.0226 269 93.9014 271.763 93.4014 273.263C93.3035 273.557 93.1343 274.061 92.9014 274.404V273.263C92.4014 272.263 90.4014 271.263 90.4014 270.263C90.4014 268.451 92.9014 266.763 93.9014 267.263L101.182 261.368L104.219 259.492L101.401 270.763Z" fill="#29355B"/>
</g>
<path d="M92.4014 265.763C92.0014 265.763 90.5681 264.763 89.9014 264.263C94.5681 258.263 104.101 246.263 104.901 246.263C105.901 246.263 108.901 250.763 108.901 252.263C106.901 259.763 96.4014 267.263 94.9014 267.763C93.4014 268.263 92.9014 265.763 92.4014 265.763Z" fill="#29355B"/>
<g style="mix-blend-mode:multiply">
<path d="M104.901 246.263C105.671 246.263 107.62 248.927 108.481 250.839C106.627 255.477 103.401 261.427 103.401 259.763C103.401 257.701 102.901 254.763 102.401 254.763C101.836 254.763 100.568 255.596 99.4014 255.763L104.377 246.64C104.638 246.396 104.817 246.263 104.901 246.263Z" fill="#29355B"/>
</g>
<path d="M67.4009 241.578C66.2009 240.378 66.2107 234.044 66.9008 233.078C74.1616 222.913 86.1085 211.342 94.5756 203.809C94.8545 203.561 95.1297 203.317 95.4008 203.078C98.7675 200.388 100.25 199.438 102.401 198.578C103.353 198.197 104.418 197.903 105.523 197.679C105.846 197.613 106.173 197.553 106.501 197.499C109.762 196.959 113.17 196.963 114.901 197.078C123.068 196.411 140.401 195.178 144.401 195.578C144.699 195.608 145.011 195.651 145.335 195.708C146.473 195.905 147.76 196.255 149.08 196.692C150.227 197.071 151.4 197.515 152.523 197.98C154.686 198.876 156.661 199.848 157.901 200.578C158.692 209.672 154.336 227.169 151.982 234.815H108.12L106.401 227.078C100.001 232.678 98.4008 236.078 98.4008 237.078C99.6008 237.478 101.568 240.245 102.401 241.578C105.201 242.378 105.568 244.911 105.401 246.078C96.4008 264.578 92.0225 265 90.0225 263C88.0226 261 84.5225 258.5 83.0225 255.5C77.0225 251 70.0675 246.245 67.4009 241.578Z" fill="#273254"/>
<g style="mix-blend-mode:multiply">
<path d="M104.401 208.263C104.801 208.663 107.401 221.263 109.401 227.263L107.873 228.886L107.401 226.763C101.001 232.363 99.4013 235.763 99.4013 236.763C100.593 237.16 102.539 239.89 103.383 241.234L104.022 243C103.189 243.833 102.601 243.163 101.401 242.763C100.627 242.505 79.5387 238.96 76.0224 236C75.9837 235.968 76.1803 235.969 76.5615 235.992L93.3242 235.763C90.23 233.254 86.7729 230.984 83.9013 230.763C85.9013 230.43 90.6013 230.963 93.4013 231.763C96.568 228.263 102.901 220.963 102.901 219.763C102.901 218.563 104.401 211.43 104.401 208.263Z" fill="#090D20"/>
</g>
<path d="M161.523 263.5H174.523C176.403 263.5 178.165 262.582 179.243 261.042L184.523 253.5L187.523 265L187.029 276.85L187.023 277L186.523 281L175.023 286.5L174.523 286.615L173.609 286.826C170.276 287.595 166.799 287.483 163.523 286.5L163.067 281.263L161.523 263.5Z" fill="#2A60AA"/>
<path fill-rule="evenodd" clip-rule="evenodd" d="M174.523 286.615L171.023 263.5C174.893 262.855 178.404 260.842 180.917 257.827L184.523 253.5L187.523 265L187.029 276.85L187.023 277L186.523 281L175.023 286.5L174.523 286.615Z" fill="#387CDB"/>
<path d="M40.0225 222L84.0225 238.052L99.5225 236.5L106.023 242.5L107.023 248.5L104.023 256L102.523 262.5L100.887 265.117L100.023 266.5L96.0225 268L94.0225 268L91.0225 265.552L40.8428 222.7L40.0225 222Z" fill="#4794FF"/>
<path d="M84.0225 238L99.5225 236.5L106.023 242.5L107.023 248.5L104.523 255L101.811 248.837C100.042 244.816 96.5988 241.773 92.3913 240.51L84.0225 238Z" fill="#387CDB"/>
<path fill-rule="evenodd" clip-rule="evenodd" d="M100.887 265.117L102.023 261L40.8428 222.7L91.0225 265.552L94.0225 268H96.5225L100.023 266.5L100.887 265.117Z" fill="#3E7BD1"/>
<path opacity="0.5" d="M106.523 246L107.023 248.5L100.523 265.5L100.023 266.5L97.0225 267.5L101.523 257.5L106.523 246Z" fill="#224B83"/>
<path d="M46.136 456.14C58.763 447.996 79.7152 439.792 87.9017 443.372C90.7766 444.63 95.4848 448.429 100.273 468.984C100.143 470.759 100.022 472.468 99.9114 474.103C97.2404 465.613 90.2078 450.504 87.4017 447.872C82.3846 443.169 60.4076 452.481 46.0325 459.023C46.0483 458.079 46.0822 457.118 46.136 456.14Z" fill="#FF9F56"/>
<path d="M153.281 235.662C154.023 246.5 156.023 251.5 158.523 259L107.023 261C108.023 252.5 110.401 249 110.401 240.263L109.523 234.5L152.023 233.5C152.332 232 153.63 236.5 153.281 235.662Z" fill="#313A5B"/>
<path d="M131.146 235.482C131.283 237.838 131.406 243.439 130.81 246.986" stroke="#2B3455" stroke-width="2" stroke-linecap="round"/>
<g style="mix-blend-mode:multiply">
<path d="M112.022 237C107.522 244.263 113.578 246.551 115.522 247C122.022 248.5 128.522 248 132.022 248C135.522 248 141.522 247 145.522 242.5C145.022 244 147.022 244.5 144.522 248C147.322 248 161.144 241.237 151.022 235C142.644 235.737 112.812 235.725 112.022 237Z" fill="#CBDEEC"/>
</g>
<path d="M138.84 450.334C147.465 448.398 166.162 460.164 177.063 470.484C176.886 471.481 176.704 472.435 176.516 473.344C163.642 464.201 144.228 451.227 138.474 454.847C136.01 456.398 129.807 464.509 125.099 471.754C125.216 470.161 125.362 468.015 125.529 465.41C132.005 453.04 136.244 450.917 138.84 450.334Z" fill="#FF9F56"/>
<path opacity="0.5" fill-rule="evenodd" clip-rule="evenodd" d="M187.029 276.85L175.023 282.5L163.067 281.263L163.523 286.5C166.799 287.483 170.276 287.595 173.609 286.826L175.023 286.5L186.523 281L187.023 277L187.029 276.85Z" fill="#1D5098"/>
<path d="M45.9025 466.263C41.5025 430.663 76.4025 357.43 94.4025 325.263C91.7243 303.302 97.0225 270 105.023 252.5C121.517 258.674 139.544 259.462 156.515 254.751L161.023 253.5C172.023 286 158.706 310.511 157.902 323.763C185.102 400.563 180.402 459.93 174.402 479.263C137.602 496.063 125.736 482.596 124.402 473.763C125.402 463.263 132.402 338.763 130.402 333.263C129.823 331.668 131.402 302.263 132.402 287.763H128.402C128.802 288.563 124.236 319.096 121.902 334.263C110.302 351.063 102.069 434.263 99.4025 473.763C83.9025 497.763 47.0766 475.763 45.9025 466.263Z" fill="#E0EAEB"/>
<path fill-rule="evenodd" clip-rule="evenodd" d="M180.146 399.989C179.585 395.951 178.923 391.799 178.152 387.541C177.868 385.972 177.569 384.388 177.255 382.79L172.645 415.606L162.807 460.26L169.604 463.112L178.533 414.552L180.146 399.989Z" fill="#313A5B"/>
<path fill-rule="evenodd" clip-rule="evenodd" d="M69.7462 368.686C67.0907 374.23 64.4807 379.95 62.0045 385.746L56.525 413.721L50.5225 462.728L57.8607 462.04L61.828 416.487L69.7462 368.686Z" fill="#313A5B"/>
<path d="M102.976 322.794C103.232 321.824 103.884 321.012 104.779 320.559C110.717 317.55 116.162 317.155 121.652 318.495C123.339 318.907 124.414 320.499 124.536 322.232C124.602 323.168 124.714 324.231 124.901 325.263C125.498 328.544 124.671 332.716 123.906 335.547C123.334 337.668 121.957 339.477 119.987 340.45C117.949 341.458 115.086 342.542 112.213 342.542C110.762 342.542 107.857 341.754 105.895 341.167C104.641 340.792 103.68 339.795 103.357 338.526C102.756 336.163 101.876 332.229 101.902 329.542C101.925 327.172 102.54 324.442 102.976 322.794Z" fill="#313A5B"/>
<path d="M130.401 336.763C126.901 322.763 129.649 317.36 134.536 316.138C138.536 315.138 145.901 317.263 149.401 320.263C153.047 323.388 151.401 334.263 150.901 335.263C150.544 335.978 148.703 337.804 147.536 338.638C140.336 342.238 133.401 340.263 130.401 336.763Z" fill="#313A5B"/>
<path d="M130.901 202.763C131.901 204.263 131.401 226.763 132.401 229.763" stroke="#B1CCDE" stroke-width="2" stroke-linecap="round"/>
<g style="mix-blend-mode:multiply">
<path d="M115.901 196.763C124.068 196.096 141.401 194.863 145.401 195.263C146.427 195.366 147.629 195.636 148.896 196.008C121.368 220.064 109.384 207.987 106.312 197.407C109.901 196.645 113.958 196.633 115.901 196.763Z" fill="#CBDEEC"/>
</g>
<g style="mix-blend-mode:multiply">
<path fill-rule="evenodd" clip-rule="evenodd" d="M109.298 276.518C109.699 276.118 122.132 282.518 128.298 286.018C129.632 285.851 132.498 286.018 133.298 286.018C134.098 286.018 145.632 280.018 151.298 277.018C151.798 278.018 150.299 282.017 149.798 283.018C149.398 283.818 140.632 286.018 136.298 287.018L140.798 288.518C139.598 288.918 135.798 288.351 133.798 288.018C133.641 288.28 133.291 288.474 132.792 288.615C132.794 288.583 132.796 288.55 132.798 288.518H128.798C128.82 288.561 128.824 288.693 128.818 288.904C122.72 288.75 113.298 287.018 113.298 287.018C113.298 287.018 119.298 286.851 121.798 286.518C117.465 285.684 108.598 283.718 107.798 282.518C106.799 281.017 108.798 277.018 109.298 276.518Z" fill="#CBDEEC"/>
</g>
<path d="M116.401 198.263C116.088 197.792 115.568 196.096 115.401 195.263L145.901 191.763C146.701 192.563 145.901 196.763 144.901 198.763C130.401 203.763 117.401 199.763 116.401 198.263Z" fill="#29355B"/>
<path fill-rule="evenodd" clip-rule="evenodd" d="M73.556 440.176L92.2517 443.074C94.6722 445.971 97.7224 449.49 100.599 460.386C100.492 461.617 101.023 463.5 101.023 464.5C101.023 466 101.083 467.756 101.023 468.5C100.932 469.617 100.821 470.2 100.667 470.982C100.558 471.535 100.47 471.986 100.453 472.307C100.394 472.487 100.331 472.669 100.262 472.851C99.5225 476.5 91.2764 481.053 86.5225 482.5C78.8148 483.991 67.4796 483.485 51.0225 474C48.368 471.729 46.7325 468.919 46.0225 467C45.9185 466.102 45.6371 464.59 45.5225 463.5C45.3192 461.563 45.1015 459.257 45.164 455.5C45.1719 455.021 46.6535 454.229 46.5627 453.386C46.744 451.578 46.0013 449.45 46.0225 448.886C54.08 444.367 64.483 442.16 73.556 440.176Z" fill="#4794FF"/>
<path fill-rule="evenodd" clip-rule="evenodd" d="M46.0225 448.886C45.7041 450 45.1808 454.489 45.164 455.5C60.3579 449.324 82.7204 439.868 87.8139 444.524C90.46 446.943 97.7767 459.764 101.023 468.5C101.153 466.892 100.4 462.678 100.599 460.386C97.7224 449.49 94.6722 445.971 92.2517 443.074C90.7704 441.302 89.446 440.501 88.366 440.03C85.0272 438.572 79.6585 438.842 73.556 440.176C64.483 442.16 54.08 444.367 46.0225 448.886Z" fill="#4794FF"/>
<path fill-rule="evenodd" clip-rule="evenodd" d="M153.393 444.886H135.495C132.812 447.377 129.291 452.173 125.023 462.5C124.877 464.795 124.506 466.778 124.394 468.386C124.262 470.296 124.468 471.878 124.394 472.649C125.685 481.203 137.717 492.166 170.71 479.687C172.878 478.867 175.111 477.597 175.992 475.453C176.601 473.973 177.113 471.3 178.016 464.386C178.147 463.385 178.405 461.064 178.523 460C171.645 454.299 161.587 448.236 153.393 444.886Z" fill="#4794FF"/>
<path fill-rule="evenodd" clip-rule="evenodd" d="M178.523 460C178.405 461.064 178.147 463.385 178.016 464.386C164.707 455.956 144.87 443.178 139.433 446.999C136.609 448.984 128.695 460.251 124.394 468.386C124.506 466.778 124.877 464.795 125.023 462.5C129.291 452.173 132.812 447.377 135.495 444.886C137.136 443.361 138.491 442.773 139.569 442.473C142.901 441.544 147.881 442.632 153.393 444.886C161.587 448.236 171.645 454.299 178.523 460Z" fill="#4794FF"/>
<path d="M124.523 472.5C127.636 478.212 133.509 484.138 144.901 484.263C157.936 484.406 169.664 478.982 176.423 473.783C175.938 476.073 175.426 478.071 174.901 479.763C138.101 496.563 125.856 483.333 124.523 474.5C124.55 474.216 124.023 473 124.523 472.5Z" fill="#265699"/>
<path d="M45.0225 455.5C47.2766 463.112 55.7091 477.307 71.4034 480.904C84.888 483.994 94.8552 477.514 100.523 472C100.503 472.281 100.041 473.723 100.023 474C92.8319 485.133 80.8468 486.847 70.0225 484C57.5141 480.71 46.5319 471.497 45.9024 466.404C45.5263 463.361 44.8595 459.043 45.0225 455.5Z" fill="#265699"/>
<path d="M103.522 195.5C95.0225 204 98.0225 230.5 104.522 237.5" stroke="#090828" stroke-width="4"/>
<path d="M42.8945 123.384L26.0226 102L38.0226 19.4998L42.8945 123.384Z" fill="#387CDB"/>
<path d="M212.21 105.793L221.523 75.4999L189.523 1.04978e-05L212.21 105.793Z" fill="#387CDB"/>
<path d="M29.8583 130.33C33.6895 124.886 41.8087 119.821 45.3893 117.969L74.4339 177.237C66.7311 181.919 54.9822 187.62 49.1209 184.184C33.4907 175.021 25.0692 137.136 29.8583 130.33Z" fill="#387CDB"/>
<path d="M225.367 105.052C220.326 100.703 211.219 97.7657 207.295 96.8406L193.54 161.393C202.151 164.061 214.933 166.732 219.783 161.974C232.715 149.284 231.667 110.488 225.367 105.052Z" fill="#387CDB"/>
<path d="M213.401 108.762C215.553 130.096 211.315 157.762 198.901 169.762C183.901 184.262 160.001 191.223 132.901 194.762C105.802 198.302 77.2885 195.262 59.4014 172.762C44.1639 153.595 41.4014 128.091 41.4014 108.762C41.4014 62.3704 79.9014 31.296 118.901 28.2627C157.901 25.2294 206.696 42.2628 213.401 108.762Z" fill="#E0EAEB"/>
<g filter="url(#filter0_i_774_10636)">
<path d="M198.523 139.955C198.523 155.02 193.523 171.102 181.523 178.627C169.523 186.152 152.023 190.441 133.523 192.078C125.523 192.786 96.1945 193.835 80.0225 183.671C63.2996 173.161 58.5225 159.224 58.5225 144.158C58.5225 129.092 64.2729 118.091 79.0129 108.848C87.5129 103.518 107.635 101.387 125.523 100.021C147.532 98.3397 166.069 96.7218 176.023 102.963C190.762 112.206 198.523 124.889 198.523 139.955Z" fill="#959797"/>
<path d="M52.5225 123.291L70.9092 122.733L98.7521 121.89L128.682 120.983L149.02 118.976L176.389 116.276L204.523 113.5L202.423 134.419L189.345 156.045L186.661 156.476L159.707 160.798L153.247 161.834L136.556 138.662L123.045 139.532L111.869 164.5L109.601 164.345L81.0441 162.396L72.7054 161.826L58.8672 143.666L52.5225 123.291Z" fill="#6C6C6C"/>
<path fill-rule="evenodd" clip-rule="evenodd" d="M98.7521 121.89L70.9092 122.733L81.0441 162.396L109.601 164.345L98.7521 121.89Z" fill="#6C6C6C"/>
<path fill-rule="evenodd" clip-rule="evenodd" d="M159.707 160.798L149.02 118.976L176.389 116.276L186.661 156.476L159.707 160.798Z" fill="#6C6C6C"/>
<path d="M118.136 177.462C122.787 175.475 134.772 172.428 145.496 176.13" stroke="#000100" stroke-width="2"/>
<path d="M121.75 180.988C120.378 179.921 119.221 178.605 118.337 177.112L121.614 176.254C121.077 177.737 121.16 179.392 121.879 180.831L122.091 181.253L121.75 180.988Z" stroke="#000100"/>
<path d="M145.828 178.738C146.529 178.193 147.047 177.458 147.329 176.63L145.191 176.095C145.54 176.984 145.687 177.943 145.619 178.9L145.828 178.738Z" stroke="#000100" stroke-width="2"/>
<path d="M139.523 174.5C139.456 174.583 139.393 174.666 139.333 174.75C138.793 175.5 138.523 176.25 138.523 177C138.523 177.75 138.793 178.5 139.333 179.25C139.393 179.333 139.456 179.416 139.523 179.5C139.589 179.416 139.653 179.333 139.713 179.25C140.253 178.5 140.523 177.75 140.523 177C140.523 176.25 140.253 175.5 139.713 174.75C139.653 174.666 139.589 174.583 139.523 174.5Z" fill="#000100"/>
<path d="M134.401 163.763C134.401 164.763 133.282 164.763 131.901 164.763C130.521 164.763 129.901 164.592 129.901 163.763C129.901 162.934 130.401 161.763 131.901 161.763C133.696 161.763 134.401 162.45 134.401 163.763Z" fill="#000100"/>
<line x1="94.5225" y1="157.5" x2="94.5225" y2="176.5" stroke="#000100" stroke-width="2"/>
<line x1="96.5225" y1="157.5" x2="96.5225" y2="176.5" stroke="#545654" stroke-width="2"/>
<line x1="86.7751" y1="184.835" x2="94.7751" y2="175.835" stroke="#000100" stroke-width="2"/>
<line x1="88.7751" y1="184.835" x2="96.7751" y2="175.835" stroke="#545654" stroke-width="2"/>
</g>
<path d="M58.5225 143.56C58.9368 146.719 59.5042 149.726 60.3429 152.803C66.6086 183.836 104.091 189.461 130.523 188.5L130.696 188.492C130.697 188.492 130.697 188.492 130.698 188.492C157.008 186.585 194.343 178.629 197.601 146.861C198.122 143.766 198.405 140.646 198.523 137.5C198.139 140.624 197.605 143.698 196.857 146.706C191.182 177.108 156.79 182.233 130.351 184.507C130.35 184.507 130.35 184.507 130.349 184.507L130.523 184.5C103.801 185.078 69.7099 182.105 61.0679 152.575C60.0119 149.607 59.1994 146.673 58.5225 143.56Z" fill="#767676"/>
<path d="M58.5225 146.931C58.8452 150.199 59.3276 153.301 60.0811 156.488C65.4374 188.569 103.395 193.822 130.523 193L130.585 192.996C130.678 192.984 130.772 192.972 130.866 192.961C145.236 191.049 159.809 189.199 173.327 183.615C187.292 178.53 196.544 164.624 197.778 150.142C198.205 146.94 198.426 143.76 198.523 140.5C198.359 143.758 198.075 146.929 197.59 150.115C195.673 183.321 157.514 188.66 130.742 191.968C130.648 191.98 130.554 191.992 130.461 192.004L130.523 192C103.33 192.719 66.2409 188.167 60.2656 156.442C59.4562 153.28 58.9115 150.191 58.5225 146.931Z" fill="#D8D8D8"/>
<path d="M78.9336 106.807C74.7206 91.1189 86.8857 37.6355 92.6714 33.4902C108.8 21.9339 133.338 22.4367 142.548 28.6063C151.759 34.776 161.596 67.9517 164.085 97.7876C125.873 112.225 120.287 114.161 78.9336 106.807Z" fill="#387CDB" stroke="#446CAD" stroke-width="4"/>
<path d="M148.631 106.307C148.677 111.698 156.311 107.986 165.132 107.91C170.456 107.864 179.988 110.473 179.919 102.488C179.872 97.0973 172.473 92.7908 163.608 93.7548C154.107 94.7879 148.577 100.096 148.631 106.307Z" fill="black"/>
<path d="M97.9154 112.978C98.4408 118.343 90.4564 115.462 81.6773 116.321C76.3787 116.84 67.1771 120.446 66.3986 112.498C65.8732 107.133 72.7742 102.066 81.6917 102.084C91.2485 102.104 97.3099 106.796 97.9154 112.978Z" fill="black"/>
<path d="M50.3615 119.473L68.9981 118.92L97.2197 118.083L127.557 117.183L148.172 115.192L175.912 112.512L204.429 109.758L202.3 130.516L189.045 151.976L186.324 152.403L159.004 156.692L152.456 157.72L135.538 134.726L121.843 135.59L110.515 160.365L108.216 160.211L79.2709 158.277L70.8188 157.713L56.7924 139.692L50.3615 119.473Z" fill="black"/>
<path fill-rule="evenodd" clip-rule="evenodd" d="M97.2197 118.083L68.9981 118.92L79.2709 158.277L108.216 160.211L97.2197 118.083Z" fill="#484848"/>
<path fill-rule="evenodd" clip-rule="evenodd" d="M159.004 156.692L148.172 115.192L175.912 112.512L186.324 152.403L159.004 156.692Z" fill="#484848"/>
<circle cx="89.5225" cy="165.5" r="1" fill="#000100"/>
<circle cx="89.5225" cy="171.5" r="1" fill="#000100"/>
<path d="M103.056 211.8C102.708 209.973 102.9 208.084 103.608 206.364L103.902 205.649C105.279 202.306 107.697 199.495 110.798 197.635L111.965 196.934C112.94 196.349 114.141 196.281 115.176 196.751C124.664 201.064 135.497 201.339 145.192 197.512L147.732 196.509C148.566 196.18 149.501 196.159 150.351 196.443C154.948 197.975 158.233 202.158 158.555 206.993L159.023 214L156.023 239.5L131.523 236L108.523 240.5L103.056 211.8Z" fill="#E0EAEB"/>
<path d="M126.462 228.5H137.073L156.273 239.794L131.523 236L108.273 240.5L126.462 228.5Z" fill="#B3BFD7"/>
<path d="M103.523 213.5L125.023 223.5L126.523 228.5L108.523 240.5L103.523 213.5Z" fill="#D2D9E6"/>
<path d="M159.023 214.5L138.299 223.612L137.025 228.674L156.523 240L159.023 214.5Z" fill="#D2D9E6"/>
<path d="M149.003 294.5L154.463 295.85L157.259 298.602L148.523 296.441L149.003 294.5Z" fill="#1A389A"/>
<path d="M154.084 305.24L148.733 303.975L145.962 301.267L154.523 303.291L154.084 305.24Z" fill="#1A389A"/>
<rect x="150.994" y="296.5" width="3" height="2.53956" transform="rotate(13.6445 150.994 296.5)" fill="#1A389A"/>
<rect width="2.93267" height="2.18863" transform="matrix(0.970447 0.241313 -0.23059 0.973051 149.932 300.5)" fill="#1A389A"/>
<defs>
<filter id="filter0_i_774_10636" x="52.5225" y="98.4998" width="152" height="94" filterUnits="userSpaceOnUse" color-interpolation-filters="sRGB">
<feFlood flood-opacity="0" result="BackgroundImageFix"/>
<feBlend mode="normal" in="SourceGraphic" in2="BackgroundImageFix" result="shape"/>
<feColorMatrix in="SourceAlpha" type="matrix" values="0 0 0 0 0 0 0 0 0 0 0 0 0 0 0 0 0 0 127 0" result="hardAlpha"/>
<feOffset dy="-6"/>
<feComposite in2="hardAlpha" operator="arithmetic" k2="-1" k3="1"/>
<feColorMatrix type="matrix" values="0 0 0 0 0.697622 0 0 0 0 0.702095 0 0 0 0 0.702543 0 0 0 1 0"/>
<feBlend mode="normal" in2="shape" result="effect1_innerShadow_774_10636"/>
</filter>
</defs>
</svg>
