<svg width="313" height="506" viewBox="0 0 313 506" fill="none" xmlns="http://www.w3.org/2000/svg">
<g transform="translate(46.5, 9)">
<path d="M141.5 206.5C139.1 200.9 136 199.5 135 199L129 232.5L140.5 277C147.333 275.5 161.2 272.2 162 271C163 269.5 164.5 264 164.5 262C164.5 260 161.5 252.5 159.5 250C157.5 247.5 149 233 147.5 230C146 227 144.5 213.5 141.5 206.5Z" fill="#FF976A"/>
<path d="M136.896 200.143C138.255 201.172 140.012 203.029 141.5 206.5C144.5 213.5 146 227 147.5 230C147.888 230.776 148.744 232.32 149.834 234.228C142.749 235.935 135.831 241.946 132.365 245.522L129.021 232.58L129.005 232.469L133.352 208.198L136.896 200.143Z" fill="#FEF7E5"/>
<g style="mix-blend-mode:multiply">
<path d="M136 210C135.5 215.833 134.8 227.9 136 229.5C137.2 231.1 141.167 226.167 143 223.5C141.167 227.667 137.6 236.3 138 237.5C138.5 239 139.667 245.5 141.5 251C142 252.5 142.5 253.5 143 255.5C143.151 256.105 144.894 259.758 145.5 263.5C145.866 265.762 144.935 267.74 145.5 270C146.131 272.522 156.222 271.078 162.599 269.791C162.516 269.994 162.431 270.181 162.351 270.353C160.802 271.14 158.97 272.032 157.038 272.914C152.382 274.268 145.512 275.887 141.084 276.868C140.756 276.501 140.417 275.985 140.07 275.338L129.318 233.734C129.224 233.224 129.132 232.728 129.045 232.246L129.204 231.355L136 210Z" fill="#CBDEEC"/>
</g>
<path d="M166.5 286.5C166.5 285.7 163.167 280.5 161.5 278L140 283.5V291.5C141.167 294.5 144 300.7 146 301.5C148.5 302.5 151 300.707 151 300C151 298.5 151 294 151.5 292.5C151.626 292.121 153.5 292.667 154.5 293C154.9 293.8 155.667 298 156 300C155 300.5 152 304.5 151.5 306C151 307.5 155 308.5 156 308.5C157 308.5 166.5 303 167.5 300.5C168.5 298 166.5 287.5 166.5 286.5Z" fill="#FEF7E5"/>
<g style="mix-blend-mode:multiply">
<path d="M162.624 279.714C157.601 283.528 146.758 287.624 144.5 288C143.667 291.5 144.5 298 146.5 301.5L145.15 300.9C143.265 299.082 141.009 294.095 140 291.5V288.899L141.5 285L162.361 279.31C162.447 279.442 162.535 279.577 162.624 279.714Z" fill="#CBDEEC"/>
</g>
<path d="M162.5 270C159.5 272.5 146.667 275.167 140.5 276V287C147.5 285.167 161.7 281 162.5 279C163.3 277 163.167 272.167 162.5 270Z" fill="#FEF7E5"/>
<g style="mix-blend-mode:multiply">
<path d="M147 275C145.891 277.534 143.82 283.11 143.961 286.061C142.882 286.362 141.867 286.637 140.958 286.878C140.795 286.75 140.64 286.623 140.5 286.5L140.959 275.934C142.502 275.714 144.401 275.395 146.432 275H147Z" fill="#CBDEEC"/>
</g>
<path d="M67.8788 269.763C67.8788 267.951 70.3788 266.263 71.3788 266.763L81.8788 258.263L75.3788 284.263C74.2122 284.43 70.6288 284.763 69.3788 284.263C66.4427 283.089 62.3788 275.763 62.3788 273.763C62.3788 272.532 63.3788 271.513 64.3788 271.263C66.8788 270.638 69.0455 273.763 70.3788 275.263V272.763C69.8788 271.763 67.8788 270.763 67.8788 269.763Z" fill="#FEF7E5"/>
<g style="mix-blend-mode:multiply">
<path d="M78.8788 270.263L74.166 284.399C74.1099 284.404 74.0529 284.409 73.9951 284.414C74.81 278.544 75.4249 272.487 76.3788 266.763C75.8788 267.263 72.8788 268.263 72.3788 268.263C71.3788 268.263 71.3788 271.263 70.8788 272.763C70.7809 273.057 70.6117 273.562 70.3788 273.904V272.763C69.8788 271.763 67.8788 270.763 67.8788 269.763C67.8788 267.951 70.3788 266.263 71.3788 266.763L78.6591 260.869L81.6962 258.993L78.8788 270.263Z" fill="#CBDEEC"/>
</g>
<path d="M69.8788 265.263C69.4788 265.263 68.0455 264.263 67.3788 263.763C72.0455 257.763 81.5788 245.763 82.3788 245.763C83.3788 245.763 86.3788 250.263 86.3788 251.763C84.3788 259.263 73.8788 266.763 72.3788 267.263C70.8788 267.763 70.3788 265.263 69.8788 265.263Z" fill="#FEF7E5"/>
<g style="mix-blend-mode:multiply">
<path d="M82.3788 245.763C83.1481 245.763 85.0978 248.428 85.9579 250.339C84.1045 254.977 80.8788 260.927 80.8788 259.263C80.8788 257.202 80.3788 254.263 79.8788 254.263C79.3132 254.263 78.0455 255.097 76.8788 255.263L81.8544 246.14C82.1153 245.896 82.2948 245.763 82.3788 245.763Z" fill="#CBDEEC"/>
</g>
<path d="M80.8783 197.763C84.8783 196.163 90.8783 196.096 93.3783 196.263C101.545 195.596 118.878 194.363 122.878 194.763C126.878 195.163 133.545 198.096 136.378 199.763C137.178 208.963 132.712 226.763 130.378 234.263C151.878 284.763 136.878 307.263 135.878 323.763C163.078 400.563 158.378 459.93 152.378 479.263C115.578 496.063 103.712 482.596 102.378 473.763C103.378 463.263 108.378 333.263 108.378 333.263C108.378 333.263 109.378 302.263 110.378 287.763H106.378C106.778 288.563 99.8783 334.263 99.8783 334.263C99.8783 334.263 80.045 434.263 77.3783 473.763C61.8783 497.763 25.0525 475.763 23.8783 466.263C19.4783 430.663 54.3783 357.43 72.3783 325.263C68.3783 292.463 81.045 254.596 87.8783 239.763L84.8783 226.263C78.4783 231.863 76.8783 235.263 76.8783 236.263C78.0783 236.663 80.045 239.43 80.8783 240.763C83.6783 241.563 84.045 244.096 83.8783 245.263C74.8783 263.763 63.8783 265.763 61.8783 263.763C59.8783 261.763 60.3783 260.263 58.8783 257.263C52.8783 252.763 48.545 245.43 45.8783 240.763C44.6783 239.563 44.6882 233.229 45.3783 232.263C52.8783 221.763 65.3783 209.763 73.8783 202.263C77.245 199.573 78.7273 198.623 80.8783 197.763Z" fill="#FF976A"/>
<path d="M138.928 259.749C146.767 292.95 136.692 310.342 135.879 323.763C163.079 400.563 158.379 459.93 152.379 479.263C115.579 496.063 103.712 482.597 102.379 473.763C103.379 463.263 108.379 333.263 108.379 333.263C108.379 333.239 109.379 302.258 110.379 287.763H106.379C106.777 288.569 99.8869 334.209 99.8787 334.263C99.8787 334.263 80.0454 434.263 77.3787 473.763C61.8787 497.763 25.053 475.763 23.8787 466.263C19.4787 430.663 54.3787 357.43 72.3787 325.263C69.7864 304.006 74.1948 280.621 79.4783 262.756C101.381 271.029 113.757 271.611 138.928 259.749Z" fill="#391614"/>
<mask id="path-14-inside-1_792_5430" fill="white">
<path d="M121.286 194.69C121.937 194.699 122.475 194.723 122.878 194.763C125.339 195.009 128.81 196.215 131.776 197.495C131.764 204.057 131.192 213.227 130.495 221.481C130.099 226.178 129.661 230.597 129.258 234.096C128.99 236.421 128.732 238.382 128.51 239.75H132.614C134.122 243.623 135.411 247.322 136.502 250.859C130.018 253.573 119.955 255.234 110.023 255.711C99.8375 256.201 89.5155 255.461 83.0821 253.178C82.917 253.12 82.7718 253.029 82.6505 252.916C84.2527 248.34 85.8257 244.385 87.209 241.25H90.4317C89.0604 234.804 87.923 223.888 87.2784 214.334C86.9274 209.133 86.7192 204.292 86.7003 200.742C86.6908 198.973 86.7281 197.491 86.8233 196.437V196.434C89.4627 196.15 91.9729 196.169 93.378 196.263C95.0305 196.128 97.0588 195.972 99.2755 195.809C99.451 201.544 99.7908 212.036 100.273 221.461C100.527 226.419 100.82 231.067 101.148 234.569C101.312 236.322 101.483 237.765 101.658 238.808C101.746 239.332 101.831 239.727 101.908 239.997C101.928 240.067 101.945 240.122 101.96 240.164C101.986 240.18 102.02 240.202 102.064 240.223C102.199 240.289 102.387 240.362 102.635 240.435C103.132 240.581 103.789 240.705 104.574 240.798C106.141 240.984 108.095 241.03 110.04 240.939C111.988 240.847 113.871 240.62 115.304 240.277C116.024 240.104 116.583 239.914 116.966 239.724C117.232 239.592 117.335 239.498 117.363 239.472C117.364 239.47 117.365 239.467 117.366 239.465C117.376 239.435 117.389 239.394 117.403 239.342C117.433 239.236 117.468 239.097 117.507 238.922C117.584 238.572 117.672 238.112 117.768 237.547C117.959 236.42 118.176 234.917 118.407 233.136C118.869 229.576 119.382 224.935 119.845 220.008C120.715 210.751 121.404 200.585 121.286 194.69Z"/>
</mask>
<path d="M121.286 194.69C121.937 194.699 122.475 194.723 122.878 194.763C125.339 195.009 128.81 196.215 131.776 197.495C131.764 204.057 131.192 213.227 130.495 221.481C130.099 226.178 129.661 230.597 129.258 234.096C128.99 236.421 128.732 238.382 128.51 239.75H132.614C134.122 243.623 135.411 247.322 136.502 250.859C130.018 253.573 119.955 255.234 110.023 255.711C99.8375 256.201 89.5155 255.461 83.0821 253.178C82.917 253.12 82.7718 253.029 82.6505 252.916C84.2527 248.34 85.8257 244.385 87.209 241.25H90.4317C89.0604 234.804 87.923 223.888 87.2784 214.334C86.9274 209.133 86.7192 204.292 86.7003 200.742C86.6908 198.973 86.7281 197.491 86.8233 196.437V196.434C89.4627 196.15 91.9729 196.169 93.378 196.263C95.0305 196.128 97.0588 195.972 99.2755 195.809C99.451 201.544 99.7908 212.036 100.273 221.461C100.527 226.419 100.82 231.067 101.148 234.569C101.312 236.322 101.483 237.765 101.658 238.808C101.746 239.332 101.831 239.727 101.908 239.997C101.928 240.067 101.945 240.122 101.96 240.164C101.986 240.18 102.02 240.202 102.064 240.223C102.199 240.289 102.387 240.362 102.635 240.435C103.132 240.581 103.789 240.705 104.574 240.798C106.141 240.984 108.095 241.03 110.04 240.939C111.988 240.847 113.871 240.62 115.304 240.277C116.024 240.104 116.583 239.914 116.966 239.724C117.232 239.592 117.335 239.498 117.363 239.472C117.364 239.47 117.365 239.467 117.366 239.465C117.376 239.435 117.389 239.394 117.403 239.342C117.433 239.236 117.468 239.097 117.507 238.922C117.584 238.572 117.672 238.112 117.768 237.547C117.959 236.42 118.176 234.917 118.407 233.136C118.869 229.576 119.382 224.935 119.845 220.008C120.715 210.751 121.404 200.585 121.286 194.69Z" fill="#FEF7E5"/>
<path d="M121.286 194.69L121.322 192.19C120.644 192.18 119.992 192.446 119.513 192.927C119.035 193.408 118.773 194.062 118.787 194.74L121.286 194.69ZM122.878 194.763L123.127 192.275L123.127 192.275L122.878 194.763ZM131.776 197.495L134.276 197.499C134.278 196.499 133.684 195.595 132.766 195.199L131.776 197.495ZM130.495 221.481L132.986 221.691V221.691L130.495 221.481ZM129.258 234.096L131.741 234.382V234.382L129.258 234.096ZM128.51 239.75L126.042 239.349C125.925 240.073 126.131 240.812 126.606 241.37C127.081 241.929 127.777 242.25 128.51 242.25V239.75ZM132.614 239.75L134.944 238.843C134.57 237.883 133.645 237.25 132.614 237.25V239.75ZM136.502 250.859L137.467 253.165C138.654 252.668 139.27 251.351 138.891 250.122L136.502 250.859ZM110.023 255.711L110.143 258.208H110.143L110.023 255.711ZM83.0821 253.178L82.246 255.534L82.2461 255.534L83.0821 253.178ZM82.6505 252.916L80.2909 252.09C79.9624 253.028 80.221 254.072 80.9495 254.749L82.6505 252.916ZM87.209 241.25V238.75C86.2187 238.75 85.3218 239.335 84.9219 240.241L87.209 241.25ZM90.4317 241.25V243.75C91.186 243.75 91.9 243.41 92.3747 242.824C92.8494 242.237 93.0339 241.468 92.877 240.73L90.4317 241.25ZM87.2784 214.334L84.7841 214.503L84.7841 214.503L87.2784 214.334ZM86.7003 200.742L84.2003 200.755L84.2003 200.755L86.7003 200.742ZM86.8233 196.437L89.3132 196.662C89.3199 196.587 89.3233 196.512 89.3233 196.437H86.8233ZM86.8233 196.434L86.5554 193.948C85.2858 194.085 84.3233 195.157 84.3233 196.434H86.8233ZM93.378 196.263L93.2117 198.758C93.3349 198.766 93.4584 198.765 93.5814 198.755L93.378 196.263ZM99.2755 195.809L101.774 195.732C101.753 195.051 101.455 194.408 100.949 193.952C100.443 193.495 99.7718 193.266 99.092 193.316L99.2755 195.809ZM100.273 221.461L97.7768 221.589V221.589L100.273 221.461ZM101.148 234.569L98.6584 234.802L98.6584 234.802L101.148 234.569ZM101.658 238.808L99.1929 239.223L99.1929 239.223L101.658 238.808ZM101.908 239.997L99.5045 240.684L99.5045 240.685L101.908 239.997ZM101.96 240.164L99.5995 240.988C99.7931 241.543 100.176 242.012 100.681 242.313L101.96 240.164ZM102.064 240.223L100.964 242.468L100.965 242.469L102.064 240.223ZM102.635 240.435L101.93 242.833L101.93 242.833L102.635 240.435ZM104.574 240.798L104.281 243.281H104.281L104.574 240.798ZM110.04 240.939L110.157 243.436H110.157L110.04 240.939ZM115.304 240.277L115.885 242.708L115.886 242.708L115.304 240.277ZM116.966 239.724L118.078 241.963L118.079 241.963L116.966 239.724ZM117.363 239.472L119.064 241.304C119.368 241.022 119.597 240.669 119.731 240.276L117.363 239.472ZM117.366 239.465L119.716 240.32C119.723 240.299 119.731 240.278 119.738 240.256L117.366 239.465ZM117.403 239.342L119.81 240.017L119.811 240.017L117.403 239.342ZM117.507 238.922L119.948 239.464L119.948 239.463L117.507 238.922ZM117.768 237.547L120.232 237.966L120.232 237.966L117.768 237.547ZM118.407 233.136L120.887 233.458L120.887 233.458L118.407 233.136ZM119.845 220.008L122.334 220.242V220.242L119.845 220.008ZM121.286 194.69L121.25 197.19C121.874 197.199 122.33 197.221 122.629 197.251L122.878 194.763L123.127 192.275C122.62 192.225 122 192.2 121.322 192.19L121.286 194.69ZM122.878 194.763L122.629 197.251C124.684 197.456 127.856 198.527 130.786 199.79L131.776 197.495L132.766 195.199C129.764 193.904 125.995 192.562 123.127 192.275L122.878 194.763ZM131.776 197.495L129.276 197.49C129.264 203.947 128.699 213.036 128.004 221.27L130.495 221.481L132.986 221.691C133.685 213.418 134.264 204.166 134.276 197.499L131.776 197.495ZM130.495 221.481L128.004 221.27C127.609 225.947 127.174 230.341 126.774 233.81L129.258 234.096L131.741 234.382C132.148 230.854 132.588 226.409 132.986 221.691L130.495 221.481ZM129.258 234.096L126.774 233.81C126.508 236.121 126.255 238.038 126.042 239.349L128.51 239.75L130.977 240.151C131.209 238.727 131.472 236.721 131.741 234.382L129.258 234.096ZM128.51 239.75V242.25H132.614V239.75V237.25H128.51V239.75ZM132.614 239.75L130.285 240.658C131.772 244.477 133.04 248.119 134.113 251.596L136.502 250.859L138.891 250.122C137.781 246.524 136.473 242.769 134.944 238.843L132.614 239.75ZM136.502 250.859L135.537 248.553C129.446 251.102 119.719 252.742 109.902 253.214L110.023 255.711L110.143 258.208C120.191 257.725 130.591 256.043 137.467 253.165L136.502 250.859ZM110.023 255.711L109.902 253.214C99.8129 253.699 89.8848 252.939 83.9181 250.822L83.0821 253.178L82.2461 255.534C89.1461 257.983 99.8621 258.703 110.143 258.208L110.023 255.711ZM83.0821 253.178L83.9182 250.822C84.0852 250.881 84.2319 250.973 84.3514 251.084L82.6505 252.916L80.9495 254.749C81.3116 255.085 81.7488 255.358 82.246 255.534L83.0821 253.178ZM82.6505 252.916L85.01 253.743C86.593 249.221 88.1422 245.327 89.4962 242.26L87.209 241.25L84.9219 240.241C83.5091 243.442 81.9124 247.459 80.2909 252.09L82.6505 252.916ZM87.209 241.25V243.75H90.4317V241.25V238.75H87.209V241.25ZM90.4317 241.25L92.877 240.73C91.545 234.469 90.4161 223.702 89.7727 214.166L87.2784 214.334L84.7841 214.503C85.4298 224.074 86.5759 235.14 87.9864 241.771L90.4317 241.25ZM87.2784 214.334L89.7727 214.166C89.4237 208.993 89.2188 204.208 89.2002 200.728L86.7003 200.742L84.2003 200.755C84.2196 204.376 84.4312 209.273 84.7841 214.503L87.2784 214.334ZM86.7003 200.742L89.2002 200.728C89.1909 198.982 89.2288 197.596 89.3132 196.662L86.8233 196.437L84.3334 196.212C84.2273 197.387 84.1907 198.963 84.2003 200.755L86.7003 200.742ZM86.8233 196.437H89.3233V196.434H86.8233H84.3233V196.437H86.8233ZM86.8233 196.434L87.0912 198.92C89.5742 198.652 91.9386 198.673 93.2117 198.758L93.378 196.263L93.5442 193.769C92.0073 193.666 89.3512 193.647 86.5554 193.948L86.8233 196.434ZM93.378 196.263L93.5814 198.755C95.2254 198.621 97.2467 198.465 99.4589 198.302L99.2755 195.809L99.092 193.316C96.8708 193.479 94.8356 193.636 93.1746 193.771L93.378 196.263ZM99.2755 195.809L96.7766 195.885C96.9522 201.623 97.2926 212.136 97.7768 221.589L100.273 221.461L102.77 221.333C102.289 211.936 101.95 201.466 101.774 195.732L99.2755 195.809ZM100.273 221.461L97.7768 221.589C98.0312 226.556 98.3257 231.247 98.6584 234.802L101.148 234.569L103.637 234.336C103.314 230.888 103.024 226.281 102.77 221.333L100.273 221.461ZM101.148 234.569L98.6584 234.802C98.8245 236.576 99.0025 238.09 99.1929 239.223L101.658 238.808L104.124 238.393C103.963 237.441 103.799 236.068 103.637 234.336L101.148 234.569ZM101.658 238.808L99.1929 239.223C99.2875 239.785 99.3901 240.284 99.5045 240.684L101.908 239.997L104.312 239.311C104.272 239.17 104.205 238.879 104.124 238.393L101.658 238.808ZM101.908 239.997L99.5045 240.685C99.531 240.777 99.5629 240.883 99.5995 240.988L101.96 240.164L104.321 239.341C104.323 239.348 104.324 239.352 104.325 239.353C104.325 239.355 104.325 239.354 104.324 239.351C104.322 239.344 104.318 239.331 104.312 239.31L101.908 239.997ZM101.96 240.164L100.681 242.313C100.677 242.31 100.67 242.306 100.686 242.316C100.697 242.322 100.718 242.335 100.743 242.35C100.796 242.38 100.871 242.423 100.964 242.468L102.064 240.223L103.163 237.978C103.212 238.002 103.249 238.023 103.267 238.034C103.276 238.038 103.281 238.041 103.276 238.039C103.275 238.038 103.274 238.038 103.272 238.036C103.27 238.035 103.268 238.033 103.265 238.032C103.259 238.028 103.25 238.023 103.239 238.016L101.96 240.164ZM102.064 240.223L100.965 242.469C101.259 242.613 101.587 242.733 101.93 242.833L102.635 240.435L103.34 238.036C103.268 238.015 103.217 237.998 103.185 237.986C103.152 237.973 103.146 237.969 103.162 237.977L102.064 240.223ZM102.635 240.435L101.93 242.833C102.608 243.033 103.415 243.179 104.281 243.281L104.574 240.798L104.868 238.316C104.163 238.232 103.655 238.129 103.34 238.036L102.635 240.435ZM104.574 240.798L104.281 243.281C106.015 243.486 108.112 243.532 110.157 243.436L110.04 240.939L109.923 238.442C108.079 238.528 106.267 238.481 104.868 238.316L104.574 240.798ZM110.04 240.939L110.157 243.436C112.2 243.34 114.25 243.1 115.885 242.708L115.304 240.277L114.722 237.845C113.492 238.14 111.776 238.354 109.923 238.442L110.04 240.939ZM115.304 240.277L115.886 242.708C116.698 242.514 117.459 242.271 118.078 241.963L116.966 239.724L115.853 237.485C115.707 237.558 115.35 237.695 114.722 237.845L115.304 240.277ZM116.966 239.724L118.079 241.963C118.558 241.725 118.859 241.495 119.064 241.304L117.363 239.472L115.663 237.64C115.678 237.625 115.708 237.598 115.746 237.567C115.781 237.539 115.811 237.517 115.834 237.501C115.88 237.469 115.892 237.466 115.853 237.485L116.966 239.724ZM117.363 239.472L119.731 240.276C119.715 240.323 119.699 240.363 119.688 240.393C119.676 240.422 119.665 240.447 119.658 240.465C119.65 240.483 119.644 240.497 119.64 240.505C119.638 240.509 119.636 240.513 119.635 240.515C119.634 240.517 119.634 240.519 119.633 240.519C119.633 240.521 119.635 240.515 119.638 240.509C119.641 240.503 119.646 240.491 119.653 240.476C119.66 240.461 119.669 240.44 119.679 240.415C119.689 240.39 119.702 240.358 119.716 240.32L117.366 239.465L115.017 238.611C115.03 238.573 115.043 238.542 115.053 238.517C115.063 238.493 115.072 238.473 115.078 238.458C115.084 238.444 115.09 238.432 115.092 238.426C115.095 238.421 115.097 238.416 115.096 238.419C115.096 238.419 115.093 238.426 115.089 238.434C115.085 238.443 115.078 238.458 115.07 238.476C115.062 238.494 115.052 238.52 115.04 238.55C115.028 238.58 115.012 238.62 114.996 238.668L117.363 239.472ZM117.366 239.465L119.738 240.256C119.764 240.176 119.789 240.095 119.81 240.017L117.403 239.342L114.996 238.667C114.993 238.679 114.991 238.686 114.99 238.688C114.99 238.689 114.99 238.689 114.991 238.687C114.991 238.684 114.993 238.68 114.995 238.674L117.366 239.465ZM117.403 239.342L119.811 240.017C119.855 239.858 119.901 239.673 119.948 239.464L117.507 238.922L115.066 238.381C115.035 238.521 115.011 238.614 114.996 238.667L117.403 239.342ZM117.507 238.922L119.948 239.463C120.038 239.056 120.133 238.55 120.232 237.966L117.768 237.547L115.303 237.129C115.21 237.673 115.131 238.089 115.066 238.381L117.507 238.922ZM117.768 237.547L120.232 237.966C120.432 236.792 120.653 235.254 120.887 233.458L118.407 233.136L115.928 232.814C115.699 234.581 115.487 236.047 115.303 237.129L117.768 237.547ZM118.407 233.136L120.887 233.458C121.353 229.862 121.869 225.19 122.334 220.242L119.845 220.008L117.356 219.774C116.895 224.679 116.385 229.29 115.928 232.814L118.407 233.136ZM119.845 220.008L122.334 220.242C123.204 210.983 123.907 200.692 123.786 194.64L121.286 194.69L118.787 194.74C118.902 200.479 118.226 210.519 117.356 219.774L119.845 220.008Z" fill="#FFCB7F" mask="url(#path-14-inside-1_792_5430)"/>
<path d="M84.7061 226.414C80.4195 230.189 78.3319 232.949 77.4424 234.632C72.8331 231.405 60.4083 226.316 50.9287 225.215C58.1597 216.725 67.2388 208.122 73.8779 202.264C77.1445 199.653 78.6378 198.682 80.6885 197.841L84.7061 226.414Z" fill="#FEF7E5"/>
<g style="mix-blend-mode:multiply">
<path d="M81.8787 207.763C82.2384 208.123 84.4736 219.753 84.9207 226.455L84.8787 226.263C78.4787 231.863 76.8787 235.263 76.8787 236.263C78.0787 236.663 80.0454 239.43 80.8787 240.763C81.2422 240.867 81.5647 241 81.8503 241.156C80.914 241.87 79.7117 242.541 78.8787 242.263C77.3781 241.762 67.8784 230.763 61.3787 230.263C63.3786 229.93 68.0786 230.463 70.8787 231.263C74.0453 227.763 80.3787 220.463 80.3787 219.263C80.3787 218.063 81.8787 210.93 81.8787 207.763Z" fill="#CBDEEC"/>
</g>
<path d="M54.0712 441.691C58.664 440.799 62.8601 440.68 65.7792 441.957C68.958 443.347 73.4446 447.243 77.9921 465.23C77.763 468.25 77.5573 471.105 77.3779 473.763C77.1562 474.106 76.9294 474.44 76.6992 474.764C75.5437 470.833 73.2181 465.046 70.7841 459.792C69.4892 456.997 68.1726 454.373 66.999 452.281C65.8003 450.144 64.8161 448.684 64.1953 448.102C63.6638 447.604 62.7633 447.251 61.4013 447.135C60.0534 447.021 58.3723 447.149 56.4208 447.49C52.5208 448.171 47.7165 449.671 42.6806 451.541C36.0852 453.989 29.1746 457.039 23.4999 459.626C23.5002 458.899 23.511 458.161 23.5351 457.413C29.0629 454.902 35.6665 452.011 41.9853 449.666C47.0587 447.782 51.9971 446.232 56.0771 445.519C58.1156 445.163 59.9846 445.007 61.5712 445.142C63.1438 445.276 64.5634 445.707 65.5624 446.643C66.4416 447.467 67.562 449.197 68.7431 451.302C69.9495 453.453 71.2895 456.126 72.5986 458.952C74.1382 462.275 75.6474 465.84 76.8544 469.042C72.0463 448.224 67.3913 444.844 64.9785 443.789C62.6476 442.769 58.9685 442.777 54.4521 443.655C49.9851 444.523 44.881 446.203 39.8281 448.323C34.7787 450.441 29.8088 452.984 25.6132 455.563C24.9021 456 24.2156 456.438 23.5556 456.873C23.5875 456.062 23.632 455.239 23.6904 454.405C23.9787 454.223 24.2711 454.041 24.5663 453.86C28.855 451.224 33.9167 448.633 39.0546 446.478C44.189 444.324 49.429 442.593 54.0712 441.691Z" fill="#250503"/>
<path d="M115.419 453.5C116.578 452.771 118.054 452.619 119.623 452.787C121.206 452.956 123.012 453.464 124.945 454.202C128.815 455.678 133.368 458.14 137.99 460.954C143.585 464.36 149.345 468.324 154.208 471.772C154.064 472.512 153.917 473.224 153.767 473.91C148.779 470.362 142.774 466.206 136.951 462.662C132.363 459.869 127.932 457.482 124.232 456.071C122.382 455.365 120.755 454.92 119.41 454.776C118.051 454.631 117.1 454.806 116.483 455.194C115.763 455.647 114.52 456.893 112.937 458.762C111.386 460.593 109.594 462.919 107.791 465.417C105.911 468.021 104.033 470.794 102.411 473.368C102.488 472.479 102.595 471.071 102.722 469.218C103.835 467.547 105.005 465.861 106.17 464.247C107.993 461.722 109.817 459.352 111.41 457.47C112.97 455.628 114.399 454.142 115.419 453.5ZM116.098 448.859C119.206 448.161 123.303 449.076 127.643 450.826C132.028 452.594 136.844 455.29 141.475 458.381C146.109 461.475 150.585 464.982 154.294 468.385C154.446 468.525 154.596 468.665 154.745 468.804C154.61 469.617 154.468 470.403 154.325 471.162C153.878 470.731 153.418 470.295 152.941 469.858C149.313 466.528 144.918 463.085 140.364 460.045C135.807 457.003 131.116 454.383 126.896 452.681C122.629 450.961 119.017 450.253 116.535 450.81C114.251 451.323 109.881 453.303 102.841 467.447C102.937 465.999 103.039 464.352 103.153 462.531C109.12 451.724 113.237 449.501 116.098 448.859Z" fill="#250503"/>
<path d="M74.0746 285.635C71.8701 306.827 75.1286 322.761 77.8783 329.263C66.2209 349.501 34.7466 409.219 24.2494 448.824C29.1574 410.47 56.964 352.809 72.3783 325.263C70.7934 312.266 71.8258 298.474 74.0746 285.635Z" fill="#FF976A"/>
<path d="M141.879 282.235C142.235 301.551 136.485 313.76 135.878 323.763C158.01 386.252 159.021 437.2 155.398 464.432C155.062 445.094 151.84 413.535 146.378 386.763C141.807 364.357 132.966 342.929 129.256 327.763C136.5 316.5 137.5 309 141 292C141.507 289.541 141.756 285.632 141.879 282.235Z" fill="#FF976A"/>
<path d="M23.5762 456.358C25.83 463.97 33.6841 477.166 49.379 480.763C62.605 483.794 71.6066 478.773 77.3995 473.449C77.3923 473.554 77.385 473.659 77.378 473.763C61.8779 497.763 25.0521 475.763 23.878 466.263C23.5019 463.22 23.4131 459.902 23.5762 456.358Z" fill="#FF976A"/>
<path d="M102.47 472.668C105.584 478.381 110.987 483.638 122.379 483.763C135.413 483.906 147.142 478.482 153.9 473.284C153.416 475.573 152.904 477.572 152.379 479.263C115.579 496.063 103.712 482.597 102.379 473.763C102.406 473.48 102.435 473.113 102.47 472.668Z" fill="#FF976A"/>
<path d="M108.379 202.263C109.379 203.763 109 259.5 110 262.5" stroke="#391614" stroke-width="2" stroke-linecap="round"/>
<g style="mix-blend-mode:multiply">
<path d="M93.3787 196.263C101.545 195.596 118.879 194.363 122.879 194.763C123.905 194.866 125.106 195.136 126.374 195.508C98.845 219.564 86.8617 207.487 83.7898 196.908C87.3788 196.145 91.4358 196.134 93.3787 196.263Z" fill="#CBDEEC"/>
</g>
<g style="mix-blend-mode:multiply">
<path d="M93.3788 237C91.3788 237 90.8788 237.5 92.3788 239C96.7667 243.388 103.379 245.5 106.879 245.5C110.379 245.5 117.879 239 121.879 234.5C121.379 236 117.879 241.5 115.379 245C118.179 245 126.879 233.5 126.879 228C120.379 232.5 94.8788 237 93.3788 237Z" fill="#CBDEEC"/>
</g>
<g style="mix-blend-mode:multiply">
<path d="M86.8786 275.763C87.2794 275.363 99.7121 281.763 105.879 285.263C107.212 285.096 110.078 285.263 110.879 285.263C111.679 285.263 123.212 279.263 128.879 276.263C129.379 277.263 127.879 281.262 127.379 282.263C126.979 283.063 118.212 285.263 113.879 286.263L118.379 287.763C117.179 288.163 113.379 287.596 111.379 287.263C111.221 287.525 110.872 287.719 110.372 287.86C110.374 287.828 110.376 287.795 110.379 287.763H106.379C106.4 287.806 106.405 287.938 106.398 288.149C100.3 287.996 90.8786 286.263 90.8786 286.263C90.8786 286.263 96.8785 286.096 99.3786 285.763C95.0452 284.929 86.1786 282.963 85.3786 281.763C84.3792 280.262 86.3787 276.263 86.8786 275.763Z" fill="#CBDEEC"/>
</g>
<path d="M93.8788 197.763C93.323 197.658 93.0455 195.596 92.8788 194.763L123.379 191.263C124.179 192.063 123.5 195.763 122.5 197.763C116.697 201.736 109.726 210.56 109.014 212.972C109.141 213.264 109.145 213.449 109 213.5C108.933 213.399 108.941 213.22 109.014 212.972C107.827 210.245 95.9021 198.146 93.8788 197.763Z" fill="#391614"/>
<path d="M78.5001 268C77.4882 267.494 79 261.5 80.5 259.5C103.5 270.5 128 262.167 138 256C139.873 258.183 140.1 261.632 139.5 264.5C120 277.5 88.5 273 78.5001 268Z" fill="black"/>
<path d="M115.056 265.962C115.788 265.889 116.423 266.464 116.423 267.201L116.423 269.23C116.423 269.861 115.951 270.394 115.324 270.471C110.693 271.038 107.551 271.377 102.996 270.948C102.393 270.891 101.923 270.373 101.922 269.737L101.922 267.712C101.922 266.98 102.56 266.382 103.329 266.431C107.611 266.702 110.753 266.391 115.056 265.962Z" stroke="url(#paint0_linear_792_5430)" stroke-width="1.5"/>
<path d="M7.33576 129.83C11.167 124.386 19.2861 119.321 22.8668 117.47L51.9113 176.737C44.2086 181.419 32.4597 187.12 26.5984 183.684C10.9682 174.522 2.54669 136.636 7.33576 129.83Z" fill="#FF976A"/>
<path d="M202.844 104.552C197.804 100.203 188.696 97.2659 184.773 96.3408L171.018 160.894C179.628 163.561 192.411 166.232 197.26 161.474C210.192 148.785 209.145 109.988 202.844 104.552Z" fill="#FF976A"/>
<path d="M190.879 108.263C193.03 129.597 188.793 157.263 176.379 169.263C161.379 183.763 137.478 190.723 110.379 194.263C83.2796 197.802 54.766 194.763 36.8788 172.263C21.6414 153.096 18.8788 127.591 18.8788 108.263C18.8788 61.8707 57.3788 30.7962 96.3788 27.7629C135.379 24.7296 184.173 41.763 190.879 108.263Z" fill="#FEF7E5"/>
<path d="M176.379 129.763C176.379 147.683 171.379 166.813 159.379 175.763C147.379 184.714 129.879 189.816 111.379 191.763C103.379 192.605 74.0508 193.853 57.8788 181.763C41.1559 169.261 36.3788 152.683 36.3788 134.763C36.3788 116.843 42.1293 103.757 56.8692 92.763C65.3692 86.4231 85.4916 83.8884 103.379 82.2631C125.389 80.2632 143.925 78.3388 153.879 85.7631C168.619 96.7572 176.379 111.843 176.379 129.763Z" fill="black"/>
<path d="M77.6917 167.863C78.4734 169.945 79.8889 172.994 82.7767 173.886C92.2062 176.799 125.382 177.786 138.342 167.542C138.876 166.579 139.916 164.288 139.798 162.827" stroke="#FEF7E5" stroke-width="3" stroke-linecap="round"/>
<path fill-rule="evenodd" clip-rule="evenodd" d="M60.3629 158.237C58.7239 156.164 57.7971 149.251 60.3138 146.289C61.9924 144.313 72.187 145.326 74.1618 147.005C76.1365 148.683 75.6675 154.237 74.9023 156.138C73.7545 158.989 62.4118 160.829 60.3629 158.237Z" fill="#FEF7E5"/>
<path d="M155.491 150.524C156.774 148.213 156.575 141.241 153.614 138.724C151.639 137.044 141.741 139.686 140.063 141.661C138.384 143.636 139.742 149.042 140.803 150.794C142.395 153.423 153.886 153.412 155.491 150.524Z" fill="#FEF7E5"/>
<path d="M21.9785 52.9641C10.4909 62.8105 10.4668 96.4742 13.31 109.863C71.0737 108.05 140.503 101.771 193.765 87.9937C196.609 75.1979 185.71 43.1067 173.779 36.3992C122.869 7.77727 66.7649 14.5761 21.9785 52.9641Z" fill="#FFCB7F"/>
<path d="M74.1193 37.4898C72.6703 33.088 72.6797 20.5744 76.1157 16.1908C79.2874 12.1445 106.788 8.8861 113.109 11.7077C117.948 13.8681 120.6 28.1951 120.135 31.9133C104.441 38.3931 87.1885 39.5683 74.1193 37.4898Z" fill="#391614"/>
<path d="M16.535 121.369C9.21424 119.509 11.313 111.015 14.8948 107.835C78.8195 106.496 123.031 101.139 194.666 87.8796C199.26 89.5202 199.369 96.465 197.892 99.3905C164.235 116.287 45.8181 128.806 16.535 121.369Z" fill="#391614"/>
<path d="M23.9188 76.5288L10.9038 90.0079L10.9306 112.893L25.367 111.143L23.9188 76.5288Z" fill="#FFCB7F" stroke="#391614" stroke-width="2.72663" stroke-linejoin="round"/>
<path d="M175.501 58.159L191.359 68.139L196.799 90.3679L182.363 92.1174L175.501 58.159Z" fill="#FFCB7F" stroke="#391614" stroke-width="2.72663" stroke-linejoin="round"/>
<path d="M100.408 33.9318L90.438 34.5673L90.1997 30.8288L93.9382 30.5905L93.6999 26.852L98.6849 26.5343L98.9232 30.2728L103.908 29.955L100.408 33.9318ZM101.947 18.818L98.2083 19.0563L98.4466 22.7958L93.4616 23.1135L93.2233 19.374L88.2383 19.6918L91.7385 15.715L101.709 15.0795L101.947 18.818Z" fill="#FFCB7F"/>
<defs>
<linearGradient id="paint0_linear_792_5430" x1="109.173" y1="265.001" x2="109.173" y2="271.891" gradientUnits="userSpaceOnUse">
<stop stop-color="#FF976A"/>
<stop offset="1" stop-color="#723920"/>
</linearGradient>
</defs>
</g>
</svg>
