<svg width="313" height="506" viewBox="0 0 313 506" fill="none" xmlns="http://www.w3.org/2000/svg">
<g transform="translate(48.5, 14)">
<path d="M137.5 196.497C135.1 190.897 132 189.497 131 188.997L125 222.497L136.5 266.997C143.333 265.497 157.2 262.197 158 260.997C159 259.497 160.5 253.997 160.5 251.997C160.5 249.997 157.5 242.497 155.5 239.997C153.5 237.497 145 222.997 143.5 219.997C142 216.997 140.5 203.497 137.5 196.497Z" fill="#FFE1F0"/>
<path d="M141.364 211.253C142.164 215.248 142.832 218.662 143.5 219.997C145 222.997 153.5 237.497 155.5 239.997C157.5 242.497 160.5 249.997 160.5 251.997C160.5 253.997 159 259.497 158 260.997C157.2 262.197 143.333 265.497 136.5 266.997L125.127 222.991C132.299 222.901 137.71 221.158 141.364 211.253Z" fill="#411F6B"/>
<g style="mix-blend-mode:multiply">
<path d="M132 199.997C131.5 205.83 130.8 217.897 132 219.497C133.2 221.097 137.167 216.163 139 213.497C137.167 217.663 133.6 226.297 134 227.497C134.5 228.997 135.667 235.497 137.5 240.997C138 242.497 138.5 243.497 139 245.497C139.151 246.101 140.894 249.754 141.5 253.497C141.866 255.759 140.935 257.736 141.5 259.997C142.131 262.519 152.222 261.074 158.599 259.788C158.516 259.991 158.431 260.178 158.351 260.349C156.802 261.137 154.97 262.029 153.038 262.911C148.382 264.264 141.512 265.884 137.084 266.865C136.756 266.497 136.417 265.981 136.07 265.335L125.318 223.731C125.224 223.221 125.132 222.724 125.045 222.243L125.204 221.352L132 199.997Z" fill="#CBDEEC"/>
</g>
<path d="M162.5 276.497C162.5 275.697 159.167 270.497 157.5 267.997L136 273.497V281.497C137.167 284.497 140 290.697 142 291.497C144.5 292.497 147 290.704 147 289.997C147 288.497 147 283.997 147.5 282.497C147.626 282.117 149.5 282.663 150.5 282.997C150.9 283.797 151.667 287.997 152 289.997C151 290.497 148 294.497 147.5 295.997C147 297.497 151 298.497 152 298.497C153 298.497 162.5 292.997 163.5 290.497C164.5 287.997 162.5 277.497 162.5 276.497Z" fill="#965FDF"/>
<g style="mix-blend-mode:multiply">
<path d="M158.624 269.711C153.601 273.525 142.758 277.62 140.5 277.997C139.667 281.497 140.5 287.997 142.5 291.497L141.15 290.897C139.265 289.079 137.009 284.091 136 281.497V278.896L137.5 274.997L158.361 269.306C158.447 269.439 158.535 269.573 158.624 269.711Z" fill="#CBDEEC"/>
</g>
<path d="M158.5 259.997C155.5 262.497 142.667 265.163 136.5 265.997V276.997C143.5 275.163 157.7 270.997 158.5 268.997C159.3 266.997 159.167 262.163 158.5 259.997Z" fill="#FFE1F0"/>
<g style="mix-blend-mode:multiply">
<path d="M143 264.997C141.891 267.531 139.82 273.107 139.961 276.057C138.882 276.359 137.867 276.634 136.958 276.875C136.795 276.747 136.64 276.62 136.5 276.497L136.959 265.93C138.502 265.711 140.401 265.392 142.432 264.997H143Z" fill="#CBDEEC"/>
</g>
<path d="M63.8788 259.76C63.8788 257.948 66.3788 256.26 67.3788 256.76L77.8788 248.26L71.3788 274.26C70.2121 274.427 66.6288 274.76 65.3788 274.26C62.4427 273.086 58.3788 265.76 58.3788 263.76C58.3788 262.529 59.3788 261.51 60.3788 261.26C62.8788 260.635 65.0455 263.76 66.3788 265.26V262.76C65.8788 261.76 63.8788 260.76 63.8788 259.76Z" fill="#965FDF"/>
<g style="mix-blend-mode:multiply">
<path d="M74.8788 260.26L70.1659 274.396C70.1099 274.401 70.0528 274.405 69.995 274.41C70.8099 268.54 71.4249 262.484 72.3788 256.76C71.8788 257.26 68.8788 258.26 68.3788 258.26C67.3788 258.26 67.3788 261.26 66.8788 262.76C66.7809 263.054 66.6116 263.559 66.3788 263.901V262.76C65.8788 261.76 63.8788 260.76 63.8788 259.76C63.8788 257.948 66.3788 256.26 67.3788 256.76L74.6591 250.865L77.6962 248.99L74.8788 260.26Z" fill="#CBDEEC"/>
</g>
<path d="M65.8788 255.26C65.4788 255.26 64.0455 254.26 63.3788 253.76C68.0455 247.76 77.5788 235.76 78.3788 235.76C79.3788 235.76 82.3788 240.26 82.3788 241.76C80.3788 249.26 69.8788 256.76 68.3788 257.26C66.8788 257.76 66.3788 255.26 65.8788 255.26Z" fill="#FFE1F0"/>
<g style="mix-blend-mode:multiply">
<path d="M78.3788 235.76C79.1481 235.76 81.0977 238.424 81.9579 240.336C80.1045 244.974 76.8788 250.924 76.8788 249.26C76.8788 247.198 76.3788 244.26 75.8788 244.26C75.3131 244.26 74.0455 245.093 72.8788 245.26L77.8544 236.137C78.1153 235.893 78.2948 235.76 78.3788 235.76Z" fill="#CBDEEC"/>
</g>
<path d="M76.8783 187.76C80.8783 186.16 86.8783 186.093 89.3783 186.26C97.545 185.593 114.878 184.36 118.878 184.76C122.878 185.16 129.545 188.093 132.378 189.76C133.178 198.96 128.712 216.76 126.378 224.26C147.878 274.76 132.878 297.26 131.878 313.76C159.078 390.56 154.378 449.927 148.378 469.26C111.578 486.06 99.7116 472.593 98.3783 463.76C99.3783 453.26 104.378 331.497 104.378 323.26C104.378 315.023 105.378 292.26 106.378 277.76H102.378C102.778 278.56 95.8783 324.26 95.8783 324.26C95.8783 324.26 76.0449 424.26 73.3783 463.76C57.8783 487.76 21.0524 465.76 19.8783 456.26C15.4783 420.66 50.3783 347.427 68.3783 315.26C64.3783 282.46 77.045 244.593 83.8783 229.76L80.8783 216.26C74.4783 221.86 72.8783 225.26 72.8783 226.26C74.0783 226.66 76.045 229.427 76.8783 230.76C79.6783 231.56 80.045 234.093 79.8783 235.26C70.8783 253.76 59.8783 255.76 57.8783 253.76C55.8783 251.76 56.3783 250.26 54.8783 247.26C48.8783 242.76 44.545 235.427 41.8783 230.76C40.6783 229.56 40.6882 223.226 41.3783 222.26C48.8783 211.76 61.3783 199.76 69.8783 192.26C73.2449 189.57 74.7273 188.62 76.8783 187.76Z" fill="#FFE1F0"/>
<path d="M133.992 246.027C143.52 281.666 132.722 299.846 131.878 313.76C159.078 390.56 154.378 449.927 148.378 469.26C111.578 486.06 99.7117 472.593 98.3784 463.76C99.3784 453.26 104.378 331.497 104.378 323.26C104.378 315.023 105.378 292.26 106.378 277.76H102.378C102.778 278.562 95.8797 324.251 95.8784 324.26C95.8784 324.26 76.0451 424.26 73.3784 463.76C57.8784 487.76 21.0526 465.76 19.8784 456.26C15.4784 420.66 50.3784 347.427 68.3784 315.26C65.735 293.584 70.3702 269.696 75.7905 251.704C95.8677 258.638 111.783 255.977 133.992 246.027Z" fill="#411F6B"/>
<path d="M64.043 197.56C64.5869 210.438 70.264 217.633 78.1201 218.819C73.9997 222.903 72.878 225.423 72.878 226.26C74.0779 226.66 76.0446 229.426 76.878 230.76C79.678 231.56 80.0446 234.093 79.878 235.26C70.878 253.76 59.8779 255.76 57.878 253.76C55.8782 251.76 56.3779 250.26 54.878 247.26C48.8781 242.76 44.5446 235.427 41.878 230.76C40.6782 229.56 40.688 223.226 41.378 222.26C47.2938 213.978 56.3223 204.764 64.043 197.56Z" fill="#411F6B"/>
<g style="mix-blend-mode:multiply">
<path d="M77.8786 197.76C78.2645 198.146 78.9496 210.104 80.7927 216.335C74.4641 221.89 72.8786 225.264 72.8786 226.26C74.0787 226.66 76.0454 229.427 76.8786 230.76C77.2422 230.864 77.5647 230.997 77.8503 231.152C76.914 231.867 75.7117 232.538 74.8786 232.26C73.3781 231.759 63.8784 220.76 57.3786 220.26C59.3786 219.927 64.0786 220.46 66.8786 221.26C70.0453 217.76 76.3786 210.46 76.3786 209.26C76.3786 208.06 77.8786 200.927 77.8786 197.76Z" fill="#CBDEEC"/>
</g>
<path d="M74.1253 257.523C74.2875 257.463 74.2264 257.908 73.8783 258.996C70.4556 269.698 68 293.997 73.8783 319.26C62.2209 339.498 30.7467 399.215 20.2494 438.821C25.1576 400.466 52.9641 342.806 68.3783 315.26C66.0109 295.847 69.4811 274.659 74.1253 257.523Z" fill="#965FDF"/>
<path d="M137.262 262.997C140.084 287.818 132.576 302.249 131.878 313.76C154.01 376.25 155.021 427.198 151.398 454.429C151.062 435.092 147.84 403.533 142.378 376.76C137.807 354.355 129.588 332.926 125.878 317.76C129.378 301.76 134.169 289.884 135.878 276.997C136.476 272.492 136.866 267.57 137.262 262.997Z" fill="#965FDF"/>
<g style="mix-blend-mode:multiply">
<path d="M89.3786 186.26C97.5454 185.593 114.879 184.36 118.879 184.76C119.905 184.863 121.106 185.133 122.374 185.505C94.845 209.561 82.8616 197.484 79.7898 186.904C83.3788 186.142 87.4358 186.13 89.3786 186.26Z" fill="#CBDEEC"/>
</g>
<g style="mix-blend-mode:multiply">
<path d="M89.3788 234.997C87.3788 234.997 86.8788 235.497 88.3788 236.997C92.7667 241.385 99.3788 243.497 102.879 243.497C106.379 243.497 113.879 236.997 117.879 232.497C117.379 233.997 113.879 239.497 111.379 242.997C114.179 242.997 122.879 231.497 122.879 225.997C116.379 230.497 90.8788 234.997 89.3788 234.997Z" fill="#CBDEEC"/>
</g>
<g style="mix-blend-mode:multiply">
<path d="M82.8786 265.76C83.2794 265.36 95.7121 271.76 101.879 275.26C103.212 275.093 106.078 275.259 106.879 275.26C107.679 275.26 119.212 269.26 124.879 266.26C125.379 267.259 123.879 271.259 123.379 272.26C122.979 273.06 114.212 275.26 109.879 276.26L114.379 277.76C113.179 278.159 109.379 277.593 107.379 277.26C107.221 277.522 106.872 277.716 106.372 277.857C106.374 277.825 106.376 277.792 106.379 277.76H102.379C102.4 277.803 102.405 277.934 102.398 278.146C96.3002 277.992 86.8786 276.26 86.8786 276.26C86.8786 276.26 92.8785 276.093 95.3786 275.76C91.0452 274.926 82.1786 272.959 81.3786 271.76C80.3792 270.259 82.3787 266.259 82.8786 265.76Z" fill="#CBDEEC"/>
</g>
<path d="M89.8788 187.76C89.565 187.289 89.0455 185.593 88.8788 184.76L119.379 181.26C120.179 182.06 119.379 186.26 118.379 188.26C103.879 193.26 90.8788 189.26 89.8788 187.76Z" fill="#EDD6E2"/>
<path d="M74.3286 256.997C73.3167 256.491 74.8285 250.497 76.3285 248.497C99.3285 259.497 123.829 251.163 133.829 244.997C135.702 247.179 135.929 250.629 135.329 253.497C115.828 266.497 84.3286 261.997 74.3286 256.997Z" fill="#120C1B"/>
<path d="M30.4651 467.538C40.4125 455.21 60.3226 446.528 74.0891 455.499C73.7887 458.471 73.5484 461.239 73.3782 463.76C62.944 479.916 42.846 475.226 30.4651 467.538Z" fill="#FFE1F0"/>
<path d="M98.9007 455.442C113.382 450.146 132.093 460.199 140.17 472.672C109.781 483.975 99.6069 471.9 98.3782 463.76C98.4994 462.488 98.6781 459.582 98.9007 455.442Z" fill="#FFE1F0"/>
<path d="M31 467.497C28.5 468.497 26.5 465.997 26.5 463.997C41 439.997 71.5 444.997 74.5 446.997C76.9 448.597 76.5 454.163 74.5 456.497C58.5 446.897 39 459.497 31 467.497Z" fill="#965FDF"/>
<path d="M139.676 473.853C141.998 475.217 144.35 473.045 144.651 471.068C133.916 445.164 103.011 445.53 99.745 447.057C97.132 448.279 96.6922 453.843 98.3194 456.45C115.579 449.36 132.967 464.743 139.676 473.853Z" fill="#965FDF"/>
<path d="M110.5 229.497L119 228.497C117.847 231.091 118.721 234.178 121.124 235.69C124.769 237.985 127.992 239.531 132.5 239.497L134 244.497C134 244.497 127.882 244.253 123.5 242.997C122.263 242.642 120.79 242.1 119.307 241.501C114.357 239.504 111.124 234.798 110.5 229.497Z" fill="#010000"/>
<path d="M99 229.497L90 228.997C89.3581 232.206 87.5038 235.044 84.8227 236.921L79 240.997L76.5 247.497L88.5581 242.203C93.8645 239.873 97.7428 235.154 99 229.497Z" fill="#010000"/>
<path d="M86.5 185.997L83.2851 185.635C81.4539 185.429 79.6607 186.262 78.6365 187.794L81.9162 194.375C83.3225 197.197 84.4587 200.146 85.3096 203.182L87.5 210.997L91.0916 206.948L94.4193 207.368C93.5054 202.767 91.9547 198.316 89.812 194.142L88.3391 191.274L86.5 185.997Z" fill="#411F6B"/>
<path d="M123.584 185.077C125.628 185.234 127.526 186.195 128.861 187.751L129.724 188.758L127.785 192.083C125.188 196.537 123.295 201.366 122.174 206.398L121.482 209.508L116.881 207.198L113.557 207.649C114.429 203.04 115.939 198.574 118.044 194.382L119.49 191.5L123.584 185.077Z" fill="#411F6B"/>
<path d="M87.1955 205.514C101.282 202.609 108.224 202.216 122.311 205.209C126.155 217.256 126.591 223.76 122.311 234.635C108.774 238.835 101.908 239.716 87.1955 234.941C84.003 223.448 84.4218 217.007 87.1955 205.514Z" fill="#411F6B"/>
<path d="M3.33573 119.827C7.16698 114.383 15.2861 109.318 18.8667 107.466L47.9113 166.734C40.2086 171.416 28.4597 177.116 22.5984 173.681C6.96818 164.518 -1.45334 126.633 3.33573 119.827Z" fill="#341B63"/>
<path d="M198.844 94.549C193.804 90.2001 184.696 87.2626 180.773 86.3375L167.018 150.89C175.628 153.558 188.411 156.229 193.26 151.471C206.192 138.781 205.145 99.9851 198.844 94.549Z" fill="#341B63"/>
<path d="M186.879 98.2593C189.03 119.593 184.793 147.259 172.379 159.259C157.379 173.759 133.478 180.72 106.379 184.259C79.2795 187.799 50.7659 184.759 32.8788 162.259C17.6414 143.092 14.8788 117.588 14.8788 98.2593C14.8788 51.8674 53.3788 20.7929 92.3788 17.7596C131.379 14.7263 180.173 31.7597 186.879 98.2593Z" fill="#FFE1F0"/>
<path d="M172.379 119.76C172.379 137.68 167.379 156.809 155.379 165.76C143.379 174.71 125.879 179.812 107.379 181.76C99.3788 182.602 70.0508 183.85 53.8788 171.76C37.1559 159.258 32.3788 142.68 32.3788 124.76C32.3788 106.839 38.1292 93.7539 52.8692 82.7597C61.3692 76.4198 81.4916 73.8851 99.3788 72.2598C121.388 70.2599 139.925 68.3355 149.879 75.7598C164.619 86.7539 172.379 101.839 172.379 119.76Z" fill="#EAAAFF"/>
<path d="M99.3789 72.2601C121.389 70.2602 139.925 68.3359 149.879 75.7601C163.831 86.1668 171.528 100.239 172.311 116.911C159.311 113.331 134.523 101.371 112 83.9965L63.5 86.4965C62.2998 92.7971 50.1343 108.899 32.5478 119.638C33.5905 104.3 39.5707 92.6781 52.8691 82.7592C61.3692 76.4193 81.4917 73.8854 99.3789 72.2601Z" fill="#965FDF"/>
<path d="M99.3788 72.2595C111.22 71.1836 122.057 70.1308 131.092 70.5427C137.082 78.9473 139.69 93.0455 137.589 101.123C129.236 96.2823 120.458 90.5208 112 83.9958L63.4999 86.4958C63.1189 88.4959 61.6313 91.483 59.2177 94.9734C54.5449 93.2111 50.0718 90.3512 47.3017 87.4099C48.9939 85.8156 50.8467 84.267 52.869 82.7585C61.3693 76.4188 81.4918 73.8848 99.3788 72.2595Z" fill="#7A43C3"/>
<path d="M128.879 70.4713C135.601 87.7674 138.353 101.59 137 125.006C130.074 122.482 116.522 119.06 107 110.497C98.5987 114.646 60.1473 97.1476 49.3701 85.5533C50.4753 84.6066 51.6409 83.6755 52.8691 82.7594C61.3692 76.4195 81.4917 73.8847 99.3789 72.2594C110.269 71.2699 120.308 70.3007 128.879 70.4713Z" fill="#965FDF"/>
<path d="M119.934 118.693C115.434 116.624 110.882 113.987 107 110.496C106.095 110.943 104.843 111.137 103.313 111.116L87.9999 89.4962L119.934 118.693Z" fill="#7A43C3"/>
<path d="M77 109.029C77 111.029 70.9705 111.029 66 111.029C63 111.029 56 110.529 56 107.029C56 105.029 62 99.5288 67 100.029C70 100.329 77 107.029 77 109.029Z" fill="#7848B7"/>
<path d="M123.338 104.156C123.855 106.088 129.679 104.527 134.48 103.241C137.378 102.464 144.01 100.17 143.104 96.789C142.587 94.8572 135.368 91.0976 130.667 92.8746C127.847 93.9407 122.82 102.224 123.338 104.156Z" fill="#7848B7"/>
<path d="M107.879 153.26C107.879 154.26 106.76 154.26 105.379 154.26C103.998 154.26 103.379 154.089 103.379 153.26C103.379 152.431 103.879 151.26 105.379 151.26C107.174 151.26 107.879 151.947 107.879 153.26Z" fill="#120C1B"/>
<path d="M41.8788 137.26C42.8788 138.76 44.3788 142.926 44.8788 145.26C39.6788 142.06 36.1666 136.175 34.5 133.675C44.8788 127.497 62.413 122.997 72.5 122.997C78.9542 122.997 88.6949 127.693 92.911 131.186C92.9447 131.21 92.9744 131.234 93 131.26C92.9706 131.235 92.941 131.211 92.911 131.186C91.892 130.462 87.2747 130.481 85.5 129.997C87 132.497 87.3788 140.426 86.8788 144.76C86.8788 144.76 88.3788 144.76 89.8788 144.26C83.3788 149.26 73.3788 152.76 64.3788 155.26C62.1133 155.889 60.2137 156.037 57.8788 155.76C54.4925 155.358 50.3788 153.76 49.3788 152.26C52.3788 153.26 57.8788 153.26 59.8788 152.76C54.3788 147.76 50.5 138.175 50.5 133.675C47.5 135.175 44.3788 135.26 41.8788 137.26Z" fill="#120C1B"/>
<path d="M81.366 137.559C71.9429 136.045 60.4258 140.588 59.3788 144.121C59.3788 147.149 60.9493 150.345 63.5668 151.186C65.6609 151.859 77.4593 147.787 82.6943 145.264C83.9508 142.437 83.46 139.578 81.366 137.559Z" fill="#1F1F1F"/>
<path d="M164.879 121.76C164.879 125.26 164.379 127.76 164.046 130.385C168.296 126.002 171.717 118.63 172.716 115.796C157.879 110.997 139.072 113.238 130.379 115.796C124.039 117.662 119.727 124.493 116.558 128.916C116.534 128.945 116.515 128.972 116.5 128.997C116.519 128.97 116.539 128.943 116.558 128.916C117.468 127.808 124.83 123.726 126.441 122.814C125.879 130.76 128.825 136.684 130.379 140.76C130.379 140.76 122.956 140.874 121.379 140.76C128.911 144.002 144.038 143.26 153.379 143.26C155.879 143.26 158.879 141.26 161.379 138.26C160.879 138.26 158.379 139.26 157.879 139.26C161.976 133.058 162.879 125.76 162.879 120.76C163.879 121.26 164.046 121.26 164.879 121.76Z" fill="#120C1B"/>
<path d="M157.379 132.824C157.379 139.76 150.41 140.76 144.379 140.76C140.379 140.76 131.379 142.26 131.379 133.824C131.379 130.324 137.699 128.324 144.879 128.324C153.879 127.824 157.379 130.339 157.379 132.824Z" fill="#1F1F1F"/>
<path d="M103.057 171.84C101.908 170.914 101.873 170.401 102.896 169.345C107.387 169.055 114.856 171.153 114.566 171.597C113.198 173.69 106.952 170.085 103.057 171.84Z" fill="#120C1B"/>
<path d="M15.3499 67.6426C13.3437 71.5532 15.2073 75.3275 16.3899 76.7258L185 100.496C193.65 95.6717 195.915 90.8168 195.293 85.3822C193.299 67.9727 167.315 21.8689 161.756 20.2047C158.051 19.0953 148.469 20.5464 142.5 21.9967C136.531 23.447 109.482 12.3866 84.1561 12.219C58.8305 12.0513 41.7041 23.2146 33.8978 28.7096C26.0915 34.2046 17.8576 62.7543 15.3499 67.6426Z" fill="#411F6B"/>
<g style="mix-blend-mode:multiply">
<path d="M34.9997 53.9962C89.476 40.8574 158.5 65.9969 189 92.4971C190.087 93.4416 191.012 94.5118 191.711 95.5769C190.321 97.0163 188.484 98.4358 186.111 99.852C131.955 78.8593 81.5128 77.2037 47.3104 81.0842L16.3903 76.7256C15.2077 75.3273 13.344 71.553 15.3502 67.6424C15.6335 67.0901 15.9876 66.2351 16.4081 65.1464C22.0443 59.5074 28.9553 55.4541 34.9997 53.9962Z" fill="#CBDEEC"/>
</g>
<path d="M13.1483 88.6003C10.7261 88.8776 10.0474 83.8429 10.0108 81.2909C15.6965 70.6705 27.6197 62.797 36.7809 60.5874C91.2573 47.4486 155.383 73.401 191.224 98.4373C195.494 101.419 189.734 105.511 188.133 104.927C191.924 111.242 190.29 112.604 189 112.497C109.872 80.4531 40.009 86.5472 13.9284 95.4127C8.28316 92.9916 16.1761 88.2536 13.1483 88.6003Z" fill="#411F6B"/>
<g style="mix-blend-mode:multiply">
<path d="M118.983 17.3286C130.429 20.0757 139.367 22.7579 142.5 21.9972C143.338 21.7934 144.249 21.5904 145.203 21.3937C150.401 26.1501 157.323 33.1596 157.677 34.1169C154.178 31.572 123.325 19.7627 118.359 17.8659C118.44 17.6653 118.656 17.4877 118.983 17.3286Z" fill="#CBDEEC"/>
</g>
<g style="mix-blend-mode:multiply">
<path d="M43.5 76.9967C37.6132 77.2707 19.3815 85.8755 12.3174 91.3873C13.1929 89.7445 14.8052 88.4106 13.1484 88.6002C11.5499 88.7832 10.7138 86.6524 10.3174 84.4489C17.3082 82.2494 33.5427 76.9967 43.5 76.9967Z" fill="#CBDEEC"/>
</g>
<g style="mix-blend-mode:multiply">
<path d="M120.5 76.9967C136.816 78.9391 175.832 94.8738 191.654 103.271C190.538 104.451 188.881 105.2 188.133 104.927C188.963 106.31 189.532 107.455 189.902 108.399C186.583 105.192 141.268 82.5752 120.5 76.9967Z" fill="#CBDEEC"/>
</g>
<path d="M107.25 227.747H99.917V224.997H102.667V222.247H106.333V224.997H110L107.25 227.747ZM109.083 216.747H106.333V219.497H102.667V216.747H99L101.75 213.997H109.083V216.747Z" fill="#EAAAFF"/>
</g>
</svg>
