<svg width="216" height="463" viewBox="0 0 216 463" fill="none" xmlns="http://www.w3.org/2000/svg">
<path d="M125.877 208.761L132.377 174.761C134.377 175.761 141.377 196.261 141.377 197.761C141.377 199.261 141.877 200.261 142.377 200.261C142.777 200.261 144.211 198.928 144.877 198.261C147.877 197.261 168.377 199.261 169.877 199.261C171.377 199.261 171.377 203.761 171.377 204.261C170.377 208.761 165.877 205.761 160.377 216.761C155.977 225.561 146.211 230.428 141.877 231.761C130.877 230.261 128.377 214.261 125.877 208.761Z" fill="#F2FBFF"/>
<path d="M131.877 185.261C131.377 192.261 128.377 204.761 127.877 206.761C127.378 208.762 136.378 225.762 141.377 226.761C146.377 227.761 156.877 214.261 158.877 211.261C160.877 208.262 160.377 209.261 162.877 207.761C164.877 206.562 164.377 204.262 163.877 203.261L168.943 199.208C169.41 199.241 169.732 199.261 169.877 199.261C171.377 199.262 171.376 203.761 171.376 204.261C170.376 208.761 165.877 205.762 160.377 216.761C155.978 225.561 146.211 230.428 141.877 231.761C130.878 230.262 128.377 214.261 125.877 208.761L129.017 192.335L131.877 185.261Z" fill="#2453C1"/>
<g style="mix-blend-mode:multiply">
<path d="M136.877 201.761C137.677 201.361 140.544 200.261 141.877 199.761H142.877C142.877 199.761 141.877 202.261 141.377 202.761C140.877 203.261 134.377 209.761 132.377 214.261C131.877 212.761 137.877 203.761 138.377 203.261C138.66 202.978 134.044 205.761 131.877 207.261C133.211 205.595 136.077 202.161 136.877 201.761Z" fill="#CBDEEC"/>
</g>
<g style="mix-blend-mode:multiply">
<path d="M129.377 207.261C130.377 212.261 136.877 226.261 141.877 231.761C140.377 231.761 134.377 228.761 132.877 227.261C131.377 225.761 125.377 209.261 125.377 208.261C125.377 207.261 127.93 200.603 128.377 199.261C128.877 197.761 131.211 188.428 131.877 183.761C132.377 186.761 132.377 193.061 132.377 194.261C132.377 195.461 130.377 203.428 129.377 207.261Z" fill="#CBDEEC"/>
</g>
<path d="M142.377 188.761C143.977 191.561 145.71 191.261 146.377 190.761C145.977 191.561 148.21 195.094 149.377 196.761C159.377 199.561 167.21 195.928 169.877 193.761C170.877 188.094 172.677 176.361 171.877 174.761C170.877 172.761 163.877 169.261 161.877 168.761C160.825 168.498 158.998 169.665 158.498 170.498C156.498 168.998 152.377 170.998 152.377 171.761C150.377 170.961 147.498 172.998 147.377 173.761C146.177 172.961 144.544 174.428 143.877 175.261C142.711 178.594 140.777 185.961 142.377 188.761Z" fill="#FF9F56"/>
<g style="mix-blend-mode:multiply">
<path d="M145.877 180.761C145.71 183.594 146.277 190.161 149.877 193.761C153.515 194.588 163.024 194.953 170.205 191.833C170.089 192.528 169.98 193.177 169.877 193.761C167.21 195.928 159.377 199.561 149.377 196.761C148.21 195.094 145.977 191.561 146.377 190.761C145.71 191.261 143.977 191.561 142.377 188.761C141.695 187.567 141.655 185.542 141.925 183.354C142.279 184.044 142.995 185.261 143.377 185.261C143.877 185.261 145.377 181.261 145.877 180.761Z" fill="#CBDEEC"/>
</g>
<path d="M148.377 201.261C147.577 201.261 147.377 197.261 147.377 195.261C147.777 194.861 148.21 195.094 148.377 195.261C157.977 200.061 167.21 194.761 170.377 191.761C170.71 191.928 171.127 192.761 171.377 193.261C171.627 193.761 171.377 196.261 170.377 199.261C170.036 200.283 169.055 201.261 168.377 201.761C159.784 208.093 151.583 204.467 148.377 201.261Z" fill="#FF9F56"/>
<path d="M63.8782 244.761C63.8782 242.949 66.3782 241.261 67.3782 241.761L77.8781 233.261L71.3782 259.261C70.2115 259.427 66.6282 259.761 65.3782 259.261C62.4422 258.086 58.3783 250.761 58.3783 248.761C58.3783 247.53 59.3783 246.511 60.3783 246.261C62.8782 245.636 65.0449 248.761 66.3782 250.261V247.761C65.8782 246.761 63.8782 245.761 63.8782 244.761Z" fill="#FF9F56"/>
<g style="mix-blend-mode:multiply">
<path d="M74.8772 245.26L70.1653 259.396C70.1092 259.401 70.0522 259.406 69.9944 259.411C70.8092 253.541 71.4243 247.485 72.3782 241.761C71.8777 242.261 68.8783 243.261 68.3782 243.261C67.3783 243.261 67.378 246.26 66.8782 247.76C66.7802 248.054 66.6111 248.56 66.3782 248.902V247.76C65.878 246.761 63.8788 245.761 63.8782 244.761C63.8782 242.949 66.3782 241.261 67.3782 241.761L74.6584 235.867L77.6956 233.992L74.8772 245.26Z" fill="#CBDEEC"/>
</g>
<path d="M65.878 240.261C65.478 240.261 64.0447 239.261 63.3781 238.761C68.0447 232.761 77.5779 220.761 78.3779 220.761C79.3779 220.761 82.3779 225.261 82.3779 226.761C80.3779 234.261 69.878 241.761 68.378 242.261C66.878 242.761 66.378 240.261 65.878 240.261Z" fill="#FF9F56"/>
<g style="mix-blend-mode:multiply">
<path d="M78.3782 220.761C79.1475 220.761 81.0971 223.425 81.9573 225.337C80.1039 229.975 76.8784 235.924 76.8782 234.261C76.8782 232.2 76.3782 229.261 75.8782 229.261C75.3125 229.261 74.0448 230.094 72.8782 230.261L77.8538 221.138C78.1146 220.894 78.2942 220.761 78.3782 220.761Z" fill="#CBDEEC"/>
</g>
<path d="M76.8776 172.761C80.8775 171.161 86.8774 171.095 89.3774 171.261C97.544 170.595 114.877 169.361 118.877 169.761C122.877 170.161 129.544 173.095 132.377 174.761C133.177 183.961 128.71 201.761 126.377 209.261C147.877 259.76 132.877 282.26 131.877 298.76C159.077 375.559 154.377 434.925 148.377 454.258C111.577 471.058 99.7106 457.592 98.3773 448.758C99.3773 438.259 106.377 313.76 104.377 308.26C103.797 306.665 105.377 277.26 106.377 262.76H102.377C102.777 263.56 98.2106 294.093 95.8773 309.26C84.2774 326.06 76.0442 409.259 73.3775 448.758C57.8777 472.758 21.0523 450.758 19.8781 441.258C15.4782 405.659 50.3778 332.426 68.3776 300.26C64.3777 267.46 77.0442 229.594 83.8775 214.761L80.8775 201.261C74.4776 206.861 72.8776 210.261 72.8776 211.261C74.0776 211.661 76.0442 214.428 76.8775 215.761C79.6775 216.561 80.0442 219.094 79.8775 220.261C70.8776 238.761 59.8777 240.761 57.8777 238.761C55.8778 236.761 56.3777 235.261 54.8777 232.261C48.8778 227.761 44.5446 220.427 41.8779 215.761C40.6779 214.561 40.6878 208.227 41.3779 207.261C48.8778 196.761 61.3777 184.761 69.8776 177.261C73.2442 174.571 74.7266 173.622 76.8776 172.761Z" fill="#F2FBFF"/>
<path d="M80.8776 201.261C74.4777 206.861 72.8776 210.261 72.8776 211.261C74.0776 211.661 76.0442 214.428 76.8776 215.761C79.6775 216.561 80.0442 219.094 79.8776 220.261C79.1107 221.837 78.3234 223.289 77.528 224.627C77.6621 223.576 77.7424 222.491 77.3776 221.761C76.9955 220.997 75.8775 221.261 74.8776 220.261C74.3776 219.761 67.378 211.262 66.8776 210.261C66.3776 209.261 78.8776 198.261 79.8776 193.761L80.8776 201.261Z" fill="#2453C1"/>
<g style="mix-blend-mode:multiply">
<path d="M77.8781 182.761C78.2781 183.162 80.8781 195.761 82.8781 201.761L81.3488 203.385L80.8771 201.261C74.4785 206.86 72.8776 210.26 72.8771 211.26C74.0769 211.66 76.0436 214.427 76.8771 215.76C77.2403 215.864 77.5623 215.998 77.8478 216.154C76.9117 216.868 75.7107 217.539 74.8781 217.261C73.3781 216.761 63.878 205.761 57.3781 205.261C59.378 204.928 64.0781 205.461 66.8781 206.261C70.0446 202.761 76.3776 195.462 76.3781 194.261C76.3781 193.061 77.8781 185.928 77.8781 182.761Z" fill="#CBDEEC"/>
</g>
<path d="M19.6133 430.636C32.2401 422.492 53.1915 414.288 61.3779 417.869C64.2528 419.126 68.9619 422.924 73.75 443.48C73.6206 445.255 73.4993 446.964 73.3887 448.598C70.7174 440.108 63.6838 424.998 60.8779 422.368C55.8602 417.666 33.8843 426.977 19.5098 433.519C19.5255 432.575 19.5594 431.614 19.6133 430.636Z" fill="#FF9F56"/>
<path d="M112.315 424.83C120.94 422.893 139.638 434.66 150.54 444.979C150.363 445.977 150.18 446.93 149.992 447.84C137.117 438.696 117.704 425.723 111.951 429.343C109.487 430.893 103.283 439.004 98.5757 446.249C98.6919 444.656 98.8386 442.51 99.0054 439.906C105.481 427.537 109.72 425.413 112.315 424.83Z" fill="#FF9F56"/>
<path d="M78.8777 186.761C82.211 195.261 87.8777 210.761 87.3777 213.761C86.5444 218.761 85.2332 222.703 83.8777 226.261C79.8777 236.761 69.8777 260.261 73.8777 304.26C62.2203 324.499 30.7467 384.216 20.2498 423.821C25.1575 385.467 52.9635 327.806 68.3777 300.26C64.3777 267.461 77.0444 229.594 83.8777 214.76L80.8777 201.261C80.8038 201.326 80.7306 201.391 80.658 201.455L78.8777 186.761Z" fill="#2453C1"/>
<path d="M131.925 184.461C130.767 193.409 128.034 203.934 126.377 209.262C147.876 259.761 132.877 282.261 131.877 298.761C154.009 361.25 155.02 412.198 151.396 439.429C151.061 420.091 147.839 388.533 142.377 361.76C137.806 339.355 129.587 317.927 125.877 302.761C129.377 286.761 133.877 277.261 133.877 259.261C133.536 230.583 123.38 209.791 123.377 208.762C123.377 207.626 129.058 192.055 131.925 184.461Z" fill="#2453C1"/>
<path d="M19.576 431.354C21.8299 438.965 29.6843 452.161 45.3788 455.758C58.6049 458.789 67.6066 453.768 73.3993 448.443C73.3922 448.548 73.3849 448.653 73.3778 448.758C57.8782 472.757 21.053 450.759 19.8778 441.259C19.5017 438.216 19.413 434.897 19.576 431.354Z" fill="#2453C1"/>
<path d="M98.4695 447.665C101.583 453.376 106.986 458.633 118.378 458.758C131.412 458.901 143.14 453.478 149.898 448.28C149.414 450.569 148.902 452.567 148.377 454.258C111.577 471.058 99.7111 457.592 98.3777 448.758C98.4047 448.475 98.4341 448.109 98.4695 447.665Z" fill="#2453C1"/>
<path d="M76.4528 297.29C76.7091 296.321 77.3605 295.51 78.2542 295.057C84.194 292.046 89.64 291.651 95.1301 292.993C96.8157 293.405 97.8905 294.995 98.0124 296.726C98.0784 297.663 98.19 298.727 98.3778 299.76C98.9746 303.042 98.1468 307.215 97.3822 310.046C96.8098 312.166 95.434 313.973 93.4658 314.946C91.4272 315.954 88.5638 317.039 85.6891 317.039C84.2381 317.039 81.3316 316.25 79.3703 315.663C78.1171 315.288 77.1567 314.292 76.8341 313.025C76.2329 310.662 75.3522 306.727 75.3786 304.039C75.4019 301.669 76.0168 298.938 76.4528 297.29Z" fill="#FF9F56"/>
<path d="M103.878 311.26C100.378 297.26 103.125 291.857 108.013 290.635C112.013 289.635 119.378 291.76 122.878 294.76C126.523 297.885 124.878 308.76 124.378 309.76C124.02 310.475 122.179 312.302 121.012 313.135C113.812 316.735 106.878 314.76 103.878 311.26Z" fill="#FF9F56"/>
<path d="M104.378 177.261C105.378 178.761 104.878 201.261 105.878 204.261" stroke="#B1CCDE" stroke-width="1.99849" stroke-linecap="round"/>
<path d="M105.378 208.261C103.964 227.987 103.661 238.287 103.378 256.261" stroke="#B1CCDE" stroke-width="1.99849" stroke-linecap="round"/>
<g style="mix-blend-mode:multiply">
<path d="M89.3772 171.262C97.5438 170.595 114.877 169.362 118.877 169.762C119.904 169.864 121.105 170.135 122.373 170.507C94.8444 194.563 82.8612 182.485 79.7893 171.906C83.3781 171.144 87.4343 171.132 89.3772 171.262Z" fill="#CBDEEC"/>
</g>
<g style="mix-blend-mode:multiply">
<path d="M89.3779 216.761C87.3779 216.761 86.8779 217.261 88.3779 218.761C92.7658 223.149 99.3778 225.261 102.878 225.261C106.378 225.261 113.878 218.761 117.878 214.261C117.378 215.761 113.878 221.261 111.378 224.761C114.178 224.761 122.878 213.261 122.878 207.761C116.378 212.261 90.8779 216.761 89.3779 216.761Z" fill="#CBDEEC"/>
</g>
<g style="mix-blend-mode:multiply">
<path d="M82.8782 250.761C83.2782 250.361 95.7116 256.761 101.878 260.261C103.212 260.094 106.078 260.261 106.878 260.261C107.681 260.259 119.211 254.261 124.877 251.261C125.377 252.261 123.877 256.261 123.377 257.261C122.974 258.061 114.211 260.261 109.878 261.261L114.378 262.761C113.178 263.161 109.378 262.594 107.378 262.261C107.221 262.523 106.87 262.718 106.37 262.859C106.373 262.826 106.375 262.793 106.377 262.76H102.377C102.399 262.803 102.403 262.935 102.397 263.147C96.3165 262.993 86.9325 261.271 86.8782 261.261C86.914 261.26 92.8857 261.093 95.3782 260.761C91.0452 259.928 82.1794 257.961 81.3782 256.761C80.3783 255.261 82.378 251.261 82.8782 250.761Z" fill="#CBDEEC"/>
</g>
<path d="M89.8778 172.761C89.564 172.291 89.0445 170.595 88.8778 169.761L119.377 166.261C120.177 167.061 119.377 171.261 118.377 173.261C103.878 178.261 90.8778 174.261 89.8778 172.761Z" fill="#CB8A4F"/>
<path d="M3.33575 104.829C7.16697 99.3847 15.286 94.3202 18.8666 92.4684L47.9109 151.736C40.2082 156.417 28.4594 162.118 22.5982 158.682C6.96817 149.52 -1.45327 111.634 3.33575 104.829Z" fill="#FF9F56"/>
<path d="M198.842 79.5514C193.802 75.2026 184.694 72.2652 180.771 71.3401L167.016 135.892C175.626 138.559 188.409 141.231 193.258 136.472C206.19 123.783 205.143 84.9875 198.842 79.5514Z" fill="#FF9F56"/>
<path d="M186.877 83.2617C189.028 104.595 184.791 132.261 172.377 144.261C157.377 158.761 133.477 165.721 106.378 169.261C79.2788 172.801 50.7655 169.761 32.8786 147.261C17.6413 128.094 14.8788 102.59 14.8788 83.2617C14.8788 36.8703 53.3784 5.79618 92.378 2.76292C131.378 -0.270329 180.171 16.7629 186.877 83.2617Z" fill="#F2FBFF"/>
<path d="M54.8782 67.2624C49.8782 54.7625 58.8187 12.3501 64.3785 8.76303C79.8779 -1.23686 104.378 -1.84151 113.878 2.76309C123.378 7.36768 134.877 33.7627 138.877 57.7625C122.877 57.7625 83.8774 56.7625 54.8782 67.2624Z" fill="#FF9F56"/>
<path d="M172.377 104.762C172.377 122.682 167.377 141.811 155.377 150.761C143.377 159.712 125.878 164.814 107.378 166.761C99.3779 167.603 70.0501 168.851 53.8783 156.761C37.1556 144.26 32.3785 127.682 32.3785 109.762C32.3785 91.8416 38.1289 78.7562 52.8687 67.7622C61.3686 61.4223 81.4908 58.8877 99.3779 57.2624C121.387 55.2625 139.924 53.3381 149.877 60.7623C164.617 71.7563 172.377 86.8416 172.377 104.762Z" fill="#55C6FF"/>
<path d="M99.3776 57.2622C121.387 55.2623 139.924 53.338 149.878 60.7622C163.881 71.207 171.583 85.3445 172.318 102.097C161.124 102.79 140.865 102.129 129.878 90.2622C125.877 107.262 99.8773 128.461 87.8776 127.261C89.3775 122.261 92.8776 106.761 92.8776 99.2612C87.0442 105.581 61.8331 111.899 32.8678 119.137C32.5286 116.064 32.3785 112.934 32.3785 109.761C32.3786 91.8413 38.1291 78.7562 52.8688 67.7622C61.3686 61.4224 81.4906 58.8875 99.3776 57.2622Z" fill="#3364D6"/>
<path fill-rule="evenodd" clip-rule="evenodd" d="M127.266 78L136.132 94.1866L137.733 96.2747C137.427 96.1081 137.124 95.9371 136.824 95.7616C134.272 94.2707 131.921 92.4586 129.888 90.2628C129.207 93.1574 127.888 96.1737 126.109 99.1805C125.862 99.5989 125.605 100.017 125.34 100.435L127.266 94.1866V78Z" fill="#24448D"/>
<path fill-rule="evenodd" clip-rule="evenodd" d="M99.5092 80.5L95.3509 87.7077C93.133 91.5521 90.4131 95.0841 87.2629 98.2106L79 106.411C85.8003 103.996 90.7033 101.63 92.8881 99.2628C92.8881 102.766 92.1244 108.015 91.1576 113.124L95.691 101.64C97.5589 96.9076 98.6937 91.9182 99.0561 86.8437L99.5092 80.5Z" fill="#24448D"/>
<path d="M75.0264 88.7623C75.0264 91.7999 70.8486 92.2622 65.8781 92.2622C62.8781 92.2622 57.3782 91.2622 57.3782 86.7623C57.3782 83.7247 61.5265 81.2623 66.5265 81.7623C71.8849 82.2983 75.0264 85.2623 75.0264 88.7623Z" fill="#312B4B"/>
<path d="M124.12 82.4618C124.869 85.4055 129.032 84.8231 133.849 83.5972C136.756 82.8573 141.84 80.5317 140.73 76.1708C139.98 73.2271 135.353 71.8638 130.631 73.5816C125.57 75.4226 123.257 79.0699 124.12 82.4618Z" fill="#312B4B"/>
<path d="M86.6049 154.568C87.001 154.044 87.7602 153.476 88.0903 153.258C95.2202 159.02 118.495 154.851 120.769 153.258C121.704 152.603 121.704 153.913 121.264 154.568C120.334 155.952 113.74 157.377 106.85 157.842C98.9212 158.377 90.6007 157.842 90.0708 157.842C89.0806 157.842 86.1098 155.222 86.6049 154.568Z" fill="#312B4B"/>
<path d="M107.878 138.262C107.878 139.262 106.758 139.262 105.378 139.262C103.997 139.262 103.378 139.09 103.378 138.262C103.378 137.433 103.878 136.262 105.378 136.262C107.172 136.262 107.878 136.948 107.878 138.262Z" fill="#312B4B"/>
<path d="M41.8783 122.262C42.8783 123.762 44.3783 127.929 44.8783 130.262C39.6783 127.062 34.5451 120.762 32.8784 118.262C43.8783 108.762 61.3781 103.762 70.878 105.762C78.3678 107.339 88.415 114.549 92.6928 118.107C92.7656 118.16 92.8277 118.212 92.8778 118.262C92.8174 118.211 92.7557 118.16 92.6928 118.107C91.6017 117.314 88.0964 116.231 86.3779 115.762C87.8778 118.262 87.3778 125.429 86.8779 129.762C86.8779 129.762 88.3778 129.762 89.8778 129.262C83.3779 134.262 73.378 137.762 64.3781 140.262C62.1126 140.891 60.213 141.039 57.8782 140.762C54.4919 140.36 50.3782 138.762 49.3782 137.262C52.3782 138.262 57.8782 138.262 59.8781 137.762C54.3782 132.762 50.3782 120.762 50.3782 116.262C47.3783 117.762 44.3783 120.262 41.8783 122.262Z" fill="#312B4B"/>
<path d="M71.378 113.262C71.5942 114.238 70.7261 114.963 69.378 115.262C68.03 115.56 66.8103 115.187 66.378 114.262C65.9458 113.336 66.9135 112.086 68.378 111.762C70.1302 111.374 71.0459 111.762 71.378 113.262Z" fill="#F7F6FF"/>
<path d="M81.3651 122.561C71.9421 121.047 60.4252 125.589 59.3782 129.122C59.3782 132.15 60.9487 135.347 63.5662 136.188C65.6602 136.861 77.4585 132.789 82.6935 130.265C83.9499 127.439 83.4591 124.58 81.3651 122.561Z" fill="#473F6E"/>
<path d="M164.877 106.762C164.877 110.262 164.377 112.762 164.044 115.388C168.294 111.004 171.715 103.633 172.714 100.799C159.711 94.3055 141.518 93.7763 132.805 98.0576C125.872 101.464 117.831 111.073 114.62 115.525C114.598 115.552 114.581 115.576 114.568 115.597C114.585 115.574 114.603 115.549 114.62 115.525C115.573 114.365 124.823 108.732 126.439 107.816C125.877 115.762 128.824 121.686 130.377 125.762C130.377 125.762 122.954 125.877 121.377 125.762C128.91 129.004 144.036 128.262 153.377 128.262C155.877 128.262 158.877 126.262 161.377 123.262C160.877 123.262 158.377 124.262 157.877 124.262C161.974 118.06 162.877 110.762 162.877 105.762C163.877 106.262 164.044 106.262 164.877 106.762Z" fill="#312B4B"/>
<path d="M143.877 103.262C143.795 104.259 144.501 105.149 145.877 105.262C147.253 105.375 148.574 104.737 148.877 103.762C149.18 102.787 148.377 101.649 146.271 101.476C145.529 101.415 144.003 101.731 143.877 103.262Z" fill="#F7F6FF"/>
<path d="M157.377 117.826C157.377 124.762 150.408 125.762 144.377 125.762C140.377 125.762 131.377 127.262 131.377 118.826C131.377 115.326 137.698 113.326 144.877 113.326C153.877 112.826 157.377 115.341 157.377 117.826Z" fill="#473F6E"/>
<path d="M95.2491 198.748H87.9161V195.998H90.6661V193.248H94.3322V195.998H97.9991L95.2491 198.748ZM97.0822 187.748H94.3322V190.498H90.6661V187.748H86.9991L89.7491 184.998H97.0822V187.748Z" fill="#2453C1"/>
</svg>
