<svg width="313" height="506" viewBox="0 0 313 506" fill="none" xmlns="http://www.w3.org/2000/svg">
<path d="M184.879 251.762L191.379 217.762C193.379 218.762 200.379 239.262 200.379 240.762C200.379 242.262 200.879 243.262 201.379 243.262C201.779 243.262 203.212 241.929 203.879 241.262C206.879 240.262 227.379 242.262 228.879 242.262C230.379 242.262 230.379 246.762 230.379 247.262C229.379 251.762 224.879 248.762 219.379 259.762C214.979 268.562 205.212 273.429 200.879 274.762C189.879 273.262 187.379 257.262 184.879 251.762Z" fill="#FFF8E6"/>
<g style="mix-blend-mode:multiply">
<path d="M195.879 244.762C196.679 244.362 199.546 243.262 200.879 242.762H201.879C201.879 242.762 200.879 245.262 200.379 245.762C199.879 246.262 193.379 252.762 191.379 257.262C190.879 255.762 196.879 246.762 197.379 246.262C197.662 245.98 193.046 248.762 190.879 250.262C192.212 248.596 195.079 245.162 195.879 244.762Z" fill="#CBDEEC"/>
</g>
<g style="mix-blend-mode:multiply">
<path d="M188.379 250.262C189.379 255.262 195.879 269.262 200.879 274.762C199.379 274.762 193.379 271.762 191.879 270.262C190.379 268.762 184.379 252.262 184.379 251.262C184.379 250.262 186.932 243.604 187.379 242.262C187.879 240.762 190.212 231.429 190.879 226.762C191.379 229.762 191.379 236.062 191.379 237.262C191.379 238.462 189.379 246.429 188.379 250.262Z" fill="#CBDEEC"/>
</g>
<path d="M203.88 241.262C206.881 240.263 227.38 242.262 228.88 242.262C230.379 242.263 230.38 246.762 230.38 247.262C229.783 249.946 227.942 249.962 225.386 251.871C221.261 253.106 214.923 253.595 212.001 252.5C208.801 251.3 206.001 249.5 204.001 246C203.355 244.87 203.128 243.428 203.114 241.993C203.406 241.725 203.678 241.464 203.88 241.262Z" fill="#FF69A6"/>
<path d="M217.001 247C220.569 247 223.651 249.077 225.107 252.087C223.437 253.401 221.481 255.56 219.379 259.763C218.252 262.017 216.771 264.011 215.121 265.756C211.045 264.693 207.936 260.287 207.501 255.5C206.994 249.933 212.03 247 217.001 247Z" fill="#FF69A6"/>
<path d="M212.336 257.089C212.013 253.102 214.464 252.402 217.993 252.617C219.781 252.727 221.991 252.893 223.144 253.954C221.971 255.28 220.703 257.115 219.379 259.763C218.909 260.703 218.377 261.598 217.797 262.448C215.302 261.972 212.57 259.976 212.336 257.089Z" fill="#221326"/>
<path d="M201.379 231.762C202.979 234.562 204.712 234.262 205.379 233.762C204.979 234.562 207.212 238.096 208.379 239.762C218.379 242.562 226.212 238.929 228.879 236.762C229.879 231.096 231.679 219.362 230.879 217.762C229.879 215.762 222.879 212.262 220.879 211.762C219.827 211.499 218 212.666 217.5 213.499C215.5 211.999 211.379 213.999 211.379 214.762C209.379 213.962 206.5 215.999 206.379 216.762C205.179 215.962 203.546 217.429 202.879 218.262C201.712 221.596 199.779 228.962 201.379 231.762Z" fill="#221326"/>
<path d="M204.879 223.762C204.713 226.596 205.279 233.162 208.879 236.762C212.517 237.589 222.027 237.954 229.207 234.835C229.091 235.53 228.982 236.179 228.879 236.762C226.213 238.929 218.379 242.562 208.379 239.762C207.213 238.096 204.979 234.562 205.379 233.762C204.713 234.262 202.979 234.562 201.379 231.762C200.697 230.568 200.658 228.543 200.927 226.354C201.281 227.044 201.997 228.262 202.379 228.262C202.88 228.26 204.379 224.262 204.879 223.762Z" fill="#412D47"/>
<path d="M207.379 244.262C206.579 244.262 206.379 240.262 206.379 238.262C206.779 237.862 207.212 238.096 207.379 238.262C216.979 243.062 226.212 237.762 229.379 234.762C229.712 234.929 230.129 235.762 230.379 236.262C230.629 236.762 230.379 239.262 229.379 242.262C229.038 243.284 228.058 244.262 227.379 244.762C218.786 251.094 210.585 247.469 207.379 244.262Z" fill="#221326"/>
<path d="M122.879 287.762C122.879 285.95 125.379 284.262 126.379 284.762L136.879 276.262L130.379 302.262C129.212 302.429 125.629 302.762 124.379 302.262C121.443 301.088 117.379 293.762 117.379 291.762C117.379 290.531 118.379 289.512 119.379 289.262C121.879 288.637 124.046 291.762 125.379 293.262V290.762C124.879 289.762 122.879 288.762 122.879 287.762Z" fill="#221326"/>
<path d="M133.879 288.262L129.166 302.398C129.11 302.403 129.053 302.408 128.995 302.413C129.81 296.543 130.425 290.486 131.379 284.762C130.879 285.262 127.879 286.262 127.379 286.262C126.379 286.262 126.379 289.262 125.879 290.762C125.781 291.056 125.612 291.561 125.379 291.903V290.762C124.879 289.762 122.879 288.762 122.879 287.762C122.879 285.95 125.379 284.262 126.379 284.762L133.659 278.868L136.696 276.992L133.879 288.262Z" fill="#412D47"/>
<path d="M124.879 283.262C124.479 283.262 123.046 282.262 122.379 281.762C127.046 275.762 136.579 263.762 137.379 263.762C138.379 263.762 141.379 268.262 141.379 269.762C139.379 277.262 128.879 284.762 127.379 285.262C125.879 285.762 125.379 283.262 124.879 283.262Z" fill="#221326"/>
<path d="M137.379 263.762C138.148 263.762 140.098 266.427 140.958 268.339C139.105 272.976 135.879 278.926 135.879 277.262C135.879 275.201 135.379 272.262 134.879 272.262C134.313 272.262 133.046 273.096 131.879 273.262L136.855 264.139C137.115 263.896 137.295 263.762 137.379 263.762Z" fill="#412D47"/>
<path d="M135.879 215.762C139.879 214.162 145.879 214.096 148.379 214.262C156.545 213.596 173.878 212.362 177.878 212.762C181.878 213.162 188.545 216.096 191.378 217.762C192.178 226.962 187.712 244.762 185.378 252.262C206.878 302.762 191.878 325.262 190.878 341.762C218.078 418.562 213.378 477.929 207.378 497.262C170.578 514.062 158.712 500.596 157.378 491.762C158.243 482.688 162.856 389.967 163 361C163.023 356.449 163 356 163 350.5C163 345 164.378 320.262 165.378 305.762H161.378C161.378 317 159.217 335.67 157.5 347.5C156.775 352.5 155.841 357.27 155.5 359.5C147.608 411.122 134.935 453.898 132.378 491.762C116.878 515.762 80.0527 493.762 78.8785 484.262C74.4785 448.662 109.379 375.429 127.379 343.262C123.379 310.462 136.045 272.596 142.878 257.762L139.879 244.262C133.479 249.862 131.879 253.262 131.879 254.262C133.079 254.662 135.045 257.429 135.879 258.762C138.679 259.562 139.045 262.096 138.879 263.262C129.879 281.762 118.878 283.762 116.879 281.762C114.879 279.762 115.378 278.262 113.878 275.262C107.878 270.762 103.545 263.429 100.879 258.762C99.6785 257.562 99.6884 251.229 100.378 250.262C107.878 239.762 120.378 227.762 128.878 220.262C132.245 217.572 133.728 216.623 135.879 215.762Z" fill="#FFF8E6"/>
<path d="M188.813 260.917C205.155 305.398 191.82 326.237 190.879 341.763C218.079 418.563 213.379 477.929 207.379 497.263C170.579 514.063 158.712 500.596 157.379 491.763C158.243 482.688 162.856 389.967 163.001 361C163.023 356.45 163.001 356 163.001 350.5C163.001 345 164.379 320.263 165.379 305.763H161.379C161.379 317 159.218 335.67 157.501 347.5C156.775 352.5 155.842 357.27 155.501 359.5C147.609 411.122 134.935 453.899 132.379 491.763C116.879 515.762 80.0534 493.763 78.8786 484.263C74.4786 448.663 109.379 375.429 127.379 343.263C123.928 314.965 132.883 282.898 139.795 265.102C158.548 271.782 168.003 270.491 188.813 260.917ZM135.501 263.5C136.436 263.863 137.349 264.207 138.24 264.536C136.693 267.556 135.095 270.105 133.501 272.246L135.501 263.5Z" fill="#221326"/>
<path d="M135.886 258.765C138.679 259.567 139.045 262.097 138.879 263.263C129.879 281.762 118.88 283.762 116.879 281.763C114.926 279.81 115.354 278.334 113.979 275.473C120.957 274.53 130.571 265.288 135.886 258.765Z" fill="#FF69A6"/>
<path d="M125 253.999C127.301 252.953 129.776 253.238 131.878 254.242C131.878 254.249 131.878 254.256 131.878 254.263C133.078 254.663 135.045 257.43 135.878 258.763C136.139 258.837 136.379 258.926 136.599 259.028C136.858 259.682 137 260.348 137 261C137 265.418 130.918 272 126.5 272C122.082 272 119.5 267.918 119.5 263.5C119.5 259.082 119.5 256.499 125 253.999Z" fill="#FF69A6"/>
<path d="M126.763 256.711C130.337 254.494 133.791 256.044 135.805 258.676C135.812 258.676 135.819 258.679 135.825 258.68C135.843 258.709 135.862 258.735 135.879 258.762C135.887 258.765 135.894 258.767 135.902 258.769C135.905 259.191 133.948 260.943 131.613 262.729C128.981 264.743 126.887 267.961 125 264.5C123.414 261.591 123.188 258.928 126.763 256.711Z" fill="#221326"/>
<g style="mix-blend-mode:multiply">
<path d="M136.879 225.762C137.22 226.103 138.523 237.293 139.828 244.306C133.47 249.88 131.879 253.265 131.879 254.262C133.079 254.663 135.046 257.429 135.879 258.762C136.242 258.866 136.565 258.999 136.851 259.155C135.914 259.87 134.712 260.54 133.879 260.262C132.378 259.762 122.879 248.762 116.379 248.262C118.379 247.929 123.079 248.462 125.879 249.262C129.046 245.762 135.379 238.462 135.379 237.262C135.379 236.062 136.879 228.929 136.879 225.762Z" fill="#CBDEEC"/>
</g>
<path d="M131.737 290.928C130.059 304.367 128.918 324.943 132.878 347.263C121.221 367.502 89.7469 427.218 79.2496 466.823C84.1578 428.469 111.964 370.809 127.378 343.263C125.254 325.844 127.83 306.996 131.737 290.928Z" fill="#FF69A6"/>
<path d="M196.208 290.503C199.187 315.628 191.581 330.175 190.878 341.762C213.01 404.252 214.021 455.2 210.398 482.431C210.062 463.094 206.841 431.535 201.378 404.762C196.807 382.357 188.589 360.929 184.878 345.762C188.378 329.762 191.878 320.5 194.878 305.5C195.831 300.738 196.177 295.472 196.208 290.503Z" fill="#FF69A6"/>
<path d="M78.5764 474.357C80.8301 481.969 88.6843 495.166 104.379 498.762C117.605 501.793 126.607 496.772 132.4 491.448C132.393 491.553 132.385 491.658 132.378 491.762C116.878 515.762 80.0523 493.762 78.8782 484.262C78.5021 481.219 78.4133 477.901 78.5764 474.357Z" fill="#FF69A6"/>
<path d="M157.471 490.668C160.584 496.38 165.987 501.638 177.379 501.762C190.413 501.905 202.142 496.481 208.9 491.283C208.416 493.572 207.904 495.571 207.379 497.262C170.579 514.062 158.712 500.596 157.379 491.762C157.406 491.479 157.435 491.113 157.471 490.668Z" fill="#FF69A6"/>
<path d="M163.379 220.262C164.379 221.762 164 253.5 165 256.5" stroke="#B1CCDE" stroke-width="2" stroke-linecap="round"/>
<g style="mix-blend-mode:multiply">
<path d="M148.379 214.262C156.546 213.596 173.879 212.362 177.879 212.762C178.905 212.865 180.106 213.136 181.374 213.508C153.845 237.564 141.862 225.486 138.79 214.907C142.379 214.145 146.436 214.133 148.379 214.262Z" fill="#CBDEEC"/>
</g>
<g style="mix-blend-mode:multiply">
<path d="M147.872 251C145.872 251 145.372 251.5 146.872 253C151.26 257.388 157.872 259.5 161.372 259.5C164.872 259.5 172.372 253 176.372 248.5C175.872 250 172.372 255.5 169.872 259C172.672 259 181.372 247.5 181.372 242C174.872 246.5 149.372 251 147.872 251Z" fill="#CBDEEC"/>
</g>
<path d="M141.879 293.762C142.288 293.367 154.715 299.763 160.879 303.262C162.213 303.095 165.08 303.262 165.879 303.262C166.683 303.26 178.214 297.261 183.879 294.262C184.379 295.262 182.88 299.261 182.379 300.262C181.979 301.062 173.213 303.262 168.879 304.262L173.379 305.762C172.18 306.162 168.38 305.595 166.379 305.262C166.222 305.524 165.872 305.718 165.372 305.86C165.374 305.827 165.376 305.794 165.378 305.762H161.378C161.4 305.805 161.404 305.937 161.398 306.149C155.322 305.995 145.946 304.274 145.879 304.262C145.94 304.26 151.892 304.094 154.379 303.762C150.046 302.929 141.179 300.962 140.379 299.762C139.38 298.262 141.379 294.262 141.879 293.762Z" fill="#35233A"/>
<path d="M148.879 215.762C148.565 215.292 148.046 213.596 147.879 212.762L178.379 209.262C179.179 210.062 178.379 214.262 177.379 216.262C162.879 221.262 149.879 217.262 148.879 215.762Z" fill="#CB4C80"/>
<path fill-rule="evenodd" clip-rule="evenodd" d="M78.5879 474.117C89.371 467.279 112.652 461.412 118.5 463.5C124.785 465.745 129.592 480.617 132.56 489.302C132.495 490.125 132.434 490.945 132.379 491.763C131.862 492.563 131.32 493.31 130.758 494.01C117.654 502.525 91.7295 505.592 78.5273 475.722C78.5421 475.192 78.5614 474.657 78.5879 474.117Z" fill="#FFF8E6"/>
<path d="M172.5 467.5C178.373 466.702 199.74 478.363 209.667 487.254C209.417 488.72 209.153 490.096 208.88 491.38C195.573 502.392 174.971 504.443 161.168 499.373C158.909 496.969 157.746 494.191 157.379 491.762C157.498 490.507 157.686 487.651 157.928 483.584C162.46 476.203 167.671 468.155 172.5 467.5Z" fill="#FFF8E6"/>
<path d="M139.5 266.5C139.1 264.9 141.667 259.333 142.5 258C162.5 267.5 178.833 257.833 186 254C188.4 256 190 261.666 190 263.5C171 278.5 140 268.5 139.5 266.5Z" fill="#FF69A6"/>
<path d="M163.5 334C162.5 331.5 163 324.333 164 322C169.5 324.5 191.5 322.5 195 320.5C196.389 319.706 194.834 328.5 193.5 331.5C193 334.5 164.429 336.321 163.5 334Z" fill="#FFF8E6"/>
<path d="M80.9731 16.6571C111.486 20.8921 140.879 42.1336 158.001 57.3021C142.023 83.8698 104.553 132.69 82.4869 115.431C60.421 98.171 65.0002 47.4998 80.9731 16.6571Z" fill="#FF69A6"/>
<path d="M217.696 1.64586C188.459 11.3525 163.413 37.5791 149.332 55.6051C169.869 78.829 215.583 120.032 234.147 99.0515C252.711 78.0712 234.913 25.1738 217.696 1.64586Z" fill="#FF69A6"/>
<path d="M257.007 35.5C286.002 35.5 309.001 61.0051 309.001 90C309.001 97.9608 306.746 105.285 303.315 111.173C299.703 117.373 294.787 121.981 289.826 124.067C295.259 126.694 300.024 130.485 303.798 135.115C309.551 142.174 313.001 151.184 313.001 161C313.001 169.124 310.637 176.696 306.561 183.066C303.16 188.381 298.566 192.86 293.157 196.125C295.547 198 297.583 200.473 299.258 203.309C303.061 209.751 305.001 218.066 305.001 225.5C305.001 234.985 300.318 242.459 293.467 247.795C289.804 250.648 285.52 252.89 281.001 254.5C282.329 255.536 283.559 256.795 284.663 258.215C288.242 262.819 290.501 269.119 290.501 275C290.501 288.255 279.501 298 265.001 298C250.501 298 245.001 286.255 245.001 273C245.001 264.114 246.501 258.5 253.001 251.5C242.299 245.907 241.344 235.411 241.344 222.5C241.344 211.988 243.843 202.608 251.418 196.466C239.209 189.365 231.001 176.142 231.001 161C231.001 150.552 234.91 141.019 241.344 133.778C219.739 127.274 204.001 107.225 204.001 83.5C204.001 54.5051 228.012 35.5 257.007 35.5Z" fill="#97EF89"/>
<path d="M55.7532 52.9014C26.8825 55.5826 6.34135 83.105 9.02255 111.976C9.76511 119.971 12.7317 127.11 16.7451 132.677C20.8991 138.44 26.1745 142.519 31.2655 144.124C25.3671 147.684 20.4754 152.673 17.0252 158.567C12.846 165.707 10.7818 174.175 11.6052 183.041C12.508 192.763 16.7358 201.375 23.0607 207.859C26.3898 211.272 30.2999 214.096 34.612 216.181C33.1009 217.61 31.7813 219.304 30.6484 221.186C26.3689 228.295 24.7524 238.095 25.5353 246.525C26.174 253.402 29.1863 258.988 33.6012 263.324C38.4914 268.126 45.1024 271.394 52.1141 273.182C51.1013 274.134 50.1692 275.233 49.33 276.44C45.8585 281.435 43.9774 288.301 44.5505 294.472C45.7762 307.67 57.6302 316.357 72.0681 315.016C86.506 313.675 90.8963 301.472 89.6706 288.273C88.8489 279.425 86.8362 273.974 79.7168 267.605C89.8553 261.047 89.8353 250.508 88.6414 237.652C87.6693 227.185 84.3136 218.076 76.2029 212.661C87.7033 204.461 94.654 190.536 93.2538 175.459C92.2877 165.056 87.513 155.925 80.4372 149.31C101.349 140.836 115.166 119.418 112.972 95.7941C110.29 66.9234 84.624 50.2202 55.7532 52.9014Z" fill="#97EF89"/>
<path fill-rule="evenodd" clip-rule="evenodd" d="M17.0252 158.567C26.89 152.265 38.0097 148.188 49.6104 146.62L50.5002 146.5L49.3718 146.225C37.8605 143.425 26.8538 138.855 16.7451 132.677C20.8991 138.44 26.1744 142.519 31.2654 144.124C25.3671 147.684 20.4754 152.673 17.0252 158.567Z" fill="#76C06A"/>
<path fill-rule="evenodd" clip-rule="evenodd" d="M303.315 111.173L294.512 118.188L275.878 124.097L294.512 129L303.798 135.115C300.024 130.485 295.259 126.694 289.826 124.067C294.787 121.981 299.703 117.373 303.315 111.173Z" fill="#76C06A"/>
<path fill-rule="evenodd" clip-rule="evenodd" d="M300.648 189.345L306.561 183.066C303.16 188.381 298.566 192.86 293.157 196.125C295.547 198 297.583 200.473 299.258 203.309L281.96 197.244L300.648 189.345Z" fill="#76C06A"/>
<path fill-rule="evenodd" clip-rule="evenodd" d="M293.467 247.795L276 255.177L284.663 258.215C283.559 256.795 282.329 255.536 281 254.5C285.52 252.89 289.804 250.648 293.467 247.795Z" fill="#76C06A"/>
<path fill-rule="evenodd" clip-rule="evenodd" d="M23.0607 207.859C26.3898 211.272 30.2999 214.095 34.6119 216.181C33.1009 217.61 31.7814 219.304 30.6484 221.186L32.0002 220.322L50.5002 217.822L32.0002 213.322L23.0607 207.859Z" fill="#76C06A"/>
<path fill-rule="evenodd" clip-rule="evenodd" d="M33.6012 263.324C38.4914 268.126 45.1024 271.394 52.1141 273.182C51.1013 274.135 50.1692 275.233 49.33 276.44L68.0002 274.214L44.4028 269.149L33.6012 263.324Z" fill="#76C06A"/>
<path d="M96.7544 47.5533C100.207 48.2672 103.975 51.9737 106.242 60.0556C108.431 67.8632 108.748 78.4441 106.389 89.8511C104.031 101.258 99.5437 110.846 94.4375 117.145C89.1517 123.665 84.2227 125.573 80.77 124.859C77.3173 124.146 73.5492 120.439 71.2827 112.357C69.0933 104.55 68.7765 93.9686 71.1351 82.5617C73.4937 71.1547 77.9807 61.567 83.087 55.2679C88.3727 48.7476 93.3017 46.8394 96.7544 47.5533Z" stroke="#312B4B" stroke-width="10"/>
<path d="M213.536 38.5533C210.084 39.2672 206.315 42.9737 204.049 51.0556C201.859 58.8632 201.543 69.4441 203.901 80.8511C206.26 92.2581 210.747 101.846 215.853 108.145C221.139 114.665 226.068 116.573 229.521 115.859C232.973 115.146 236.741 111.439 239.008 103.357C241.197 95.5497 241.514 84.9686 239.156 73.5617C236.797 62.1547 232.31 52.567 227.204 46.2679C221.918 39.7476 216.989 37.8394 213.536 38.5533Z" stroke="#312B4B" stroke-width="10"/>
<path d="M62.336 147.83C66.1673 142.386 74.2864 137.321 77.867 135.469L106.912 194.737C99.2089 199.419 87.4599 205.12 81.5986 201.684C65.9685 192.521 57.5469 154.636 62.336 147.83Z" fill="#FF69A6"/>
<path d="M257.844 122.552C252.804 118.203 243.697 115.266 239.773 114.341L226.018 178.893C234.628 181.561 247.411 184.232 252.26 179.474C265.192 166.784 264.145 127.988 257.844 122.552Z" fill="#FF69A6"/>
<path d="M245.879 126.262C248.03 147.596 243.793 175.262 231.379 187.262C216.379 201.762 192.478 208.723 165.379 212.262C138.28 215.802 109.766 212.762 91.8791 190.262C76.6417 171.095 73.8791 145.591 73.8791 126.262C73.8791 79.8704 112.379 48.796 151.379 45.7627C190.379 42.7294 239.173 59.7628 245.879 126.262Z" fill="#FFF8E6"/>
<path d="M231.379 147.763C231.379 165.683 226.379 184.812 214.379 193.763C202.379 202.713 184.879 207.815 166.379 209.763C158.379 210.605 129.051 211.853 112.879 199.763C96.1559 187.261 91.3789 170.683 91.3789 152.763C91.3789 134.842 97.1293 121.757 111.869 110.763C120.369 104.423 140.492 101.888 158.379 100.263C180.389 98.263 198.925 96.3385 208.879 103.763C223.619 114.757 231.379 129.842 231.379 147.763Z" fill="#FEC3EF"/>
<path d="M158.379 100.263C180.389 98.2633 198.925 96.3389 208.879 103.763C223.619 114.757 231.379 129.843 231.379 147.763C231.379 147.925 231.375 148.087 231.374 148.249C206.623 148.446 187.29 131.984 182.5 124.5L141.5 129C126.598 154.168 104.499 160.852 91.6592 159.949C91.467 157.583 91.3789 155.185 91.3789 152.763C91.3789 134.843 97.1293 121.757 111.869 110.763C120.369 104.423 140.492 101.888 158.379 100.263Z" fill="#97EF89"/>
<path d="M158.379 100.263C169.655 99.2381 180.02 98.236 188.785 98.498C203.724 109.012 205.119 132.524 187.5 147.5C171.696 160.934 147.5 161.5 136.5 154C118.487 142.577 110.511 121.116 127.838 104.544C136.987 102.443 148.055 101.201 158.379 100.263Z" fill="#76C06A"/>
<path d="M186.512 98.4558C189.355 100.894 191.821 103.991 193.757 107.851C206.041 132.345 184.121 154.12 171.625 161.945L169.421 175.013C135.947 163.629 128.357 143.121 123.263 135.04C119.848 129.622 125.335 113.005 129.681 104.137C138.45 102.28 148.739 101.138 158.379 100.262C168.695 99.3251 178.248 98.4052 186.512 98.4558Z" fill="#97EF89"/>
<path d="M173.979 160.378C173.167 160.949 172.379 161.473 171.625 161.946L169.421 175.014C167.801 174.463 166.243 173.889 164.742 173.298C168.952 171.74 169.116 163.769 172.5 151.5L173.979 160.378Z" fill="#76C06A"/>
<path d="M119.567 133.545C121.029 132.725 123.107 132.263 125.428 132.495C130.518 133.004 133.027 135.726 133.027 138.5C133.027 139 132.867 139.343 132.589 139.622C132.283 139.929 131.781 140.208 131.032 140.43C129.521 140.879 127.368 141 124.879 141C123.458 141 121.494 140.759 119.925 140.031C118.389 139.318 117.379 138.227 117.379 136.5C117.379 135.475 118.085 134.377 119.567 133.545Z" stroke="#312B4B" stroke-width="2"/>
<path d="M195.913 123.832C194.293 123.397 192.166 123.461 189.974 124.259C185.167 126.007 183.406 129.264 184.09 131.952C184.214 132.437 184.454 132.73 184.792 132.932C185.165 133.154 185.72 133.3 186.5 133.331C188.075 133.394 190.192 132.979 192.604 132.365C193.981 132.015 195.825 131.298 197.166 130.205C198.479 129.135 199.188 127.829 198.762 126.155C198.509 125.162 197.554 124.272 195.913 123.832Z" stroke="#312B4B" stroke-width="2"/>
<path d="M166.879 181.263C166.879 182.263 165.76 182.263 164.379 182.263C162.998 182.263 162.379 182.091 162.379 181.263C162.379 180.434 162.879 179.263 164.379 179.263C166.174 179.263 166.879 179.949 166.879 181.263Z" fill="#312B4B"/>
<path d="M138.575 164.413C124.291 157.84 98.862 171.439 100.059 178.981C100.41 181.193 107.845 176.058 117.404 173.592C126.132 171.341 136.92 171.788 140 172.5C146.453 173.991 140.592 165.341 138.575 164.413Z" fill="#312B4B"/>
<path d="M185.622 157.65C197.556 147.411 226.583 153.419 227.5 161C227.769 163.223 219.21 160.324 209.341 160.575C200.329 160.804 190.076 164.193 187.309 165.723C181.512 168.927 183.937 159.096 185.622 157.65Z" fill="#312B4B"/>
<path d="M163.746 185C158 187.5 154.093 188.413 148.5 189C150.026 195.262 150.059 207.895 165.78 207.895C181.5 207.895 180 192.5 180 185C175 186.5 169 186 163.746 185Z" fill="#FF7DB2" stroke="#312B4B" stroke-width="1.5" stroke-linecap="round" stroke-linejoin="round"/>
<path d="M151.25 244.75H143.917V242H146.667V239.25H150.333V242H154L151.25 244.75ZM153.083 233.75H150.333V236.5H146.667V233.75H143L145.75 231H153.083V233.75Z" fill="#FF69A6"/>
</svg>
