<svg width="245" height="494" viewBox="0 0 245 494" fill="none" xmlns="http://www.w3.org/2000/svg">
<path d="M154.879 239.763L161.379 205.763C163.379 206.763 170.379 227.263 170.379 228.763C170.379 230.263 170.879 231.263 171.379 231.263C171.779 231.263 173.212 229.93 173.879 229.263C176.879 228.263 197.379 230.263 198.879 230.263C200.379 230.263 200.379 234.763 200.379 235.263C199.379 239.763 194.879 236.763 189.379 247.763C184.979 256.563 175.212 261.43 170.879 262.763C159.879 261.263 157.379 245.263 154.879 239.763Z" fill="#FEF2F2"/>
<path d="M160.879 216.263C160.379 223.263 157.379 235.763 156.879 237.763C156.379 239.763 165.379 256.763 170.379 257.763C175.379 258.763 185.879 245.263 187.879 242.263C189.879 239.263 189.379 240.263 191.879 238.763C193.879 237.563 193.379 235.263 192.879 234.263L197.944 230.209C198.411 230.242 198.734 230.263 198.879 230.263C200.379 230.263 200.379 234.763 200.379 235.263C199.379 239.763 194.879 236.763 189.379 247.763C184.979 256.563 175.212 261.43 170.879 262.763C159.879 261.263 157.379 245.263 154.879 239.763L158.018 223.336L160.879 216.263Z" fill="#2C1C1F"/>
<g style="mix-blend-mode:multiply">
<path d="M165.879 232.763C166.679 232.363 169.545 231.263 170.879 230.763H171.879C171.879 230.763 170.879 233.263 170.379 233.763C169.879 234.263 163.379 240.763 161.379 245.263C160.879 243.763 166.879 234.763 167.379 234.263C167.662 233.98 163.045 236.763 160.879 238.263C162.212 236.596 165.079 233.163 165.879 232.763Z" fill="#CBDEEC"/>
</g>
<g style="mix-blend-mode:multiply">
<path d="M158.379 238.263C159.379 243.263 165.879 257.263 170.879 262.763C169.379 262.763 163.379 259.763 161.879 258.263C160.379 256.763 154.379 240.263 154.379 239.263C154.379 238.263 156.932 231.605 157.379 230.263C157.879 228.763 160.212 219.43 160.879 214.763C161.379 217.763 161.379 224.063 161.379 225.263C161.379 226.463 159.379 234.43 158.379 238.263Z" fill="#2C1C1F"/>
</g>
<path d="M171.379 219.763C172.979 222.563 174.712 222.263 175.379 221.763C174.979 222.563 177.212 226.096 178.379 227.763C188.379 230.563 196.212 226.93 198.879 224.763C199.879 219.096 201.679 207.363 200.879 205.763C199.879 203.763 192.879 200.263 190.879 199.763C189.827 199.5 188 200.667 187.5 201.5C185.5 200 181.379 202 181.379 202.763C179.379 201.963 176.5 204 176.379 204.763C175.179 203.963 173.545 205.43 172.879 206.263C171.712 209.596 169.779 216.963 171.379 219.763Z" fill="#DA515C"/>
<g style="mix-blend-mode:multiply">
<path d="M174.879 211.763C174.712 214.596 175.279 221.163 178.879 224.763C182.517 225.59 192.027 225.954 199.207 222.835C199.091 223.53 198.982 224.179 198.879 224.763C196.212 226.93 188.379 230.563 178.379 227.763C177.212 226.096 174.979 222.563 175.379 221.763C174.712 222.263 172.979 222.563 171.379 219.763C170.697 218.569 170.657 216.543 170.927 214.355C171.281 215.045 171.997 216.263 172.379 216.263C172.879 216.26 174.379 212.263 174.879 211.763Z" fill="#DA515C"/>
</g>
<path d="M177.379 232.263C176.579 232.263 176.379 228.263 176.379 226.263C176.779 225.863 177.212 226.096 177.379 226.263C186.979 231.063 196.212 225.763 199.379 222.763C199.712 222.93 200.129 223.763 200.379 224.263C200.629 224.763 200.379 227.263 199.379 230.263C199.038 231.285 198.057 232.263 197.379 232.763C188.786 239.095 180.585 235.469 177.379 232.263Z" fill="#DA515C"/>
<path d="M92.8788 275.763C92.8788 273.951 95.3788 272.263 96.3788 272.763L106.879 264.263L100.379 290.263C99.2121 290.43 95.6288 290.763 94.3788 290.263C91.4427 289.088 87.3788 281.763 87.3788 279.763C87.3788 278.532 88.3788 277.513 89.3788 277.263C91.8788 276.638 94.0455 279.763 95.3788 281.263V278.763C94.8788 277.763 92.8788 276.763 92.8788 275.763Z" fill="#D6525D"/>
<g style="mix-blend-mode:multiply">
<path d="M103.879 276.263L99.1659 290.399C99.1098 290.404 99.0528 290.408 98.995 290.413C99.8099 284.543 100.425 278.487 101.379 272.763C100.879 273.263 97.8788 274.263 97.3788 274.263C96.3788 274.263 96.3788 277.263 95.8788 278.763C95.7809 279.057 95.6116 279.561 95.3788 279.904V278.763C94.8788 277.763 92.8788 276.763 92.8788 275.763C92.8788 273.951 95.3788 272.263 96.3788 272.763L103.659 266.868L106.696 264.992L103.879 276.263Z" fill="#D6525D"/>
</g>
<path d="M94.8788 271.263C94.4788 271.263 93.0455 270.263 92.3788 269.763C97.0455 263.763 106.579 251.763 107.379 251.763C108.379 251.763 111.379 256.263 111.379 257.763C109.379 265.263 98.8788 272.763 97.3788 273.263C95.8788 273.763 95.3788 271.263 94.8788 271.263Z" fill="#D6525D"/>
<g style="mix-blend-mode:multiply">
<path d="M107.379 251.763C108.148 251.763 110.098 254.427 110.958 256.339C109.104 260.977 105.879 266.927 105.879 265.263C105.879 263.201 105.379 260.263 104.879 260.263C104.313 260.263 103.045 261.096 101.879 261.263L106.854 252.14C107.115 251.896 107.295 251.763 107.379 251.763Z" fill="#D6525D"/>
</g>
<path d="M105.878 203.763C109.878 202.163 115.878 202.096 118.378 202.263C126.545 201.596 143.878 200.363 147.878 200.763C151.878 201.163 158.545 204.096 161.378 205.763C162.178 214.963 157.712 232.763 155.378 240.263C173.76 283.439 165.462 306.147 162.043 322.138C161.981 322.427 161.921 322.715 161.862 323C161.78 323.399 161.702 323.795 161.627 324.187C161.575 324.46 161.525 324.731 161.477 325C161.184 326.651 160.971 328.233 160.878 329.763L161.02 330.164C161.635 331.906 162.234 333.639 162.816 335.363C163.03 335.996 163.242 336.628 163.451 337.258C163.645 337.84 163.836 338.42 164.026 339C164.196 339.519 164.364 340.038 164.532 340.555L164.675 341C179.308 386.504 182.762 425.185 181.864 452C181.493 463.052 180.384 472.089 179.013 478.757C178.152 482.941 175.166 486.332 171.193 487.9C139.23 500.508 128.634 488.081 127.378 479.763C127.642 476.997 128.321 466.324 129.143 452C131.282 414.708 134.385 352.671 133.616 341C133.559 340.132 133.48 339.543 133.378 339.263C133.314 339.088 133.277 338.576 133.262 337.785C133.26 337.72 133.259 337.654 133.258 337.586C133.242 336.405 133.27 334.678 133.332 332.563C133.375 331.068 133.436 329.378 133.51 327.551C133.543 326.727 133.58 325.875 133.618 325C133.647 324.345 133.677 323.678 133.708 323C133.731 322.519 133.753 322.033 133.777 321.542C134.225 312.138 134.875 301.062 135.378 293.763H131.378C131.643 294.292 129.735 307.826 127.737 321.32C127.654 321.88 127.571 322.44 127.488 323C127.266 324.493 127.044 325.979 126.825 327.44C126.563 329.186 126.305 330.897 126.056 332.542C125.785 334.334 125.524 336.047 125.28 337.643C125.209 338.106 125.14 338.558 125.072 339L124.878 340.263C115.764 353.463 108.728 407.653 104.838 449.431C103.777 460.826 102.95 471.298 102.378 479.763C99.5706 484.11 96.0632 486.948 92.1947 488.625C79.9771 493.919 64.158 487.627 55.4049 480.701C51.629 477.713 49.168 474.607 48.8783 472.263C47.9059 464.395 48.8529 454.69 51.1128 443.995C58.1711 410.594 78.0359 367.55 92.2254 340.743C92.5372 340.154 92.8463 339.573 93.1525 339C93.8051 337.778 94.4444 336.593 95.0684 335.448C95.8645 333.987 96.6358 332.59 97.3783 331.263C97.3357 330.914 97.295 330.564 97.2561 330.213C97.0365 328.232 96.8764 326.233 96.771 324.224C96.7496 323.816 96.7305 323.408 96.7135 323C95.4425 292.33 106.613 259.364 112.878 245.763L109.878 232.263C103.478 237.863 101.878 241.263 101.878 242.263C103.078 242.663 105.045 245.43 105.878 246.763C108.678 247.563 109.045 250.096 108.878 251.263C99.8783 269.763 88.8782 271.763 86.8783 269.763C84.8783 267.763 85.3782 266.263 83.8782 263.263C77.8782 258.763 73.5449 251.43 70.8783 246.763C69.6783 245.563 69.6882 239.229 70.3782 238.263C77.8782 227.763 90.3782 215.763 98.8782 208.263C102.245 205.573 103.727 204.623 105.878 203.763Z" fill="#FEF2F2"/>
<g style="mix-blend-mode:multiply">
<path d="M118.379 247.763C116.379 247.763 115.879 248.263 117.379 249.763C121.767 254.151 128.379 256.263 131.879 256.263C135.379 256.263 142.879 249.763 146.879 245.263C146.379 246.763 142.879 252.263 140.379 255.763C143.179 255.763 151.879 244.263 151.879 238.763C145.379 243.263 119.879 247.763 118.379 247.763Z" fill="#CBDEEC"/>
</g>
<path d="M109.878 232.263C103.478 237.863 101.878 241.263 101.878 242.263C103.078 242.663 105.045 245.43 105.878 246.763C108.678 247.563 109.045 250.096 108.878 251.263C108.111 252.839 107.324 254.291 106.529 255.629C106.663 254.578 106.743 253.493 106.378 252.763C105.996 251.999 104.878 252.263 103.878 251.263C103.378 250.763 96.3784 242.263 95.8783 241.263C95.3783 240.263 107.878 229.263 108.878 224.763L109.878 232.263Z" fill="#2C1C1F"/>
<g style="mix-blend-mode:multiply">
<path d="M106.879 213.763C107.279 214.163 109.879 226.763 111.879 232.763L110.35 234.386L109.879 232.263C103.479 237.863 101.879 241.263 101.879 242.263C103.079 242.663 105.045 245.43 105.879 246.763C106.242 246.867 106.565 247 106.85 247.156C105.914 247.87 104.712 248.541 103.879 248.263C102.378 247.762 92.8784 236.763 86.3787 236.263C88.3786 235.93 93.0786 236.463 95.8787 237.263C99.0453 233.763 105.379 226.463 105.379 225.263C105.379 224.063 106.879 216.93 106.879 213.763Z" fill="#CBDEEC"/>
</g>
<path d="M141.317 455.834C149.943 453.898 168.64 465.664 179.541 475.984C179.364 476.981 179.182 477.935 178.994 478.844C166.119 469.701 146.705 456.727 140.952 460.347C138.488 461.898 132.284 470.009 127.577 477.254C127.693 475.661 127.84 473.515 128.007 470.91C134.483 458.54 138.722 456.417 141.317 455.834Z" fill="#FF9F56"/>
<path d="M107.878 217.763C111.212 226.263 116.878 241.763 116.378 244.763C115.545 249.763 113.97 253.615 112.878 257.263C98.1539 306.485 89.6759 346.169 125.85 333.9C125.5 336.204 125.172 338.355 124.878 340.263C113.774 356.346 105.755 433.278 102.751 474.472C100.745 466.219 97.7277 456.975 95.0004 453C86.884 441.174 62.7123 454.115 48.6136 461.671C50.6915 423.677 81.0159 360.503 97.3783 331.263C93.3783 298.463 106.045 260.596 112.878 245.763L109.878 232.263C109.804 232.328 109.731 232.392 109.659 232.456L107.878 217.763Z" fill="#2C1C1F"/>
<path d="M105.5 442.5L82.8564 434.098C73.5301 430.638 65.448 424.474 59.6436 416.396L58.9999 415.5L53.2665 431.658C49.7933 441.446 48.391 451.848 49.1482 462.207L49.6992 469.743L102.5 477L104.715 457.046L105.5 442.5Z" fill="#FEF2F2"/>
<path d="M160.925 215.462C159.767 224.41 157.036 234.935 155.378 240.263C176.878 290.763 161.878 313.263 160.878 329.763C184.616 396.786 184.057 450.532 179.542 475.98C175.919 473.647 171.125 469.801 165.5 466C147 456.5 141 446.5 128 471.5C127.993 471.437 127.987 471.372 127.981 471.306C128.78 458.88 130.11 435.502 131.292 411.819C131.365 410.842 131.436 409.901 131.5 409C131.5 408.525 131.504 408.042 131.507 407.555C133.13 374.459 134.377 342.011 133.378 339.263C133.173 338.699 133.24 334.662 133.453 329.037C140.446 325.568 160.767 356.147 162.878 290.263C162.538 261.581 152.378 240.787 152.378 239.763C152.378 238.627 158.058 223.056 160.925 215.462Z" fill="#2C1C1F"/>
<path fill-rule="evenodd" clip-rule="evenodd" d="M76.3986 447.29L95.0944 450.188C97.5148 453.084 100.565 456.604 103.442 467.5C103.335 468.731 103.619 472.07 103.442 472.973C103.29 473.751 103.15 474.464 103.09 475.208C102.999 476.326 102.805 477.313 102.651 478.095C102.542 478.649 102.454 479.1 102.437 479.421C102.379 479.601 102.315 479.782 102.247 479.964C98.8852 485.074 94.5437 488.06 89.7899 489.507C82.0822 490.998 70.5519 489.097 54.0949 479.612C51.4403 477.341 49.5751 475.059 48.8651 473.14C48.7611 472.242 48.6613 471.292 48.5468 470.202C48.3434 468.266 48.4843 466.257 48.5468 462.5C48.5548 462.021 48.6376 461.343 48.5467 460.5C48.7281 458.691 48.8439 456.563 48.8652 456C56.9227 451.48 67.3256 449.274 76.3986 447.29Z" fill="#D6525D"/>
<path fill-rule="evenodd" clip-rule="evenodd" d="M48.8652 456C48.8248 457.07 48.5636 461.489 48.5468 462.5C63.7407 456.324 85.563 446.982 90.6565 451.638C93.3026 454.057 99.8438 466.473 103.09 475.208C103.22 473.601 103.242 469.792 103.442 467.5C100.565 456.604 97.5148 453.084 95.0944 450.188C93.613 448.415 92.2886 447.615 91.2087 447.144C87.8699 445.686 82.5011 445.955 76.3986 447.29C67.3256 449.274 56.9227 451.48 48.8652 456Z" fill="#D6525D"/>
<path d="M129.5 440L156.721 434.985C164.144 433.618 171.161 430.588 177.246 426.122L181.5 423L183.562 436.059C185.17 446.243 184.661 456.65 182.066 466.629L179.5 476.5L127.5 480L127.5 454.5L129.5 440Z" fill="#FEF2F2"/>
<path fill-rule="evenodd" clip-rule="evenodd" d="M133.777 321.542C138.541 320.525 143.438 320.495 148.161 321.454L161.627 324.187C161.575 324.46 161.525 324.731 161.477 325C161.184 326.651 160.971 328.233 160.878 329.763L161.02 330.164C161.635 331.906 162.234 333.64 162.816 335.364C163.03 335.996 163.242 336.628 163.451 337.258C163.645 337.84 163.836 338.42 164.026 339C164.196 339.519 164.364 340.038 164.532 340.556C159.91 341.833 155.078 342.009 150.435 341.068L133.258 337.586C133.242 336.406 133.27 334.678 133.332 332.564C133.375 331.068 133.436 329.379 133.51 327.552C133.544 326.727 133.58 325.875 133.618 325C133.647 324.345 133.677 323.678 133.708 323C133.731 322.519 133.753 322.033 133.777 321.542Z" fill="#DA515C"/>
<path fill-rule="evenodd" clip-rule="evenodd" d="M133.332 332.564C133.375 331.068 133.436 329.379 133.51 327.552C138.45 326.528 143.522 326.525 148.409 327.541L161.02 330.164C161.635 331.906 162.234 333.64 162.816 335.364C157.982 335.784 153.136 335.294 148.534 333.918L146.335 333.261C144.787 332.799 143.172 332.564 141.543 332.564L133.332 332.564Z" fill="#2C1C1F"/>
<path d="M48.5761 462.357C50.8299 469.969 58.684 483.166 74.3789 486.763C87.6049 489.794 96.6066 484.772 102.399 479.448C102.392 479.553 102.385 479.658 102.378 479.763C102.334 479.83 102.29 479.897 102.246 479.964C98.8852 485.073 94.5437 488.06 89.7899 489.507C77.4347 493.267 62.1399 486.493 54.0948 479.612C51.4403 477.341 49.575 475.059 48.8651 473.14C48.7183 472.743 48.6209 472.362 48.5761 472C48.2 468.956 48.413 465.901 48.5761 462.357Z" fill="#7B252C"/>
<path d="M133.379 208.263C134.379 209.763 133.879 232.263 134.879 235.263" stroke="#B1CCDE" stroke-width="2" stroke-linecap="round"/>
<path d="M134.379 239.263C132.965 258.989 132.662 269.289 132.379 287.263" stroke="#B1CCDE" stroke-width="2" stroke-linecap="round"/>
<g style="mix-blend-mode:multiply">
<path d="M118.379 202.263C126.545 201.596 143.879 200.363 147.879 200.763C148.905 200.866 150.106 201.136 151.374 201.508C123.845 225.564 111.862 213.487 108.79 202.907C112.379 202.145 116.436 202.133 118.379 202.263Z" fill="#CBDEEC"/>
</g>
<g style="mix-blend-mode:multiply">
<path fill-rule="evenodd" clip-rule="evenodd" d="M111.879 281.763C112.288 281.368 124.715 287.764 130.879 291.263C132.213 291.096 135.079 291.263 135.879 291.263C136.683 291.26 148.214 285.262 153.879 282.263C154.379 283.262 152.88 287.262 152.379 288.263C151.979 289.063 143.213 291.263 138.879 292.263L143.379 293.763C142.179 294.163 138.379 293.596 136.379 293.263C136.222 293.525 135.871 293.719 135.372 293.86C135.374 293.828 135.376 293.795 135.378 293.763H131.378C131.4 293.806 131.404 293.938 131.398 294.149C125.322 293.996 115.946 292.275 115.879 292.263C115.94 292.261 121.892 292.094 124.379 291.763C120.046 290.929 111.179 288.963 110.379 287.763C109.38 286.262 111.379 282.263 111.879 281.763Z" fill="#CBDEEC"/>
</g>
<path d="M118.879 203.763C118.565 203.292 118.045 201.596 117.879 200.763L148.379 197.263C149.179 198.063 148.379 202.263 147.379 204.263C132.879 209.263 119.879 205.263 118.879 203.763Z" fill="#842D34"/>
<path d="M147.438 222.5L146.559 244.5H120.441L119.562 222.5H147.438Z" fill="#FEF2F2" stroke="#2D1C1F" stroke-width="3"/>
<path d="M137 241H129V238H132V234H136V238H140L137 241ZM139 229H136V233H132V229H128L131 226H139V229Z" fill="#DA515C"/>
<path d="M139.5 246L148 245C147.688 247.181 148.508 249.371 150.176 250.811L158.5 258L161.5 270L147.386 259.582C142.993 256.34 140.138 251.423 139.5 246Z" fill="#2D1C1F"/>
<path d="M128 246L119 245.5C119 249.242 117.107 252.73 113.969 254.77L109 258L106 270L118.624 260.531C123.384 256.962 126.709 251.807 128 246Z" fill="#2D1C1F"/>
<path fill-rule="evenodd" clip-rule="evenodd" d="M96.771 324.224L111.381 321.509C116.753 320.51 122.287 320.446 127.737 321.32C127.655 321.88 127.571 322.44 127.488 323C127.266 324.493 127.044 325.979 126.825 327.44C126.563 329.186 126.305 330.897 126.056 332.541C125.785 334.334 125.524 336.047 125.28 337.643L104.829 341.352C100.665 342.107 96.3535 341.899 92.2254 340.743C92.5372 340.154 92.8463 339.573 93.1525 339C93.8051 337.778 94.4444 336.593 95.0685 335.448C95.8645 333.986 96.6358 332.59 97.3783 331.263C97.3357 330.914 97.295 330.564 97.2561 330.213C97.0365 328.232 96.8764 326.233 96.771 324.224Z" fill="#DA515C"/>
<path fill-rule="evenodd" clip-rule="evenodd" d="M97.2562 330.213L114.191 327.143C118.353 326.389 122.652 326.49 126.825 327.44C126.563 329.186 126.306 330.897 126.057 332.542L120.599 332.542C118.871 332.542 117.153 332.719 115.473 333.071L107.763 334.687C103.61 335.557 99.3331 335.814 95.0686 335.448C95.8646 333.987 96.6359 332.59 97.3784 331.263C97.3358 330.914 97.2951 330.564 97.2562 330.213Z" fill="#2C1C1F"/>
<path fill-rule="evenodd" clip-rule="evenodd" d="M156.377 452H138.479C135.796 454.491 131.647 459.747 127.378 470.074C127.233 472.37 127.49 473.891 127.378 475.5C127.246 477.41 127.452 478.991 127.378 479.763C128.643 488.141 140.213 498.832 171.694 487.538C175.07 486.327 177.639 483.523 178.636 480.078C179.253 477.948 179.977 475.335 181 471.5C181.131 470.498 181.883 468.064 182 467C175.122 461.299 164.571 455.35 156.377 452Z" fill="#D6525D"/>
<path fill-rule="evenodd" clip-rule="evenodd" d="M182 467C181.883 468.064 181.131 470.498 181 471.5C167.691 463.07 147.854 450.291 142.417 454.112C139.593 456.098 131.679 467.365 127.378 475.5C127.49 473.891 127.233 472.37 127.378 470.074C131.647 459.747 135.796 454.491 138.479 452C140.121 450.475 141.475 449.887 142.553 449.586C145.885 448.658 150.865 449.746 156.377 452C164.571 455.35 175.122 461.299 182 467Z" fill="#D6525D"/>
<path d="M127.47 478.668C130.584 484.38 135.987 489.638 147.379 489.763C160.413 489.906 172.142 484.482 178.9 479.283C178.087 483.125 175.335 486.245 171.688 487.703C139.34 500.636 128.641 488.124 127.379 479.763C127.406 479.479 127.435 479.113 127.47 478.668Z" fill="#7B252C"/>
<path d="M32.3358 135.83C36.167 130.386 44.2861 125.321 47.8668 123.47L76.9113 182.737C69.2086 187.419 57.4597 193.12 51.5984 189.684C35.9682 180.521 27.5467 142.636 32.3358 135.83Z" fill="#D6525D"/>
<path d="M227.844 110.552C222.804 106.203 213.696 103.266 209.773 102.341L196.018 166.893C204.628 169.561 217.411 172.232 222.26 167.474C235.192 154.785 234.145 115.988 227.844 110.552Z" fill="#D6525D"/>
<path d="M215.879 114.262C218.03 135.596 213.793 163.262 201.379 175.262C186.379 189.762 162.478 196.723 135.379 200.262C108.28 203.802 79.766 200.762 61.8789 178.262C46.6415 159.096 43.8789 133.591 43.8789 114.262C43.8789 67.8705 82.3789 36.7961 121.379 33.7628C160.379 30.7295 209.173 47.7629 215.879 114.262Z" fill="#FEF2F2"/>
<path d="M83.8788 98.2629C78.8788 85.7629 87.8193 43.3501 93.3792 39.763C108.879 29.763 133.379 29.1583 142.879 33.763C152.38 38.3676 163.879 64.7629 167.879 88.7629C151.878 88.7629 112.878 87.763 83.8788 98.2629Z" fill="#D6525D"/>
<path d="M201.379 135.763C201.379 153.683 196.379 172.812 184.379 181.763C172.379 190.713 154.879 195.816 136.379 197.763C128.379 198.605 99.0509 199.853 82.8789 187.763C66.156 175.261 61.3789 158.683 61.3789 140.763C61.3789 122.843 67.1293 109.757 81.8693 98.7629C90.3693 92.423 110.492 89.8883 128.379 88.263C150.389 86.2631 168.925 84.3387 178.879 91.7629C193.619 102.757 201.379 117.843 201.379 135.763Z" fill="#B46D4D"/>
<path d="M128.379 88.2627C150.389 86.2628 168.925 84.3385 178.879 91.7627C192.883 102.208 200.585 116.346 201.319 133.099C192.441 133.648 177.859 133.345 166.724 127.275C166.418 127.108 166.115 126.937 165.815 126.761C163.263 125.271 160.912 123.459 158.879 121.263C158.198 124.157 156.879 127.174 155.1 130.18C154.852 130.599 154.596 131.017 154.331 131.435C145.319 145.644 126.551 159.23 116.879 158.263C117.678 155.598 119.045 149.952 120.148 144.124C121.115 139.015 121.879 133.766 121.879 130.263C119.694 132.63 114.791 134.996 107.991 137.411C96.634 141.444 79.9854 145.611 61.8682 150.139C61.529 147.066 61.3789 143.935 61.3789 140.763C61.3789 122.842 67.1292 109.757 81.8691 98.7627C90.3691 92.4228 110.492 89.888 128.379 88.2627Z" fill="#2C1C1D"/>
<path fill-rule="evenodd" clip-rule="evenodd" d="M156.256 109L165.122 125.187L166.724 127.275C166.418 127.108 166.115 126.937 165.815 126.761C163.263 125.271 160.912 123.458 158.879 121.263C158.198 124.157 156.879 127.174 155.1 130.18C154.852 130.599 154.596 131.017 154.331 131.435L156.256 125.187V109Z" fill="#19090A"/>
<path fill-rule="evenodd" clip-rule="evenodd" d="M128.5 111.5L124.342 118.708C122.124 122.552 119.404 126.084 116.254 129.21L107.991 137.411C114.791 134.996 119.694 132.63 121.879 130.263C121.879 133.766 121.115 139.015 120.148 144.124L124.682 132.64C126.55 127.907 127.685 122.918 128.047 117.844L128.5 111.5Z" fill="#19090A"/>
<path d="M151 95.4999C151 92.1363 153.633 89.3613 156.992 89.1845L160.5 88.9999C163.307 89.8419 164.97 92.7273 164.291 95.5781L163 101L157.483 117.586C151.559 135.397 137.764 149.489 120.084 155.792L119.5 156L120.5 151.5L125.5 148.5L121.5 148L122 145L133.125 133.491C135.37 131.169 137.398 128.645 139.183 125.952C145.061 117.082 149.022 107.082 150.813 96.5927L151 95.4999Z" fill="url(#paint0_linear_775_1314)"/>
<path d="M89.3232 114.372C90.8853 113.495 93.0673 113.02 95.4775 113.261C100.702 113.783 103.527 116.626 103.527 119.763C103.527 120.393 103.316 120.864 102.942 121.238C102.555 121.627 101.965 121.938 101.175 122.173C99.5865 122.645 97.366 122.763 94.8789 122.763C93.4186 122.763 91.3743 122.517 89.7148 121.747C88.0717 120.984 86.8789 119.751 86.8789 117.763C86.8791 116.491 87.7513 115.254 89.3232 114.372Z" stroke="black"/>
<path d="M166.042 104.611C164.312 104.147 162.08 104.224 159.803 105.052C154.869 106.847 152.832 110.299 153.606 113.339C153.761 113.949 154.082 114.353 154.537 114.624C155.008 114.905 155.656 115.061 156.48 115.094C158.136 115.16 160.317 114.726 162.727 114.113C164.142 113.753 166.063 113.011 167.481 111.855C168.885 110.71 169.737 109.222 169.247 107.294C168.933 106.062 167.783 105.079 166.042 104.611Z" stroke="black"/>
<path d="M136.879 169.263C136.879 170.263 135.76 170.263 134.379 170.263C132.998 170.263 132.379 170.092 132.379 169.263C132.379 168.434 132.879 167.263 134.379 167.263C136.174 167.263 136.879 167.95 136.879 169.263Z" fill="#040003"/>
<path d="M70.8789 153.263C71.8789 154.763 73.3789 158.93 73.8789 161.263C68.6789 158.063 63.5456 151.763 61.8789 149.263C72.8789 139.763 90.3789 134.763 99.8789 136.763C107.369 138.34 117.416 145.55 121.694 149.108C121.767 149.161 121.829 149.213 121.879 149.263C121.818 149.212 121.757 149.161 121.694 149.108C120.603 148.315 117.097 147.232 115.379 146.763C116.879 149.263 116.379 156.43 115.879 160.763C115.879 160.763 117.379 160.763 118.879 160.263C112.379 165.263 102.379 168.763 93.3789 171.263C91.1134 171.892 89.2138 172.04 86.8789 171.763C83.4926 171.361 79.3789 169.763 78.3789 168.263C81.3789 169.263 86.8789 169.263 88.8789 168.763C83.3789 163.763 79.3789 151.763 79.3789 147.263C76.3789 148.763 73.3789 151.263 70.8789 153.263Z" fill="black"/>
<path d="M100.379 144.263C100.595 145.239 99.727 145.964 98.3789 146.263C97.0308 146.561 95.8112 146.188 95.3789 145.263C94.9466 144.337 95.9143 143.087 97.3789 142.763C99.1311 142.375 100.047 142.763 100.379 144.263Z" fill="#F7F6FF"/>
<path d="M110.366 153.562C100.943 152.048 89.4259 156.591 88.3789 160.123C88.3789 163.152 89.9494 166.348 92.5669 167.189C94.661 167.862 106.459 163.79 111.694 161.267C112.951 158.44 112.46 155.581 110.366 153.562Z" fill="#1F1F1F"/>
<path d="M193.879 137.763C193.879 141.263 193.379 143.763 193.046 146.388C197.297 142.005 200.717 134.633 201.716 131.799C188.713 125.306 170.52 124.777 161.807 129.058C154.874 132.465 146.832 142.074 143.622 146.526C143.6 146.552 143.583 146.577 143.57 146.598C143.587 146.574 143.604 146.55 143.622 146.526C144.574 145.366 153.825 139.733 155.441 138.817C154.879 146.763 157.826 152.687 159.379 156.763C159.379 156.763 151.956 156.878 150.379 156.763C157.911 160.005 173.038 159.263 182.379 159.263C184.879 159.263 187.879 157.263 190.379 154.263C189.879 154.263 187.379 155.263 186.879 155.263C190.976 149.061 191.879 141.763 191.879 136.763C192.879 137.263 193.046 137.263 193.879 137.763Z" fill="#040003"/>
<path d="M172.879 134.263C172.797 135.259 173.503 136.15 174.879 136.263C176.255 136.376 177.576 135.738 177.879 134.763C178.182 133.787 177.379 132.65 175.273 132.476C174.531 132.415 173.005 132.732 172.879 134.263Z" fill="#F7F6FF"/>
<path d="M186.379 148.827C186.379 155.763 179.41 156.763 173.379 156.763C169.379 156.763 160.379 158.263 160.379 149.827C160.379 146.327 166.699 144.327 173.879 144.327C182.879 143.827 186.379 146.342 186.379 148.827Z" fill="#1F1F1F"/>
<path d="M202.249 55.0789C200.622 56.266 198.459 54.5773 199.216 52.7116L218.628 4.86577C219.319 3.16274 221.748 3.21501 222.365 4.94619L228.631 22.5252C230.861 28.7818 228.711 35.7601 223.346 39.6765L202.249 55.0789Z" fill="#D6525D"/>
<path d="M47.015 72.2977C48.8147 73.2005 50.6699 71.1781 49.6157 69.4628L22.5788 25.4734C21.6165 23.9076 19.2292 24.3598 18.9061 26.169L15.625 44.5407C14.4573 51.0794 17.7288 57.6075 23.6659 60.5856L47.015 72.2977Z" fill="#D6525D"/>
<path d="M105 204L105.317 203.842C107.081 202.959 109.027 202.5 111 202.5L113.295 206.515C115.751 210.815 118.833 214.725 122.439 218.118L125.5 221L120 223.5L118.5 226.5C115.183 223.183 112.344 219.419 110.066 215.319L108.5 212.5L105 204Z" fill="#2D1C1F"/>
<path d="M161 205.5C159.719 203.899 157.855 202.873 155.818 202.646L154.5 202.5L152.845 205.975C150.628 210.63 147.705 214.914 144.179 218.676L142 221L146.5 223.5L148 226.5C151.317 223.183 154.156 219.419 156.434 215.319L158 212.5L161 205.5Z" fill="#2D1C1F"/>
<rect x="155.479" y="348.502" width="14" height="33" transform="rotate(-14.1365 155.479 348.502)" fill="#2C1C1F"/>
<rect width="14" height="33" transform="matrix(-0.914096 -0.405497 -0.405497 0.914096 98.1787 352.677)" fill="#2C1C1F"/>
<path d="M157.454 175.956C157.574 175.718 157.591 175.448 157.495 175.2C157.4 174.953 157.2 174.749 156.946 174.636C156.691 174.523 156.406 174.512 156.158 174.608C155.911 174.703 155.722 174.897 155.626 175.145C155.513 175.44 155.381 175.752 155.246 176.05C152.699 181.409 148.196 186.524 141.989 187.787C141.645 187.854 141.309 187.908 140.96 187.95C141.311 187.941 141.653 187.921 142.003 187.886C148.382 187.222 153.652 182.423 156.934 176.922C157.113 176.611 157.293 176.28 157.454 175.956Z" fill="#070102"/>
<defs>
<linearGradient id="paint0_linear_775_1314" x1="122.602" y1="154" x2="163.898" y2="90.4999" gradientUnits="userSpaceOnUse">
<stop offset="0.3125" stop-color="#842D34"/>
<stop offset="0.927885" stop-color="#2C1C1D"/>
</linearGradient>
</defs>
</svg>
