<svg width="393" height="108" viewBox="0 0 393 108" fill="none" xmlns="http://www.w3.org/2000/svg">
<g clip-path="url(#clip0_750_7869)">
<path d="M198 35.1849C193.781 35.1849 190.346 38.5783 190.346 42.7468C190.346 46.9152 193.781 50.3086 198 50.3086C202.219 50.3086 205.654 46.9152 205.654 42.7468C205.654 38.5783 202.219 35.1849 198 35.1849Z" fill="black"/>
<path d="M212.326 27.4935H208.483C207.847 27.4935 207.275 27.1463 206.99 26.5816L205.748 24.127C205.085 22.8141 203.749 22 202.266 22H193.729C192.244 22 190.913 22.8141 190.247 24.127L189.005 26.5816C188.72 27.1439 188.148 27.4935 187.512 27.4935H183.672C179.992 27.4935 177 30.4493 177 34.0848V51.4063C177 55.0418 179.992 57.9976 183.672 57.9976H212.326C216.006 57.9976 218.998 55.0393 218.998 51.4063V34.0848C218.998 30.4493 216.003 27.4935 212.326 27.4935ZM183.672 35.7326C182.751 35.7326 182.004 34.9942 182.004 34.0848C182.004 33.1753 182.751 32.4369 183.672 32.4369C184.592 32.4369 185.34 33.1753 185.34 34.0848C185.34 34.9942 184.592 35.7326 183.672 35.7326ZM198 52.504C192.553 52.504 188.121 48.1254 188.121 42.7443C188.121 37.3633 192.553 32.9846 198 32.9846C203.447 32.9846 207.879 37.3633 207.879 42.7443C207.879 48.1254 203.447 52.504 198 52.504Z" fill="black"/>
</g>
<path d="M388 42C390.761 42 393 44.2386 393 47V108H0V47C0 44.2386 2.23858 42 5 42H149.003C149.271 68.0032 170.433 89 196.5 89C222.567 89 243.729 68.0032 243.997 42H388Z" fill="#642F88"/>
<circle cx="197" cy="42" r="42" fill="#642F88"/>
<g clip-path="url(#clip1_750_7869)">
<path d="M197 36.1849C192.781 36.1849 189.346 39.5783 189.346 43.7468C189.346 47.9152 192.781 51.3086 197 51.3086C201.219 51.3086 204.654 47.9152 204.654 43.7468C204.654 39.5783 201.219 36.1849 197 36.1849Z" fill="#F4F4F6"/>
<path d="M211.326 28.4935H207.483C206.847 28.4935 206.275 28.1463 205.99 27.5816L204.748 25.127C204.085 23.8141 202.749 23 201.266 23H192.729C191.244 23 189.913 23.8141 189.247 25.127L188.005 27.5816C187.72 28.1439 187.148 28.4935 186.512 28.4935H182.672C178.992 28.4935 176 31.4493 176 35.0848V52.4063C176 56.0418 178.992 58.9976 182.672 58.9976H211.326C215.006 58.9976 217.998 56.0393 217.998 52.4063V35.0848C217.998 31.4493 215.003 28.4935 211.326 28.4935ZM182.672 36.7326C181.751 36.7326 181.004 35.9942 181.004 35.0848C181.004 34.1753 181.751 33.4369 182.672 33.4369C183.592 33.4369 184.34 34.1753 184.34 35.0848C184.34 35.9942 183.592 36.7326 182.672 36.7326ZM197 53.504C191.553 53.504 187.121 49.1254 187.121 43.7443C187.121 38.3633 191.553 33.9846 197 33.9846C202.447 33.9846 206.879 38.3633 206.879 43.7443C206.879 49.1254 202.447 53.504 197 53.504Z" fill="#F4F4F6"/>
</g>
<g clip-path="url(#clip2_750_7869)">
<mask id="mask0_750_7869" style="mask-type:luminance" maskUnits="userSpaceOnUse" x="101" y="73" width="21" height="15">
<path d="M121.801 73.3204H101.199V87.3976H121.801V73.3204Z" fill="white"/>
</mask>
<g mask="url(#mask0_750_7869)">
<path d="M103.727 73.3204H101.199V76.1802H103.727V73.3204Z" fill="#F4F4F6"/>
<path d="M109.305 73.3204H106.776V76.1802H109.305V73.3204Z" fill="#F4F4F6"/>
<path d="M114.882 73.3204H112.354V76.1802H114.882V73.3204Z" fill="#F4F4F6"/>
<path d="M120.459 73.3204H117.931V76.1802H120.459V73.3204Z" fill="#F4F4F6"/>
<path d="M103.727 78.7408H101.199V81.6006H103.727V78.7408Z" fill="#F4F4F6"/>
<path d="M109.305 78.7408H106.776V81.6006H109.305V78.7408Z" fill="#F4F4F6"/>
<path d="M114.882 78.7408H112.354V81.6006H114.882V78.7408Z" fill="#F4F4F6"/>
<path d="M120.459 78.7408H117.931V81.6006H120.459V78.7408Z" fill="#F4F4F6"/>
<path d="M103.727 84.161H101.199V87.0208H103.727V84.161Z" fill="#F4F4F6"/>
<path d="M109.305 84.161H106.776V87.0208H109.305V84.161Z" fill="#F4F4F6"/>
<path d="M114.882 84.161H112.354V87.0208H114.882V84.161Z" fill="#F4F4F6"/>
</g>
<path d="M125.929 61.8847H122.544V59.4445C122.544 58.6467 121.897 58 121.099 58C120.301 58 119.654 58.6467 119.654 59.4445V61.8847H104.502V59.4445C104.502 58.6467 103.855 58 103.057 58C102.259 58 101.612 58.6467 101.612 59.4445V61.8847H97.0707C95.3777 61.8847 94 63.2617 94 64.9544V89.7174C94 91.41 95.3777 92.7871 97.0707 92.7871H125.929C127.623 92.7871 129 91.4099 129 89.7174V64.9544C129 63.2617 127.623 61.8847 125.929 61.8847ZM125.929 90.3624H97.0707C96.7149 90.3624 96.4255 90.0731 96.4255 89.7174V69.907H126.574V89.7174C126.574 90.0731 126.285 90.3624 125.929 90.3624Z" fill="#F4F4F6"/>
</g>
<path d="M279.649 73.3955L272.833 81.7373L265.284 80.915L267.829 63.4795L279.649 73.3955Z" fill="#F4F4F6" stroke="#642F88" stroke-width="0.5"/>
<path d="M281.245 92.9258L278.091 97.4326L276.742 92.9365L274.273 83.5547L280.407 75.6846L281.245 92.9258Z" fill="#F4F4F6" stroke="#642F88" stroke-width="0.5"/>
<path d="M272.314 84.0625L276.517 96.3594L271.439 92.8271L265.965 83.3066L272.314 84.0625Z" fill="#F4F4F6" stroke="#642F88" stroke-width="0.5"/>
<path d="M289.744 77.1934L283.193 90.5361L282.257 74.6035L288.91 68.5215L289.744 77.1934Z" fill="#F4F4F6" stroke="#642F88" stroke-width="0.5"/>
<path d="M295.074 68.25L296.694 72.6943L291.202 76.0811L290.281 68.25H295.074Z" fill="#F4F4F6" stroke="#642F88" stroke-width="0.5"/>
<path d="M291.729 85.2803L284.311 91.9355L291.193 78.1709L296.423 74.6846L291.729 85.2803Z" fill="#F4F4F6" stroke="#642F88" stroke-width="0.5"/>
<path d="M284.299 59.457L284.302 59.4658L284.306 59.4736L287.697 66.9385L281.486 72.6719L275.293 67.8008L281.076 50.748L284.299 59.457Z" fill="#F4F4F6" stroke="#642F88" stroke-width="0.5"/>
<path d="M342.078 88.3429C348.055 89.8037 354.392 89.6701 360.314 88L367 92.8L358.919 93.4136C353.778 93.804 348.615 93.7962 343.475 93.3903L336 92.8L342.078 88.3429Z" fill="white"/>
<path d="M350.5 56C360.045 56 367 63.3703 367 72.5C367 77.2612 366.217 81.3469 363.857 84.2422C361.533 87.0942 357.501 89 350.5 89C343.499 89 339.467 87.0942 337.143 84.2422C334.783 81.3469 334 77.2612 334 72.5C334 63.3703 340.955 56 350.5 56Z" stroke="white" stroke-width="2"/>
<path d="M350.5 62C356.89 62 362 66.963 362 73C362 76.2035 361.343 78.9174 359.672 80.8271C358.023 82.711 355.22 84 350.5 84C345.78 84 342.977 82.711 341.328 80.8271C339.657 78.9174 339 76.2035 339 73C339 66.963 344.11 62 350.5 62Z" stroke="white" stroke-width="2"/>
<rect x="332" y="71" width="2" height="6" rx="1" stroke="white" stroke-width="2"/>
<rect x="367" y="71" width="2" height="6" rx="1" stroke="white" stroke-width="2"/>
<path d="M350 66C347.812 66.7018 343.35 69.2842 343 74" stroke="white" stroke-width="2" stroke-linecap="round"/>
<path d="M38.5 54.9004C42.5008 57.633 45.2836 61.8206 46.25 66.5771V89.25H30.75V66.5771C31.7164 61.8206 34.4992 57.633 38.5 54.9004Z" fill="white" stroke="white" stroke-width="1.5"/>
<circle cx="39" cy="73" r="3.25" stroke="#642F88" stroke-width="1.5"/>
<path d="M46.75 76.5684C50.2299 79.6575 52.25 84.1051 52.25 88.8066V89.7568L46.75 86.8564V76.5684Z" stroke="white" stroke-width="1.5"/>
<path d="M30.25 76.4443C26.1737 79.5749 23.75 84.4392 23.75 89.6318V89.8281L30.25 86.8281V76.4443Z" stroke="white" stroke-width="1.5"/>
<path d="M44.3496 89.75L45.1357 95.25H32.8643L33.6504 89.75H44.3496Z" stroke="white" stroke-width="1.5"/>
<path d="M34 61C35.6364 61.7546 39.7273 62.8111 43 61" stroke="#642F88" stroke-width="1.5" stroke-linecap="round"/>
<defs>
<clipPath id="clip0_750_7869">
<rect width="42" height="36" fill="white" transform="translate(177 22)"/>
</clipPath>
<clipPath id="clip1_750_7869">
<rect width="42" height="36" fill="white" transform="translate(176 23)"/>
</clipPath>
<clipPath id="clip2_750_7869">
<rect width="35" height="34.7872" fill="white" transform="translate(94 58)"/>
</clipPath>
</defs>
</svg>
