<svg width="45" height="15" viewBox="0 0 45 15" fill="none" xmlns="http://www.w3.org/2000/svg">
<path d="M-6.03497e-06 9.67995V7.59995H5.49999V9.67995H-6.03497e-06ZM15.133 14.4C14.0396 14.4 13.033 14.22 12.113 13.86C11.193 13.5 10.393 13 9.71296 12.36C9.03296 11.7066 8.5063 10.9466 8.13296 10.08C7.75963 9.19995 7.57296 8.23995 7.57296 7.19995C7.57296 6.15995 7.75963 5.20662 8.13296 4.33995C8.5063 3.45995 9.03296 2.69995 9.71296 2.05995C10.393 1.40662 11.193 0.899951 12.113 0.539951C13.033 0.17995 14.033 -4.95911e-05 15.113 -4.95911e-05C16.2063 -4.95911e-05 17.2063 0.17995 18.113 0.539951C19.033 0.899951 19.833 1.40662 20.513 2.05995C21.193 2.69995 21.7196 3.45995 22.093 4.33995C22.4663 5.20662 22.653 6.15995 22.653 7.19995C22.653 8.23995 22.4663 9.19995 22.093 10.08C21.7196 10.96 21.193 11.72 20.513 12.36C19.833 13 19.033 13.5 18.113 13.86C17.2063 14.22 16.213 14.4 15.133 14.4ZM15.113 12.12C15.8196 12.12 16.473 12 17.073 11.76C17.673 11.52 18.193 11.18 18.633 10.74C19.073 10.2866 19.413 9.76662 19.653 9.17995C19.9063 8.57995 20.033 7.91995 20.033 7.19995C20.033 6.47995 19.9063 5.82662 19.653 5.23995C19.413 4.63995 19.073 4.11995 18.633 3.67995C18.193 3.22662 17.673 2.87995 17.073 2.63995C16.473 2.39995 15.8196 2.27995 15.113 2.27995C14.4063 2.27995 13.753 2.39995 13.153 2.63995C12.5663 2.87995 12.0463 3.22662 11.593 3.67995C11.153 4.11995 10.8063 4.63995 10.553 5.23995C10.313 5.82662 10.193 6.47995 10.193 7.19995C10.193 7.90662 10.313 8.55995 10.553 9.15995C10.8063 9.75995 11.153 10.2866 11.593 10.74C12.033 11.18 12.553 11.52 13.153 11.76C13.753 12 14.4063 12.12 15.113 12.12ZM25.4089 14.2V0.19995H31.1689C32.4089 0.19995 33.4689 0.39995 34.3489 0.799951C35.2422 1.19995 35.9289 1.77328 36.4089 2.51995C36.8889 3.26662 37.1289 4.15328 37.1289 5.17995C37.1289 6.20662 36.8889 7.09328 36.4089 7.83995C35.9289 8.57328 35.2422 9.13995 34.3489 9.53995C33.4689 9.92662 32.4089 10.12 31.1689 10.12H26.8489L28.0089 8.93995V14.2H25.4089ZM34.5689 14.2L31.0289 9.11995H33.8089L37.3689 14.2H34.5689ZM28.0089 9.21995L26.8489 7.97995H31.0489C32.1956 7.97995 33.0556 7.73328 33.6289 7.23995C34.2156 6.74662 34.5089 6.05995 34.5089 5.17995C34.5089 4.28662 34.2156 3.59995 33.6289 3.11995C33.0556 2.63995 32.1956 2.39995 31.0489 2.39995H26.8489L28.0089 1.11995V9.21995ZM39.2383 9.67995V7.59995H44.7383V9.67995H39.2383Z" fill="#CEB1E8"/>
</svg>
