<svg width="241" height="52" viewBox="0 0 241 52" fill="none" xmlns="http://www.w3.org/2000/svg">
<rect x="2.11133" y="2.11133" width="236" height="47" rx="23.5" fill="#401A79" stroke="url(#paint0_linear_1514_1930)" stroke-width="4.2227"/>
<path d="M58.7509 4.22339H93.1792L57.6403 46.9986H23.2121L58.7509 4.22339Z" fill="#894697" fill-opacity="0.49"/>
<path d="M79.0205 32.8355C79.0772 32.9716 79.1056 33.0793 79.1056 33.1587C79.1056 33.4536 79.0035 33.7087 78.7994 33.9242C78.6066 34.1283 78.3628 34.2304 78.0679 34.2304C77.8638 34.2304 77.671 34.1737 77.4895 34.0603C77.3194 33.9469 77.1946 33.7938 77.1153 33.601L75.7884 30.1647H70.5999L69.29 33.618C69.2219 33.7995 69.0972 33.9469 68.9157 34.0603C68.7456 34.1737 68.5528 34.2304 68.3373 34.2304C68.0425 34.2304 67.7987 34.1283 67.6059 33.9242C67.4131 33.7201 67.3167 33.4762 67.3167 33.1927C67.3167 33.102 67.345 32.9886 67.4017 32.8525L72.318 20.9104C72.4088 20.695 72.5278 20.5305 72.6753 20.4171C72.834 20.3037 72.9985 20.247 73.1686 20.247C73.3614 20.247 73.5429 20.3037 73.713 20.4171C73.8831 20.5305 74.0135 20.7006 74.1042 20.9275L79.0205 32.8355ZM73.0495 23.7684L71.3314 28.2764H75.0569L73.3217 23.7684L73.1856 23.292L73.0495 23.7684ZM89.2746 20.5022C89.5581 20.5022 89.7963 20.6042 89.9891 20.8084C90.1932 21.0012 90.2953 21.2393 90.2953 21.5229C90.2953 21.8064 90.1932 22.0502 89.9891 22.2543C89.7963 22.4471 89.5581 22.5435 89.2746 22.5435H85.8213V33.3288C85.8213 33.6123 85.7079 33.8562 85.481 34.0603C85.2656 34.2531 85.0104 34.3495 84.7155 34.3495C84.4207 34.3495 84.1655 34.2531 83.95 34.0603C83.7345 33.8562 83.6268 33.6123 83.6268 33.3288V22.5435H80.1564C79.8729 22.5435 79.6291 22.4471 79.425 22.2543C79.2322 22.0502 79.1358 21.8064 79.1358 21.5229C79.1358 21.2393 79.2322 21.0012 79.425 20.8084C79.6291 20.6042 79.8729 20.5022 80.1564 20.5022H89.2746ZM101.668 20.5022C101.951 20.5022 102.189 20.6042 102.382 20.8084C102.586 21.0012 102.688 21.2393 102.688 21.5229C102.688 21.8064 102.586 22.0502 102.382 22.2543C102.189 22.4471 101.951 22.5435 101.668 22.5435H98.2144V33.3288C98.2144 33.6123 98.101 33.8562 97.8741 34.0603C97.6587 34.2531 97.4035 34.3495 97.1086 34.3495C96.8138 34.3495 96.5586 34.2531 96.3431 34.0603C96.1276 33.8562 96.0199 33.6123 96.0199 33.3288V22.5435H92.5496C92.266 22.5435 92.0222 22.4471 91.8181 22.2543C91.6253 22.0502 91.5289 21.8064 91.5289 21.5229C91.5289 21.2393 91.6253 21.0012 91.8181 20.8084C92.0222 20.6042 92.266 20.5022 92.5496 20.5022H101.668ZM115.745 30.692C116.028 30.692 116.267 30.7941 116.459 30.9982C116.664 31.191 116.766 31.4292 116.766 31.7127C116.766 31.9849 116.669 32.2287 116.476 32.4442C115.955 32.9999 115.223 33.4592 114.282 33.8221C113.341 34.1737 112.405 34.3495 111.475 34.3495C110.125 34.3495 108.906 34.0546 107.818 33.4649C106.729 32.8752 105.873 32.0473 105.249 30.9812C104.625 29.9152 104.313 28.6903 104.313 27.3067C104.313 25.9345 104.625 24.7097 105.249 23.6323C105.873 22.5549 106.729 21.7213 107.818 21.1316C108.906 20.5305 110.125 20.23 111.475 20.23C112.405 20.23 113.335 20.4171 114.265 20.7914C115.195 21.1656 115.926 21.6589 116.459 22.2714C116.652 22.4982 116.749 22.742 116.749 23.0029C116.749 23.2864 116.647 23.5302 116.442 23.7343C116.238 23.9271 115.994 24.0235 115.711 24.0235C115.575 24.0235 115.439 23.9952 115.303 23.9385C115.167 23.8818 115.059 23.8024 114.979 23.7003C114.651 23.3034 114.163 22.9915 113.516 22.7647C112.87 22.5379 112.19 22.4245 111.475 22.4245C110.216 22.4245 109.156 22.742 108.294 23.3771C107.443 24.0009 106.893 24.8798 106.644 26.0139H111.951C112.235 26.0139 112.473 26.1159 112.666 26.3201C112.87 26.5129 112.972 26.751 112.972 27.0346C112.972 27.3181 112.87 27.5619 112.666 27.7661C112.473 27.9589 112.235 28.0553 111.951 28.0553H106.559C106.706 29.3368 107.222 30.3461 108.107 31.0833C109.003 31.8091 110.125 32.172 111.475 32.172C112.258 32.172 112.972 32.07 113.618 31.8658C114.265 31.6617 114.719 31.3952 114.979 31.0663C115.07 30.9529 115.184 30.8621 115.32 30.7941C115.467 30.7261 115.609 30.692 115.745 30.692ZM119.996 34.3835C119.701 34.3835 119.446 34.2814 119.23 34.0773C119.015 33.8732 118.907 33.635 118.907 33.3628V21.3868C118.907 21.0919 119.021 20.8367 119.247 20.6213C119.486 20.3944 119.763 20.281 120.081 20.281C120.433 20.281 120.727 20.4341 120.966 20.7403L128.621 30.1647L128.757 30.4369V21.1656C128.757 20.8934 128.865 20.6553 129.08 20.4511C129.296 20.247 129.551 20.1449 129.846 20.1449C130.14 20.1449 130.396 20.247 130.611 20.4511C130.838 20.6553 130.951 20.8934 130.951 21.1656V33.0566C130.951 33.3515 130.832 33.6123 130.594 33.8391C130.356 34.0546 130.078 34.1624 129.76 34.1624C129.602 34.1624 129.443 34.1227 129.284 34.0433C129.125 33.9526 128.989 33.8391 128.876 33.7031L121.238 24.3297L121.102 24.0406V33.3628C121.102 33.635 120.988 33.8732 120.761 34.0773C120.546 34.2814 120.291 34.3835 119.996 34.3835ZM134.833 34.2644C134.504 34.2644 134.226 34.1624 133.999 33.9582C133.784 33.7427 133.676 33.4819 133.676 33.1757V21.4378C133.676 21.1316 133.784 20.8764 133.999 20.6723C134.226 20.4568 134.504 20.3491 134.833 20.3491H137.657C139.108 20.3491 140.424 20.6383 141.603 21.2167C142.783 21.795 143.707 22.5946 144.376 23.6153C145.057 24.6246 145.397 25.77 145.397 27.0516C145.397 28.3785 145.057 29.592 144.376 30.692C143.696 31.7921 142.766 32.6654 141.586 33.3118C140.407 33.9469 139.097 34.2644 137.657 34.2644H134.833ZM135.87 32.07H137.657C138.723 32.07 139.675 31.8658 140.515 31.4575C141.365 31.0379 142.023 30.4482 142.488 29.6884C142.964 28.9285 143.202 28.0496 143.202 27.0516C143.202 26.1556 142.964 25.3674 142.488 24.687C142.023 24.0065 141.365 23.4792 140.515 23.1049C139.675 22.7307 138.723 22.5435 137.657 22.5435H135.87V32.07ZM158.872 30.692C159.155 30.692 159.393 30.7941 159.586 30.9982C159.79 31.191 159.892 31.4292 159.892 31.7127C159.892 31.9849 159.796 32.2287 159.603 32.4442C159.081 32.9999 158.35 33.4592 157.409 33.8221C156.467 34.1737 155.532 34.3495 154.602 34.3495C153.252 34.3495 152.033 34.0546 150.944 33.4649C149.856 32.8752 148.999 32.0473 148.376 30.9812C147.752 29.9152 147.44 28.6903 147.44 27.3067C147.44 25.9345 147.752 24.7097 148.376 23.6323C148.999 22.5549 149.856 21.7213 150.944 21.1316C152.033 20.5305 153.252 20.23 154.602 20.23C155.532 20.23 156.462 20.4171 157.392 20.7914C158.322 21.1656 159.053 21.6589 159.586 22.2714C159.779 22.4982 159.875 22.742 159.875 23.0029C159.875 23.2864 159.773 23.5302 159.569 23.7343C159.365 23.9271 159.121 24.0235 158.838 24.0235C158.701 24.0235 158.565 23.9952 158.429 23.9385C158.293 23.8818 158.185 23.8024 158.106 23.7003C157.777 23.3034 157.29 22.9915 156.643 22.7647C155.997 22.5379 155.316 22.4245 154.602 22.4245C153.343 22.4245 152.282 22.742 151.421 23.3771C150.57 24.0009 150.02 24.8798 149.77 26.0139H155.078C155.362 26.0139 155.6 26.1159 155.793 26.3201C155.997 26.5129 156.099 26.751 156.099 27.0346C156.099 27.3181 155.997 27.5619 155.793 27.7661C155.6 27.9589 155.362 28.0553 155.078 28.0553H149.685C149.833 29.3368 150.349 30.3461 151.233 31.0833C152.129 31.8091 153.252 32.172 154.602 32.172C155.384 32.172 156.099 32.07 156.745 31.8658C157.392 31.6617 157.845 31.3952 158.106 31.0663C158.197 30.9529 158.31 30.8621 158.446 30.7941C158.594 30.7261 158.736 30.692 158.872 30.692ZM173.125 30.692C173.409 30.692 173.647 30.7941 173.84 30.9982C174.044 31.191 174.146 31.4292 174.146 31.7127C174.146 31.9849 174.05 32.2287 173.857 32.4442C173.335 32.9999 172.604 33.4592 171.662 33.8221C170.721 34.1737 169.785 34.3495 168.855 34.3495C167.506 34.3495 166.287 34.0546 165.198 33.4649C164.109 32.8752 163.253 32.0473 162.629 30.9812C162.006 29.9152 161.694 28.6903 161.694 27.3067C161.694 25.9345 162.006 24.7097 162.629 23.6323C163.253 22.5549 164.109 21.7213 165.198 21.1316C166.287 20.5305 167.506 20.23 168.855 20.23C169.785 20.23 170.715 20.4171 171.645 20.7914C172.575 21.1656 173.307 21.6589 173.84 22.2714C174.033 22.4982 174.129 22.742 174.129 23.0029C174.129 23.2864 174.027 23.5302 173.823 23.7343C173.619 23.9271 173.375 24.0235 173.091 24.0235C172.955 24.0235 172.819 23.9952 172.683 23.9385C172.547 23.8818 172.439 23.8024 172.36 23.7003C172.031 23.3034 171.543 22.9915 170.897 22.7647C170.25 22.5379 169.57 22.4245 168.855 22.4245C167.597 22.4245 166.536 22.742 165.674 23.3771C164.824 24.0009 164.274 24.8798 164.024 26.0139H169.332C169.615 26.0139 169.853 26.1159 170.046 26.3201C170.25 26.5129 170.352 26.751 170.352 27.0346C170.352 27.3181 170.25 27.5619 170.046 27.7661C169.853 27.9589 169.615 28.0553 169.332 28.0553H163.939C164.087 29.3368 164.603 30.3461 165.487 31.0833C166.383 31.8091 167.506 32.172 168.855 32.172C169.638 32.172 170.352 32.07 170.999 31.8658C171.645 31.6617 172.099 31.3952 172.36 31.0663C172.451 30.9529 172.564 30.8621 172.7 30.7941C172.847 30.7261 172.989 30.692 173.125 30.692Z" fill="white"/>
<defs>
<linearGradient id="paint0_linear_1514_1930" x1="2.11133" y1="25.6113" x2="238.111" y2="25.6113" gradientUnits="userSpaceOnUse">
<stop stop-color="#A315D6"/>
<stop offset="0.514423" stop-color="#FDAB60"/>
<stop offset="1" stop-color="#A315D6"/>
</linearGradient>
</defs>
</svg>
