<svg width="212" height="45" viewBox="0 0 212 45" fill="none" xmlns="http://www.w3.org/2000/svg">
<rect x="1.25" y="1.25" width="209" height="42" rx="21" stroke="#CEB1E8" stroke-width="2.5"/>
<path d="M81.7545 30.6583C80.4049 30.6583 79.1914 30.3577 78.114 29.7567C77.048 29.1556 76.2087 28.3107 75.5963 27.222C74.9953 26.1219 74.6947 24.8687 74.6947 23.4624C74.6947 22.1129 75.0179 20.8994 75.6644 19.822C76.3108 18.7333 77.1897 17.8827 78.3011 17.2703C79.4126 16.6465 80.6487 16.3346 82.0096 16.3346C82.9623 16.3346 83.9319 16.5388 84.9186 16.947C85.9053 17.3553 86.6651 17.8883 87.1981 18.5461C87.2662 18.6369 87.3229 18.7446 87.3682 18.8693C87.4136 18.9828 87.4363 19.0905 87.4363 19.1926C87.4363 19.4761 87.3399 19.7199 87.1471 19.9241C86.9543 20.1168 86.7105 20.2132 86.4156 20.2132C86.2909 20.2132 86.1491 20.1792 85.9903 20.1112C85.8429 20.0431 85.7295 19.9581 85.6501 19.856C85.3099 19.4477 84.7712 19.1018 84.034 18.8183C83.2968 18.5234 82.6221 18.376 82.0096 18.376C81.0457 18.376 80.1724 18.5915 79.3899 19.0224C78.6074 19.4534 77.9949 20.0545 77.5526 20.8257C77.1103 21.5968 76.8892 22.4758 76.8892 23.4624C76.8892 24.4945 77.0933 25.3904 77.5016 26.1502C77.9099 26.9101 78.4769 27.4885 79.2028 27.8854C79.9399 28.2823 80.7905 28.4808 81.7545 28.4808C82.571 28.4808 83.2912 28.3787 83.9149 28.1746C84.55 27.9591 85.0377 27.6699 85.3779 27.307C85.7295 26.9328 85.9053 26.5188 85.9053 26.0652C85.9053 25.5435 85.7238 25.1239 85.3609 24.8063C85.0093 24.4774 84.5273 24.313 83.9149 24.313C83.4046 24.313 82.8545 24.347 82.2648 24.4151C82.2081 24.4264 82.106 24.4321 81.9586 24.4321C81.6411 24.4321 81.3859 24.347 81.1931 24.1769C81.0003 24.0068 80.9039 23.7743 80.9039 23.4794C80.9039 22.8784 81.3178 22.5098 82.1457 22.3737C82.3045 22.351 82.5597 22.3283 82.9113 22.3057C83.2742 22.283 83.5974 22.2716 83.8809 22.2716C84.6975 22.2716 85.4119 22.4361 86.0243 22.765C86.6368 23.0825 87.1074 23.5305 87.4363 24.1089C87.7765 24.6759 87.9466 25.328 87.9466 26.0652C87.9466 26.9158 87.6801 27.6926 87.1471 28.3958C86.6141 29.0989 85.8712 29.6546 84.9186 30.0629C83.9773 30.4598 82.9226 30.6583 81.7545 30.6583ZM98.6599 17.5084C98.6599 17.2249 98.7676 16.9867 98.9831 16.7939C99.1986 16.5898 99.4537 16.4877 99.7486 16.4877C100.043 16.4877 100.299 16.5898 100.514 16.7939C100.741 16.9867 100.854 17.2249 100.854 17.5084V24.8233C100.854 26.0028 100.639 27.0292 100.208 27.9024C99.7769 28.7643 99.1532 29.4278 98.3366 29.8928C97.5314 30.3577 96.5731 30.5902 95.4617 30.5902C94.3503 30.5902 93.392 30.3577 92.5868 29.8928C91.7816 29.4278 91.1635 28.7643 90.7325 27.9024C90.3016 27.0292 90.0861 26.0028 90.0861 24.8233V17.3553C90.0861 17.0718 90.1938 16.8336 90.4093 16.6408C90.6248 16.4367 90.88 16.3346 91.1748 16.3346C91.4697 16.3346 91.7249 16.4367 91.9403 16.6408C92.1672 16.8336 92.2806 17.0718 92.2806 17.3553V24.8233C92.2806 25.9461 92.5584 26.825 93.1141 27.4601C93.6812 28.0839 94.4637 28.3958 95.4617 28.3958C96.4711 28.3958 97.2536 28.0839 97.8093 27.4601C98.3763 26.825 98.6599 25.9461 98.6599 24.8233V17.5084ZM114.667 26.8307C114.951 26.8307 115.189 26.9328 115.382 27.1369C115.586 27.3297 115.688 27.5679 115.688 27.8514C115.688 28.1236 115.591 28.3674 115.399 28.5829C114.877 29.1386 114.145 29.5979 113.204 29.9608C112.263 30.3124 111.327 30.4882 110.397 30.4882C109.048 30.4882 107.828 30.1933 106.74 29.6036C105.651 29.0138 104.795 28.1859 104.171 27.1199C103.547 26.0538 103.235 24.829 103.235 23.4454C103.235 22.0732 103.547 20.8483 104.171 19.7709C104.795 18.6936 105.651 17.86 106.74 17.2703C107.828 16.6692 109.048 16.3687 110.397 16.3687C111.327 16.3687 112.257 16.5558 113.187 16.93C114.117 17.3043 114.849 17.7976 115.382 18.41C115.574 18.6369 115.671 18.8807 115.671 19.1415C115.671 19.425 115.569 19.6689 115.365 19.873C115.16 20.0658 114.917 20.1622 114.633 20.1622C114.497 20.1622 114.361 20.1339 114.225 20.0772C114.089 20.0204 113.981 19.9411 113.902 19.839C113.573 19.4421 113.085 19.1302 112.439 18.9034C111.792 18.6765 111.112 18.5631 110.397 18.5631C109.138 18.5631 108.078 18.8807 107.216 19.5158C106.366 20.1395 105.815 21.0185 105.566 22.1526H110.874C111.157 22.1526 111.395 22.2546 111.588 22.4588C111.792 22.6516 111.894 22.8897 111.894 23.1732C111.894 23.4568 111.792 23.7006 111.588 23.9047C111.395 24.0975 111.157 24.1939 110.874 24.1939H105.481C105.628 25.4755 106.144 26.4848 107.029 27.222C107.925 27.9478 109.048 28.3107 110.397 28.3107C111.18 28.3107 111.894 28.2086 112.541 28.0045C113.187 27.8004 113.641 27.5338 113.902 27.205C113.992 27.0915 114.106 27.0008 114.242 26.9328C114.389 26.8647 114.531 26.8307 114.667 26.8307ZM121.912 30.5732C121.028 30.5732 120.188 30.3577 119.394 29.9268C118.601 29.4845 117.977 28.8948 117.523 28.1576C117.432 27.9988 117.387 27.8117 117.387 27.5962C117.387 27.2446 117.472 26.9668 117.642 26.7627C117.824 26.5585 118.062 26.4564 118.357 26.4564C118.606 26.4564 118.822 26.5075 119.003 26.6096C119.185 26.7116 119.343 26.8761 119.479 27.1029C119.695 27.4658 120.03 27.7663 120.483 28.0045C120.948 28.2313 121.424 28.3447 121.912 28.3447C123.545 28.3447 124.362 27.7777 124.362 26.6436C124.362 26.1559 124.158 25.7136 123.749 25.3167C123.352 24.9197 122.717 24.5171 121.844 24.1089C120.812 23.6325 120.007 23.2016 119.428 22.816C118.861 22.4191 118.453 21.9994 118.204 21.5572C117.954 21.1035 117.829 20.5705 117.829 19.9581C117.829 19.2549 118.016 18.6312 118.391 18.0868C118.765 17.5311 119.281 17.1002 119.939 16.7939C120.597 16.4764 121.334 16.3176 122.15 16.3176C123.058 16.3176 123.891 16.5218 124.651 16.93C125.411 17.327 125.989 17.8713 126.386 18.5631C126.5 18.7446 126.556 18.9317 126.556 19.1245C126.556 19.3967 126.466 19.6349 126.284 19.839C126.114 20.0431 125.898 20.1452 125.638 20.1452C125.445 20.1452 125.246 20.0942 125.042 19.9921C124.838 19.8787 124.679 19.7426 124.566 19.5838C124.305 19.2209 123.976 18.9544 123.579 18.7843C123.194 18.6142 122.717 18.5291 122.15 18.5291C121.481 18.5291 120.954 18.6539 120.568 18.9034C120.194 19.1415 120.007 19.4931 120.007 19.9581C120.007 20.2416 120.075 20.4798 120.211 20.6726C120.358 20.854 120.602 21.0411 120.942 21.2339C121.294 21.4267 121.867 21.7046 122.661 22.0675C124.044 22.7139 125.037 23.3887 125.638 24.0919C126.25 24.795 126.556 25.6456 126.556 26.6436C126.556 27.4261 126.363 28.1179 125.978 28.719C125.592 29.3087 125.048 29.768 124.345 30.0969C123.642 30.4144 122.831 30.5732 121.912 30.5732ZM138.201 16.6408C138.485 16.6408 138.723 16.7429 138.916 16.947C139.12 17.1398 139.222 17.378 139.222 17.6615C139.222 17.9451 139.12 18.1889 138.916 18.393C138.723 18.5858 138.485 18.6822 138.201 18.6822H134.748V29.4675C134.748 29.751 134.634 29.9948 134.408 30.199C134.192 30.3918 133.937 30.4882 133.642 30.4882C133.347 30.4882 133.092 30.3918 132.877 30.199C132.661 29.9948 132.553 29.751 132.553 29.4675V18.6822H129.083C128.799 18.6822 128.556 18.5858 128.351 18.393C128.159 18.1889 128.062 17.9451 128.062 17.6615C128.062 17.378 128.159 17.1398 128.351 16.947C128.556 16.7429 128.799 16.6408 129.083 16.6408H138.201Z" fill="white"/>
</svg>
