<svg width="302" height="134" viewBox="0 0 302 134" fill="none" xmlns="http://www.w3.org/2000/svg">
<g filter="url(#filter0_f_1518_1275)">
<path d="M97.1008 16.2H107.793V54H97.1008V16.2ZM82.5208 54H71.8288V16.2H82.5208V54ZM97.8568 39.258H81.7648V30.402H97.8568V39.258ZM110.799 54L127.485 16.2H138.015L154.755 54H143.631L130.563 21.438H134.775L121.707 54H110.799ZM119.925 46.656L122.679 38.772H141.147L143.901 46.656H119.925ZM176.105 54.756C173.117 54.756 170.345 54.288 167.789 53.352C165.269 52.38 163.073 51.012 161.201 49.248C159.365 47.484 157.925 45.414 156.881 43.038C155.837 40.626 155.315 37.98 155.315 35.1C155.315 32.22 155.837 29.592 156.881 27.216C157.925 24.804 159.365 22.716 161.201 20.952C163.073 19.188 165.269 17.838 167.789 16.902C170.345 15.93 173.117 15.444 176.105 15.444C179.597 15.444 182.711 16.056 185.447 17.28C188.219 18.504 190.523 20.268 192.359 22.572L185.555 28.728C184.331 27.288 182.981 26.19 181.505 25.434C180.065 24.678 178.445 24.3 176.645 24.3C175.097 24.3 173.675 24.552 172.379 25.056C171.083 25.56 169.967 26.298 169.031 27.27C168.131 28.206 167.411 29.34 166.871 30.672C166.367 32.004 166.115 33.48 166.115 35.1C166.115 36.72 166.367 38.196 166.871 39.528C167.411 40.86 168.131 42.012 169.031 42.984C169.967 43.92 171.083 44.64 172.379 45.144C173.675 45.648 175.097 45.9 176.645 45.9C178.445 45.9 180.065 45.522 181.505 44.766C182.981 44.01 184.331 42.912 185.555 41.472L192.359 47.628C190.523 49.896 188.219 51.66 185.447 52.92C182.711 54.144 179.597 54.756 176.105 54.756ZM206.684 45.63L206.09 33.642L222.344 16.2H234.116L217.916 33.75L211.976 39.96L206.684 45.63ZM197.126 54V16.2H207.71V54H197.126ZM222.506 54L210.194 38.394L217.16 30.942L234.926 54H222.506ZM32.3044 123V85.2H42.9964V123H32.3044ZM50.6032 123V85.2H61.2952V114.522H79.3312V123H50.6032ZM83.5622 123V85.2H94.2542V114.522H112.29V123H83.5622ZM116.521 123V85.2H127.213V123H116.521ZM134.82 123V85.2H143.622L164.466 110.364H160.308V85.2H170.784V123H161.982L141.138 97.836H145.296V123H134.82ZM197.388 123.756C194.364 123.756 191.574 123.27 189.018 122.298C186.462 121.326 184.23 119.958 182.322 118.194C180.45 116.394 178.992 114.306 177.948 111.93C176.904 109.554 176.382 106.944 176.382 104.1C176.382 101.256 176.904 98.646 177.948 96.27C178.992 93.894 180.45 91.824 182.322 90.06C184.23 88.26 186.462 86.874 189.018 85.902C191.574 84.93 194.364 84.444 197.388 84.444C200.448 84.444 203.238 84.93 205.758 85.902C208.314 86.874 210.528 88.26 212.4 90.06C214.272 91.824 215.73 93.894 216.774 96.27C217.854 98.646 218.394 101.256 218.394 104.1C218.394 106.944 217.854 109.572 216.774 111.984C215.73 114.36 214.272 116.43 212.4 118.194C210.528 119.958 208.314 121.326 205.758 122.298C203.238 123.27 200.448 123.756 197.388 123.756ZM197.388 114.9C198.828 114.9 200.16 114.648 201.384 114.144C202.644 113.64 203.724 112.92 204.624 111.984C205.56 111.012 206.28 109.86 206.784 108.528C207.324 107.196 207.594 105.72 207.594 104.1C207.594 102.444 207.324 100.968 206.784 99.672C206.28 98.34 205.56 97.206 204.624 96.27C203.724 95.298 202.644 94.56 201.384 94.056C200.16 93.552 198.828 93.3 197.388 93.3C195.948 93.3 194.598 93.552 193.338 94.056C192.114 94.56 191.034 95.298 190.098 96.27C189.198 97.206 188.478 98.34 187.938 99.672C187.434 100.968 187.182 102.444 187.182 104.1C187.182 105.72 187.434 107.196 187.938 108.528C188.478 109.86 189.198 111.012 190.098 111.984C191.034 112.92 192.114 113.64 193.338 114.144C194.598 114.648 195.948 114.9 197.388 114.9ZM223.994 123V85.2H234.686V123H223.994ZM255.577 123.756C252.481 123.756 249.493 123.378 246.613 122.622C243.769 121.83 241.447 120.822 239.647 119.598L243.157 111.714C244.849 112.794 246.793 113.694 248.989 114.414C251.221 115.098 253.435 115.44 255.631 115.44C257.107 115.44 258.295 115.314 259.195 115.062C260.095 114.774 260.743 114.414 261.139 113.982C261.571 113.514 261.787 112.974 261.787 112.362C261.787 111.498 261.391 110.814 260.599 110.31C259.807 109.806 258.781 109.392 257.521 109.068C256.261 108.744 254.857 108.42 253.309 108.096C251.797 107.772 250.267 107.358 248.719 106.854C247.207 106.35 245.821 105.702 244.561 104.91C243.301 104.082 242.275 103.02 241.483 101.724C240.691 100.392 240.295 98.718 240.295 96.702C240.295 94.434 240.907 92.382 242.131 90.546C243.391 88.71 245.263 87.234 247.747 86.118C250.231 85.002 253.327 84.444 257.035 84.444C259.519 84.444 261.949 84.732 264.325 85.308C266.737 85.848 268.879 86.658 270.751 87.738L267.457 95.676C265.657 94.704 263.875 93.984 262.111 93.516C260.347 93.012 258.637 92.76 256.981 92.76C255.505 92.76 254.317 92.922 253.417 93.246C252.517 93.534 251.869 93.93 251.473 94.434C251.077 94.938 250.879 95.514 250.879 96.162C250.879 96.99 251.257 97.656 252.013 98.16C252.805 98.628 253.831 99.024 255.091 99.348C256.387 99.636 257.791 99.942 259.303 100.266C260.851 100.59 262.381 101.004 263.893 101.508C265.441 101.976 266.845 102.624 268.105 103.452C269.365 104.244 270.373 105.306 271.129 106.638C271.921 107.934 272.317 109.572 272.317 111.552C272.317 113.748 271.687 115.782 270.427 117.654C269.203 119.49 267.349 120.966 264.865 122.082C262.417 123.198 259.321 123.756 255.577 123.756Z" fill="url(#paint0_linear_1518_1275)"/>
</g>
<path d="M96.1008 16.2H106.793V54H96.1008V16.2ZM81.5208 54H70.8288V16.2H81.5208V54ZM96.8568 39.258H80.7648V30.402H96.8568V39.258ZM109.799 54L126.485 16.2H137.015L153.755 54H142.631L129.563 21.438H133.775L120.707 54H109.799ZM118.925 46.656L121.679 38.772H140.147L142.901 46.656H118.925ZM175.105 54.756C172.117 54.756 169.345 54.288 166.789 53.352C164.269 52.38 162.073 51.012 160.201 49.248C158.365 47.484 156.925 45.414 155.881 43.038C154.837 40.626 154.315 37.98 154.315 35.1C154.315 32.22 154.837 29.592 155.881 27.216C156.925 24.804 158.365 22.716 160.201 20.952C162.073 19.188 164.269 17.838 166.789 16.902C169.345 15.93 172.117 15.444 175.105 15.444C178.597 15.444 181.711 16.056 184.447 17.28C187.219 18.504 189.523 20.268 191.359 22.572L184.555 28.728C183.331 27.288 181.981 26.19 180.505 25.434C179.065 24.678 177.445 24.3 175.645 24.3C174.097 24.3 172.675 24.552 171.379 25.056C170.083 25.56 168.967 26.298 168.031 27.27C167.131 28.206 166.411 29.34 165.871 30.672C165.367 32.004 165.115 33.48 165.115 35.1C165.115 36.72 165.367 38.196 165.871 39.528C166.411 40.86 167.131 42.012 168.031 42.984C168.967 43.92 170.083 44.64 171.379 45.144C172.675 45.648 174.097 45.9 175.645 45.9C177.445 45.9 179.065 45.522 180.505 44.766C181.981 44.01 183.331 42.912 184.555 41.472L191.359 47.628C189.523 49.896 187.219 51.66 184.447 52.92C181.711 54.144 178.597 54.756 175.105 54.756ZM205.684 45.63L205.09 33.642L221.344 16.2H233.116L216.916 33.75L210.976 39.96L205.684 45.63ZM196.126 54V16.2H206.71V54H196.126ZM221.506 54L209.194 38.394L216.16 30.942L233.926 54H221.506ZM31.3044 123V85.2H41.9964V123H31.3044ZM49.6032 123V85.2H60.2952V114.522H78.3312V123H49.6032ZM82.5622 123V85.2H93.2542V114.522H111.29V123H82.5622ZM115.521 123V85.2H126.213V123H115.521ZM133.82 123V85.2H142.622L163.466 110.364H159.308V85.2H169.784V123H160.982L140.138 97.836H144.296V123H133.82ZM196.388 123.756C193.364 123.756 190.574 123.27 188.018 122.298C185.462 121.326 183.23 119.958 181.322 118.194C179.45 116.394 177.992 114.306 176.948 111.93C175.904 109.554 175.382 106.944 175.382 104.1C175.382 101.256 175.904 98.646 176.948 96.27C177.992 93.894 179.45 91.824 181.322 90.06C183.23 88.26 185.462 86.874 188.018 85.902C190.574 84.93 193.364 84.444 196.388 84.444C199.448 84.444 202.238 84.93 204.758 85.902C207.314 86.874 209.528 88.26 211.4 90.06C213.272 91.824 214.73 93.894 215.774 96.27C216.854 98.646 217.394 101.256 217.394 104.1C217.394 106.944 216.854 109.572 215.774 111.984C214.73 114.36 213.272 116.43 211.4 118.194C209.528 119.958 207.314 121.326 204.758 122.298C202.238 123.27 199.448 123.756 196.388 123.756ZM196.388 114.9C197.828 114.9 199.16 114.648 200.384 114.144C201.644 113.64 202.724 112.92 203.624 111.984C204.56 111.012 205.28 109.86 205.784 108.528C206.324 107.196 206.594 105.72 206.594 104.1C206.594 102.444 206.324 100.968 205.784 99.672C205.28 98.34 204.56 97.206 203.624 96.27C202.724 95.298 201.644 94.56 200.384 94.056C199.16 93.552 197.828 93.3 196.388 93.3C194.948 93.3 193.598 93.552 192.338 94.056C191.114 94.56 190.034 95.298 189.098 96.27C188.198 97.206 187.478 98.34 186.938 99.672C186.434 100.968 186.182 102.444 186.182 104.1C186.182 105.72 186.434 107.196 186.938 108.528C187.478 109.86 188.198 111.012 189.098 111.984C190.034 112.92 191.114 113.64 192.338 114.144C193.598 114.648 194.948 114.9 196.388 114.9ZM222.994 123V85.2H233.686V123H222.994ZM254.577 123.756C251.481 123.756 248.493 123.378 245.613 122.622C242.769 121.83 240.447 120.822 238.647 119.598L242.157 111.714C243.849 112.794 245.793 113.694 247.989 114.414C250.221 115.098 252.435 115.44 254.631 115.44C256.107 115.44 257.295 115.314 258.195 115.062C259.095 114.774 259.743 114.414 260.139 113.982C260.571 113.514 260.787 112.974 260.787 112.362C260.787 111.498 260.391 110.814 259.599 110.31C258.807 109.806 257.781 109.392 256.521 109.068C255.261 108.744 253.857 108.42 252.309 108.096C250.797 107.772 249.267 107.358 247.719 106.854C246.207 106.35 244.821 105.702 243.561 104.91C242.301 104.082 241.275 103.02 240.483 101.724C239.691 100.392 239.295 98.718 239.295 96.702C239.295 94.434 239.907 92.382 241.131 90.546C242.391 88.71 244.263 87.234 246.747 86.118C249.231 85.002 252.327 84.444 256.035 84.444C258.519 84.444 260.949 84.732 263.325 85.308C265.737 85.848 267.879 86.658 269.751 87.738L266.457 95.676C264.657 94.704 262.875 93.984 261.111 93.516C259.347 93.012 257.637 92.76 255.981 92.76C254.505 92.76 253.317 92.922 252.417 93.246C251.517 93.534 250.869 93.93 250.473 94.434C250.077 94.938 249.879 95.514 249.879 96.162C249.879 96.99 250.257 97.656 251.013 98.16C251.805 98.628 252.831 99.024 254.091 99.348C255.387 99.636 256.791 99.942 258.303 100.266C259.851 100.59 261.381 101.004 262.893 101.508C264.441 101.976 265.845 102.624 267.105 103.452C268.365 104.244 269.373 105.306 270.129 106.638C270.921 107.934 271.317 109.572 271.317 111.552C271.317 113.748 270.687 115.782 269.427 117.654C268.203 119.49 266.349 120.966 263.865 122.082C261.417 123.198 258.321 123.756 254.577 123.756Z" fill="white"/>
<defs>
<filter id="filter0_f_1518_1275" x="22.5044" y="5.64409" width="259.612" height="127.912" filterUnits="userSpaceOnUse" color-interpolation-filters="sRGB">
<feFlood flood-opacity="0" result="BackgroundImageFix"/>
<feBlend mode="normal" in="SourceGraphic" in2="BackgroundImageFix" result="shape"/>
<feGaussianBlur stdDeviation="4.9" result="effect1_foregroundBlur_1518_1275"/>
</filter>
<linearGradient id="paint0_linear_1518_1275" x1="302" y1="52" x2="0" y2="52" gradientUnits="userSpaceOnUse">
<stop stop-color="#A315D6"/>
<stop offset="0.5" stop-color="#FDAB60"/>
<stop offset="1" stop-color="#A315D6"/>
</linearGradient>
</defs>
</svg>
