<svg width="92" height="23" viewBox="0 0 92 23" fill="none" xmlns="http://www.w3.org/2000/svg">
<path d="M8.96403 19.008C9.41403 19.008 9.79203 19.17 10.098 19.494C10.422 19.8 10.584 20.178 10.584 20.628C10.584 21.078 10.422 21.465 10.098 21.789C9.79203 22.095 9.41403 22.248 8.96403 22.248H1.72803C1.22403 22.248 0.810027 22.086 0.486027 21.762C0.162027 21.438 2.70084e-05 21.024 2.70084e-05 20.52V1.80899C2.70084e-05 1.35899 0.153027 0.980991 0.459027 0.67499C0.783027 0.350991 1.17003 0.188992 1.62003 0.188992C2.07003 0.188992 2.44803 0.350991 2.75403 0.67499C3.07803 0.980991 3.24003 1.35899 3.24003 1.80899V19.008H8.96403ZM24.6095 22.95C22.5215 22.95 20.6405 22.473 18.9665 21.519C17.2925 20.547 15.9695 19.197 14.9975 17.469C14.0435 15.741 13.5665 13.77 13.5665 11.556C13.5665 9.34199 14.0435 7.37099 14.9975 5.64299C15.9695 3.91499 17.2925 2.57399 18.9665 1.61999C20.6405 0.647991 22.5215 0.161991 24.6095 0.161991C26.6975 0.161991 28.5785 0.647991 30.2525 1.61999C31.9265 2.57399 33.2405 3.91499 34.1945 5.64299C35.1485 7.37099 35.6255 9.34199 35.6255 11.556C35.6255 13.77 35.1485 15.741 34.1945 17.469C33.2405 19.197 31.9265 20.547 30.2525 21.519C28.5785 22.473 26.6975 22.95 24.6095 22.95ZM24.6095 19.467C26.0495 19.467 27.3365 19.143 28.4705 18.495C29.6225 17.829 30.5225 16.902 31.1705 15.714C31.8185 14.508 32.1425 13.122 32.1425 11.556C32.1425 9.98999 31.8185 8.61299 31.1705 7.42499C30.5225 6.21899 29.6225 5.29199 28.4705 4.64399C27.3365 3.97799 26.0495 3.64499 24.6095 3.64499C23.1695 3.64499 21.8735 3.97799 20.7215 4.64399C19.5695 5.29199 18.6695 6.21899 18.0215 7.42499C17.3735 8.61299 17.0495 9.98999 17.0495 11.556C17.0495 13.122 17.3735 14.508 18.0215 15.714C18.6695 16.902 19.5695 17.829 20.7215 18.495C21.8735 19.143 23.1695 19.467 24.6095 19.467ZM50.0576 22.815C47.9156 22.815 45.9896 22.338 44.2796 21.384C42.5876 20.43 41.2556 19.089 40.2836 17.361C39.3296 15.615 38.8526 13.626 38.8526 11.394C38.8526 9.25199 39.3656 7.32599 40.3916 5.61599C41.4176 3.88799 42.8126 2.53799 44.5766 1.56599C46.3406 0.575992 48.3026 0.0809917 50.4626 0.0809917C51.9746 0.0809917 53.5136 0.404991 55.0796 1.05299C56.6456 1.70099 57.8516 2.54699 58.6976 3.59099C58.8056 3.73499 58.8956 3.90599 58.9676 4.10399C59.0396 4.28399 59.0756 4.45499 59.0756 4.61699C59.0756 5.06699 58.9226 5.45399 58.6166 5.77799C58.3106 6.08399 57.9236 6.23699 57.4556 6.23699C57.2576 6.23699 57.0326 6.18299 56.7806 6.07499C56.5466 5.96699 56.3666 5.83199 56.2406 5.66999C55.7006 5.02199 54.8456 4.47299 53.6756 4.02299C52.5056 3.55499 51.4346 3.32099 50.4626 3.32099C48.9326 3.32099 47.5466 3.66299 46.3046 4.34699C45.0626 5.03099 44.0906 5.98499 43.3886 7.20899C42.6866 8.43299 42.3356 9.82799 42.3356 11.394C42.3356 13.032 42.6596 14.454 43.3076 15.66C43.9556 16.866 44.8556 17.784 46.0076 18.414C47.1776 19.044 48.5276 19.359 50.0576 19.359C51.3536 19.359 52.4966 19.197 53.4866 18.873C54.4946 18.531 55.2686 18.072 55.8086 17.496C56.3666 16.902 56.6456 16.245 56.6456 15.525C56.6456 14.697 56.3576 14.031 55.7816 13.527C55.2236 13.005 54.4586 12.744 53.4866 12.744C52.6766 12.744 51.8036 12.798 50.8676 12.906C50.7776 12.924 50.6156 12.933 50.3816 12.933C49.8776 12.933 49.4726 12.798 49.1666 12.528C48.8606 12.258 48.7076 11.889 48.7076 11.421C48.7076 10.467 49.3646 9.88199 50.6786 9.66599C50.9306 9.62999 51.3356 9.59399 51.8936 9.55799C52.4696 9.52199 52.9826 9.50399 53.4326 9.50399C54.7286 9.50399 55.8626 9.76499 56.8346 10.287C57.8066 10.791 58.5536 11.502 59.0756 12.42C59.6156 13.32 59.8856 14.355 59.8856 15.525C59.8856 16.875 59.4626 18.108 58.6166 19.224C57.7706 20.34 56.5916 21.222 55.0796 21.87C53.5856 22.5 51.9116 22.815 50.0576 22.815ZM67.0613 20.925C67.0613 21.375 66.8993 21.762 66.5753 22.086C66.2693 22.392 65.8913 22.545 65.4413 22.545C64.9913 22.545 64.6043 22.392 64.2803 22.086C63.9743 21.762 63.8213 21.375 63.8213 20.925V1.78199C63.8213 1.33199 63.9743 0.953991 64.2803 0.647991C64.6043 0.323991 64.9913 0.161991 65.4413 0.161991C65.8913 0.161991 66.2693 0.323991 66.5753 0.647991C66.8993 0.953991 67.0613 1.33199 67.0613 1.78199V20.925ZM73.6577 22.599C73.1897 22.599 72.7847 22.437 72.4427 22.113C72.1007 21.789 71.9297 21.411 71.9297 20.979V1.97099C71.9297 1.50299 72.1097 1.09799 72.4697 0.755991C72.8477 0.395991 73.2887 0.215992 73.7927 0.215992C74.3507 0.215992 74.8187 0.458992 75.1967 0.944992L87.3467 15.903L87.5627 16.335V1.61999C87.5627 1.18799 87.7337 0.809991 88.0757 0.485991C88.4177 0.161991 88.8227 -8.88109e-06 89.2907 -8.88109e-06C89.7587 -8.88109e-06 90.1637 0.161991 90.5057 0.485991C90.8657 0.809991 91.0457 1.18799 91.0457 1.61999V20.493C91.0457 20.961 90.8567 21.375 90.4787 21.735C90.1007 22.077 89.6597 22.248 89.1557 22.248C88.9037 22.248 88.6517 22.185 88.3997 22.059C88.1477 21.915 87.9317 21.735 87.7517 21.519L75.6287 6.64199L75.4127 6.18299V20.979C75.4127 21.411 75.2327 21.789 74.8727 22.113C74.5307 22.437 74.1257 22.599 73.6577 22.599Z" fill="white"/>
</svg>
