<svg width="440" height="956" viewBox="0 0 440 956" fill="none" xmlns="http://www.w3.org/2000/svg">
<path d="M462.089 -0.106934H-9.80365V579.088H462.089V-0.106934Z" fill="url(#paint0_linear_1571_4657)"/>
<path opacity="0.497238" d="M230.505 294.092C230.505 294.092 122.661 289.708 107.721 248.512C96.5266 217.643 131.81 184.659 156.285 162.876C238.222 89.952 459.121 35.3426 459.121 35.3426L457.746 -33.7188L191.212 -18.013C191.212 -18.013 113.143 39.6721 64.9046 95.0322C27.8028 137.612 -9.19841 207.385 16.5498 257.72C35.8917 295.532 136.585 299.157 136.585 299.157L230.505 294.092Z" fill="url(#paint1_linear_1571_4657)"/>
<path opacity="0.24375" d="M238.74 282.725C238.74 282.725 346.582 287.655 361.494 333.241C372.668 367.4 337.364 403.863 312.874 427.944C230.889 508.559 9.95398 568.81 9.95398 568.81L11.2829 645.213L277.827 628.035C277.827 628.035 355.935 564.275 404.209 503.066C441.339 455.988 478.386 378.826 452.671 323.121C433.354 281.276 332.664 277.192 332.664 277.192L238.74 282.725Z" fill="url(#paint2_linear_1571_4657)"/>
<path opacity="0.140884" d="M182.618 286.728C182.618 286.728 92.0537 275.809 77.7026 254.039C33.6159 187.161 233.096 36.2778 264.383 17.892C295.67 -0.493744 391.076 30.2801 391.076 30.2801C293.031 73.4031 140.381 125.299 94.0982 230.182C83.7393 253.657 135.578 282.343 182.618 286.728Z" fill="url(#paint3_linear_1571_4657)"/>
<path opacity="0.375" d="M181.729 8.66797C83.2932 49.102 8.30916 91.7523 -17.5653 174.415C-27.3598 205.706 -20.2502 249.75 8.54916 269.26C37.3485 288.769 114.381 296.884 114.381 296.884C114.381 296.884 2.54932 289.989 -7.20416 221.489C-8.35101 117.245 98.2432 46.6351 181.729 8.66797Z" fill="url(#paint4_linear_1571_4657)"/>
<path opacity="0.279006" d="M240.567 282.407C240.567 282.407 361 282.406 371.874 341.944C382.748 401.483 232.885 463.65 232.885 463.65L78.1607 542.255L-1.55704 544.097L-25.9161 485.954C-25.9161 485.954 341.776 408.28 343.016 344.214C344.257 280.147 240.567 282.407 240.567 282.407Z" fill="url(#paint5_linear_1571_4657)"/>
<path d="M370.587 278.72C370.587 278.72 452.255 294.717 443.239 376.641C434.222 458.565 128.568 575.445 128.568 575.445L335.058 630.405C335.058 630.405 478.82 433.898 467.086 366.736C455.352 299.574 370.587 278.72 370.587 278.72Z" fill="#5C2677"/>
<g opacity="0.121">
<path opacity="0.21547" d="M339.438 -38.9846C335.346 -35.8768 330.041 -33.6714 325.028 -31.3674C318.706 -28.4617 317.171 -27.7828 310.602 -24.8168C298.122 -19.2775 285.318 -14.0822 272.958 -8.41265C266.171 -5.29969 258.396 -1.46343 251.755 1.77068C232.274 11.6297 213.503 22.1656 195.941 33.6447C192.278 36.0385 188.729 38.5144 185.123 40.9493C171.174 50.901 157.13 60.83 144.286 71.4895C137.488 77.1315 132.415 81.7651 125.916 87.5657C107.87 105.064 92.2148 123.692 76.4259 142.197C64.3745 155.975 52.5499 169.9 42.6449 184.501C41.0415 186.864 39.6196 189.285 38.1069 191.678C33.2397 199.695 29.6556 208.06 28.1508 216.712C27.6248 219.736 27.1342 225.242 26.8298 228.315C26.4682 233.774 26.9301 239.23 27.6136 244.666C28.0846 248.412 28.2888 250.49 29.5462 254.136C30.0562 255.615 30.7825 257.054 31.4006 258.512C35.4255 266.554 43.1172 273.182 51.1511 279.454C52.4309 280.351 53.6643 281.281 54.9906 282.144C56.5699 283.173 60.641 285.588 62.5889 286.374C115.163 307.606 122.767 317.448 161.377 323.718C168.216 324.378 175.125 325.011 182.045 324.697C185.978 324.519 189.581 324.084 193.478 323.679C206.97 321.748 220.26 319.176 233.638 316.891C247.822 314.12 262.107 311.565 276.5 309.37C285.299 308.458 294.081 307.385 302.91 306.62C307.179 306.25 311.469 306.01 315.744 305.672C328.782 304.462 341.915 304.346 355.039 304.554C365.758 304.951 376.573 305.742 386.83 308.073C388.744 308.508 390.593 309.073 392.474 309.573C395.498 310.582 400.358 312.163 403.281 313.308C405.027 313.992 410.144 316.189 408.403 315.498C269.665 260.36 313.622 274.821 340.009 289.256C348.254 294.402 355.055 300.704 358.842 307.998C359.721 309.69 360.327 311.445 361.069 313.168C364.665 324.905 362.543 336.87 357.757 348.291C356.64 350.955 355.246 353.56 353.991 356.195C346.247 370.708 335.885 384.437 323.735 397.39C321.079 400.223 318.25 402.974 315.507 405.766C306.928 413.995 297.465 421.731 287.571 429.201C281.086 434.098 274.434 438.995 267.441 443.548C263.929 445.833 260.244 447.987 256.646 450.206C252.913 452.435 249.221 454.696 245.449 456.892C235.432 462.724 231.721 464.859 220.819 469.949C207.645 476.1 193.775 481.339 179.792 486.522C156.736 494.509 132.534 500.937 107.607 505.481C102.847 506.349 98.0357 507.075 93.2499 507.872C67.7013 511.937 41.5897 514.041 15.4693 515.26C-0.434755 515.666 -16.4185 516.933 -32.2875 515.572L49.566 556.432C61.6112 553.736 73.9341 551.83 86.346 550.132C110.586 546.892 134.863 543.681 158.672 539.098C166.632 537.383 178.731 534.822 186.539 532.941C206.169 528.21 225.062 522.17 243.469 515.491C255.606 511.004 260.03 509.53 271.757 504.55C289.84 496.872 307.171 488.285 323.846 479.21C333.464 473.225 336.444 471.579 345.446 465.144C359.189 455.32 371.37 444.506 383.325 433.632C400.123 418.271 416.33 402.388 427.584 384.653C429.212 382.012 430.948 379.403 432.467 376.731C434.703 372.795 438.25 365.541 439.953 361.429C441.543 357.591 443.614 351.688 444.321 347.659C444.675 345.636 444.641 343.59 444.802 341.556C444.626 339.68 444.665 337.788 444.275 335.927C442.596 327.94 436.769 320.848 429.503 314.704C428.095 313.664 426.758 312.575 425.279 311.584C423.846 310.624 422.485 309.567 420.777 308.857C391.585 296.722 362.116 284.911 332.664 273.083C330.659 272.278 323.868 270.273 321.765 269.728C319.826 269.225 317.839 268.818 315.876 268.362C310.709 267.479 308.984 267.092 303.704 266.561C295.157 265.701 286.466 265.624 277.852 265.468C264.254 265.468 250.665 265.896 237.147 266.979C224.232 268.164 211.283 269.358 198.774 271.988C184.443 274.51 170.229 277.342 155.778 279.517C142.285 281.821 128.634 284.034 114.704 284.463C103.846 284.424 92.8702 283.943 82.5808 281.31C54.8153 273.613 -25.9036 237.718 155.247 311.274C156.737 311.879 152.135 310.233 150.622 309.656C146.069 307.919 145.638 307.575 141.375 305.467C132.625 299.952 124.783 293.744 118.638 286.703C116.282 283.222 115.331 282.097 113.609 278.383C110.504 271.684 109.766 264.676 109.295 257.687C109.224 255.813 109.056 253.939 109.083 252.064C109.111 250.135 109.311 248.209 109.459 246.283C110.119 237.684 111.028 229.067 113.611 220.624C115.598 214.949 116.994 210.5 119.64 204.91C125.57 192.385 134.133 180.573 143.039 168.971C148.723 162.103 152.85 156.956 158.936 150.251C169.76 138.326 181.886 127.013 194.006 115.719C196.893 113.04 199.713 110.325 202.666 107.682C217.739 94.1914 234.346 81.4973 251.85 69.5235C259.833 64.2978 265.335 60.5324 273.77 55.6607C288.504 47.1515 304.253 39.4219 320.646 32.549C341.582 23.9459 362.971 15.7547 385.594 9.4747C398.809 5.96894 412.716 2.3398 427.117 3.30297L339.438 -38.9846Z" fill="#518DBA"/>
<path opacity="0.21547" d="M319.288 -90C318.977 -89.3669 318.754 -88.7096 318.355 -88.1008C313.544 -80.7661 301.807 -74.1393 293.379 -68.9039C273.265 -56.8263 251.366 -46.2964 230.036 -35.3012C214.275 -26.9665 198.935 -18.1646 184.864 -8.45855C175.427 -1.94866 172.217 0.819824 163.393 7.77914C149.355 19.1796 135.875 30.9655 123.615 43.327C118.138 48.8496 111.462 56.1878 106.247 61.8402C95.6036 73.8312 85.9047 86.2564 77.9438 99.2238C73.3582 106.693 71.4542 110.552 67.4033 118.159C58.3575 136.554 50.0423 155.129 42.3595 173.822C38.1556 184.15 34.5013 194.599 31.7297 205.162C30.501 209.845 29.789 213.822 28.8621 218.52C27.3656 227.502 26.4307 236.512 25.4544 245.524C24.9732 248.239 25.2465 246.988 24.6767 249.28L118.494 280.831C116.414 278.041 117.458 279.552 115.417 276.281C110.844 266.971 108.771 257.061 108.547 247.245C108.615 240.12 108.748 232.978 109.629 225.873C110.665 217.525 112.692 209.25 114.721 200.998C115.6 198.011 116.412 195.013 117.358 192.035C122.432 176.067 129.315 160.404 136.865 144.927C146.766 125.602 157.369 106.353 172.672 88.7225C179.734 80.6578 181.784 78.128 189.341 70.257C201.158 57.9493 214.292 46.2765 228.628 35.3359C238.513 28.2724 240.53 26.6084 250.974 20.0217C265.627 10.7813 281.435 2.48748 297.497 -5.52016C319.839 -16.4854 342.528 -27.1332 366.268 -36.5976C380.45 -41.9604 394.877 -47.0326 409.709 -51.4729L319.288 -90Z" fill="#518DBA"/>
<path opacity="0.21547" d="M326.981 311.413C328.47 311.506 328.939 311.491 330.559 311.863C331.475 312.074 332.331 312.398 333.239 312.626C334.665 312.983 339.477 313.973 340.662 314.265C342.154 314.633 343.61 315.067 345.083 315.468C350.557 316.855 356.107 318.269 361.216 320.244C363.215 321.016 369.013 323.566 367.027 322.779C293.482 293.616 269.359 281.774 299.396 296.285C307.726 300.644 315.249 305.823 320.697 312.051C324.749 316.684 325.144 318.142 327.992 323.316C328.745 325.638 329.743 327.929 330.252 330.283C332.755 341.863 330.065 353.867 325.042 364.944C323.516 368.307 321.555 371.567 319.812 374.879C310.544 389.864 298.31 403.936 283.327 416.499C272.436 425.63 268.953 427.497 256.659 435.726C236.819 448.009 215.473 459.108 192.694 468.621C178.205 474.672 172.094 476.666 157.092 482.071C133.505 490.179 108.869 496.808 83.4988 501.673C68.8402 504.485 63.9021 505.018 49.2189 507.114C28.2318 509.286 6.5627 511.143 -14.5882 508.771C-17.3957 508.456 -20.1493 507.941 -22.9299 507.526L53.0261 546.531C57.4353 546.205 62.7874 545.849 67.0831 545.34C82.2193 543.543 96.7929 540.017 111.404 536.842C116.379 535.687 121.382 534.588 126.329 533.377C156.038 526.105 184.956 517.367 213.154 507.624C228.745 501.94 234.056 500.212 249.137 493.88C272.388 484.117 294.545 473.045 315.243 460.82C320.037 457.667 324.943 454.594 329.626 451.361C351.455 436.293 371.19 419.608 387.255 401.355C389.77 398.165 392.457 395.037 394.801 391.784C404.096 378.882 410.22 364.912 409.365 350.368C408.218 344.674 408.509 343.459 405.422 338.189C401.324 331.196 394.022 325.428 386.244 320.299C354.358 302.357 380.485 316.719 293.568 281.472C285.336 278.134 276.33 275.848 267.682 273.117C259.324 270.707 250.991 268.237 242.79 265.586L326.981 311.413Z" fill="#518DBA"/>
<path opacity="0.21547" d="M345.337 318.751C345.78 318.469 346.129 318.092 346.667 317.905C349.526 316.909 355.929 317.401 358.658 318.275C359.999 318.705 361.182 319.341 362.444 319.874C336.412 309.586 310.495 299.157 284.348 289.011C282.024 288.109 288.895 290.958 290.952 292.132C295.922 294.97 300.14 298.343 303.507 302.157C308.709 308.048 309.165 310.359 312.332 317.009C313.128 319.991 314.234 322.94 314.719 325.953C316.801 338.866 313.374 352.87 306.835 364.973C304.949 368.463 302.486 371.789 300.312 375.197C288.941 390.759 273.272 404.513 254.883 416.354C243.234 423.855 234.988 427.956 222.401 434.702C193.699 448.689 161.724 459.188 128.437 466.722C122.132 468.149 115.724 469.348 109.368 470.661C86.2437 474.886 62.6971 478.029 38.9106 479.762C27.6674 480.581 21.4431 480.724 10.3293 481.144C-0.172647 481.562 -10.6642 481.42 -21.1582 481.063L55.0769 518.89C62.9562 517.358 70.92 516.098 78.8606 514.726C108.142 509.466 137.525 504.37 166.12 497.459C172.211 495.927 178.356 494.497 184.392 492.865C217.056 484.035 248.355 472.761 277.083 458.781C283.016 455.841 289.065 453.011 294.882 449.96C306.219 444.014 316.903 437.699 327.352 431.018C337.452 424.56 346.288 418.597 354.968 411.21C358.761 407.981 362.081 404.497 365.637 401.141C373.053 392.423 375.642 390.288 380.682 380.889C387.22 368.697 389.444 355.674 388.786 342.731C387.94 335.977 388.222 333.984 385.469 327.62C372.955 298.698 315.861 289.619 285.153 277.63C283.061 277.235 281.006 276.726 278.875 276.445C274.133 275.819 269.058 275.961 264.277 276.255C263.001 276.334 261.738 276.515 260.458 276.56C259.388 276.598 258.316 276.522 257.246 276.503L345.337 318.751Z" fill="#518DBA"/>
<path opacity="0.21547" d="M296.792 374.99C296.454 376.673 296.426 378.401 295.778 380.039C293.564 385.639 289.746 390.554 285.179 395.403C278.826 402.147 271.363 408.302 263.338 414.107C258.687 417.47 253.694 420.595 248.872 423.84C225.173 438.565 198.402 450.581 169.724 460.058C149.855 466.624 142.669 468.108 122.096 473.396C92.9735 480.201 62.9002 484.918 32.5483 488.146C18.0682 489.686 11.1333 490.078 -3.15108 491.116C-22.4186 492.233 -13.0975 491.841 -31.1092 492.351L39.1809 526.639C52.4723 523.485 45.445 525.094 60.2794 521.845C96.8782 513.682 133.445 505.372 169.083 495.323C176.86 493.095 184.68 490.938 192.415 488.641C231.228 477.112 269.417 464.243 304.886 448.267C328.611 436.975 316.626 442.853 338.869 431.613C353.526 424.207 368.093 416.242 385.265 411.82L296.792 374.99Z" fill="#518DBA"/>
<path opacity="0.21547" d="M315.796 302.145C316.605 303.131 317.551 304.069 318.224 305.104C323.346 312.976 325.135 323.121 324.387 331.636C324.095 334.966 323.201 338.256 322.608 341.566C321.246 345.181 320.247 348.872 318.522 352.411C310.072 369.752 294.351 384.785 275.82 397.606C270.548 401.253 264.804 404.555 259.296 408.029C243.123 416.697 238.374 419.787 220.594 427.077C213.52 429.977 206.207 432.592 198.854 435.135C183.301 440.517 169.509 444.623 153.132 448.656C145.467 450.544 137.643 452.105 129.899 453.83C94.8567 460.754 58.8552 465.351 22.5756 467.657C16.1594 468.065 9.72245 468.295 3.29588 468.614C-13.8347 469.465 -31.0479 469.327 -48.1653 470.335C-53.6363 470.658 -59.0782 471.185 -64.5347 471.61L-4.96675 501.297C1.15746 501.205 7.28649 501.212 13.4059 501.019C29.4589 500.513 45.4084 499.049 61.2378 497.175C101.232 492.533 141.297 487.253 179.252 477.018C197.295 472.117 206.154 469.854 224.044 464.401C254.64 455.075 284.347 444.22 311.696 430.821C317.937 427.511 324.375 424.373 330.42 420.891C351.066 408.998 370.42 393.96 384.733 378.163C387.664 374.927 390.162 371.512 392.876 368.187C398.297 359.964 399.011 359.409 403.128 351.305C404.2 349.195 405.147 347.055 406.069 344.911C407.017 342.704 408.253 338.874 409.578 336.564C410.002 335.824 410.642 335.152 411.173 334.446L315.796 302.145Z" fill="#518DBA"/>
<path opacity="0.21547" d="M277.526 377.132C277.427 377.802 277.523 378.502 277.227 379.144C274.72 384.578 268.154 389.223 262.349 392.987C252.829 399.159 248.444 400.91 237.452 406.351C211.923 417.716 184.245 426.578 155.733 433.666C136.613 438.419 126.577 440.178 107.063 444.061C76.3084 449.722 45.0168 453.837 13.4555 456.57C0.502552 457.692 -13.1621 458.589 -26.1676 459.493C-48.546 460.914 -37.628 460.393 -58.9163 461.107L7.0302 493.381C23.7155 490.069 14.9414 491.711 33.3737 488.51C73.5847 481.321 114.051 474.754 153.75 466.252C175.426 461.68 180.984 460.607 202.588 455.646C233.984 448.436 265.148 440.734 296.449 433.329C308.47 430.396 320.495 427.468 332.516 424.533C332.921 424.434 354.465 419.15 356.653 418.65C361.495 417.543 364.453 417.018 369.087 416.144L277.526 377.132Z" fill="#518DBA"/>
<path opacity="0.21547" d="M361.197 362.319C361.555 363.255 362.068 364.169 362.27 365.127C364.715 376.743 359.543 388.793 353.482 399.47C350.992 403.856 347.946 408.08 345.177 412.385C341.513 417.07 338.135 421.869 334.185 426.44C315.342 448.25 290.219 469.484 263.704 486.964C256.469 491.733 248.717 496.108 241.223 500.68C215.02 515.32 186.759 528.265 156.606 538.641C144.516 542.801 137.006 544.741 124.777 548.175C115.534 550.373 110.298 551.791 101.023 553.385C97.9515 553.913 94.8214 554.261 91.7205 554.699L168.331 590.285C176.076 586.327 183.892 582.423 191.113 577.998C207.219 568.018 196.087 575.059 213.308 563.736C236.254 548.647 259 533.417 281.532 518.029C311.11 498.45 295.15 508.921 325.473 489.233C352.058 471.971 378.873 454.831 403.024 435.874C407.641 432.224 412.258 428.574 416.873 424.923C428.861 415.439 440.5 405.4 455.426 398.033L361.197 362.319Z" fill="#518DBA"/>
<path opacity="0.21547" d="M350.39 347.191C350.739 348.535 351.255 349.863 351.435 351.223C354.052 371 341.132 389.926 330.199 407.572C310.065 435.713 283.2 461.426 250.984 483.494C244.437 487.978 237.402 492.104 230.611 496.409C205.196 511.213 176.932 523.662 146.488 532.842C128.836 538.165 122.223 539.299 103.928 543.39L154.547 567.378C174.023 563.323 180.106 562.716 198.193 556.389C227.305 546.204 251.628 530.934 275 515.421C281.491 510.909 288.103 506.479 294.473 501.885C326.291 478.936 355.222 454.173 383.029 428.86C391.693 421.282 401.777 412.328 410.845 404.884C419.468 397.805 428.445 390.779 438.693 384.797C440.034 384.014 441.507 383.347 442.914 382.622L350.39 347.191Z" fill="#518DBA"/>
<path opacity="0.21547" d="M494.127 -19.4614C493.475 -19.0896 492.897 -18.6436 492.17 -18.3458C486.825 -16.156 478.56 -14.426 472.81 -13.0751C464.596 -11.1453 456.34 -9.30247 448.117 -7.38901C442.977 -6.16087 437.823 -4.96103 432.697 -3.70458C418.516 -0.228683 411.202 1.58102 397.207 5.81111C376.523 12.063 356.613 19.3318 336.709 26.6801C300.587 40.2665 265.315 55.0269 231.701 71.4512C225.058 74.697 218.547 78.0719 211.97 81.3823C180.758 98.0795 149.86 115.126 120.335 133.261C114.988 136.546 109.764 139.925 104.479 143.257C82.7727 157.131 62.606 172.423 46.6427 189.73C44.0967 192.49 41.8734 195.388 39.4888 198.217C34.0255 205.031 29.2257 212.098 25.1758 219.374C22.7401 223.749 20.7834 228.243 18.5964 232.679L106.153 263.901C105.68 262.562 105.055 261.244 104.735 259.884C102.052 248.489 105.165 236.825 109.629 225.873C113.876 218.025 115.062 215.178 120.679 207.573C131.457 192.982 145.527 179.727 160.562 167.148C173 157.536 176.131 154.805 189.634 145.664C212.199 130.388 236.528 116.395 261.819 103.366C275.568 96.3186 286.866 90.3902 300.99 83.7012C328.142 70.8422 356.679 59.3982 386.22 49.4081C393.729 47.1437 401.17 44.7668 408.748 42.6147C441.698 33.2564 476.018 26.1672 511.451 23.2889C534.23 21.7679 557.78 20.0652 580.257 24.0488L494.127 -19.4614Z" fill="#518DBA"/>
<path opacity="0.21547" d="M464.622 -77.0977C464.218 -76.0211 464.021 -74.8963 463.41 -73.868C462.456 -72.2633 461.247 -70.7319 459.956 -69.2458C452.755 -60.9591 443.366 -54.0855 432.975 -47.6864C428.369 -44.8504 423.504 -42.225 418.769 -39.4943C384.938 -20.7613 347.883 -5.21185 310.419 9.68795C276.288 22.8894 241.932 35.8087 207.431 48.5373C184.184 56.6929 161.806 65.9587 138.606 74.1713C132.628 76.2822 126.726 78.4749 120.597 80.3654L209.375 118.387C211.293 114.823 214.187 111.642 217.367 108.55C221.487 104.746 222.935 103.179 227.971 99.6174C240.406 90.8246 254.959 83.5937 269.201 76.3266C273.833 74.1415 278.41 71.9001 283.095 69.7713C310.037 57.5299 337.957 46.3603 364.979 34.2075C401.878 17.7145 438.794 1.18788 477.287 -13.4771C493.374 -19.6507 509.349 -26.0128 526.116 -31.2735C532.117 -33.1561 541.139 -35.7095 547.75 -37.0732C549.805 -37.4973 551.934 -37.7251 554.026 -38.0511L464.622 -77.0977Z" fill="#518DBA"/>
<path opacity="0.21547" d="M400.756 -87.6843C400.828 -86.9189 401.088 -86.1509 400.972 -85.3881C400.057 -79.404 394.891 -73.8884 389.984 -69.1437C382.725 -62.1258 378.016 -58.9875 369.398 -52.4562C338.529 -31.1384 304.672 -12.0532 271.35 7.35527C256.862 15.7118 242.23 23.9487 227.742 32.3054C223.812 34.572 219.968 36.91 216.017 39.1586C206.854 44.3736 205.464 44.9813 196.394 49.6558C193.818 50.8015 191.241 51.9472 188.665 53.0929L267.443 86.3144C268.629 84.5918 269.816 82.8692 271.002 81.1465C276.024 75.2915 277.394 73.4629 283.29 67.6482C296.364 54.7531 311.022 42.6549 326.407 31.0743C331.45 27.6321 336.388 24.115 341.535 20.7477C368.685 2.98212 398.26 -12.6695 430.431 -25.7998C451.161 -34.3803 471.974 -42.9074 493.507 -50.4888L400.756 -87.6843Z" fill="#518DBA"/>
</g>
<g opacity="0.082" filter="url(#filter0_f_1571_4657)">
<path opacity="0.821875" d="M230.505 294.092C230.505 294.092 122.661 289.708 107.721 248.512C96.5266 217.643 131.81 184.659 156.285 162.876C238.222 89.952 459.121 35.3426 459.121 35.3426L457.746 -33.7188L191.212 -18.013C191.212 -18.013 113.143 39.6721 64.9046 95.0322C27.8028 137.612 -9.19841 207.385 16.5498 257.72C35.8917 295.532 136.585 299.157 136.585 299.157L230.505 294.092Z" fill="url(#paint6_linear_1571_4657)"/>
<path opacity="0.24375" d="M238.74 282.725C238.74 282.725 346.582 287.655 361.494 333.241C372.668 367.4 337.364 403.863 312.874 427.944C230.889 508.559 9.95398 568.81 9.95398 568.81L11.2829 645.213L277.827 628.035C277.827 628.035 355.935 564.275 404.209 503.066C441.339 455.988 478.386 378.826 452.671 323.121C433.354 281.276 332.664 277.192 332.664 277.192L238.74 282.725Z" fill="url(#paint7_linear_1571_4657)"/>
<path opacity="0.371875" d="M182.618 286.728C182.618 286.728 92.0537 275.809 77.7026 254.039C33.6159 187.161 233.096 36.2778 264.383 17.892C295.67 -0.493744 391.076 30.2801 391.076 30.2801C293.031 73.4031 140.381 125.299 94.0982 230.182C83.7393 253.657 135.578 282.343 182.618 286.728Z" fill="url(#paint8_linear_1571_4657)"/>
<path opacity="0.375" d="M181.729 8.66797C83.2932 49.102 8.30916 91.7523 -17.5653 174.415C-27.3598 205.706 -20.2502 249.75 8.54916 269.26C37.3485 288.769 114.381 296.884 114.381 296.884C114.381 296.884 2.54932 289.989 -7.20416 221.489C-8.35101 117.245 98.2432 46.6351 181.729 8.66797Z" fill="url(#paint9_linear_1571_4657)"/>
<path d="M240.567 282.407C240.567 282.407 361 282.406 371.874 341.944C382.748 401.483 232.885 463.65 232.885 463.65L78.1607 542.255L-1.55704 544.097L-25.9161 485.954C-25.9161 485.954 341.776 408.28 343.016 344.214C344.257 280.147 240.567 282.407 240.567 282.407Z" fill="url(#paint10_linear_1571_4657)"/>
<path d="M370.587 278.72C370.587 278.72 452.255 294.717 443.239 376.641C434.222 458.565 128.568 575.445 128.568 575.445L335.058 630.405C335.058 630.405 478.82 433.898 467.086 366.736C455.352 299.574 370.587 278.72 370.587 278.72Z" fill="#5C2677"/>
</g>
<g opacity="0.287293" filter="url(#filter1_f_1571_4657)">
<path opacity="0.679558" d="M167.84 557.581L89.6484 540.559L31.3664 595.639L23.3137 515.647L-46.8234 476.964L26.3916 444.549L41.3265 365.562L94.6285 425.52L173.996 415.386L133.723 484.858L167.84 557.581Z" fill="#F2F7FF"/>
<path opacity="0.5" d="M16.9375 268.949L3.16463 255.866L-15.3681 259.851L-7.2424 242.645L-16.7404 226.163L2.05447 228.612L14.7171 214.442L18.2073 233.162L35.5312 240.885L18.8934 250.005L16.9375 268.949Z" fill="#F2F7FF"/>
<path opacity="0.56" d="M457.507 172.086L418.645 162.039L388.378 188.514L385.878 148.267L351.468 127.52L388.785 112.693L397.787 73.3955L423.35 104.479L463.322 100.939L441.805 134.976L457.507 172.086Z" fill="#F2F7FF"/>
<path d="M81.5968 371.673C84.7597 371.673 87.3237 368.994 87.3237 365.688C87.3237 362.382 84.7597 359.703 81.5968 359.703C78.434 359.703 75.87 362.382 75.87 365.688C75.87 368.994 78.434 371.673 81.5968 371.673Z" fill="white"/>
<path d="M127.412 417.024C128.297 417.024 129.015 416.354 129.015 415.527C129.015 414.701 128.297 414.031 127.412 414.031C126.526 414.031 125.808 414.701 125.808 415.527C125.808 416.354 126.526 417.024 127.412 417.024Z" fill="white"/>
<path d="M51.5376 127.648C53.9977 127.648 55.992 125.461 55.992 122.764C55.992 120.067 53.9977 117.881 51.5376 117.881C49.0775 117.881 47.0831 120.067 47.0831 122.764C47.0831 125.461 49.0775 127.648 51.5376 127.648Z" fill="white"/>
<path d="M81.0989 151.739C81.9934 151.739 82.7187 151.083 82.7187 150.274C82.7187 149.465 81.9934 148.809 81.0989 148.809C80.2043 148.809 79.4791 149.465 79.4791 150.274C79.4791 151.083 80.2043 151.739 81.0989 151.739Z" fill="white"/>
<path d="M269.319 195.201C272.45 195.201 274.989 192.869 274.989 189.992C274.989 187.115 272.45 184.783 269.319 184.783C266.188 184.783 263.65 187.115 263.65 189.992C263.65 192.869 266.188 195.201 269.319 195.201Z" fill="white"/>
<path d="M279.686 154.18C280.849 154.18 281.792 153.087 281.792 151.739C281.792 150.39 280.849 149.297 279.686 149.297C278.523 149.297 277.58 150.39 277.58 151.739C277.58 153.087 278.523 154.18 279.686 154.18Z" fill="white"/>
<path d="M215.866 177.946C216.85 177.946 217.648 177.072 217.648 175.993C217.648 174.914 216.85 174.04 215.866 174.04C214.882 174.04 214.084 174.914 214.084 175.993C214.084 177.072 214.882 177.946 215.866 177.946Z" fill="white"/>
<path d="M431.137 81.2554C433.821 81.2554 435.997 79.1419 435.997 76.5348C435.997 73.9277 433.821 71.8142 431.137 71.8142C428.453 71.8142 426.278 73.9277 426.278 76.5348C426.278 79.1419 428.453 81.2554 431.137 81.2554Z" fill="white"/>
<path d="M378.008 96.8823C379.26 96.8823 380.276 96.0077 380.276 94.9289C380.276 93.8501 379.26 92.9756 378.008 92.9756C376.755 92.9756 375.74 93.8501 375.74 94.9289C375.74 96.0077 376.755 96.8823 378.008 96.8823Z" fill="white"/>
<path d="M417.045 192.922C419.46 192.922 421.418 191.027 421.418 188.69C421.418 186.352 419.46 184.458 417.045 184.458C414.63 184.458 412.671 186.352 412.671 188.69C412.671 191.027 414.63 192.922 417.045 192.922Z" fill="white"/>
<path d="M366.021 230.687C367.632 230.687 368.937 229.521 368.937 228.082C368.937 226.644 367.632 225.478 366.021 225.478C364.411 225.478 363.106 226.644 363.106 228.082C363.106 229.521 364.411 230.687 366.021 230.687Z" fill="white"/>
<path d="M341.4 396.396C344.8 396.396 347.556 393.845 347.556 390.699C347.556 387.552 344.8 385.001 341.4 385.001C338.001 385.001 335.245 387.552 335.245 390.699C335.245 393.845 338.001 396.396 341.4 396.396Z" fill="white"/>
<path d="M373.634 330.633C375.513 330.633 377.036 329.248 377.036 327.54C377.036 325.832 375.513 324.448 373.634 324.448C371.756 324.448 370.233 325.832 370.233 327.54C370.233 329.248 371.756 330.633 373.634 330.633Z" fill="white"/>
<path d="M302.201 367.747C303.275 367.747 304.145 366.799 304.145 365.631C304.145 364.462 303.275 363.515 302.201 363.515C301.128 363.515 300.258 364.462 300.258 365.631C300.258 366.799 301.128 367.747 302.201 367.747Z" fill="white"/>
<path d="M31.0471 287.008C33.0152 287.008 34.6106 285.332 34.6106 283.264C34.6106 281.197 33.0152 279.521 31.0471 279.521C29.079 279.521 27.4835 281.197 27.4835 283.264C27.4835 285.332 29.079 287.008 31.0471 287.008Z" fill="white"/>
<path d="M14.2012 295.473C15.0958 295.473 15.821 294.744 15.821 293.845C15.821 292.946 15.0958 292.217 14.2012 292.217C13.3066 292.217 12.5814 292.946 12.5814 293.845C12.5814 294.744 13.3066 295.473 14.2012 295.473Z" fill="white"/>
<path d="M3.18658 330.633C3.90225 330.633 4.48242 329.904 4.48242 329.005C4.48242 328.106 3.90225 327.378 3.18658 327.378C2.47091 327.378 1.89075 328.106 1.89075 329.005C1.89075 329.904 2.47091 330.633 3.18658 330.633Z" fill="white"/>
<path d="M65.3326 42.7111C67.2303 42.7111 68.7687 41.1651 68.7687 39.258C68.7687 37.3509 67.2303 35.8049 65.3326 35.8049C63.4349 35.8049 61.8965 37.3509 61.8965 39.258C61.8965 41.1651 63.4349 42.7111 65.3326 42.7111Z" fill="white"/>
<path d="M9.89669 81.1551L5.68206 80.5178L2.77031 83.6456L2.07103 79.4205L-1.78882 77.6042L1.99364 75.6302L2.51986 71.3799L5.55683 74.385L9.74191 73.5745L7.8364 77.4057L9.89669 81.1551Z" fill="white"/>
<path d="M161.315 18.5396L159.291 15.1107L155.334 14.8417L157.954 11.8484L156.985 7.98265L160.627 9.56159L163.987 7.44141L163.618 11.4105L166.663 13.9659L162.792 14.8401L161.315 18.5396Z" fill="white"/>
<path d="M353.966 156.432L352.208 154.235L349.411 154.445L350.947 152.086L349.885 149.477L352.591 150.216L354.732 148.395L354.869 151.21L357.254 152.693L354.632 153.694L353.966 156.432Z" fill="white"/>
<path d="M202.777 453.396L202.894 457.088L205.987 459.085L202.529 460.338L201.595 463.911L199.341 460.993L195.671 461.205L197.736 458.148L196.401 454.706L199.932 455.735L202.777 453.396Z" fill="white"/>
<path d="M9.43856 386.176L5.50023 381.768L-0.182556 380.191L4.20439 376.233L5.77337 370.522L9.7117 374.931L15.3945 376.508L11.0075 380.465L9.43856 386.176Z" fill="white"/>
<path d="M359.464 65.2712L356.826 67.4942L355.798 70.7961L353.586 68.1453L350.301 67.1128L352.938 64.8898L353.966 61.5879L356.178 64.2386L359.464 65.2712Z" fill="white"/>
</g>
<g opacity="0.5">
<path opacity="0.792818" d="M167.84 557.581L89.6484 540.559L31.3664 595.639L23.3137 515.647L-46.8234 476.964L26.3916 444.549L41.3265 365.562L94.6285 425.52L173.996 415.386L133.723 484.858L167.84 557.581Z" fill="#F2F7FF"/>
<path opacity="0.381215" d="M16.9375 268.949L3.16463 255.866L-15.3681 259.851L-7.2424 242.645L-16.7404 226.163L2.05447 228.612L14.7171 214.442L18.2073 233.162L35.5312 240.885L18.8934 250.005L16.9375 268.949Z" fill="#F2F7FF"/>
<path d="M457.507 172.086L418.645 162.039L388.378 188.514L385.878 148.267L351.468 127.52L388.785 112.693L397.787 73.3955L423.35 104.479L463.322 100.939L441.805 134.976L457.507 172.086Z" fill="#F2F7FF"/>
<path opacity="0.35" d="M81.5968 371.673C84.7597 371.673 87.3237 368.994 87.3237 365.688C87.3237 362.382 84.7597 359.703 81.5968 359.703C78.434 359.703 75.87 362.382 75.87 365.688C75.87 368.994 78.434 371.673 81.5968 371.673Z" fill="white"/>
<path d="M127.412 364.961C128.297 364.961 129.015 364.303 129.015 363.49C129.015 362.678 128.297 362.019 127.412 362.019C126.526 362.019 125.808 362.678 125.808 363.49C125.808 364.303 126.526 364.961 127.412 364.961Z" fill="white"/>
<path opacity="0.35" d="M51.5376 127.648C53.9977 127.648 55.992 125.461 55.992 122.764C55.992 120.067 53.9977 117.881 51.5376 117.881C49.0775 117.881 47.0831 120.067 47.0831 122.764C47.0831 125.461 49.0775 127.648 51.5376 127.648Z" fill="white"/>
<path d="M81.0989 151.739C81.9934 151.739 82.7187 151.083 82.7187 150.274C82.7187 149.465 81.9934 148.809 81.0989 148.809C80.2043 148.809 79.4791 149.465 79.4791 150.274C79.4791 151.083 80.2043 151.739 81.0989 151.739Z" fill="white"/>
<path opacity="0.48895" d="M269.319 195.201C272.45 195.201 274.989 192.869 274.989 189.992C274.989 187.115 272.45 184.783 269.319 184.783C266.188 184.783 263.65 187.115 263.65 189.992C263.65 192.869 266.188 195.201 269.319 195.201Z" fill="white"/>
<path d="M279.686 154.18C280.849 154.18 281.792 153.087 281.792 151.739C281.792 150.39 280.849 149.297 279.686 149.297C278.523 149.297 277.58 150.39 277.58 151.739C277.58 153.087 278.523 154.18 279.686 154.18Z" fill="white"/>
<path d="M215.866 177.946C216.85 177.946 217.648 177.072 217.648 175.993C217.648 174.914 216.85 174.04 215.866 174.04C214.882 174.04 214.084 174.914 214.084 175.993C214.084 177.072 214.882 177.946 215.866 177.946Z" fill="white"/>
<path d="M431.137 81.2554C433.821 81.2554 435.997 79.1419 435.997 76.5348C435.997 73.9277 433.821 71.8142 431.137 71.8142C428.453 71.8142 426.278 73.9277 426.278 76.5348C426.278 79.1419 428.453 81.2554 431.137 81.2554Z" fill="white"/>
<path opacity="0.35" d="M378.008 96.8823C379.26 96.8823 380.276 96.0077 380.276 94.9289C380.276 93.8501 379.26 92.9756 378.008 92.9756C376.755 92.9756 375.74 93.8501 375.74 94.9289C375.74 96.0077 376.755 96.8823 378.008 96.8823Z" fill="white"/>
<path opacity="0.48895" d="M417.045 192.922C419.46 192.922 421.418 191.027 421.418 188.69C421.418 186.352 419.46 184.458 417.045 184.458C414.63 184.458 412.671 186.352 412.671 188.69C412.671 191.027 414.63 192.922 417.045 192.922Z" fill="white"/>
<path d="M366.021 230.687C367.632 230.687 368.937 229.521 368.937 228.082C368.937 226.644 367.632 225.478 366.021 225.478C364.411 225.478 363.106 226.644 363.106 228.082C363.106 229.521 364.411 230.687 366.021 230.687Z" fill="white"/>
<path d="M341.4 396.396C344.8 396.396 347.556 393.845 347.556 390.699C347.556 387.552 344.8 385.001 341.4 385.001C338.001 385.001 335.245 387.552 335.245 390.699C335.245 393.845 338.001 396.396 341.4 396.396Z" fill="white"/>
<path opacity="0.35" d="M373.634 330.633C375.513 330.633 377.036 329.248 377.036 327.54C377.036 325.832 375.513 324.448 373.634 324.448C371.756 324.448 370.233 325.832 370.233 327.54C370.233 329.248 371.756 330.633 373.634 330.633Z" fill="white"/>
<path d="M302.201 367.747C303.275 367.747 304.145 366.799 304.145 365.631C304.145 364.462 303.275 363.515 302.201 363.515C301.128 363.515 300.258 364.462 300.258 365.631C300.258 366.799 301.128 367.747 302.201 367.747Z" fill="white"/>
<path d="M31.0471 287.008C33.0152 287.008 34.6106 285.332 34.6106 283.264C34.6106 281.197 33.0152 279.521 31.0471 279.521C29.079 279.521 27.4835 281.197 27.4835 283.264C27.4835 285.332 29.079 287.008 31.0471 287.008Z" fill="white"/>
<path opacity="0.48895" d="M14.2012 295.473C15.0958 295.473 15.821 294.744 15.821 293.845C15.821 292.946 15.0958 292.217 14.2012 292.217C13.3066 292.217 12.5814 292.946 12.5814 293.845C12.5814 294.744 13.3066 295.473 14.2012 295.473Z" fill="white"/>
<path opacity="0.35" d="M3.18658 330.633C3.90225 330.633 4.48242 329.904 4.48242 329.005C4.48242 328.106 3.90225 327.378 3.18658 327.378C2.47091 327.378 1.89075 328.106 1.89075 329.005C1.89075 329.904 2.47091 330.633 3.18658 330.633Z" fill="white"/>
<path d="M65.3326 42.7111C67.2303 42.7111 68.7687 41.1651 68.7687 39.258C68.7687 37.3509 67.2303 35.8049 65.3326 35.8049C63.4349 35.8049 61.8965 37.3509 61.8965 39.258C61.8965 41.1651 63.4349 42.7111 65.3326 42.7111Z" fill="white"/>
<path opacity="0.48895" d="M9.89669 81.1551L5.68206 80.5178L2.77031 83.6456L2.07103 79.4205L-1.78882 77.6042L1.99364 75.6302L2.51986 71.3799L5.55683 74.385L9.74191 73.5745L7.8364 77.4057L9.89669 81.1551Z" fill="white"/>
<path opacity="0.35" d="M161.315 18.5396L159.291 15.1107L155.334 14.8417L157.954 11.8484L156.985 7.98265L160.627 9.56159L163.987 7.44141L163.618 11.4105L166.663 13.9659L162.792 14.8401L161.315 18.5396Z" fill="white"/>
<path d="M353.966 156.432L352.208 154.235L349.411 154.445L350.947 152.086L349.885 149.477L352.591 150.216L354.732 148.395L354.869 151.21L357.254 152.693L354.632 153.694L353.966 156.432Z" fill="white"/>
<path opacity="0.35" d="M202.777 400.722L202.894 404.352L205.987 406.315L202.529 407.547L201.595 411.06L199.341 408.191L195.671 408.399L197.736 405.394L196.401 402.01L199.932 403.022L202.777 400.722Z" fill="white"/>
<path d="M9.43856 386.176L5.50023 381.768L-0.182556 380.191L4.20439 376.233L5.77337 370.522L9.7117 374.931L15.3945 376.508L11.0075 380.465L9.43856 386.176Z" fill="white"/>
<path opacity="0.48895" d="M359.464 65.2712L356.826 67.4942L355.798 70.7961L353.586 68.1453L350.301 67.1128L352.938 64.8898L353.966 61.5879L356.178 64.2386L359.464 65.2712Z" fill="white"/>
</g>
<path d="M16.4689 531.503L65.0628 482.669L99.7265 501.226L162.251 467.042L220.887 514.899L229.31 589.127L30.3991 587.173L16.4689 531.503Z" fill="#170332"/>
<path d="M-14.6312 392.489L67.6545 574.802L106.53 546.153L144.757 546.804L250.368 439.37L294.426 464.112L399.389 352.771L459.646 411.372L461.589 574.151L116.248 614.52L-22.4062 576.104L-14.6312 392.489Z" fill="url(#paint11_linear_1571_4657)"/>
<path d="M-9.80365 574.484L211.94 574.944L445.366 572.412L446.798 978.718H-8.0408L-9.80365 574.484Z" fill="url(#paint12_linear_1571_4657)"/>
<mask id="mask0_1571_4657" style="mask-type:luminance" maskUnits="userSpaceOnUse" x="-2" y="577" width="438" height="416">
<path d="M81.5968 661.042C84.7597 661.042 87.3237 663.478 87.3237 666.483C87.3237 669.488 84.7597 671.924 81.5968 671.924C78.434 671.924 75.87 669.488 75.87 666.483C75.87 663.478 78.434 661.042 81.5968 661.042Z" fill="white"/>
<path d="M127.412 619.815C128.297 619.815 129.015 620.424 129.015 621.176C129.015 621.927 128.297 622.536 127.412 622.536C126.526 622.536 125.808 621.927 125.808 621.176C125.808 620.424 126.526 619.815 127.412 619.815Z" fill="white"/>
<path d="M51.5376 882.878C53.9977 882.878 55.992 884.866 55.992 887.318C55.992 889.769 53.9977 891.757 51.5376 891.757C49.0775 891.757 47.0831 889.769 47.0831 887.318C47.0831 884.866 49.0775 882.878 51.5376 882.878Z" fill="white"/>
<path d="M81.0989 860.978C81.9934 860.978 82.7187 861.574 82.7187 862.309C82.7187 863.045 81.9934 863.641 81.0989 863.641C80.2043 863.641 79.4791 863.045 79.4791 862.309C79.4791 861.574 80.2043 860.978 81.0989 860.978Z" fill="white"/>
<path d="M269.319 821.467C272.45 821.467 274.989 823.587 274.989 826.203C274.989 828.818 272.45 830.938 269.319 830.938C266.188 830.938 263.65 828.818 263.65 826.203C263.65 823.587 266.188 821.467 269.319 821.467Z" fill="white"/>
<path d="M279.686 858.758C280.849 858.758 281.792 859.752 281.792 860.978C281.792 862.203 280.849 863.197 279.686 863.197C278.523 863.197 277.58 862.203 277.58 860.978C277.58 859.752 278.523 858.758 279.686 858.758Z" fill="white"/>
<path d="M215.866 837.153C216.85 837.153 217.648 837.948 217.648 838.929C217.648 839.91 216.85 840.705 215.866 840.705C214.882 840.705 214.084 839.91 214.084 838.929C214.084 837.948 214.882 837.153 215.866 837.153Z" fill="white"/>
<path d="M431.137 925.052C433.821 925.052 435.997 926.973 435.997 929.343C435.997 931.713 433.821 933.635 431.137 933.635C428.453 933.635 426.278 931.713 426.278 929.343C426.278 926.973 428.453 925.052 431.137 925.052Z" fill="white"/>
<path d="M378.008 910.846C379.26 910.846 380.276 911.641 380.276 912.622C380.276 913.602 379.26 914.397 378.008 914.397C376.755 914.397 375.74 913.602 375.74 912.622C375.74 911.641 376.755 910.846 378.008 910.846Z" fill="white"/>
<path d="M417.045 823.539C419.46 823.539 421.418 825.262 421.418 827.386C421.418 829.511 419.46 831.234 417.045 831.234C414.63 831.234 412.671 829.511 412.671 827.386C412.671 825.262 414.63 823.539 417.045 823.539Z" fill="white"/>
<path d="M366.021 789.208C367.632 789.208 368.937 790.268 368.937 791.576C368.937 792.884 367.632 793.944 366.021 793.944C364.411 793.944 363.106 792.884 363.106 791.576C363.106 790.268 364.411 789.208 366.021 789.208Z" fill="white"/>
<path d="M341.4 638.567C344.8 638.567 347.556 640.886 347.556 643.746C347.556 646.607 344.8 648.926 341.4 648.926C338.001 648.926 335.245 646.607 335.245 643.746C335.245 640.886 338.001 638.567 341.4 638.567Z" fill="white"/>
<path d="M373.634 698.35C375.513 698.35 377.036 699.609 377.036 701.162C377.036 702.714 375.513 703.973 373.634 703.973C371.756 703.973 370.233 702.714 370.233 701.162C370.233 699.609 371.756 698.35 373.634 698.35Z" fill="white"/>
<path d="M302.201 664.611C303.275 664.611 304.145 665.473 304.145 666.535C304.145 667.597 303.275 668.459 302.201 668.459C301.128 668.459 300.258 667.597 300.258 666.535C300.258 665.473 301.128 664.611 302.201 664.611Z" fill="white"/>
<path d="M31.0471 738.008C33.0152 738.008 34.6106 739.532 34.6106 741.412C34.6106 743.291 33.0152 744.815 31.0471 744.815C29.079 744.815 27.4835 743.291 27.4835 741.412C27.4835 739.532 29.079 738.008 31.0471 738.008Z" fill="white"/>
<path d="M14.2012 730.313C15.0958 730.313 15.821 730.976 15.821 731.793C15.821 732.61 15.0958 733.273 14.2012 733.273C13.3066 733.273 12.5814 732.61 12.5814 731.793C12.5814 730.976 13.3066 730.313 14.2012 730.313Z" fill="white"/>
<path d="M3.18658 698.35C3.90225 698.35 4.48242 699.013 4.48242 699.83C4.48242 700.647 3.90225 701.31 3.18658 701.31C2.47091 701.31 1.89075 700.647 1.89075 699.83C1.89075 699.013 2.47091 698.35 3.18658 698.35Z" fill="white"/>
<path d="M9.89669 925.143L5.68206 925.722L2.77031 922.879L2.07103 926.72L-1.78882 928.371L1.99364 930.165L2.51986 934.029L5.55683 931.297L9.74191 932.034L7.8364 928.551L9.89669 925.143Z" fill="white"/>
<path d="M353.966 856.711L352.208 858.708L349.411 858.518L350.947 860.662L349.885 863.034L352.591 862.362L354.732 864.018L354.869 861.458L357.254 860.11L354.632 859.2L353.966 856.711Z" fill="white"/>
<path d="M202.777 586.75L202.894 583.394L205.987 581.579L202.529 580.44L201.595 577.192L199.341 579.844L195.671 579.652L197.736 582.43L196.401 585.559L199.932 584.624L202.777 586.75Z" fill="white"/>
<path d="M9.43856 647.858L5.50023 651.865L-0.182556 653.299L4.20439 656.897L5.77337 662.088L9.7117 658.08L15.3945 656.647L11.0075 653.049L9.43856 647.858Z" fill="white"/>
<path d="M359.464 939.583L356.826 937.562L355.798 934.56L353.586 936.97L350.301 937.909L352.938 939.93L353.966 942.931L356.178 940.521L359.464 939.583Z" fill="white"/>
</mask>
<g mask="url(#mask0_1571_4657)">
<path opacity="0.132597" d="M-9.80365 535.266L211.94 535.771L445.366 532.993L446.798 978.718H-8.0408L-9.80365 535.266Z" fill="#F2F7FF"/>
</g>
<mask id="mask1_1571_4657" style="mask-type:luminance" maskUnits="userSpaceOnUse" x="-10" y="572" width="457" height="407">
<path d="M-9.80365 574.484L211.94 574.944L445.366 572.412L446.798 978.718H-8.0408L-9.80365 574.484Z" fill="white"/>
</mask>
<g mask="url(#mask1_1571_4657)">
<path opacity="0.044" d="M47.0302 546.003C49.6296 544.796 53.1681 545.407 55.8391 545.658C62.2339 546.261 62.8881 546.535 69.7841 547.742C85.7864 551.256 101.725 555.224 117.449 559.977C127.773 563.098 136.871 566.246 147.115 569.69C167.313 576.859 187.177 585.305 206.034 595.891C210.506 598.402 223.658 606.456 219.261 603.798C202.75 593.817 186.215 583.881 169.692 573.922C172.384 576.01 175.174 577.961 177.768 580.185C185.284 586.628 192.755 594.927 195.837 604.932C196.404 606.773 196.579 608.726 196.95 610.623C196.956 612.46 197.141 614.306 196.969 616.133C196.049 625.915 190.181 633.925 183.744 640.507C181.435 642.868 178.893 644.952 176.467 647.175C154.614 663.793 129.398 673.924 104.421 683.774C89.6671 689.577 74.8854 695.336 60.2861 701.575C46.2305 707.582 32.3402 714.052 18.4405 720.455C6.47834 726.055 -5.42802 731.813 -17.0616 738.162C-21.9629 740.836 -30.4377 745.628 -35.1941 748.941C-37.5698 750.595 -39.773 752.516 -42.0625 754.304C-43.8487 756.167 -45.8495 757.82 -47.4212 759.891C-52.2787 766.292 -53.7347 773.51 -51.0846 781.408C-48.4421 789.283 -44.8632 792.346 -39.7269 798.635C-30.5364 806.857 -28.4298 809.396 -17.6744 816.114C6.61529 831.287 30.9497 846.391 55.6203 860.846C59.4595 863.096 63.6849 864.5 67.7717 866.18C80.4178 871.38 84.8289 872.663 98.0434 877.202C103.992 879.091 109.916 881.068 115.888 882.868C122.349 884.814 128.847 886.616 135.339 888.439C164.51 896.63 193.859 904.055 223.228 911.385C268.823 922.25 314.357 933.406 359.913 944.457C394.464 952.611 429.04 960.694 463.307 970.133C477.849 973.954 492.221 978.45 506.358 983.72L426.941 920.103C419.641 923.269 411.465 922.231 403.78 922.294C375.9 920.794 348.123 917.304 320.551 912.693C308.169 910.663 294.221 908.449 281.918 906.124C251.789 900.429 221.878 893.422 192.085 886.016C184.276 883.963 176.451 881.983 168.659 879.856C130.593 869.466 92.7459 857.699 56.196 842.22C40.2425 835.019 33.7232 832.435 18.4795 824.195C12.9923 821.229 -3.03765 811.471 2.25212 814.82C123.949 891.882 55.2635 849.051 43.6524 839.282C41.6438 837.592 39.8718 835.604 37.9815 833.766C34.9756 829.854 33.3079 828.256 31.3759 823.751C29.3495 819.025 28.9598 813.712 30.2463 808.692C30.7753 806.627 31.7041 804.704 32.433 802.71C35.6948 796.801 36.4795 794.832 40.8183 789.413C50.4108 777.433 62.926 768.644 75.3487 760.402C79.227 757.979 83.0418 755.437 86.9835 753.133C109.23 740.135 133.044 730.383 157.036 721.779C174.231 715.82 170.003 717.182 187.317 711.595C205.668 705.673 224.253 700.381 241.936 692.359C245.631 690.636 249.41 689.106 253.021 687.191C263.276 681.752 275.339 673.057 277.642 660.012C278.121 657.299 277.659 654.49 277.669 651.729C276.865 648.926 276.323 646.021 275.258 643.318C269.794 629.451 258.82 618.567 247.809 609.674C244.28 606.823 240.533 604.293 236.895 601.603C213.097 586.975 189.43 572.1 165.499 557.72C161.894 555.553 158.076 553.815 154.314 551.978C136.007 543.045 117.032 535.856 97.9639 529.026C67.754 518.485 37.3884 508.387 7.59048 496.56C-5.96982 491.111 -2.61563 492.533 -15.3544 487.145C-22.0692 484.304 -28.7427 481.178 -35.5848 478.687C-36.6427 478.302 -37.7304 478.018 -38.8033 477.684L47.0302 546.003Z" fill="#FE90FF"/>
</g>
<g opacity="0.185083" filter="url(#filter2_f_1571_4657)">
<path d="M416.084 877.395L357.86 938.898L274.437 925.565L274.562 925.8L314.474 999.893L314.65 1000.22L276.253 1075.83L359.331 1060.46L419.022 1120.53L430.154 1036.38L505.443 997.889L429.246 961.246L416.113 877.587L416.084 877.395Z" fill="#EEE6F2"/>
</g>
<g opacity="0.245856" filter="url(#filter3_f_1571_4657)">
<path d="M50.052 645.289L42.0609 678.332L13.1344 689.417L60.5005 696.066L61.2569 696.172L62.4194 696.335L90.2723 691.916L105.031 669.186H105.026L71.2909 671.759L50.0783 645.318L50.052 645.289Z" fill="#F2DAF9"/>
</g>
<path d="M314.474 999.893L377.601 991.296L377.453 991.16L377.44 991.194L274.561 925.801L314.474 999.893Z" fill="#F2DAF9"/>
<path d="M416.113 877.587L416.083 877.395L357.859 938.898L274.436 925.565L274.562 925.8L377.44 991.193L416.113 877.587Z" fill="#EEE6F2"/>
<path d="M416.113 877.587L377.453 991.16L377.601 991.297L314.474 999.893L314.65 1000.22L276.253 1075.83L359.33 1060.46L419.022 1120.53L430.154 1036.38L505.443 997.889L429.246 961.246L416.113 877.587Z" fill="#CEB2D4"/>
<path opacity="0.929" d="M105.026 669.186L61.257 696.173L62.4195 696.336L90.2724 691.917L105.031 669.186L105.026 669.186Z" fill="#CEB2D4"/>
<path opacity="0.929" d="M60.5006 696.066L50.0782 645.318L50.0519 645.288L42.0608 678.331L13.1343 689.416L60.5006 696.066Z" fill="#F2DAF9"/>
<path opacity="0.889503" d="M105.026 669.186L71.2907 671.759L50.0782 645.318L60.5006 696.066L61.257 696.172L105.026 669.186Z" fill="white"/>
<g opacity="0.313" style="mix-blend-mode:multiply">
<path d="M90.2724 691.917L62.4195 696.336L13.1344 689.416L10.4452 690.447L39.248 708.295L40.9455 742.258L66.7366 720.245L99.4033 729.116L86.5409 697.665L90.2724 691.917Z" fill="#4D215B" fill-opacity="0.716867"/>
</g>
<g opacity="0.159" style="mix-blend-mode:multiply">
<path d="M377.537 584.094L337.683 584.869L329.489 600.007L347.264 597.204L359.639 610.33L362.48 592.476L378.725 584.705L377.537 584.094Z" fill="#3A3A3A"/>
</g>
<path d="M360.372 558.544L347.631 571.311L329.942 568.001L338.087 584.124L337.683 584.869L338.081 584.863L355.355 587.902L376.464 584.116L377.537 584.096L362.706 576.474L360.372 558.544Z" fill="#FFEEFF"/>
<path d="M-22.1737 724.116L107.024 794.559L110.231 882.958L175.288 945.573L139.553 997.139L-22.1737 994.377V724.116Z" fill="#7A5FAD"/>
<g opacity="0.434" style="mix-blend-mode:multiply">
<path d="M378.248 760.028L353.508 785.351L391.992 791.797L411.234 838.298L457.049 793.638L448.344 761.87L378.248 760.028Z" fill="#7B2990"/>
</g>
<path d="M378.019 759.568C389.854 760.642 402.377 761.947 414.441 763.021C426.506 764.095 447.376 762.893 447.376 762.893L448.955 621.194L419.151 597.591L381.409 676.213L354.197 694.282L378.019 759.568Z" fill="#654B9A"/>
<mask id="mask2_1571_4657" style="mask-type:luminance" maskUnits="userSpaceOnUse" x="354" y="597" width="95" height="167">
<path d="M378.019 759.568C389.854 760.642 402.377 761.947 414.441 763.021C426.506 764.095 447.376 762.893 447.376 762.893L448.955 621.194L419.151 597.591L381.409 676.213L354.197 694.282L378.019 759.568Z" fill="white"/>
</mask>
<g mask="url(#mask2_1571_4657)">
<path opacity="0.679558" d="M352.269 693.8L420.013 716.7L436.911 765.929L366.531 762.813L352.269 693.8Z" fill="url(#paint13_linear_1571_4657)" style="mix-blend-mode:multiply"/>
</g>
<mask id="mask3_1571_4657" style="mask-type:luminance" maskUnits="userSpaceOnUse" x="354" y="597" width="95" height="167">
<path d="M378.019 759.568C389.854 760.642 402.377 761.947 414.441 763.021C426.506 764.095 447.376 762.893 447.376 762.893L448.955 621.194L419.151 597.591L381.409 676.213L354.197 694.282L378.019 759.568Z" fill="white"/>
</mask>
<g mask="url(#mask3_1571_4657)">
<path opacity="0.758" d="M355.069 694.918L418.649 715.319L381.617 676.535L336.33 665.549L355.069 694.918Z" fill="url(#paint14_linear_1571_4657)"/>
</g>
<mask id="mask4_1571_4657" style="mask-type:luminance" maskUnits="userSpaceOnUse" x="354" y="597" width="95" height="167">
<path d="M378.019 759.568C389.854 760.642 402.377 761.947 414.441 763.021C426.506 764.095 447.376 762.893 447.376 762.893L448.955 621.194L419.151 597.591L381.409 676.213L354.197 694.282L378.019 759.568Z" fill="white"/>
</mask>
<g mask="url(#mask4_1571_4657)">
<path opacity="0.824" d="M418.203 592.912L442.297 655.012L418.872 715.319L375.816 670.706L418.203 592.912Z" fill="url(#paint15_linear_1571_4657)"/>
</g>
<g opacity="0.679558" style="mix-blend-mode:multiply">
<path d="M450.635 615.487L439.177 653.114L420.031 715.994L454.105 768.307L452.058 678.202L450.635 615.487Z" fill="#9797A7"/>
</g>
<g opacity="0.494475" style="mix-blend-mode:multiply">
<path d="M416.737 590.721L439.177 653.114L450.635 615.487L452.058 678.202L479.484 688.447L458.277 604.507L416.737 590.721Z" fill="#A5A5BA"/>
</g>
<mask id="mask5_1571_4657" style="mask-type:luminance" maskUnits="userSpaceOnUse" x="-23" y="724" width="199" height="274">
<path d="M-22.1737 724.116L107.024 794.559L110.231 882.958L175.288 945.573L139.553 997.139L-22.1737 994.377V724.116Z" fill="white"/>
</mask>
<g mask="url(#mask5_1571_4657)">
<path opacity="0.679558" d="M108.111 794.234L42.7008 830.766L-1.46839 804.768L-28.9164 813.962V704.262L108.111 794.234Z" fill="url(#paint16_linear_1571_4657)"/>
</g>
<mask id="mask6_1571_4657" style="mask-type:luminance" maskUnits="userSpaceOnUse" x="-23" y="724" width="199" height="274">
<path d="M-22.1737 724.116L107.024 794.559L110.231 882.958L175.288 945.573L139.553 997.139L-22.1737 994.377V724.116Z" fill="white"/>
</mask>
<g mask="url(#mask6_1571_4657)">
<path opacity="0.67" d="M-27.1818 779.403L-25.4459 865.325L109.827 882.967L110.34 883.034L110.338 882.843L38.5996 834.571L38.0924 834.145L-27.1818 779.403Z" fill="#483676"/>
</g>
<mask id="mask7_1571_4657" style="mask-type:luminance" maskUnits="userSpaceOnUse" x="-23" y="724" width="199" height="274">
<path d="M-22.1737 724.116L107.024 794.559L110.231 882.958L175.288 945.573L139.553 997.139L-22.1737 994.377V724.116Z" fill="white"/>
</mask>
<g mask="url(#mask7_1571_4657)">
<path opacity="0.758" d="M38.0923 834.145L38.5995 834.571L110.338 882.843L109.449 792.889L38.0923 834.145Z" fill="url(#paint17_linear_1571_4657)"/>
</g>
<mask id="mask8_1571_4657" style="mask-type:luminance" maskUnits="userSpaceOnUse" x="-23" y="724" width="199" height="274">
<path d="M-22.1737 724.116L107.024 794.559L110.231 882.958L175.288 945.573L139.553 997.139L-22.1737 994.377V724.116Z" fill="white"/>
</mask>
<g mask="url(#mask8_1571_4657)">
<path d="M170.167 943.23L-24.4981 869.788L51.7806 990.863L177.812 946.315L170.167 943.23Z" fill="url(#paint18_linear_1571_4657)"/>
</g>
<mask id="mask9_1571_4657" style="mask-type:luminance" maskUnits="userSpaceOnUse" x="-23" y="724" width="199" height="274">
<path d="M-22.1737 724.116L107.024 794.559L110.231 882.958L175.288 945.573L139.553 997.139L-22.1737 994.377V724.116Z" fill="white"/>
</mask>
<g mask="url(#mask9_1571_4657)">
<path opacity="0.679558" d="M111.163 883.079L-36.4883 865.324L179.31 946.806L111.163 883.079Z" fill="url(#paint19_linear_1571_4657)"/>
</g>
<mask id="mask10_1571_4657" style="mask-type:luminance" maskUnits="userSpaceOnUse" x="-23" y="724" width="199" height="274">
<path d="M-22.1737 724.116L107.024 794.559L110.231 882.958L175.288 945.573L139.553 997.139L-22.1737 994.377V724.116Z" fill="white"/>
</mask>
<g mask="url(#mask10_1571_4657)">
<path d="M-25.296 866.199L59.0313 990.848L-15.034 1011.92L-63.6672 974.258L-25.296 866.199Z" fill="#584388"/>
</g>
<mask id="mask11_1571_4657" style="mask-type:luminance" maskUnits="userSpaceOnUse" x="-23" y="724" width="199" height="274">
<path d="M-22.1737 724.116L107.024 794.559L110.231 882.958L175.288 945.573L139.553 997.139L-22.1737 994.377V724.116Z" fill="white"/>
</mask>
<g mask="url(#mask11_1571_4657)">
<path d="M51.7806 990.863L175.288 945.573L139.553 997.139L51.7806 990.863Z" fill="#584388"/>
</g>
<path opacity="0.0966851" d="M372.32 597.74C366.416 598.26 359.967 598.53 353.438 598.53C341.724 598.53 330.49 597.661 322.207 596.115C313.924 594.57 309.269 592.473 309.268 590.287C309.268 589.748 309.552 589.21 310.115 588.681C308.202 589.668 307.217 590.725 307.217 591.792C307.217 593.962 311.283 596.043 318.521 597.578C325.759 599.112 335.575 599.974 345.811 599.974C355.669 599.975 365.154 599.175 372.32 597.74Z" fill="#CEB2D4"/>
<path opacity="0.287293" d="M356.232 582.347C364.017 582.387 371.398 582.9 376.816 583.778C382.233 584.657 385.261 585.831 385.259 587.053C385.259 588.302 382.098 589.499 376.471 590.382C370.844 591.265 363.212 591.761 355.254 591.761C349.623 591.761 344.105 591.512 339.332 591.043C334.559 590.575 330.723 589.904 328.264 589.109C330.033 590.227 333.813 591.212 339.028 591.913C344.243 592.615 350.607 592.994 357.15 592.994C361.091 592.994 364.992 592.857 368.633 592.589C372.273 592.321 375.581 591.929 378.367 591.435C381.154 590.94 383.364 590.353 384.872 589.707C386.38 589.061 387.156 588.369 387.156 587.67C387.156 586.258 383.994 584.903 378.367 583.905C372.74 582.906 365.108 582.345 357.15 582.345C356.844 582.345 356.538 582.346 356.232 582.347Z" fill="#CEB2D4"/>
<path opacity="0.232044" d="M87.7853 706.38C83.3105 707.454 77.8861 708.31 71.8521 708.895C65.8181 709.481 59.3047 709.783 52.7203 709.783C40.0437 709.783 27.8862 708.664 18.9223 706.673C9.95832 704.681 4.92228 701.979 4.92197 699.162C4.92228 696.955 8.0167 694.803 13.7751 693.005C19.5336 691.206 27.67 689.852 37.0536 689.128C26.6084 689.699 17.2568 691.147 10.5512 693.232C3.84573 695.317 0.189676 697.913 0.190064 700.59C0.189815 702.13 1.4015 703.656 3.75594 705.079C6.11037 706.503 9.56145 707.796 13.9121 708.885C18.2627 709.975 23.4278 710.839 29.1122 711.428C34.7967 712.018 40.8893 712.321 47.042 712.321C55.3244 712.321 63.4587 711.771 70.6159 710.728C77.773 709.684 83.6974 708.184 87.7853 706.38Z" fill="#CEB2D4"/>
<path opacity="0.0966851" d="M118.284 696.604C126.037 697.95 132.286 699.72 136.608 701.794C140.931 703.869 143.226 706.2 143.34 708.63C143.445 710.861 141.707 713.131 138.226 715.309C134.745 717.487 129.589 719.53 123.053 721.323C116.516 723.116 108.727 724.622 100.131 725.757C91.5337 726.891 82.2974 727.631 72.9489 727.935C62.3478 728.279 51.8539 728.054 42.2337 727.275C32.6135 726.497 24.1097 725.185 17.3435 723.435C23.8028 725.889 32.9799 727.801 43.9594 728.98C54.939 730.16 67.3371 730.566 79.9171 730.157C98.9984 729.538 117.211 727.089 130.549 723.349C143.887 719.61 151.257 714.886 151.039 710.217C150.903 707.317 147.842 704.557 142.128 702.182C136.414 699.807 128.223 697.891 118.284 696.604Z" fill="#CEB2D4"/>
<path opacity="0.124309" d="M460.188 789.119C454.028 791.345 446.566 793.12 438.269 794.334C429.971 795.548 421.017 796.174 411.965 796.174C402.441 796.174 393.032 795.48 384.385 794.141C375.739 792.802 368.061 790.849 361.883 788.417C367.225 792.459 374.569 795.784 383.24 798.087C391.912 800.39 401.633 801.597 411.513 801.597C421.101 801.597 430.544 800.461 439.025 798.287C447.506 796.112 454.77 792.966 460.188 789.119Z" fill="#CEB2D4"/>
<path opacity="0.232044" d="M374.736 750.57L374.461 749.815C365.81 751.227 358.681 753.185 353.74 755.507C348.799 757.828 346.207 760.437 346.207 763.09C346.207 767.248 352.572 771.237 363.903 774.178C375.233 777.118 390.6 778.771 406.624 778.771C418.651 778.77 430.404 777.839 440.378 776.094C434.898 776.354 429.288 776.485 423.66 776.485C414.027 776.485 404.489 776.101 395.589 775.354C386.689 774.608 378.603 773.514 371.791 772.135C364.98 770.756 359.577 769.119 355.891 767.317C352.205 765.515 350.307 763.584 350.308 761.634C350.308 759.546 352.484 757.481 356.693 755.575C360.903 753.668 367.05 751.963 374.736 750.57Z" fill="#CEB2D4"/>
<path opacity="0.0469613" d="M371.048 740.462L370.49 738.935C356.142 739.216 342.853 740.496 333.191 742.527C323.53 744.559 318.183 747.198 318.185 749.934C318.201 751.438 319.835 752.926 322.986 754.306C321.63 753.362 320.941 752.388 320.937 751.409C320.937 748.745 326.007 746.171 335.214 744.16C344.42 742.149 357.145 740.836 371.048 740.462Z" fill="#CEB2D4"/>
<g opacity="0.104972" filter="url(#filter4_f_1571_4657)">
<path d="M569.347 -33.6207C562.974 -34.1834 524.554 -29.177 422.266 -12.6091C365.402 -3.39872 316.424 8.97912 274.393 22.9767C284.421 18.6474 294.581 14.2466 304.601 9.88691C359.858 -14.1538 285.642 12.6806 210.253 47.6994C197.725 53.519 185.164 59.5648 173.159 65.6405C171.197 66.6749 169.262 67.711 167.352 68.7463C74.0297 119.325 43.0556 170.509 43.0556 170.509C130.221 99.5999 239.337 65.8164 326.076 49.7466C360.12 45.7521 411.014 40.4249 448.009 39.3982C474.431 38.6649 466.672 36.3012 441.236 36.0913C462.466 35.0129 474.896 35.2672 474.896 35.2672L476.885 -11.1712C476.885 -11.1712 581.514 -32.5464 569.347 -33.6207Z" fill="url(#paint20_linear_1571_4657)"/>
</g>
<g opacity="0.236" filter="url(#filter5_f_1571_4657)">
<path d="M60.3672 172.614L49.0595 173.034L42.9978 182.63L39.1008 171.955L28.1402 169.124L37.0395 162.108L36.3271 150.762L45.7242 157.1L56.2445 152.919L53.1529 163.853L60.3672 172.614Z" fill="#FE90FF"/>
</g>
<path d="M569.347 -33.623C562.974 -34.1857 524.554 -29.1791 422.266 -12.6114C365.402 -3.4011 316.424 8.97695 274.393 22.9744C284.421 18.6452 294.581 14.2435 304.601 9.8838C359.858 -14.1567 285.642 12.6776 210.254 47.6961C197.726 53.5157 185.164 59.5609 173.16 65.6365C171.198 66.6708 169.262 67.7079 167.352 68.7431C106.954 101.478 72.6721 134.465 56.0001 153.667L53.5868 162.197C138.889 96.9296 242.797 65.1717 326.077 49.743C360.12 45.7484 411.015 40.4211 448.01 39.3944C474.432 38.6612 466.671 36.2981 441.235 36.0882C462.466 35.0099 474.896 35.264 474.896 35.264L476.886 -11.1736C476.886 -11.1736 581.514 -32.5488 569.347 -33.623Z" fill="url(#paint21_linear_1571_4657)"/>
<path opacity="0.984" d="M60.3672 172.614L49.0595 173.034L42.9978 182.63L39.1008 171.955L28.1402 169.124L37.0395 162.108L36.3271 150.762L45.7242 157.1L56.2445 152.919L53.1529 163.853L60.3672 172.614Z" fill="#FE90FF"/>
<path opacity="0.198895" d="M32.1447 165.019C31.9684 168.419 33.0795 171.749 35.2337 174.274C37.388 176.8 40.4088 178.315 43.6318 178.487C45.87 178.6 48.0969 178.059 50.0672 176.924C48.335 177.778 46.4334 178.175 44.5269 178.081C42.9851 177.999 41.475 177.597 40.0829 176.899C38.6907 176.201 37.4438 175.219 36.4133 174.011C35.3828 172.803 34.5889 171.391 34.0768 169.857C33.5648 168.323 33.3447 166.696 33.4292 165.069C33.5135 163.443 33.9008 161.848 34.5687 160.377C35.2367 158.905 36.1723 157.586 37.3222 156.494C38.4721 155.402 39.8137 154.558 41.2704 154.011C42.7272 153.465 44.2705 153.226 45.8123 153.308C47.6447 153.415 49.4262 153.972 51.0141 154.937C49.2111 153.684 47.1222 152.962 44.9623 152.846C41.7393 152.674 38.5783 153.86 36.1745 156.143C33.7708 158.426 32.3212 161.619 32.1447 165.019Z" fill="#FE90FF"/>
<path opacity="0.198895" d="M51.0042 154.928C52.7754 156.156 54.2092 157.853 55.1634 159.849C56.1176 161.845 56.559 164.072 56.4437 166.308C56.3266 168.501 55.6779 170.628 54.5597 172.486C53.4415 174.344 51.8911 175.871 50.0567 176.92C52.0026 175.972 53.6685 174.483 54.8752 172.614C56.0818 170.745 56.7835 168.567 56.9047 166.314C57.0186 164.022 56.5274 161.745 55.4857 159.735C54.4441 157.725 52.8927 156.061 51.0042 154.928Z" fill="#FE90FF"/>
<defs>
<filter id="filter0_f_1571_4657" x="-46.7036" y="-54.5063" width="535.258" height="720.507" filterUnits="userSpaceOnUse" color-interpolation-filters="sRGB">
<feFlood flood-opacity="0" result="BackgroundImageFix"/>
<feBlend mode="normal" in="SourceGraphic" in2="BackgroundImageFix" result="shape"/>
<feGaussianBlur stdDeviation="10.3938" result="effect1_foregroundBlur_1571_4657"/>
</filter>
<filter id="filter1_f_1571_4657" x="-123.565" y="-69.3002" width="663.629" height="741.68" filterUnits="userSpaceOnUse" color-interpolation-filters="sRGB">
<feFlood flood-opacity="0" result="BackgroundImageFix"/>
<feBlend mode="normal" in="SourceGraphic" in2="BackgroundImageFix" result="shape"/>
<feGaussianBlur stdDeviation="38.3708" result="effect1_foregroundBlur_1571_4657"/>
</filter>
<filter id="filter2_f_1571_4657" x="259.131" y="862.088" width="261.618" height="273.747" filterUnits="userSpaceOnUse" color-interpolation-filters="sRGB">
<feFlood flood-opacity="0" result="BackgroundImageFix"/>
<feBlend mode="normal" in="SourceGraphic" in2="BackgroundImageFix" result="shape"/>
<feGaussianBlur stdDeviation="7.65309" result="effect1_foregroundBlur_1571_4657"/>
</filter>
<filter id="filter3_f_1571_4657" x="-0.229767" y="631.924" width="118.625" height="77.7752" filterUnits="userSpaceOnUse" color-interpolation-filters="sRGB">
<feFlood flood-opacity="0" result="BackgroundImageFix"/>
<feBlend mode="normal" in="SourceGraphic" in2="BackgroundImageFix" result="shape"/>
<feGaussianBlur stdDeviation="6.68208" result="effect1_foregroundBlur_1571_4657"/>
</filter>
<filter id="filter4_f_1571_4657" x="29.1496" y="-47.5685" width="555.088" height="231.984" filterUnits="userSpaceOnUse" color-interpolation-filters="sRGB">
<feFlood flood-opacity="0" result="BackgroundImageFix"/>
<feBlend mode="normal" in="SourceGraphic" in2="BackgroundImageFix" result="shape"/>
<feGaussianBlur stdDeviation="6.95295" result="effect1_foregroundBlur_1571_4657"/>
</filter>
<filter id="filter5_f_1571_4657" x="25.138" y="147.76" width="38.2313" height="37.8717" filterUnits="userSpaceOnUse" color-interpolation-filters="sRGB">
<feFlood flood-opacity="0" result="BackgroundImageFix"/>
<feBlend mode="normal" in="SourceGraphic" in2="BackgroundImageFix" result="shape"/>
<feGaussianBlur stdDeviation="1.50108" result="effect1_foregroundBlur_1571_4657"/>
</filter>
<linearGradient id="paint0_linear_1571_4657" x1="223.852" y1="52.8242" x2="223.852" y2="531.682" gradientUnits="userSpaceOnUse">
<stop stop-color="#15104C"/>
<stop offset="1" stop-color="#6E1981"/>
</linearGradient>
<linearGradient id="paint1_linear_1571_4657" x1="90.9127" y1="140.532" x2="155.131" y2="290.061" gradientUnits="userSpaceOnUse">
<stop stop-color="#543192"/>
<stop offset="1" stop-color="#543192" stop-opacity="0"/>
</linearGradient>
<linearGradient id="paint2_linear_1571_4657" x1="357.239" y1="432.553" x2="431.987" y2="290.913" gradientUnits="userSpaceOnUse">
<stop stop-color="#3F65D5"/>
<stop offset="1" stop-color="#3F65D5" stop-opacity="0"/>
</linearGradient>
<linearGradient id="paint3_linear_1571_4657" x1="158.192" y1="140.266" x2="149.315" y2="282.204" gradientUnits="userSpaceOnUse">
<stop stop-color="#D7BD80"/>
<stop offset="1" stop-color="#D7BD80" stop-opacity="0"/>
</linearGradient>
<linearGradient id="paint4_linear_1571_4657" x1="-21.7119" y1="152.776" x2="74.1342" y2="281.897" gradientUnits="userSpaceOnUse">
<stop stop-color="#8EE6E8" stop-opacity="0.367188"/>
<stop offset="1" stop-color="#8EE6E8" stop-opacity="0"/>
</linearGradient>
<linearGradient id="paint5_linear_1571_4657" x1="309.706" y1="504.403" x2="312.861" y2="301.255" gradientUnits="userSpaceOnUse">
<stop stop-color="#DCC297" stop-opacity="0.396875"/>
<stop offset="1" stop-color="#5C2677" stop-opacity="0"/>
</linearGradient>
<linearGradient id="paint6_linear_1571_4657" x1="90.9127" y1="140.532" x2="155.131" y2="290.061" gradientUnits="userSpaceOnUse">
<stop stop-color="#543192"/>
<stop offset="1" stop-color="#543192" stop-opacity="0"/>
</linearGradient>
<linearGradient id="paint7_linear_1571_4657" x1="357.239" y1="432.553" x2="431.987" y2="290.913" gradientUnits="userSpaceOnUse">
<stop stop-color="#3F65D5"/>
<stop offset="1" stop-color="#3F65D5" stop-opacity="0"/>
</linearGradient>
<linearGradient id="paint8_linear_1571_4657" x1="158.192" y1="140.266" x2="149.315" y2="282.204" gradientUnits="userSpaceOnUse">
<stop stop-color="#D7BD80"/>
<stop offset="1" stop-color="#D7BD80" stop-opacity="0"/>
</linearGradient>
<linearGradient id="paint9_linear_1571_4657" x1="-21.7119" y1="152.776" x2="74.1342" y2="281.897" gradientUnits="userSpaceOnUse">
<stop stop-color="#8EE6E8" stop-opacity="0.367188"/>
<stop offset="1" stop-color="#8EE6E8" stop-opacity="0"/>
</linearGradient>
<linearGradient id="paint10_linear_1571_4657" x1="309.706" y1="504.403" x2="312.861" y2="301.255" gradientUnits="userSpaceOnUse">
<stop stop-color="#DCC297" stop-opacity="0.396875"/>
<stop offset="1" stop-color="#5C2677" stop-opacity="0"/>
</linearGradient>
<linearGradient id="paint11_linear_1571_4657" x1="225.089" y1="490.991" x2="225.089" y2="589.561" gradientUnits="userSpaceOnUse">
<stop stop-color="#23054B"/>
<stop offset="1" stop-color="#47075C"/>
</linearGradient>
<linearGradient id="paint12_linear_1571_4657" x1="218.497" y1="546.137" x2="218.497" y2="1004.99" gradientUnits="userSpaceOnUse">
<stop stop-color="#602C6F"/>
<stop offset="1" stop-color="#3B184D"/>
</linearGradient>
<linearGradient id="paint13_linear_1571_4657" x1="352.269" y1="729.864" x2="427.919" y2="731.434" gradientUnits="userSpaceOnUse">
<stop stop-color="#9494AF"/>
<stop offset="1" stop-color="#565DA3" stop-opacity="0"/>
</linearGradient>
<linearGradient id="paint14_linear_1571_4657" x1="336.33" y1="690.434" x2="396.123" y2="696.429" gradientUnits="userSpaceOnUse">
<stop stop-color="#ED73FF"/>
<stop offset="1" stop-color="#654B9A"/>
</linearGradient>
<linearGradient id="paint15_linear_1571_4657" x1="375.816" y1="654.116" x2="437.192" y2="667.219" gradientUnits="userSpaceOnUse">
<stop stop-color="#C970DD"/>
<stop offset="1" stop-color="#9B4AAF" stop-opacity="0"/>
</linearGradient>
<linearGradient id="paint16_linear_1571_4657" x1="30.0289" y1="756.367" x2="1.69526" y2="814.996" gradientUnits="userSpaceOnUse">
<stop stop-color="#A560C3"/>
<stop offset="1" stop-color="#A560C3" stop-opacity="0"/>
</linearGradient>
<linearGradient id="paint17_linear_1571_4657" x1="64.4167" y1="832.934" x2="110.343" y2="837.818" gradientUnits="userSpaceOnUse">
<stop stop-color="#584388"/>
<stop offset="1" stop-color="#584388" stop-opacity="0"/>
</linearGradient>
<linearGradient id="paint18_linear_1571_4657" x1="75.5366" y1="827.754" x2="72.8039" y2="1027.75" gradientUnits="userSpaceOnUse">
<stop stop-color="#584388"/>
<stop offset="1" stop-color="#584388" stop-opacity="0"/>
</linearGradient>
<linearGradient id="paint19_linear_1571_4657" x1="132.418" y1="898.456" x2="-15.904" y2="904.735" gradientUnits="userSpaceOnUse">
<stop stop-color="#D878D8"/>
<stop offset="1" stop-color="#584488" stop-opacity="0"/>
</linearGradient>
<linearGradient id="paint20_linear_1571_4657" x1="49.0831" y1="54.7996" x2="564.346" y2="81.6406" gradientUnits="userSpaceOnUse">
<stop stop-color="#EBA6F9" stop-opacity="0.289062"/>
<stop offset="0.521092" stop-color="#6CE0FF" stop-opacity="0.632812"/>
</linearGradient>
<linearGradient id="paint21_linear_1571_4657" x1="49.0842" y1="54.7962" x2="564.346" y2="81.6373" gradientUnits="userSpaceOnUse">
<stop stop-color="#EBA6F9" stop-opacity="0.558594"/>
<stop offset="0.521092" stop-color="#6CE0FF" stop-opacity="0.800781"/>
</linearGradient>
</defs>
</svg>
