<svg width="212" height="45" viewBox="0 0 212 45" fill="none" xmlns="http://www.w3.org/2000/svg">
<rect x="1.25" y="1.25" width="209" height="42" rx="21" stroke="#CEB1E8" stroke-width="2.5"/>
<path d="M83.776 30.5732C82.8914 30.5732 82.0521 30.3577 81.2583 29.9268C80.4644 29.4845 79.8406 28.8948 79.387 28.1576C79.2963 27.9988 79.2509 27.8117 79.2509 27.5962C79.2509 27.2446 79.336 26.9668 79.5061 26.7627C79.6875 26.5585 79.9257 26.4564 80.2206 26.4564C80.4701 26.4564 80.6855 26.5075 80.867 26.6096C81.0485 26.7116 81.2072 26.8761 81.3433 27.1029C81.5588 27.4658 81.8934 27.7663 82.347 28.0045C82.812 28.2313 83.2883 28.3447 83.776 28.3447C85.4091 28.3447 86.2256 27.7777 86.2256 26.6436C86.2256 26.1559 86.0215 25.7136 85.6132 25.3167C85.2163 24.9197 84.5812 24.5171 83.7079 24.1089C82.6759 23.6325 81.8707 23.2016 81.2923 22.816C80.7252 22.4191 80.317 21.9994 80.0675 21.5572C79.818 21.1035 79.6932 20.5705 79.6932 19.9581C79.6932 19.2549 79.8803 18.6312 80.2546 18.0868C80.6288 17.5311 81.1448 17.1002 81.8026 16.7939C82.4604 16.4764 83.1976 16.3176 84.0141 16.3176C84.9214 16.3176 85.755 16.5218 86.5148 16.93C87.2746 17.327 87.853 17.8713 88.25 18.5631C88.3634 18.7446 88.4201 18.9317 88.4201 19.1245C88.4201 19.3967 88.3294 19.6349 88.1479 19.839C87.9778 20.0431 87.7623 20.1452 87.5015 20.1452C87.3087 20.1452 87.1102 20.0942 86.9061 19.9921C86.7019 19.8787 86.5431 19.7426 86.4297 19.5838C86.1689 19.2209 85.84 18.9544 85.4431 18.7843C85.0575 18.6142 84.5812 18.5291 84.0141 18.5291C83.345 18.5291 82.8176 18.6539 82.432 18.9034C82.0578 19.1415 81.8707 19.4931 81.8707 19.9581C81.8707 20.2416 81.9387 20.4798 82.0748 20.6726C82.2222 20.854 82.4661 21.0411 82.8063 21.2339C83.1579 21.4267 83.7306 21.7046 84.5245 22.0675C85.9081 22.7139 86.9004 23.3887 87.5015 24.0919C88.1139 24.795 88.4201 25.6456 88.4201 26.6436C88.4201 27.4261 88.2273 28.1179 87.8417 28.719C87.4561 29.3087 86.9117 29.768 86.2086 30.0969C85.5055 30.4144 84.6946 30.5732 83.776 30.5732ZM100.065 16.6408C100.348 16.6408 100.587 16.7429 100.779 16.947C100.984 17.1398 101.086 17.378 101.086 17.6615C101.086 17.9451 100.984 18.1889 100.779 18.393C100.587 18.5858 100.348 18.6822 100.065 18.6822H96.6116V29.4675C96.6116 29.751 96.4982 29.9948 96.2714 30.199C96.0559 30.3918 95.8007 30.4882 95.5059 30.4882C95.211 30.4882 94.9558 30.3918 94.7404 30.199C94.5249 29.9948 94.4171 29.751 94.4171 29.4675V18.6822H90.9468C90.6633 18.6822 90.4195 18.5858 90.2153 18.393C90.0225 18.1889 89.9261 17.9451 89.9261 17.6615C89.9261 17.378 90.0225 17.1398 90.2153 16.947C90.4195 16.7429 90.6633 16.6408 90.9468 16.6408H100.065ZM112.786 28.9741C112.843 29.1102 112.871 29.218 112.871 29.2974C112.871 29.5922 112.769 29.8474 112.565 30.0629C112.372 30.267 112.129 30.3691 111.834 30.3691C111.63 30.3691 111.437 30.3124 111.255 30.199C111.085 30.0856 110.96 29.9325 110.881 29.7397L109.554 26.3033H104.366L103.056 29.7567C102.988 29.9381 102.863 30.0856 102.682 30.199C102.511 30.3124 102.319 30.3691 102.103 30.3691C101.808 30.3691 101.564 30.267 101.372 30.0629C101.179 29.8587 101.082 29.6149 101.082 29.3314C101.082 29.2407 101.111 29.1272 101.168 28.9912L106.084 17.0491C106.175 16.8336 106.294 16.6692 106.441 16.5558C106.6 16.4424 106.764 16.3857 106.934 16.3857C107.127 16.3857 107.309 16.4424 107.479 16.5558C107.649 16.6692 107.779 16.8393 107.87 17.0661L112.786 28.9741ZM106.815 19.907L105.097 24.4151H108.823L107.087 19.907L106.951 19.4307L106.815 19.907ZM117.302 18.6142V21.5401H121.385C121.669 21.5401 121.907 21.6422 122.1 21.8463C122.304 22.0391 122.406 22.2773 122.406 22.5608C122.406 22.8444 122.304 23.0882 122.1 23.2923C121.907 23.4851 121.669 23.5815 121.385 23.5815H117.302V29.4505C117.302 29.734 117.2 29.9778 116.996 30.182C116.803 30.3748 116.565 30.4711 116.282 30.4711C115.998 30.4711 115.754 30.3748 115.55 30.182C115.357 29.9778 115.261 29.734 115.261 29.4505V17.6615C115.261 17.344 115.363 17.0831 115.567 16.879C115.771 16.6749 116.032 16.5728 116.35 16.5728H121.998C122.281 16.5728 122.519 16.6749 122.712 16.879C122.916 17.0718 123.018 17.31 123.018 17.5935C123.018 17.877 122.916 18.1208 122.712 18.325C122.519 18.5178 122.281 18.6142 121.998 18.6142H117.302ZM127.436 18.6142V21.5401H131.519C131.803 21.5401 132.041 21.6422 132.233 21.8463C132.438 22.0391 132.54 22.2773 132.54 22.5608C132.54 22.8444 132.438 23.0882 132.233 23.2923C132.041 23.4851 131.803 23.5815 131.519 23.5815H127.436V29.4505C127.436 29.734 127.334 29.9778 127.13 30.182C126.937 30.3748 126.699 30.4711 126.416 30.4711C126.132 30.4711 125.888 30.3748 125.684 30.182C125.491 29.9778 125.395 29.734 125.395 29.4505V17.6615C125.395 17.344 125.497 17.0831 125.701 16.879C125.905 16.6749 126.166 16.5728 126.484 16.5728H132.131C132.415 16.5728 132.653 16.6749 132.846 16.879C133.05 17.0718 133.152 17.31 133.152 17.5935C133.152 17.877 133.05 18.1208 132.846 18.325C132.653 18.5178 132.415 18.6142 132.131 18.6142H127.436Z" fill="white"/>
</svg>
