<svg width="217" height="23" viewBox="0 0 217 23" fill="none" xmlns="http://www.w3.org/2000/svg">
<path d="M26.055 0.107891C26.505 0.107891 26.901 0.269891 27.243 0.593892C27.585 0.917892 27.765 1.29589 27.783 1.72789C27.783 1.92589 27.765 2.06089 27.729 2.13289L21.951 21.4109C21.843 21.7709 21.618 22.0679 21.276 22.3019C20.952 22.5359 20.583 22.6529 20.169 22.6529C19.773 22.6529 19.413 22.5359 19.089 22.3019C18.783 22.0859 18.558 21.7889 18.414 21.4109L14.58 11.4479L10.098 21.3029C9.91801 21.6809 9.68401 21.9689 9.39601 22.1669C9.10801 22.3829 8.79301 22.4909 8.45101 22.4909C8.05501 22.4909 7.68601 22.3739 7.34401 22.1399C7.02001 21.9059 6.79501 21.6089 6.66901 21.2489L0.0810049 2.07889C0.0270049 1.91689 4.94719e-06 1.76389 4.94719e-06 1.61989C4.94719e-06 1.20589 0.171005 0.836891 0.513005 0.512891C0.873005 0.188891 1.27801 0.0268908 1.72801 0.0268908C2.07001 0.0268908 2.37601 0.143891 2.64601 0.377891C2.93401 0.593892 3.15001 0.872892 3.29401 1.21489L8.45101 15.9839C8.48701 16.1099 8.53201 16.2539 8.58601 16.4159C8.64001 16.5779 8.69401 16.7399 8.748 16.9019L9.09901 15.9839L13.068 7.53289L11.232 2.80789C11.052 2.35789 10.962 1.93489 10.962 1.53889C10.962 1.14289 11.124 0.791892 11.448 0.485891C11.79 0.179891 12.186 0.0268908 12.636 0.0268908C13.464 0.0268908 14.013 0.395891 14.283 1.13389L19.818 15.9569L20.007 16.7129L20.142 15.9569L24.516 1.32289C24.624 0.962892 24.813 0.674892 25.083 0.458892C25.371 0.224891 25.695 0.107891 26.055 0.107891ZM49.1782 16.7129C49.6282 16.7129 50.0062 16.8749 50.3122 17.1989C50.6362 17.5049 50.7982 17.8829 50.7982 18.3329C50.7982 18.7649 50.6452 19.1519 50.3392 19.4939C49.5112 20.3759 48.3502 21.1049 46.8562 21.6809C45.3622 22.2389 43.8772 22.5179 42.4012 22.5179C40.2592 22.5179 38.3242 22.0499 36.5962 21.1139C34.8682 20.1779 33.5092 18.8639 32.5192 17.1719C31.5292 15.4799 31.0342 13.5359 31.0342 11.3399C31.0342 9.16189 31.5292 7.21789 32.5192 5.50789C33.5092 3.79789 34.8682 2.47489 36.5962 1.53889C38.3242 0.584892 40.2592 0.107891 42.4012 0.107891C43.8772 0.107891 45.3532 0.404891 46.8292 0.998891C48.3052 1.59289 49.4662 2.37589 50.3122 3.34789C50.6182 3.70789 50.7712 4.09489 50.7712 4.50889C50.7712 4.95889 50.6092 5.34589 50.2852 5.66989C49.9612 5.97589 49.5742 6.12889 49.1242 6.12889C48.9082 6.12889 48.6922 6.08389 48.4762 5.99389C48.2602 5.90389 48.0892 5.77789 47.9632 5.61589C47.4412 4.98589 46.6672 4.49089 45.6412 4.13089C44.6152 3.77089 43.5352 3.59089 42.4012 3.59089C40.4032 3.59089 38.7202 4.09489 37.3522 5.10289C36.0022 6.09289 35.1292 7.48789 34.7332 9.28789H43.1572C43.6072 9.28789 43.9852 9.44989 44.2912 9.77389C44.6152 10.0799 44.7772 10.4579 44.7772 10.9079C44.7772 11.3579 44.6152 11.7449 44.2912 12.0689C43.9852 12.3749 43.6072 12.5279 43.1572 12.5279H34.5982C34.8322 14.5619 35.6512 16.1639 37.0552 17.3339C38.4772 18.4859 40.2592 19.0619 42.4012 19.0619C43.6432 19.0619 44.7772 18.8999 45.8032 18.5759C46.8292 18.2519 47.5492 17.8289 47.9632 17.3069C48.1072 17.1269 48.2872 16.9829 48.5032 16.8749C48.7372 16.7669 48.9622 16.7129 49.1782 16.7129ZM63.1612 18.9809C63.6112 18.9809 63.9892 19.1429 64.2952 19.4669C64.6192 19.7729 64.7812 20.1509 64.7812 20.6009C64.7812 21.0509 64.6192 21.4379 64.2952 21.7619C63.9892 22.0679 63.6112 22.2209 63.1612 22.2209H55.9252C55.4212 22.2209 55.0072 22.0589 54.6832 21.7349C54.3592 21.4109 54.1972 20.9969 54.1972 20.4929V1.78189C54.1972 1.33189 54.3502 0.953891 54.6562 0.647891C54.9802 0.323892 55.3672 0.161892 55.8172 0.161892C56.2672 0.161892 56.6452 0.323892 56.9512 0.647891C57.2752 0.953891 57.4372 1.33189 57.4372 1.78189V18.9809H63.1612ZM84.6927 17.3069C84.8367 17.1269 85.0167 16.9829 85.2327 16.8749C85.4667 16.7669 85.6917 16.7129 85.9077 16.7129C86.3577 16.7129 86.7357 16.8749 87.0417 17.1989C87.3657 17.5049 87.5277 17.8829 87.5277 18.3329C87.5277 18.7649 87.3747 19.1519 87.0687 19.4939C86.2407 20.3759 85.0797 21.1049 83.5857 21.6809C82.0917 22.2389 80.6067 22.5179 79.1307 22.5179C76.9887 22.5179 75.0537 22.0499 73.3257 21.1139C71.5977 20.1779 70.2387 18.8639 69.2487 17.1719C68.2587 15.4799 67.7637 13.5359 67.7637 11.3399C67.7637 9.16189 68.2587 7.21789 69.2487 5.50789C70.2387 3.79789 71.5977 2.47489 73.3257 1.53889C75.0537 0.584892 76.9887 0.107891 79.1307 0.107891C80.6067 0.107891 82.0827 0.404891 83.5587 0.998891C85.0347 1.59289 86.1957 2.37589 87.0417 3.34789C87.3477 3.70789 87.5007 4.09489 87.5007 4.50889C87.5007 4.95889 87.3387 5.34589 87.0147 5.66989C86.6907 5.97589 86.3037 6.12889 85.8537 6.12889C85.6377 6.12889 85.4217 6.08389 85.2057 5.99389C84.9897 5.90389 84.8187 5.77789 84.6927 5.61589C84.1707 4.98589 83.3967 4.49089 82.3707 4.13089C81.3447 3.77089 80.2647 3.59089 79.1307 3.59089C77.5827 3.59089 76.2057 3.90589 74.9997 4.53589C73.8117 5.14789 72.8847 6.03889 72.2187 7.20889C71.5707 8.36089 71.2467 9.73789 71.2467 11.3399C71.2467 12.9239 71.5797 14.3009 72.2457 15.4709C72.9117 16.6229 73.8387 17.5139 75.0267 18.1439C76.2147 18.7559 77.5827 19.0619 79.1307 19.0619C80.3727 19.0619 81.5067 18.8999 82.5327 18.5759C83.5587 18.2519 84.2787 17.8289 84.6927 17.3069ZM101.43 22.9229C99.3417 22.9229 97.4607 22.4459 95.7867 21.4919C94.1127 20.5199 92.7897 19.1699 91.8177 17.4419C90.8637 15.7139 90.3867 13.7429 90.3867 11.5289C90.3867 9.31489 90.8637 7.34389 91.8177 5.61589C92.7897 3.88789 94.1127 2.54689 95.7867 1.59289C97.4607 0.620891 99.3417 0.134891 101.43 0.134891C103.518 0.134891 105.399 0.620891 107.073 1.59289C108.747 2.54689 110.061 3.88789 111.015 5.61589C111.969 7.34389 112.446 9.31489 112.446 11.5289C112.446 13.7429 111.969 15.7139 111.015 17.4419C110.061 19.1699 108.747 20.5199 107.073 21.4919C105.399 22.4459 103.518 22.9229 101.43 22.9229ZM101.43 19.4399C102.87 19.4399 104.157 19.1159 105.291 18.4679C106.443 17.8019 107.343 16.8749 107.991 15.6869C108.639 14.4809 108.963 13.0949 108.963 11.5289C108.963 9.96289 108.639 8.58589 107.991 7.39789C107.343 6.19189 106.443 5.26489 105.291 4.61689C104.157 3.95089 102.87 3.61789 101.43 3.61789C99.9897 3.61789 98.6937 3.95089 97.5417 4.61689C96.3897 5.26489 95.4897 6.19189 94.8417 7.39789C94.1937 8.58589 93.8697 9.96289 93.8697 11.5289C93.8697 13.0949 94.1937 14.4809 94.8417 15.6869C95.4897 16.8749 96.3897 17.8019 97.5417 18.4679C98.6937 19.1159 99.9897 19.4399 101.43 19.4399ZM140.196 20.8709C140.196 21.3389 140.016 21.7529 139.656 22.1129C139.314 22.4729 138.9 22.6529 138.414 22.6529C138.036 22.6529 137.676 22.5269 137.334 22.2749C137.01 22.0409 136.812 21.7529 136.74 21.4109C136.326 19.6289 135.75 17.1719 135.012 14.0399C134.274 10.8899 133.716 8.54089 133.338 6.99289L133.23 6.34489C133.176 6.50689 133.14 6.65089 133.122 6.77689C133.122 6.88489 133.113 6.95689 133.095 6.99289L128.721 20.7359C128.595 21.1139 128.379 21.4199 128.073 21.6539C127.785 21.8699 127.452 21.9779 127.074 21.9779C126.678 21.9779 126.309 21.8609 125.967 21.6269C125.643 21.3929 125.418 21.1049 125.292 20.7629L120.675 7.01989L120.567 6.39889C120.477 6.72289 120.432 6.92989 120.432 7.01989C120.054 8.81989 119.559 11.2319 118.947 14.2559C118.335 17.2619 117.876 19.5659 117.57 21.1679C117.498 21.5099 117.291 21.8069 116.949 22.0589C116.625 22.2929 116.265 22.4099 115.869 22.4099C115.419 22.4099 115.032 22.2479 114.708 21.9239C114.402 21.5999 114.249 21.2219 114.249 20.7899C114.249 20.7179 114.267 20.5919 114.303 20.4119C114.465 19.7459 115.941 13.4369 118.731 1.48489C118.821 1.08889 119.019 0.773891 119.325 0.539892C119.649 0.305892 120.009 0.188892 120.405 0.188892C120.783 0.188892 121.116 0.305892 121.404 0.539892C121.71 0.755892 121.926 1.05289 122.052 1.43089L126.723 15.8489C126.723 15.9029 126.777 16.1639 126.885 16.6319C126.993 16.1639 127.047 15.9029 127.047 15.8489L131.637 1.24189C131.763 0.881892 131.988 0.584892 132.312 0.350891C132.636 0.116891 132.996 -0.000108838 133.392 -0.000108838C133.824 -0.000108838 134.22 0.116891 134.58 0.350891C134.94 0.584892 135.156 0.881892 135.228 1.24189C135.606 2.66389 136.191 4.95889 136.983 8.12689C137.793 11.2949 138.603 14.4539 139.413 17.6039L140.142 20.5199L140.196 20.8709ZM161.582 16.7129C162.032 16.7129 162.41 16.8749 162.716 17.1989C163.04 17.5049 163.202 17.8829 163.202 18.3329C163.202 18.7649 163.049 19.1519 162.743 19.4939C161.915 20.3759 160.754 21.1049 159.26 21.6809C157.766 22.2389 156.281 22.5179 154.805 22.5179C152.663 22.5179 150.728 22.0499 149 21.1139C147.272 20.1779 145.913 18.8639 144.923 17.1719C143.933 15.4799 143.438 13.5359 143.438 11.3399C143.438 9.16189 143.933 7.21789 144.923 5.50789C145.913 3.79789 147.272 2.47489 149 1.53889C150.728 0.584892 152.663 0.107891 154.805 0.107891C156.281 0.107891 157.757 0.404891 159.233 0.998891C160.709 1.59289 161.87 2.37589 162.716 3.34789C163.022 3.70789 163.175 4.09489 163.175 4.50889C163.175 4.95889 163.013 5.34589 162.689 5.66989C162.365 5.97589 161.978 6.12889 161.528 6.12889C161.312 6.12889 161.096 6.08389 160.88 5.99389C160.664 5.90389 160.493 5.77789 160.367 5.61589C159.845 4.98589 159.071 4.49089 158.045 4.13089C157.019 3.77089 155.939 3.59089 154.805 3.59089C152.807 3.59089 151.124 4.09489 149.756 5.10289C148.406 6.09289 147.533 7.48789 147.137 9.28789H155.561C156.011 9.28789 156.389 9.44989 156.695 9.77389C157.019 10.0799 157.181 10.4579 157.181 10.9079C157.181 11.3579 157.019 11.7449 156.695 12.0689C156.389 12.3749 156.011 12.5279 155.561 12.5279H147.002C147.236 14.5619 148.055 16.1639 149.459 17.3339C150.881 18.4859 152.663 19.0619 154.805 19.0619C156.047 19.0619 157.181 18.8999 158.207 18.5759C159.233 18.2519 159.953 17.8289 160.367 17.3069C160.511 17.1269 160.691 16.9829 160.907 16.8749C161.141 16.7669 161.366 16.7129 161.582 16.7129ZM190.523 0.539892C190.973 0.539892 191.351 0.701892 191.657 1.02589C191.981 1.33189 192.143 1.70989 192.143 2.15989C192.143 2.60989 191.981 2.99689 191.657 3.32089C191.351 3.62689 190.973 3.77989 190.523 3.77989H185.042V20.8979C185.042 21.3479 184.862 21.7349 184.502 22.0589C184.16 22.3649 183.755 22.5179 183.287 22.5179C182.819 22.5179 182.414 22.3649 182.072 22.0589C181.73 21.7349 181.559 21.3479 181.559 20.8979V3.77989H176.051C175.601 3.77989 175.214 3.62689 174.89 3.32089C174.584 2.99689 174.431 2.60989 174.431 2.15989C174.431 1.70989 174.584 1.33189 174.89 1.02589C175.214 0.701892 175.601 0.539892 176.051 0.539892H190.523ZM205.765 22.9229C203.677 22.9229 201.796 22.4459 200.122 21.4919C198.448 20.5199 197.125 19.1699 196.153 17.4419C195.199 15.7139 194.722 13.7429 194.722 11.5289C194.722 9.31489 195.199 7.34389 196.153 5.61589C197.125 3.88789 198.448 2.54689 200.122 1.59289C201.796 0.620891 203.677 0.134891 205.765 0.134891C207.853 0.134891 209.734 0.620891 211.408 1.59289C213.082 2.54689 214.396 3.88789 215.35 5.61589C216.304 7.34389 216.781 9.31489 216.781 11.5289C216.781 13.7429 216.304 15.7139 215.35 17.4419C214.396 19.1699 213.082 20.5199 211.408 21.4919C209.734 22.4459 207.853 22.9229 205.765 22.9229ZM205.765 19.4399C207.205 19.4399 208.492 19.1159 209.626 18.4679C210.778 17.8019 211.678 16.8749 212.326 15.6869C212.974 14.4809 213.298 13.0949 213.298 11.5289C213.298 9.96289 212.974 8.58589 212.326 7.39789C211.678 6.19189 210.778 5.26489 209.626 4.61689C208.492 3.95089 207.205 3.61789 205.765 3.61789C204.325 3.61789 203.029 3.95089 201.877 4.61689C200.725 5.26489 199.825 6.19189 199.177 7.39789C198.529 8.58589 198.205 9.96289 198.205 11.5289C198.205 13.0949 198.529 14.4809 199.177 15.6869C199.825 16.8749 200.725 17.8019 201.877 18.4679C203.029 19.1159 204.325 19.4399 205.765 19.4399Z" fill="#CEB1E8"/>
</svg>
