<svg width="393" height="852" viewBox="0 0 393 852" fill="none" xmlns="http://www.w3.org/2000/svg">
<g clip-path="url(#clip0_1012_13)">
<rect width="393" height="852" fill="#242424"/>
<path d="M67.2715 271.565L78.336 208.997L158.554 161L273.809 188.427L349.417 271.565L366.013 366.703L334.664 458.412L378 645.259L44.2204 651L67.2715 557.835L35 418.986V328.991L67.2715 271.565Z" fill="#212121"/>
<path d="M131 397L137 360.5L180.5 332.5L243 348.5L284 397L293 452.5L276 506L299.5 615L118.5 618.349L131 564L113.5 483V430.5L131 397Z" fill="#1C1C1C"/>
<path d="M108 615H304L438.5 763L-28.5 774.5L108 615Z" fill="url(#paint0_linear_1012_13)"/>
<path d="M394.435 459L403.179 535.465V575.131L423 751L369 726.587L361.206 700.82L283.5 615.5L337 584L368.785 523.995L394.435 459Z" fill="#464646"/>
<path d="M283 616.5L334 586V621L324.5 660L283 616.5Z" fill="#373737"/>
<path d="M334 619.5L360 615L361 701L331 681L324 659.5L334 619.5Z" fill="#3E3E3E"/>
<path d="M334 586L369 522.788L393 463V587.14L360 615.892L334 620V586Z" fill="#585858"/>
<path d="M381.5 696L398.5 675.5L394.5 737.5L369 727L381.5 696Z" fill="#595959"/>
<path d="M104 651.5L172.5 676L223.5 669.5L203 655.5L281 665L304 651.5" stroke="#1E1E1E"/>
<path d="M69 734.5L100 726.5L144.5 742.5H174.5" stroke="#1E1E1E" stroke-width="2"/>
<path d="M98 727L134 722L139 714L187 709" stroke="#1E1E1E" stroke-width="2"/>
<path d="M263.725 681.579L270.036 667.815L280.184 678.408L278.538 690.522L274.535 694.959L271.04 696.983L267.95 695.022L263.725 681.579Z" fill="#5BBEBC"/>
<path d="M272.775 681.112L280.182 678.513L278.493 690.468L274.626 695.024L272.775 681.112Z" fill="#549C9A"/>
<path d="M267.008 674.489L270.073 667.816L272.775 681.112L263.725 681.579L267.008 674.489Z" fill="#81D8D6"/>
<path d="M261.308 690.058L261.217 681.568L268.897 684.514L270.959 691.051L269.99 694.259L268.701 696.121L266.665 695.865L261.308 690.058Z" fill="#5BBEBC"/>
<path d="M265.786 687.657L268.921 684.568L270.923 691.034L270.051 694.27L265.786 687.657Z" fill="#549C9A"/>
<path d="M261.277 685.677L261.236 681.56L265.786 687.657L261.308 690.058L261.277 685.677Z" fill="#81D8D6"/>
<path d="M135.58 646.321L133.075 634.376L123.208 640.891L122.341 650.707L124.695 654.91L127.082 657.125L129.861 656.134L135.58 646.321Z" fill="#5BBEBC"/>
<path d="M128.549 644.339L123.191 640.974L122.385 650.673L124.612 654.944L128.549 644.339Z" fill="#549C9A"/>
<path d="M134.265 640.162L133.047 634.37L128.55 644.339L135.58 646.321L134.265 640.162Z" fill="#81D8D6"/>
<path d="M135.968 653.417L137.554 646.76L130.991 647.705L128.204 652.475L128.393 655.17L127.145 657.143L130.72 657.026L135.968 653.417Z" fill="#5BBEBC"/>
<path d="M132.876 650.73L130.963 647.743L128.754 651.723L127.172 657.15L132.876 650.73Z" fill="#549C9A"/>
<path d="M136.773 649.979L137.54 646.75L132.876 650.731L135.968 653.417L136.773 649.979Z" fill="#81D8D6"/>
<path d="M252 727.5L327.5 735.5L368.5 725" stroke="#1E1E1E" stroke-width="2"/>
<path d="M276 689L286.5 684L296 696.5L286.5 701.5L267 696.5L276 689Z" fill="#444444"/>
<path d="M271.5 688.5L277 683.5L286.5 684L267 696.5L271.5 688.5Z" fill="#526564"/>
<path d="M119.5 648.5L131.5 653L133 663.5L121 663L119.5 648.5Z" fill="#3C4545"/>
<path d="M119.5 648.5L124.5 657.5L133 663.5L122 671L111 668.5L107.5 663.5L119.5 648.5Z" fill="#343434"/>
<path d="M0 467L67.5 526.5L85 582.5L130.5 617L0 763V467Z" fill="#585858"/>
<path d="M-5 617L88 624L103.5 647.5L78 681L54 723.5L-5 768L-5 617Z" fill="#343434"/>
<path d="M85 582.5L131 616.5L127 628.5L101 650.5L85 627V582.5Z" fill="#373737"/>
<path d="M-3.1 563L85 582.5V627L-13 622.5L-3.1 563Z" fill="#3E3E3E"/>
<path d="M0 623L11 623.5L54.5 723.5L0 764.5V681V623Z" fill="#3E3E3E"/>
<path d="M328 0H393V110L358 98L328 71.5L291.5 54L213 26.5L126 38.5L61 32L18.5 71.5L0.5 160.5V0H328Z" fill="#464646"/>
<path d="M0 30.5V-0.5H17L60.5 32L18.5 71.5L0 30.5Z" fill="#585858"/>
<path d="M126 -0.5H202L213 26L126 38.5V-0.5Z" fill="#585858"/>
<path d="M377 92.5L393 88V110L358 98L377 92.5Z" fill="#585858"/>
<path d="M329 72L393 48.5V88.5L358 98L329 72Z" fill="#3E3E3E"/>
<path d="M16 358L-5.5 399L-30 358V282L16 300L26.5 329L16 358Z" fill="#585858"/>
<path d="M26.5 329H-20L-15.5 287.5L16 299.5L26.5 329Z" fill="#3E3E3E"/>
<path d="M12 624C10 619.5 10.1 610.5 26.5 610.5" stroke="#1E1E1E" stroke-width="2" stroke-linecap="round"/>
<path d="M12.4 625C14.7359 629.37 18.0958 639.224 12.8483 643.676" stroke="#1E1E1E" stroke-width="2" stroke-linecap="round"/>
<path d="M13 625C16.5 622.5 25.5 619.1 33.5 625.5" stroke="#1E1E1E" stroke-width="2" stroke-linecap="round"/>
<path d="M17 612C20.1667 610.667 25.9 606.6 23.5 601" stroke="#1E1E1E" stroke-width="2" stroke-linecap="round"/>
<path d="M16 635.5L21.5 647C23.5 650.333 28.5 655.7 32.5 650.5" stroke="#1E1E1E" stroke-width="2" stroke-linecap="round"/>
<path d="M13.7474 624.836C13.5796 624.63 13.3391 624.503 13.0742 624.488C12.8096 624.472 12.5422 624.569 12.3356 624.753C12.1291 624.936 12.0016 625.19 11.9862 625.455C11.9705 625.72 12.068 625.974 12.2526 626.164C12.5317 626.453 12.8108 626.742 13.09 627.031C18.1142 632.232 23.1384 637.433 28.1626 642.633C28.4418 642.922 28.7209 643.211 29 643.5C28.7458 643.189 28.4916 642.878 28.2374 642.567C23.6616 636.967 19.0858 631.368 14.51 625.769C14.2558 625.458 14.0016 625.147 13.7474 624.836Z" fill="#1E1E1E"/>
<path d="M317.456 -3C323.106 0.216 334.106 9.1136 332.91 18.976C331.414 31.304 309.978 25.944 300.506 41.488C292.929 53.9232 304.328 61.6773 310.975 64" stroke="#171717" stroke-width="2" stroke-linecap="round"/>
<path d="M328.361 24.2311C328.154 24.3975 328.024 24.6384 327.999 24.9026C327.975 25.1667 328.059 25.4323 328.231 25.6394C328.403 25.8464 328.649 25.9774 328.913 26.0016C329.177 26.026 329.438 25.9416 329.639 25.7689C330.452 25.0713 331.3 24.3877 332.168 23.7216C342.1 16.5845 356.118 7.73124 367.469 15.5186C372.634 19.6514 379.218 23.3035 385.985 21.9314C387.061 21.6792 388.123 21.2765 389 20.6111C388.104 21.2491 387.037 21.6158 385.964 21.8337C379.228 22.9831 372.888 19.1961 367.922 14.975C356.002 6.39511 341.428 15.2467 331.034 22.1968C330.122 22.8547 329.227 23.5324 328.361 24.2311Z" fill="#171717"/>
<path d="M354 12C354.648 11.9654 355.335 11.9208 355.987 11.8731C361.956 11.3951 367.955 10.6423 373.717 8.69438C376.398 7.59385 380.051 6.5803 380.721 2.68464C380.54 -1.22279 377.409 -2.98258 374.979 -4.77991C374.437 -5.14263 373.866 -5.50207 373.246 -5.87102C373.018 -6.00717 372.748 -6.0455 372.492 -5.97418C372.237 -5.90306 372.017 -5.72813 371.884 -5.49126C371.75 -5.25438 371.714 -4.97593 371.785 -4.72055C371.857 -4.46498 372.029 -4.2534 372.264 -4.12898C372.873 -3.80418 373.433 -3.48989 373.962 -3.17447C376.383 -1.67682 379.153 0.184524 379.273 2.62086C379.149 5.05392 375.948 6.67134 373.361 7.75973C367.865 9.93408 361.901 11.0026 355.977 11.7736C355.329 11.8544 354.645 11.9322 354 12Z" fill="#171717"/>
<path d="M312.265 64.1947C312.055 63.8572 311.719 63.6185 311.331 63.5323C310.943 63.4459 310.533 63.5191 310.195 63.7345C309.856 63.9499 309.617 64.2897 309.53 64.6781C309.444 65.0664 309.518 65.4715 309.735 65.8053C309.898 66.1692 310.205 68.0906 310.336 69.3601C310.508 70.9387 310.612 72.1604 310.731 73.726C313.494 126.038 313.397 178.745 313.935 231.265C313.956 234.346 313.976 237.043 314 240C314.026 237.043 314.056 234.346 314.085 231.265C314.445 178.71 315.45 126.154 313.575 73.5355C313.271 70.3669 313.584 67.992 312.265 64.1947Z" fill="#171717"/>
<path d="M329.824 10.5951C330.054 10.7289 330.323 10.7631 330.576 10.6843C330.83 10.6058 331.046 10.4207 331.175 10.1757C331.304 9.93071 331.334 9.64753 331.255 9.39441C331.176 9.14095 330.996 8.93831 330.756 8.82512C330.405 8.65944 330.038 8.4919 329.68 8.33533C326.42 6.97663 323.025 5.66209 319.306 5.91826C318.396 6.02142 317.406 6.3074 316.689 7.00947C315.96 7.71249 315.704 8.71058 315.696 9.60786C315.697 11.4268 316.347 13.1151 317.032 14.6855C317.183 15.0241 317.348 15.3748 317.526 15.7382C317.378 15.3614 317.245 14.9983 317.125 14.6488C316.579 13.0374 316.096 11.2909 316.245 9.63943C316.319 7.91424 317.749 6.86894 319.379 6.91561C322.649 6.95918 325.876 8.476 328.845 10.0421C329.172 10.2206 329.507 10.4092 329.824 10.5951Z" fill="#171717"/>
<path d="M211.734 25.3574C211.557 25.5552 211.469 25.8131 211.492 26.0774C211.515 26.3415 211.648 26.5904 211.857 26.7662C212.067 26.942 212.335 27.0294 212.599 27.0061C212.864 26.983 213.102 26.8512 213.266 26.6426C213.538 26.2921 213.894 25.9188 214.262 25.5706C217.704 22.472 222.009 20.0632 226.497 18.534C228.735 17.8187 231.156 17.2808 233.447 17.7573C235.811 18.1373 237.357 20.4944 237.464 22.8771C237.513 23.4421 237.522 23.9187 237.5 24.5C237.555 23.9208 237.579 23.4433 237.563 22.8711C237.626 20.4954 236.144 17.7991 233.584 17.2246C231.137 16.559 228.581 16.9806 226.216 17.5742C221.453 18.8887 216.983 21.0004 213 24.1497C212.563 24.5158 212.124 24.9184 211.734 25.3574Z" fill="#171717"/>
<path d="M212.5 26L201 -2.5" stroke="#171717" stroke-width="2" stroke-linecap="round"/>
<path d="M213.5 26C213.506 25.7348 213.407 25.4804 213.219 25.2929C213.032 25.1054 212.772 25 212.5 25C212.228 25 211.968 25.1054 211.781 25.2929C211.593 25.4804 211.494 25.7348 211.5 26C211.517 26.6917 211.533 27.3833 211.55 28.075C211.85 40.525 212.15 52.975 212.45 65.425C212.467 66.1167 212.483 66.8083 212.5 67.5C212.517 66.8083 212.533 66.1167 212.55 65.425C212.85 52.975 213.15 40.525 213.45 28.075C213.467 27.3833 213.483 26.6917 213.5 26Z" fill="#171717"/>
<path d="M211.506 25.608C211.523 25.873 211.645 26.1156 211.852 26.2817C212.058 26.4479 212.333 26.5241 212.608 26.4941C212.884 26.4642 213.135 26.3308 213.301 26.1242C213.468 25.9174 213.535 25.6543 213.494 25.3919C213.439 25.0354 213.385 24.6546 213.336 24.2922C212.909 20.9707 212.691 17.584 213.002 14.2558C213.18 12.6042 213.458 10.9217 214.282 9.51538C215.037 8.00599 216.983 7.64818 218.496 8.45715C218.861 8.62509 219.153 8.78406 219.5 8.99998C219.172 8.7565 218.896 8.56816 218.541 8.36794C217.803 7.95399 216.941 7.63457 216.038 7.75364C215.128 7.8639 214.347 8.48595 213.826 9.20796C212.782 10.6833 212.351 12.414 212.012 14.1117C211.386 17.5326 211.307 20.9995 211.443 24.4578C211.46 24.8357 211.482 25.2336 211.506 25.608Z" fill="#171717"/>
<path d="M211.737 26.6721C211.901 26.8808 212.14 27.0123 212.404 27.0338C212.668 27.0556 212.937 26.9657 213.147 26.7876C213.357 26.6096 213.489 26.359 213.511 26.0948C213.533 25.8303 213.442 25.5739 213.263 25.3782C212.956 25.043 212.634 24.706 212.307 24.3773C209.373 21.4789 206.015 18.9387 202.11 17.4977C198.291 15.9327 193.337 16.6367 190.819 19.9502C190.516 20.3054 190.265 20.6395 190 21.0251C190.292 20.6593 190.568 20.3476 190.892 20.0178C197.301 13.4788 206.206 20.2014 210.914 25.6691C211.199 26.0011 211.477 26.3392 211.737 26.6721Z" fill="#171717"/>
<path d="M59.905 32.8037C60.1148 32.9661 60.379 33.0367 60.6414 32.9974C60.9037 32.9584 61.1426 32.8127 61.3037 32.595C61.4649 32.3773 61.5345 32.1062 61.4953 31.844C61.4562 31.5816 61.3115 31.3495 61.095 31.1963C60.4434 30.7347 59.7918 30.273 59.1402 29.8114C47.4117 21.5026 35.6832 13.1937 23.9547 4.88481C23.3032 4.42321 22.6516 3.9616 22 3.5C22.6318 3.9884 23.2635 4.47679 23.8953 4.96519C35.2668 13.7563 46.6383 22.5474 58.0098 31.3386C58.6415 31.827 59.2733 32.3153 59.905 32.8037Z" fill="#171717"/>
<path d="M59.6862 32.5813C59.8265 32.807 60.0479 32.9614 60.3097 33.0049C60.5711 33.0486 60.8515 32.9778 61.0812 32.8138C61.3109 32.6497 61.4689 32.4074 61.5122 32.146C61.5561 31.8842 61.4818 31.6247 61.3137 31.4188C61.1602 31.2326 61.0084 31.0372 60.8624 30.8384C59.6228 29.1103 58.3777 26.7475 59.4303 25.0568C60.6491 23.4016 63.4467 23.3478 65.7076 23.4448C65.9631 23.4581 66.2272 23.4765 66.5 23.5C66.2321 23.4435 65.972 23.392 65.7193 23.3455C63.4541 23.0243 60.7453 22.4288 58.6457 24.4367C56.8101 26.8758 58.1769 29.7436 59.2586 31.8571C59.3948 32.1027 59.5386 32.3458 59.6862 32.5813Z" fill="#171717"/>
<path d="M53.1685 27.9434C53.4148 28.0425 53.6863 28.0371 53.9255 27.9222C54.1645 27.8076 54.3516 27.5928 54.4435 27.3315C54.5353 27.0701 54.5236 26.7855 54.4088 26.5466C54.2941 26.3073 54.0856 26.1333 53.8315 26.0565C53.4688 25.9467 53.0891 25.8361 52.7163 25.7322C46.1979 24.2861 38.4039 21.6582 32.5915 26.0188C32.3445 26.3152 32.1458 26.6439 32 27C32.1762 26.6578 32.4005 26.3527 32.6655 26.0861C38.5552 22.3903 45.9553 25.5808 52.1278 27.5388C52.4775 27.6702 52.8324 27.8077 53.1685 27.9434Z" fill="#171717"/>
<path d="M61.5 32C61.5075 31.7348 61.4087 31.4804 61.221 31.2929C61.0336 31.1054 60.7727 31 60.5 31C60.2273 31 59.9664 31.1054 59.779 31.2929C59.5913 31.4804 59.4925 31.7348 59.5 32C59.5167 32.6 59.5333 33.2 59.55 33.8C59.85 44.6 60.15 55.4 60.45 66.2C60.4667 66.8 60.4833 67.4 60.5 68C60.5167 67.4 60.5333 66.8 60.55 66.2C60.85 55.4 61.15 44.6 61.45 33.8C61.4667 33.2 61.4833 32.6 61.5 32Z" fill="#171717"/>
<path d="M125 39C124.99 39.2652 125.087 39.5196 125.275 39.7071C125.462 39.8946 125.725 40 126 40C126.275 40 126.538 39.8946 126.725 39.7071C126.913 39.5196 127.01 39.2652 127 39C126.983 38.5333 126.967 38.0667 126.95 37.6C126.65 29.2 126.35 20.8 126.05 12.4C126.033 11.9333 126.017 11.4667 126 11C125.983 11.4667 125.967 11.9333 125.95 12.4C125.65 20.8 125.35 29.2 125.05 37.6C125.033 38.0667 125.017 38.5333 125 39Z" fill="#171717"/>
<path d="M125.084 38.5992C124.968 38.838 124.954 39.1096 125.051 39.3566C125.147 39.6035 125.347 39.8057 125.599 39.9162C125.852 40.0266 126.135 40.0357 126.382 39.939C126.629 39.8424 126.819 39.648 126.916 39.4008C127.043 39.0678 127.217 38.7129 127.413 38.3656C131.256 32.6828 138.504 25.6533 145.973 28.7261C146.341 28.9476 146.677 29.201 147 29.5001C146.701 29.1775 146.383 28.8957 146.028 28.6424C142.633 26.3068 138.157 27.8242 134.799 29.6113C131.345 31.5307 128.192 33.9892 125.798 37.3654C125.538 37.7541 125.291 38.1667 125.084 38.5992Z" fill="#171717"/>
<path d="M125.003 34.9288C124.974 35.1927 125.052 35.4533 125.226 35.6537C125.4 35.8541 125.654 35.9779 125.929 35.9975C126.203 36.0171 126.473 35.9308 126.673 35.757C126.874 35.5834 126.988 35.3365 126.997 35.0713C127.018 34.5414 126.975 34.0201 126.892 33.51C125.986 29.0785 123.399 25.5889 120.447 22.6172C118.934 21.1625 117.239 19.8493 115.262 19.064C113.341 18.2402 110.806 18.3338 109.359 19.9151C109.026 20.2498 108.76 20.595 108.5 21C108.787 20.6139 109.077 20.2927 109.427 19.9883C112.935 17.0733 117.231 20.5301 119.726 23.3102C122.344 26.3132 124.556 30.0265 125.008 33.7536C125.045 34.1666 125.045 34.565 125.003 34.9288Z" fill="#171717"/>
<path d="M127.5 37.5033C127.503 37.2381 127.4 36.9834 127.213 36.7952C127.026 36.6071 126.77 36.5009 126.503 36.5C126.236 36.4991 125.98 36.6036 125.792 36.7906C125.604 36.9775 125.499 37.2315 125.5 37.4967C125.508 40.1551 125.516 42.8135 125.524 45.4719C125.667 93.3228 125.81 141.174 125.953 189.025C125.961 191.683 125.969 194.342 125.977 197C126.002 194.342 126.028 191.683 126.053 189.025C126.51 141.176 126.967 93.3271 127.424 45.4781C127.449 42.8198 127.475 40.1616 127.5 37.5033Z" fill="#171717"/>
<path d="M333 620C332.986 620.265 333.079 620.52 333.267 620.707C333.454 620.895 333.721 621 334 621C334.279 621 334.546 620.895 334.733 620.707C334.921 620.52 335.014 620.265 335 620C334.99 619.808 334.98 619.616 334.97 619.425C334.963 619.302 334.958 619.179 334.953 619.057C334.728 613.543 336.837 607.843 340.823 603.681C341.043 603.449 341.269 603.222 341.5 603C341.247 603.197 340.999 603.4 340.754 603.608C336.34 607.344 333.439 613.007 333.054 619.023C333.045 619.157 333.037 619.291 333.03 619.425C333.02 619.616 333.01 619.808 333 620Z" fill="#1E1E1E"/>
<path d="M333.861 619.01C333.597 619.036 333.359 619.166 333.199 619.378C333.039 619.59 332.971 619.865 333.01 620.139C333.048 620.412 333.189 620.658 333.401 620.818C333.612 620.978 333.877 621.038 334.139 620.99C334.553 620.916 334.967 620.841 335.382 620.766C342.84 619.419 350.299 618.072 357.757 616.725C358.171 616.65 358.586 616.575 359 616.5C358.581 616.542 358.162 616.584 357.743 616.625C350.201 617.378 342.66 618.131 335.118 618.884C334.699 618.926 334.28 618.968 333.861 619.01Z" fill="#1E1E1E"/>
<path d="M334.894 620.447C335.026 620.217 335.057 619.948 334.973 619.696C334.889 619.444 334.698 619.231 334.447 619.106C334.197 618.98 333.911 618.955 333.659 619.039C333.408 619.123 333.211 619.309 333.106 619.553C332.984 619.833 332.863 620.113 332.741 620.394C332.573 620.781 332.405 621.169 332.237 621.556C330.39 625.967 325.964 629.362 320.912 629.921C320.609 629.957 320.306 629.983 320 630C320.306 630.017 320.611 630.024 320.918 630.021C326.024 630.023 331.183 627.071 333.813 622.344C334.022 621.977 334.231 621.61 334.44 621.243C334.592 620.978 334.743 620.713 334.894 620.447Z" fill="#1E1E1E"/>
<path d="M334.07 621.5C333.737 626.333 334.07 636 347.07 633.5" stroke="#1E1E1E" stroke-width="2" stroke-linecap="round"/>
<path d="M336.013 629.167C335.938 628.912 335.766 628.704 335.526 628.589C335.287 628.475 335.001 628.464 334.738 628.557C334.474 628.65 334.258 628.838 334.144 629.077C334.029 629.316 334.026 629.587 334.127 629.833C334.25 630.131 334.377 630.434 334.503 630.732C336.588 635.854 339.747 642.034 335.75 646.811C335.534 647.056 335.315 647.278 335.07 647.5C335.336 647.304 335.579 647.105 335.821 646.881C340.467 642.44 337.836 635.326 336.289 630.085C336.196 629.779 336.102 629.469 336.013 629.167Z" fill="#1E1E1E"/>
<path d="M334.07 620.5C344.237 616 358.17 602.2 350.57 597" stroke="#1E1E1E" stroke-width="2" stroke-linecap="round"/>
<path d="M350.898 604.76C350.692 604.928 350.566 605.167 350.553 605.432C350.54 605.697 350.642 605.965 350.83 606.173C351.019 606.38 351.277 606.507 351.541 606.519C351.806 606.532 352.057 606.429 352.243 606.24C352.442 606.036 352.654 605.829 352.869 605.626C356.582 602.365 362.134 597.91 366.926 601.354C367.159 601.554 367.366 601.762 367.57 602C367.392 601.741 367.209 601.51 366.995 601.282C365.059 599.112 361.648 599.283 359.055 600.162C356.364 601.046 353.909 602.48 351.643 604.174C351.39 604.366 351.139 604.563 350.898 604.76Z" fill="#1E1E1E"/>
<path d="M361 616.5C361.008 616.235 360.909 615.981 360.721 615.793C360.534 615.605 360.273 615.5 360 615.5C359.727 615.5 359.466 615.605 359.279 615.793C359.091 615.981 358.992 616.235 359 616.5C359.017 617.083 359.033 617.667 359.05 618.25C359.35 628.75 359.65 639.25 359.95 649.75C359.967 650.333 359.983 650.917 360 651.5C360.017 650.917 360.033 650.333 360.05 649.75C360.35 639.25 360.65 628.75 360.95 618.25C360.967 617.667 360.983 617.083 361 616.5Z" fill="#1E1E1E"/>
<path d="M360 616.5L379 599.5" stroke="#1E1E1E" stroke-width="2" stroke-linecap="round"/>
<path d="M367.262 608.781C367.073 608.967 366.97 609.218 366.983 609.483C366.994 609.748 367.12 610.005 367.326 610.193C367.532 610.381 367.799 610.483 368.064 610.471C368.329 610.459 368.57 610.334 368.738 610.129C368.935 609.889 369.143 609.652 369.358 609.421C371.167 607.453 374.211 605.383 376.09 607.619C377.841 609.771 378.186 613.005 378.439 615.944C378.463 616.271 378.483 616.608 378.5 616.955C378.517 616.608 378.53 616.27 378.539 615.942C378.549 612.957 378.667 609.797 376.871 606.994C375.961 605.537 373.763 605.004 372.189 605.58C370.575 606.073 369.238 607.014 368.038 608.054C367.771 608.289 367.511 608.532 367.262 608.781Z" fill="#1E1E1E"/>
<path d="M376.574 600.299C376.358 600.453 376.216 600.685 376.184 600.949C376.152 601.212 376.231 601.485 376.401 601.702C376.571 601.92 376.817 602.063 377.08 602.095C377.343 602.128 377.603 602.047 377.805 601.875C378.119 601.609 378.438 601.328 378.745 601.047C381.455 598.486 384.109 595.622 385.172 591.849C385.708 589.987 385.184 587.692 383.658 586.481C382.185 585.228 380.38 584.683 378.586 584.295C378.204 584.216 377.804 584.144 377.384 584.078C377.797 584.177 378.19 584.281 378.562 584.392C382.001 585.207 385.742 588.075 384.21 591.574C383.014 594.826 380.273 597.406 377.52 599.595C377.209 599.835 376.888 600.075 376.574 600.299Z" fill="#1E1E1E"/>
<path d="M360 616.5C361.167 622.667 365.1 633.7 371.5 628.5" stroke="#1E1E1E" stroke-width="2" stroke-linecap="round"/>
<path d="M365.272 627.364C365.116 627.149 364.884 627.011 364.62 626.985C364.356 626.96 364.082 627.049 363.864 627.228C363.647 627.407 363.506 627.659 363.481 627.923C363.455 628.187 363.547 628.442 363.728 628.636C363.897 628.814 364.067 629.009 364.23 629.206C367.116 632.709 368.969 638.15 365.994 642.342C365.836 642.571 365.678 642.782 365.5 643C365.703 642.805 365.887 642.614 366.073 642.404C369.632 638.566 368.516 632.339 365.77 628.092C365.612 627.846 365.444 627.6 365.272 627.364Z" fill="#1E1E1E"/>
<path d="M380.39 696.793C380.591 696.967 380.848 697.05 381.111 697.016C381.374 696.982 381.621 696.833 381.793 696.61C381.964 696.386 382.045 696.109 382.01 695.846C381.976 695.583 381.83 695.356 381.61 695.207C381.383 695.054 381.156 694.9 380.929 694.747C376.846 691.985 372.763 689.223 368.68 686.46C368.454 686.307 368.227 686.153 368 686C368.207 686.18 368.413 686.36 368.62 686.54C372.337 689.777 376.054 693.015 379.771 696.253C379.977 696.433 380.184 696.613 380.39 696.793Z" fill="#1E1E1E"/>
<path d="M380.095 695.574C379.962 695.805 379.932 696.072 380.022 696.321C380.112 696.571 380.314 696.783 380.574 696.905C380.834 697.027 381.126 697.048 381.376 696.958C381.625 696.869 381.812 696.675 381.905 696.426C381.977 696.233 382.049 696.041 382.121 695.849C382.52 694.786 382.918 693.723 383.316 692.659C384.431 689.922 382.994 686.723 380.58 685.718C380.39 685.633 380.197 685.561 380 685.5C380.185 685.592 380.362 685.694 380.532 685.805C382.713 687.192 383.296 690.183 382.098 692.086C381.532 693.07 380.967 694.055 380.402 695.04C380.3 695.218 380.197 695.396 380.095 695.574Z" fill="#1E1E1E"/>
<path d="M381.997 695.925C381.991 695.66 381.878 695.413 381.677 695.24C381.476 695.067 381.203 694.982 380.925 695.003C380.648 695.024 380.39 695.149 380.217 695.35C380.044 695.551 379.97 695.811 380.003 696.075C380.041 696.358 380.055 696.644 380.046 696.934C379.72 702.114 372.804 707.743 367.279 704.65C367 704.459 366.744 704.246 366.5 704C366.719 704.268 366.954 704.508 367.219 704.73C372.631 708.391 380.631 703.8 381.939 697.1C381.99 696.713 382.01 696.322 381.997 695.925Z" fill="#1E1E1E"/>
<path d="M381.894 695.553C381.789 695.309 381.593 695.123 381.341 695.039C381.089 694.955 380.803 694.98 380.553 695.106C380.302 695.231 380.11 695.445 380.027 695.696C379.943 695.948 379.974 696.217 380.106 696.447C380.246 696.691 380.386 696.948 380.522 697.21C382.723 701.779 384.916 707.753 381.62 712.338C381.429 712.573 381.225 712.791 381 713C381.246 712.816 381.475 712.621 381.694 712.405C385.608 708.065 384.063 701.515 382.255 696.431C382.139 696.133 382.019 695.839 381.894 695.553Z" fill="#1E1E1E"/>
<path d="M246 165C246.047 163.674 245.561 162.402 244.623 161.464C243.686 160.527 242.373 160 241 160C239.627 160 238.314 160.527 237.377 161.464C236.439 162.402 235.953 163.674 236 165C236.083 167.383 236.167 169.767 236.25 172.15C237.75 215.05 239.25 257.95 240.75 300.85C240.833 303.233 240.917 305.617 241 308C241.083 305.617 241.167 303.233 241.25 300.85C242.75 257.95 244.25 215.05 245.75 172.15C245.833 169.767 245.917 167.383 246 165Z" fill="#242424"/>
<path d="M338 236C338.047 234.674 337.561 233.402 336.623 232.464C335.686 231.527 334.373 231 333 231C331.627 231 330.314 231.527 329.377 232.464C328.439 233.402 327.953 234.674 328 236C328.083 238.383 328.167 240.767 328.25 243.15C329.75 286.05 331.25 328.95 332.75 371.85C332.833 374.233 332.917 376.617 333 379C333.083 376.617 333.167 374.233 333.25 371.85C334.75 328.95 336.25 286.05 337.75 243.15C337.833 240.767 337.917 238.383 338 236Z" fill="#242424"/>
<path d="M54 240C53.953 238.674 54.4386 237.402 55.3771 236.464C56.3139 235.527 57.6269 235 59 235C60.3731 235 61.6861 235.527 62.6229 236.464C63.5614 237.402 64.047 238.674 64 240C63.9167 242.383 63.8333 244.767 63.75 247.15C62.25 290.05 60.75 332.95 59.25 375.85C59.1667 378.233 59.0833 380.617 59 383C58.9167 380.617 58.8333 378.233 58.75 375.85C57.25 332.95 55.75 290.05 54.25 247.15C54.1667 244.767 54.0833 242.383 54 240Z" fill="#242424"/>
<path d="M119 173C119.065 171.674 118.594 170.402 117.656 169.464C116.719 168.527 115.391 168 114 168C112.609 168 111.281 168.527 110.344 169.464C109.406 170.402 108.935 171.674 109 173C109.083 174.733 109.167 176.467 109.25 178.2C110.75 209.4 112.25 240.6 113.75 271.8C113.833 273.533 113.917 275.267 114 277C114.083 275.267 114.167 273.533 114.25 271.8C115.75 240.6 117.25 209.4 118.75 178.2C118.833 176.467 118.917 174.733 119 173Z" fill="#242424"/>
<path d="M352 253C352.099 251.674 351.659 250.402 350.719 249.464C349.783 248.527 348.425 248 347 248C345.575 248 344.217 248.527 343.281 249.464C342.341 250.402 341.901 251.674 342 253C342.083 254.133 342.167 255.267 342.25 256.4C343.75 276.8 345.25 297.2 346.75 317.6C346.833 318.733 346.917 319.867 347 321C347.083 319.867 347.167 318.733 347.25 317.6C348.75 297.2 350.25 276.8 351.75 256.4C351.833 255.267 351.917 254.133 352 253Z" fill="#242424"/>
<path d="M87 198C86.9011 196.674 87.3413 195.402 88.2806 194.464C89.2167 193.527 90.5751 193 92 193C93.4249 193 94.7833 193.527 95.7194 194.464C96.6587 195.402 97.0989 196.674 97 198C96.9167 199.133 96.8333 200.267 96.75 201.4C95.25 221.8 93.75 242.2 92.25 262.6C92.1667 263.733 92.0833 264.867 92 266C91.9167 264.867 91.8333 263.733 91.75 262.6C90.25 242.2 88.75 221.8 87.25 201.4C87.1667 200.267 87.0833 199.133 87 198Z" fill="#242424"/>
<path d="M215 173C215.088 171.674 214.639 170.402 213.7 169.464C212.764 168.527 211.415 168 210 168C208.585 168 207.236 168.527 206.3 169.464C205.361 170.402 204.912 171.674 205 173C205.083 174.267 205.167 175.533 205.25 176.8C206.75 199.6 208.25 222.4 209.75 245.2C209.833 246.467 209.917 247.733 210 249C210.083 247.733 210.167 246.467 210.25 245.2C211.75 222.4 213.25 199.6 214.75 176.8C214.833 175.533 214.917 174.267 215 173Z" fill="#242424"/>
<path d="M262 325C262.061 323.674 261.587 322.402 260.648 321.464C259.711 320.527 258.387 320 257 320C255.613 320 254.289 320.527 253.352 321.464C252.413 322.402 251.939 323.674 252 325C252.083 326.85 252.167 328.7 252.25 330.55C253.75 363.85 255.25 397.15 256.75 430.45C256.833 432.3 256.917 434.15 257 436C257.083 434.15 257.167 432.3 257.25 430.45C258.75 397.15 260.25 363.85 261.75 330.55C261.833 328.7 261.917 326.85 262 325Z" fill="#212121"/>
<path d="M164 331C164.083 329.674 163.629 328.402 162.69 327.464C161.754 326.527 160.409 326 159 326C157.591 326 156.246 326.527 155.31 327.464C154.371 328.402 153.917 329.674 154 331C154.083 332.35 154.167 333.7 154.25 335.05C155.75 359.35 157.25 383.65 158.75 407.95C158.833 409.3 158.917 410.65 159 412C159.083 410.65 159.167 409.3 159.25 407.95C160.75 383.65 162.25 359.35 163.75 335.05C163.833 333.7 163.917 332.35 164 331Z" fill="#212121"/>
<path d="M137 351C136.871 349.674 137.284 348.402 138.224 347.464C139.16 346.527 140.545 346 142 346C143.455 346 144.84 346.527 145.776 347.464C146.716 348.402 147.129 349.674 147 351C146.917 351.867 146.833 352.733 146.75 353.6C145.25 369.2 143.75 384.8 142.25 400.4C142.167 401.267 142.083 402.133 142 403C141.917 402.133 141.833 401.267 141.75 400.4C140.25 384.8 138.75 369.2 137.25 353.6C137.167 352.733 137.083 351.867 137 351Z" fill="#212121"/>
<path d="M238 331C238.114 329.674 237.687 328.402 236.747 327.464C235.812 326.527 234.44 326 233 326C231.56 326 230.188 326.527 229.253 327.464C228.313 328.402 227.886 329.674 228 331C228.083 331.983 228.167 332.967 228.25 333.95C229.75 351.65 231.25 369.35 232.75 387.05C232.833 388.033 232.917 389.017 233 390C233.083 389.017 233.167 388.033 233.25 387.05C234.75 369.35 236.25 351.65 237.75 333.95C237.833 332.967 237.917 331.983 238 331Z" fill="#212121"/>
<path d="M271 615C267.667 615 264.333 615 261 615C261.083 613.15 261.167 611.3 261.25 609.45C262.75 576.15 264.25 542.85 265.75 509.55C265.833 507.7 265.917 505.85 266 504C266.083 505.85 266.167 507.7 266.25 509.55C267.75 542.85 269.25 576.15 270.75 609.45C270.833 611.3 270.917 613.15 271 615Z" fill="#1A1A1A"/>
<path d="M147 615C143.667 615 140.333 615 137 615C137.083 613.65 137.167 612.3 137.25 610.95C138.75 586.65 140.25 562.35 141.75 538.05C141.833 536.7 141.917 535.35 142 534C142.083 535.35 142.167 536.7 142.25 538.05C143.75 562.35 145.25 586.65 146.75 610.95C146.833 612.3 146.917 613.65 147 615Z" fill="#1A1A1A"/>
<path d="M162 598C165.333 598 168.667 598 172 598C171.917 597.133 171.833 596.267 171.75 595.4C170.25 579.8 168.75 564.2 167.25 548.6C167.167 547.733 167.083 546.867 167 546C166.917 546.867 166.833 547.733 166.75 548.6C165.25 564.2 163.75 579.8 162.25 595.4C162.167 596.267 162.083 597.133 162 598Z" fill="#1A1A1A"/>
<path d="M242 609C238.667 609 235.333 609 232 609C232.083 608.017 232.167 607.033 232.25 606.05C233.75 588.35 235.25 570.65 236.75 552.95C236.833 551.967 236.917 550.983 237 550C237.083 550.983 237.167 551.967 237.25 552.95C238.75 570.65 240.25 588.35 241.75 606.05C241.833 607.033 241.917 608.017 242 609Z" fill="#1A1A1A"/>
<path d="M167.125 -3.71913C167.336 -3.88001 167.472 -4.11697 167.501 -4.38065C167.53 -4.64416 167.45 -4.9128 167.281 -5.1247C167.111 -5.33659 166.867 -5.4736 166.603 -5.50281C166.34 -5.53217 166.079 -5.45135 165.875 -5.28087C165.5 -4.96667 165.158 -4.665 164.806 -4.33602C161.867 -1.65201 158.5 3.21116 161.397 7.4666C164.314 11.1986 169.091 11.5324 173.137 11.4568C173.598 11.4397 174.05 11.4125 174.522 11.3744C174.619 11.3664 174.709 11.3195 174.774 11.2453C174.838 11.171 174.872 11.0755 174.866 10.9785C174.86 10.8814 174.816 10.7905 174.743 10.7243C174.671 10.6581 174.575 10.6222 174.478 10.6256C174.016 10.6423 173.574 10.6483 173.125 10.6444C169.191 10.5916 164.652 9.80488 162.537 6.69907C160.458 3.46383 163.202 -0.485471 166.098 -2.89258C166.435 -3.17999 166.764 -3.44336 167.125 -3.71913Z" fill="#171717"/>
<path d="M161.988 4.15206C162.038 3.89134 161.981 3.62516 161.824 3.41127C161.667 3.19742 161.423 3.05337 161.152 3.01163C160.881 2.96988 160.605 3.0341 160.392 3.19096C160.177 3.34778 160.043 3.58439 160.012 3.84794C159.981 4.11817 159.938 4.39588 159.887 4.6726C159.414 7.12379 158.278 9.6403 156.211 10.9202C154.138 12.2399 151.329 11.7399 148.977 10.5805C148.721 10.4576 148.459 10.3233 148.191 10.1772C148.106 10.1312 148.005 10.1209 147.911 10.1468C147.817 10.1728 147.737 10.233 147.688 10.3157C147.639 10.3984 147.625 10.4974 147.648 10.5926C147.671 10.6876 147.728 10.7711 147.809 10.8228C148.077 10.9931 148.34 11.152 148.6 11.3C150.948 12.6593 154.107 13.5896 156.882 12.1204C159.594 10.6664 161.033 7.84711 161.776 5.09908C161.858 4.78507 161.929 4.46725 161.988 4.15206Z" fill="#171717"/>
<path d="M396.254 88.9671C396.513 88.9084 396.735 88.7495 396.868 88.5203C397.002 88.2913 397.037 88.0108 396.967 87.7455C396.897 87.4802 396.729 87.2533 396.5 87.1198C396.27 86.986 396 86.9566 395.746 87.0329C395.275 87.174 394.804 87.3152 394.333 87.4563C385.86 89.9964 377.386 92.5365 368.912 95.0766C368.442 95.2178 367.971 95.3589 367.5 95.5C367.979 95.3911 368.458 95.2822 368.938 95.1734C377.564 93.2135 386.19 91.2536 394.817 89.2937C395.296 89.1848 395.775 89.076 396.254 88.9671Z" fill="#171717"/>
<path d="M392.36 89.4975C392.624 89.535 392.884 89.4643 393.084 89.2903C393.284 89.1169 393.409 88.8544 393.429 88.5712C393.449 88.2881 393.364 88.0106 393.19 87.8104C393.016 87.6097 392.769 87.5028 392.503 87.5025C392.277 87.5032 392.041 87.4994 391.812 87.4929C389.74 87.4125 387.576 87.1787 385.773 86.2987C384.894 85.8565 384.16 85.1229 384.32 84.1445C384.467 83.1746 385.176 82.2814 385.917 81.5054C386.075 81.3405 386.246 81.172 386.432 81C386.225 81.1461 386.032 81.2898 385.85 81.4311C385.005 82.1149 384.145 82.8688 383.782 84.0281C383.367 85.2555 384.306 86.5376 385.248 87.1495C387.202 88.4564 389.416 88.9799 391.62 89.3832C391.864 89.4247 392.117 89.4634 392.36 89.4975Z" fill="#171717"/>
<path d="M394.118 88.7274C394.176 88.4679 394.125 88.2032 393.967 87.9899C393.81 87.7767 393.558 87.6324 393.277 87.5904C392.996 87.5483 392.713 87.6124 392.5 87.7702C392.286 87.9278 392.161 88.1662 392.14 88.4312C392.123 88.6561 392.101 88.8917 392.077 89.1197C391.837 91.1784 391.436 93.3188 390.42 95.0479C389.911 95.8898 389.123 96.5652 388.16 96.3304C387.204 96.1084 386.368 95.333 385.652 94.5342C385.5 94.364 385.345 94.18 385.188 93.982C385.318 94.199 385.446 94.4032 385.573 94.5952C386.189 95.4905 386.874 96.4059 388.002 96.8574C389.194 97.3661 390.545 96.5291 391.227 95.6376C392.682 93.7896 393.374 91.6231 393.947 89.4567C394.007 89.2168 394.065 88.9674 394.118 88.7274Z" fill="#171717"/>
<path d="M371.5 222L393 181L417.5 222V298L371.5 280L361 251L371.5 222Z" fill="#585858"/>
<path d="M361 251H407.5L403 292.5L371.5 280.5L361 251Z" fill="#3E3E3E"/>
<g filter="url(#filter0_f_1012_13)">
<g opacity="0.5">
<ellipse cx="203.5" cy="633.766" rx="16.5" ry="7.58108" fill="#454C57" fill-opacity="0.5"/>
<ellipse cx="203.5" cy="631.5" rx="8.5" ry="3.5" fill="#454C57"/>
</g>
<g opacity="0.5">
<path d="M193.238 599.486C193.238 605.771 198.334 610.866 204.619 610.866C210.905 610.866 216 605.771 216 599.486C216 593.2 214.862 586.967 203.481 579C208.413 590.381 193.238 587.725 193.238 599.486Z" fill="#09FFF9" fill-opacity="0.5"/>
<path d="M195.52 599.78C194.759 604.71 198.138 609.324 203.068 610.086C207.998 610.847 212.612 607.468 213.373 602.538C214.135 597.608 213.997 592.581 206.036 584.954C208.525 594.478 196.945 590.557 195.52 599.78Z" fill="#DBFFFE" fill-opacity="0.75"/>
<circle cx="6.44914" cy="6.44914" r="6.44914" transform="matrix(-1 0 0 1 210.689 596.45)" fill="white"/>
</g>
</g>
<ellipse cx="204.5" cy="728.971" rx="33.8689" ry="15.5614" fill="#454C57" fill-opacity="0.5"/>
<ellipse cx="204.5" cy="727" rx="20.5" ry="8" fill="#454C57"/>
<ellipse cx="204.5" cy="725" rx="7.5" ry="3" fill="#5C6571"/>
<g filter="url(#filter1_f_1012_13)">
<path d="M229.804 669.983C229.804 684.092 218.367 695.53 204.258 695.53C190.149 695.53 178.712 684.092 178.712 669.983C178.712 655.875 181.266 641.882 206.813 624C195.743 649.546 229.804 643.586 229.804 669.983Z" fill="#09FFF9" fill-opacity="0.5"/>
<path d="M224.681 670.646C226.39 681.712 218.805 692.068 207.739 693.777C196.673 695.486 186.317 687.901 184.607 676.835C182.898 665.769 183.207 654.485 201.077 637.364C195.49 658.742 221.483 649.941 224.681 670.646Z" fill="#DBFFFE" fill-opacity="0.75"/>
<circle cx="205.109" cy="677.476" r="14.4763" fill="white"/>
</g>
<path d="M29.5 570.5C45 572.5 66.5 569.5 60.5 556.5" stroke="#1E1E1E" stroke-width="2" stroke-linecap="round"/>
<path d="M35.5 572L64.5 578" stroke="#1E1E1E" stroke-width="2" stroke-linecap="round"/>
<path d="M56.6637 566.558C56.4095 566.635 56.2016 566.809 56.0881 567.049C55.9745 567.289 55.9647 567.574 56.0583 567.836C56.1518 568.098 56.3405 568.313 56.5801 568.427C56.8198 568.54 57.091 568.543 57.3363 568.442C57.6378 568.316 57.9532 568.189 58.2756 568.064C61.1029 566.968 64.0378 566.031 67.0376 565.652C69.8582 565.264 73.7714 565.618 74.3708 568.975C74.4438 569.323 74.4825 569.636 74.5 570C74.5158 569.636 74.5106 569.319 74.4694 568.959C74.2422 565.426 69.9129 564.495 66.9679 564.655C63.7942 564.746 60.6928 565.419 57.6709 566.262C57.3263 566.36 56.9883 566.46 56.6637 566.558Z" fill="#1E1E1E"/>
<path d="M64.5 578C68.1667 578.833 74 581.4 68 585" stroke="#1E1E1E" stroke-width="2" stroke-linecap="round"/>
<path d="M44.8793 579.524C44.7673 579.283 44.5661 579.102 44.3117 579.027C44.0577 578.951 43.7713 578.987 43.5237 579.121C43.2762 579.255 43.0901 579.475 43.0148 579.729C42.9389 579.984 42.98 580.251 43.1207 580.476C43.2678 580.713 43.4232 580.956 43.58 581.193C46.4324 585.07 49.8574 590.301 55.2286 589.805C55.4976 589.732 55.7533 589.63 56 589.5C55.7395 589.6 55.4767 589.668 55.2083 589.707C50.126 589.588 47.4684 584.227 45.2239 580.24C45.1044 580.001 44.9872 579.758 44.8793 579.524Z" fill="#1E1E1E"/>
<path d="M11 565.392C24 567.392 38.9 559.2 20.5 542" stroke="#1E1E1E" stroke-width="2" stroke-linecap="round"/>
<path d="M29 557.5C31.1667 552.333 37 538.6 47 547" stroke="#1E1E1E" stroke-width="2" stroke-linecap="round"/>
<path d="M-0.5 563.5C19.8333 566.667 55.5 575 41 587" stroke="#1E1E1E" stroke-width="2" stroke-linecap="round"/>
<path d="M361.5 251H384.5" stroke="#1C1C1C" stroke-width="2" stroke-linecap="round"/>
<path d="M361.5 251C364.833 256.667 372.7 266.8 377.5 262" stroke="#1C1C1C" stroke-width="2" stroke-linecap="round"/>
<path d="M363 251C363.003 250.735 362.899 250.48 362.712 250.293C362.524 250.105 362.268 250 362 250C361.732 250 361.476 250.105 361.288 250.293C361.101 250.48 360.997 250.735 361 251C361.017 252.733 361.033 254.467 361.05 256.2C361.35 287.4 361.65 318.6 361.95 349.8C361.967 351.533 361.983 353.267 362 355C362.017 353.267 362.033 351.533 362.05 349.8C362.35 318.6 362.65 287.4 362.95 256.2C362.967 254.467 362.983 252.733 363 251Z" fill="#1C1C1C"/>
<path d="M361.5 251.5C363.167 245.833 367.8 236.2 373 243" stroke="#242424" stroke-width="2" stroke-linecap="round"/>
</g>
<defs>
<filter id="filter0_f_1012_13" x="183" y="575" width="41" height="70.3475" filterUnits="userSpaceOnUse" color-interpolation-filters="sRGB">
<feFlood flood-opacity="0" result="BackgroundImageFix"/>
<feBlend mode="normal" in="SourceGraphic" in2="BackgroundImageFix" result="shape"/>
<feGaussianBlur stdDeviation="2" result="effect1_foregroundBlur_1012_13"/>
</filter>
<filter id="filter1_f_1012_13" x="174.712" y="620" width="59.0928" height="79.5299" filterUnits="userSpaceOnUse" color-interpolation-filters="sRGB">
<feFlood flood-opacity="0" result="BackgroundImageFix"/>
<feBlend mode="normal" in="SourceGraphic" in2="BackgroundImageFix" result="shape"/>
<feGaussianBlur stdDeviation="2" result="effect1_foregroundBlur_1012_13"/>
</filter>
<linearGradient id="paint0_linear_1012_13" x1="205" y1="615" x2="205" y2="774.5" gradientUnits="userSpaceOnUse">
<stop stop-color="#1C1C1C"/>
<stop offset="0.32883" stop-color="#252525"/>
<stop offset="1" stop-color="#2E2E2E"/>
</linearGradient>
<clipPath id="clip0_1012_13">
<rect width="393" height="852" fill="white"/>
</clipPath>
</defs>
</svg>
