<svg width="148" height="148" viewBox="0 0 148 148" fill="none" xmlns="http://www.w3.org/2000/svg">
<path d="M67.7024 6.16821C71.2014 2.74109 76.7986 2.74108 80.2976 6.1682L93.2199 18.825C94.8789 20.45 97.1019 21.3708 99.4241 21.3949L117.511 21.5826C122.409 21.6334 126.367 25.5912 126.417 30.4887L126.605 48.5759C126.629 50.8981 127.55 53.1211 129.175 54.7801L141.832 67.7024C145.259 71.2014 145.259 76.7986 141.832 80.2976L129.175 93.2199C127.55 94.8789 126.629 97.1019 126.605 99.4241L126.417 117.511C126.367 122.409 122.409 126.367 117.511 126.417L99.4241 126.605C97.1019 126.629 94.8789 127.55 93.2199 129.175L80.2976 141.832C76.7986 145.259 71.2014 145.259 67.7024 141.832L54.7801 129.175C53.1211 127.55 50.8981 126.629 48.5759 126.605L30.4887 126.417C25.5912 126.367 21.6334 122.409 21.5826 117.511L21.3949 99.4241C21.3708 97.1019 20.45 94.8789 18.825 93.2199L6.16821 80.2976C2.74109 76.7986 2.74108 71.2014 6.1682 67.7024L18.825 54.7801C20.45 53.1211 21.3708 50.8981 21.3949 48.5759L21.5826 30.4887C21.6334 25.5912 25.5912 21.6334 30.4887 21.5826L48.5759 21.3949C50.8981 21.3708 53.1211 20.45 54.7801 18.825L67.7024 6.16821Z" fill="#401A79" stroke="url(#paint0_linear_629_69)" stroke-width="6"/>
<path d="M48 81.0833C54.9596 84.0869 55.127 84.4915 59.1442 87.5C62.6357 90.1147 66.8249 94.7091 68.7041 96.8463C69.1797 97.3872 70.0595 97.2895 70.391 96.6501C72.6063 92.3758 79.805 78.9953 86.7115 71.75C94.9697 63.0868 105 59 105 59" stroke="#FFEAFE" stroke-width="8" stroke-linecap="round"/>
<defs>
<linearGradient id="paint0_linear_629_69" x1="148" y1="74" x2="0" y2="74" gradientUnits="userSpaceOnUse">
<stop stop-color="#A315D6"/>
<stop offset="0.5" stop-color="#FDAB60"/>
<stop offset="1" stop-color="#A315D6"/>
</linearGradient>
</defs>
</svg>
