<svg width="197" height="48" viewBox="0 0 197 48" fill="none" xmlns="http://www.w3.org/2000/svg">
<rect width="197" height="48" rx="24" fill="#1B085A"/>
<path d="M45.688 30.16C44.8347 30.16 44.04 30.0213 43.304 29.744C42.5787 29.456 41.944 29.056 41.4 28.544C40.8667 28.0213 40.4507 27.408 40.152 26.704C39.8533 26 39.704 25.232 39.704 24.4C39.704 23.568 39.8533 22.8 40.152 22.096C40.4507 21.392 40.872 20.784 41.416 20.272C41.96 19.7493 42.5947 19.3493 43.32 19.072C44.0453 18.784 44.84 18.64 45.704 18.64C46.6213 18.64 47.4587 18.8 48.216 19.12C48.9733 19.4293 49.6133 19.8933 50.136 20.512L48.792 21.776C48.3867 21.3387 47.9333 21.0133 47.432 20.8C46.9307 20.576 46.3867 20.464 45.8 20.464C45.2133 20.464 44.6747 20.56 44.184 20.752C43.704 20.944 43.2827 21.216 42.92 21.568C42.568 21.92 42.2907 22.336 42.088 22.816C41.896 23.296 41.8 23.824 41.8 24.4C41.8 24.976 41.896 25.504 42.088 25.984C42.2907 26.464 42.568 26.88 42.92 27.232C43.2827 27.584 43.704 27.856 44.184 28.048C44.6747 28.24 45.2133 28.336 45.8 28.336C46.3867 28.336 46.9307 28.2293 47.432 28.016C47.9333 27.792 48.3867 27.456 48.792 27.008L50.136 28.288C49.6133 28.896 48.9733 29.36 48.216 29.68C47.4587 30 46.616 30.16 45.688 30.16ZM56.785 21.36C57.4677 21.36 58.0757 21.4933 58.609 21.76C59.153 22.0267 59.5797 22.4373 59.889 22.992C60.1983 23.536 60.353 24.24 60.353 25.104V30H58.353V25.36C58.353 24.6027 58.1717 24.0373 57.809 23.664C57.457 23.2907 56.961 23.104 56.321 23.104C55.8517 23.104 55.4357 23.2 55.073 23.392C54.7103 23.584 54.4277 23.872 54.225 24.256C54.033 24.6293 53.937 25.104 53.937 25.68V30H51.937V18.128H53.937V23.76L53.505 23.056C53.8037 22.512 54.2357 22.096 54.801 21.808C55.377 21.5093 56.0383 21.36 56.785 21.36ZM66.7458 30.112C65.8711 30.112 65.0924 29.9253 64.4098 29.552C63.7271 29.168 63.1884 28.6453 62.7938 27.984C62.3991 27.3227 62.2018 26.5707 62.2018 25.728C62.2018 24.8747 62.3991 24.1227 62.7938 23.472C63.1884 22.8107 63.7271 22.2933 64.4098 21.92C65.0924 21.5467 65.8711 21.36 66.7458 21.36C67.6311 21.36 68.4151 21.5467 69.0978 21.92C69.7911 22.2933 70.3298 22.8053 70.7138 23.456C71.1084 24.1067 71.3058 24.864 71.3058 25.728C71.3058 26.5707 71.1084 27.3227 70.7138 27.984C70.3298 28.6453 69.7911 29.168 69.0978 29.552C68.4151 29.9253 67.6311 30.112 66.7458 30.112ZM66.7458 28.4C67.2364 28.4 67.6738 28.2933 68.0578 28.08C68.4418 27.8667 68.7404 27.5573 68.9538 27.152C69.1778 26.7467 69.2898 26.272 69.2898 25.728C69.2898 25.1733 69.1778 24.6987 68.9538 24.304C68.7404 23.8987 68.4418 23.5893 68.0578 23.376C67.6738 23.1627 67.2418 23.056 66.7618 23.056C66.2711 23.056 65.8338 23.1627 65.4498 23.376C65.0764 23.5893 64.7778 23.8987 64.5538 24.304C64.3298 24.6987 64.2178 25.1733 64.2178 25.728C64.2178 26.272 64.3298 26.7467 64.5538 27.152C64.7778 27.5573 65.0764 27.8667 65.4498 28.08C65.8338 28.2933 66.2658 28.4 66.7458 28.4ZM77.0583 30.112C76.1836 30.112 75.4049 29.9253 74.7223 29.552C74.0396 29.168 73.5009 28.6453 73.1063 27.984C72.7116 27.3227 72.5143 26.5707 72.5143 25.728C72.5143 24.8747 72.7116 24.1227 73.1063 23.472C73.5009 22.8107 74.0396 22.2933 74.7223 21.92C75.4049 21.5467 76.1836 21.36 77.0583 21.36C77.9436 21.36 78.7276 21.5467 79.4103 21.92C80.1036 22.2933 80.6423 22.8053 81.0263 23.456C81.4209 24.1067 81.6183 24.864 81.6183 25.728C81.6183 26.5707 81.4209 27.3227 81.0263 27.984C80.6423 28.6453 80.1036 29.168 79.4103 29.552C78.7276 29.9253 77.9436 30.112 77.0583 30.112ZM77.0583 28.4C77.5489 28.4 77.9863 28.2933 78.3703 28.08C78.7543 27.8667 79.0529 27.5573 79.2663 27.152C79.4903 26.7467 79.6023 26.272 79.6023 25.728C79.6023 25.1733 79.4903 24.6987 79.2663 24.304C79.0529 23.8987 78.7543 23.5893 78.3703 23.376C77.9863 23.1627 77.5543 23.056 77.0743 23.056C76.5836 23.056 76.1463 23.1627 75.7623 23.376C75.3889 23.5893 75.0903 23.8987 74.8663 24.304C74.6423 24.6987 74.5303 25.1733 74.5303 25.728C74.5303 26.272 74.6423 26.7467 74.8663 27.152C75.0903 27.5573 75.3889 27.8667 75.7623 28.08C76.1463 28.2933 76.5783 28.4 77.0583 28.4ZM86.1708 30.112C85.4561 30.112 84.7681 30.0213 84.1068 29.84C83.4561 29.648 82.9388 29.4187 82.5548 29.152L83.3228 27.632C83.7068 27.8773 84.1654 28.08 84.6988 28.24C85.2321 28.4 85.7654 28.48 86.2988 28.48C86.9281 28.48 87.3814 28.3947 87.6588 28.224C87.9468 28.0533 88.0908 27.824 88.0908 27.536C88.0908 27.3013 87.9948 27.1253 87.8028 27.008C87.6108 26.88 87.3601 26.784 87.0508 26.72C86.7414 26.656 86.3948 26.5973 86.0108 26.544C85.6374 26.4907 85.2588 26.4213 84.8748 26.336C84.5014 26.24 84.1601 26.1067 83.8508 25.936C83.5414 25.7547 83.2908 25.5147 83.0988 25.216C82.9068 24.9173 82.8108 24.5227 82.8108 24.032C82.8108 23.488 82.9654 23.0187 83.2747 22.624C83.5841 22.2187 84.0161 21.9093 84.5707 21.696C85.1361 21.472 85.8028 21.36 86.5708 21.36C87.1468 21.36 87.7281 21.424 88.3148 21.552C88.9014 21.68 89.3868 21.8613 89.7708 22.096L89.0028 23.616C88.5974 23.3707 88.1868 23.2053 87.7708 23.12C87.3654 23.024 86.9601 22.976 86.5548 22.976C85.9468 22.976 85.4934 23.0667 85.1948 23.248C84.9068 23.4293 84.7628 23.6587 84.7628 23.936C84.7628 24.192 84.8588 24.384 85.0508 24.512C85.2428 24.64 85.4934 24.7413 85.8028 24.816C86.1121 24.8907 86.4534 24.9547 86.8268 25.008C87.2108 25.0507 87.5894 25.12 87.9628 25.216C88.3361 25.312 88.6774 25.4453 88.9868 25.616C89.3068 25.776 89.5628 26.0053 89.7548 26.304C89.9468 26.6027 90.0428 26.992 90.0428 27.472C90.0428 28.0053 89.8828 28.4693 89.5628 28.864C89.2534 29.2587 88.8108 29.568 88.2348 29.792C87.6588 30.0053 86.9708 30.112 86.1708 30.112ZM95.7811 30.112C94.8318 30.112 93.9998 29.9253 93.2851 29.552C92.5811 29.168 92.0318 28.6453 91.6371 27.984C91.2531 27.3227 91.0611 26.5707 91.0611 25.728C91.0611 24.8747 91.2478 24.1227 91.6211 23.472C92.0051 22.8107 92.5278 22.2933 93.1891 21.92C93.8611 21.5467 94.6238 21.36 95.4771 21.36C96.3091 21.36 97.0505 21.5413 97.7011 21.904C98.3518 22.2667 98.8638 22.7787 99.2371 23.44C99.6105 24.1013 99.7971 24.88 99.7971 25.776C99.7971 25.8613 99.7918 25.9573 99.7811 26.064C99.7811 26.1707 99.7758 26.272 99.7651 26.368H92.6451V25.04H98.7091L97.9251 25.456C97.9358 24.9653 97.8345 24.5333 97.6211 24.16C97.4078 23.7867 97.1145 23.4933 96.7411 23.28C96.3785 23.0667 95.9571 22.96 95.4771 22.96C94.9865 22.96 94.5545 23.0667 94.1811 23.28C93.8185 23.4933 93.5305 23.792 93.3171 24.176C93.1145 24.5493 93.0131 24.992 93.0131 25.504V25.824C93.0131 26.336 93.1305 26.7893 93.3651 27.184C93.5998 27.5787 93.9305 27.8827 94.3571 28.096C94.7838 28.3093 95.2745 28.416 95.8291 28.416C96.3091 28.416 96.7411 28.3413 97.1251 28.192C97.5091 28.0427 97.8505 27.808 98.1491 27.488L99.2211 28.72C98.8371 29.168 98.3518 29.5147 97.7651 29.76C97.1891 29.9947 96.5278 30.112 95.7811 30.112ZM106.332 30V18.8H108.412V30H106.332ZM122.034 21.36C122.716 21.36 123.319 21.4933 123.842 21.76C124.375 22.0267 124.791 22.4373 125.09 22.992C125.388 23.536 125.538 24.24 125.538 25.104V30H123.538V25.36C123.538 24.6027 123.372 24.0373 123.042 23.664C122.711 23.2907 122.236 23.104 121.618 23.104C121.18 23.104 120.791 23.2 120.45 23.392C120.119 23.584 119.858 23.8667 119.666 24.24C119.484 24.6133 119.394 25.088 119.394 25.664V30H117.394V25.36C117.394 24.6027 117.228 24.0373 116.898 23.664C116.567 23.2907 116.092 23.104 115.474 23.104C115.036 23.104 114.647 23.2 114.306 23.392C113.975 23.584 113.714 23.8667 113.522 24.24C113.34 24.6133 113.25 25.088 113.25 25.664V30H111.25V21.456H113.154V23.728L112.818 23.056C113.106 22.5013 113.522 22.08 114.066 21.792C114.62 21.504 115.25 21.36 115.954 21.36C116.754 21.36 117.447 21.5573 118.034 21.952C118.631 22.3467 119.026 22.944 119.218 23.744L118.434 23.472C118.711 22.832 119.17 22.32 119.81 21.936C120.45 21.552 121.191 21.36 122.034 21.36ZM133.357 30V28.272L133.245 27.904V24.88C133.245 24.2933 133.069 23.84 132.717 23.52C132.365 23.1893 131.832 23.024 131.117 23.024C130.637 23.024 130.163 23.0987 129.693 23.248C129.235 23.3973 128.845 23.6053 128.525 23.872L127.741 22.416C128.2 22.064 128.744 21.8027 129.373 21.632C130.013 21.4507 130.675 21.36 131.357 21.36C132.595 21.36 133.549 21.6587 134.221 22.256C134.904 22.8427 135.245 23.7547 135.245 24.992V30H133.357ZM130.669 30.112C130.029 30.112 129.469 30.0053 128.989 29.792C128.509 29.568 128.136 29.264 127.869 28.88C127.613 28.4853 127.485 28.0427 127.485 27.552C127.485 27.072 127.597 26.64 127.821 26.256C128.056 25.872 128.435 25.568 128.957 25.344C129.48 25.12 130.173 25.008 131.037 25.008H133.517V26.336H131.181C130.499 26.336 130.04 26.448 129.805 26.672C129.571 26.8853 129.453 27.152 129.453 27.472C129.453 27.8347 129.597 28.1227 129.885 28.336C130.173 28.5493 130.573 28.656 131.085 28.656C131.576 28.656 132.013 28.544 132.397 28.32C132.792 28.096 133.075 27.7653 133.245 27.328L133.581 28.528C133.389 29.0293 133.043 29.4187 132.541 29.696C132.051 29.9733 131.427 30.112 130.669 30.112ZM141.7 33.216C140.91 33.216 140.137 33.1093 139.38 32.896C138.633 32.6933 138.02 32.3947 137.54 32L138.436 30.496C138.809 30.8053 139.278 31.0507 139.844 31.232C140.42 31.424 141.001 31.52 141.588 31.52C142.526 31.52 143.214 31.3013 143.652 30.864C144.089 30.4373 144.308 29.792 144.308 28.928V27.408L144.468 25.472L144.404 23.536V21.456H146.308V28.704C146.308 30.2507 145.913 31.3867 145.124 32.112C144.334 32.848 143.193 33.216 141.7 33.216ZM141.444 29.616C140.633 29.616 139.897 29.4453 139.236 29.104C138.585 28.752 138.068 28.2667 137.684 27.648C137.31 27.0293 137.124 26.304 137.124 25.472C137.124 24.6507 137.31 23.9307 137.684 23.312C138.068 22.6933 138.585 22.2133 139.236 21.872C139.897 21.5307 140.633 21.36 141.444 21.36C142.169 21.36 142.82 21.504 143.396 21.792C143.972 22.08 144.43 22.528 144.772 23.136C145.124 23.744 145.3 24.5227 145.3 25.472C145.3 26.4213 145.124 27.2053 144.772 27.824C144.43 28.432 143.972 28.8853 143.396 29.184C142.82 29.472 142.169 29.616 141.444 29.616ZM141.748 27.92C142.249 27.92 142.697 27.8187 143.092 27.616C143.486 27.4027 143.79 27.1147 144.004 26.752C144.228 26.3787 144.34 25.952 144.34 25.472C144.34 24.992 144.228 24.5707 144.004 24.208C143.79 23.8347 143.486 23.552 143.092 23.36C142.697 23.1573 142.249 23.056 141.748 23.056C141.246 23.056 140.793 23.1573 140.388 23.36C139.993 23.552 139.684 23.8347 139.46 24.208C139.246 24.5707 139.14 24.992 139.14 25.472C139.14 25.952 139.246 26.3787 139.46 26.752C139.684 27.1147 139.993 27.4027 140.388 27.616C140.793 27.8187 141.246 27.92 141.748 27.92ZM152.953 30.112C152.004 30.112 151.172 29.9253 150.457 29.552C149.753 29.168 149.204 28.6453 148.809 27.984C148.425 27.3227 148.233 26.5707 148.233 25.728C148.233 24.8747 148.42 24.1227 148.793 23.472C149.177 22.8107 149.7 22.2933 150.361 21.92C151.033 21.5467 151.796 21.36 152.649 21.36C153.481 21.36 154.222 21.5413 154.873 21.904C155.524 22.2667 156.036 22.7787 156.409 23.44C156.782 24.1013 156.969 24.88 156.969 25.776C156.969 25.8613 156.964 25.9573 156.953 26.064C156.953 26.1707 156.948 26.272 156.937 26.368H149.817V25.04H155.881L155.097 25.456C155.108 24.9653 155.006 24.5333 154.793 24.16C154.58 23.7867 154.286 23.4933 153.913 23.28C153.55 23.0667 153.129 22.96 152.649 22.96C152.158 22.96 151.726 23.0667 151.353 23.28C150.99 23.4933 150.702 23.792 150.489 24.176C150.286 24.5493 150.185 24.992 150.185 25.504V25.824C150.185 26.336 150.302 26.7893 150.537 27.184C150.772 27.5787 151.102 27.8827 151.529 28.096C151.956 28.3093 152.446 28.416 153.001 28.416C153.481 28.416 153.913 28.3413 154.297 28.192C154.681 28.0427 155.022 27.808 155.321 27.488L156.393 28.72C156.009 29.168 155.524 29.5147 154.937 29.76C154.361 29.9947 153.7 30.112 152.953 30.112Z" fill="white"/>
</svg>
