<svg width="41" height="41" viewBox="0 0 41 41" fill="none" xmlns="http://www.w3.org/2000/svg">
<path opacity="0.5" d="M15.375 7.6875H13.6667C9.64012 7.6875 7.626 7.6875 6.3755 8.938C5.125 10.1885 5.125 12.2026 5.125 16.2292V24.7708C5.125 28.7974 5.125 30.8098 6.3755 32.062C7.626 33.3142 9.64012 33.3125 13.6667 33.3125H15.375" stroke="white" stroke-width="2.27778"/>
<path d="M15.375 11.0632C15.375 7.14598 15.375 5.18652 16.5828 4.11539C17.7906 3.04427 19.6373 3.36544 23.3307 4.00948L27.3111 4.70477C31.4009 5.41714 33.4457 5.77419 34.6604 7.2741C35.875 8.77573 35.875 10.9453 35.875 15.2862V25.7156C35.875 30.0547 35.875 32.2243 34.6621 33.7259C33.4458 35.2259 31.3992 35.5829 27.3094 36.297L23.3324 36.9906C19.639 37.6346 17.7923 37.9558 16.5845 36.8846C15.3767 35.8135 15.375 33.8541 15.375 29.9369V11.0632Z" stroke="white" stroke-width="2.27778"/>
<path opacity="0.5" d="M20.5 18.7917V22.2084" stroke="white" stroke-width="2.27778" stroke-linecap="round"/>
</svg>
