<svg width="262" height="41" viewBox="0 0 262 41" fill="none" xmlns="http://www.w3.org/2000/svg">
<rect width="262" height="41" rx="20.5" fill="#1B085A"/>
<path d="M123.62 27.74C122.513 27.74 121.487 27.56 120.54 27.2C119.607 26.84 118.793 26.3333 118.1 25.68C117.42 25.0267 116.887 24.26 116.5 23.38C116.127 22.5 115.94 21.54 115.94 20.5C115.94 19.46 116.127 18.5 116.5 17.62C116.887 16.74 117.427 15.9733 118.12 15.32C118.813 14.6667 119.627 14.16 120.56 13.8C121.493 13.44 122.507 13.26 123.6 13.26C124.707 13.26 125.72 13.44 126.64 13.8C127.573 14.16 128.38 14.6667 129.06 15.32C129.753 15.9733 130.293 16.74 130.68 17.62C131.067 18.4867 131.26 19.4467 131.26 20.5C131.26 21.54 131.067 22.5067 130.68 23.4C130.293 24.28 129.753 25.0467 129.06 25.7C128.38 26.34 127.573 26.84 126.64 27.2C125.72 27.56 124.713 27.74 123.62 27.74ZM123.6 24.98C124.227 24.98 124.8 24.8733 125.32 24.66C125.853 24.4467 126.32 24.14 126.72 23.74C127.12 23.34 127.427 22.8667 127.64 22.32C127.867 21.7733 127.98 21.1667 127.98 20.5C127.98 19.8333 127.867 19.2267 127.64 18.68C127.427 18.1333 127.12 17.66 126.72 17.26C126.333 16.86 125.873 16.5533 125.34 16.34C124.807 16.1267 124.227 16.02 123.6 16.02C122.973 16.02 122.393 16.1267 121.86 16.34C121.34 16.5533 120.88 16.86 120.48 17.26C120.08 17.66 119.767 18.1333 119.54 18.68C119.327 19.2267 119.22 19.8333 119.22 20.5C119.22 21.1533 119.327 21.76 119.54 22.32C119.767 22.8667 120.073 23.34 120.46 23.74C120.86 24.14 121.327 24.4467 121.86 24.66C122.393 24.8733 122.973 24.98 123.6 24.98ZM136.595 24.3L136.415 20.56L143.115 13.5H146.715L140.675 20L138.875 21.92L136.595 24.3ZM133.695 27.5V13.5H136.915V27.5H133.695ZM143.275 27.5L138.295 21.4L140.415 19.1L147.055 27.5H143.275Z" fill="#FFEAFE"/>
</svg>
