<svg width="371" height="176" viewBox="0 0 371 176" fill="none" xmlns="http://www.w3.org/2000/svg">
<g filter="url(#filter0_f_750_7854)">
<path d="M17.98 72.57C16.42 72.57 14.94 72.19 13.54 71.43C12.14 70.65 11.04 69.61 10.24 68.31C10.08 68.03 10 67.7 10 67.32C10 66.7 10.15 66.21 10.45 65.85C10.77 65.49 11.19 65.31 11.71 65.31C12.15 65.31 12.53 65.4 12.85 65.58C13.17 65.76 13.45 66.05 13.69 66.45C14.07 67.09 14.66 67.62 15.46 68.04C16.28 68.44 17.12 68.64 17.98 68.64C20.86 68.64 22.3 67.64 22.3 65.64C22.3 64.78 21.94 64 21.22 63.3C20.52 62.6 19.4 61.89 17.86 61.17C16.04 60.33 14.62 59.57 13.6 58.89C12.6 58.19 11.88 57.45 11.44 56.67C11 55.87 10.78 54.93 10.78 53.85C10.78 52.61 11.11 51.51 11.77 50.55C12.43 49.57 13.34 48.81 14.5 48.27C15.66 47.71 16.96 47.43 18.4 47.43C20 47.43 21.47 47.79 22.81 48.51C24.15 49.21 25.17 50.17 25.87 51.39C26.07 51.71 26.17 52.04 26.17 52.38C26.17 52.86 26.01 53.28 25.69 53.64C25.39 54 25.01 54.18 24.55 54.18C24.21 54.18 23.86 54.09 23.5 53.91C23.14 53.71 22.86 53.47 22.66 53.19C22.2 52.55 21.62 52.08 20.92 51.78C20.24 51.48 19.4 51.33 18.4 51.33C17.22 51.33 16.29 51.55 15.61 51.99C14.95 52.41 14.62 53.03 14.62 53.85C14.62 54.35 14.74 54.77 14.98 55.11C15.24 55.43 15.67 55.76 16.27 56.1C16.89 56.44 17.9 56.93 19.3 57.57C21.74 58.71 23.49 59.9 24.55 61.14C25.63 62.38 26.17 63.88 26.17 65.64C26.17 67.02 25.83 68.24 25.15 69.3C24.47 70.34 23.51 71.15 22.27 71.73C21.03 72.29 19.6 72.57 17.98 72.57ZM46.8259 66.63C46.9859 66.43 47.1859 66.27 47.4259 66.15C47.6859 66.03 47.9359 65.97 48.1759 65.97C48.6759 65.97 49.0959 66.15 49.4359 66.51C49.7959 66.85 49.9759 67.27 49.9759 67.77C49.9759 68.25 49.8059 68.68 49.4659 69.06C48.5459 70.04 47.2559 70.85 45.5959 71.49C43.9359 72.11 42.2859 72.42 40.6459 72.42C38.2659 72.42 36.1159 71.9 34.1959 70.86C32.2759 69.82 30.7659 68.36 29.6659 66.48C28.5659 64.6 28.0159 62.44 28.0159 60C28.0159 57.58 28.5659 55.42 29.6659 53.52C30.7659 51.62 32.2759 50.15 34.1959 49.11C36.1159 48.05 38.2659 47.52 40.6459 47.52C42.2859 47.52 43.9259 47.85 45.5659 48.51C47.2059 49.17 48.4959 50.04 49.4359 51.12C49.7759 51.52 49.9459 51.95 49.9459 52.41C49.9459 52.91 49.7659 53.34 49.4059 53.7C49.0459 54.04 48.6159 54.21 48.1159 54.21C47.8759 54.21 47.6359 54.16 47.3959 54.06C47.1559 53.96 46.9659 53.82 46.8259 53.64C46.2459 52.94 45.3859 52.39 44.2459 51.99C43.1059 51.59 41.9059 51.39 40.6459 51.39C38.9259 51.39 37.3959 51.74 36.0559 52.44C34.7359 53.12 33.7059 54.11 32.9659 55.41C32.2459 56.69 31.8859 58.22 31.8859 60C31.8859 61.76 32.2559 63.29 32.9959 64.59C33.7359 65.87 34.7659 66.86 36.0859 67.56C37.4059 68.24 38.9259 68.58 40.6459 68.58C42.0259 68.58 43.2859 68.4 44.4259 68.04C45.5659 67.68 46.3659 67.21 46.8259 66.63ZM72.2927 69.75C72.3927 69.99 72.4427 70.18 72.4427 70.32C72.4427 70.84 72.2627 71.29 71.9027 71.67C71.5627 72.03 71.1327 72.21 70.6127 72.21C70.2527 72.21 69.9127 72.11 69.5927 71.91C69.2927 71.71 69.0727 71.44 68.9327 71.1L66.5927 65.04H57.4427L55.1327 71.13C55.0127 71.45 54.7927 71.71 54.4727 71.91C54.1727 72.11 53.8327 72.21 53.4527 72.21C52.9327 72.21 52.5027 72.03 52.1627 71.67C51.8227 71.31 51.6527 70.88 51.6527 70.38C51.6527 70.22 51.7027 70.02 51.8027 69.78L60.4727 48.72C60.6327 48.34 60.8427 48.05 61.1027 47.85C61.3827 47.65 61.6727 47.55 61.9727 47.55C62.3127 47.55 62.6327 47.65 62.9327 47.85C63.2327 48.05 63.4627 48.35 63.6227 48.75L72.2927 69.75ZM61.7627 53.76L58.7327 61.71H65.3027L62.2427 53.76L62.0027 52.92L61.7627 53.76ZM77.077 72.48C76.557 72.48 76.107 72.3 75.727 71.94C75.347 71.58 75.157 71.16 75.157 70.68V49.56C75.157 49.04 75.357 48.59 75.757 48.21C76.177 47.81 76.667 47.61 77.227 47.61C77.847 47.61 78.367 47.88 78.787 48.42L92.287 65.04L92.527 65.52V49.17C92.527 48.69 92.717 48.27 93.097 47.91C93.477 47.55 93.927 47.37 94.447 47.37C94.967 47.37 95.417 47.55 95.797 47.91C96.197 48.27 96.397 48.69 96.397 49.17V70.14C96.397 70.66 96.187 71.12 95.767 71.52C95.347 71.9 94.857 72.09 94.297 72.09C94.017 72.09 93.737 72.02 93.457 71.88C93.177 71.72 92.937 71.52 92.737 71.28L79.267 54.75L79.027 54.24V70.68C79.027 71.16 78.827 71.58 78.427 71.94C78.047 72.3 77.597 72.48 77.077 72.48ZM101.622 72.48C101.102 72.48 100.652 72.3 100.272 71.94C99.8919 71.58 99.7019 71.16 99.7019 70.68V49.56C99.7019 49.04 99.9019 48.59 100.302 48.21C100.722 47.81 101.212 47.61 101.772 47.61C102.392 47.61 102.912 47.88 103.332 48.42L116.832 65.04L117.072 65.52V49.17C117.072 48.69 117.262 48.27 117.642 47.91C118.022 47.55 118.472 47.37 118.992 47.37C119.512 47.37 119.962 47.55 120.342 47.91C120.742 48.27 120.942 48.69 120.942 49.17V70.14C120.942 70.66 120.732 71.12 120.312 71.52C119.892 71.9 119.402 72.09 118.842 72.09C118.562 72.09 118.282 72.02 118.002 71.88C117.722 71.72 117.482 71.52 117.282 71.28L103.812 54.75L103.572 54.24V70.68C103.572 71.16 103.372 71.58 102.972 71.94C102.592 72.3 102.142 72.48 101.622 72.48ZM143.807 65.97C144.307 65.97 144.727 66.15 145.067 66.51C145.427 66.85 145.607 67.27 145.607 67.77C145.607 68.25 145.437 68.68 145.097 69.06C144.177 70.04 142.887 70.85 141.227 71.49C139.567 72.11 137.917 72.42 136.277 72.42C133.897 72.42 131.747 71.9 129.827 70.86C127.907 69.82 126.397 68.36 125.297 66.48C124.197 64.6 123.647 62.44 123.647 60C123.647 57.58 124.197 55.42 125.297 53.52C126.397 51.62 127.907 50.15 129.827 49.11C131.747 48.05 133.897 47.52 136.277 47.52C137.917 47.52 139.557 47.85 141.197 48.51C142.837 49.17 144.127 50.04 145.067 51.12C145.407 51.52 145.577 51.95 145.577 52.41C145.577 52.91 145.397 53.34 145.037 53.7C144.677 54.04 144.247 54.21 143.747 54.21C143.507 54.21 143.267 54.16 143.027 54.06C142.787 53.96 142.597 53.82 142.457 53.64C141.877 52.94 141.017 52.39 139.877 51.99C138.737 51.59 137.537 51.39 136.277 51.39C134.057 51.39 132.187 51.95 130.667 53.07C129.167 54.17 128.197 55.72 127.757 57.72H137.117C137.617 57.72 138.037 57.9 138.377 58.26C138.737 58.6 138.917 59.02 138.917 59.52C138.917 60.02 138.737 60.45 138.377 60.81C138.037 61.15 137.617 61.32 137.117 61.32H127.607C127.867 63.58 128.777 65.36 130.337 66.66C131.917 67.94 133.897 68.58 136.277 68.58C137.657 68.58 138.917 68.4 140.057 68.04C141.197 67.68 141.997 67.21 142.457 66.63C142.617 66.43 142.817 66.27 143.057 66.15C143.317 66.03 143.567 65.97 143.807 65.97ZM163.394 69.27C163.594 69.43 163.804 69.68 164.024 70.02C164.264 70.36 164.384 70.68 164.384 70.98C164.384 71.48 164.214 71.88 163.874 72.18C163.534 72.48 163.104 72.63 162.584 72.63C162.084 72.63 161.714 72.55 161.474 72.39C160.674 71.95 160.094 71.36 159.734 70.62C159.374 69.86 159.114 68.77 158.954 67.35C158.894 66.75 158.834 66.05 158.774 65.25C158.714 64.43 158.664 63.76 158.624 63.24C158.584 62.3 158.064 61.59 157.064 61.11C156.084 60.63 154.884 60.39 153.464 60.39H151.484V70.62C151.484 71.12 151.304 71.55 150.944 71.91C150.604 72.25 150.184 72.42 149.684 72.42C149.184 72.42 148.754 72.25 148.394 71.91C148.054 71.55 147.884 71.12 147.884 70.62V49.53C147.884 48.97 148.054 48.52 148.394 48.18C148.734 47.84 149.174 47.65 149.714 47.61C150.394 47.59 151.344 47.58 152.564 47.58C153.784 47.56 154.794 47.55 155.594 47.55C157.094 47.55 158.424 47.82 159.584 48.36C160.764 48.9 161.674 49.66 162.314 50.64C162.974 51.62 163.304 52.74 163.304 54C163.304 56.56 162.024 58.27 159.464 59.13C161.164 59.85 162.084 61.12 162.224 62.94L162.344 64.32C162.384 64.96 162.454 65.85 162.554 66.99C162.674 68.19 162.954 68.95 163.394 69.27ZM151.484 57.06H155.564C157.004 57.06 158.054 56.83 158.714 56.37C159.374 55.91 159.704 55.12 159.704 54C159.704 53.1 159.344 52.4 158.624 51.9C157.904 51.4 156.894 51.15 155.594 51.15H151.484V57.06Z" fill="url(#paint0_linear_750_7854)"/>
</g>
<path d="M18.3052 71.532C16.8492 71.532 15.4679 71.1773 14.1612 70.468C12.8545 69.74 11.8279 68.7693 11.0812 67.556C10.9319 67.2947 10.8572 66.9867 10.8572 66.632C10.8572 66.0533 10.9972 65.596 11.2772 65.26C11.5759 64.924 11.9679 64.756 12.4532 64.756C12.8639 64.756 13.2185 64.84 13.5172 65.008C13.8159 65.176 14.0772 65.4467 14.3012 65.82C14.6559 66.4173 15.2065 66.912 15.9532 67.304C16.7185 67.6773 17.5025 67.864 18.3052 67.864C20.9932 67.864 22.3372 66.9307 22.3372 65.064C22.3372 64.2613 22.0012 63.5333 21.3292 62.88C20.6759 62.2267 19.6305 61.564 18.1932 60.892C16.4945 60.108 15.1692 59.3987 14.2172 58.764C13.2839 58.1107 12.6119 57.42 12.2012 56.692C11.7905 55.9453 11.5852 55.068 11.5852 54.06C11.5852 52.9027 11.8932 51.876 12.5092 50.98C13.1252 50.0653 13.9745 49.356 15.0572 48.852C16.1399 48.3293 17.3532 48.068 18.6972 48.068C20.1905 48.068 21.5625 48.404 22.8132 49.076C24.0639 49.7293 25.0159 50.6253 25.6692 51.764C25.8559 52.0627 25.9492 52.3707 25.9492 52.688C25.9492 53.136 25.7999 53.528 25.5012 53.864C25.2212 54.2 24.8665 54.368 24.4372 54.368C24.1199 54.368 23.7932 54.284 23.4572 54.116C23.1212 53.9293 22.8599 53.7053 22.6732 53.444C22.2439 52.8467 21.7025 52.408 21.0492 52.128C20.4145 51.848 19.6305 51.708 18.6972 51.708C17.5959 51.708 16.7279 51.9133 16.0932 52.324C15.4772 52.716 15.1692 53.2947 15.1692 54.06C15.1692 54.5267 15.2812 54.9187 15.5052 55.236C15.7479 55.5347 16.1492 55.8427 16.7092 56.16C17.2879 56.4773 18.2305 56.9347 19.5372 57.532C21.8145 58.596 23.4479 59.7067 24.4372 60.864C25.4452 62.0213 25.9492 63.4213 25.9492 65.064C25.9492 66.352 25.6319 67.4907 24.9972 68.48C24.3625 69.4507 23.4665 70.2067 22.3092 70.748C21.1519 71.2707 19.8172 71.532 18.3052 71.532ZM46.6281 65.988C46.7774 65.8013 46.9641 65.652 47.1881 65.54C47.4308 65.428 47.6641 65.372 47.8881 65.372C48.3548 65.372 48.7468 65.54 49.0641 65.876C49.4001 66.1933 49.5681 66.5853 49.5681 67.052C49.5681 67.5 49.4094 67.9013 49.0921 68.256C48.2334 69.1707 47.0294 69.9267 45.4801 70.524C43.9308 71.1027 42.3908 71.392 40.8601 71.392C38.6388 71.392 36.6321 70.9067 34.8401 69.936C33.0481 68.9653 31.6388 67.6027 30.6121 65.848C29.5854 64.0933 29.0721 62.0773 29.0721 59.8C29.0721 57.5413 29.5854 55.5253 30.6121 53.752C31.6388 51.9787 33.0481 50.6067 34.8401 49.636C36.6321 48.6467 38.6388 48.152 40.8601 48.152C42.3908 48.152 43.9214 48.46 45.4521 49.076C46.9828 49.692 48.1868 50.504 49.0641 51.512C49.3814 51.8853 49.5401 52.2867 49.5401 52.716C49.5401 53.1827 49.3721 53.584 49.0361 53.92C48.7001 54.2373 48.2988 54.396 47.8321 54.396C47.6081 54.396 47.3841 54.3493 47.1601 54.256C46.9361 54.1627 46.7588 54.032 46.6281 53.864C46.0868 53.2107 45.2841 52.6973 44.2201 52.324C43.1561 51.9507 42.0361 51.764 40.8601 51.764C39.2548 51.764 37.8268 52.0907 36.5761 52.744C35.3441 53.3787 34.3828 54.3027 33.6921 55.516C33.0201 56.7107 32.6841 58.1387 32.6841 59.8C32.6841 61.4427 33.0294 62.8707 33.7201 64.084C34.4108 65.2787 35.3721 66.2027 36.6041 66.856C37.8361 67.4907 39.2548 67.808 40.8601 67.808C42.1481 67.808 43.3241 67.64 44.3881 67.304C45.4521 66.968 46.1988 66.5293 46.6281 65.988ZM71.797 68.9C71.8904 69.124 71.937 69.3013 71.937 69.432C71.937 69.9173 71.769 70.3373 71.433 70.692C71.1157 71.028 70.7144 71.196 70.229 71.196C69.893 71.196 69.5757 71.1027 69.277 70.916C68.997 70.7293 68.7917 70.4773 68.661 70.16L66.477 64.504H57.937L55.781 70.188C55.669 70.4867 55.4637 70.7293 55.165 70.916C54.885 71.1027 54.5677 71.196 54.213 71.196C53.7277 71.196 53.3264 71.028 53.009 70.692C52.6917 70.356 52.533 69.9547 52.533 69.488C52.533 69.3387 52.5797 69.152 52.673 68.928L60.765 49.272C60.9144 48.9173 61.1104 48.6467 61.353 48.46C61.6144 48.2733 61.885 48.18 62.165 48.18C62.4824 48.18 62.781 48.2733 63.061 48.46C63.341 48.6467 63.5557 48.9267 63.705 49.3L71.797 68.9ZM61.969 53.976L59.141 61.396H65.273L62.417 53.976L62.193 53.192L61.969 53.976ZM77.6624 71.448C77.177 71.448 76.757 71.28 76.4024 70.944C76.0477 70.608 75.8704 70.216 75.8704 69.768V50.056C75.8704 49.5707 76.057 49.1507 76.4304 48.796C76.8224 48.4227 77.2797 48.236 77.8024 48.236C78.381 48.236 78.8664 48.488 79.2584 48.992L91.8584 64.504L92.0824 64.952V49.692C92.0824 49.244 92.2597 48.852 92.6144 48.516C92.969 48.18 93.389 48.012 93.8744 48.012C94.3597 48.012 94.7797 48.18 95.1344 48.516C95.5077 48.852 95.6944 49.244 95.6944 49.692V69.264C95.6944 69.7493 95.4984 70.1787 95.1064 70.552C94.7144 70.9067 94.257 71.084 93.7344 71.084C93.473 71.084 93.2117 71.0187 92.9504 70.888C92.689 70.7387 92.465 70.552 92.2784 70.328L79.7064 54.9L79.4824 54.424V69.768C79.4824 70.216 79.2957 70.608 78.9224 70.944C78.5677 71.28 78.1477 71.448 77.6624 71.448ZM101.971 71.448C101.486 71.448 101.066 71.28 100.711 70.944C100.356 70.608 100.179 70.216 100.179 69.768V50.056C100.179 49.5707 100.366 49.1507 100.739 48.796C101.131 48.4227 101.588 48.236 102.111 48.236C102.69 48.236 103.175 48.488 103.567 48.992L116.167 64.504L116.391 64.952V49.692C116.391 49.244 116.568 48.852 116.923 48.516C117.278 48.18 117.698 48.012 118.183 48.012C118.668 48.012 119.088 48.18 119.443 48.516C119.816 48.852 120.003 49.244 120.003 49.692V69.264C120.003 69.7493 119.807 70.1787 119.415 70.552C119.023 70.9067 118.566 71.084 118.043 71.084C117.782 71.084 117.52 71.0187 117.259 70.888C116.998 70.7387 116.774 70.552 116.587 70.328L104.015 54.9L103.791 54.424V69.768C103.791 70.216 103.604 70.608 103.231 70.944C102.876 71.28 102.456 71.448 101.971 71.448ZM142.744 65.372C143.21 65.372 143.602 65.54 143.92 65.876C144.256 66.1933 144.424 66.5853 144.424 67.052C144.424 67.5 144.265 67.9013 143.948 68.256C143.089 69.1707 141.885 69.9267 140.336 70.524C138.786 71.1027 137.246 71.392 135.716 71.392C133.494 71.392 131.488 70.9067 129.696 69.936C127.904 68.9653 126.494 67.6027 125.468 65.848C124.441 64.0933 123.928 62.0773 123.928 59.8C123.928 57.5413 124.441 55.5253 125.468 53.752C126.494 51.9787 127.904 50.6067 129.696 49.636C131.488 48.6467 133.494 48.152 135.716 48.152C137.246 48.152 138.777 48.46 140.308 49.076C141.838 49.692 143.042 50.504 143.92 51.512C144.237 51.8853 144.396 52.2867 144.396 52.716C144.396 53.1827 144.228 53.584 143.892 53.92C143.556 54.2373 143.154 54.396 142.688 54.396C142.464 54.396 142.24 54.3493 142.016 54.256C141.792 54.1627 141.614 54.032 141.484 53.864C140.942 53.2107 140.14 52.6973 139.076 52.324C138.012 51.9507 136.892 51.764 135.716 51.764C133.644 51.764 131.898 52.2867 130.48 53.332C129.08 54.3587 128.174 55.8053 127.764 57.672H136.5C136.966 57.672 137.358 57.84 137.676 58.176C138.012 58.4933 138.18 58.8853 138.18 59.352C138.18 59.8187 138.012 60.22 137.676 60.556C137.358 60.8733 136.966 61.032 136.5 61.032H127.624C127.866 63.1413 128.716 64.8027 130.172 66.016C131.646 67.2107 133.494 67.808 135.716 67.808C137.004 67.808 138.18 67.64 139.244 67.304C140.308 66.968 141.054 66.5293 141.484 65.988C141.633 65.8013 141.82 65.652 142.044 65.54C142.286 65.428 142.52 65.372 142.744 65.372ZM162.424 68.452C162.611 68.6013 162.807 68.8347 163.012 69.152C163.236 69.4693 163.348 69.768 163.348 70.048C163.348 70.5147 163.19 70.888 162.872 71.168C162.555 71.448 162.154 71.588 161.668 71.588C161.202 71.588 160.856 71.5133 160.632 71.364C159.886 70.9533 159.344 70.4027 159.008 69.712C158.672 69.0027 158.43 67.9853 158.28 66.66C158.224 66.1 158.168 65.4467 158.112 64.7C158.056 63.9347 158.01 63.3093 157.972 62.824C157.935 61.9467 157.45 61.284 156.516 60.836C155.602 60.388 154.482 60.164 153.156 60.164H151.308V69.712C151.308 70.1787 151.14 70.58 150.804 70.916C150.487 71.2333 150.095 71.392 149.628 71.392C149.162 71.392 148.76 71.2333 148.424 70.916C148.107 70.58 147.948 70.1787 147.948 69.712V50.028C147.948 49.5053 148.107 49.0853 148.424 48.768C148.742 48.4507 149.152 48.2733 149.656 48.236C150.291 48.2173 151.178 48.208 152.316 48.208C153.455 48.1893 154.398 48.18 155.144 48.18C156.544 48.18 157.786 48.432 158.868 48.936C159.97 49.44 160.819 50.1493 161.416 51.064C162.032 51.9787 162.34 53.024 162.34 54.2C162.34 56.5893 161.146 58.1853 158.756 58.988C160.343 59.66 161.202 60.8453 161.332 62.544L161.444 63.832C161.482 64.4293 161.547 65.26 161.64 66.324C161.752 67.444 162.014 68.1533 162.424 68.452ZM151.308 57.056H155.116C156.46 57.056 157.44 56.8413 158.056 56.412C158.672 55.9827 158.98 55.2453 158.98 54.2C158.98 53.36 158.644 52.7067 157.972 52.24C157.3 51.7733 156.358 51.54 155.144 51.54H151.308V57.056Z" fill="white"/>
<defs>
<filter id="filter0_f_750_7854" x="0" y="37.37" width="174.384" height="45.26" filterUnits="userSpaceOnUse" color-interpolation-filters="sRGB">
<feFlood flood-opacity="0" result="BackgroundImageFix"/>
<feBlend mode="normal" in="SourceGraphic" in2="BackgroundImageFix" result="shape"/>
<feGaussianBlur stdDeviation="5" result="effect1_foregroundBlur_750_7854"/>
</filter>
<linearGradient id="paint0_linear_750_7854" x1="215.244" y1="61.5" x2="-38.0382" y2="61.5" gradientUnits="userSpaceOnUse">
<stop stop-color="#A315D6"/>
<stop offset="0.5" stop-color="#FDAB60"/>
<stop offset="1" stop-color="#A315D6"/>
</linearGradient>
</defs>
</svg>
