<svg width="244" height="66" viewBox="0 0 244 66" fill="none" xmlns="http://www.w3.org/2000/svg">
<path d="M10.6254 32.396C8.77739 32.396 7.00639 32.154 5.31239 31.67C3.61839 31.164 2.25439 30.515 1.22039 29.723L3.03539 25.697C4.02539 26.401 5.19139 26.984 6.53339 27.446C7.89739 27.886 9.27239 28.106 10.6584 28.106C11.7144 28.106 12.5614 28.007 13.1994 27.809C13.8594 27.589 14.3434 27.292 14.6514 26.918C14.9594 26.544 15.1134 26.115 15.1134 25.631C15.1134 25.015 14.8714 24.531 14.3874 24.179C13.9034 23.805 13.2654 23.508 12.4734 23.288C11.6814 23.046 10.8014 22.826 9.83339 22.628C8.88739 22.408 7.93039 22.144 6.96239 21.836C6.01639 21.528 5.14739 21.132 4.35539 20.648C3.56339 20.164 2.91439 19.526 2.40839 18.734C1.92439 17.942 1.68239 16.93 1.68239 15.698C1.68239 14.378 2.03439 13.179 2.73839 12.101C3.46439 11.001 4.54239 10.132 5.97239 9.494C7.42439 8.834 9.23939 8.504 11.4174 8.504C12.8694 8.504 14.2994 8.68 15.7074 9.032C17.1154 9.362 18.3584 9.868 19.4364 10.55L17.7864 14.609C16.7084 13.993 15.6304 13.542 14.5524 13.256C13.4744 12.948 12.4184 12.794 11.3844 12.794C10.3504 12.794 9.50339 12.915 8.84339 13.157C8.18339 13.399 7.71039 13.718 7.42439 14.114C7.13839 14.488 6.99539 14.928 6.99539 15.434C6.99539 16.028 7.23739 16.512 7.72139 16.886C8.20539 17.238 8.84339 17.524 9.63539 17.744C10.4274 17.964 11.2964 18.184 12.2424 18.404C13.2104 18.624 14.1674 18.877 15.1134 19.163C16.0814 19.449 16.9614 19.834 17.7534 20.318C18.5454 20.802 19.1834 21.44 19.6674 22.232C20.1734 23.024 20.4264 24.025 20.4264 25.235C20.4264 26.533 20.0634 27.721 19.3374 28.799C18.6114 29.877 17.5224 30.746 16.0704 31.406C14.6404 32.066 12.8254 32.396 10.6254 32.396ZM32.2963 32.264C30.3823 32.264 28.6773 31.879 27.1813 31.109C25.6853 30.317 24.5083 29.228 23.6503 27.842C22.8143 26.456 22.3963 24.883 22.3963 23.123C22.3963 21.341 22.8143 19.768 23.6503 18.404C24.5083 17.018 25.6853 15.94 27.1813 15.17C28.6773 14.378 30.3823 13.982 32.2963 13.982C34.1663 13.982 35.7943 14.378 37.1803 15.17C38.5663 15.94 39.5893 17.051 40.2493 18.503L36.2563 20.648C35.7943 19.812 35.2113 19.196 34.5073 18.8C33.8253 18.404 33.0773 18.206 32.2633 18.206C31.3833 18.206 30.5913 18.404 29.8873 18.8C29.1833 19.196 28.6223 19.757 28.2043 20.483C27.8083 21.209 27.6103 22.089 27.6103 23.123C27.6103 24.157 27.8083 25.037 28.2043 25.763C28.6223 26.489 29.1833 27.05 29.8873 27.446C30.5913 27.842 31.3833 28.04 32.2633 28.04C33.0773 28.04 33.8253 27.853 34.5073 27.479C35.2113 27.083 35.7943 26.456 36.2563 25.598L40.2493 27.776C39.5893 29.206 38.5663 30.317 37.1803 31.109C35.7943 31.879 34.1663 32.264 32.2963 32.264ZM54.1034 32V28.535L53.7734 27.776V21.572C53.7734 20.472 53.4324 19.614 52.7504 18.998C52.0904 18.382 51.0674 18.074 49.6814 18.074C48.7354 18.074 47.8004 18.228 46.8764 18.536C45.9744 18.822 45.2044 19.218 44.5664 19.724L42.7184 16.127C43.6864 15.445 44.8524 14.917 46.2164 14.543C47.5804 14.169 48.9664 13.982 50.3744 13.982C53.0804 13.982 55.1814 14.62 56.6774 15.896C58.1734 17.172 58.9214 19.163 58.9214 21.869V32H54.1034ZM48.6914 32.264C47.3054 32.264 46.1174 32.033 45.1274 31.571C44.1374 31.087 43.3784 30.438 42.8504 29.624C42.3224 28.81 42.0584 27.897 42.0584 26.885C42.0584 25.829 42.3114 24.905 42.8174 24.113C43.3454 23.321 44.1704 22.705 45.2924 22.265C46.4144 21.803 47.8774 21.572 49.6814 21.572H54.4004V24.575H50.2424C49.0324 24.575 48.1964 24.773 47.7344 25.169C47.2944 25.565 47.0744 26.06 47.0744 26.654C47.0744 27.314 47.3274 27.842 47.8334 28.238C48.3614 28.612 49.0764 28.799 49.9784 28.799C50.8364 28.799 51.6064 28.601 52.2884 28.205C52.9704 27.787 53.4654 27.182 53.7734 26.39L54.5654 28.766C54.1914 29.91 53.5094 30.779 52.5194 31.373C51.5294 31.967 50.2534 32.264 48.6914 32.264ZM74.3716 13.982C75.7796 13.982 77.0336 14.268 78.1336 14.84C79.2556 15.39 80.1356 16.248 80.7736 17.414C81.4116 18.558 81.7306 20.032 81.7306 21.836V32H76.5826V22.628C76.5826 21.198 76.2636 20.142 75.6256 19.46C75.0096 18.778 74.1296 18.437 72.9856 18.437C72.1716 18.437 71.4346 18.613 70.7746 18.965C70.1366 19.295 69.6306 19.812 69.2566 20.516C68.9046 21.22 68.7286 22.122 68.7286 23.222V32H63.5806V14.246H68.4976V19.163L67.5736 17.678C68.2116 16.49 69.1246 15.577 70.3126 14.939C71.5006 14.301 72.8536 13.982 74.3716 13.982ZM107.293 32.396C105.489 32.396 103.806 32.099 102.244 31.505C100.704 30.911 99.3617 30.075 98.2177 28.997C97.0957 27.919 96.2157 26.654 95.5777 25.202C94.9617 23.75 94.6537 22.166 94.6537 20.45C94.6537 18.734 94.9617 17.15 95.5777 15.698C96.2157 14.246 97.1067 12.981 98.2507 11.903C99.3947 10.825 100.737 9.989 102.277 9.395C103.817 8.801 105.489 8.504 107.293 8.504C109.119 8.504 110.791 8.801 112.309 9.395C113.849 9.989 115.18 10.825 116.302 11.903C117.446 12.959 118.337 14.213 118.975 15.665C119.613 17.117 119.932 18.712 119.932 20.45C119.932 22.166 119.613 23.761 118.975 25.235C118.337 26.687 117.446 27.952 116.302 29.03C115.18 30.086 113.849 30.911 112.309 31.505C110.791 32.099 109.119 32.396 107.293 32.396ZM114.85 37.313C113.948 37.313 113.09 37.214 112.276 37.016C111.484 36.818 110.692 36.499 109.9 36.059C109.13 35.619 108.316 35.025 107.458 34.277C106.622 33.529 105.709 32.605 104.719 31.505L110.329 30.086C110.923 30.9 111.473 31.549 111.979 32.033C112.485 32.517 112.969 32.858 113.431 33.056C113.915 33.254 114.421 33.353 114.949 33.353C116.357 33.353 117.611 32.781 118.711 31.637L121.087 34.475C119.525 36.367 117.446 37.313 114.85 37.313ZM107.293 27.842C108.327 27.842 109.273 27.666 110.131 27.314C111.011 26.962 111.781 26.456 112.441 25.796C113.101 25.136 113.607 24.355 113.959 23.453C114.333 22.529 114.52 21.528 114.52 20.45C114.52 19.35 114.333 18.349 113.959 17.447C113.607 16.545 113.101 15.764 112.441 15.104C111.781 14.444 111.011 13.938 110.131 13.586C109.273 13.234 108.327 13.058 107.293 13.058C106.259 13.058 105.302 13.234 104.422 13.586C103.542 13.938 102.772 14.444 102.112 15.104C101.474 15.764 100.968 16.545 100.594 17.447C100.242 18.349 100.066 19.35 100.066 20.45C100.066 21.528 100.242 22.529 100.594 23.453C100.968 24.355 101.474 25.136 102.112 25.796C102.772 26.456 103.542 26.962 104.422 27.314C105.302 27.666 106.259 27.842 107.293 27.842ZM123.949 32V8.9H133.948C136.016 8.9 137.798 9.241 139.294 9.923C140.79 10.583 141.945 11.54 142.759 12.794C143.573 14.048 143.98 15.544 143.98 17.282C143.98 18.998 143.573 20.483 142.759 21.737C141.945 22.969 140.79 23.915 139.294 24.575C137.798 25.235 136.016 25.565 133.948 25.565H126.919L129.295 23.222V32H123.949ZM138.634 32L132.859 23.618H138.568L144.409 32H138.634ZM129.295 23.816L126.919 21.308H133.651C135.301 21.308 136.533 20.956 137.347 20.252C138.161 19.526 138.568 18.536 138.568 17.282C138.568 16.006 138.161 15.016 137.347 14.312C136.533 13.608 135.301 13.256 133.651 13.256H126.919L129.295 10.715V23.816ZM168.617 32.396C166.835 32.396 165.174 32.11 163.634 31.538C162.116 30.944 160.796 30.108 159.674 29.03C158.552 27.952 157.672 26.687 157.034 25.235C156.418 23.783 156.11 22.188 156.11 20.45C156.11 18.712 156.418 17.117 157.034 15.665C157.672 14.213 158.552 12.948 159.674 11.87C160.818 10.792 162.149 9.967 163.667 9.395C165.185 8.801 166.846 8.504 168.65 8.504C170.652 8.504 172.456 8.856 174.062 9.56C175.69 10.242 177.054 11.254 178.154 12.596L174.722 15.764C173.93 14.862 173.05 14.191 172.082 13.751C171.114 13.289 170.058 13.058 168.914 13.058C167.836 13.058 166.846 13.234 165.944 13.586C165.042 13.938 164.261 14.444 163.601 15.104C162.941 15.764 162.424 16.545 162.05 17.447C161.698 18.349 161.522 19.35 161.522 20.45C161.522 21.55 161.698 22.551 162.05 23.453C162.424 24.355 162.941 25.136 163.601 25.796C164.261 26.456 165.042 26.962 165.944 27.314C166.846 27.666 167.836 27.842 168.914 27.842C170.058 27.842 171.114 27.622 172.082 27.182C173.05 26.72 173.93 26.027 174.722 25.103L178.154 28.271C177.054 29.613 175.69 30.636 174.062 31.34C172.456 32.044 170.641 32.396 168.617 32.396ZM189.237 32.264C187.345 32.264 185.662 31.868 184.188 31.076C182.736 30.284 181.581 29.206 180.723 27.842C179.887 26.456 179.469 24.883 179.469 23.123C179.469 21.341 179.887 19.768 180.723 18.404C181.581 17.018 182.736 15.94 184.188 15.17C185.662 14.378 187.345 13.982 189.237 13.982C191.107 13.982 192.779 14.378 194.253 15.17C195.727 15.94 196.882 17.007 197.718 18.371C198.554 19.735 198.972 21.319 198.972 23.123C198.972 24.883 198.554 26.456 197.718 27.842C196.882 29.206 195.727 30.284 194.253 31.076C192.779 31.868 191.107 32.264 189.237 32.264ZM189.237 28.04C190.095 28.04 190.865 27.842 191.547 27.446C192.229 27.05 192.768 26.489 193.164 25.763C193.56 25.015 193.758 24.135 193.758 23.123C193.758 22.089 193.56 21.209 193.164 20.483C192.768 19.757 192.229 19.196 191.547 18.8C190.865 18.404 190.095 18.206 189.237 18.206C188.379 18.206 187.609 18.404 186.927 18.8C186.245 19.196 185.695 19.757 185.277 20.483C184.881 21.209 184.683 22.089 184.683 23.123C184.683 24.135 184.881 25.015 185.277 25.763C185.695 26.489 186.245 27.05 186.927 27.446C187.609 27.842 188.379 28.04 189.237 28.04ZM210.036 32.264C208.364 32.264 206.857 31.89 205.515 31.142C204.173 30.372 203.106 29.305 202.314 27.941C201.544 26.577 201.159 24.971 201.159 23.123C201.159 21.253 201.544 19.636 202.314 18.272C203.106 16.908 204.173 15.852 205.515 15.104C206.857 14.356 208.364 13.982 210.036 13.982C211.532 13.982 212.841 14.312 213.963 14.972C215.085 15.632 215.954 16.633 216.57 17.975C217.186 19.317 217.494 21.033 217.494 23.123C217.494 25.191 217.197 26.907 216.603 28.271C216.009 29.613 215.151 30.614 214.029 31.274C212.929 31.934 211.598 32.264 210.036 32.264ZM210.927 28.04C211.763 28.04 212.522 27.842 213.204 27.446C213.886 27.05 214.425 26.489 214.821 25.763C215.239 25.015 215.448 24.135 215.448 23.123C215.448 22.089 215.239 21.209 214.821 20.483C214.425 19.757 213.886 19.196 213.204 18.8C212.522 18.404 211.763 18.206 210.927 18.206C210.069 18.206 209.299 18.404 208.617 18.8C207.935 19.196 207.385 19.757 206.967 20.483C206.571 21.209 206.373 22.089 206.373 23.123C206.373 24.135 206.571 25.015 206.967 25.763C207.385 26.489 207.935 27.05 208.617 27.446C209.299 27.842 210.069 28.04 210.927 28.04ZM215.58 32V28.37L215.679 23.09L215.349 17.843V7.514H220.497V32H215.58ZM234.072 32.264C232.048 32.264 230.266 31.868 228.726 31.076C227.208 30.284 226.031 29.206 225.195 27.842C224.359 26.456 223.941 24.883 223.941 23.123C223.941 21.341 224.348 19.768 225.162 18.404C225.998 17.018 227.131 15.94 228.561 15.17C229.991 14.378 231.608 13.982 233.412 13.982C235.15 13.982 236.712 14.356 238.098 15.104C239.506 15.83 240.617 16.886 241.431 18.272C242.245 19.636 242.652 21.275 242.652 23.189C242.652 23.387 242.641 23.618 242.619 23.882C242.597 24.124 242.575 24.355 242.553 24.575H228.132V21.572H239.847L237.867 22.463C237.867 21.539 237.68 20.736 237.306 20.054C236.932 19.372 236.415 18.844 235.755 18.47C235.095 18.074 234.325 17.876 233.445 17.876C232.565 17.876 231.784 18.074 231.102 18.47C230.442 18.844 229.925 19.383 229.551 20.087C229.177 20.769 228.99 21.583 228.99 22.529V23.321C228.99 24.289 229.199 25.147 229.617 25.895C230.057 26.621 230.662 27.182 231.432 27.578C232.224 27.952 233.148 28.139 234.204 28.139C235.15 28.139 235.975 27.996 236.679 27.71C237.405 27.424 238.065 26.995 238.659 26.423L241.398 29.393C240.584 30.317 239.561 31.032 238.329 31.538C237.097 32.022 235.678 32.264 234.072 32.264Z" fill="white"/>
<path d="M1.46444 63V53.2H5.49644C6.36444 53.2 7.10644 53.34 7.72244 53.62C8.34777 53.9 8.82844 54.3013 9.16444 54.824C9.50044 55.3467 9.66844 55.9673 9.66844 56.686C9.66844 57.4047 9.50044 58.0253 9.16444 58.548C8.82844 59.0707 8.34777 59.472 7.72244 59.752C7.10644 60.032 6.36444 60.172 5.49644 60.172H2.47244L3.28444 59.318V63H1.46444ZM3.28444 59.514L2.47244 58.632H5.41244C6.2151 58.632 6.8171 58.464 7.21844 58.128C7.6291 57.7827 7.83444 57.302 7.83444 56.686C7.83444 56.0607 7.6291 55.58 7.21844 55.244C6.8171 54.908 6.2151 54.74 5.41244 54.74H2.47244L3.28444 53.844V59.514ZM11.4546 63V52.612H13.2046V63H11.4546ZM20.1075 63V61.488L20.0095 61.166V58.52C20.0095 58.0067 19.8555 57.61 19.5475 57.33C19.2395 57.0407 18.7728 56.896 18.1475 56.896C17.7275 56.896 17.3122 56.9613 16.9015 57.092C16.5002 57.2227 16.1595 57.4047 15.8795 57.638L15.1935 56.364C15.5948 56.056 16.0708 55.8273 16.6215 55.678C17.1815 55.5193 17.7602 55.44 18.3575 55.44C19.4402 55.44 20.2755 55.7013 20.8635 56.224C21.4608 56.7373 21.7595 57.5353 21.7595 58.618V63H20.1075ZM17.7555 63.098C17.1955 63.098 16.7055 63.0047 16.2855 62.818C15.8655 62.622 15.5388 62.356 15.3055 62.02C15.0815 61.6747 14.9695 61.2873 14.9695 60.858C14.9695 60.438 15.0675 60.06 15.2635 59.724C15.4688 59.388 15.8002 59.122 16.2575 58.926C16.7148 58.73 17.3215 58.632 18.0775 58.632H20.2475V59.794H18.2035C17.6062 59.794 17.2048 59.892 16.9995 60.088C16.7942 60.2747 16.6915 60.508 16.6915 60.788C16.6915 61.1053 16.8175 61.3573 17.0695 61.544C17.3215 61.7307 17.6715 61.824 18.1195 61.824C18.5488 61.824 18.9315 61.726 19.2675 61.53C19.6128 61.334 19.8602 61.0447 20.0095 60.662L20.3035 61.712C20.1355 62.1507 19.8322 62.4913 19.3935 62.734C18.9642 62.9767 18.4182 63.098 17.7555 63.098ZM27.4491 63.098C26.6651 63.098 25.9651 62.9347 25.3491 62.608C24.7424 62.272 24.2664 61.8147 23.9211 61.236C23.5758 60.6573 23.4031 59.9993 23.4031 59.262C23.4031 58.5153 23.5758 57.8573 23.9211 57.288C24.2664 56.7093 24.7424 56.2567 25.3491 55.93C25.9651 55.6033 26.6651 55.44 27.4491 55.44C28.1771 55.44 28.8164 55.5893 29.3671 55.888C29.9271 56.1773 30.3518 56.6067 30.6411 57.176L29.2971 57.96C29.0731 57.6053 28.7978 57.344 28.4711 57.176C28.1538 57.008 27.8084 56.924 27.4351 56.924C27.0058 56.924 26.6184 57.0173 26.2731 57.204C25.9278 57.3907 25.6571 57.6613 25.4611 58.016C25.2651 58.3613 25.1671 58.7767 25.1671 59.262C25.1671 59.7473 25.2651 60.1673 25.4611 60.522C25.6571 60.8673 25.9278 61.1333 26.2731 61.32C26.6184 61.5067 27.0058 61.6 27.4351 61.6C27.8084 61.6 28.1538 61.516 28.4711 61.348C28.7978 61.18 29.0731 60.9187 29.2971 60.564L30.6411 61.348C30.3518 61.908 29.9271 62.342 29.3671 62.65C28.8164 62.9487 28.1771 63.098 27.4491 63.098ZM35.5585 63.098C34.7278 63.098 33.9998 62.9347 33.3745 62.608C32.7585 62.272 32.2778 61.8147 31.9325 61.236C31.5965 60.6573 31.4285 59.9993 31.4285 59.262C31.4285 58.5153 31.5918 57.8573 31.9185 57.288C32.2545 56.7093 32.7118 56.2567 33.2905 55.93C33.8785 55.6033 34.5458 55.44 35.2925 55.44C36.0205 55.44 36.6692 55.5987 37.2385 55.916C37.8078 56.2333 38.2558 56.6813 38.5825 57.26C38.9092 57.8387 39.0725 58.52 39.0725 59.304C39.0725 59.3787 39.0678 59.4627 39.0585 59.556C39.0585 59.6493 39.0538 59.738 39.0445 59.822H32.8145V58.66H38.1205L37.4345 59.024C37.4438 58.5947 37.3552 58.2167 37.1685 57.89C36.9818 57.5633 36.7252 57.3067 36.3985 57.12C36.0812 56.9333 35.7125 56.84 35.2925 56.84C34.8632 56.84 34.4852 56.9333 34.1585 57.12C33.8412 57.3067 33.5892 57.568 33.4025 57.904C33.2252 58.2307 33.1365 58.618 33.1365 59.066V59.346C33.1365 59.794 33.2392 60.1907 33.4445 60.536C33.6498 60.8813 33.9392 61.1473 34.3125 61.334C34.6858 61.5207 35.1152 61.614 35.6005 61.614C36.0205 61.614 36.3985 61.5487 36.7345 61.418C37.0705 61.2873 37.3692 61.082 37.6305 60.802L38.5685 61.88C38.2325 62.272 37.8078 62.5753 37.2945 62.79C36.7905 62.9953 36.2118 63.098 35.5585 63.098ZM49.3826 63.14C48.6173 63.14 47.9126 63.014 47.2686 62.762C46.6246 62.51 46.0646 62.16 45.5886 61.712C45.1126 61.2547 44.7439 60.7227 44.4826 60.116C44.2213 59.5 44.0906 58.828 44.0906 58.1C44.0906 57.372 44.2213 56.7047 44.4826 56.098C44.7439 55.482 45.1126 54.95 45.5886 54.502C46.0646 54.0447 46.6246 53.69 47.2686 53.438C47.9126 53.186 48.6126 53.06 49.3686 53.06C50.1339 53.06 50.8339 53.186 51.4686 53.438C52.1126 53.69 52.6726 54.04 53.1486 54.488C53.6246 54.936 53.9933 55.468 54.2546 56.084C54.5159 56.7 54.6466 57.372 54.6466 58.1C54.6466 58.828 54.5159 59.5 54.2546 60.116C53.9933 60.732 53.6246 61.264 53.1486 61.712C52.6726 62.16 52.1126 62.51 51.4686 62.762C50.8339 63.014 50.1386 63.14 49.3826 63.14ZM52.5746 65.142C52.2293 65.142 51.8933 65.1 51.5666 65.016C51.2493 64.9413 50.9319 64.8107 50.6146 64.624C50.3066 64.4467 49.9846 64.2087 49.6486 63.91C49.3126 63.6207 48.9439 63.2613 48.5426 62.832L50.4746 62.328C50.7359 62.6733 50.9833 62.9487 51.2166 63.154C51.4593 63.3687 51.6926 63.5227 51.9166 63.616C52.1406 63.7093 52.3739 63.756 52.6166 63.756C53.2606 63.756 53.8206 63.4947 54.2966 62.972L55.1366 63.98C54.4833 64.7547 53.6293 65.142 52.5746 65.142ZM49.3686 61.544C49.8633 61.544 50.3206 61.46 50.7406 61.292C51.1606 61.124 51.5246 60.886 51.8326 60.578C52.1406 60.2607 52.3786 59.892 52.5466 59.472C52.7239 59.052 52.8126 58.5947 52.8126 58.1C52.8126 57.596 52.7239 57.1387 52.5466 56.728C52.3786 56.308 52.1406 55.944 51.8326 55.636C51.5246 55.3187 51.1606 55.076 50.7406 54.908C50.3206 54.74 49.8633 54.656 49.3686 54.656C48.8739 54.656 48.4166 54.74 47.9966 54.908C47.5766 55.076 47.2126 55.3187 46.9046 55.636C46.5966 55.944 46.3539 56.308 46.1766 56.728C46.0086 57.1387 45.9246 57.596 45.9246 58.1C45.9246 58.5947 46.0086 59.052 46.1766 59.472C46.3539 59.892 46.5966 60.2607 46.9046 60.578C47.2126 60.886 47.5766 61.124 47.9966 61.292C48.4166 61.46 48.8739 61.544 49.3686 61.544ZM56.5758 63V53.2H60.6078C61.4758 53.2 62.2178 53.34 62.8338 53.62C63.4591 53.9 63.9398 54.3013 64.2758 54.824C64.6118 55.3467 64.7798 55.9673 64.7798 56.686C64.7798 57.4047 64.6118 58.0253 64.2758 58.548C63.9398 59.0613 63.4591 59.458 62.8338 59.738C62.2178 60.0087 61.4758 60.144 60.6078 60.144H57.5838L58.3958 59.318V63H56.5758ZM62.9878 63L60.5098 59.444H62.4558L64.9478 63H62.9878ZM58.3958 59.514L57.5838 58.646H60.5238C61.3264 58.646 61.9284 58.4733 62.3298 58.128C62.7404 57.7827 62.9458 57.302 62.9458 56.686C62.9458 56.0607 62.7404 55.58 62.3298 55.244C61.9284 54.908 61.3264 54.74 60.5238 54.74H57.5838L58.3958 53.844V59.514ZM70.5171 63V55.524H72.2671V63H70.5171ZM71.3991 54.292C71.0725 54.292 70.8018 54.1893 70.5871 53.984C70.3818 53.7787 70.2791 53.5313 70.2791 53.242C70.2791 52.9433 70.3818 52.696 70.5871 52.5C70.8018 52.2947 71.0725 52.192 71.3991 52.192C71.7258 52.192 71.9918 52.29 72.1971 52.486C72.4118 52.6727 72.5191 52.9107 72.5191 53.2C72.5191 53.508 72.4165 53.7693 72.2111 53.984C72.0058 54.1893 71.7351 54.292 71.3991 54.292ZM78.806 55.44C79.4033 55.44 79.9353 55.5567 80.402 55.79C80.878 56.0233 81.2513 56.3827 81.522 56.868C81.7927 57.344 81.928 57.96 81.928 58.716V63H80.178V58.94C80.178 58.2773 80.0193 57.7827 79.702 57.456C79.394 57.1293 78.96 56.966 78.4 56.966C77.9893 56.966 77.6253 57.05 77.308 57.218C76.9907 57.386 76.7433 57.638 76.566 57.974C76.398 58.3007 76.314 58.716 76.314 59.22V63H74.564V55.524H76.23V57.54L75.936 56.924C76.1973 56.448 76.5753 56.084 77.07 55.832C77.574 55.5707 78.1527 55.44 78.806 55.44ZM86.458 63.098C85.8327 63.098 85.2307 63.0187 84.652 62.86C84.0827 62.692 83.63 62.4913 83.294 62.258L83.966 60.928C84.302 61.1427 84.7033 61.32 85.17 61.46C85.6367 61.6 86.1033 61.67 86.57 61.67C87.1207 61.67 87.5173 61.5953 87.76 61.446C88.012 61.2967 88.138 61.096 88.138 60.844C88.138 60.6387 88.054 60.4847 87.886 60.382C87.718 60.27 87.4987 60.186 87.228 60.13C86.9573 60.074 86.654 60.0227 86.318 59.976C85.9913 59.9293 85.66 59.8687 85.324 59.794C84.9973 59.71 84.6987 59.5933 84.428 59.444C84.1573 59.2853 83.938 59.0753 83.77 58.814C83.602 58.5527 83.518 58.2073 83.518 57.778C83.518 57.302 83.6533 56.8913 83.924 56.546C84.1947 56.1913 84.5727 55.9207 85.058 55.734C85.5527 55.538 86.136 55.44 86.808 55.44C87.312 55.44 87.8207 55.496 88.334 55.608C88.8473 55.72 89.272 55.8787 89.608 56.084L88.936 57.414C88.5813 57.1993 88.222 57.0547 87.858 56.98C87.5033 56.896 87.1487 56.854 86.794 56.854C86.262 56.854 85.8653 56.9333 85.604 57.092C85.352 57.2507 85.226 57.4513 85.226 57.694C85.226 57.918 85.31 58.086 85.478 58.198C85.646 58.31 85.8653 58.3987 86.136 58.464C86.4067 58.5293 86.7053 58.5853 87.032 58.632C87.368 58.6693 87.6993 58.73 88.026 58.814C88.3527 58.898 88.6513 59.0147 88.922 59.164C89.202 59.304 89.426 59.5047 89.594 59.766C89.762 60.0273 89.846 60.368 89.846 60.788C89.846 61.2547 89.706 61.6607 89.426 62.006C89.1553 62.3513 88.768 62.622 88.264 62.818C87.76 63.0047 87.158 63.098 86.458 63.098ZM91.3531 63V55.524H93.1031V63H91.3531ZM92.2351 54.292C91.9084 54.292 91.6377 54.1893 91.4231 53.984C91.2177 53.7787 91.1151 53.5313 91.1151 53.242C91.1151 52.9433 91.2177 52.696 91.4231 52.5C91.6377 52.2947 91.9084 52.192 92.2351 52.192C92.5617 52.192 92.8277 52.29 93.0331 52.486C93.2477 52.6727 93.3551 52.9107 93.3551 53.2C93.3551 53.508 93.2524 53.7693 93.0471 53.984C92.8417 54.1893 92.5711 54.292 92.2351 54.292ZM98.564 63.098C97.8453 63.098 97.1966 62.9393 96.618 62.622C96.0486 62.2953 95.6006 61.8473 95.274 61.278C94.9473 60.7087 94.784 60.0367 94.784 59.262C94.784 58.4873 94.9473 57.8153 95.274 57.246C95.6006 56.6767 96.0486 56.2333 96.618 55.916C97.1966 55.5987 97.8453 55.44 98.564 55.44C99.1893 55.44 99.7493 55.58 100.244 55.86C100.739 56.1307 101.131 56.546 101.42 57.106C101.709 57.666 101.854 58.3847 101.854 59.262C101.854 60.13 101.714 60.8487 101.434 61.418C101.154 61.978 100.767 62.398 100.272 62.678C99.7773 62.958 99.208 63.098 98.564 63.098ZM98.774 61.6C99.194 61.6 99.5673 61.5067 99.894 61.32C100.23 61.1333 100.496 60.8627 100.692 60.508C100.897 60.1533 101 59.738 101 59.262C101 58.7767 100.897 58.3613 100.692 58.016C100.496 57.6613 100.23 57.3907 99.894 57.204C99.5673 57.0173 99.194 56.924 98.774 56.924C98.354 56.924 97.976 57.0173 97.64 57.204C97.3133 57.3907 97.0473 57.6613 96.842 58.016C96.646 58.3613 96.548 58.7767 96.548 59.262C96.548 59.738 96.646 60.1533 96.842 60.508C97.0473 60.8627 97.3133 61.1333 97.64 61.32C97.976 61.5067 98.354 61.6 98.774 61.6ZM101.042 63V61.236L101.112 59.248L100.972 57.26V52.612H102.708V63H101.042ZM108.525 63.098C107.695 63.098 106.967 62.9347 106.341 62.608C105.725 62.272 105.245 61.8147 104.899 61.236C104.563 60.6573 104.395 59.9993 104.395 59.262C104.395 58.5153 104.559 57.8573 104.885 57.288C105.221 56.7093 105.679 56.2567 106.257 55.93C106.845 55.6033 107.513 55.44 108.259 55.44C108.987 55.44 109.636 55.5987 110.205 55.916C110.775 56.2333 111.223 56.6813 111.549 57.26C111.876 57.8387 112.039 58.52 112.039 59.304C112.039 59.3787 112.035 59.4627 112.025 59.556C112.025 59.6493 112.021 59.738 112.011 59.822H105.781V58.66H111.087L110.401 59.024C110.411 58.5947 110.322 58.2167 110.135 57.89C109.949 57.5633 109.692 57.3067 109.365 57.12C109.048 56.9333 108.679 56.84 108.259 56.84C107.83 56.84 107.452 56.9333 107.125 57.12C106.808 57.3067 106.556 57.568 106.369 57.904C106.192 58.2307 106.103 58.618 106.103 59.066V59.346C106.103 59.794 106.206 60.1907 106.411 60.536C106.617 60.8813 106.906 61.1473 107.279 61.334C107.653 61.5207 108.082 61.614 108.567 61.614C108.987 61.614 109.365 61.5487 109.701 61.418C110.037 61.2873 110.336 61.082 110.597 60.802L111.535 61.88C111.199 62.272 110.775 62.5753 110.261 62.79C109.757 62.9953 109.179 63.098 108.525 63.098ZM120.403 63.098C119.582 63.098 118.947 62.888 118.499 62.468C118.051 62.0387 117.827 61.4087 117.827 60.578V53.872H119.577V60.536C119.577 60.8907 119.666 61.166 119.843 61.362C120.03 61.558 120.287 61.656 120.613 61.656C121.005 61.656 121.332 61.5533 121.593 61.348L122.083 62.594C121.878 62.762 121.626 62.888 121.327 62.972C121.029 63.056 120.721 63.098 120.403 63.098ZM116.595 56.98V55.58H121.579V56.98H116.595ZM127.765 55.44C128.362 55.44 128.894 55.5567 129.361 55.79C129.837 56.0233 130.21 56.3827 130.481 56.868C130.752 57.344 130.887 57.96 130.887 58.716V63H129.137V58.94C129.137 58.2773 128.978 57.7827 128.661 57.456C128.353 57.1293 127.919 56.966 127.359 56.966C126.948 56.966 126.584 57.05 126.267 57.218C125.95 57.386 125.702 57.638 125.525 57.974C125.357 58.3007 125.273 58.716 125.273 59.22V63H123.523V52.612H125.273V57.54L124.895 56.924C125.156 56.448 125.534 56.084 126.029 55.832C126.533 55.5707 127.112 55.44 127.765 55.44ZM136.635 63.098C135.804 63.098 135.076 62.9347 134.451 62.608C133.835 62.272 133.354 61.8147 133.009 61.236C132.673 60.6573 132.505 59.9993 132.505 59.262C132.505 58.5153 132.668 57.8573 132.995 57.288C133.331 56.7093 133.788 56.2567 134.367 55.93C134.955 55.6033 135.622 55.44 136.369 55.44C137.097 55.44 137.745 55.5987 138.315 55.916C138.884 56.2333 139.332 56.6813 139.659 57.26C139.985 57.8387 140.149 58.52 140.149 59.304C140.149 59.3787 140.144 59.4627 140.135 59.556C140.135 59.6493 140.13 59.738 140.121 59.822H133.891V58.66H139.197L138.511 59.024C138.52 58.5947 138.431 58.2167 138.245 57.89C138.058 57.5633 137.801 57.3067 137.475 57.12C137.157 56.9333 136.789 56.84 136.369 56.84C135.939 56.84 135.561 56.9333 135.235 57.12C134.917 57.3067 134.665 57.568 134.479 57.904C134.301 58.2307 134.213 58.618 134.213 59.066V59.346C134.213 59.794 134.315 60.1907 134.521 60.536C134.726 60.8813 135.015 61.1473 135.389 61.334C135.762 61.5207 136.191 61.614 136.677 61.614C137.097 61.614 137.475 61.5487 137.811 61.418C138.147 61.2873 138.445 61.082 138.707 60.802L139.645 61.88C139.309 62.272 138.884 62.5753 138.371 62.79C137.867 62.9953 137.288 63.098 136.635 63.098ZM145.937 63V55.104C145.937 54.32 146.165 53.6947 146.623 53.228C147.089 52.752 147.752 52.514 148.611 52.514C148.919 52.514 149.208 52.5467 149.479 52.612C149.759 52.6773 149.992 52.78 150.179 52.92L149.703 54.236C149.572 54.1333 149.423 54.0587 149.255 54.012C149.087 53.956 148.914 53.928 148.737 53.928C148.373 53.928 148.097 54.0307 147.911 54.236C147.724 54.432 147.631 54.7307 147.631 55.132V55.972L147.687 56.756V63H145.937ZM144.705 56.98V55.58H149.689V56.98H144.705ZM150.88 63V55.524H152.546V57.582L152.35 56.98C152.574 56.476 152.924 56.0933 153.4 55.832C153.886 55.5707 154.488 55.44 155.206 55.44V57.106C155.132 57.0873 155.062 57.078 154.996 57.078C154.931 57.0687 154.866 57.064 154.8 57.064C154.138 57.064 153.61 57.26 153.218 57.652C152.826 58.0347 152.63 58.6087 152.63 59.374V63H150.88ZM160.764 63V61.488L160.666 61.166V58.52C160.666 58.0067 160.512 57.61 160.204 57.33C159.896 57.0407 159.429 56.896 158.804 56.896C158.384 56.896 157.968 56.9613 157.558 57.092C157.156 57.2227 156.816 57.4047 156.536 57.638L155.85 56.364C156.251 56.056 156.727 55.8273 157.278 55.678C157.838 55.5193 158.416 55.44 159.014 55.44C160.096 55.44 160.932 55.7013 161.52 56.224C162.117 56.7373 162.416 57.5353 162.416 58.618V63H160.764ZM158.412 63.098C157.852 63.098 157.362 63.0047 156.942 62.818C156.522 62.622 156.195 62.356 155.962 62.02C155.738 61.6747 155.626 61.2873 155.626 60.858C155.626 60.438 155.724 60.06 155.92 59.724C156.125 59.388 156.456 59.122 156.914 58.926C157.371 58.73 157.978 58.632 158.734 58.632H160.904V59.794H158.86C158.262 59.794 157.861 59.892 157.656 60.088C157.45 60.2747 157.348 60.508 157.348 60.788C157.348 61.1053 157.474 61.3573 157.726 61.544C157.978 61.7307 158.328 61.824 158.776 61.824C159.205 61.824 159.588 61.726 159.924 61.53C160.269 61.334 160.516 61.0447 160.666 60.662L160.96 61.712C160.792 62.1507 160.488 62.4913 160.05 62.734C159.62 62.9767 159.074 63.098 158.412 63.098ZM174.098 55.44C174.695 55.44 175.222 55.5567 175.68 55.79C176.146 56.0233 176.51 56.3827 176.772 56.868C177.033 57.344 177.164 57.96 177.164 58.716V63H175.414V58.94C175.414 58.2773 175.269 57.7827 174.98 57.456C174.69 57.1293 174.275 56.966 173.734 56.966C173.351 56.966 173.01 57.05 172.712 57.218C172.422 57.386 172.194 57.6333 172.026 57.96C171.867 58.2867 171.788 58.702 171.788 59.206V63H170.038V58.94C170.038 58.2773 169.893 57.7827 169.604 57.456C169.314 57.1293 168.899 56.966 168.358 56.966C167.975 56.966 167.634 57.05 167.336 57.218C167.046 57.386 166.818 57.6333 166.65 57.96C166.491 58.2867 166.412 58.702 166.412 59.206V63H164.662V55.524H166.328V57.512L166.034 56.924C166.286 56.4387 166.65 56.07 167.126 55.818C167.611 55.566 168.162 55.44 168.778 55.44C169.478 55.44 170.084 55.6127 170.598 55.958C171.12 56.3033 171.466 56.826 171.634 57.526L170.948 57.288C171.19 56.728 171.592 56.28 172.152 55.944C172.712 55.608 173.36 55.44 174.098 55.44ZM182.928 63.098C182.097 63.098 181.369 62.9347 180.744 62.608C180.128 62.272 179.647 61.8147 179.302 61.236C178.966 60.6573 178.798 59.9993 178.798 59.262C178.798 58.5153 178.961 57.8573 179.288 57.288C179.624 56.7093 180.081 56.2567 180.66 55.93C181.248 55.6033 181.915 55.44 182.662 55.44C183.39 55.44 184.038 55.5987 184.608 55.916C185.177 56.2333 185.625 56.6813 185.952 57.26C186.278 57.8387 186.442 58.52 186.442 59.304C186.442 59.3787 186.437 59.4627 186.428 59.556C186.428 59.6493 186.423 59.738 186.414 59.822H180.184V58.66H185.49L184.804 59.024C184.813 58.5947 184.724 58.2167 184.538 57.89C184.351 57.5633 184.094 57.3067 183.768 57.12C183.45 56.9333 183.082 56.84 182.662 56.84C182.232 56.84 181.854 56.9333 181.528 57.12C181.21 57.3067 180.958 57.568 180.772 57.904C180.594 58.2307 180.506 58.618 180.506 59.066V59.346C180.506 59.794 180.608 60.1907 180.814 60.536C181.019 60.8813 181.308 61.1473 181.682 61.334C182.055 61.5207 182.484 61.614 182.97 61.614C183.39 61.614 183.768 61.5487 184.104 61.418C184.44 61.2873 184.738 61.082 185 60.802L185.938 61.88C185.602 62.272 185.177 62.5753 184.664 62.79C184.16 62.9953 183.581 63.098 182.928 63.098ZM194.806 63.098C193.984 63.098 193.35 62.888 192.902 62.468C192.454 62.0387 192.23 61.4087 192.23 60.578V53.872H193.98V60.536C193.98 60.8907 194.068 61.166 194.246 61.362C194.432 61.558 194.689 61.656 195.016 61.656C195.408 61.656 195.734 61.5533 195.996 61.348L196.486 62.594C196.28 62.762 196.028 62.888 195.73 62.972C195.431 63.056 195.123 63.098 194.806 63.098ZM190.998 56.98V55.58H195.982V56.98H190.998ZM201.039 63.098C200.274 63.098 199.593 62.9347 198.995 62.608C198.398 62.272 197.927 61.8147 197.581 61.236C197.236 60.6573 197.063 59.9993 197.063 59.262C197.063 58.5153 197.236 57.8573 197.581 57.288C197.927 56.7093 198.398 56.2567 198.995 55.93C199.593 55.6033 200.274 55.44 201.039 55.44C201.814 55.44 202.5 55.6033 203.097 55.93C203.704 56.2567 204.175 56.7047 204.511 57.274C204.857 57.8433 205.029 58.506 205.029 59.262C205.029 59.9993 204.857 60.6573 204.511 61.236C204.175 61.8147 203.704 62.272 203.097 62.608C202.5 62.9347 201.814 63.098 201.039 63.098ZM201.039 61.6C201.469 61.6 201.851 61.5067 202.187 61.32C202.523 61.1333 202.785 60.8627 202.971 60.508C203.167 60.1533 203.265 59.738 203.265 59.262C203.265 58.7767 203.167 58.3613 202.971 58.016C202.785 57.6613 202.523 57.3907 202.187 57.204C201.851 57.0173 201.473 56.924 201.053 56.924C200.624 56.924 200.241 57.0173 199.905 57.204C199.579 57.3907 199.317 57.6613 199.121 58.016C198.925 58.3613 198.827 58.7767 198.827 59.262C198.827 59.738 198.925 60.1533 199.121 60.508C199.317 60.8627 199.579 61.1333 199.905 61.32C200.241 61.5067 200.619 61.6 201.039 61.6ZM212.882 63.098C212.256 63.098 211.654 63.0187 211.076 62.86C210.506 62.692 210.054 62.4913 209.718 62.258L210.39 60.928C210.726 61.1427 211.127 61.32 211.594 61.46C212.06 61.6 212.527 61.67 212.994 61.67C213.544 61.67 213.941 61.5953 214.184 61.446C214.436 61.2967 214.562 61.096 214.562 60.844C214.562 60.6387 214.478 60.4847 214.31 60.382C214.142 60.27 213.922 60.186 213.652 60.13C213.381 60.074 213.078 60.0227 212.742 59.976C212.415 59.9293 212.084 59.8687 211.748 59.794C211.421 59.71 211.122 59.5933 210.852 59.444C210.581 59.2853 210.362 59.0753 210.194 58.814C210.026 58.5527 209.942 58.2073 209.942 57.778C209.942 57.302 210.077 56.8913 210.348 56.546C210.618 56.1913 210.996 55.9207 211.482 55.734C211.976 55.538 212.56 55.44 213.232 55.44C213.736 55.44 214.244 55.496 214.758 55.608C215.271 55.72 215.696 55.8787 216.032 56.084L215.36 57.414C215.005 57.1993 214.646 57.0547 214.282 56.98C213.927 56.896 213.572 56.854 213.218 56.854C212.686 56.854 212.289 56.9333 212.028 57.092C211.776 57.2507 211.65 57.4513 211.65 57.694C211.65 57.918 211.734 58.086 211.902 58.198C212.07 58.31 212.289 58.3987 212.56 58.464C212.83 58.5293 213.129 58.5853 213.456 58.632C213.792 58.6693 214.123 58.73 214.45 58.814C214.776 58.898 215.075 59.0147 215.346 59.164C215.626 59.304 215.85 59.5047 216.018 59.766C216.186 60.0273 216.27 60.368 216.27 60.788C216.27 61.2547 216.13 61.6607 215.85 62.006C215.579 62.3513 215.192 62.622 214.688 62.818C214.184 63.0047 213.582 63.098 212.882 63.098ZM221.207 63.098C220.423 63.098 219.723 62.9347 219.107 62.608C218.5 62.272 218.024 61.8147 217.679 61.236C217.334 60.6573 217.161 59.9993 217.161 59.262C217.161 58.5153 217.334 57.8573 217.679 57.288C218.024 56.7093 218.5 56.2567 219.107 55.93C219.723 55.6033 220.423 55.44 221.207 55.44C221.935 55.44 222.574 55.5893 223.125 55.888C223.685 56.1773 224.11 56.6067 224.399 57.176L223.055 57.96C222.831 57.6053 222.556 57.344 222.229 57.176C221.912 57.008 221.566 56.924 221.193 56.924C220.764 56.924 220.376 57.0173 220.031 57.204C219.686 57.3907 219.415 57.6613 219.219 58.016C219.023 58.3613 218.925 58.7767 218.925 59.262C218.925 59.7473 219.023 60.1673 219.219 60.522C219.415 60.8673 219.686 61.1333 220.031 61.32C220.376 61.5067 220.764 61.6 221.193 61.6C221.566 61.6 221.912 61.516 222.229 61.348C222.556 61.18 222.831 60.9187 223.055 60.564L224.399 61.348C224.11 61.908 223.685 62.342 223.125 62.65C222.574 62.9487 221.935 63.098 221.207 63.098ZM230.518 63V61.488L230.42 61.166V58.52C230.42 58.0067 230.266 57.61 229.958 57.33C229.65 57.0407 229.183 56.896 228.558 56.896C228.138 56.896 227.722 56.9613 227.312 57.092C226.91 57.2227 226.57 57.4047 226.29 57.638L225.604 56.364C226.005 56.056 226.481 55.8273 227.032 55.678C227.592 55.5193 228.17 55.44 228.768 55.44C229.85 55.44 230.686 55.7013 231.274 56.224C231.871 56.7373 232.17 57.5353 232.17 58.618V63H230.518ZM228.166 63.098C227.606 63.098 227.116 63.0047 226.696 62.818C226.276 62.622 225.949 62.356 225.716 62.02C225.492 61.6747 225.38 61.2873 225.38 60.858C225.38 60.438 225.478 60.06 225.674 59.724C225.879 59.388 226.21 59.122 226.668 58.926C227.125 58.73 227.732 58.632 228.488 58.632H230.658V59.794H228.614C228.016 59.794 227.615 59.892 227.41 60.088C227.204 60.2747 227.102 60.508 227.102 60.788C227.102 61.1053 227.228 61.3573 227.48 61.544C227.732 61.7307 228.082 61.824 228.53 61.824C228.959 61.824 229.342 61.726 229.678 61.53C230.023 61.334 230.27 61.0447 230.42 60.662L230.714 61.712C230.546 62.1507 230.242 62.4913 229.804 62.734C229.374 62.9767 228.828 63.098 228.166 63.098ZM238.658 55.44C239.255 55.44 239.787 55.5567 240.254 55.79C240.73 56.0233 241.103 56.3827 241.374 56.868C241.644 57.344 241.78 57.96 241.78 58.716V63H240.03V58.94C240.03 58.2773 239.871 57.7827 239.554 57.456C239.246 57.1293 238.812 56.966 238.252 56.966C237.841 56.966 237.477 57.05 237.16 57.218C236.842 57.386 236.595 57.638 236.418 57.974C236.25 58.3007 236.166 58.716 236.166 59.22V63H234.416V55.524H236.082V57.54L235.788 56.924C236.049 56.448 236.427 56.084 236.922 55.832C237.426 55.5707 238.004 55.44 238.658 55.44Z" fill="#E9E9E9"/>
</svg>
