<svg width="132" height="34" viewBox="0 0 132 34" fill="none" xmlns="http://www.w3.org/2000/svg">
<rect x="1.40259" y="1.40259" width="129" height="31" rx="15.5" fill="#401A79" stroke="url(#paint0_linear_643_6624)" stroke-width="2.80529"/>
<path d="M32.3624 2.79578H51.1812L31.7553 31.0092H12.9365L32.3624 2.79578Z" fill="#894697" fill-opacity="0.49"/>
<path d="M26.0841 21.9886C25.1875 21.9886 24.3814 21.789 23.6656 21.3897C22.9574 20.9904 22.3999 20.4291 21.993 19.7058C21.5937 18.975 21.3941 18.1424 21.3941 17.2082C21.3941 16.3116 21.6088 15.5055 22.0382 14.7897C22.4677 14.0664 23.0516 13.5014 23.7899 13.0945C24.5283 12.6801 25.3495 12.4729 26.2536 12.4729C26.8865 12.4729 27.5307 12.6086 28.1862 12.8798C28.8416 13.151 29.3464 13.5051 29.7005 13.9421C29.7457 14.0024 29.7834 14.074 29.8135 14.1568C29.8437 14.2322 29.8587 14.3037 29.8587 14.3716C29.8587 14.5599 29.7947 14.7219 29.6666 14.8575C29.5385 14.9856 29.3766 15.0496 29.1807 15.0496C29.0978 15.0496 29.0036 15.027 28.8981 14.9818C28.8002 14.9366 28.7248 14.8801 28.6721 14.8123C28.4461 14.5411 28.0882 14.3113 27.5985 14.1229C27.1088 13.927 26.6605 13.8291 26.2536 13.8291C25.6132 13.8291 25.0331 13.9722 24.5132 14.2585C23.9934 14.5448 23.5865 14.9442 23.2927 15.4565C22.9988 15.9688 22.8519 16.5527 22.8519 17.2082C22.8519 17.8938 22.9875 18.489 23.2588 18.9938C23.53 19.4986 23.9067 19.8828 24.3889 20.1465C24.8786 20.4102 25.4437 20.5421 26.0841 20.5421C26.6266 20.5421 27.105 20.4743 27.5194 20.3386C27.9413 20.1955 28.2653 20.0034 28.4913 19.7623C28.7248 19.5137 28.8416 19.2387 28.8416 18.9373C28.8416 18.5907 28.7211 18.3119 28.48 18.101C28.2464 17.8825 27.9262 17.7732 27.5194 17.7732C27.1803 17.7732 26.8149 17.7959 26.4231 17.8411C26.3855 17.8486 26.3177 17.8524 26.2197 17.8524C26.0088 17.8524 25.8392 17.7959 25.7112 17.6828C25.5831 17.5698 25.519 17.4154 25.519 17.2195C25.519 16.8202 25.794 16.5753 26.344 16.4849C26.4495 16.4698 26.619 16.4548 26.8526 16.4397C27.0937 16.4246 27.3084 16.4171 27.4968 16.4171C28.0392 16.4171 28.5139 16.5263 28.9207 16.7448C29.3276 16.9558 29.6403 17.2534 29.8587 17.6376C30.0848 18.0143 30.1978 18.4476 30.1978 18.9373C30.1978 19.5024 30.0207 20.0184 29.6666 20.4856C29.3125 20.9527 28.819 21.3219 28.1862 21.5931C27.5608 21.8568 26.8601 21.9886 26.0841 21.9886ZM38.9876 19.4458C39.1759 19.4458 39.3341 19.5137 39.4622 19.6493C39.5978 19.7773 39.6656 19.9356 39.6656 20.1239C39.6656 20.3047 39.6016 20.4667 39.4735 20.6099C39.1269 20.9791 38.641 21.2842 38.0156 21.5253C37.3903 21.7588 36.7687 21.8756 36.1509 21.8756C35.2544 21.8756 34.4444 21.6797 33.7211 21.288C32.9979 20.8962 32.429 20.3462 32.0146 19.638C31.6003 18.9298 31.3931 18.1161 31.3931 17.1969C31.3931 16.2852 31.6003 15.4715 32.0146 14.7558C32.429 14.04 32.9979 13.4863 33.7211 13.0945C34.4444 12.6952 35.2544 12.4955 36.1509 12.4955C36.7687 12.4955 37.3865 12.6199 38.0043 12.8685C38.6221 13.1171 39.1081 13.4448 39.4622 13.8517C39.5903 14.0024 39.6543 14.1644 39.6543 14.3377C39.6543 14.526 39.5865 14.688 39.4509 14.8236C39.3153 14.9517 39.1533 15.0157 38.965 15.0157C38.8745 15.0157 38.7841 14.9969 38.6937 14.9592C38.6033 14.9216 38.5317 14.8688 38.479 14.801C38.2605 14.5373 37.9365 14.3301 37.5071 14.1794C37.0776 14.0287 36.6256 13.9534 36.1509 13.9534C35.3146 13.9534 34.6102 14.1644 34.0376 14.5863C33.4725 15.0007 33.1071 15.5846 32.9414 16.338H36.4674C36.6557 16.338 36.8139 16.4058 36.942 16.5414C37.0776 16.6695 37.1454 16.8277 37.1454 17.0161C37.1454 17.2044 37.0776 17.3664 36.942 17.502C36.8139 17.6301 36.6557 17.6941 36.4674 17.6941H32.8848C32.9828 18.5455 33.3256 19.2161 33.9133 19.7058C34.5085 20.188 35.2544 20.4291 36.1509 20.4291C36.6708 20.4291 37.1454 20.3612 37.5749 20.2256C38.0043 20.09 38.3057 19.913 38.479 19.6945C38.5393 19.6191 38.6146 19.5589 38.705 19.5137C38.803 19.4684 38.8971 19.4458 38.9876 19.4458ZM47.338 12.6764C47.5263 12.6764 47.6846 12.7442 47.8126 12.8798C47.9483 13.0079 48.0161 13.1661 48.0161 13.3544C48.0161 13.5428 47.9483 13.7048 47.8126 13.8404C47.6846 13.9685 47.5263 14.0325 47.338 14.0325H45.0438V21.1975C45.0438 21.3859 44.9685 21.5479 44.8178 21.6835C44.6746 21.8116 44.5051 21.8756 44.3092 21.8756C44.1133 21.8756 43.9438 21.8116 43.8007 21.6835C43.6575 21.5479 43.586 21.3859 43.586 21.1975V14.0325H41.2805C41.0921 14.0325 40.9301 13.9685 40.7945 13.8404C40.6664 13.7048 40.6024 13.5428 40.6024 13.3544C40.6024 13.1661 40.6664 13.0079 40.7945 12.8798C40.9301 12.7442 41.0921 12.6764 41.2805 12.6764H47.338ZM55.7973 21.9321C55.2096 21.9321 54.6521 21.789 54.1247 21.5027C53.5973 21.2088 53.1829 20.8171 52.8815 20.3273C52.8213 20.2219 52.7911 20.0976 52.7911 19.9544C52.7911 19.7208 52.8476 19.5363 52.9607 19.4006C53.0812 19.265 53.2394 19.1972 53.4353 19.1972C53.6011 19.1972 53.7442 19.2311 53.8648 19.2989C53.9853 19.3667 54.0908 19.476 54.1812 19.6267C54.3243 19.8678 54.5466 20.0674 54.848 20.2256C55.1569 20.3763 55.4733 20.4517 55.7973 20.4517C56.8822 20.4517 57.4247 20.075 57.4247 19.3215C57.4247 18.9976 57.2891 18.7037 57.0178 18.44C56.7541 18.1763 56.3322 17.9089 55.7521 17.6376C55.0665 17.3212 54.5315 17.0349 54.1473 16.7787C53.7706 16.515 53.4993 16.2363 53.3336 15.9424C53.1678 15.6411 53.085 15.287 53.085 14.8801C53.085 14.413 53.2093 13.9986 53.4579 13.637C53.7065 13.2678 54.0493 12.9815 54.4863 12.7781C54.9233 12.5671 55.413 12.4616 55.9555 12.4616C56.5582 12.4616 57.112 12.5972 57.6168 12.8685C58.1216 13.1322 58.5058 13.4938 58.7695 13.9534C58.8449 14.074 58.8825 14.1983 58.8825 14.3263C58.8825 14.5072 58.8223 14.6654 58.7017 14.801C58.5887 14.9366 58.4456 15.0044 58.2723 15.0044C58.1442 15.0044 58.0123 14.9705 57.8767 14.9027C57.7411 14.8274 57.6356 14.737 57.5603 14.6315C57.387 14.3904 57.1685 14.2133 56.9048 14.1003C56.6486 13.9873 56.3322 13.9308 55.9555 13.9308C55.511 13.9308 55.1606 14.0137 54.9045 14.1794C54.6558 14.3377 54.5315 14.5712 54.5315 14.8801C54.5315 15.0685 54.5767 15.2267 54.6672 15.3548C54.7651 15.4753 54.9271 15.5996 55.1531 15.7277C55.3867 15.8558 55.7671 16.0404 56.2945 16.2815C57.2137 16.7109 57.873 17.1592 58.2723 17.6263C58.6791 18.0935 58.8825 18.6585 58.8825 19.3215C58.8825 19.8414 58.7545 20.301 58.4983 20.7003C58.2421 21.0921 57.8805 21.3972 57.4134 21.6157C56.9462 21.8267 56.4076 21.9321 55.7973 21.9321ZM66.6186 12.6764C66.807 12.6764 66.9652 12.7442 67.0933 12.8798C67.2289 13.0079 67.2967 13.1661 67.2967 13.3544C67.2967 13.5428 67.2289 13.7048 67.0933 13.8404C66.9652 13.9685 66.807 14.0325 66.6186 14.0325H64.3245V21.1975C64.3245 21.3859 64.2491 21.5479 64.0985 21.6835C63.9553 21.8116 63.7858 21.8756 63.5899 21.8756C63.394 21.8756 63.2245 21.8116 63.0813 21.6835C62.9382 21.5479 62.8666 21.3859 62.8666 21.1975V14.0325H60.5611C60.3728 14.0325 60.2108 13.9685 60.0752 13.8404C59.9471 13.7048 59.8831 13.5428 59.8831 13.3544C59.8831 13.1661 59.9471 13.0079 60.0752 12.8798C60.2108 12.7442 60.3728 12.6764 60.5611 12.6764H66.6186ZM75.0699 20.8698C75.1076 20.9602 75.1264 21.0318 75.1264 21.0845C75.1264 21.2804 75.0586 21.4499 74.923 21.5931C74.7949 21.7287 74.6329 21.7965 74.437 21.7965C74.3014 21.7965 74.1733 21.7588 74.0528 21.6835C73.9398 21.6082 73.8569 21.5064 73.8042 21.3784L72.9227 19.0955H69.4758L68.6056 21.3897C68.5603 21.5102 68.4775 21.6082 68.3569 21.6835C68.2439 21.7588 68.1158 21.7965 67.9727 21.7965C67.7768 21.7965 67.6148 21.7287 67.4867 21.5931C67.3586 21.4575 67.2946 21.2955 67.2946 21.1071C67.2946 21.0469 67.3134 20.9715 67.3511 20.8811L70.6172 12.9476C70.6775 12.8044 70.7566 12.6952 70.8545 12.6199C70.96 12.5445 71.0692 12.5068 71.1822 12.5068C71.3103 12.5068 71.4309 12.5445 71.5439 12.6199C71.6569 12.6952 71.7435 12.8082 71.8038 12.9589L75.0699 20.8698ZM71.1031 14.8462L69.9617 17.8411H72.4367L71.284 14.8462L71.1936 14.5298L71.1031 14.8462ZM82.5568 20.689C82.6321 20.7493 82.7112 20.8434 82.7941 20.9715C82.8845 21.0996 82.9297 21.2201 82.9297 21.3332C82.9297 21.5215 82.8657 21.6722 82.7376 21.7852C82.6095 21.8982 82.4475 21.9547 82.2516 21.9547C82.0633 21.9547 81.9239 21.9246 81.8335 21.8643C81.5321 21.6986 81.3136 21.4763 81.178 21.1975C81.0424 20.9112 80.9444 20.5006 80.8842 19.9657C80.8616 19.7397 80.839 19.476 80.8164 19.1746C80.7937 18.8657 80.7749 18.6133 80.7598 18.4174C80.7448 18.0633 80.5489 17.7959 80.1722 17.615C79.803 17.4342 79.3509 17.3438 78.816 17.3438H78.0701V21.1975C78.0701 21.3859 78.0023 21.5479 77.8667 21.6835C77.7386 21.8116 77.5804 21.8756 77.3921 21.8756C77.2037 21.8756 77.0417 21.8116 76.9061 21.6835C76.778 21.5479 76.714 21.3859 76.714 21.1975V13.2527C76.714 13.0418 76.778 12.8722 76.9061 12.7442C77.0342 12.6161 77.1999 12.5445 77.4034 12.5294C77.6595 12.5219 78.0174 12.5181 78.477 12.5181C78.9366 12.5106 79.317 12.5068 79.6184 12.5068C80.1835 12.5068 80.6845 12.6086 81.1215 12.812C81.566 13.0154 81.9088 13.3017 82.1499 13.6709C82.3985 14.04 82.5229 14.462 82.5229 14.9366C82.5229 15.901 82.0407 16.5452 81.0763 16.8691C81.7167 17.1404 82.0633 17.6188 82.116 18.3044L82.1612 18.8243C82.1763 19.0654 82.2026 19.4006 82.2403 19.8301C82.2855 20.2821 82.391 20.5684 82.5568 20.689ZM78.0701 16.0894H79.6071C80.1496 16.0894 80.5451 16.0027 80.7937 15.8294C81.0424 15.6561 81.1667 15.3585 81.1667 14.9366C81.1667 14.5976 81.0311 14.3339 80.7598 14.1455C80.4886 13.9572 80.1081 13.863 79.6184 13.863H78.0701V16.0894ZM90.6339 12.6764C90.8223 12.6764 90.9805 12.7442 91.1086 12.8798C91.2442 13.0079 91.312 13.1661 91.312 13.3544C91.312 13.5428 91.2442 13.7048 91.1086 13.8404C90.9805 13.9685 90.8223 14.0325 90.6339 14.0325H88.3398V21.1975C88.3398 21.3859 88.2644 21.5479 88.1137 21.6835C87.9706 21.8116 87.8011 21.8756 87.6052 21.8756C87.4093 21.8756 87.2398 21.8116 87.0966 21.6835C86.9535 21.5479 86.8819 21.3859 86.8819 21.1975V14.0325H84.5764C84.3881 14.0325 84.2261 13.9685 84.0905 13.8404C83.9624 13.7048 83.8983 13.5428 83.8983 13.3544C83.8983 13.1661 83.9624 13.0079 84.0905 12.8798C84.2261 12.7442 84.3881 12.6764 84.5764 12.6764H90.6339ZM99.9859 19.4458C100.174 19.4458 100.333 19.5137 100.461 19.6493C100.596 19.7773 100.664 19.9356 100.664 20.1239C100.664 20.3047 100.6 20.4667 100.472 20.6099C100.125 20.9791 99.6394 21.2842 99.014 21.5253C98.3887 21.7588 97.7671 21.8756 97.1493 21.8756C96.2527 21.8756 95.4428 21.6797 94.7195 21.288C93.9962 20.8962 93.4274 20.3462 93.013 19.638C92.5986 18.9298 92.3915 18.1161 92.3915 17.1969C92.3915 16.2852 92.5986 15.4715 93.013 14.7558C93.4274 14.04 93.9962 13.4863 94.7195 13.0945C95.4428 12.6952 96.2527 12.4955 97.1493 12.4955C97.7671 12.4955 98.3849 12.6199 99.0027 12.8685C99.6205 13.1171 100.106 13.4448 100.461 13.8517C100.589 14.0024 100.653 14.1644 100.653 14.3377C100.653 14.526 100.585 14.688 100.449 14.8236C100.314 14.9517 100.152 15.0157 99.9633 15.0157C99.8729 15.0157 99.7825 14.9969 99.6921 14.9592C99.6017 14.9216 99.5301 14.8688 99.4774 14.801C99.2589 14.5373 98.9349 14.3301 98.5055 14.1794C98.076 14.0287 97.624 13.9534 97.1493 13.9534C96.313 13.9534 95.6086 14.1644 95.036 14.5863C94.4709 15.0007 94.1055 15.5846 93.9397 16.338H97.4657C97.6541 16.338 97.8123 16.4058 97.9404 16.5414C98.076 16.6695 98.1438 16.8277 98.1438 17.0161C98.1438 17.2044 98.076 17.3664 97.9404 17.502C97.8123 17.6301 97.6541 17.6941 97.4657 17.6941H93.8832C93.9812 18.5455 94.324 19.2161 94.9117 19.7058C95.5069 20.188 96.2527 20.4291 97.1493 20.4291C97.6692 20.4291 98.1438 20.3612 98.5733 20.2256C99.0027 20.09 99.3041 19.913 99.4774 19.6945C99.5377 19.6191 99.613 19.5589 99.7034 19.5137C99.8014 19.4684 99.8955 19.4458 99.9859 19.4458ZM102.855 21.8191C102.637 21.8191 102.452 21.7513 102.301 21.6157C102.158 21.4725 102.087 21.2993 102.087 21.0958V13.2979C102.087 13.0945 102.158 12.925 102.301 12.7894C102.452 12.6462 102.637 12.5746 102.855 12.5746H104.731C105.696 12.5746 106.57 12.7668 107.353 13.151C108.137 13.5353 108.751 14.0664 109.195 14.7445C109.647 15.415 109.873 16.176 109.873 17.0274C109.873 17.9089 109.647 18.715 109.195 19.4458C108.743 20.1767 108.125 20.7568 107.342 21.1862C106.558 21.6082 105.688 21.8191 104.731 21.8191H102.855ZM103.545 20.3612H104.731C105.439 20.3612 106.072 20.2256 106.63 19.9544C107.195 19.6756 107.632 19.2839 107.941 18.7791C108.257 18.2743 108.415 17.6904 108.415 17.0274C108.415 16.4322 108.257 15.9085 107.941 15.4565C107.632 15.0044 107.195 14.6541 106.63 14.4055C106.072 14.1568 105.439 14.0325 104.731 14.0325H103.545V20.3612Z" fill="white"/>
<defs>
<linearGradient id="paint0_linear_643_6624" x1="1.40259" y1="16.9026" x2="130.403" y2="16.9026" gradientUnits="userSpaceOnUse">
<stop stop-color="#A315D6"/>
<stop offset="0.514423" stop-color="#FDAB60"/>
<stop offset="1" stop-color="#A315D6"/>
</linearGradient>
</defs>
</svg>
