<svg width="393" height="42" viewBox="0 0 393 46" fill="none" xmlns="http://www.w3.org/2000/svg">
<path d="M-71 27.6351H41.2564" stroke="#FFFCEB" stroke-miterlimit="10" stroke-linecap="round"/>
<path d="M86 27.5017H172" stroke="#FFFCEB" stroke-miterlimit="10" stroke-linecap="round"/>
<path d="M223 27.5017H309" stroke="#FFFCEB" stroke-width="0.75" stroke-miterlimit="10" stroke-linecap="round" stroke-dasharray="3 3"/>
<path d="M354 27.5017H440" stroke="#FFFCEB" stroke-width="0.75" stroke-miterlimit="10" stroke-linecap="round" stroke-dasharray="3 3"/>
<path d="M76.567 14.1267C76.567 14.1267 76.567 14.0995 76.567 14.086C76.567 12.1038 74.9649 10.5018 72.9826 10.5018C71.0003 10.5018 69.3982 12.1038 69.3982 14.086C69.3982 16.0681 71.0003 17.6701 72.9826 17.6701C73.58 17.6701 74.1366 17.5072 74.639 17.2493C75.0056 17.7244 75.5623 18.0231 76.2004 18.0231C77.2866 18.0231 78.1691 17.1406 78.1691 16.0545C78.1691 15.0906 77.4767 14.2896 76.567 14.1131V14.1267Z" fill="#FCFBE2"/>
<path d="M61.021 46.7504C61.021 46.7504 61.021 46.7775 61.0346 46.7911C61.9986 48.5153 64.1845 49.1262 65.9224 48.1623C67.6602 47.1984 68.2577 45.0126 67.2937 43.2749C66.3297 41.5371 64.1438 40.9397 62.4059 41.9037C61.89 42.2023 61.4826 42.6096 61.1703 43.0848C60.6273 42.854 59.9892 42.854 59.4325 43.1662C58.4821 43.6957 58.1426 44.904 58.6857 45.8544C59.1609 46.6961 60.1521 47.0491 61.0346 46.7504H61.021Z" fill="#FCFBE2"/>
<path d="M64.3475 45.773C74.088 45.773 81.9843 37.8773 81.9843 28.1374C81.9843 18.3976 74.088 10.5018 64.3475 10.5018C54.6069 10.5018 46.7107 18.3976 46.7107 28.1374C46.7107 37.8773 54.6069 45.773 64.3475 45.773Z" fill="url(#paint0_linear_1277_2489)"/>
<path d="M54.1782 12.2668C53.4586 12.2668 52.834 12.6741 52.5217 13.2851C52.0873 13.0543 51.5985 12.9185 51.0826 12.9185C49.3718 12.9185 47.987 14.3033 47.987 16.0139C47.987 16.2583 48.0277 16.5027 48.082 16.7334C46.7514 17.0321 45.7603 18.2133 45.7603 19.6252C45.7603 20.2633 45.9639 20.8606 46.317 21.3358C45.5702 21.5259 45 22.164 45 22.965C45 23.9153 45.7739 24.6756 46.7107 24.6756C47.6476 24.6756 48.4214 23.9017 48.4214 22.965C48.4214 22.8156 48.3671 22.6799 48.3399 22.5441C48.4621 22.5577 48.5979 22.5848 48.7201 22.5848C50.363 22.5848 51.68 21.2544 51.68 19.6252C51.68 19.4351 51.6528 19.2451 51.6257 19.055C53.0785 18.797 54.1782 17.5345 54.1782 16.0139C55.2101 16.0139 56.0518 15.1722 56.0518 14.1404C56.0518 13.1086 55.2101 12.2668 54.1782 12.2668Z" fill="#FCFBE2"/>
<path d="M71.8827 44.3069C72.385 44.3748 72.8466 44.1576 73.1182 43.7638C73.3897 43.9675 73.7156 44.1168 74.0822 44.1576C75.2634 44.3205 76.3631 43.5059 76.5261 42.3248C76.5532 42.1483 76.5532 41.9854 76.5261 41.8224C77.4765 41.7546 78.2775 41.035 78.4133 40.0575C78.4812 39.6095 78.3862 39.1886 78.1961 38.8221C78.7256 38.7678 79.1872 38.3741 79.2687 37.8174C79.3637 37.1658 78.9021 36.5548 78.2504 36.4598C77.5987 36.3648 76.9877 36.8264 76.8927 37.478C76.8791 37.5866 76.8927 37.6817 76.9063 37.7767C76.8248 37.7495 76.7298 37.7224 76.6483 37.7088C75.5214 37.5459 74.4759 38.3333 74.313 39.4602C74.2994 39.5959 74.2858 39.7317 74.2994 39.8539C73.2675 39.8946 72.385 40.6549 72.2357 41.7002C71.5161 41.6052 70.8644 42.094 70.7557 42.8135C70.6471 43.533 71.1495 44.1847 71.8691 44.2933L71.8827 44.3069Z" fill="#FCFBE2"/>
<path d="M60.9125 20.9015C59.9213 21.1052 57.5861 21.7297 57.6132 22.7208C57.3688 22.7072 57.1109 22.7072 56.8665 22.7479C55.4952 23.0194 54.5719 24.282 54.667 25.6397C54.2325 25.6125 53.798 25.6261 53.3635 25.7075C50.6753 26.2506 48.9238 28.8301 49.3854 31.5318C48.3264 32.3192 47.7562 33.6632 48.0277 35.048C48.1906 35.8898 48.6658 36.5957 49.2904 37.098C48.4622 37.709 49.6705 39.0259 49.8878 40.112C50.1865 41.6054 51.6392 42.5693 53.1192 42.2706C54.5991 41.9719 54.9793 41.1302 54.6806 39.6368C54.5855 39.1616 54.2054 37.8719 53.9067 37.5189C54.7077 37.1388 55.3322 36.4735 55.6581 35.659C55.8482 35.6454 56.0382 35.6454 56.2419 35.6047C58.9709 35.0616 60.7496 32.4006 60.2065 29.6718C60.0843 29.0337 59.8263 28.45 59.4869 27.9205C60.6002 27.391 61.2519 26.1691 61.0075 24.9065C60.9939 24.8115 61.7135 25.0016 61.6864 24.9065L60.9532 24.635C62.053 24.4178 63.5329 23.6168 63.3157 22.5035C63.0984 21.3903 62.0258 20.6843 60.9125 20.9015Z" fill="#FCFBE2"/>
<path d="M76.1869 28.5449C78.1665 28.5449 79.7714 26.9402 79.7714 24.9607C79.7714 22.9813 78.1665 21.3766 76.1869 21.3766C74.2073 21.3766 72.6025 22.9813 72.6025 24.9607C72.6025 26.9402 74.2073 28.5449 76.1869 28.5449Z" fill="#FCFBE2"/>
<path d="M74.2181 30.5134C75.3054 30.5134 76.1869 29.6321 76.1869 28.5449C76.1869 27.4577 75.3054 26.5763 74.2181 26.5763C73.1309 26.5763 72.2495 27.4577 72.2495 28.5449C72.2495 29.6321 73.1309 30.5134 74.2181 30.5134Z" fill="#FCFBE2"/>
<path d="M71.1633 34.8987C71.9581 34.8987 72.6025 34.2544 72.6025 33.4596C72.6025 32.6648 71.9581 32.0205 71.1633 32.0205C70.3685 32.0205 69.7241 32.6648 69.7241 33.4596C69.7241 34.2544 70.3685 34.8987 71.1633 34.8987Z" fill="#FCFBE2"/>
<g filter="url(#filter0_d_1277_2489)">
<path d="M198.722 45.2712C208.462 45.2712 216.359 37.3755 216.359 27.6356C216.359 17.8957 208.462 10 198.722 10C188.981 10 181.085 17.8957 181.085 27.6356C181.085 37.3755 188.981 45.2712 198.722 45.2712Z" fill="url(#paint1_radial_1277_2489)"/>
</g>
<path d="M196.427 34.247C189.163 31.138 188.308 39.9355 183.352 41.2252C186.624 44.66 191.2 46.8186 196.291 46.9408C194.268 43.2617 194.744 38.4556 196.427 34.247Z" fill="#1C172A"/>
<path d="M208.85 29.7259C205.32 28.5448 199.454 28.5448 198.273 34.4233C196.59 38.632 196.128 43.4244 198.138 47.1171C198.287 47.1171 198.423 47.1443 198.572 47.1443C205.7 47.1443 211.891 43.1121 214.987 37.1929C212.339 34.5319 212.027 29.7259 208.836 29.7259H208.85Z" fill="#1C172A"/>
<path d="M200.106 17.7518C198.925 15.4031 194.227 16.5707 194.227 14.222C195.327 9.7961 199.55 9.53815 202.985 8.54708C201.07 7.88184 199.02 7.50171 196.889 7.50171C191.824 7.50171 187.235 9.53815 183.882 12.8372C184.425 13.4617 184.859 14.1269 185.226 14.8193C188.62 18.227 194.608 18.5257 200.093 17.7382L200.106 17.7518Z" fill="#1C172A"/>
<path d="M191.254 32.0071C191.281 31.5184 191.376 31.0568 191.526 30.5952C189.991 29.1018 188.864 27.2962 188.158 25.8842C185.796 22.7345 185.538 19.0554 183.854 15.9192C183.311 15.3626 182.823 14.7381 182.415 14.0186C179.062 17.3719 176.984 22.0014 176.984 27.1197C176.984 32.2379 178.953 36.5824 182.13 39.9085C185.972 38.9039 187.357 33.4055 191.173 32.4416C191.186 32.2922 191.213 32.1429 191.24 32.0071H191.254Z" fill="#1C172A"/>
<path d="M207.764 23.3045C208.036 23.0873 208.334 22.8972 208.66 22.7343C209.217 20.0326 212.19 18.3356 214.715 16.3399C212.652 13.1902 209.651 10.6921 206.08 9.2666C205.008 9.52455 203.881 9.71463 202.781 9.97257C200.297 10.5564 197.988 11.5203 197.092 14.5478C201.613 16.5842 205.347 19.3402 207.778 23.3045H207.764Z" fill="#1C172A"/>
<path d="M215.299 17.2765C211.81 20.2904 207.357 22.7206 210.534 28.0153V29.1965C213.724 29.1965 214.037 34.0025 216.684 36.6634C218.028 34.0975 218.802 31.1786 218.802 28.0832C218.802 24.0511 217.499 20.3312 215.313 17.2901L215.299 17.2765Z" fill="#1C172A"/>
<path d="M207.248 25.409C205.782 22.7616 203.772 20.698 201.383 19.0417C200.663 19.2182 199.93 19.2861 199.197 19.2182C194.16 19.9242 188.919 19.5984 185.728 16.6116C187.52 19.6934 187.914 23.359 190.385 26.4137C191.648 28.7216 194.119 32.1564 197.69 33.2018C198.654 27.2825 204.519 27.0789 208.09 28.1243L208.049 26.9567C207.696 26.4137 207.452 25.9113 207.248 25.4226V25.409Z" fill="#1C172A"/>
<g opacity="0.75">
<path d="M349.062 28.1237C349.062 28.1237 349.062 28.2323 349.049 28.3002C349.062 28.6668 349.049 29.0062 349.008 29.3592C348.94 30.5811 348.723 31.7893 348.397 32.9298C348.37 33.0248 348.343 33.1198 348.316 33.2149C346.13 40.4782 339.409 45.7593 331.439 45.7593C324.827 45.7593 319.07 42.1073 316.056 36.7311C315.812 36.3103 315.594 35.8758 315.391 35.4414C314.386 33.2556 313.816 30.8118 313.802 28.2595V28.1237C313.802 27.1055 313.884 26.128 314.047 25.1641C314.495 22.5032 315.54 20.0594 317.047 17.9415C317.373 17.4935 317.712 17.0591 318.079 16.6382C321.297 12.8776 326.09 10.5017 331.439 10.5017C339.762 10.5017 346.754 16.2716 348.573 24.0509C348.709 24.6211 348.818 25.2184 348.899 25.8158C349.008 26.576 349.062 27.3499 349.062 28.1237Z" fill="#CEB1E8"/>
<path d="M349.062 28.124C349.062 28.124 349.062 28.2326 349.049 28.3005C338.268 22.3405 325.791 25.5309 314.047 25.1643C314.495 22.5034 315.54 20.0597 317.047 17.9418C317.373 17.4937 317.712 17.0593 318.079 16.6384L323.659 16.9099C328.873 17.1815 334.005 18.2947 338.839 20.209L348.573 24.0511C348.709 24.6213 348.818 25.2186 348.899 25.816C349.008 26.5763 349.062 27.3501 349.062 28.124Z" fill="#CEB1E8"/>
<path d="M349.008 29.3596C348.94 30.5815 348.723 31.7898 348.397 32.9302L338.689 32.4686C330.882 32.0884 323.116 33.5683 316.056 36.7315C315.812 36.3107 315.594 35.8762 315.391 35.4418C314.386 33.256 313.816 30.8123 313.802 28.2599C325.574 27.8662 337.861 24.1735 349.008 29.3596Z" fill="#CEB1E8"/>
</g>
<defs>
<filter id="filter0_d_1277_2489" x="171.085" y="0" width="55.2737" height="55.2712" filterUnits="userSpaceOnUse" color-interpolation-filters="sRGB">
<feFlood flood-opacity="0" result="BackgroundImageFix"/>
<feColorMatrix in="SourceAlpha" type="matrix" values="0 0 0 0 0 0 0 0 0 0 0 0 0 0 0 0 0 0 127 0" result="hardAlpha"/>
<feOffset/>
<feGaussianBlur stdDeviation="5"/>
<feColorMatrix type="matrix" values="0 0 0 0 1 0 0 0 0 0.498039 0 0 0 0 0 0 0 0 0.75 0"/>
<feBlend mode="normal" in2="BackgroundImageFix" result="effect1_dropShadow_1277_2489"/>
<feBlend mode="normal" in="SourceGraphic" in2="effect1_dropShadow_1277_2489" result="shape"/>
</filter>
<linearGradient id="paint0_linear_1277_2489" x1="51.0147" y1="17.6158" x2="78.6972" y2="39.4619" gradientUnits="userSpaceOnUse">
<stop offset="0.5" stop-color="#EDC887"/>
</linearGradient>
<radialGradient id="paint1_radial_1277_2489" cx="0" cy="0" r="1" gradientUnits="userSpaceOnUse" gradientTransform="translate(198.722 27.6356) scale(17.6368 17.6356)">
<stop offset="0.8" stop-color="#EA6E17"/>
</radialGradient>
</defs>
</svg>
