<svg width="859" height="56" viewBox="0 0 859 56" fill="none" xmlns="http://www.w3.org/2000/svg">
<path d="M59 27.5017H152" stroke="#FFFCEB" stroke-width="0.75" stroke-miterlimit="10" stroke-linecap="round"/>
<path d="M199 27.5017H290" stroke="#FFFCEB" stroke-width="0.75" stroke-miterlimit="10" stroke-linecap="round"/>
<path d="M336 27.5017H419" stroke="#FFFCEB" stroke-width="0.75" stroke-miterlimit="10" stroke-linecap="round"/>
<path d="M467 27.6353L552 28.4916" stroke="#FFFCEB" stroke-width="0.75" stroke-miterlimit="10" stroke-linecap="round"/>
<path d="M604 27.6353L689 28.4916" stroke="#FFFCEB" stroke-width="0.75" stroke-miterlimit="10" stroke-linecap="round" stroke-dasharray="3 3"/>
<path d="M734 27.6353L819 28.4916" stroke="#FFFCEB" stroke-width="0.75" stroke-miterlimit="10" stroke-linecap="round" stroke-dasharray="3 3"/>
<path d="M25.7576 43.7729C35.4981 43.7729 43.3944 35.8772 43.3944 26.1373C43.3944 16.3974 35.4981 8.50171 25.7576 8.50171C16.017 8.50171 8.12073 16.3974 8.12073 26.1373C8.12073 35.8772 16.017 43.7729 25.7576 43.7729Z" fill="url(#paint0_linear_1436_6008)"/>
<path d="M40.5568 13.4841C42.9328 12.045 48.8661 10.0221 48.2823 14.9503C47.7256 18.2086 45.7026 20.6523 43.7339 23.0689C39.7965 27.6577 35.1395 31.4048 30.3196 34.8531C24.1963 39.0075 17.6249 43.0804 10.2389 44.7638C1.71237 45.9042 1.59018 40.8674 8.12082 36.9167C6.91245 38.4644 5.21531 40.2293 5.0388 42.13C5.06596 42.3473 5.13384 42.388 5.24245 42.4559C6.54587 42.931 8.24301 42.6323 9.60073 42.1979C16.2128 39.6999 22.0918 35.4776 27.9979 31.5269C31.5958 29.3276 58.4244 9.19394 40.5568 13.4976V13.4841Z" fill="#A502B3"/>
<path d="M46.5037 21.4397C49.2735 21.2496 55.4647 22.3086 52.6542 26.3407C50.6312 28.961 47.7121 30.1692 44.8337 31.3911C39.2127 33.6041 33.3473 34.7445 27.4684 35.5455C20.1096 36.36 12.3977 36.8895 5.07959 34.9209C-2.98527 31.9477 -0.74505 27.4404 6.88535 26.9924C5.09315 27.7934 2.77147 28.5673 1.72602 30.1557C1.65813 30.3593 1.68527 30.4272 1.75316 30.5358C2.67641 31.5676 4.31927 32.0971 5.71773 32.3415C12.7236 33.2239 19.8923 32.2329 26.9661 31.5133C31.1886 31.2554 64.3034 25.9877 46.5037 21.4397Z" fill="#A502B3"/>
<path d="M192.497 28.1242C192.497 32.8488 190.637 37.1389 187.595 40.3022C186.659 41.2932 185.613 42.1757 184.459 42.9088C181.689 44.7145 178.39 45.7598 174.86 45.7598C173.095 45.7598 171.398 45.5019 169.782 45.0131C162.518 42.8274 157.237 36.0935 157.237 28.1242C157.237 26.9024 157.359 25.7077 157.59 24.5537C158.35 20.9016 160.237 17.6569 162.858 15.2132C163.537 14.5887 164.27 14.0049 165.044 13.4754C167.23 12.0227 169.755 11.0317 172.47 10.6651C173.258 10.5565 174.045 10.5022 174.86 10.5022C182.83 10.5022 189.564 15.7834 191.75 23.0331C192.239 24.6487 192.497 26.3593 192.497 28.1242Z" fill="url(#paint1_linear_1436_6008)"/>
<path d="M169.103 19.6795C169.103 23.4265 166.062 26.4676 162.315 26.4676C160.468 26.4676 158.798 25.7345 157.59 24.5534C158.35 20.9013 160.237 17.6566 162.858 15.2129C163.537 14.5884 164.27 14.0046 165.044 13.4751C166.497 14.1132 167.678 15.2264 168.384 16.6384C168.845 17.548 169.103 18.5798 169.103 19.6795Z" fill="#4A79E7"/>
<path d="M172.497 11.2083C172.497 13.8014 170.76 15.9736 168.384 16.6389C167.895 16.7882 167.379 16.8561 166.849 16.8561C165.274 16.8561 163.876 16.2316 162.858 15.2133C163.537 14.5888 164.27 14.0051 165.044 13.4756C167.23 12.0229 169.755 11.0318 172.47 10.6653C172.484 10.8418 172.497 11.0318 172.497 11.2083Z" fill="#4A79E7"/>
<path d="M191.75 23.0331C191.37 22.9923 191.003 22.9788 190.623 22.9788C185.111 22.9788 180.549 27.0652 179.816 32.3871C179.354 32.3057 178.879 32.265 178.39 32.265C173.258 32.265 169.103 36.4329 169.103 41.5647C169.103 42.7866 169.334 43.9541 169.782 45.0131C171.398 45.5018 173.095 45.7598 174.86 45.7598C178.39 45.7598 181.689 44.7144 184.459 42.9088C185.613 42.1756 186.659 41.2932 187.596 40.3021C190.637 37.1388 192.497 32.8487 192.497 28.1242C192.497 26.3593 192.239 24.6486 191.75 23.0331Z" fill="url(#paint2_linear_1436_6008)"/>
<path d="M191.899 18.0101C194.37 17.3313 200.154 16.6117 199.258 20.8747C198.05 24.2145 195.131 26.1966 192.429 28.1109C182.26 34.5324 170.923 38.5646 158.988 40.0308C150.774 41.3613 142.315 36.0394 154.413 31.9801C152.838 33.1477 150.747 34.3967 150.068 36.1888C150.041 36.406 150.095 36.4603 150.177 36.5417C152.607 38.0759 155.811 37.3427 158.54 36.8676C166.836 35.0619 175.132 32.1837 183.033 28.9526C186.414 27.4456 197.303 23.1827 197.588 19.4628C196.312 18.1187 193.759 18.1594 191.899 17.9829V18.0101Z" fill="#92B8F2"/>
<path d="M329.612 28.1457C329.612 29.5984 329.435 31.0239 329.096 32.3679C327.467 39.0339 322.049 44.1929 315.261 45.4826C314.202 45.6727 313.102 45.7813 311.989 45.7813C309.463 45.7813 307.074 45.2519 304.901 44.3015C302.715 43.3376 300.747 41.9392 299.144 40.215C296.171 37.0653 294.352 32.816 294.352 28.1457C294.352 18.4115 302.24 10.5237 311.989 10.5237C321.737 10.5237 329.612 18.4115 329.612 28.1457Z" fill="url(#paint3_linear_1436_6008)"/>
<path d="M315.994 11.2026C316.944 13.4699 311.636 13.0354 306.259 15.3027C300.882 17.5699 297.475 21.67 296.524 19.4027C295.574 17.1355 299.158 13.4699 304.521 11.2026C309.898 8.93539 315.03 8.93539 315.98 11.2026H315.994Z" fill="#8ABF67"/>
<path d="M306.612 12.4248C308.852 13.4294 301.222 18.2355 301.629 24.0461C302.132 30.97 300.217 32.7078 297.977 31.7031C295.737 30.6985 295.845 25.5667 298.221 20.2447C300.597 14.9228 304.358 11.4201 306.598 12.4248H306.612Z" fill="#8ABF67"/>
<path d="M329.096 32.3681C327.466 39.034 322.049 44.193 315.261 45.4828C314.215 43.9486 313.604 42.0887 313.604 40.0794C313.604 34.7304 317.935 30.4131 323.271 30.4131C325.471 30.4131 327.48 31.1326 329.096 32.3681Z" fill="#8ABF67"/>
<path d="M321.723 13.1574L320.596 12.7637L321.927 20.3936C322.579 24.0999 321.438 27.9012 318.872 30.6572L315.844 33.8884L327.684 31.9606L328.879 29.0688C329.734 26.9916 329.992 24.7244 329.625 22.525C328.906 18.1942 325.878 14.6101 321.737 13.171L321.723 13.1574Z" fill="#8ABF67"/>
<path d="M325.511 23.5566C326.306 23.5566 326.951 22.9123 326.951 22.1176C326.951 21.3228 326.306 20.6785 325.511 20.6785C324.716 20.6785 324.072 21.3228 324.072 22.1176C324.072 22.9123 324.716 23.5566 325.511 23.5566Z" fill="#1A6235"/>
<path d="M320.732 39.7534C321.527 39.7534 322.171 39.1091 322.171 38.3143C322.171 37.5195 321.527 36.8752 320.732 36.8752C319.937 36.8752 319.293 37.5195 319.293 38.3143C319.293 39.1091 319.937 39.7534 320.732 39.7534Z" fill="#0F4924"/>
<path d="M300.964 17.6377C301.759 17.6377 302.403 16.9934 302.403 16.1986C302.403 15.4038 301.759 14.7595 300.964 14.7595C300.169 14.7595 299.525 15.4038 299.525 16.1986C299.525 16.9934 300.169 17.6377 300.964 17.6377Z" fill="#1A6235"/>
<path d="M306.137 41.5724C306.137 42.6585 305.661 43.636 304.901 44.3012C302.715 43.3373 300.747 41.9389 299.144 40.2147C299.687 38.8843 300.991 37.9475 302.512 37.9475C304.507 37.9475 306.137 39.5767 306.137 41.5724Z" fill="#9FDD76"/>
<path d="M456.354 14.1271C456.354 14.1271 456.354 14.0999 456.354 14.0863C456.354 12.1042 454.752 10.5022 452.77 10.5022C450.788 10.5022 449.186 12.1042 449.186 14.0863C449.186 16.0685 450.788 17.6705 452.77 17.6705C453.367 17.6705 453.924 17.5076 454.426 17.2496C454.793 17.7248 455.35 18.0235 455.988 18.0235C457.074 18.0235 457.956 17.141 457.956 16.0549C457.956 15.091 457.264 14.29 456.354 14.1135V14.1271Z" fill="#FCFBE2"/>
<path d="M440.808 46.7506C440.808 46.7506 440.808 46.7778 440.822 46.7914C441.786 48.5155 443.972 49.1265 445.71 48.1626C447.448 47.1987 448.045 45.0129 447.081 43.2751C446.117 41.5373 443.931 40.94 442.193 41.9039C441.677 42.2026 441.27 42.6099 440.958 43.085C440.415 42.8542 439.777 42.8542 439.22 43.1665C438.269 43.696 437.93 44.9043 438.473 45.8546C438.948 46.6963 439.939 47.0493 440.822 46.7506H440.808Z" fill="#FCFBE2"/>
<path d="M444.135 45.7734C453.875 45.7734 461.772 37.8777 461.772 28.1378C461.772 18.3979 453.875 10.5022 444.135 10.5022C434.394 10.5022 426.498 18.3979 426.498 28.1378C426.498 37.8777 434.394 45.7734 444.135 45.7734Z" fill="url(#paint4_linear_1436_6008)"/>
<path d="M433.966 12.2671C433.246 12.2671 432.621 12.6744 432.309 13.2853C431.875 13.0545 431.386 12.9188 430.87 12.9188C429.159 12.9188 427.774 14.3035 427.774 16.0141C427.774 16.2585 427.815 16.5029 427.869 16.7337C426.539 17.0324 425.548 18.2135 425.548 19.6254C425.548 20.2635 425.751 20.8609 426.104 21.3361C425.358 21.5261 424.787 22.1642 424.787 22.9652C424.787 23.9156 425.561 24.6758 426.498 24.6758C427.435 24.6758 428.209 23.902 428.209 22.9652C428.209 22.8159 428.154 22.6801 428.127 22.5443C428.249 22.5579 428.385 22.5851 428.507 22.5851C430.15 22.5851 431.467 21.2546 431.467 19.6254C431.467 19.4354 431.44 19.2453 431.413 19.0552C432.866 18.7973 433.966 17.5347 433.966 16.0141C434.997 16.0141 435.839 15.1724 435.839 14.1406C435.839 13.1088 434.997 12.2671 433.966 12.2671Z" fill="#FCFBE2"/>
<path d="M451.67 44.3073C452.172 44.3752 452.634 44.1579 452.906 43.7642C453.177 43.9679 453.503 44.1172 453.87 44.1579C455.051 44.3208 456.15 43.5063 456.313 42.3251C456.341 42.1486 456.341 41.9857 456.313 41.8228C457.264 41.7549 458.065 41.0354 458.201 40.0579C458.269 39.6099 458.174 39.189 457.983 38.8224C458.513 38.7681 458.975 38.3744 459.056 37.8178C459.151 37.1661 458.689 36.5552 458.038 36.4602C457.386 36.3651 456.775 36.8267 456.68 37.4784C456.666 37.587 456.68 37.682 456.694 37.7771C456.612 37.7499 456.517 37.7228 456.436 37.7092C455.309 37.5463 454.263 38.3337 454.1 39.4605C454.087 39.5963 454.073 39.732 454.087 39.8542C453.055 39.895 452.172 40.6552 452.023 41.7006C451.303 41.6056 450.652 42.0943 450.543 42.8139C450.434 43.5334 450.937 44.1851 451.656 44.2937L451.67 44.3073Z" fill="#FCFBE2"/>
<path d="M440.7 20.9015C439.709 21.1052 437.373 21.7297 437.401 22.7208C437.156 22.7072 436.898 22.7072 436.654 22.7479C435.283 23.0194 434.359 24.282 434.454 25.6397C434.02 25.6125 433.585 25.6261 433.151 25.7075C430.463 26.2506 428.711 28.8301 429.173 31.5318C428.114 32.3192 427.544 33.6632 427.815 35.048C427.978 35.8898 428.453 36.5957 429.078 37.098C428.25 37.709 429.458 39.0259 429.675 40.112C429.974 41.6054 431.427 42.5693 432.907 42.2706C434.386 41.9719 434.767 41.1302 434.468 39.6368C434.373 39.1616 433.993 37.8719 433.694 37.5189C434.495 37.1388 435.12 36.4735 435.445 35.659C435.636 35.6454 435.826 35.6454 436.029 35.6047C438.758 35.0616 440.537 32.4006 439.994 29.6718C439.872 29.0337 439.614 28.45 439.274 27.9205C440.388 27.391 441.039 26.1691 440.795 24.9065C440.781 24.8115 441.501 25.0016 441.474 24.9065L440.741 24.635C441.84 24.4178 443.32 23.6168 443.103 22.5035C442.886 21.3903 441.813 20.6843 440.7 20.9015Z" fill="#FCFBE2"/>
<path d="M455.974 28.5452C457.954 28.5452 459.559 26.9406 459.559 24.9611C459.559 22.9816 457.954 21.377 455.974 21.377C453.995 21.377 452.39 22.9816 452.39 24.9611C452.39 26.9406 453.995 28.5452 455.974 28.5452Z" fill="#FCFBE2"/>
<path d="M454.005 30.5133C455.093 30.5133 455.974 29.6319 455.974 28.5447C455.974 27.4575 455.093 26.5762 454.005 26.5762C452.918 26.5762 452.037 27.4575 452.037 28.5447C452.037 29.6319 452.918 30.5133 454.005 30.5133Z" fill="#FCFBE2"/>
<path d="M450.951 34.8989C451.745 34.8989 452.39 34.2546 452.39 33.4598C452.39 32.665 451.745 32.0208 450.951 32.0208C450.156 32.0208 449.511 32.665 449.511 33.4598C449.511 34.2546 450.156 34.8989 450.951 34.8989Z" fill="#FCFBE2"/>
<g filter="url(#filter0_d_1436_6008)">
<path d="M578.509 45.2712C588.25 45.2712 596.146 37.3755 596.146 27.6356C596.146 17.8957 588.25 10 578.509 10C568.769 10 560.872 17.8957 560.872 27.6356C560.872 37.3755 568.769 45.2712 578.509 45.2712Z" fill="url(#paint5_radial_1436_6008)"/>
</g>
<path d="M576.215 34.2469C568.951 31.1379 568.095 39.9353 563.14 41.2251C566.412 44.6599 570.987 46.8185 576.079 46.9407C574.056 43.2615 574.531 38.4555 576.215 34.2469Z" fill="#1C172A"/>
<path d="M588.637 29.7259C585.107 28.5448 579.242 28.5448 578.061 34.4233C576.377 38.632 575.915 43.4244 577.925 47.1171C578.074 47.1171 578.21 47.1443 578.359 47.1443C585.487 47.1443 591.679 43.1121 594.774 37.1929C592.127 34.5319 591.814 29.7259 588.624 29.7259H588.637Z" fill="#1C172A"/>
<path d="M579.894 17.7518C578.713 15.4031 574.015 16.5707 574.015 14.222C575.115 9.7961 579.337 9.53815 582.772 8.54708C580.858 7.88184 578.807 7.50171 576.676 7.50171C571.612 7.50171 567.023 9.53815 563.669 12.8372C564.212 13.4617 564.646 14.1269 565.013 14.8193C568.407 18.227 574.395 18.5257 579.88 17.7382L579.894 17.7518Z" fill="#1C172A"/>
<path d="M571.041 32.0071C571.069 31.5184 571.164 31.0568 571.313 30.5952C569.779 29.1018 568.652 27.2962 567.946 25.8842C565.583 22.7345 565.325 19.0554 563.642 15.9192C563.099 15.3626 562.61 14.7381 562.203 14.0186C558.849 17.3719 556.772 22.0014 556.772 27.1197C556.772 32.2379 558.74 36.5824 561.917 39.9085C565.76 38.9039 567.145 33.4055 570.96 32.4416C570.974 32.2922 571.001 32.1429 571.028 32.0071H571.041Z" fill="#1C172A"/>
<path d="M587.551 23.3045C587.823 23.0873 588.122 22.8972 588.447 22.7343C589.004 20.0326 591.977 18.3356 594.503 16.3399C592.439 13.1902 589.439 10.6921 585.868 9.2666C584.795 9.52455 583.668 9.71463 582.568 9.97257C580.084 10.5564 577.776 11.5203 576.88 14.5478C581.401 16.5842 585.135 19.3402 587.565 23.3045H587.551Z" fill="#1C172A"/>
<path d="M595.087 17.2764C591.597 20.2903 587.144 22.7205 590.321 28.0152V29.1964C593.512 29.1964 593.824 34.0024 596.472 36.6633C597.816 34.0974 598.59 31.1785 598.59 28.0831C598.59 24.0509 597.286 20.331 595.1 17.2899L595.087 17.2764Z" fill="#1C172A"/>
<path d="M587.035 25.409C585.569 22.7616 583.56 20.698 581.17 19.0417C580.451 19.2182 579.717 19.2861 578.984 19.2182C573.947 19.9242 568.706 19.5984 565.516 16.6116C567.308 19.6934 567.702 23.359 570.173 26.4137C571.435 28.7216 573.906 32.1564 577.477 33.2018C578.441 27.2825 584.306 27.0789 587.877 28.1243L587.837 26.9567C587.484 26.4137 587.239 25.9113 587.035 25.4226V25.409Z" fill="#1C172A"/>
<g opacity="0.75">
<path d="M728.85 28.1237C728.85 28.1237 728.85 28.2323 728.836 28.3002C728.85 28.6668 728.836 29.0062 728.795 29.3592C728.727 30.5811 728.51 31.7893 728.184 32.9298C728.157 33.0248 728.13 33.1198 728.103 33.2149C725.917 40.4782 719.196 45.7593 711.226 45.7593C704.614 45.7593 698.858 42.1073 695.843 36.7311C695.599 36.3103 695.382 35.8758 695.178 35.4414C694.173 33.2556 693.603 30.8118 693.59 28.2595V28.1237C693.59 27.1055 693.671 26.128 693.834 25.1641C694.282 22.5032 695.327 20.0594 696.834 17.9415C697.16 17.4935 697.5 17.0591 697.866 16.6382C701.084 12.8776 705.877 10.5017 711.226 10.5017C719.549 10.5017 726.541 16.2716 728.361 24.0509C728.497 24.6211 728.605 25.2184 728.687 25.8158C728.795 26.576 728.85 27.3499 728.85 28.1237Z" fill="#CEB1E8"/>
<path d="M728.85 28.124C728.85 28.124 728.85 28.2326 728.836 28.3005C718.056 22.3405 705.578 25.5309 693.834 25.1643C694.282 22.5034 695.327 20.0597 696.834 17.9418C697.16 17.4937 697.5 17.0593 697.866 16.6384L703.447 16.9099C708.66 17.1815 713.793 18.2947 718.626 20.209L728.361 24.0511C728.497 24.6213 728.605 25.2186 728.687 25.816C728.795 26.5763 728.85 27.3501 728.85 28.124Z" fill="#CEB1E8"/>
<path d="M728.795 29.3595C728.727 30.5814 728.51 31.7896 728.184 32.93L718.477 32.4685C710.67 32.0883 702.904 33.5681 695.843 36.7314C695.599 36.3106 695.382 35.8761 695.178 35.4417C694.173 33.2559 693.603 30.8121 693.59 28.2598C705.361 27.8661 717.648 24.1733 728.795 29.3595Z" fill="#CEB1E8"/>
</g>
<g opacity="0.75">
<path d="M858.842 27.8652C858.842 38.007 851.008 46.2286 841.346 46.2286C840.251 46.2286 839.18 46.1231 838.141 45.9213C835.229 45.3555 832.57 44.0326 830.356 42.1544C829.139 41.1225 828.057 39.923 827.142 38.5893C825.07 35.5721 823.85 31.8682 823.85 27.8652C823.85 26.2358 824.052 24.656 824.431 23.1519C825.95 17.1335 830.306 12.327 835.907 10.4063C837.619 9.81917 839.447 9.50171 841.346 9.50171C842.54 9.50171 843.707 9.62736 844.834 9.86675C845.959 10.1057 847.046 10.4581 848.081 10.9119C852.327 12.7724 855.725 16.339 857.498 20.7956C858.364 22.9716 858.842 25.3598 858.842 27.8652Z" fill="#CEB1E8"/>
<path fill-rule="evenodd" clip-rule="evenodd" d="M848.081 10.9119C852.327 12.7724 855.725 16.339 857.498 20.7956C856.271 22.5113 854.317 23.6211 852.115 23.6211C848.401 23.6211 845.389 20.4604 845.389 16.5614C845.389 14.251 846.447 12.1998 848.081 10.9119Z" fill="#CEB1E8"/>
<path fill-rule="evenodd" clip-rule="evenodd" d="M830.356 42.1543C833.084 40.3192 834.892 37.109 834.892 33.4557C834.892 27.7537 830.488 23.1313 825.055 23.1313C824.845 23.1313 824.637 23.1382 824.431 23.1518C824.052 24.6559 823.85 26.2357 823.85 27.865C823.85 31.8681 825.07 35.572 827.142 38.5892C828.057 39.9229 829.139 41.1224 830.356 42.1543Z" fill="#CEB1E8"/>
<path fill-rule="evenodd" clip-rule="evenodd" d="M827.142 38.5892C828.057 39.9229 829.139 41.1224 830.356 42.1543C832.57 44.0324 835.229 45.3553 838.141 45.9211C838.354 45.234 838.469 44.5007 838.469 43.7392C838.469 39.8402 835.457 36.6794 831.742 36.6794C829.963 36.6794 828.345 37.4048 827.142 38.5892Z" fill="#CEB1E8"/>
<path fill-rule="evenodd" clip-rule="evenodd" d="M840.374 14.8883C842.843 14.8883 844.845 12.7872 844.845 10.1954C844.845 10.0849 844.841 9.97534 844.834 9.86675C843.707 9.62736 842.54 9.50171 841.346 9.50171C839.447 9.50171 837.619 9.81917 835.907 10.4063C836.012 12.9002 837.972 14.8883 840.374 14.8883Z" fill="#CEB1E8"/>
<path fill-rule="evenodd" clip-rule="evenodd" d="M841.346 14.7771C841.033 14.8499 840.708 14.8883 840.374 14.8883C837.972 14.8883 836.012 12.9002 835.907 10.4063C837.619 9.81917 839.447 9.50171 841.346 9.50171V14.7771Z" fill="#CEB1E8"/>
<ellipse cx="1.85227" cy="4.1908" rx="1.85227" ry="4.1908" transform="matrix(-0.842874 0.538111 -0.501418 -0.865205 854.591 33.0764)" fill="#CEB1E8"/>
<path d="M839.87 38.546C838.709 36.5435 838.468 34.4739 839.33 33.9234C840.192 33.3729 841.832 34.55 842.992 36.5526C844.153 38.5551 844.395 40.6247 843.533 41.1752C842.67 41.7257 841.03 40.5485 839.87 38.546Z" fill="#CEB1E8"/>
<path fill-rule="evenodd" clip-rule="evenodd" d="M839.33 33.9235C838.468 34.474 838.709 36.5436 839.87 38.5461C840.315 39.314 840.831 39.9606 841.346 40.4348L841.346 34.5126C840.576 33.8608 839.825 33.6075 839.33 33.9235Z" fill="#CEB1E8"/>
</g>
<defs>
<filter id="filter0_d_1436_6008" x="550.872" y="0" width="55.2737" height="55.2712" filterUnits="userSpaceOnUse" color-interpolation-filters="sRGB">
<feFlood flood-opacity="0" result="BackgroundImageFix"/>
<feColorMatrix in="SourceAlpha" type="matrix" values="0 0 0 0 0 0 0 0 0 0 0 0 0 0 0 0 0 0 127 0" result="hardAlpha"/>
<feOffset/>
<feGaussianBlur stdDeviation="5"/>
<feColorMatrix type="matrix" values="0 0 0 0 1 0 0 0 0 0.498039 0 0 0 0 0 0 0 0 0.75 0"/>
<feBlend mode="normal" in2="BackgroundImageFix" result="effect1_dropShadow_1436_6008"/>
<feBlend mode="normal" in="SourceGraphic" in2="effect1_dropShadow_1436_6008" result="shape"/>
</filter>
<linearGradient id="paint0_linear_1436_6008" x1="11.1077" y1="19.5257" x2="43.2578" y2="34.0268" gradientUnits="userSpaceOnUse">
<stop offset="0.33" stop-color="#622777"/>
</linearGradient>
<linearGradient id="paint1_linear_1436_6008" x1="162.084" y1="20.2636" x2="192.102" y2="38.7427" gradientUnits="userSpaceOnUse">
<stop offset="0.4" stop-color="#26308D"/>
</linearGradient>
<linearGradient id="paint2_linear_1436_6008" x1="171.357" y1="29.5904" x2="192.524" y2="39.5701" gradientUnits="userSpaceOnUse">
<stop offset="1" stop-color="#4A79E7"/>
</linearGradient>
<linearGradient id="paint3_linear_1436_6008" x1="308.472" y1="17.3933" x2="319.414" y2="50.9272" gradientUnits="userSpaceOnUse">
<stop offset="0.552885" stop-color="#1A6235"/>
</linearGradient>
<linearGradient id="paint4_linear_1436_6008" x1="430.802" y1="17.6162" x2="458.485" y2="39.4622" gradientUnits="userSpaceOnUse">
<stop offset="0.5" stop-color="#EDC887"/>
</linearGradient>
<radialGradient id="paint5_radial_1436_6008" cx="0" cy="0" r="1" gradientUnits="userSpaceOnUse" gradientTransform="translate(578.509 27.6356) scale(17.6368 17.6356)">
<stop offset="0.8" stop-color="#EA6E17"/>
</radialGradient>
</defs>
</svg>
