<svg width="393" height="42" viewBox="0 0 393 46" fill="none" xmlns="http://www.w3.org/2000/svg">
<path d="M59 27.5017H152" stroke="#FFFCEB" stroke-miterlimit="10" stroke-linecap="round"/>
<path d="M201 28.5017H290" stroke="#FFFCEB" stroke-miterlimit="10" stroke-linecap="round" stroke-dasharray="3 3"/>
<path d="M334 28.5017H391" stroke="#FFFCEB" stroke-miterlimit="10" stroke-linecap="round" stroke-dasharray="3 3"/>
<path d="M25.7576 43.7728C35.4981 43.7728 43.3944 35.8771 43.3944 26.1372C43.3944 16.3973 35.4981 8.50159 25.7576 8.50159C16.017 8.50159 8.12073 16.3973 8.12073 26.1372C8.12073 35.8771 16.017 43.7728 25.7576 43.7728Z" fill="url(#paint0_linear_1277_2387)"/>
<path d="M40.5568 13.4841C42.9328 12.045 48.8661 10.0221 48.2823 14.9503C47.7256 18.2086 45.7026 20.6523 43.7339 23.0689C39.7965 27.6577 35.1395 31.4048 30.3196 34.8531C24.1963 39.0075 17.6249 43.0804 10.2389 44.7638C1.71237 45.9042 1.59018 40.8674 8.12082 36.9167C6.91245 38.4644 5.21531 40.2293 5.0388 42.13C5.06596 42.3473 5.13384 42.388 5.24245 42.4559C6.54587 42.931 8.24301 42.6323 9.60073 42.1979C16.2128 39.6999 22.0918 35.4776 27.9979 31.5269C31.5958 29.3276 58.4244 9.19394 40.5568 13.4976V13.4841Z" fill="#A502B3"/>
<path d="M46.5037 21.4397C49.2735 21.2496 55.4647 22.3086 52.6542 26.3407C50.6312 28.961 47.7121 30.1692 44.8337 31.3911C39.2127 33.6041 33.3473 34.7445 27.4684 35.5455C20.1096 36.36 12.3977 36.8895 5.07959 34.9209C-2.98527 31.9477 -0.74505 27.4404 6.88535 26.9924C5.09315 27.7934 2.77147 28.5673 1.72602 30.1557C1.65813 30.3593 1.68527 30.4272 1.75316 30.5358C2.67641 31.5676 4.31927 32.0971 5.71773 32.3415C12.7236 33.2239 19.8923 32.2329 26.9661 31.5133C31.1886 31.2554 64.3034 25.9877 46.5037 21.4397Z" fill="#A502B3"/>
<path d="M192.497 28.1239C192.497 32.8484 190.637 37.1385 187.595 40.3018C186.659 41.2929 185.613 42.1753 184.459 42.9084C181.689 44.7141 178.39 45.7595 174.86 45.7595C173.095 45.7595 171.398 45.5015 169.782 45.0128C162.518 42.827 157.237 36.0931 157.237 28.1239C157.237 26.902 157.359 25.7073 157.59 24.5533C158.35 20.9013 160.237 17.6565 162.858 15.2128C163.537 14.5883 164.27 14.0045 165.044 13.475C167.23 12.0224 169.755 11.0313 172.47 10.6648C173.258 10.5561 174.045 10.5018 174.86 10.5018C182.83 10.5018 189.564 15.783 191.75 23.0328C192.239 24.6483 192.497 26.3589 192.497 28.1239Z" fill="url(#paint1_linear_1277_2387)"/>
<path d="M169.103 19.6796C169.103 23.4266 166.062 26.4677 162.315 26.4677C160.468 26.4677 158.798 25.7346 157.59 24.5535C158.35 20.9015 160.237 17.6567 162.858 15.213C163.537 14.5885 164.27 14.0047 165.044 13.4752C166.497 14.1133 167.678 15.2266 168.384 16.6385C168.845 17.5481 169.103 18.5799 169.103 19.6796Z" fill="#4A79E7"/>
<path d="M172.497 11.208C172.497 13.801 170.76 15.9732 168.384 16.6385C167.895 16.7878 167.379 16.8557 166.849 16.8557C165.274 16.8557 163.876 16.2312 162.858 15.213C163.537 14.5885 164.27 14.0047 165.044 13.4752C167.23 12.0225 169.755 11.0315 172.47 10.6649C172.484 10.8414 172.497 11.0315 172.497 11.208Z" fill="#4A79E7"/>
<path d="M191.75 23.0328C191.37 22.9921 191.003 22.9785 190.623 22.9785C185.111 22.9785 180.549 27.065 179.816 32.3869C179.354 32.3054 178.879 32.2647 178.39 32.2647C173.258 32.2647 169.103 36.4326 169.103 41.5645C169.103 42.7863 169.334 43.9539 169.782 45.0128C171.398 45.5016 173.095 45.7595 174.86 45.7595C178.39 45.7595 181.689 44.7142 184.459 42.9085C185.613 42.1754 186.659 41.2929 187.596 40.3019C190.637 37.1386 192.497 32.8485 192.497 28.1239C192.497 26.359 192.239 24.6484 191.75 23.0328Z" fill="url(#paint2_linear_1277_2387)"/>
<path d="M191.899 18.0097C194.37 17.3309 200.154 16.6114 199.258 20.8743C198.05 24.2141 195.131 26.1962 192.429 28.1105C182.26 34.5321 170.923 38.5642 158.988 40.0305C150.774 41.3609 142.315 36.0391 154.413 31.9797C152.838 33.1473 150.747 34.3963 150.068 36.1884C150.041 36.4056 150.095 36.4599 150.177 36.5414C152.607 38.0755 155.811 37.3424 158.54 36.8672C166.836 35.0616 175.132 32.1834 183.033 28.9522C186.414 27.4453 197.303 23.1823 197.588 19.4624C196.312 18.1183 193.759 18.1591 191.899 17.9826V18.0097Z" fill="#92B8F2"/>
<g opacity="0.75">
<path d="M329.612 28.1453C329.612 29.598 329.435 31.0235 329.096 32.3676C327.466 39.0335 322.049 44.1925 315.261 45.4823C314.201 45.6723 313.102 45.781 311.988 45.781C309.463 45.781 307.073 45.2515 304.901 44.3011C302.715 43.3372 300.746 41.9389 299.144 40.2147C296.171 37.065 294.352 32.8156 294.352 28.1453C294.352 18.4111 302.24 10.5233 311.988 10.5233C321.737 10.5233 329.612 18.4111 329.612 28.1453Z" fill="#CEB1E8"/>
<path d="M315.994 11.2023C316.944 13.4695 311.635 13.0351 306.259 15.3023C300.882 17.5695 297.474 21.6696 296.524 19.4023C295.574 17.1351 299.158 13.4695 304.521 11.2023C309.898 8.93502 315.03 8.93502 315.98 11.2023H315.994Z" fill="#CEB1E8"/>
<path d="M306.612 12.4244C308.852 13.4291 301.222 18.2351 301.629 24.0457C302.132 30.9697 300.217 32.7074 297.977 31.7028C295.737 30.6981 295.845 25.5663 298.221 20.2444C300.597 14.9225 304.358 11.4198 306.598 12.4244H306.612Z" fill="#CEB1E8"/>
<path d="M329.096 32.3677C327.466 39.0337 322.049 44.1927 315.26 45.4824C314.215 43.9483 313.604 42.0883 313.604 40.079C313.604 34.73 317.935 30.4127 323.271 30.4127C325.47 30.4127 327.48 31.1323 329.096 32.3677Z" fill="#CEB1E8"/>
<path d="M321.723 13.157L320.596 12.7633L321.927 20.3932C322.579 24.0995 321.438 27.9009 318.872 30.6569L315.844 33.888L327.684 31.9602L328.878 29.0684C329.734 26.9913 329.992 24.724 329.625 22.5247C328.906 18.1938 325.878 14.6097 321.737 13.1706L321.723 13.157Z" fill="#CEB1E8"/>
<path d="M325.511 23.5566C326.306 23.5566 326.95 22.9123 326.95 22.1176C326.95 21.3228 326.306 20.6785 325.511 20.6785C324.716 20.6785 324.072 21.3228 324.072 22.1176C324.072 22.9123 324.716 23.5566 325.511 23.5566Z" fill="#CEB1E8"/>
<path d="M320.732 39.7531C321.527 39.7531 322.171 39.1087 322.171 38.314C322.171 37.5192 321.527 36.8749 320.732 36.8749C319.937 36.8749 319.293 37.5192 319.293 38.314C319.293 39.1087 319.937 39.7531 320.732 39.7531Z" fill="#CEB1E8"/>
<path d="M300.964 17.6373C301.759 17.6373 302.403 16.993 302.403 16.1982C302.403 15.4035 301.759 14.7592 300.964 14.7592C300.169 14.7592 299.524 15.4035 299.524 16.1982C299.524 16.993 300.169 17.6373 300.964 17.6373Z" fill="#CEB1E8"/>
<path d="M306.137 41.5724C306.137 42.6585 305.661 43.636 304.901 44.3012C302.715 43.3373 300.746 41.9389 299.144 40.2147C299.687 38.8843 300.991 37.9475 302.511 37.9475C304.507 37.9475 306.137 39.5767 306.137 41.5724Z" fill="#CEB1E8"/>
</g>
<defs>
<linearGradient id="paint0_linear_1277_2387" x1="11.1077" y1="19.5255" x2="43.2578" y2="34.0267" gradientUnits="userSpaceOnUse">
<stop offset="0.33" stop-color="#622777"/>
</linearGradient>
<linearGradient id="paint1_linear_1277_2387" x1="162.084" y1="20.2632" x2="192.102" y2="38.7423" gradientUnits="userSpaceOnUse">
<stop offset="0.4" stop-color="#26308D"/>
</linearGradient>
<linearGradient id="paint2_linear_1277_2387" x1="171.357" y1="29.5902" x2="192.524" y2="39.5699" gradientUnits="userSpaceOnUse">
<stop offset="1" stop-color="#4A79E7"/>
</linearGradient>
</defs>
</svg>
