<svg width="393" height="42" viewBox="0 0 393 46" fill="none" xmlns="http://www.w3.org/2000/svg">
<path d="M-44 27.5017H42" stroke="#FFFCEB" stroke-miterlimit="10" stroke-linecap="round"/>
<path d="M93 27.5017H179" stroke="#FFFCEB" stroke-miterlimit="10" stroke-linecap="round"/>
<path d="M224 27.5017H310" stroke="#FFFCEB" stroke-width="0.75" stroke-miterlimit="10" stroke-linecap="round" stroke-dasharray="3 3"/>
<g filter="url(#filter0_d_1277_2541)">
<path d="M68.7218 45.2712C78.4623 45.2712 86.3585 37.3755 86.3585 27.6356C86.3585 17.8957 78.4623 10 68.7218 10C58.9812 10 51.085 17.8957 51.085 27.6356C51.085 37.3755 58.9812 45.2712 68.7218 45.2712Z" fill="url(#paint0_radial_1277_2541)"/>
</g>
<path d="M66.4272 34.247C59.1634 31.138 58.308 39.9355 53.3523 41.2252C56.6244 44.66 61.1999 46.8186 66.2913 46.9408C64.2683 43.2617 64.7436 38.4556 66.4272 34.247Z" fill="#1C172A"/>
<path d="M78.8499 29.7259C75.3198 28.5448 69.4545 28.5448 68.2732 34.4233C66.5897 38.632 66.1281 43.4244 68.1375 47.1171C68.2869 47.1171 68.4226 47.1443 68.572 47.1443C75.7 47.1443 81.8912 43.1121 84.9868 37.1929C82.3392 34.5319 82.027 29.7259 78.8364 29.7259H78.8499Z" fill="#1C172A"/>
<path d="M70.1064 17.7518C68.9252 15.4031 64.2274 16.5707 64.2274 14.222C65.3272 9.7961 69.5497 9.53815 72.9847 8.54708C71.0704 7.88184 69.0201 7.50171 66.8885 7.50171C61.8242 7.50171 57.2352 9.53815 53.8816 12.8372C54.4247 13.4617 54.8591 14.1269 55.2257 14.8193C58.62 18.227 64.6076 18.5257 70.0928 17.7382L70.1064 17.7518Z" fill="#1C172A"/>
<path d="M61.254 32.0071C61.2812 31.5184 61.3763 31.0568 61.5256 30.5952C59.9914 29.1018 58.8644 27.2962 58.1584 25.8842C55.796 22.7345 55.538 19.0554 53.8544 15.9192C53.3114 15.3626 52.8226 14.7381 52.4153 14.0186C49.0617 17.3719 46.9844 22.0014 46.9844 27.1197C46.9844 32.2379 48.953 36.5824 52.1301 39.9085C55.9725 38.9039 57.3574 33.4055 61.1726 32.4416C61.1862 32.2922 61.2133 32.1429 61.2405 32.0071H61.254Z" fill="#1C172A"/>
<path d="M77.764 23.3045C78.0355 23.0873 78.3342 22.8972 78.6601 22.7343C79.2168 20.0326 82.1901 18.3356 84.7155 16.3399C82.6518 13.1902 79.6512 10.6921 76.0804 9.2666C75.0078 9.52455 73.8809 9.71463 72.7811 9.97257C70.2965 10.5564 67.9884 11.5203 67.0923 14.5478C71.6135 16.5842 75.3472 19.3402 77.7775 23.3045H77.764Z" fill="#1C172A"/>
<path d="M85.2994 17.2765C81.81 20.2904 77.3568 22.7206 80.5338 28.0153V29.1965C83.7245 29.1965 84.0367 34.0025 86.6843 36.6634C88.0284 34.0975 88.8023 31.1786 88.8023 28.0832C88.8023 24.0511 87.4989 20.3312 85.313 17.2901L85.2994 17.2765Z" fill="#1C172A"/>
<path d="M77.2481 25.409C75.7818 22.7616 73.7724 20.698 71.3828 19.0417C70.6632 19.2182 69.93 19.2861 69.1968 19.2182C64.1597 19.9242 58.9189 19.5984 55.7283 16.6116C57.5205 19.6934 57.9142 23.359 60.3852 26.4137C61.6479 28.7216 64.119 32.1564 67.6898 33.2018C68.6538 27.2825 74.5191 27.0789 78.0899 28.1243L78.0492 26.9567C77.6962 26.4137 77.4518 25.9113 77.2481 25.4226V25.409Z" fill="#1C172A"/>
<path d="M219.062 28.1237C219.062 28.1237 219.062 28.2323 219.049 28.3002C219.062 28.6668 219.049 29.0062 219.008 29.3592C218.94 30.5811 218.723 31.7893 218.397 32.9298C218.37 33.0248 218.343 33.1198 218.316 33.2149C216.13 40.4782 209.409 45.7593 201.439 45.7593C194.827 45.7593 189.07 42.1073 186.056 36.7311C185.812 36.3103 185.594 35.8758 185.391 35.4414C184.386 33.2556 183.816 30.8118 183.802 28.2595V28.1237C183.802 27.1055 183.884 26.128 184.047 25.1641C184.495 22.5032 185.54 20.0594 187.047 17.9415C187.373 17.4935 187.712 17.0591 188.079 16.6382C191.297 12.8776 196.09 10.5017 201.439 10.5017C209.762 10.5017 216.754 16.2716 218.573 24.0509C218.709 24.6211 218.818 25.2184 218.899 25.8158C219.008 26.576 219.062 27.3499 219.062 28.1237Z" fill="url(#paint1_linear_1277_2541)"/>
<path d="M219.062 28.124C219.062 28.124 219.062 28.2326 219.049 28.3005C208.268 22.3405 195.791 25.5309 184.047 25.1643C184.495 22.5034 185.54 20.0597 187.047 17.9418C187.373 17.4937 187.712 17.0593 188.079 16.6384L193.659 16.9099C198.873 17.1815 204.005 18.2947 208.839 20.209L218.573 24.0511C218.709 24.6213 218.818 25.2186 218.899 25.816C219.008 26.5763 219.062 27.3501 219.062 28.124Z" fill="#EAD960"/>
<path d="M219.008 29.3596C218.94 30.5815 218.723 31.7898 218.397 32.9302L208.689 32.4686C200.882 32.0884 193.116 33.5683 186.056 36.7315C185.812 36.3107 185.594 35.8762 185.391 35.4418C184.386 33.256 183.816 30.8123 183.802 28.2599C195.574 27.8662 207.861 24.1735 219.008 29.3596Z" fill="#EAD960"/>
<g opacity="0.75">
<path d="M348.992 27.8749C348.992 38.0168 341.159 46.2384 331.496 46.2384C330.401 46.2384 329.33 46.1329 328.291 45.931C325.379 45.3652 322.72 44.0424 320.506 42.1642C319.29 41.1323 318.208 39.9328 317.292 38.5991C315.22 35.5819 314 31.878 314 27.8749C314 26.2456 314.202 24.6658 314.582 23.1616C316.1 17.1432 320.457 12.3367 326.057 10.416C327.769 9.82893 329.597 9.51147 331.496 9.51147C332.691 9.51147 333.857 9.63712 334.984 9.87651C336.11 10.1155 337.196 10.4678 338.232 10.9216C342.478 12.7822 345.876 16.3488 347.648 20.8054C348.514 22.9814 348.992 25.3696 348.992 27.8749Z" fill="#CEB1E8"/>
<path fill-rule="evenodd" clip-rule="evenodd" d="M338.232 10.9215C342.478 12.7821 345.876 16.3487 347.648 20.8052C346.421 22.5209 344.467 23.6308 342.266 23.6308C338.551 23.6308 335.54 20.47 335.54 16.5711C335.54 14.2606 336.597 12.2094 338.232 10.9215Z" fill="#CEB1E8"/>
<path fill-rule="evenodd" clip-rule="evenodd" d="M320.506 42.1641C323.234 40.329 325.042 37.1188 325.042 33.4654C325.042 27.7635 320.638 23.1411 315.205 23.1411C314.996 23.1411 314.788 23.148 314.582 23.1615C314.202 24.6656 314 26.2454 314 27.8748C314 31.8779 315.22 35.5817 317.292 38.599C318.208 39.9327 319.29 41.1322 320.506 42.1641Z" fill="#CEB1E8"/>
<path fill-rule="evenodd" clip-rule="evenodd" d="M317.292 38.5991C318.208 39.9327 319.29 41.1323 320.506 42.1642C322.72 44.0423 325.379 45.3652 328.292 45.931C328.504 45.2439 328.619 44.5105 328.619 43.7491C328.619 39.8501 325.608 36.6893 321.893 36.6893C320.113 36.6893 318.495 37.4147 317.292 38.5991Z" fill="#CEB1E8"/>
<path fill-rule="evenodd" clip-rule="evenodd" d="M330.524 14.8981C332.994 14.8981 334.995 12.797 334.995 10.2052C334.995 10.0947 334.992 9.9851 334.985 9.87651C333.857 9.63712 332.691 9.51147 331.496 9.51147C329.597 9.51147 327.769 9.82893 326.057 10.416C326.162 12.91 328.122 14.8981 330.524 14.8981Z" fill="#CEB1E8"/>
<path fill-rule="evenodd" clip-rule="evenodd" d="M331.496 14.7869C331.183 14.8597 330.858 14.8981 330.524 14.8981C328.122 14.8981 326.162 12.91 326.057 10.416C327.769 9.82893 329.597 9.51147 331.496 9.51147V14.7869Z" fill="#CEB1E8"/>
<ellipse cx="1.85227" cy="4.1908" rx="1.85227" ry="4.1908" transform="matrix(-0.842874 0.538111 -0.501418 -0.865205 344.742 33.0863)" fill="#CEB1E8"/>
<path d="M330.02 38.5559C328.86 36.5534 328.618 34.4838 329.48 33.9333C330.342 33.3828 331.982 34.5599 333.143 36.5625C334.303 38.565 334.545 40.6346 333.683 41.1851C332.821 41.7356 331.181 40.5584 330.02 38.5559Z" fill="#CEB1E8"/>
<path fill-rule="evenodd" clip-rule="evenodd" d="M329.48 33.9333C328.618 34.4837 328.86 36.5534 330.02 38.5559C330.465 39.3238 330.981 39.9703 331.496 40.4446L331.496 34.5224C330.726 33.8705 329.975 33.6173 329.48 33.9333Z" fill="#CEB1E8"/>
</g>
<defs>
<filter id="filter0_d_1277_2541" x="41.085" y="0" width="55.2737" height="55.2712" filterUnits="userSpaceOnUse" color-interpolation-filters="sRGB">
<feFlood flood-opacity="0" result="BackgroundImageFix"/>
<feColorMatrix in="SourceAlpha" type="matrix" values="0 0 0 0 0 0 0 0 0 0 0 0 0 0 0 0 0 0 127 0" result="hardAlpha"/>
<feOffset/>
<feGaussianBlur stdDeviation="5"/>
<feColorMatrix type="matrix" values="0 0 0 0 1 0 0 0 0 0.498039 0 0 0 0 0 0 0 0 0.75 0"/>
<feBlend mode="normal" in2="BackgroundImageFix" result="effect1_dropShadow_1277_2541"/>
<feBlend mode="normal" in="SourceGraphic" in2="effect1_dropShadow_1277_2541" result="shape"/>
</filter>
<radialGradient id="paint0_radial_1277_2541" cx="0" cy="0" r="1" gradientUnits="userSpaceOnUse" gradientTransform="translate(68.7218 27.6356) scale(17.6368 17.6356)">
<stop offset="0.8" stop-color="#EA6E17"/>
</radialGradient>
<linearGradient id="paint1_linear_1277_2541" x1="183.802" y1="28.1237" x2="219.076" y2="28.1237" gradientUnits="userSpaceOnUse">
<stop offset="1" stop-color="#F17624"/>
</linearGradient>
</defs>
</svg>
