<svg width="393" height="42" viewBox="0 0 393 46" fill="none" xmlns="http://www.w3.org/2000/svg">
<path d="M-58 27.5017H35" stroke="#FFFCEB" stroke-miterlimit="10" stroke-linecap="round"/>
<path d="M90 28.5017H179" stroke="#FFFCEB" stroke-miterlimit="10" stroke-linecap="round"/>
<path d="M225 28.5017L310 28.5017" stroke="#FFFCEB" stroke-width="0.75" stroke-miterlimit="10" stroke-linecap="round" stroke-dasharray="3 3"/>
<path d="M354 27.5017H466.256" stroke="#FFFCEB" stroke-width="0.75" stroke-miterlimit="10" stroke-linecap="round" stroke-dasharray="3 3"/>
<path d="M81.1277 28.1239C81.1277 32.8484 79.2676 37.1385 76.2263 40.3018C75.2895 41.2929 74.244 42.1753 73.09 42.9084C70.3202 44.7141 67.021 45.7595 63.4909 45.7595C61.7258 45.7595 60.0287 45.5015 58.413 45.0128C51.1492 42.827 45.8677 36.0931 45.8677 28.1239C45.8677 26.902 45.9898 25.7073 46.2207 24.5533C46.981 20.9013 48.8682 17.6565 51.4886 15.2128C52.1675 14.5883 52.9007 14.0045 53.6746 13.475C55.8605 12.0224 58.3859 11.0313 61.1013 10.6648C61.8888 10.5561 62.6762 10.5018 63.4909 10.5018C71.4607 10.5018 78.1951 15.783 80.381 23.0328C80.8698 24.6483 81.1277 26.3589 81.1277 28.1239Z" fill="url(#paint0_linear_1277_2438)"/>
<path d="M57.7342 19.6796C57.7342 23.4266 54.6929 26.4677 50.9456 26.4677C49.0991 26.4677 47.4291 25.7346 46.2207 24.5535C46.981 20.9015 48.8683 17.6567 51.4887 15.213C52.1675 14.5885 52.9007 14.0047 53.6746 13.4752C55.1274 14.1133 56.3086 15.2266 57.0146 16.6385C57.4762 17.5481 57.7342 18.5799 57.7342 19.6796Z" fill="#4A79E7"/>
<path d="M61.1281 11.208C61.1281 13.801 59.3902 15.9732 57.0142 16.6385C56.5254 16.7878 56.0095 16.8557 55.48 16.8557C53.905 16.8557 52.5066 16.2312 51.4883 15.213C52.1671 14.5885 52.9003 14.0047 53.6742 13.4752C55.8602 12.0225 58.3855 11.0315 61.101 10.6649C61.1146 10.8414 61.1281 11.0315 61.1281 11.208Z" fill="#4A79E7"/>
<path d="M80.381 23.0328C80.0008 22.9921 79.6342 22.9785 79.254 22.9785C73.7417 22.9785 69.1797 27.065 68.4465 32.3869C67.9849 32.3054 67.5097 32.2647 67.0209 32.2647C61.8888 32.2647 57.7341 36.4326 57.7341 41.5645C57.7341 42.7863 57.9649 43.9539 58.413 45.0128C60.0287 45.5016 61.7258 45.7595 63.4909 45.7595C67.0209 45.7595 70.3202 44.7142 73.09 42.9085C74.244 42.1754 75.2895 41.2929 76.2263 40.3019C79.2676 37.1386 81.1277 32.8485 81.1277 28.1239C81.1277 26.359 80.8697 24.6484 80.381 23.0328Z" fill="url(#paint1_linear_1277_2438)"/>
<path d="M80.5301 18.0097C83.0012 17.3309 88.7851 16.6114 87.889 20.8743C86.6806 24.2141 83.7615 26.1962 81.0597 28.1105C70.8903 34.5321 59.5533 38.5642 47.6189 40.0305C39.4047 41.3609 30.9461 36.0391 43.0434 31.9797C41.4685 33.1473 39.3776 34.3963 38.6987 36.1884C38.6716 36.4056 38.7259 36.4599 38.8073 36.5414C41.2376 38.0755 44.4419 37.3424 47.1709 36.8672C55.4666 35.0616 63.7623 32.1834 71.6642 28.9522C75.0449 27.4453 85.9339 23.1823 86.219 19.4624C84.9427 18.1183 82.3902 18.1591 80.5301 17.9826V18.0097Z" fill="#92B8F2"/>
<path d="M218.243 28.1453C218.243 29.598 218.066 31.0235 217.727 32.3676C216.097 39.0335 210.68 44.1925 203.891 45.4823C202.832 45.6723 201.733 45.781 200.619 45.781C198.094 45.781 195.704 45.2515 193.532 44.3011C191.346 43.3372 189.377 41.9389 187.775 40.2147C184.802 37.065 182.982 32.8156 182.982 28.1453C182.982 18.4111 190.871 10.5233 200.619 10.5233C210.368 10.5233 218.243 18.4111 218.243 28.1453Z" fill="url(#paint2_linear_1277_2438)"/>
<path d="M204.625 11.2023C205.575 13.4695 200.266 13.0351 194.89 15.3023C189.513 17.5695 186.105 21.6696 185.155 19.4023C184.205 17.1351 187.789 13.4695 193.152 11.2023C198.528 8.93502 203.661 8.93502 204.611 11.2023H204.625Z" fill="#8ABF67"/>
<path d="M195.243 12.4244C197.483 13.4291 189.853 18.2351 190.26 24.0457C190.762 30.9697 188.848 32.7074 186.608 31.7028C184.368 30.6981 184.476 25.5663 186.852 20.2444C189.228 14.9225 192.989 11.4198 195.229 12.4244H195.243Z" fill="#8ABF67"/>
<path d="M217.726 32.3677C216.097 39.0337 210.68 44.1927 203.891 45.4824C202.846 43.9483 202.235 42.0883 202.235 40.079C202.235 34.73 206.566 30.4127 211.902 30.4127C214.101 30.4127 216.111 31.1323 217.726 32.3677Z" fill="#8ABF67"/>
<path d="M210.354 13.157L209.227 12.7633L210.558 20.3932C211.209 24.0995 210.069 27.9009 207.503 30.6569L204.475 33.888L216.314 31.9602L217.509 29.0684C218.365 26.9913 218.623 24.724 218.256 22.5247C217.536 18.1938 214.509 14.6097 210.368 13.1706L210.354 13.157Z" fill="#8ABF67"/>
<path d="M214.142 23.5566C214.937 23.5566 215.581 22.9123 215.581 22.1176C215.581 21.3228 214.937 20.6785 214.142 20.6785C213.347 20.6785 212.703 21.3228 212.703 22.1176C212.703 22.9123 213.347 23.5566 214.142 23.5566Z" fill="#1A6235"/>
<path d="M209.363 39.7531C210.158 39.7531 210.802 39.1087 210.802 38.314C210.802 37.5192 210.158 36.8749 209.363 36.8749C208.568 36.8749 207.924 37.5192 207.924 38.314C207.924 39.1087 208.568 39.7531 209.363 39.7531Z" fill="#0F4924"/>
<path d="M189.595 17.6373C190.389 17.6373 191.034 16.993 191.034 16.1982C191.034 15.4035 190.389 14.7592 189.595 14.7592C188.8 14.7592 188.155 15.4035 188.155 16.1982C188.155 16.993 188.8 17.6373 189.595 17.6373Z" fill="#1A6235"/>
<path d="M194.767 41.5724C194.767 42.6585 194.292 43.636 193.532 44.3012C191.346 43.3373 189.377 41.9389 187.775 40.2147C188.318 38.8843 189.622 37.9475 191.142 37.9475C193.138 37.9475 194.767 39.5767 194.767 41.5724Z" fill="#9FDD76"/>
<g opacity="0.75">
<path d="M344.985 14.1267C344.985 14.1267 344.985 14.0995 344.985 14.086C344.985 12.1038 343.383 10.5018 341.401 10.5018C339.419 10.5018 337.816 12.1038 337.816 14.086C337.816 16.0681 339.419 17.6701 341.401 17.6701C341.998 17.6701 342.555 17.5072 343.057 17.2493C343.424 17.7244 343.98 18.0231 344.619 18.0231C345.705 18.0231 346.587 17.1406 346.587 16.0545C346.587 15.0906 345.895 14.2896 344.985 14.1131V14.1267Z" fill="#CEB1E8"/>
<path d="M329.439 46.7504C329.439 46.7504 329.439 46.7775 329.453 46.7911C330.417 48.5153 332.603 49.1262 334.341 48.1623C336.078 47.1984 336.676 45.0126 335.712 43.2749C334.748 41.5371 332.562 40.9397 330.824 41.9037C330.308 42.2023 329.901 42.6096 329.589 43.0848C329.045 42.854 328.407 42.854 327.851 43.1662C326.9 43.6957 326.561 44.904 327.104 45.8544C327.579 46.6961 328.57 47.0491 329.453 46.7504H329.439Z" fill="#CEB1E8"/>
<path d="M332.766 45.773C342.506 45.773 350.402 37.8773 350.402 28.1374C350.402 18.3976 342.506 10.5018 332.766 10.5018C323.025 10.5018 315.129 18.3976 315.129 28.1374C315.129 37.8773 323.025 45.773 332.766 45.773Z" fill="#CEB1E8"/>
<path d="M322.596 12.2668C321.877 12.2668 321.252 12.6741 320.94 13.2851C320.505 13.0543 320.017 12.9185 319.501 12.9185C317.79 12.9185 316.405 14.3033 316.405 16.0139C316.405 16.2583 316.446 16.5027 316.5 16.7334C315.17 17.0321 314.179 18.2133 314.179 19.6252C314.179 20.2633 314.382 20.8606 314.735 21.3358C313.988 21.5259 313.418 22.164 313.418 22.965C313.418 23.9153 314.192 24.6756 315.129 24.6756C316.066 24.6756 316.84 23.9017 316.84 22.965C316.84 22.8156 316.785 22.6799 316.758 22.5441C316.88 22.5577 317.016 22.5848 317.138 22.5848C318.781 22.5848 320.098 21.2544 320.098 19.6252C320.098 19.4351 320.071 19.2451 320.044 19.055C321.497 18.797 322.596 17.5345 322.596 16.0139C323.628 16.0139 324.47 15.1722 324.47 14.1404C324.47 13.1086 323.628 12.2668 322.596 12.2668Z" fill="#CEB1E8"/>
<path d="M340.301 44.3069C340.803 44.3748 341.265 44.1576 341.536 43.7638C341.808 43.9675 342.134 44.1168 342.5 44.1576C343.682 44.3205 344.781 43.5059 344.944 42.3248C344.971 42.1483 344.971 41.9854 344.944 41.8224C345.895 41.7546 346.696 41.035 346.832 40.0575C346.899 39.6095 346.804 39.1886 346.614 38.8221C347.144 38.7678 347.605 38.3741 347.687 37.8174C347.782 37.1658 347.32 36.5548 346.669 36.4598C346.017 36.3648 345.406 36.8264 345.311 37.478C345.297 37.5866 345.311 37.6817 345.324 37.7767C345.243 37.7495 345.148 37.7224 345.067 37.7088C343.94 37.5459 342.894 38.3333 342.731 39.4602C342.718 39.5959 342.704 39.7317 342.718 39.8539C341.686 39.8946 340.803 40.6549 340.654 41.7002C339.934 41.6052 339.283 42.094 339.174 42.8135C339.065 43.533 339.568 44.1847 340.287 44.2933L340.301 44.3069Z" fill="#CEB1E8"/>
<path d="M329.331 20.9015C328.34 21.1052 326.004 21.7297 326.031 22.7208C325.787 22.7072 325.529 22.7072 325.285 22.7479C323.913 23.0194 322.99 24.282 323.085 25.6397C322.651 25.6125 322.216 25.6261 321.782 25.7075C319.093 26.2506 317.342 28.8301 317.804 31.5318C316.745 32.3192 316.174 33.6632 316.446 35.048C316.609 35.8898 317.084 36.5957 317.709 37.098C316.88 37.709 318.089 39.0259 318.306 40.112C318.605 41.6054 320.057 42.5693 321.537 42.2706C323.017 41.9719 323.397 41.1302 323.099 39.6368C323.004 39.1616 322.624 37.8719 322.325 37.5189C323.126 37.1388 323.75 36.4735 324.076 35.659C324.266 35.6454 324.456 35.6454 324.66 35.6047C327.389 35.0616 329.168 32.4006 328.625 29.6718C328.503 29.0337 328.245 28.45 327.905 27.9205C329.018 27.391 329.67 26.1691 329.426 24.9065C329.412 24.8115 330.132 25.0016 330.105 24.9065L329.371 24.635C330.471 24.4178 331.951 23.6168 331.734 22.5035C331.517 21.3903 330.444 20.6843 329.331 20.9015Z" fill="#CEB1E8"/>
<path d="M344.605 28.5449C346.585 28.5449 348.19 26.9402 348.19 24.9607C348.19 22.9813 346.585 21.3766 344.605 21.3766C342.626 21.3766 341.021 22.9813 341.021 24.9607C341.021 26.9402 342.626 28.5449 344.605 28.5449Z" fill="#CEB1E8"/>
<path d="M342.636 30.5134C343.724 30.5134 344.605 29.6321 344.605 28.5449C344.605 27.4577 343.724 26.5763 342.636 26.5763C341.549 26.5763 340.668 27.4577 340.668 28.5449C340.668 29.6321 341.549 30.5134 342.636 30.5134Z" fill="#CEB1E8"/>
<path d="M339.582 34.8987C340.376 34.8987 341.021 34.2544 341.021 33.4596C341.021 32.6648 340.376 32.0205 339.582 32.0205C338.787 32.0205 338.142 32.6648 338.142 33.4596C338.142 34.2544 338.787 34.8987 339.582 34.8987Z" fill="#CEB1E8"/>
</g>
<defs>
<linearGradient id="paint0_linear_1277_2438" x1="50.7147" y1="20.2632" x2="80.7329" y2="38.7423" gradientUnits="userSpaceOnUse">
<stop offset="0.4" stop-color="#26308D"/>
</linearGradient>
<linearGradient id="paint1_linear_1277_2438" x1="59.988" y1="29.5902" x2="81.1543" y2="39.5699" gradientUnits="userSpaceOnUse">
<stop offset="1" stop-color="#4A79E7"/>
</linearGradient>
<linearGradient id="paint2_linear_1277_2438" x1="197.103" y1="17.3929" x2="208.045" y2="50.9268" gradientUnits="userSpaceOnUse">
<stop offset="0.552885" stop-color="#1A6235"/>
</linearGradient>
</defs>
</svg>
