<svg width="859" height="56" viewBox="0 -7 859 56" fill="none" xmlns="http://www.w3.org/2000/svg">
<path d="M59 20H152" stroke="#FFFCEB" stroke-width="0.75" stroke-miterlimit="10" stroke-linecap="round"/>
<path d="M199 20H290" stroke="#FFFCEB" stroke-width="0.75" stroke-miterlimit="10" stroke-linecap="round" stroke-dasharray="3 3"/>
<path d="M336 20H419" stroke="#FFFCEB" stroke-width="0.75" stroke-miterlimit="10" stroke-linecap="round" stroke-dasharray="3 3"/>
<path d="M467 20.1335L552 20.9899" stroke="#FFFCEB" stroke-width="0.75" stroke-miterlimit="10" stroke-linecap="round" stroke-dasharray="3 3"/>
<path d="M604 20.1335L689 20.9899" stroke="#FFFCEB" stroke-width="0.75" stroke-miterlimit="10" stroke-linecap="round" stroke-dasharray="3 3"/>
<path d="M734 20.1335L819 20.9899" stroke="#FFFCEB" stroke-width="0.75" stroke-miterlimit="10" stroke-linecap="round" stroke-dasharray="3 3"/>
<path d="M25.7576 36.271C35.4981 36.271 43.3944 28.3752 43.3944 18.6354C43.3944 8.89549 35.4981 0.999756 25.7576 0.999756C16.017 0.999756 8.12073 8.89549 8.12073 18.6354C8.12073 28.3752 16.017 36.271 25.7576 36.271Z" fill="url(#paint0_linear_1436_10755)"/>
<path d="M40.5568 5.98222C42.9328 4.54313 48.8661 2.52026 48.2823 7.44845C47.7256 10.7068 45.7026 13.1505 43.7339 15.5671C39.7965 20.1559 35.1395 23.9029 30.3196 27.3513C24.1963 31.5057 17.6249 35.5785 10.2389 37.262C1.71237 38.4024 1.59018 33.3656 8.12082 29.4149C6.91245 30.9626 5.21531 32.7275 5.0388 34.6282C5.06596 34.8454 5.13384 34.8861 5.24245 34.954C6.54587 35.4292 8.24301 35.1305 9.60073 34.6961C16.2128 32.198 22.0918 27.9758 27.9979 24.0251C31.5958 21.8257 58.4244 1.6921 40.5568 5.99579V5.98222Z" fill="#A502B3"/>
<path d="M46.5037 13.938C49.2735 13.7479 55.4647 14.8069 52.6542 18.839C50.6312 21.4592 47.7121 22.6675 44.8337 23.8894C39.2127 26.1023 33.3473 27.2428 27.4684 28.0438C20.1096 28.8583 12.3977 29.3878 5.07959 27.4192C-2.98527 24.446 -0.74505 19.9387 6.88535 19.4907C5.09315 20.2917 2.77147 21.0655 1.72602 22.654C1.65813 22.8576 1.68527 22.9255 1.75316 23.0341C2.67641 24.0659 4.31927 24.5954 5.71773 24.8398C12.7236 25.7222 19.8923 24.7311 26.9661 24.0116C31.1886 23.7536 64.3034 18.486 46.5037 13.938Z" fill="#A502B3"/>
<path d="M192.497 20.6225C192.497 25.3471 190.637 29.6372 187.595 32.8005C186.659 33.7915 185.613 34.674 184.459 35.4071C181.689 37.2128 178.39 38.2581 174.86 38.2581C173.095 38.2581 171.398 38.0002 169.782 37.5114C162.518 35.3257 157.237 28.5918 157.237 20.6225C157.237 19.4007 157.359 18.2059 157.59 17.052C158.35 13.3999 160.237 10.1552 162.858 7.71146C163.537 7.08695 164.27 6.50318 165.044 5.9737C167.23 4.52104 169.755 3.52997 172.47 3.16341C173.258 3.0548 174.045 3.00049 174.86 3.00049C182.83 3.00049 189.564 8.28167 191.75 15.5314C192.239 17.147 192.497 18.8576 192.497 20.6225Z" fill="url(#paint1_linear_1436_10755)"/>
<path d="M169.103 12.1779C169.103 15.9249 166.062 18.966 162.315 18.966C160.468 18.966 158.798 18.2329 157.59 17.0518C158.35 13.3997 160.237 10.155 162.858 7.71127C163.537 7.08677 164.27 6.50299 165.044 5.97351C166.497 6.6116 167.678 7.72486 168.384 9.13679C168.845 10.0464 169.103 11.0782 169.103 12.1779Z" fill="#4A79E7"/>
<path d="M172.497 3.70663C172.497 6.2997 170.76 8.47191 168.384 9.13715C167.895 9.28649 167.379 9.35436 166.849 9.35436C165.274 9.35436 163.876 8.72985 162.858 7.71163C163.537 7.08712 164.27 6.50334 165.044 5.97387C167.23 4.5212 169.755 3.53013 172.47 3.16357C172.484 3.34007 172.497 3.53014 172.497 3.70663Z" fill="#4A79E7"/>
<path d="M191.75 15.5314C191.37 15.4906 191.003 15.4771 190.623 15.4771C185.111 15.4771 180.549 19.5635 179.816 24.8854C179.354 24.804 178.879 24.7632 178.39 24.7632C173.258 24.7632 169.103 28.9312 169.103 34.063C169.103 35.2849 169.334 36.4524 169.782 37.5114C171.398 38.0001 173.095 38.2581 174.86 38.2581C178.39 38.2581 181.689 37.2127 184.459 35.4071C185.613 34.6739 186.659 33.7915 187.596 32.8004C190.637 29.6371 192.497 25.347 192.497 20.6225C192.497 18.8575 192.239 17.1469 191.75 15.5314Z" fill="url(#paint2_linear_1436_10755)"/>
<path d="M191.899 10.5084C194.37 9.82957 200.154 9.11003 199.258 13.373C198.05 16.7128 195.131 18.6949 192.429 20.6091C182.26 27.0307 170.923 31.0629 158.988 32.5291C150.774 33.8596 142.315 28.5377 154.413 24.4784C152.838 25.646 150.747 26.895 150.068 28.687C150.041 28.9043 150.095 28.9586 150.177 29.04C152.607 30.5741 155.811 29.841 158.54 29.3659C166.836 27.5602 175.132 24.682 183.033 21.4509C186.414 19.9439 197.303 15.681 197.588 11.9611C196.312 10.617 193.759 10.6577 191.899 10.4812V10.5084Z" fill="#92B8F2"/>
<g opacity="0.75">
<path d="M329.612 20.644C329.612 22.0967 329.435 23.5222 329.096 24.8662C327.467 31.5322 322.049 36.6912 315.261 37.9809C314.202 38.171 313.102 38.2796 311.989 38.2796C309.463 38.2796 307.074 37.7501 304.901 36.7998C302.715 35.8359 300.747 34.4375 299.144 32.7133C296.171 29.5636 294.352 25.3143 294.352 20.644C294.352 10.9098 302.24 3.02197 311.989 3.02197C321.737 3.02197 329.612 10.9098 329.612 20.644Z" fill="#CEB1E8"/>
<path d="M315.994 3.70092C316.944 5.96816 311.636 5.53372 306.259 7.80097C300.882 10.0682 297.475 14.1682 296.524 11.901C295.574 9.63376 299.158 5.96816 304.521 3.70092C309.898 1.43368 315.03 1.43368 315.98 3.70092H315.994Z" fill="#CEB1E8"/>
<path d="M306.612 4.92309C308.852 5.92773 301.222 10.7337 301.629 16.5444C302.132 23.4683 300.217 25.2061 297.977 24.2014C295.737 23.1968 295.845 18.0649 298.221 12.743C300.597 7.42113 304.358 3.91844 306.598 4.92309H306.612Z" fill="#CEB1E8"/>
<path d="M329.096 24.8664C327.466 31.5323 322.049 36.6913 315.261 37.9811C314.215 36.4469 313.604 34.587 313.604 32.5777C313.604 27.2286 317.935 22.9114 323.271 22.9114C325.471 22.9114 327.48 23.6309 329.096 24.8664Z" fill="#CEB1E8"/>
<path d="M321.723 5.65568L320.596 5.26196L321.927 12.8918C322.579 16.5982 321.438 20.3995 318.872 23.1555L315.844 26.3867L327.684 24.4588L328.879 21.5671C329.734 19.4899 329.992 17.2227 329.625 15.0233C328.906 10.6925 325.878 7.10834 321.737 5.66926L321.723 5.65568Z" fill="#CEB1E8"/>
<path d="M325.511 16.0549C326.306 16.0549 326.951 15.4106 326.951 14.6158C326.951 13.8211 326.306 13.1768 325.511 13.1768C324.716 13.1768 324.072 13.8211 324.072 14.6158C324.072 15.4106 324.716 16.0549 325.511 16.0549Z" fill="#CEB1E8"/>
<path d="M320.732 32.2517C321.527 32.2517 322.171 31.6074 322.171 30.8126C322.171 30.0178 321.527 29.3735 320.732 29.3735C319.937 29.3735 319.293 30.0178 319.293 30.8126C319.293 31.6074 319.937 32.2517 320.732 32.2517Z" fill="#CEB1E8"/>
<path d="M300.964 10.136C301.759 10.136 302.403 9.49168 302.403 8.6969C302.403 7.90211 301.759 7.25781 300.964 7.25781C300.169 7.25781 299.525 7.90211 299.525 8.6969C299.525 9.49168 300.169 10.136 300.964 10.136Z" fill="#CEB1E8"/>
<path d="M306.137 34.0707C306.137 35.1568 305.661 36.1343 304.901 36.7995C302.715 35.8356 300.747 34.4372 299.144 32.713C299.687 31.3826 300.991 30.4458 302.512 30.4458C304.507 30.4458 306.137 32.075 306.137 34.0707Z" fill="#CEB1E8"/>
</g>
<g opacity="0.75">
<path d="M456.354 6.62536C456.354 6.62536 456.354 6.59821 456.354 6.58463C456.354 4.60249 454.752 3.00049 452.77 3.00049C450.788 3.00049 449.186 4.60249 449.186 6.58463C449.186 8.56677 450.788 10.1688 452.77 10.1688C453.367 10.1688 453.924 10.0059 454.426 9.74791C454.793 10.2231 455.35 10.5218 455.988 10.5218C457.074 10.5218 457.956 9.63929 457.956 8.55319C457.956 7.58927 457.264 6.78827 456.354 6.61178V6.62536Z" fill="#CEB1E8"/>
<path d="M440.808 39.2489C440.808 39.2489 440.808 39.2761 440.822 39.2896C441.786 41.0138 443.972 41.6248 445.71 40.6609C447.448 39.6969 448.045 37.5112 447.081 35.7734C446.117 34.0356 443.931 33.4383 442.193 34.4022C441.677 34.7009 441.27 35.1082 440.958 35.5833C440.415 35.3525 439.777 35.3525 439.22 35.6648C438.269 36.1943 437.93 37.4026 438.473 38.3529C438.948 39.1946 439.939 39.5476 440.822 39.2489H440.808Z" fill="#CEB1E8"/>
<path d="M444.135 38.2717C453.875 38.2717 461.772 30.376 461.772 20.6361C461.772 10.8962 453.875 3.00049 444.135 3.00049C434.394 3.00049 426.498 10.8962 426.498 20.6361C426.498 30.376 434.394 38.2717 444.135 38.2717Z" fill="#CEB1E8"/>
<path d="M433.966 4.76538C433.246 4.76538 432.621 5.17267 432.309 5.7836C431.875 5.55281 431.386 5.41705 430.87 5.41705C429.159 5.41705 427.774 6.80183 427.774 8.51244C427.774 8.75681 427.815 9.00119 427.869 9.23198C426.539 9.53066 425.548 10.7118 425.548 12.1237C425.548 12.7618 425.751 13.3592 426.104 13.8343C425.358 14.0244 424.787 14.6625 424.787 15.4635C424.787 16.4138 425.561 17.1741 426.498 17.1741C427.435 17.1741 428.209 16.4003 428.209 15.4635C428.209 15.3142 428.154 15.1784 428.127 15.0426C428.249 15.0562 428.385 15.0834 428.507 15.0834C430.15 15.0834 431.467 13.7529 431.467 12.1237C431.467 11.9337 431.44 11.7436 431.413 11.5535C432.866 11.2956 433.966 10.033 433.966 8.51244C434.997 8.51244 435.839 7.67071 435.839 6.63892C435.839 5.60712 434.997 4.76538 433.966 4.76538Z" fill="#CEB1E8"/>
<path d="M451.67 36.8056C452.172 36.8734 452.634 36.6562 452.906 36.2625C453.177 36.4662 453.503 36.6155 453.87 36.6562C455.051 36.8191 456.15 36.0045 456.313 34.8234C456.341 34.6469 456.341 34.484 456.313 34.3211C457.264 34.2532 458.065 33.5337 458.201 32.5562C458.269 32.1082 458.174 31.6873 457.983 31.3207C458.513 31.2664 458.975 30.8727 459.056 30.3161C459.151 29.6644 458.689 29.0535 458.038 28.9585C457.386 28.8634 456.775 29.325 456.68 29.9767C456.666 30.0853 456.68 30.1803 456.694 30.2754C456.612 30.2482 456.517 30.2211 456.436 30.2075C455.309 30.0446 454.263 30.832 454.1 31.9588C454.087 32.0946 454.073 32.2303 454.087 32.3525C453.055 32.3933 452.172 33.1535 452.023 34.1989C451.303 34.1039 450.652 34.5926 450.543 35.3122C450.434 36.0317 450.937 36.6834 451.656 36.792L451.67 36.8056Z" fill="#CEB1E8"/>
<path d="M440.7 13.3998C439.709 13.6035 437.373 14.228 437.401 15.219C437.156 15.2055 436.898 15.2055 436.654 15.2462C435.283 15.5177 434.359 16.7803 434.454 18.1379C434.02 18.1108 433.585 18.1244 433.151 18.2058C430.463 18.7489 428.711 21.3284 429.173 24.0301C428.114 24.8175 427.544 26.1615 427.815 27.5463C427.978 28.3881 428.453 29.094 429.078 29.5963C428.25 30.2073 429.458 31.5242 429.675 32.6103C429.974 34.1037 431.427 35.0676 432.907 34.7689C434.386 34.4702 434.767 33.6285 434.468 32.1351C434.373 31.6599 433.993 30.3702 433.694 30.0172C434.495 29.6371 435.12 28.9718 435.445 28.1573C435.636 28.1437 435.826 28.1437 436.029 28.1029C438.758 27.5599 440.537 24.8989 439.994 22.1701C439.872 21.532 439.614 20.9482 439.274 20.4188C440.388 19.8893 441.039 18.6674 440.795 17.4048C440.781 17.3098 441.501 17.4999 441.474 17.4048L440.741 17.1333C441.84 16.9161 443.32 16.1151 443.103 15.0018C442.886 13.8886 441.813 13.1826 440.7 13.3998Z" fill="#CEB1E8"/>
<path d="M455.974 21.0435C457.954 21.0435 459.559 19.4389 459.559 17.4594C459.559 15.4799 457.954 13.8752 455.974 13.8752C453.995 13.8752 452.39 15.4799 452.39 17.4594C452.39 19.4389 453.995 21.0435 455.974 21.0435Z" fill="#CEB1E8"/>
<path d="M454.005 23.0116C455.093 23.0116 455.974 22.1302 455.974 21.043C455.974 19.9558 455.093 19.0745 454.005 19.0745C452.918 19.0745 452.037 19.9558 452.037 21.043C452.037 22.1302 452.918 23.0116 454.005 23.0116Z" fill="#CEB1E8"/>
<path d="M450.951 27.3972C451.745 27.3972 452.39 26.7529 452.39 25.9581C452.39 25.1633 451.745 24.519 450.951 24.519C450.156 24.519 449.511 25.1633 449.511 25.9581C449.511 26.7529 450.156 27.3972 450.951 27.3972Z" fill="#CEB1E8"/>
</g>
<g opacity="0.75">
<path d="M578.509 37.7695C588.25 37.7695 596.146 29.8738 596.146 20.1339C596.146 10.394 588.25 2.49829 578.509 2.49829C568.769 2.49829 560.872 10.394 560.872 20.1339C560.872 29.8738 568.769 37.7695 578.509 37.7695Z" fill="#CEB1E8"/>
<path d="M576.215 26.7452C568.951 23.6362 568.095 32.4336 563.14 33.7234C566.412 37.1582 570.987 39.3168 576.079 39.439C574.056 35.7598 574.531 30.9538 576.215 26.7452Z" fill="#CEB1E8"/>
<path d="M588.637 22.2242C585.107 21.0431 579.242 21.0431 578.061 26.9216C576.377 31.1303 575.915 35.9227 577.925 39.6154C578.074 39.6154 578.21 39.6426 578.359 39.6426C585.487 39.6426 591.679 35.6104 594.774 29.6912C592.127 27.0302 591.814 22.2242 588.624 22.2242H588.637Z" fill="#CEB1E8"/>
<path d="M579.894 10.2501C578.713 7.9014 574.015 9.06896 574.015 6.72026C575.115 2.29439 579.337 2.03644 582.772 1.04537C580.858 0.380132 578.807 0 576.676 0C571.612 0 567.023 2.03644 563.669 5.33548C564.212 5.95999 564.646 6.62523 565.013 7.31762C568.407 10.7253 574.395 11.024 579.88 10.2365L579.894 10.2501Z" fill="#CEB1E8"/>
<path d="M571.041 24.5054C571.069 24.0167 571.164 23.5551 571.313 23.0935C569.779 21.6001 568.652 19.7945 567.946 18.3825C565.583 15.2328 565.325 11.5537 563.642 8.41753C563.099 7.8609 562.61 7.23639 562.203 6.51685C558.849 9.87019 556.772 14.4997 556.772 19.618C556.772 24.7362 558.74 29.0806 561.917 32.4068C565.76 31.4022 567.145 25.9038 570.96 24.9399C570.974 24.7905 571.001 24.6412 571.028 24.5054H571.041Z" fill="#CEB1E8"/>
<path d="M587.551 15.8028C587.823 15.5856 588.122 15.3955 588.447 15.2326C589.004 12.5309 591.977 10.8339 594.503 8.83815C592.439 5.68845 589.439 3.1904 585.868 1.76489C584.795 2.02284 583.668 2.21292 582.568 2.47087C580.084 3.05465 577.776 4.01857 576.88 7.04608C581.401 9.08253 585.135 11.8385 587.565 15.8028H587.551Z" fill="#CEB1E8"/>
<path d="M595.087 9.77466C591.597 12.7886 587.144 15.2188 590.321 20.5135V21.6946C593.512 21.6946 593.824 26.5007 596.472 29.1616C597.816 26.5957 598.59 23.6768 598.59 20.5814C598.59 16.5492 597.286 12.8293 595.1 9.78824L595.087 9.77466Z" fill="#CEB1E8"/>
<path d="M587.035 17.9073C585.569 15.2599 583.56 13.1963 581.17 11.54C580.451 11.7165 579.717 11.7844 578.984 11.7165C573.947 12.4225 568.706 12.0966 565.516 9.10986C567.308 12.1917 567.702 15.8573 570.173 18.9119C571.435 21.2199 573.906 24.6547 577.477 25.7001C578.441 19.7808 584.306 19.5772 587.877 20.6226L587.837 19.455C587.484 18.912 587.239 18.4096 587.035 17.9209V17.9073Z" fill="#CEB1E8"/>
</g>
<g opacity="0.75">
<path d="M728.85 20.622C728.85 20.622 728.85 20.7306 728.836 20.7985C728.85 21.1651 728.836 21.5045 728.795 21.8575C728.727 23.0793 728.51 24.2876 728.184 25.428C728.157 25.5231 728.13 25.6181 728.103 25.7131C725.917 32.9765 719.196 38.2576 711.226 38.2576C704.614 38.2576 698.858 34.6056 695.843 29.2294C695.599 28.8085 695.382 28.3741 695.178 27.9397C694.173 25.7539 693.603 23.3101 693.59 20.7578V20.622C693.59 19.6038 693.671 18.6263 693.834 17.6624C694.282 15.0014 695.327 12.5577 696.834 10.4398C697.16 9.9918 697.5 9.55736 697.866 9.13649C701.084 5.37586 705.877 3 711.226 3C719.549 3 726.541 8.76993 728.361 16.5491C728.497 17.1194 728.605 17.7167 728.687 18.3141C728.795 19.0743 728.85 19.8482 728.85 20.622Z" fill="#CEB1E8"/>
<path d="M728.85 20.6223C728.85 20.6223 728.85 20.7309 728.836 20.7987C718.056 14.8388 705.578 18.0292 693.834 17.6626C694.282 15.0017 695.327 12.5579 696.834 10.44C697.16 9.99202 697.5 9.55758 697.866 9.13672L703.447 9.40824C708.66 9.67977 713.793 10.793 718.626 12.7073L728.361 16.5494C728.497 17.1196 728.605 17.7169 728.687 18.3143C728.795 19.0746 728.85 19.8484 728.85 20.6223Z" fill="#CEB1E8"/>
<path d="M728.795 21.8578C728.727 23.0796 728.51 24.2879 728.184 25.4283L718.477 24.9667C710.67 24.5866 702.904 26.0664 695.843 29.2297C695.599 28.8088 695.382 28.3744 695.178 27.94C694.173 25.7542 693.603 23.3104 693.59 20.7581C705.361 20.3644 717.648 16.6716 728.795 21.8578Z" fill="#CEB1E8"/>
</g>
<g opacity="0.75">
<path d="M858.842 20.3634C858.842 30.5053 851.008 38.7269 841.346 38.7269C840.251 38.7269 839.18 38.6214 838.141 38.4196C835.229 37.8538 832.57 36.5309 830.356 34.6527C829.139 33.6208 828.057 32.4213 827.142 31.0876C825.07 28.0704 823.85 24.3665 823.85 20.3634C823.85 18.7341 824.052 17.1543 824.431 15.6502C825.95 9.63177 830.306 4.82525 835.907 2.90457C837.619 2.31746 839.447 2 841.346 2C842.54 2 843.707 2.12565 844.834 2.36504C845.959 2.60402 847.046 2.95634 848.081 3.41018C852.327 5.27073 855.725 8.83732 857.498 13.2939C858.364 15.4699 858.842 17.8581 858.842 20.3634Z" fill="#CEB1E8"/>
<path fill-rule="evenodd" clip-rule="evenodd" d="M848.081 3.41003C852.327 5.27059 855.725 8.83718 857.498 13.2937C856.271 15.0094 854.317 16.1193 852.115 16.1193C848.401 16.1193 845.389 12.9586 845.389 9.05958C845.389 6.74915 846.447 4.69794 848.081 3.41003Z" fill="#CEB1E8"/>
<path fill-rule="evenodd" clip-rule="evenodd" d="M830.356 34.6526C833.084 32.8175 834.892 29.6073 834.892 25.954C834.892 20.252 830.488 15.6296 825.055 15.6296C824.845 15.6296 824.637 15.6365 824.431 15.6501C824.052 17.1542 823.85 18.734 823.85 20.3633C823.85 24.3664 825.07 28.0703 827.142 31.0875C828.057 32.4212 829.139 33.6207 830.356 34.6526Z" fill="#CEB1E8"/>
<path fill-rule="evenodd" clip-rule="evenodd" d="M827.142 31.0875C828.057 32.4211 829.139 33.6207 830.356 34.6526C832.57 36.5307 835.229 37.8536 838.141 38.4194C838.354 37.7323 838.469 36.9989 838.469 36.2375C838.469 32.3385 835.457 29.1777 831.742 29.1777C829.963 29.1777 828.345 29.9031 827.142 31.0875Z" fill="#CEB1E8"/>
<path fill-rule="evenodd" clip-rule="evenodd" d="M840.374 7.38661C842.843 7.38661 844.845 5.28554 844.845 2.69373C844.845 2.58323 844.841 2.47363 844.834 2.36504C843.707 2.12565 842.54 2 841.346 2C839.447 2 837.619 2.31746 835.907 2.90457C836.012 5.39853 837.972 7.38661 840.374 7.38661Z" fill="#CEB1E8"/>
<path fill-rule="evenodd" clip-rule="evenodd" d="M841.346 7.27541C841.033 7.34822 840.708 7.38661 840.374 7.38661C837.972 7.38661 836.012 5.39853 835.907 2.90457C837.619 2.31746 839.447 2 841.346 2V7.27541Z" fill="#CEB1E8"/>
<ellipse cx="1.85227" cy="4.1908" rx="1.85227" ry="4.1908" transform="matrix(-0.842874 0.538111 -0.501418 -0.865205 854.591 25.5747)" fill="#CEB1E8"/>
<path d="M839.87 31.0443C838.709 29.0418 838.468 26.9722 839.33 26.4217C840.192 25.8712 841.832 27.0483 842.992 29.0509C844.153 31.0534 844.395 33.123 843.533 33.6735C842.67 34.224 841.03 33.0468 839.87 31.0443Z" fill="#CEB1E8"/>
<path fill-rule="evenodd" clip-rule="evenodd" d="M839.33 26.4218C838.468 26.9723 838.709 29.0419 839.87 31.0444C840.315 31.8123 840.831 32.4588 841.346 32.9331L841.346 27.0109C840.576 26.3591 839.825 26.1058 839.33 26.4218Z" fill="#CEB1E8"/>
</g>
<defs>
<linearGradient id="paint0_linear_1436_10755" x1="11.1077" y1="12.0237" x2="43.2578" y2="26.5248" gradientUnits="userSpaceOnUse">
<stop offset="0.33" stop-color="#622777"/>
</linearGradient>
<linearGradient id="paint1_linear_1436_10755" x1="162.084" y1="12.7618" x2="192.102" y2="31.241" gradientUnits="userSpaceOnUse">
<stop offset="0.4" stop-color="#26308D"/>
</linearGradient>
<linearGradient id="paint2_linear_1436_10755" x1="171.357" y1="22.0887" x2="192.524" y2="32.0684" gradientUnits="userSpaceOnUse">
<stop offset="1" stop-color="#4A79E7"/>
</linearGradient>
</defs>
</svg>
