<svg width="393" height="42" viewBox="0 0 393 42" fill="none" xmlns="http://www.w3.org/2000/svg">
<path d="M-54 21H35" stroke="#FFFCEB" stroke-miterlimit="10" stroke-linecap="round"/>
<path d="M81 21L166 21" stroke="#FFFCEB" stroke-miterlimit="10" stroke-linecap="round"/>
<path d="M213 20H307" stroke="#FFFCEB" stroke-width="0.75" stroke-miterlimit="10" stroke-linecap="round" stroke-dasharray="3 3"/>
<path d="M360 20.1334H472.256" stroke="#FFFCEB" stroke-width="0.75" stroke-miterlimit="10" stroke-linecap="round" stroke-dasharray="3 3"/>
<path d="M74.2425 20.6436C74.2425 22.0963 74.066 23.5218 73.7266 24.8659C72.0973 31.5318 66.68 36.6908 59.8914 37.9806C58.8323 38.1706 57.7326 38.2792 56.6193 38.2792C54.0939 38.2792 51.7043 37.7498 49.5319 36.7994C47.346 35.8355 45.3773 34.4372 43.7752 32.713C40.8018 29.5633 38.9824 25.3139 38.9824 20.6436C38.9824 10.9094 46.8709 3.02161 56.6193 3.02161C66.3677 3.02161 74.2425 10.9094 74.2425 20.6436Z" fill="url(#paint0_linear_1277_2593)"/>
<path d="M60.6246 3.70055C61.575 5.96779 56.2663 5.53336 50.8898 7.8006C45.5132 10.0678 42.1053 14.1679 41.1549 11.9006C40.2045 9.63339 43.7889 5.96779 49.1519 3.70055C54.5285 1.43331 59.6607 1.43331 60.6111 3.70055H60.6246Z" fill="#8ABF67"/>
<path d="M51.2429 4.92272C53.4831 5.92737 45.8527 10.7334 46.26 16.544C46.7624 23.4679 44.848 25.2057 42.6078 24.2011C40.3675 23.1964 40.4761 18.0646 42.8522 12.7427C45.2282 7.42076 48.989 3.91807 51.2293 4.92272H51.2429Z" fill="#8ABF67"/>
<path d="M73.7264 24.866C72.0972 31.532 66.6799 36.6909 59.8912 37.9807C58.8458 36.4466 58.2349 34.5866 58.2349 32.5773C58.2349 27.2283 62.566 22.911 67.9018 22.911C70.1013 22.911 72.1107 23.6306 73.7264 24.866Z" fill="#8ABF67"/>
<path d="M66.3541 5.65531L65.2271 5.2616L66.5577 12.8915C67.2094 16.5978 66.0689 20.3992 63.5028 23.1552L60.4751 26.3863L72.3145 24.4585L73.5093 21.5667C74.3646 19.4896 74.6226 17.2223 74.256 15.023C73.5364 10.6921 70.5087 7.10798 66.3676 5.66889L66.3541 5.65531Z" fill="#8ABF67"/>
<path d="M70.1421 16.0549C70.9369 16.0549 71.5812 15.4106 71.5812 14.6158C71.5812 13.8211 70.9369 13.1768 70.1421 13.1768C69.3472 13.1768 68.7029 13.8211 68.7029 14.6158C68.7029 15.4106 69.3472 16.0549 70.1421 16.0549Z" fill="#1A6235"/>
<path d="M65.363 32.2513C66.1579 32.2513 66.8022 31.607 66.8022 30.8123C66.8022 30.0175 66.1579 29.3732 65.363 29.3732C64.5682 29.3732 63.9238 30.0175 63.9238 30.8123C63.9238 31.607 64.5682 32.2513 65.363 32.2513Z" fill="#0F4924"/>
<path d="M45.5945 10.1356C46.3894 10.1356 47.0337 9.49132 47.0337 8.69653C47.0337 7.90174 46.3894 7.25745 45.5945 7.25745C44.7997 7.25745 44.1553 7.90174 44.1553 8.69653C44.1553 9.49132 44.7997 10.1356 45.5945 10.1356Z" fill="#1A6235"/>
<path d="M50.7674 34.0707C50.7674 35.1568 50.2922 36.1343 49.5319 36.7995C47.3459 35.8356 45.3773 34.4372 43.7751 32.713C44.3182 31.3826 45.6216 30.4458 47.1423 30.4458C49.1381 30.4458 50.7674 32.075 50.7674 34.0707Z" fill="#9FDD76"/>
<path d="M200.985 6.62499C200.985 6.62499 200.985 6.59784 200.985 6.58426C200.985 4.60212 199.383 3.00012 197.401 3.00012C195.419 3.00012 193.816 4.60212 193.816 6.58426C193.816 8.5664 195.419 10.1684 197.401 10.1684C197.998 10.1684 198.555 10.0055 199.057 9.74754C199.424 10.2227 199.98 10.5214 200.619 10.5214C201.705 10.5214 202.587 9.63893 202.587 8.55282C202.587 7.5889 201.895 6.7879 200.985 6.61141V6.62499Z" fill="#FCFBE2"/>
<path d="M185.439 39.2487C185.439 39.2487 185.439 39.2758 185.453 39.2894C186.417 41.0136 188.603 41.6245 190.341 40.6606C192.078 39.6967 192.676 37.5109 191.712 35.7732C190.748 34.0354 188.562 33.438 186.824 34.4019C186.308 34.7006 185.901 35.1079 185.589 35.5831C185.045 35.3523 184.407 35.3523 183.851 35.6645C182.9 36.194 182.561 37.4023 183.104 38.3526C183.579 39.1944 184.57 39.5474 185.453 39.2487H185.439Z" fill="#FCFBE2"/>
<path d="M188.766 38.2713C198.506 38.2713 206.402 30.3756 206.402 20.6357C206.402 10.8958 198.506 3.00012 188.766 3.00012C179.025 3.00012 171.129 10.8958 171.129 20.6357C171.129 30.3756 179.025 38.2713 188.766 38.2713Z" fill="url(#paint1_linear_1277_2593)"/>
<path d="M178.596 4.76514C177.877 4.76514 177.252 5.17243 176.94 5.78336C176.505 5.55256 176.017 5.4168 175.501 5.4168C173.79 5.4168 172.405 6.80158 172.405 8.5122C172.405 8.75657 172.446 9.00094 172.5 9.23174C171.17 9.53042 170.179 10.7116 170.179 12.1235C170.179 12.7616 170.382 13.3589 170.735 13.8341C169.988 14.0242 169.418 14.6623 169.418 15.4633C169.418 16.4136 170.192 17.1739 171.129 17.1739C172.066 17.1739 172.84 16.4 172.84 15.4633C172.84 15.3139 172.785 15.1782 172.758 15.0424C172.88 15.056 173.016 15.0831 173.138 15.0831C174.781 15.0831 176.098 13.7527 176.098 12.1235C176.098 11.9334 176.071 11.7434 176.044 11.5533C177.497 11.2953 178.596 10.0327 178.596 8.5122C179.628 8.5122 180.47 7.67047 180.47 6.63867C180.47 5.60687 179.628 4.76514 178.596 4.76514Z" fill="#FCFBE2"/>
<path d="M196.301 36.8052C196.803 36.8731 197.265 36.6559 197.536 36.2621C197.808 36.4658 198.134 36.6151 198.5 36.6559C199.682 36.8188 200.781 36.0042 200.944 34.823C200.971 34.6466 200.971 34.4836 200.944 34.3207C201.895 34.2528 202.696 33.5333 202.832 32.5558C202.899 32.1078 202.804 31.6869 202.614 31.3204C203.144 31.2661 203.605 30.8723 203.687 30.3157C203.782 29.6641 203.32 29.0531 202.669 28.9581C202.017 28.8631 201.406 29.3246 201.311 29.9763C201.297 30.0849 201.311 30.18 201.324 30.275C201.243 30.2478 201.148 30.2207 201.067 30.2071C199.94 30.0442 198.894 30.8316 198.731 31.9585C198.718 32.0942 198.704 32.23 198.718 32.3522C197.686 32.3929 196.803 33.1532 196.654 34.1985C195.934 34.1035 195.283 34.5922 195.174 35.3118C195.065 36.0313 195.568 36.683 196.287 36.7916L196.301 36.8052Z" fill="#FCFBE2"/>
<path d="M185.331 13.3998C184.34 13.6035 182.004 14.228 182.031 15.219C181.787 15.2055 181.529 15.2055 181.285 15.2462C179.913 15.5177 178.99 16.7803 179.085 18.1379C178.651 18.1108 178.216 18.1244 177.782 18.2058C175.093 18.7489 173.342 21.3284 173.804 24.0301C172.745 24.8175 172.174 26.1615 172.446 27.5463C172.609 28.3881 173.084 29.094 173.709 29.5963C172.88 30.2073 174.089 31.5242 174.306 32.6103C174.605 34.1037 176.057 35.0676 177.537 34.7689C179.017 34.4702 179.397 33.6285 179.099 32.1351C179.004 31.6599 178.624 30.3702 178.325 30.0172C179.126 29.6371 179.75 28.9718 180.076 28.1573C180.266 28.1437 180.456 28.1437 180.66 28.1029C183.389 27.5599 185.168 24.8989 184.625 22.1701C184.503 21.532 184.245 20.9482 183.905 20.4188C185.018 19.8893 185.67 18.6674 185.426 17.4048C185.412 17.3098 186.132 17.4999 186.105 17.4048L185.371 17.1333C186.471 16.9161 187.951 16.1151 187.734 15.0018C187.517 13.8886 186.444 13.1826 185.331 13.3998Z" fill="#FCFBE2"/>
<path d="M200.605 21.0432C202.585 21.0432 204.19 19.4385 204.19 17.459C204.19 15.4796 202.585 13.8749 200.605 13.8749C198.626 13.8749 197.021 15.4796 197.021 17.459C197.021 19.4385 198.626 21.0432 200.605 21.0432Z" fill="#FCFBE2"/>
<path d="M198.636 23.0117C199.724 23.0117 200.605 22.1304 200.605 21.0432C200.605 19.9559 199.724 19.0746 198.636 19.0746C197.549 19.0746 196.668 19.9559 196.668 21.0432C196.668 22.1304 197.549 23.0117 198.636 23.0117Z" fill="#FCFBE2"/>
<path d="M195.582 27.397C196.376 27.397 197.021 26.7527 197.021 25.9579C197.021 25.1631 196.376 24.5188 195.582 24.5188C194.787 24.5188 194.142 25.1631 194.142 25.9579C194.142 26.7527 194.787 27.397 195.582 27.397Z" fill="#FCFBE2"/>
<g opacity="0.75">
<path d="M335.737 37.7695C345.478 37.7695 353.374 29.8738 353.374 20.1339C353.374 10.394 345.478 2.49829 335.737 2.49829C325.997 2.49829 318.101 10.394 318.101 20.1339C318.101 29.8738 325.997 37.7695 335.737 37.7695Z" fill="#CEB1E8"/>
<path d="M333.443 26.7453C326.179 23.6363 325.324 32.4338 320.368 33.7235C323.64 37.1583 328.216 39.3169 333.307 39.4391C331.284 35.7599 331.759 30.9539 333.443 26.7453Z" fill="#CEB1E8"/>
<path d="M345.865 22.2242C342.335 21.0431 336.47 21.0431 335.289 26.9216C333.605 31.1303 333.144 35.9227 335.153 39.6154C335.302 39.6154 335.438 39.6426 335.588 39.6426C342.716 39.6426 348.907 35.6104 352.002 29.6912C349.355 27.0302 349.043 22.2242 345.852 22.2242H345.865Z" fill="#CEB1E8"/>
<path d="M337.122 10.2501C335.941 7.9014 331.243 9.06896 331.243 6.72026C332.343 2.29439 336.565 2.03644 340 1.04537C338.086 0.380132 336.036 0 333.904 0C328.84 0 324.251 2.03644 320.897 5.33548C321.44 5.95999 321.875 6.62523 322.241 7.31762C325.636 10.7253 331.623 11.024 337.108 10.2365L337.122 10.2501Z" fill="#CEB1E8"/>
<path d="M328.27 24.5054C328.297 24.0167 328.392 23.5551 328.541 23.0935C327.007 21.6001 325.88 19.7945 325.174 18.3825C322.812 15.2328 322.554 11.5537 320.87 8.41753C320.327 7.8609 319.838 7.23639 319.431 6.51685C316.077 9.87019 314 14.4997 314 19.618C314 24.7362 315.969 29.0806 319.146 32.4068C322.988 31.4022 324.373 25.9038 328.188 24.9399C328.202 24.7905 328.229 24.6412 328.256 24.5054H328.27Z" fill="#CEB1E8"/>
<path d="M344.78 15.8028C345.051 15.5856 345.35 15.3955 345.676 15.2326C346.232 12.5309 349.206 10.8339 351.731 8.83815C349.667 5.68845 346.667 3.1904 343.096 1.76489C342.023 2.02284 340.897 2.21292 339.797 2.47087C337.312 3.05465 335.004 4.01857 334.108 7.04608C338.629 9.08253 342.363 11.8385 344.793 15.8028H344.78Z" fill="#CEB1E8"/>
<path d="M352.315 9.77478C348.826 12.7887 344.372 15.2189 347.549 20.5136V21.6948C350.74 21.6948 351.052 26.5008 353.7 29.1617C355.044 26.5958 355.818 23.6769 355.818 20.5815C355.818 16.5494 354.515 12.8294 352.329 9.78836L352.315 9.77478Z" fill="#CEB1E8"/>
<path d="M344.264 17.9073C342.797 15.2599 340.788 13.1963 338.398 11.54C337.679 11.7165 336.946 11.7844 336.212 11.7165C331.175 12.4225 325.935 12.0966 322.744 9.10986C324.536 12.1917 324.93 15.8573 327.401 18.9119C328.664 21.2199 331.135 24.6547 334.705 25.7001C335.669 19.7808 341.535 19.5772 345.106 20.6226L345.065 19.455C344.712 18.912 344.467 18.4096 344.264 17.9209V17.9073Z" fill="#CEB1E8"/>
</g>
<defs>
<linearGradient id="paint0_linear_1277_2593" x1="53.1027" y1="9.89121" x2="64.0446" y2="43.4251" gradientUnits="userSpaceOnUse">
<stop offset="0.552885" stop-color="#1A6235"/>
</linearGradient>
<linearGradient id="paint1_linear_1277_2593" x1="175.433" y1="10.1141" x2="203.115" y2="31.9602" gradientUnits="userSpaceOnUse">
<stop offset="0.5" stop-color="#EDC887"/>
</linearGradient>
</defs>
</svg>
