<svg width="98" height="35" viewBox="0 0 98 35" fill="none" xmlns="http://www.w3.org/2000/svg">
<rect x="1.40259" y="1.40259" width="95" height="31.2238" rx="15.6119" fill="#401A79" stroke="url(#paint0_linear_643_6477)" stroke-width="2.80529"/>
<path d="M24.2025 2.80579H38.0613L23.7554 31.2229H9.89661L24.2025 2.80579Z" fill="#894697" fill-opacity="0.49"/>
<path d="M32.1856 21.951C31.9897 21.951 31.8202 21.8832 31.677 21.7475C31.5339 21.6119 31.4623 21.4537 31.4623 21.2729V13.3168C31.4623 13.1209 31.5376 12.9514 31.6883 12.8082C31.8465 12.6575 32.0311 12.5822 32.2421 12.5822C32.4756 12.5822 32.6715 12.6839 32.8298 12.8873L37.9153 19.1482L38.0058 19.3291V13.1698C38.0058 12.989 38.0773 12.8308 38.2205 12.6952C38.3636 12.5596 38.5331 12.4918 38.729 12.4918C38.9249 12.4918 39.0944 12.5596 39.2376 12.6952C39.3883 12.8308 39.4636 12.989 39.4636 13.1698V21.0695C39.4636 21.2653 39.3845 21.4386 39.2263 21.5893C39.0681 21.7325 38.8835 21.804 38.6725 21.804C38.5671 21.804 38.4616 21.7777 38.3561 21.7249C38.2506 21.6647 38.1602 21.5893 38.0849 21.4989L33.0106 15.2719L32.9202 15.0798V21.2729C32.9202 21.4537 32.8448 21.6119 32.6941 21.7475C32.551 21.8832 32.3815 21.951 32.1856 21.951ZM48.6421 19.4986C48.8305 19.4986 48.9887 19.5664 49.1168 19.702C49.2524 19.8301 49.3202 19.9883 49.3202 20.1767C49.3202 20.3575 49.2562 20.5195 49.1281 20.6626C48.7815 21.0318 48.2956 21.3369 47.6702 21.578C47.0449 21.8116 46.4233 21.9284 45.8055 21.9284C44.9089 21.9284 44.099 21.7325 43.3757 21.3407C42.6524 20.9489 42.0836 20.3989 41.6692 19.6907C41.2548 18.9825 41.0477 18.1688 41.0477 17.2496C41.0477 16.338 41.2548 15.5243 41.6692 14.8085C42.0836 14.0928 42.6524 13.539 43.3757 13.1472C44.099 12.7479 44.9089 12.5483 45.8055 12.5483C46.4233 12.5483 47.0411 12.6726 47.6589 12.9212C48.2767 13.1698 48.7627 13.4976 49.1168 13.9044C49.2449 14.0551 49.3089 14.2171 49.3089 14.3904C49.3089 14.5787 49.2411 14.7407 49.1055 14.8763C48.9699 15.0044 48.8079 15.0685 48.6195 15.0685C48.5291 15.0685 48.4387 15.0496 48.3483 15.012C48.2579 14.9743 48.1863 14.9215 48.1336 14.8537C47.9151 14.59 47.5911 14.3829 47.1617 14.2322C46.7322 14.0815 46.2802 14.0061 45.8055 14.0061C44.9692 14.0061 44.2648 14.2171 43.6922 14.639C43.1271 15.0534 42.7617 15.6373 42.5959 16.3907H46.1219C46.3103 16.3907 46.4685 16.4585 46.5966 16.5941C46.7322 16.7222 46.8 16.8804 46.8 17.0688C46.8 17.2572 46.7322 17.4191 46.5966 17.5548C46.4685 17.6828 46.3103 17.7469 46.1219 17.7469H42.5394C42.6374 18.5982 42.9802 19.2688 43.5679 19.7585C44.1631 20.2407 44.9089 20.4818 45.8055 20.4818C46.3254 20.4818 46.8 20.414 47.2295 20.2784C47.6589 20.1428 47.9603 19.9657 48.1336 19.7472C48.1939 19.6719 48.2692 19.6116 48.3596 19.5664C48.4576 19.5212 48.5517 19.4986 48.6421 19.4986ZM58.4165 20.8095C58.5069 20.9225 58.5522 21.0544 58.5522 21.2051C58.5522 21.3934 58.4843 21.5554 58.3487 21.691C58.2206 21.8191 58.0624 21.8832 57.8741 21.8832C57.6631 21.8832 57.4785 21.7927 57.3203 21.6119L54.5063 18.1876L51.7601 21.6006C51.5943 21.789 51.406 21.8832 51.195 21.8832C51.0066 21.8832 50.8447 21.8191 50.709 21.691C50.581 21.5554 50.5169 21.3934 50.5169 21.2051C50.5169 21.0619 50.5584 20.9301 50.6412 20.8095L53.6248 17.1027L50.8221 13.6897C50.7316 13.5767 50.6864 13.4448 50.6864 13.2942C50.6864 13.1058 50.7505 12.9476 50.8786 12.8195C51.0142 12.6839 51.1762 12.6161 51.3645 12.6161C51.5755 12.6161 51.7601 12.7065 51.9183 12.8873L54.495 16.0291L57.0265 12.8873C57.0943 12.8044 57.1772 12.7404 57.2751 12.6952C57.3806 12.6424 57.4861 12.6161 57.5915 12.6161C57.7799 12.6161 57.9381 12.6839 58.0662 12.8195C58.2018 12.9476 58.2696 13.1058 58.2696 13.2942C58.2696 13.4448 58.2244 13.5767 58.134 13.6897L55.3765 17.1027L58.4165 20.8095ZM66.3846 12.7291C66.5729 12.7291 66.7312 12.7969 66.8592 12.9325C66.9948 13.0606 67.0627 13.2188 67.0627 13.4072C67.0627 13.5955 66.9948 13.7575 66.8592 13.8931C66.7312 14.0212 66.5729 14.0853 66.3846 14.0853H64.0904V21.2503C64.0904 21.4386 64.0151 21.6006 63.8644 21.7362C63.7212 21.8643 63.5517 21.9284 63.3558 21.9284C63.1599 21.9284 62.9904 21.8643 62.8473 21.7362C62.7041 21.6006 62.6325 21.4386 62.6325 21.2503V14.0853H60.3271C60.1387 14.0853 59.9767 14.0212 59.8411 13.8931C59.713 13.7575 59.649 13.5955 59.649 13.4072C59.649 13.2188 59.713 13.0606 59.8411 12.9325C59.9767 12.7969 60.1387 12.7291 60.3271 12.7291H66.3846Z" fill="white"/>
<defs>
<linearGradient id="paint0_linear_643_6477" x1="1.40259" y1="17.0145" x2="96.4026" y2="17.0145" gradientUnits="userSpaceOnUse">
<stop stop-color="#A315D6"/>
<stop offset="0.514423" stop-color="#FDAB60"/>
<stop offset="1" stop-color="#A315D6"/>
</linearGradient>
</defs>
</svg>
