<svg width="321" height="253" viewBox="0 0 321 253" fill="none" xmlns="http://www.w3.org/2000/svg">
<g filter="url(#filter0_d_750_7743)">
<path d="M8 218.08V2C8 0.895431 8.89543 0 10 0H131.044C131.512 0 131.965 0.163882 132.324 0.463155L158.829 22.5368C159.189 22.8361 159.642 23 160.109 23H319C320.105 23 321 23.8954 321 25V251C321 252.105 320.105 253 319 253H40.2878C39.7285 253 39.1947 252.766 38.816 252.354L8.52817 219.434C8.18852 219.065 8 218.582 8 218.08Z" fill="#E936F8"/>
<path d="M131.044 2L157.55 24.0732C158.269 24.6718 159.174 25 160.109 25H319V251H40.2881L10 218.08V2H131.044Z" stroke="#FFD52E" stroke-opacity="0.5" stroke-width="4"/>
</g>
<defs>
<filter id="filter0_d_750_7743" x="0" y="0" width="321" height="253" filterUnits="userSpaceOnUse" color-interpolation-filters="sRGB">
<feFlood flood-opacity="0" result="BackgroundImageFix"/>
<feColorMatrix in="SourceAlpha" type="matrix" values="0 0 0 0 0 0 0 0 0 0 0 0 0 0 0 0 0 0 127 0" result="hardAlpha"/>
<feOffset dx="-8"/>
<feComposite in2="hardAlpha" operator="out"/>
<feColorMatrix type="matrix" values="0 0 0 0 0.913725 0 0 0 0 0.211765 0 0 0 0 0.422353 0 0 0 1 0"/>
<feBlend mode="normal" in2="BackgroundImageFix" result="effect1_dropShadow_750_7743"/>
<feBlend mode="normal" in="SourceGraphic" in2="effect1_dropShadow_750_7743" result="shape"/>
</filter>
</defs>
</svg>
