<svg width="29" height="34" viewBox="0 0 29 34" fill="none" xmlns="http://www.w3.org/2000/svg">
<path fill-rule="evenodd" clip-rule="evenodd" d="M1.7 5.1C1.7 2.28335 3.98335 0 6.8 0H23.8C26.6167 0 28.9 2.28335 28.9 5.1V28.9C28.9 31.7167 26.6167 34 23.8 34H6.8C3.98335 34 1.7 31.7167 1.7 28.9C1.7 27.9611 2.46112 27.2 3.4 27.2C4.33888 27.2 5.1 27.9611 5.1 28.9C5.1 29.8389 5.86112 30.6 6.8 30.6H23.8C24.7389 30.6 25.5 29.8389 25.5 28.9V5.1C25.5 4.16112 24.7389 3.4 23.8 3.4H6.8C5.86112 3.4 5.1 4.16112 5.1 5.1C5.1 6.03888 4.33888 6.8 3.4 6.8C2.46112 6.8 1.7 6.03888 1.7 5.1ZM9.70209 8.99791C10.366 9.66181 10.366 10.7382 9.70209 11.4021L5.80416 15.3H20.4C21.3389 15.3 22.1 16.0611 22.1 17C22.1 17.9389 21.3389 18.7 20.4 18.7H5.80416L9.70209 22.5979C10.366 23.2618 10.366 24.3382 9.70209 25.0021C9.03819 25.6659 7.96181 25.6659 7.29791 25.0021L0.497913 18.2021C-0.165971 17.5382 -0.165971 16.4618 0.497913 15.7979L7.29791 8.99791C7.96181 8.33403 9.03819 8.33403 9.70209 8.99791Z" fill="white"/>
</svg>
