<svg width="370" height="176" viewBox="0 0 370 176" fill="none" xmlns="http://www.w3.org/2000/svg">
<g filter="url(#filter0_f_750_7931)">
<path d="M17.83 47.55C20.23 47.55 22.11 48.12 23.47 49.26C24.85 50.4 25.54 51.98 25.54 54C25.54 55.4 25.23 56.62 24.61 57.66C23.99 58.7 23.1 59.51 21.94 60.09C20.8 60.65 19.45 60.93 17.89 60.93H13.87V70.35C13.87 70.85 13.67 71.28 13.27 71.64C12.89 71.98 12.44 72.15 11.92 72.15C11.4 72.15 10.95 71.98 10.57 71.64C10.19 71.28 10 70.85 10 70.35V49.53C10 49.01 10.18 48.57 10.54 48.21C10.92 47.85 11.4 47.65 11.98 47.61C12.66 47.59 13.61 47.58 14.83 47.58C16.05 47.56 17.05 47.55 17.83 47.55ZM17.89 57.33C19.13 57.33 20.07 57.06 20.71 56.52C21.37 55.98 21.7 55.24 21.7 54.3C21.7 53.46 21.37 52.77 20.71 52.23C20.07 51.69 19.11 51.42 17.83 51.42L13.87 51.45V57.33H17.89ZM42.76 69.27C42.96 69.43 43.17 69.68 43.39 70.02C43.63 70.36 43.75 70.68 43.75 70.98C43.75 71.48 43.58 71.88 43.24 72.18C42.9 72.48 42.47 72.63 41.95 72.63C41.45 72.63 41.08 72.55 40.84 72.39C40.04 71.95 39.46 71.36 39.1 70.62C38.74 69.86 38.48 68.77 38.32 67.35C38.26 66.75 38.2 66.05 38.14 65.25C38.08 64.43 38.03 63.76 37.99 63.24C37.95 62.3 37.43 61.59 36.43 61.11C35.45 60.63 34.25 60.39 32.83 60.39H30.85V70.62C30.85 71.12 30.67 71.55 30.31 71.91C29.97 72.25 29.55 72.42 29.05 72.42C28.55 72.42 28.12 72.25 27.76 71.91C27.42 71.55 27.25 71.12 27.25 70.62V49.53C27.25 48.97 27.42 48.52 27.76 48.18C28.1 47.84 28.54 47.65 29.08 47.61C29.76 47.59 30.71 47.58 31.93 47.58C33.15 47.56 34.16 47.55 34.96 47.55C36.46 47.55 37.79 47.82 38.95 48.36C40.13 48.9 41.04 49.66 41.68 50.64C42.34 51.62 42.67 52.74 42.67 54C42.67 56.56 41.39 58.27 38.83 59.13C40.53 59.85 41.45 61.12 41.59 62.94L41.71 64.32C41.75 64.96 41.82 65.85 41.92 66.99C42.04 68.19 42.32 68.95 42.76 69.27ZM30.85 57.06H34.93C36.37 57.06 37.42 56.83 38.08 56.37C38.74 55.91 39.07 55.12 39.07 54C39.07 53.1 38.71 52.4 37.99 51.9C37.27 51.4 36.26 51.15 34.96 51.15H30.85V57.06ZM57.7813 72.87C55.4613 72.87 53.3713 72.34 51.5113 71.28C49.6513 70.2 48.1813 68.7 47.1013 66.78C46.0413 64.86 45.5113 62.67 45.5113 60.21C45.5113 57.75 46.0413 55.56 47.1013 53.64C48.1813 51.72 49.6513 50.23 51.5113 49.17C53.3713 48.09 55.4613 47.55 57.7813 47.55C60.1013 47.55 62.1913 48.09 64.0513 49.17C65.9113 50.23 67.3713 51.72 68.4313 53.64C69.4913 55.56 70.0213 57.75 70.0213 60.21C70.0213 62.67 69.4913 64.86 68.4313 66.78C67.3713 68.7 65.9113 70.2 64.0513 71.28C62.1913 72.34 60.1013 72.87 57.7813 72.87ZM57.7813 69C59.3813 69 60.8113 68.64 62.0713 67.92C63.3513 67.18 64.3513 66.15 65.0713 64.83C65.7913 63.49 66.1513 61.95 66.1513 60.21C66.1513 58.47 65.7913 56.94 65.0713 55.62C64.3513 54.28 63.3513 53.25 62.0713 52.53C60.8113 51.79 59.3813 51.42 57.7813 51.42C56.1813 51.42 54.7413 51.79 53.4613 52.53C52.1813 53.25 51.1813 54.28 50.4613 55.62C49.7413 56.94 49.3813 58.47 49.3813 60.21C49.3813 61.95 49.7413 63.49 50.4613 64.83C51.1813 66.15 52.1813 67.18 53.4613 67.92C54.7413 68.64 56.1813 69 57.7813 69ZM76.307 51.48V56.64H83.507C84.007 56.64 84.427 56.82 84.767 57.18C85.127 57.52 85.307 57.94 85.307 58.44C85.307 58.94 85.127 59.37 84.767 59.73C84.427 60.07 84.007 60.24 83.507 60.24H76.307V70.59C76.307 71.09 76.127 71.52 75.767 71.88C75.427 72.22 75.007 72.39 74.507 72.39C74.007 72.39 73.577 72.22 73.217 71.88C72.877 71.52 72.707 71.09 72.707 70.59V49.8C72.707 49.24 72.887 48.78 73.247 48.42C73.607 48.06 74.067 47.88 74.627 47.88H84.587C85.087 47.88 85.507 48.06 85.847 48.42C86.207 48.76 86.387 49.18 86.387 49.68C86.387 50.18 86.207 50.61 85.847 50.97C85.507 51.31 85.087 51.48 84.587 51.48H76.307ZM93.2781 70.62C93.2781 71.12 93.0981 71.55 92.7381 71.91C92.3981 72.25 91.9781 72.42 91.4781 72.42C90.9781 72.42 90.5481 72.25 90.1881 71.91C89.8481 71.55 89.6781 71.12 89.6781 70.62V49.35C89.6781 48.85 89.8481 48.43 90.1881 48.09C90.5481 47.73 90.9781 47.55 91.4781 47.55C91.9781 47.55 92.3981 47.73 92.7381 48.09C93.0981 48.43 93.2781 48.85 93.2781 49.35V70.62ZM107.148 68.49C107.648 68.49 108.068 68.67 108.408 69.03C108.768 69.37 108.948 69.79 108.948 70.29C108.948 70.79 108.768 71.22 108.408 71.58C108.068 71.92 107.648 72.09 107.148 72.09H99.1075C98.5475 72.09 98.0875 71.91 97.7275 71.55C97.3675 71.19 97.1875 70.73 97.1875 70.17V49.38C97.1875 48.88 97.3575 48.46 97.6975 48.12C98.0575 47.76 98.4875 47.58 98.9875 47.58C99.4875 47.58 99.9075 47.76 100.248 48.12C100.608 48.46 100.788 48.88 100.788 49.38V68.49H107.148ZM130.921 65.97C131.421 65.97 131.841 66.15 132.181 66.51C132.541 66.85 132.721 67.27 132.721 67.77C132.721 68.25 132.551 68.68 132.211 69.06C131.291 70.04 130.001 70.85 128.341 71.49C126.681 72.11 125.031 72.42 123.391 72.42C121.011 72.42 118.861 71.9 116.941 70.86C115.021 69.82 113.511 68.36 112.411 66.48C111.311 64.6 110.761 62.44 110.761 60C110.761 57.58 111.311 55.42 112.411 53.52C113.511 51.62 115.021 50.15 116.941 49.11C118.861 48.05 121.011 47.52 123.391 47.52C125.031 47.52 126.671 47.85 128.311 48.51C129.951 49.17 131.241 50.04 132.181 51.12C132.521 51.52 132.691 51.95 132.691 52.41C132.691 52.91 132.511 53.34 132.151 53.7C131.791 54.04 131.361 54.21 130.861 54.21C130.621 54.21 130.381 54.16 130.141 54.06C129.901 53.96 129.711 53.82 129.571 53.64C128.991 52.94 128.131 52.39 126.991 51.99C125.851 51.59 124.651 51.39 123.391 51.39C121.171 51.39 119.301 51.95 117.781 53.07C116.281 54.17 115.311 55.72 114.871 57.72H124.231C124.731 57.72 125.151 57.9 125.491 58.26C125.851 58.6 126.031 59.02 126.031 59.52C126.031 60.02 125.851 60.45 125.491 60.81C125.151 61.15 124.731 61.32 124.231 61.32H114.721C114.981 63.58 115.891 65.36 117.451 66.66C119.031 67.94 121.011 68.58 123.391 68.58C124.771 68.58 126.031 68.4 127.171 68.04C128.311 67.68 129.111 67.21 129.571 66.63C129.731 66.43 129.931 66.27 130.171 66.15C130.431 66.03 130.681 65.97 130.921 65.97Z" fill="url(#paint0_linear_750_7931)"/>
</g>
<path d="M18.1132 48.18C20.3532 48.18 22.1079 48.712 23.3772 49.776C24.6652 50.84 25.3092 52.3147 25.3092 54.2C25.3092 55.5067 25.0199 56.6453 24.4412 57.616C23.8625 58.5867 23.0319 59.3427 21.9492 59.884C20.8852 60.4067 19.6252 60.668 18.1692 60.668H14.4172V69.46C14.4172 69.9267 14.2305 70.328 13.8572 70.664C13.5025 70.9813 13.0825 71.14 12.5972 71.14C12.1119 71.14 11.6919 70.9813 11.3372 70.664C10.9825 70.328 10.8052 69.9267 10.8052 69.46V50.028C10.8052 49.5427 10.9732 49.132 11.3092 48.796C11.6639 48.46 12.1119 48.2733 12.6532 48.236C13.2879 48.2173 14.1745 48.208 15.3132 48.208C16.4519 48.1893 17.3852 48.18 18.1132 48.18ZM18.1692 57.308C19.3266 57.308 20.2039 57.056 20.8012 56.552C21.4172 56.048 21.7252 55.3573 21.7252 54.48C21.7252 53.696 21.4172 53.052 20.8012 52.548C20.2039 52.044 19.3079 51.792 18.1132 51.792L14.4172 51.82V57.308H18.1692ZM42.7812 68.452C42.9679 68.6013 43.1639 68.8347 43.3692 69.152C43.5932 69.4693 43.7052 69.768 43.7052 70.048C43.7052 70.5147 43.5466 70.888 43.2292 71.168C42.9119 71.448 42.5106 71.588 42.0252 71.588C41.5586 71.588 41.2132 71.5133 40.9892 71.364C40.2426 70.9533 39.7012 70.4027 39.3652 69.712C39.0292 69.0027 38.7866 67.9853 38.6372 66.66C38.5812 66.1 38.5252 65.4467 38.4692 64.7C38.4132 63.9347 38.3666 63.3093 38.3292 62.824C38.2919 61.9467 37.8065 61.284 36.8732 60.836C35.9585 60.388 34.8385 60.164 33.5132 60.164H31.6652V69.712C31.6652 70.1787 31.4972 70.58 31.1612 70.916C30.8439 71.2333 30.4519 71.392 29.9852 71.392C29.5185 71.392 29.1172 71.2333 28.7812 70.916C28.4639 70.58 28.3052 70.1787 28.3052 69.712V50.028C28.3052 49.5053 28.4639 49.0853 28.7812 48.768C29.0985 48.4507 29.5092 48.2733 30.0132 48.236C30.6479 48.2173 31.5345 48.208 32.6732 48.208C33.8119 48.1893 34.7545 48.18 35.5012 48.18C36.9012 48.18 38.1426 48.432 39.2252 48.936C40.3266 49.44 41.1759 50.1493 41.7732 51.064C42.3892 51.9787 42.6972 53.024 42.6972 54.2C42.6972 56.5893 41.5026 58.1853 39.1132 58.988C40.6999 59.66 41.5585 60.8453 41.6892 62.544L41.8012 63.832C41.8385 64.4293 41.9039 65.26 41.9972 66.324C42.1092 67.444 42.3706 68.1533 42.7812 68.452ZM31.6652 57.056H35.4732C36.8172 57.056 37.7972 56.8413 38.4132 56.412C39.0292 55.9827 39.3372 55.2453 39.3372 54.2C39.3372 53.36 39.0012 52.7067 38.3292 52.24C37.6572 51.7733 36.7145 51.54 35.5012 51.54H31.6652V57.056ZM58.2011 71.812C56.0358 71.812 54.0851 71.3173 52.3491 70.328C50.6131 69.32 49.2411 67.92 48.2331 66.128C47.2438 64.336 46.7491 62.292 46.7491 59.996C46.7491 57.7 47.2438 55.656 48.2331 53.864C49.2411 52.072 50.6131 50.6813 52.3491 49.692C54.0851 48.684 56.0358 48.18 58.2011 48.18C60.3665 48.18 62.3171 48.684 64.0531 49.692C65.7891 50.6813 67.1518 52.072 68.1411 53.864C69.1305 55.656 69.6251 57.7 69.6251 59.996C69.6251 62.292 69.1305 64.336 68.1411 66.128C67.1518 67.92 65.7891 69.32 64.0531 70.328C62.3171 71.3173 60.3665 71.812 58.2011 71.812ZM58.2011 68.2C59.6945 68.2 61.0291 67.864 62.2051 67.192C63.3998 66.5013 64.3331 65.54 65.0051 64.308C65.6771 63.0573 66.0131 61.62 66.0131 59.996C66.0131 58.372 65.6771 56.944 65.0051 55.712C64.3331 54.4613 63.3998 53.5 62.2051 52.828C61.0291 52.1373 59.6945 51.792 58.2011 51.792C56.7078 51.792 55.3638 52.1373 54.1691 52.828C52.9745 53.5 52.0411 54.4613 51.3691 55.712C50.6971 56.944 50.3611 58.372 50.3611 59.996C50.3611 61.62 50.6971 63.0573 51.3691 64.308C52.0411 65.54 52.9745 66.5013 54.1691 67.192C55.3638 67.864 56.7078 68.2 58.2011 68.2ZM76.8918 51.848V56.664H83.6118C84.0784 56.664 84.4704 56.832 84.7878 57.168C85.1238 57.4853 85.2918 57.8773 85.2918 58.344C85.2918 58.8107 85.1238 59.212 84.7878 59.548C84.4704 59.8653 84.0784 60.024 83.6118 60.024H76.8918V69.684C76.8918 70.1507 76.7238 70.552 76.3878 70.888C76.0704 71.2053 75.6784 71.364 75.2118 71.364C74.7451 71.364 74.3438 71.2053 74.0078 70.888C73.6904 70.552 73.5318 70.1507 73.5318 69.684V50.28C73.5318 49.7573 73.6998 49.328 74.0358 48.992C74.3718 48.656 74.8011 48.488 75.3238 48.488H84.6198C85.0864 48.488 85.4784 48.656 85.7958 48.992C86.1318 49.3093 86.2998 49.7013 86.2998 50.168C86.2998 50.6347 86.1318 51.036 85.7958 51.372C85.4784 51.6893 85.0864 51.848 84.6198 51.848H76.8918ZM94.1315 69.712C94.1315 70.1787 93.9635 70.58 93.6275 70.916C93.3101 71.2333 92.9181 71.392 92.4515 71.392C91.9848 71.392 91.5835 71.2333 91.2475 70.916C90.9301 70.58 90.7715 70.1787 90.7715 69.712V49.86C90.7715 49.3933 90.9301 49.0013 91.2475 48.684C91.5835 48.348 91.9848 48.18 92.4515 48.18C92.9181 48.18 93.3101 48.348 93.6275 48.684C93.9635 49.0013 94.1315 49.3933 94.1315 49.86V69.712ZM108.476 67.724C108.943 67.724 109.335 67.892 109.652 68.228C109.988 68.5453 110.156 68.9373 110.156 69.404C110.156 69.8707 109.988 70.272 109.652 70.608C109.335 70.9253 108.943 71.084 108.476 71.084H100.972C100.45 71.084 100.02 70.916 99.6842 70.58C99.3482 70.244 99.1802 69.8147 99.1802 69.292V49.888C99.1802 49.4213 99.3389 49.0293 99.6562 48.712C99.9922 48.376 100.394 48.208 100.86 48.208C101.327 48.208 101.719 48.376 102.036 48.712C102.372 49.0293 102.54 49.4213 102.54 49.888V67.724H108.476ZM132.065 65.372C132.532 65.372 132.924 65.54 133.241 65.876C133.577 66.1933 133.745 66.5853 133.745 67.052C133.745 67.5 133.586 67.9013 133.269 68.256C132.41 69.1707 131.206 69.9267 129.657 70.524C128.108 71.1027 126.568 71.392 125.037 71.392C122.816 71.392 120.809 70.9067 119.017 69.936C117.225 68.9653 115.816 67.6027 114.789 65.848C113.762 64.0933 113.249 62.0773 113.249 59.8C113.249 57.5413 113.762 55.5253 114.789 53.752C115.816 51.9787 117.225 50.6067 119.017 49.636C120.809 48.6467 122.816 48.152 125.037 48.152C126.568 48.152 128.098 48.46 129.629 49.076C131.16 49.692 132.364 50.504 133.241 51.512C133.558 51.8853 133.717 52.2867 133.717 52.716C133.717 53.1827 133.549 53.584 133.213 53.92C132.877 54.2373 132.476 54.396 132.009 54.396C131.785 54.396 131.561 54.3493 131.337 54.256C131.113 54.1627 130.936 54.032 130.805 53.864C130.264 53.2107 129.461 52.6973 128.397 52.324C127.333 51.9507 126.213 51.764 125.037 51.764C122.965 51.764 121.22 52.2867 119.801 53.332C118.401 54.3587 117.496 55.8053 117.085 57.672H125.821C126.288 57.672 126.68 57.84 126.997 58.176C127.333 58.4933 127.501 58.8853 127.501 59.352C127.501 59.8187 127.333 60.22 126.997 60.556C126.68 60.8733 126.288 61.032 125.821 61.032H116.945C117.188 63.1413 118.037 64.8027 119.493 66.016C120.968 67.2107 122.816 67.808 125.037 67.808C126.325 67.808 127.501 67.64 128.565 67.304C129.629 66.968 130.376 66.5293 130.805 65.988C130.954 65.8013 131.141 65.652 131.365 65.54C131.608 65.428 131.841 65.372 132.065 65.372Z" fill="white"/>
<defs>
<filter id="filter0_f_750_7931" x="3.05176e-05" y="37.52" width="142.721" height="45.35" filterUnits="userSpaceOnUse" color-interpolation-filters="sRGB">
<feFlood flood-opacity="0" result="BackgroundImageFix"/>
<feBlend mode="normal" in="SourceGraphic" in2="BackgroundImageFix" result="shape"/>
<feGaussianBlur stdDeviation="5" result="effect1_foregroundBlur_750_7931"/>
</filter>
<linearGradient id="paint0_linear_750_7931" x1="214.464" y1="61.5" x2="-38.8182" y2="61.5" gradientUnits="userSpaceOnUse">
<stop stop-color="#A315D6"/>
<stop offset="0.5" stop-color="#FDAB60"/>
<stop offset="1" stop-color="#A315D6"/>
</linearGradient>
</defs>
</svg>
