<svg width="35" height="35" viewBox="0 0 35 35" fill="none" xmlns="http://www.w3.org/2000/svg">
<g clip-path="url(#clip0_900_6161)">
<mask id="mask0_900_6161" style="mask-type:luminance" maskUnits="userSpaceOnUse" x="7" y="15" width="21" height="15">
<path d="M27.8008 15.3204H7.1991V29.3976H27.8008V15.3204Z" fill="white"/>
</mask>
<g mask="url(#mask0_900_6161)">
<path d="M9.72717 15.3204H7.1991V18.1802H9.72717V15.3204Z" fill="#F4F4F6"/>
<path d="M15.3046 15.3204H12.7765V18.1802H15.3046V15.3204Z" fill="#F4F4F6"/>
<path d="M20.8819 15.3204H18.3539V18.1802H20.8819V15.3204Z" fill="#F4F4F6"/>
<path d="M26.4592 15.3204H23.9311V18.1802H26.4592V15.3204Z" fill="#F4F4F6"/>
<path d="M9.72717 20.7408H7.1991V23.6006H9.72717V20.7408Z" fill="#F4F4F6"/>
<path d="M15.3046 20.7408H12.7765V23.6006H15.3046V20.7408Z" fill="#F4F4F6"/>
<path d="M20.8819 20.7408H18.3539V23.6006H20.8819V20.7408Z" fill="#F4F4F6"/>
<path d="M26.4592 20.7408H23.9311V23.6006H26.4592V20.7408Z" fill="#F4F4F6"/>
<path d="M9.72717 26.161H7.1991V29.0208H9.72717V26.161Z" fill="#F4F4F6"/>
<path d="M15.3046 26.161H12.7765V29.0208H15.3046V26.161Z" fill="#F4F4F6"/>
<path d="M20.8819 26.161H18.3539V29.0208H20.8819V26.161Z" fill="#F4F4F6"/>
</g>
<path d="M31.9294 3.88466H28.544V1.44448C28.544 0.646747 27.897 0 27.099 0C26.301 0 25.6541 0.646747 25.6541 1.44448V3.88466H10.5022V1.44448C10.5022 0.646747 9.85519 0 9.05719 0C8.25919 0 7.61223 0.646747 7.61223 1.44448V3.88466H3.07071C1.37765 3.88466 0 5.26172 0 6.95435V31.7174C0 33.41 1.37765 34.7871 3.07071 34.7871H31.9294C33.6226 34.7871 35 33.4099 35 31.7174V6.95435C35 5.26172 33.6226 3.88466 31.9294 3.88466ZM31.9294 32.3624H3.07071C2.71492 32.3624 2.4255 32.0731 2.4255 31.7174V11.907H32.5744V31.7174C32.5744 32.0731 32.2849 32.3624 31.9294 32.3624Z" fill="#F4F4F6"/>
</g>
<defs>
<clipPath id="clip0_900_6161">
<rect width="35" height="34.7872" fill="white"/>
</clipPath>
</defs>
</svg>
