<svg width="84" height="84" viewBox="0 0 84 84" fill="none" xmlns="http://www.w3.org/2000/svg">
<circle cx="42" cy="42" r="42" fill="#471768"/>
<g clip-path="url(#clip0_633_5670)">
<rect width="42" height="36" transform="translate(21 23)" fill="#471768"/>
<path d="M42 36.1849C37.7807 36.1849 34.3459 39.5783 34.3459 43.7468C34.3459 47.9152 37.7807 51.3086 42 51.3086C46.2193 51.3086 49.6541 47.9152 49.6541 43.7468C49.6541 39.5783 46.2193 36.1849 42 36.1849Z" fill="#F4F4F6"/>
<path d="M56.3258 28.4935H52.4827C51.8467 28.4935 51.275 28.1463 50.9905 27.5816L49.7482 25.127C49.085 23.8141 47.7486 23 46.2663 23H37.7287C36.2439 23 34.9126 23.8141 34.2469 25.127L33.0046 27.5816C32.72 28.1439 32.1484 28.4935 31.5124 28.4935H27.6717C23.9919 28.4935 21 31.4493 21 35.0848V52.4063C21 56.0418 23.9919 58.9976 27.6717 58.9976H56.3258C60.0057 58.9976 62.9975 56.0393 62.9975 52.4063V35.0848C62.9975 31.4493 60.0032 28.4935 56.3258 28.4935ZM27.6717 36.7326C26.7511 36.7326 26.0038 35.9942 26.0038 35.0848C26.0038 34.1753 26.7511 33.4369 27.6717 33.4369C28.5923 33.4369 29.3396 34.1753 29.3396 35.0848C29.3396 35.9942 28.5923 36.7326 27.6717 36.7326ZM42 53.504C36.5533 53.504 32.1211 49.1254 32.1211 43.7443C32.1211 38.3633 36.5533 33.9846 42 33.9846C47.4467 33.9846 51.8789 38.3633 51.8789 43.7443C51.8789 49.1254 47.4467 53.504 42 53.504Z" fill="#F4F4F6"/>
</g>
<defs>
<clipPath id="clip0_633_5670">
<rect width="42" height="36" fill="white" transform="translate(21 23)"/>
</clipPath>
</defs>
</svg>
