<svg width="36" height="36" viewBox="0 0 36 36" fill="none" xmlns="http://www.w3.org/2000/svg">
  
  <g>
    <rect x="12.16" y="32.4536" width="12.9781" height="2.78103" rx="1.39051" transform="rotate(-135.565 12.16 32.4536)" fill="#FEFEFE"/>
    <rect width="12.9781" height="2.78103" rx="1.39051" transform="matrix(0.714048 -0.700097 -0.700097 -0.714048 21.2715 32.4536)" fill="#FEFEFE"/>
    <rect x="6.88983" y="35.2349" width="9.649" height="2.40804" rx="1.20402" transform="rotate(-135.565 6.88983 35.2349)" fill="#FEFEFE"/>
    <rect width="9.649" height="2.40804" rx="1.20402" transform="matrix(0.714048 -0.700097 -0.700097 -0.714048 26.5416 35.2349)" fill="#FEFEFE"/>
    <path d="M12.4453 21.748L9.42969 24.7646L10.1367 25.4717L13.1816 22.4258L15.5645 24.6182L6.86523 32.6885L2.89355 28.7949L10.6484 20.0947L12.4453 21.748ZM34.0537 7.25391L22.5801 17.6182L20.4141 15.1934L32.6367 2.97168L31.9297 2.26465L19.7471 14.4463L17.7178 12.1738L27.5186 1.53613L35.4395 0L34.0537 7.25391Z" fill="#FEFEFE"/>
  </g>

  <g transform="translate(-1, 1)">
    <path fill-rule="evenodd" clip-rule="evenodd" d="M7.4707 0.71875L32.5459 28.7949L28.5742 32.6885L0.935547 7.25391L0 0L7.4707 0.71875ZM2.4375 2.97168L24.9375 25.4717L25.6445 24.7646L3.14453 2.26465L2.4375 2.97168Z" fill="#FEFEFE"/>
  </g>
  
</svg>