<svg width="393" height="108" viewBox="0 0 393 108" fill="none" xmlns="http://www.w3.org/2000/svg">
<g clip-path="url(#clip0_750_5358)">
<path d="M198 35.1849C193.781 35.1849 190.346 38.5783 190.346 42.7468C190.346 46.9152 193.781 50.3086 198 50.3086C202.219 50.3086 205.654 46.9152 205.654 42.7468C205.654 38.5783 202.219 35.1849 198 35.1849Z" fill="black"/>
<path d="M212.326 27.4935H208.483C207.847 27.4935 207.275 27.1463 206.99 26.5816L205.748 24.127C205.085 22.8141 203.749 22 202.266 22H193.729C192.244 22 190.913 22.8141 190.247 24.127L189.005 26.5816C188.72 27.1439 188.148 27.4935 187.512 27.4935H183.672C179.992 27.4935 177 30.4493 177 34.0848V51.4063C177 55.0418 179.992 57.9976 183.672 57.9976H212.326C216.006 57.9976 218.998 55.0393 218.998 51.4063V34.0848C218.998 30.4493 216.003 27.4935 212.326 27.4935ZM183.672 35.7326C182.751 35.7326 182.004 34.9942 182.004 34.0848C182.004 33.1753 182.751 32.4369 183.672 32.4369C184.592 32.4369 185.34 33.1753 185.34 34.0848C185.34 34.9942 184.592 35.7326 183.672 35.7326ZM198 52.504C192.553 52.504 188.121 48.1254 188.121 42.7443C188.121 37.3633 192.553 32.9846 198 32.9846C203.447 32.9846 207.879 37.3633 207.879 42.7443C207.879 48.1254 203.447 52.504 198 52.504Z" fill="black"/>
</g>
<path d="M388 42C390.761 42 393 44.2386 393 47V108H0V47C0 44.2386 2.23858 42 5 42H149.003C149.271 68.0032 170.433 89 196.5 89C222.567 89 243.729 68.0032 243.997 42H388Z" fill="url(#paint0_linear_750_5358)"/>
<circle cx="197" cy="42" r="42" fill="#471768"/>
<g clip-path="url(#clip1_750_5358)">
<rect width="42" height="36" transform="translate(176 23)" fill="#471768"/>
<path d="M197 36.1849C192.781 36.1849 189.346 39.5783 189.346 43.7468C189.346 47.9152 192.781 51.3086 197 51.3086C201.219 51.3086 204.654 47.9152 204.654 43.7468C204.654 39.5783 201.219 36.1849 197 36.1849Z" fill="#F4F4F6"/>
<path d="M211.326 28.4935H207.483C206.847 28.4935 206.275 28.1463 205.99 27.5816L204.748 25.127C204.085 23.8141 202.749 23 201.266 23H192.729C191.244 23 189.913 23.8141 189.247 25.127L188.005 27.5816C187.72 28.1439 187.148 28.4935 186.512 28.4935H182.672C178.992 28.4935 176 31.4493 176 35.0848V52.4063C176 56.0418 178.992 58.9976 182.672 58.9976H211.326C215.006 58.9976 217.998 56.0393 217.998 52.4063V35.0848C217.998 31.4493 215.003 28.4935 211.326 28.4935ZM182.672 36.7326C181.751 36.7326 181.004 35.9942 181.004 35.0848C181.004 34.1753 181.751 33.4369 182.672 33.4369C183.592 33.4369 184.34 34.1753 184.34 35.0848C184.34 35.9942 183.592 36.7326 182.672 36.7326ZM197 53.504C191.553 53.504 187.121 49.1254 187.121 43.7443C187.121 38.3633 191.553 33.9846 197 33.9846C202.447 33.9846 206.879 38.3633 206.879 43.7443C206.879 49.1254 202.447 53.504 197 53.504Z" fill="#F4F4F6"/>
</g>
<g clip-path="url(#clip2_750_5358)">
<mask id="mask0_750_5358" style="mask-type:luminance" maskUnits="userSpaceOnUse" x="101" y="73" width="21" height="15">
<path d="M121.801 73.3204H101.199V87.3976H121.801V73.3204Z" fill="white"/>
</mask>
<g mask="url(#mask0_750_5358)">
<path d="M103.727 73.3204H101.199V76.1802H103.727V73.3204Z" fill="#F4F4F6"/>
<path d="M109.305 73.3204H106.776V76.1802H109.305V73.3204Z" fill="#F4F4F6"/>
<path d="M114.882 73.3204H112.354V76.1802H114.882V73.3204Z" fill="#F4F4F6"/>
<path d="M120.459 73.3204H117.931V76.1802H120.459V73.3204Z" fill="#F4F4F6"/>
<path d="M103.727 78.7408H101.199V81.6006H103.727V78.7408Z" fill="#F4F4F6"/>
<path d="M109.305 78.7408H106.776V81.6006H109.305V78.7408Z" fill="#F4F4F6"/>
<path d="M114.882 78.7408H112.354V81.6006H114.882V78.7408Z" fill="#F4F4F6"/>
<path d="M120.459 78.7408H117.931V81.6006H120.459V78.7408Z" fill="#F4F4F6"/>
<path d="M103.727 84.161H101.199V87.0208H103.727V84.161Z" fill="#F4F4F6"/>
<path d="M109.305 84.161H106.776V87.0208H109.305V84.161Z" fill="#F4F4F6"/>
<path d="M114.882 84.161H112.354V87.0208H114.882V84.161Z" fill="#F4F4F6"/>
</g>
<path d="M125.929 61.8847H122.544V59.4445C122.544 58.6467 121.897 58 121.099 58C120.301 58 119.654 58.6467 119.654 59.4445V61.8847H104.502V59.4445C104.502 58.6467 103.855 58 103.057 58C102.259 58 101.612 58.6467 101.612 59.4445V61.8847H97.0707C95.3777 61.8847 94 63.2617 94 64.9544V89.7174C94 91.41 95.3777 92.7871 97.0707 92.7871H125.929C127.623 92.7871 129 91.4099 129 89.7174V64.9544C129 63.2617 127.623 61.8847 125.929 61.8847ZM125.929 90.3624H97.0707C96.7149 90.3624 96.4255 90.0731 96.4255 89.7174V69.907H126.574V89.7174C126.574 90.0731 126.285 90.3624 125.929 90.3624Z" fill="#F4F4F6"/>
</g>
<path d="M279.649 73.3955L272.833 81.7373L265.284 80.915L267.829 63.4795L279.649 73.3955Z" fill="#F4F4F6" stroke="#642F88" stroke-width="0.5"/>
<path d="M281.245 92.9258L278.091 97.4326L276.742 92.9365L274.273 83.5547L280.407 75.6846L281.245 92.9258Z" fill="#F4F4F6" stroke="#642F88" stroke-width="0.5"/>
<path d="M272.314 84.0625L276.517 96.3594L271.439 92.8271L265.965 83.3066L272.314 84.0625Z" fill="#F4F4F6" stroke="#642F88" stroke-width="0.5"/>
<path d="M289.744 77.1934L283.193 90.5361L282.257 74.6035L288.91 68.5215L289.744 77.1934Z" fill="#F4F4F6" stroke="#642F88" stroke-width="0.5"/>
<path d="M295.074 68.25L296.694 72.6943L291.202 76.0811L290.281 68.25H295.074Z" fill="#F4F4F6" stroke="#642F88" stroke-width="0.5"/>
<path d="M291.729 85.2803L284.311 91.9355L291.193 78.1709L296.423 74.6846L291.729 85.2803Z" fill="#F4F4F6" stroke="#642F88" stroke-width="0.5"/>
<path d="M284.299 59.457L284.302 59.4658L284.306 59.4736L287.697 66.9385L281.486 72.6719L275.293 67.8008L281.076 50.748L284.299 59.457Z" fill="#F4F4F6" stroke="#642F88" stroke-width="0.5"/>
<rect x="346.377" y="90.8354" width="12.9781" height="2.78103" rx="1.39051" transform="rotate(-135.565 346.377 90.8354)" fill="#FEFEFE"/>
<rect width="12.9781" height="2.78103" rx="1.39051" transform="matrix(0.714048 -0.700097 -0.700097 -0.714048 355.488 90.8354)" fill="#FEFEFE"/>
<rect x="341.106" y="93.6167" width="9.649" height="2.40804" rx="1.20402" transform="rotate(-135.565 341.106 93.6167)" fill="#FEFEFE"/>
<rect width="9.649" height="2.40804" rx="1.20402" transform="matrix(0.714048 -0.700097 -0.700097 -0.714048 360.758 93.6167)" fill="#FEFEFE"/>
<path d="M346.662 80.1299L343.646 83.1465L344.353 83.8535L347.398 80.8076L349.781 83L341.082 91.0703L337.11 87.1768L344.865 78.4766L346.662 80.1299ZM368.27 65.6357L356.797 76L354.631 73.5752L366.853 61.3535L366.146 60.6465L353.964 72.8281L351.934 70.5557L361.735 59.918L369.656 58.3818L368.27 65.6357Z" fill="#FEFEFE"/>
<path d="M37.3998 60.1033C40.5187 62.2656 42.6884 65.5498 43.4496 69.2771V87.2498H31.35V69.2771C32.1111 65.5499 34.2811 62.2656 37.3998 60.1033Z" fill="white" stroke="white" stroke-width="1.5"/>
<circle cx="37.8" cy="74.3999" r="2.45" stroke="#642F88" stroke-width="1.5"/>
<path d="M44.15 77.5938C46.7489 80.0248 48.2495 83.4407 48.2496 87.0449V87.5557L44.15 85.3945V77.5938Z" stroke="white" stroke-width="1.5"/>
<path d="M30.65 77.4648C27.5919 79.9292 25.7752 83.6527 25.7516 87.627L30.65 85.3662V77.4648Z" stroke="white" stroke-width="1.5"/>
<path d="M41.949 87.95L42.5359 92.0496H33.0643L33.6502 87.95H41.949Z" stroke="white" stroke-width="1.5"/>
<path d="M33.8 64.8C35.1091 65.4037 38.3818 66.2489 41 64.8" stroke="#642F88" stroke-width="1.5" stroke-linecap="round"/>
<g opacity="0.75">
<circle cx="159" cy="85" r="0.5" fill="white"/>
<g filter="url(#filter0_f_750_5358)">
<circle cx="159" cy="85" r="0.5" fill="white" fill-opacity="0.75"/>
</g>
</g>
<g opacity="0.75">
<circle cx="18" cy="85" r="0.5" fill="white"/>
<g filter="url(#filter1_f_750_5358)">
<circle cx="18" cy="85" r="0.5" fill="white" fill-opacity="0.75"/>
</g>
</g>
<circle cx="143.5" cy="77.5" r="0.5" fill="white"/>
<g filter="url(#filter2_f_750_5358)">
<circle cx="143.5" cy="77.5" r="0.5" fill="white" fill-opacity="0.75"/>
</g>
<g opacity="0.5">
<circle cx="141.5" cy="88.5" r="0.5" fill="white"/>
<g filter="url(#filter3_f_750_5358)">
<circle cx="141.5" cy="88.5" r="0.5" fill="white" fill-opacity="0.75"/>
</g>
</g>
<g opacity="0.5">
<circle cx="10.5" cy="91.5" r="0.5" fill="white"/>
<g filter="url(#filter4_f_750_5358)">
<circle cx="10.5" cy="91.5" r="0.5" fill="white" fill-opacity="0.75"/>
</g>
</g>
<g opacity="0.75">
<circle cx="197.5" cy="94.5" r="0.5" fill="white"/>
<g filter="url(#filter5_f_750_5358)">
<circle cx="197.5" cy="94.5" r="0.5" fill="white" fill-opacity="0.75"/>
</g>
</g>
<g opacity="0.75">
<circle cx="56.5" cy="94.5" r="0.5" fill="white"/>
<g filter="url(#filter6_f_750_5358)">
<circle cx="56.5" cy="94.5" r="0.5" fill="white" fill-opacity="0.75"/>
</g>
</g>
<g opacity="0.75">
<circle cx="76.5" cy="78.5" r="0.5" fill="white"/>
<g filter="url(#filter7_f_750_5358)">
<circle cx="76.5" cy="78.5" r="0.5" fill="white" fill-opacity="0.75"/>
</g>
</g>
<circle cx="246.5" cy="73.5" r="0.5" fill="white"/>
<g filter="url(#filter8_f_750_5358)">
<circle cx="246.5" cy="73.5" r="0.5" fill="white" fill-opacity="0.75"/>
</g>
<g opacity="0.75">
<circle cx="233.5" cy="83.5" r="0.5" fill="white"/>
<g filter="url(#filter9_f_750_5358)">
<circle cx="233.5" cy="83.5" r="0.5" fill="white" fill-opacity="0.75"/>
</g>
</g>
<g opacity="0.5">
<circle cx="253.5" cy="92.5" r="0.5" fill="white"/>
<g filter="url(#filter10_f_750_5358)">
<circle cx="253.5" cy="92.5" r="0.5" fill="white" fill-opacity="0.75"/>
</g>
</g>
<g opacity="0.75">
<circle cx="140" cy="51" r="1" fill="white"/>
<g filter="url(#filter11_f_750_5358)">
<circle cx="140" cy="51" r="1" fill="white" fill-opacity="0.75"/>
</g>
</g>
<g opacity="0.75">
<circle cx="12" cy="53" r="1" fill="white"/>
<g filter="url(#filter12_f_750_5358)">
<circle cx="12" cy="53" r="1" fill="white" fill-opacity="0.75"/>
</g>
</g>
<g opacity="0.75">
<circle cx="387" cy="49" r="1" fill="white"/>
<g filter="url(#filter13_f_750_5358)">
<circle cx="387" cy="49" r="1" fill="white" fill-opacity="0.75"/>
</g>
</g>
<g opacity="0.75">
<circle cx="315" cy="54" r="1" fill="white"/>
<g filter="url(#filter14_f_750_5358)">
<circle cx="315" cy="54" r="1" fill="white" fill-opacity="0.75"/>
</g>
</g>
<g opacity="0.5">
<circle cx="318.5" cy="98.5" r="0.5" fill="white"/>
<g filter="url(#filter15_f_750_5358)">
<circle cx="318.5" cy="98.5" r="0.5" fill="white" fill-opacity="0.75"/>
</g>
</g>
<g opacity="0.25">
<circle cx="377.333" cy="102.333" r="0.333333" fill="white"/>
<g filter="url(#filter16_f_750_5358)">
<circle cx="377.333" cy="102.333" r="0.333333" fill="white" fill-opacity="0.75"/>
</g>
</g>
<g opacity="0.25">
<circle cx="301.461" cy="100.461" r="0.333333" transform="rotate(33.016 301.461 100.461)" fill="white"/>
<g filter="url(#filter17_f_750_5358)">
<circle cx="301.461" cy="100.461" r="0.333333" transform="rotate(33.016 301.461 100.461)" fill="white" fill-opacity="0.75"/>
</g>
</g>
<g opacity="0.25">
<circle cx="214.461" cy="100.461" r="0.333333" transform="rotate(33.016 214.461 100.461)" fill="white"/>
<g filter="url(#filter18_f_750_5358)">
<circle cx="214.461" cy="100.461" r="0.333333" transform="rotate(33.016 214.461 100.461)" fill="white" fill-opacity="0.75"/>
</g>
</g>
<g opacity="0.25">
<circle cx="176.461" cy="103.461" r="0.333333" transform="rotate(33.016 176.461 103.461)" fill="white"/>
<g filter="url(#filter19_f_750_5358)">
<circle cx="176.461" cy="103.461" r="0.333333" transform="rotate(33.016 176.461 103.461)" fill="white" fill-opacity="0.75"/>
</g>
</g>
<g opacity="0.25">
<circle cx="5.46111" cy="99.4611" r="0.333333" transform="rotate(33.016 5.46111 99.4611)" fill="white"/>
<g filter="url(#filter20_f_750_5358)">
<circle cx="5.46111" cy="99.4611" r="0.333333" transform="rotate(33.016 5.46111 99.4611)" fill="white" fill-opacity="0.75"/>
</g>
</g>
<g opacity="0.25">
<circle cx="58.4611" cy="103.461" r="0.333333" transform="rotate(33.016 58.4611 103.461)" fill="white"/>
<g filter="url(#filter21_f_750_5358)">
<circle cx="58.4611" cy="103.461" r="0.333333" transform="rotate(33.016 58.4611 103.461)" fill="white" fill-opacity="0.75"/>
</g>
</g>
<g opacity="0.25">
<circle cx="387.833" cy="104" r="0.333333" fill="white"/>
<g filter="url(#filter22_f_750_5358)">
<circle cx="387.833" cy="104" r="0.333333" fill="white" fill-opacity="0.75"/>
</g>
</g>
<g opacity="0.25">
<circle cx="276.461" cy="104.461" r="0.333333" transform="rotate(33.016 276.461 104.461)" fill="white"/>
<g filter="url(#filter23_f_750_5358)">
<circle cx="276.461" cy="104.461" r="0.333333" transform="rotate(33.016 276.461 104.461)" fill="white" fill-opacity="0.75"/>
</g>
</g>
<g opacity="0.25">
<circle cx="226.461" cy="104.461" r="0.333333" transform="rotate(33.016 226.461 104.461)" fill="white"/>
<g filter="url(#filter24_f_750_5358)">
<circle cx="226.461" cy="104.461" r="0.333333" transform="rotate(33.016 226.461 104.461)" fill="white" fill-opacity="0.75"/>
</g>
</g>
<g opacity="0.25">
<circle cx="168.461" cy="101.461" r="0.333333" transform="rotate(33.016 168.461 101.461)" fill="white"/>
<g filter="url(#filter25_f_750_5358)">
<circle cx="168.461" cy="101.461" r="0.333333" transform="rotate(33.016 168.461 101.461)" fill="white" fill-opacity="0.75"/>
</g>
</g>
<g opacity="0.25">
<circle cx="27.4611" cy="101.461" r="0.333333" transform="rotate(33.016 27.4611 101.461)" fill="white"/>
<g filter="url(#filter26_f_750_5358)">
<circle cx="27.4611" cy="101.461" r="0.333333" transform="rotate(33.016 27.4611 101.461)" fill="white" fill-opacity="0.75"/>
</g>
</g>
<g opacity="0.25">
<circle cx="96.4611" cy="101.461" r="0.333333" transform="rotate(33.016 96.4611 101.461)" fill="white"/>
<g filter="url(#filter27_f_750_5358)">
<circle cx="96.4611" cy="101.461" r="0.333333" transform="rotate(33.016 96.4611 101.461)" fill="white" fill-opacity="0.75"/>
</g>
</g>
<g opacity="0.25">
<circle cx="389.167" cy="101.333" r="0.333333" fill="white"/>
<g filter="url(#filter28_f_750_5358)">
<circle cx="389.167" cy="101.333" r="0.333333" fill="white" fill-opacity="0.75"/>
</g>
</g>
<g opacity="0.25">
<circle cx="349.461" cy="102.461" r="0.333333" transform="rotate(33.016 349.461 102.461)" fill="white"/>
<g filter="url(#filter29_f_750_5358)">
<circle cx="349.461" cy="102.461" r="0.333333" transform="rotate(33.016 349.461 102.461)" fill="white" fill-opacity="0.75"/>
</g>
</g>
<g opacity="0.25">
<circle cx="233.749" cy="102.718" r="0.333333" transform="rotate(33.016 233.749 102.718)" fill="white"/>
<g filter="url(#filter30_f_750_5358)">
<circle cx="233.749" cy="102.718" r="0.333333" transform="rotate(33.016 233.749 102.718)" fill="white" fill-opacity="0.75"/>
</g>
</g>
<g opacity="0.25">
<circle cx="159.749" cy="102.718" r="0.333333" transform="rotate(33.016 159.749 102.718)" fill="white"/>
<g filter="url(#filter31_f_750_5358)">
<circle cx="159.749" cy="102.718" r="0.333333" transform="rotate(33.016 159.749 102.718)" fill="white" fill-opacity="0.75"/>
</g>
</g>
<g opacity="0.25">
<circle cx="18.7495" cy="102.718" r="0.333333" transform="rotate(33.016 18.7495 102.718)" fill="white"/>
<g filter="url(#filter32_f_750_5358)">
<circle cx="18.7495" cy="102.718" r="0.333333" transform="rotate(33.016 18.7495 102.718)" fill="white" fill-opacity="0.75"/>
</g>
</g>
<g opacity="0.25">
<circle cx="79.4611" cy="99.4611" r="0.333333" transform="rotate(33.016 79.4611 99.4611)" fill="white"/>
<g filter="url(#filter33_f_750_5358)">
<circle cx="79.4611" cy="99.4611" r="0.333333" transform="rotate(33.016 79.4611 99.4611)" fill="white" fill-opacity="0.75"/>
</g>
</g>
<g opacity="0.25">
<circle cx="383.833" cy="104.667" r="0.333333" fill="white"/>
<g filter="url(#filter34_f_750_5358)">
<circle cx="383.833" cy="104.667" r="0.333333" fill="white" fill-opacity="0.75"/>
</g>
</g>
<g opacity="0.25">
<circle cx="326.461" cy="104.461" r="0.333333" transform="rotate(33.016 326.461 104.461)" fill="white"/>
<g filter="url(#filter35_f_750_5358)">
<circle cx="326.461" cy="104.461" r="0.333333" transform="rotate(33.016 326.461 104.461)" fill="white" fill-opacity="0.75"/>
</g>
</g>
<g opacity="0.25">
<circle cx="195.461" cy="104.461" r="0.333333" transform="rotate(33.016 195.461 104.461)" fill="white"/>
<g filter="url(#filter36_f_750_5358)">
<circle cx="195.461" cy="104.461" r="0.333333" transform="rotate(33.016 195.461 104.461)" fill="white" fill-opacity="0.75"/>
</g>
</g>
<g opacity="0.25">
<circle cx="153.461" cy="102.607" r="0.333333" transform="rotate(33.016 153.461 102.607)" fill="white"/>
<g filter="url(#filter37_f_750_5358)">
<circle cx="153.461" cy="102.607" r="0.333333" transform="rotate(33.016 153.461 102.607)" fill="white" fill-opacity="0.75"/>
</g>
</g>
<g opacity="0.25">
<circle cx="12.4612" cy="102.607" r="0.333333" transform="rotate(33.016 12.4612 102.607)" fill="white"/>
<g filter="url(#filter38_f_750_5358)">
<circle cx="12.4612" cy="102.607" r="0.333333" transform="rotate(33.016 12.4612 102.607)" fill="white" fill-opacity="0.75"/>
</g>
</g>
<g opacity="0.25">
<circle cx="73.4612" cy="102.607" r="0.333333" transform="rotate(33.016 73.4612 102.607)" fill="white"/>
<g filter="url(#filter39_f_750_5358)">
<circle cx="73.4612" cy="102.607" r="0.333333" transform="rotate(33.016 73.4612 102.607)" fill="white" fill-opacity="0.75"/>
</g>
</g>
<g opacity="0.5">
<circle cx="365.5" cy="100.5" r="0.5" fill="white"/>
<g filter="url(#filter40_f_750_5358)">
<circle cx="365.5" cy="100.5" r="0.5" fill="white" fill-opacity="0.75"/>
</g>
</g>
<g opacity="0.5">
<circle cx="386.5" cy="81.5" r="0.5" fill="white"/>
<g filter="url(#filter41_f_750_5358)">
<circle cx="386.5" cy="81.5" r="0.5" fill="white" fill-opacity="0.75"/>
</g>
</g>
<g opacity="0.5">
<circle cx="313.5" cy="100.5" r="0.5" fill="white"/>
<g filter="url(#filter42_f_750_5358)">
<circle cx="313.5" cy="100.5" r="0.5" fill="white" fill-opacity="0.75"/>
</g>
</g>
<path opacity="0.75" d="M68.879 57.6852L69.7836 59.0927L71.4431 58.8789L70.0356 59.7836L70.2494 61.4431L69.3447 60.0355L67.6852 60.2493L69.0928 59.3446L68.879 57.6852Z" fill="#F4F4F6"/>
<path fill-rule="evenodd" clip-rule="evenodd" d="M339.68 59.1006L364.755 87.1768L360.783 91.0703L333.145 65.6357L332.209 58.3818L339.68 59.1006ZM334.646 61.3535L357.146 83.8535L357.854 83.1465L335.354 60.6465L334.646 61.3535Z" fill="#FEFEFE"/>
<defs>
<filter id="filter0_f_750_5358" x="156.5" y="82.5" width="5" height="5" filterUnits="userSpaceOnUse" color-interpolation-filters="sRGB">
<feFlood flood-opacity="0" result="BackgroundImageFix"/>
<feBlend mode="normal" in="SourceGraphic" in2="BackgroundImageFix" result="shape"/>
<feGaussianBlur stdDeviation="1" result="effect1_foregroundBlur_750_5358"/>
</filter>
<filter id="filter1_f_750_5358" x="15.5" y="82.5" width="5" height="5" filterUnits="userSpaceOnUse" color-interpolation-filters="sRGB">
<feFlood flood-opacity="0" result="BackgroundImageFix"/>
<feBlend mode="normal" in="SourceGraphic" in2="BackgroundImageFix" result="shape"/>
<feGaussianBlur stdDeviation="1" result="effect1_foregroundBlur_750_5358"/>
</filter>
<filter id="filter2_f_750_5358" x="141" y="75" width="5" height="5" filterUnits="userSpaceOnUse" color-interpolation-filters="sRGB">
<feFlood flood-opacity="0" result="BackgroundImageFix"/>
<feBlend mode="normal" in="SourceGraphic" in2="BackgroundImageFix" result="shape"/>
<feGaussianBlur stdDeviation="1" result="effect1_foregroundBlur_750_5358"/>
</filter>
<filter id="filter3_f_750_5358" x="139" y="86" width="5" height="5" filterUnits="userSpaceOnUse" color-interpolation-filters="sRGB">
<feFlood flood-opacity="0" result="BackgroundImageFix"/>
<feBlend mode="normal" in="SourceGraphic" in2="BackgroundImageFix" result="shape"/>
<feGaussianBlur stdDeviation="1" result="effect1_foregroundBlur_750_5358"/>
</filter>
<filter id="filter4_f_750_5358" x="8" y="89" width="5" height="5" filterUnits="userSpaceOnUse" color-interpolation-filters="sRGB">
<feFlood flood-opacity="0" result="BackgroundImageFix"/>
<feBlend mode="normal" in="SourceGraphic" in2="BackgroundImageFix" result="shape"/>
<feGaussianBlur stdDeviation="1" result="effect1_foregroundBlur_750_5358"/>
</filter>
<filter id="filter5_f_750_5358" x="195" y="92" width="5" height="5" filterUnits="userSpaceOnUse" color-interpolation-filters="sRGB">
<feFlood flood-opacity="0" result="BackgroundImageFix"/>
<feBlend mode="normal" in="SourceGraphic" in2="BackgroundImageFix" result="shape"/>
<feGaussianBlur stdDeviation="1" result="effect1_foregroundBlur_750_5358"/>
</filter>
<filter id="filter6_f_750_5358" x="54" y="92" width="5" height="5" filterUnits="userSpaceOnUse" color-interpolation-filters="sRGB">
<feFlood flood-opacity="0" result="BackgroundImageFix"/>
<feBlend mode="normal" in="SourceGraphic" in2="BackgroundImageFix" result="shape"/>
<feGaussianBlur stdDeviation="1" result="effect1_foregroundBlur_750_5358"/>
</filter>
<filter id="filter7_f_750_5358" x="74" y="76" width="5" height="5" filterUnits="userSpaceOnUse" color-interpolation-filters="sRGB">
<feFlood flood-opacity="0" result="BackgroundImageFix"/>
<feBlend mode="normal" in="SourceGraphic" in2="BackgroundImageFix" result="shape"/>
<feGaussianBlur stdDeviation="1" result="effect1_foregroundBlur_750_5358"/>
</filter>
<filter id="filter8_f_750_5358" x="244" y="71" width="5" height="5" filterUnits="userSpaceOnUse" color-interpolation-filters="sRGB">
<feFlood flood-opacity="0" result="BackgroundImageFix"/>
<feBlend mode="normal" in="SourceGraphic" in2="BackgroundImageFix" result="shape"/>
<feGaussianBlur stdDeviation="1" result="effect1_foregroundBlur_750_5358"/>
</filter>
<filter id="filter9_f_750_5358" x="231" y="81" width="5" height="5" filterUnits="userSpaceOnUse" color-interpolation-filters="sRGB">
<feFlood flood-opacity="0" result="BackgroundImageFix"/>
<feBlend mode="normal" in="SourceGraphic" in2="BackgroundImageFix" result="shape"/>
<feGaussianBlur stdDeviation="1" result="effect1_foregroundBlur_750_5358"/>
</filter>
<filter id="filter10_f_750_5358" x="251" y="90" width="5" height="5" filterUnits="userSpaceOnUse" color-interpolation-filters="sRGB">
<feFlood flood-opacity="0" result="BackgroundImageFix"/>
<feBlend mode="normal" in="SourceGraphic" in2="BackgroundImageFix" result="shape"/>
<feGaussianBlur stdDeviation="1" result="effect1_foregroundBlur_750_5358"/>
</filter>
<filter id="filter11_f_750_5358" x="137" y="48" width="6" height="6" filterUnits="userSpaceOnUse" color-interpolation-filters="sRGB">
<feFlood flood-opacity="0" result="BackgroundImageFix"/>
<feBlend mode="normal" in="SourceGraphic" in2="BackgroundImageFix" result="shape"/>
<feGaussianBlur stdDeviation="1" result="effect1_foregroundBlur_750_5358"/>
</filter>
<filter id="filter12_f_750_5358" x="9" y="50" width="6" height="6" filterUnits="userSpaceOnUse" color-interpolation-filters="sRGB">
<feFlood flood-opacity="0" result="BackgroundImageFix"/>
<feBlend mode="normal" in="SourceGraphic" in2="BackgroundImageFix" result="shape"/>
<feGaussianBlur stdDeviation="1" result="effect1_foregroundBlur_750_5358"/>
</filter>
<filter id="filter13_f_750_5358" x="384" y="46" width="6" height="6" filterUnits="userSpaceOnUse" color-interpolation-filters="sRGB">
<feFlood flood-opacity="0" result="BackgroundImageFix"/>
<feBlend mode="normal" in="SourceGraphic" in2="BackgroundImageFix" result="shape"/>
<feGaussianBlur stdDeviation="1" result="effect1_foregroundBlur_750_5358"/>
</filter>
<filter id="filter14_f_750_5358" x="312" y="51" width="6" height="6" filterUnits="userSpaceOnUse" color-interpolation-filters="sRGB">
<feFlood flood-opacity="0" result="BackgroundImageFix"/>
<feBlend mode="normal" in="SourceGraphic" in2="BackgroundImageFix" result="shape"/>
<feGaussianBlur stdDeviation="1" result="effect1_foregroundBlur_750_5358"/>
</filter>
<filter id="filter15_f_750_5358" x="316" y="96" width="5" height="5" filterUnits="userSpaceOnUse" color-interpolation-filters="sRGB">
<feFlood flood-opacity="0" result="BackgroundImageFix"/>
<feBlend mode="normal" in="SourceGraphic" in2="BackgroundImageFix" result="shape"/>
<feGaussianBlur stdDeviation="1" result="effect1_foregroundBlur_750_5358"/>
</filter>
<filter id="filter16_f_750_5358" x="375" y="100" width="4.66666" height="4.66663" filterUnits="userSpaceOnUse" color-interpolation-filters="sRGB">
<feFlood flood-opacity="0" result="BackgroundImageFix"/>
<feBlend mode="normal" in="SourceGraphic" in2="BackgroundImageFix" result="shape"/>
<feGaussianBlur stdDeviation="1" result="effect1_foregroundBlur_750_5358"/>
</filter>
<filter id="filter17_f_750_5358" x="299.128" y="98.1278" width="4.66675" height="4.66675" filterUnits="userSpaceOnUse" color-interpolation-filters="sRGB">
<feFlood flood-opacity="0" result="BackgroundImageFix"/>
<feBlend mode="normal" in="SourceGraphic" in2="BackgroundImageFix" result="shape"/>
<feGaussianBlur stdDeviation="1" result="effect1_foregroundBlur_750_5358"/>
</filter>
<filter id="filter18_f_750_5358" x="212.128" y="98.1278" width="4.66675" height="4.66675" filterUnits="userSpaceOnUse" color-interpolation-filters="sRGB">
<feFlood flood-opacity="0" result="BackgroundImageFix"/>
<feBlend mode="normal" in="SourceGraphic" in2="BackgroundImageFix" result="shape"/>
<feGaussianBlur stdDeviation="1" result="effect1_foregroundBlur_750_5358"/>
</filter>
<filter id="filter19_f_750_5358" x="174.128" y="101.128" width="4.66675" height="4.66675" filterUnits="userSpaceOnUse" color-interpolation-filters="sRGB">
<feFlood flood-opacity="0" result="BackgroundImageFix"/>
<feBlend mode="normal" in="SourceGraphic" in2="BackgroundImageFix" result="shape"/>
<feGaussianBlur stdDeviation="1" result="effect1_foregroundBlur_750_5358"/>
</filter>
<filter id="filter20_f_750_5358" x="3.12774" y="97.1278" width="4.66675" height="4.66675" filterUnits="userSpaceOnUse" color-interpolation-filters="sRGB">
<feFlood flood-opacity="0" result="BackgroundImageFix"/>
<feBlend mode="normal" in="SourceGraphic" in2="BackgroundImageFix" result="shape"/>
<feGaussianBlur stdDeviation="1" result="effect1_foregroundBlur_750_5358"/>
</filter>
<filter id="filter21_f_750_5358" x="56.1277" y="101.128" width="4.66674" height="4.66675" filterUnits="userSpaceOnUse" color-interpolation-filters="sRGB">
<feFlood flood-opacity="0" result="BackgroundImageFix"/>
<feBlend mode="normal" in="SourceGraphic" in2="BackgroundImageFix" result="shape"/>
<feGaussianBlur stdDeviation="1" result="effect1_foregroundBlur_750_5358"/>
</filter>
<filter id="filter22_f_750_5358" x="385.5" y="101.667" width="4.66666" height="4.66663" filterUnits="userSpaceOnUse" color-interpolation-filters="sRGB">
<feFlood flood-opacity="0" result="BackgroundImageFix"/>
<feBlend mode="normal" in="SourceGraphic" in2="BackgroundImageFix" result="shape"/>
<feGaussianBlur stdDeviation="1" result="effect1_foregroundBlur_750_5358"/>
</filter>
<filter id="filter23_f_750_5358" x="274.128" y="102.128" width="4.66675" height="4.66675" filterUnits="userSpaceOnUse" color-interpolation-filters="sRGB">
<feFlood flood-opacity="0" result="BackgroundImageFix"/>
<feBlend mode="normal" in="SourceGraphic" in2="BackgroundImageFix" result="shape"/>
<feGaussianBlur stdDeviation="1" result="effect1_foregroundBlur_750_5358"/>
</filter>
<filter id="filter24_f_750_5358" x="224.128" y="102.128" width="4.66675" height="4.66675" filterUnits="userSpaceOnUse" color-interpolation-filters="sRGB">
<feFlood flood-opacity="0" result="BackgroundImageFix"/>
<feBlend mode="normal" in="SourceGraphic" in2="BackgroundImageFix" result="shape"/>
<feGaussianBlur stdDeviation="1" result="effect1_foregroundBlur_750_5358"/>
</filter>
<filter id="filter25_f_750_5358" x="166.128" y="99.1278" width="4.66675" height="4.66675" filterUnits="userSpaceOnUse" color-interpolation-filters="sRGB">
<feFlood flood-opacity="0" result="BackgroundImageFix"/>
<feBlend mode="normal" in="SourceGraphic" in2="BackgroundImageFix" result="shape"/>
<feGaussianBlur stdDeviation="1" result="effect1_foregroundBlur_750_5358"/>
</filter>
<filter id="filter26_f_750_5358" x="25.1277" y="99.1278" width="4.66674" height="4.66675" filterUnits="userSpaceOnUse" color-interpolation-filters="sRGB">
<feFlood flood-opacity="0" result="BackgroundImageFix"/>
<feBlend mode="normal" in="SourceGraphic" in2="BackgroundImageFix" result="shape"/>
<feGaussianBlur stdDeviation="1" result="effect1_foregroundBlur_750_5358"/>
</filter>
<filter id="filter27_f_750_5358" x="94.1277" y="99.1278" width="4.66674" height="4.66675" filterUnits="userSpaceOnUse" color-interpolation-filters="sRGB">
<feFlood flood-opacity="0" result="BackgroundImageFix"/>
<feBlend mode="normal" in="SourceGraphic" in2="BackgroundImageFix" result="shape"/>
<feGaussianBlur stdDeviation="1" result="effect1_foregroundBlur_750_5358"/>
</filter>
<filter id="filter28_f_750_5358" x="386.833" y="99" width="4.66666" height="4.66663" filterUnits="userSpaceOnUse" color-interpolation-filters="sRGB">
<feFlood flood-opacity="0" result="BackgroundImageFix"/>
<feBlend mode="normal" in="SourceGraphic" in2="BackgroundImageFix" result="shape"/>
<feGaussianBlur stdDeviation="1" result="effect1_foregroundBlur_750_5358"/>
</filter>
<filter id="filter29_f_750_5358" x="347.128" y="100.128" width="4.66675" height="4.66675" filterUnits="userSpaceOnUse" color-interpolation-filters="sRGB">
<feFlood flood-opacity="0" result="BackgroundImageFix"/>
<feBlend mode="normal" in="SourceGraphic" in2="BackgroundImageFix" result="shape"/>
<feGaussianBlur stdDeviation="1" result="effect1_foregroundBlur_750_5358"/>
</filter>
<filter id="filter30_f_750_5358" x="231.416" y="100.385" width="4.66675" height="4.66675" filterUnits="userSpaceOnUse" color-interpolation-filters="sRGB">
<feFlood flood-opacity="0" result="BackgroundImageFix"/>
<feBlend mode="normal" in="SourceGraphic" in2="BackgroundImageFix" result="shape"/>
<feGaussianBlur stdDeviation="1" result="effect1_foregroundBlur_750_5358"/>
</filter>
<filter id="filter31_f_750_5358" x="157.416" y="100.385" width="4.66675" height="4.66675" filterUnits="userSpaceOnUse" color-interpolation-filters="sRGB">
<feFlood flood-opacity="0" result="BackgroundImageFix"/>
<feBlend mode="normal" in="SourceGraphic" in2="BackgroundImageFix" result="shape"/>
<feGaussianBlur stdDeviation="1" result="effect1_foregroundBlur_750_5358"/>
</filter>
<filter id="filter32_f_750_5358" x="16.4161" y="100.385" width="4.66674" height="4.66675" filterUnits="userSpaceOnUse" color-interpolation-filters="sRGB">
<feFlood flood-opacity="0" result="BackgroundImageFix"/>
<feBlend mode="normal" in="SourceGraphic" in2="BackgroundImageFix" result="shape"/>
<feGaussianBlur stdDeviation="1" result="effect1_foregroundBlur_750_5358"/>
</filter>
<filter id="filter33_f_750_5358" x="77.1278" y="97.1278" width="4.66674" height="4.66675" filterUnits="userSpaceOnUse" color-interpolation-filters="sRGB">
<feFlood flood-opacity="0" result="BackgroundImageFix"/>
<feBlend mode="normal" in="SourceGraphic" in2="BackgroundImageFix" result="shape"/>
<feGaussianBlur stdDeviation="1" result="effect1_foregroundBlur_750_5358"/>
</filter>
<filter id="filter34_f_750_5358" x="381.5" y="102.333" width="4.66666" height="4.66663" filterUnits="userSpaceOnUse" color-interpolation-filters="sRGB">
<feFlood flood-opacity="0" result="BackgroundImageFix"/>
<feBlend mode="normal" in="SourceGraphic" in2="BackgroundImageFix" result="shape"/>
<feGaussianBlur stdDeviation="1" result="effect1_foregroundBlur_750_5358"/>
</filter>
<filter id="filter35_f_750_5358" x="324.128" y="102.128" width="4.66675" height="4.66675" filterUnits="userSpaceOnUse" color-interpolation-filters="sRGB">
<feFlood flood-opacity="0" result="BackgroundImageFix"/>
<feBlend mode="normal" in="SourceGraphic" in2="BackgroundImageFix" result="shape"/>
<feGaussianBlur stdDeviation="1" result="effect1_foregroundBlur_750_5358"/>
</filter>
<filter id="filter36_f_750_5358" x="193.128" y="102.128" width="4.66675" height="4.66675" filterUnits="userSpaceOnUse" color-interpolation-filters="sRGB">
<feFlood flood-opacity="0" result="BackgroundImageFix"/>
<feBlend mode="normal" in="SourceGraphic" in2="BackgroundImageFix" result="shape"/>
<feGaussianBlur stdDeviation="1" result="effect1_foregroundBlur_750_5358"/>
</filter>
<filter id="filter37_f_750_5358" x="151.128" y="100.274" width="4.66675" height="4.66675" filterUnits="userSpaceOnUse" color-interpolation-filters="sRGB">
<feFlood flood-opacity="0" result="BackgroundImageFix"/>
<feBlend mode="normal" in="SourceGraphic" in2="BackgroundImageFix" result="shape"/>
<feGaussianBlur stdDeviation="1" result="effect1_foregroundBlur_750_5358"/>
</filter>
<filter id="filter38_f_750_5358" x="10.1278" y="100.274" width="4.66674" height="4.66675" filterUnits="userSpaceOnUse" color-interpolation-filters="sRGB">
<feFlood flood-opacity="0" result="BackgroundImageFix"/>
<feBlend mode="normal" in="SourceGraphic" in2="BackgroundImageFix" result="shape"/>
<feGaussianBlur stdDeviation="1" result="effect1_foregroundBlur_750_5358"/>
</filter>
<filter id="filter39_f_750_5358" x="71.1278" y="100.274" width="4.66674" height="4.66675" filterUnits="userSpaceOnUse" color-interpolation-filters="sRGB">
<feFlood flood-opacity="0" result="BackgroundImageFix"/>
<feBlend mode="normal" in="SourceGraphic" in2="BackgroundImageFix" result="shape"/>
<feGaussianBlur stdDeviation="1" result="effect1_foregroundBlur_750_5358"/>
</filter>
<filter id="filter40_f_750_5358" x="363" y="98" width="5" height="5" filterUnits="userSpaceOnUse" color-interpolation-filters="sRGB">
<feFlood flood-opacity="0" result="BackgroundImageFix"/>
<feBlend mode="normal" in="SourceGraphic" in2="BackgroundImageFix" result="shape"/>
<feGaussianBlur stdDeviation="1" result="effect1_foregroundBlur_750_5358"/>
</filter>
<filter id="filter41_f_750_5358" x="384" y="79" width="5" height="5" filterUnits="userSpaceOnUse" color-interpolation-filters="sRGB">
<feFlood flood-opacity="0" result="BackgroundImageFix"/>
<feBlend mode="normal" in="SourceGraphic" in2="BackgroundImageFix" result="shape"/>
<feGaussianBlur stdDeviation="1" result="effect1_foregroundBlur_750_5358"/>
</filter>
<filter id="filter42_f_750_5358" x="311" y="98" width="5" height="5" filterUnits="userSpaceOnUse" color-interpolation-filters="sRGB">
<feFlood flood-opacity="0" result="BackgroundImageFix"/>
<feBlend mode="normal" in="SourceGraphic" in2="BackgroundImageFix" result="shape"/>
<feGaussianBlur stdDeviation="1" result="effect1_foregroundBlur_750_5358"/>
</filter>
<linearGradient id="paint0_linear_750_5358" x1="196.5" y1="42" x2="196.5" y2="108" gradientUnits="userSpaceOnUse">
<stop offset="0.153846" stop-color="#321752"/>
<stop offset="1" stop-color="#200F44"/>
</linearGradient>
<clipPath id="clip0_750_5358">
<rect width="42" height="36" fill="white" transform="translate(177 22)"/>
</clipPath>
<clipPath id="clip1_750_5358">
<rect width="42" height="36" fill="white" transform="translate(176 23)"/>
</clipPath>
<clipPath id="clip2_750_5358">
<rect width="35" height="34.7872" fill="white" transform="translate(94 58)"/>
</clipPath>
</defs>
</svg>
