<svg width="32" height="48" viewBox="0 0 32 48" fill="none" xmlns="http://www.w3.org/2000/svg">
<path d="M14.6494 23.3955L7.83301 31.7373L0.28418 30.915L2.8291 13.4795L14.6494 23.3955Z" fill="#F4F4F6" stroke="#642F88" stroke-width="0.5"/>
<path d="M16.2451 42.9258L13.0908 47.4326L11.7422 42.9365L9.27344 33.5547L15.4072 25.6846L16.2451 42.9258Z" fill="#F4F4F6" stroke="#642F88" stroke-width="0.5"/>
<path d="M7.31445 34.0625L11.5166 46.3594L6.43945 42.8271L0.964844 33.3066L7.31445 34.0625Z" fill="#F4F4F6" stroke="#642F88" stroke-width="0.5"/>
<path d="M24.7441 27.1934L18.1934 40.5361L17.2568 24.6035L23.9102 18.5215L24.7441 27.1934Z" fill="#F4F4F6" stroke="#642F88" stroke-width="0.5"/>
<path d="M30.0742 18.25L31.6943 22.6943L26.2021 26.0811L25.2812 18.25H30.0742Z" fill="#F4F4F6" stroke="#642F88" stroke-width="0.5"/>
<path d="M26.7295 35.2803L19.3105 41.9355L26.1934 28.1709L31.4229 24.6846L26.7295 35.2803Z" fill="#F4F4F6" stroke="#642F88" stroke-width="0.5"/>
<path d="M19.2988 9.45703L19.3018 9.46582L19.3057 9.47363L22.6973 16.9385L16.4863 22.6719L10.293 17.8008L16.0762 0.748047L19.2988 9.45703Z" fill="#F4F4F6" stroke="#642F88" stroke-width="0.5"/>
</svg>
