<svg width="45" height="53" viewBox="0 0 45 53" fill="none" xmlns="http://www.w3.org/2000/svg">
<path d="M14.0784 33.3429C20.0551 34.8037 26.3921 34.6701 32.3137 33L39 37.8L30.9187 38.4136C25.778 38.804 20.6148 38.7962 15.4752 38.3903L8 37.8L14.0784 33.3429Z" fill="white"/>
<path d="M22.5 1C32.0454 1 39 8.37035 39 17.5C39 22.2612 38.2167 26.3469 35.8574 29.2422C33.5333 32.0942 29.5008 34 22.5 34C15.4992 34 11.4667 32.0942 9.14258 29.2422C6.7833 26.3469 6 22.2612 6 17.5C6 8.37035 12.9546 1 22.5 1Z" stroke="white" stroke-width="2"/>
<path d="M22.5 7C28.8901 7 34 11.963 34 18C34 21.2035 33.3431 23.9174 31.6719 25.8271C30.0233 27.711 27.2199 29 22.5 29C17.7801 29 14.9767 27.711 13.3281 25.8271C11.6569 23.9174 11 21.2035 11 18C11 11.963 16.1099 7 22.5 7Z" stroke="white" stroke-width="2"/>
<rect x="4" y="16" width="2" height="6" rx="1" stroke="white" stroke-width="2"/>
<rect x="39" y="16" width="2" height="6" rx="1" stroke="white" stroke-width="2"/>
<path d="M22 11C19.8125 11.7018 15.35 14.2842 15 19" stroke="white" stroke-width="2" stroke-linecap="round"/>
<path d="M1.11836 51V44H3.84836C4.46169 44 4.98503 44.0967 5.41836 44.29C5.85169 44.4833 6.18503 44.7633 6.41836 45.13C6.65169 45.4967 6.76836 45.9333 6.76836 46.44C6.76836 46.9467 6.65169 47.3833 6.41836 47.75C6.18503 48.11 5.85169 48.39 5.41836 48.59C4.98503 48.7833 4.46169 48.88 3.84836 48.88H1.66836L2.11836 48.41V51H1.11836ZM2.11836 48.51L1.66836 48.01H3.81836C4.45836 48.01 4.94169 47.8733 5.26836 47.6C5.60169 47.3267 5.76836 46.94 5.76836 46.44C5.76836 45.94 5.60169 45.5533 5.26836 45.28C4.94169 45.0067 4.45836 44.87 3.81836 44.87H1.66836L2.11836 44.37V48.51ZM8.2375 51V44H10.9675C11.5808 44 12.1042 44.0967 12.5375 44.29C12.9708 44.4833 13.3042 44.7633 13.5375 45.13C13.7708 45.4967 13.8875 45.9333 13.8875 46.44C13.8875 46.9467 13.7708 47.3833 13.5375 47.75C13.3042 48.11 12.9708 48.3867 12.5375 48.58C12.1042 48.7733 11.5808 48.87 10.9675 48.87H8.7875L9.2375 48.41V51H8.2375ZM12.9175 51L11.1375 48.46H12.2075L14.0075 51H12.9175ZM9.2375 48.51L8.7875 48.02H10.9375C11.5775 48.02 12.0608 47.8833 12.3875 47.61C12.7208 47.33 12.8875 46.94 12.8875 46.44C12.8875 45.94 12.7208 45.5533 12.3875 45.28C12.0608 45.0067 11.5775 44.87 10.9375 44.87H8.7875L9.2375 44.37V48.51ZM18.6631 51.08C18.1298 51.08 17.6331 50.99 17.1731 50.81C16.7198 50.63 16.3265 50.38 15.9931 50.06C15.6598 49.7333 15.3998 49.3533 15.2131 48.92C15.0265 48.4867 14.9331 48.0133 14.9331 47.5C14.9331 46.9867 15.0265 46.5133 15.2131 46.08C15.3998 45.6467 15.6598 45.27 15.9931 44.95C16.3265 44.6233 16.7198 44.37 17.1731 44.19C17.6265 44.01 18.1231 43.92 18.6631 43.92C19.1965 43.92 19.6865 44.01 20.1331 44.19C20.5865 44.3633 20.9798 44.6133 21.3131 44.94C21.6531 45.26 21.9131 45.6367 22.0931 46.07C22.2798 46.5033 22.3731 46.98 22.3731 47.5C22.3731 48.02 22.2798 48.4967 22.0931 48.93C21.9131 49.3633 21.6531 49.7433 21.3131 50.07C20.9798 50.39 20.5865 50.64 20.1331 50.82C19.6865 50.9933 19.1965 51.08 18.6631 51.08ZM18.6631 50.19C19.0498 50.19 19.4065 50.1233 19.7331 49.99C20.0665 49.8567 20.3531 49.67 20.5931 49.43C20.8398 49.1833 21.0298 48.8967 21.1631 48.57C21.3031 48.2433 21.3731 47.8867 21.3731 47.5C21.3731 47.1133 21.3031 46.7567 21.1631 46.43C21.0298 46.1033 20.8398 45.82 20.5931 45.58C20.3531 45.3333 20.0665 45.1433 19.7331 45.01C19.4065 44.8767 19.0498 44.81 18.6631 44.81C18.2698 44.81 17.9065 44.8767 17.5731 45.01C17.2465 45.1433 16.9598 45.3333 16.7131 45.58C16.4665 45.82 16.2731 46.1033 16.1331 46.43C15.9998 46.7567 15.9331 47.1133 15.9331 47.5C15.9331 47.8867 15.9998 48.2433 16.1331 48.57C16.2731 48.8967 16.4665 49.1833 16.7131 49.43C16.9598 49.67 17.2465 49.8567 17.5731 49.99C17.9065 50.1233 18.2698 50.19 18.6631 50.19ZM24.8016 47.31H28.4116V48.17H24.8016V47.31ZM24.9016 51H23.9016V44H28.8416V44.87H24.9016V51ZM30.2492 51V44H31.2492V51H30.2492ZM33.3449 51V44H34.3449V50.13H38.1349V51H33.3449ZM40.1924 47.02H43.7924V47.87H40.1924V47.02ZM40.2824 50.13H44.3624V51H39.2824V44H44.2224V44.87H40.2824V50.13Z" fill="white"/>
</svg>
