<svg width="122" height="24" viewBox="0 0 122 24" fill="none" xmlns="http://www.w3.org/2000/svg">
<g filter="url(#filter0_f_1782_2664)">
<path d="M19.7784 17.2818C19.7784 17.5467 19.6766 17.781 19.4728 17.9847C19.2793 18.1885 19.045 18.2903 18.7699 18.2903C18.556 18.2903 18.3522 18.219 18.1587 18.0764C17.9753 17.944 17.8633 17.781 17.8225 17.5874C17.5882 16.5789 17.2622 15.1883 16.8445 13.4158C16.4269 11.633 16.1111 10.3036 15.8971 9.42748L15.836 9.06074C15.8054 9.15242 15.7851 9.23392 15.7749 9.30523C15.7749 9.36635 15.7698 9.4071 15.7596 9.42748L13.2841 17.2054C13.2128 17.4193 13.0906 17.5925 12.9174 17.7249C12.7544 17.8472 12.5659 17.9083 12.352 17.9083C12.1279 17.9083 11.919 17.8421 11.7255 17.7097C11.5421 17.5772 11.4148 17.4142 11.3434 17.2207L8.73043 9.44276L8.66931 9.0913C8.61837 9.27467 8.59291 9.39182 8.59291 9.44276C8.37897 10.4615 8.09883 11.8266 7.75246 13.538C7.4061 15.2393 7.14632 16.5432 6.97314 17.4499C6.93239 17.6434 6.81524 17.8115 6.62168 17.9542C6.43831 18.0866 6.23457 18.1528 6.01045 18.1528C5.75577 18.1528 5.53675 18.0611 5.35338 17.8778C5.1802 17.6944 5.09361 17.4805 5.09361 17.236C5.09361 17.1952 5.10379 17.1239 5.12417 17.022C5.21585 16.6451 6.0512 13.0745 7.63022 6.3102C7.68115 6.08608 7.79321 5.9078 7.96639 5.77537C8.14976 5.64293 8.35351 5.57672 8.57763 5.57672C8.79156 5.57672 8.98002 5.64293 9.14301 5.77537C9.3162 5.89761 9.43844 6.0657 9.50975 6.27963L12.1533 14.4396C12.1533 14.4701 12.1839 14.6179 12.245 14.8827C12.3061 14.6179 12.3367 14.4701 12.3367 14.4396L14.9344 6.17267C15.0057 5.96892 15.1331 5.80084 15.3165 5.6684C15.4998 5.53597 15.7036 5.46975 15.9277 5.46975C16.1722 5.46975 16.3963 5.53597 16.6 5.6684C16.8038 5.80084 16.926 5.96892 16.9668 6.17267C17.1807 6.97746 17.5118 8.27632 17.96 10.0693C18.4185 11.8622 18.8769 13.6501 19.3353 15.4328L19.7479 17.0832L19.7784 17.2818ZM31.1176 14.9286C31.3723 14.9286 31.5862 15.0202 31.7594 15.2036C31.9428 15.3768 32.0345 15.5907 32.0345 15.8454C32.0345 16.0899 31.9479 16.3089 31.7747 16.5025C31.3061 17.0017 30.649 17.4142 29.8035 17.7402C28.9579 18.056 28.1175 18.2139 27.2821 18.2139C26.0699 18.2139 24.9747 17.9491 23.9968 17.4193C23.0188 16.8896 22.2497 16.1459 21.6894 15.1883C21.1291 14.2307 20.8489 13.1305 20.8489 11.8877C20.8489 10.655 21.1291 9.55482 21.6894 8.58703C22.2497 7.61925 23.0188 6.87049 23.9968 6.34076C24.9747 5.80084 26.0699 5.53088 27.2821 5.53088C28.1175 5.53088 28.9528 5.69896 29.7882 6.03514C30.6235 6.37132 31.2806 6.81446 31.7594 7.36457C31.9326 7.56831 32.0192 7.78734 32.0192 8.02164C32.0192 8.27632 31.9275 8.49535 31.7441 8.67872C31.5608 8.8519 31.3417 8.93849 31.0871 8.93849C30.9648 8.93849 30.8426 8.91302 30.7203 8.86209C30.5981 8.81115 30.5013 8.73984 30.43 8.64816C30.1346 8.2916 29.6965 8.01146 29.1158 7.80771C28.5352 7.60397 27.9239 7.5021 27.2821 7.5021C26.1514 7.5021 25.1989 7.78734 24.4246 8.35782C23.6606 8.91812 23.1665 9.70762 22.9424 10.7263H27.71C27.9647 10.7263 28.1786 10.818 28.3518 11.0014C28.5352 11.1746 28.6269 11.3885 28.6269 11.6432C28.6269 11.8979 28.5352 12.1169 28.3518 12.3003C28.1786 12.4734 27.9647 12.56 27.71 12.56H22.866C22.9984 13.7112 23.462 14.6179 24.2566 15.28C25.0613 15.932 26.0699 16.258 27.2821 16.258C27.9851 16.258 28.6269 16.1663 29.2075 15.9829C29.7882 15.7996 30.1957 15.5602 30.43 15.2647C30.5115 15.1629 30.6134 15.0814 30.7356 15.0202C30.868 14.9591 30.9954 14.9286 31.1176 14.9286ZM34.1721 18.2445C33.9072 18.2445 33.678 18.1528 33.4845 17.9694C33.2909 17.7861 33.1941 17.5721 33.1941 17.3276V6.56997C33.1941 6.3051 33.296 6.07589 33.4998 5.88233C33.7137 5.67859 33.9633 5.57672 34.2485 5.57672C34.5643 5.57672 34.8292 5.71425 35.0431 5.9893L41.9195 14.4549L42.0417 14.6993V6.37132C42.0417 6.12683 42.1385 5.9129 42.3321 5.72953C42.5256 5.54616 42.7548 5.45447 43.0197 5.45447C43.2846 5.45447 43.5138 5.54616 43.7073 5.72953C43.9111 5.9129 44.0129 6.12683 44.0129 6.37132V17.0526C44.0129 17.3175 43.906 17.5518 43.692 17.7555C43.4781 17.9491 43.2285 18.0458 42.9433 18.0458C42.8007 18.0458 42.658 18.0102 42.5154 17.9389C42.3728 17.8574 42.2506 17.7555 42.1487 17.6333L35.2876 9.21355L35.1654 8.95377V17.3276C35.1654 17.5721 35.0635 17.7861 34.8597 17.9694C34.6662 18.1528 34.437 18.2445 34.1721 18.2445ZM54.1466 5.77537C54.4013 5.77537 54.6152 5.86705 54.7884 6.05042C54.9718 6.2236 55.0635 6.43754 55.0635 6.69222C55.0635 6.9469 54.9718 7.16592 54.7884 7.34929C54.6152 7.52247 54.4013 7.60906 54.1466 7.60906H51.0446V17.2971C51.0446 17.5518 50.9427 17.7708 50.739 17.9542C50.5454 18.1273 50.3162 18.2139 50.0514 18.2139C49.7865 18.2139 49.5573 18.1273 49.3637 17.9542C49.1702 17.7708 49.0734 17.5518 49.0734 17.2971V7.60906H45.9561C45.7014 7.60906 45.4824 7.52247 45.299 7.34929C45.1258 7.16592 45.0393 6.9469 45.0393 6.69222C45.0393 6.43754 45.1258 6.2236 45.299 6.05042C45.4824 5.86705 45.7014 5.77537 45.9561 5.77537H54.1466ZM62.0088 18.4431C60.8271 18.4431 59.7625 18.1732 58.8151 17.6333C57.8677 17.0832 57.119 16.3191 56.5689 15.3411C56.0289 14.3632 55.759 13.2477 55.759 11.9946C55.759 10.7416 56.0289 9.62613 56.5689 8.64816C57.119 7.67019 57.8677 6.91124 58.8151 6.37132C59.7625 5.82121 60.8271 5.54616 62.0088 5.54616C63.1905 5.54616 64.2551 5.82121 65.2025 6.37132C66.1499 6.91124 66.8936 7.67019 67.4335 8.64816C67.9734 9.62613 68.2434 10.7416 68.2434 11.9946C68.2434 13.2477 67.9734 14.3632 67.4335 15.3411C66.8936 16.3191 66.1499 17.0832 65.2025 17.6333C64.2551 18.1732 63.1905 18.4431 62.0088 18.4431ZM62.0088 16.4719C62.8238 16.4719 63.5522 16.2886 64.194 15.9218C64.8459 15.5449 65.3553 15.0202 65.722 14.3479C66.0888 13.6653 66.2722 12.8809 66.2722 11.9946C66.2722 11.1084 66.0888 10.329 65.722 9.65669C65.3553 8.97415 64.8459 8.44951 64.194 8.08277C63.5522 7.70584 62.8238 7.51738 62.0088 7.51738C61.1938 7.51738 60.4604 7.70584 59.8084 8.08277C59.1564 8.44951 58.647 8.97415 58.2803 9.65669C57.9136 10.329 57.7302 11.1084 57.7302 11.9946C57.7302 12.8809 57.9136 13.6653 58.2803 14.3479C58.647 15.0202 59.1564 15.5449 59.8084 15.9218C60.4604 16.2886 61.1938 16.4719 62.0088 16.4719ZM77.5115 16.6094C77.6134 16.6909 77.7204 16.8183 77.8324 16.9915C77.9547 17.1647 78.0158 17.3276 78.0158 17.4805C78.0158 17.7351 77.9292 17.9389 77.756 18.0917C77.5828 18.2445 77.3638 18.3209 77.099 18.3209C76.8443 18.3209 76.6558 18.2801 76.5336 18.1987C76.1261 17.9745 75.8306 17.674 75.6473 17.2971C75.4639 16.91 75.3315 16.3548 75.25 15.6315C75.2194 15.3259 75.1889 14.9693 75.1583 14.5618C75.1277 14.1441 75.1023 13.8029 75.0819 13.538C75.0615 13.0592 74.7966 12.6976 74.2873 12.4531C73.7881 12.2086 73.1769 12.0863 72.4536 12.0863H71.4451V17.2971C71.4451 17.5518 71.3534 17.7708 71.17 17.9542C70.9968 18.1273 70.7829 18.2139 70.5282 18.2139C70.2735 18.2139 70.0545 18.1273 69.8711 17.9542C69.698 17.7708 69.6114 17.5518 69.6114 17.2971V6.55469C69.6114 6.26945 69.698 6.04024 69.8711 5.86705C70.0443 5.69387 70.2684 5.59709 70.5435 5.57672C70.8899 5.56653 71.3737 5.56144 71.9952 5.56144C72.6166 5.55125 73.131 5.54616 73.5385 5.54616C74.3026 5.54616 74.98 5.68368 75.5709 5.95874C76.1719 6.23379 76.6354 6.62091 76.9614 7.12008C77.2976 7.61925 77.4657 8.18973 77.4657 8.83153C77.4657 10.1355 76.8137 11.0065 75.5097 11.4445C76.3757 11.8113 76.8443 12.4582 76.9156 13.3852L76.9767 14.0881C76.9971 14.4141 77.0327 14.8674 77.0837 15.4481C77.1448 16.0593 77.2874 16.4465 77.5115 16.6094ZM71.4451 10.3902H73.5232C74.2567 10.3902 74.7916 10.273 75.1277 10.0387C75.4639 9.8044 75.632 9.40201 75.632 8.83153C75.632 8.3731 75.4486 8.01655 75.0819 7.76187C74.7151 7.50719 74.2007 7.37985 73.5385 7.37985H71.4451V10.3902ZM82.886 18.2903C82.0914 18.2903 81.3375 18.0968 80.6244 17.7097C79.9113 17.3124 79.351 16.7826 78.9435 16.1205C78.862 15.9778 78.8213 15.8098 78.8213 15.6162C78.8213 15.3004 78.8977 15.0508 79.0505 14.8674C79.2135 14.6841 79.4274 14.5924 79.6923 14.5924C79.9164 14.5924 80.1099 14.6382 80.2729 14.7299C80.4359 14.8216 80.5786 14.9693 80.7008 15.1731C80.8944 15.499 81.1949 15.769 81.6024 15.9829C82.02 16.1867 82.4479 16.2886 82.886 16.2886C84.3529 16.2886 85.0864 15.7792 85.0864 14.7605C85.0864 14.3224 84.903 13.9251 84.5363 13.5686C84.1797 13.212 83.6092 12.8504 82.8248 12.4836C81.8978 12.0558 81.1745 11.6687 80.655 11.3223C80.1456 10.9657 79.7789 10.5888 79.5547 10.1915C79.3306 9.78403 79.2186 9.30523 79.2186 8.75512C79.2186 8.12352 79.3867 7.56322 79.7228 7.07424C80.059 6.57506 80.5225 6.18795 81.1134 5.9129C81.7042 5.62765 82.3664 5.48503 83.0999 5.48503C83.9149 5.48503 84.6636 5.6684 85.3462 6.03514C86.0287 6.39169 86.5483 6.88068 86.9048 7.5021C87.0067 7.66509 87.0576 7.83318 87.0576 8.00636C87.0576 8.25086 86.9761 8.46479 86.8131 8.64816C86.6603 8.83153 86.4668 8.92321 86.2324 8.92321C86.0593 8.92321 85.881 8.87737 85.6976 8.78568C85.5143 8.68381 85.3716 8.56157 85.2698 8.41894C85.0355 8.09295 84.74 7.85356 84.3835 7.70075C84.0371 7.54794 83.6092 7.47154 83.0999 7.47154C82.4988 7.47154 82.0251 7.58359 81.6788 7.80771C81.3426 8.02164 81.1745 8.33745 81.1745 8.75512C81.1745 9.0098 81.2356 9.22373 81.3579 9.39692C81.4903 9.55991 81.7093 9.728 82.0149 9.90118C82.3308 10.0744 82.8452 10.3239 83.5583 10.6499C84.8011 11.2306 85.6925 11.8367 86.2324 12.4684C86.7826 13.1 87.0576 13.864 87.0576 14.7605C87.0576 15.4634 86.8844 16.0848 86.5381 16.6247C86.1917 17.1545 85.7027 17.567 85.0711 17.8625C84.4395 18.1477 83.7111 18.2903 82.886 18.2903ZM97.0441 5.68368C97.309 5.68368 97.5382 5.77537 97.7317 5.95874C97.9355 6.13192 98.0373 6.34585 98.0373 6.60053V17.2971C98.0373 17.5518 97.9355 17.7708 97.7317 17.9542C97.5382 18.1273 97.309 18.2139 97.0441 18.2139C96.7792 18.2139 96.55 18.1273 96.3564 17.9542C96.1629 17.7708 96.0661 17.5518 96.0661 17.2971V12.2697H90.2747V17.2971C90.2747 17.5518 90.1728 17.7708 89.9691 17.9542C89.7755 18.1273 89.5463 18.2139 89.2814 18.2139C89.0166 18.2139 88.7874 18.1273 88.5938 17.9542C88.4003 17.7708 88.3035 17.5518 88.3035 17.2971V6.60053C88.3035 6.34585 88.4003 6.13192 88.5938 5.95874C88.7874 5.77537 89.0166 5.68368 89.2814 5.68368C89.5463 5.68368 89.7755 5.77537 89.9691 5.95874C90.1728 6.13192 90.2747 6.34585 90.2747 6.60053V10.436H96.0661V6.60053C96.0661 6.34585 96.1629 6.13192 96.3564 5.95874C96.55 5.77537 96.7792 5.68368 97.0441 5.68368ZM101.856 17.2971C101.856 17.5518 101.764 17.7708 101.581 17.9542C101.407 18.1273 101.193 18.2139 100.939 18.2139C100.684 18.2139 100.465 18.1273 100.282 17.9542C100.109 17.7708 100.022 17.5518 100.022 17.2971V6.463C100.022 6.20832 100.109 5.99439 100.282 5.82121C100.465 5.63784 100.684 5.54616 100.939 5.54616C101.193 5.54616 101.407 5.63784 101.581 5.82121C101.764 5.99439 101.856 6.20832 101.856 6.463V17.2971ZM107.835 5.54616C109.058 5.54616 110.015 5.83649 110.708 6.41716C111.411 6.99783 111.762 7.80262 111.762 8.83153C111.762 9.54463 111.604 10.166 111.289 10.6958C110.973 11.2255 110.52 11.6381 109.929 11.9335C109.348 12.2188 108.66 12.3614 107.866 12.3614H105.818V17.1596C105.818 17.4142 105.716 17.6333 105.513 17.8166C105.319 17.9898 105.09 18.0764 104.825 18.0764C104.56 18.0764 104.331 17.9898 104.137 17.8166C103.944 17.6333 103.847 17.4142 103.847 17.1596V6.55469C103.847 6.28982 103.939 6.0657 104.122 5.88233C104.316 5.69896 104.56 5.59709 104.855 5.57672C105.202 5.56653 105.686 5.56144 106.307 5.56144C106.929 5.55125 107.438 5.54616 107.835 5.54616ZM107.866 10.5277C108.497 10.5277 108.976 10.3902 109.302 10.1151C109.638 9.84006 109.806 9.46313 109.806 8.98433C109.806 8.55647 109.638 8.20501 109.302 7.92996C108.976 7.6549 108.487 7.51738 107.835 7.51738L105.818 7.53266V10.5277H107.866Z" fill="url(#paint0_linear_1782_2664)"/>
</g>
<path d="M19.247 16.7218C19.247 16.969 19.1519 17.1877 18.9618 17.3778C18.7811 17.568 18.5624 17.6631 18.3057 17.6631C18.106 17.6631 17.9159 17.5965 17.7352 17.4634C17.5641 17.3398 17.4595 17.1877 17.4215 17.007C17.2028 16.0657 16.8985 14.7679 16.5087 13.1135C16.1189 11.4496 15.8241 10.2088 15.6244 9.39107L15.5674 9.04878C15.5389 9.13435 15.5198 9.21041 15.5103 9.27697C15.5103 9.33402 15.5056 9.37205 15.4961 9.39107L13.1856 16.6505C13.1191 16.8501 13.005 17.0118 12.8433 17.1354C12.6912 17.2495 12.5153 17.3065 12.3156 17.3065C12.1065 17.3065 11.9115 17.2447 11.7309 17.1211C11.5597 16.9975 11.4409 16.8454 11.3743 16.6647L8.93552 9.40533L8.87847 9.0773C8.83093 9.24845 8.80716 9.35779 8.80716 9.40533C8.60749 10.3561 8.34602 11.6302 8.02275 13.2276C7.69948 14.8154 7.45702 16.0324 7.29538 16.8787C7.25735 17.0593 7.14801 17.2162 6.96736 17.3493C6.79621 17.4729 6.60605 17.5347 6.39687 17.5347C6.15917 17.5347 5.95475 17.4491 5.7836 17.278C5.62197 17.1068 5.54115 16.9072 5.54115 16.679C5.54115 16.641 5.55066 16.5744 5.56967 16.4793C5.65525 16.1275 6.43491 12.7949 7.90865 6.48161C7.95619 6.27243 8.06078 6.10604 8.22242 5.98243C8.39356 5.85883 8.58372 5.79703 8.7929 5.79703C8.99257 5.79703 9.16847 5.85883 9.3206 5.98243C9.48223 6.09653 9.59633 6.25341 9.66289 6.45308L12.1302 14.069C12.1302 14.0976 12.1587 14.2354 12.2158 14.4826C12.2728 14.2354 12.3014 14.0976 12.3014 14.069L14.7259 6.35325C14.7925 6.16309 14.9113 6.0062 15.0825 5.8826C15.2536 5.75899 15.4438 5.69719 15.653 5.69719C15.8812 5.69719 16.0903 5.75899 16.2805 5.8826C16.4706 6.0062 16.5847 6.16309 16.6228 6.35325C16.8224 7.10438 17.1315 8.31666 17.5498 9.99007C17.9777 11.6635 18.4055 13.3322 18.8334 14.9961L19.2185 16.5364L19.247 16.7218ZM30.5433 14.5254C30.781 14.5254 30.9807 14.611 31.1423 14.7821C31.3135 14.9438 31.3991 15.1434 31.3991 15.3811C31.3991 15.6093 31.3182 15.8138 31.1566 15.9944C30.7192 16.4603 30.106 16.8454 29.3168 17.1496C28.5276 17.4444 27.7432 17.5918 26.9636 17.5918C25.8321 17.5918 24.81 17.3445 23.8972 16.8501C22.9844 16.3557 22.2666 15.6616 21.7436 14.7679C21.2207 13.8741 20.9592 12.8472 20.9592 11.6873C20.9592 10.5368 21.2207 9.50992 21.7436 8.60665C22.2666 7.70339 22.9844 7.00455 23.8972 6.51013C24.81 6.0062 25.8321 5.75424 26.9636 5.75424C27.7432 5.75424 28.5229 5.91112 29.3025 6.22489C30.0822 6.53865 30.6955 6.95225 31.1423 7.46569C31.304 7.65585 31.3848 7.86027 31.3848 8.07896C31.3848 8.31666 31.2992 8.52108 31.1281 8.69223C30.9569 8.85386 30.7525 8.93468 30.5148 8.93468C30.4007 8.93468 30.2866 8.91091 30.1725 8.86337C30.0584 8.81583 29.9681 8.74927 29.9015 8.6637C29.6258 8.33092 29.217 8.06945 28.675 7.87929C28.133 7.68913 27.5626 7.59405 26.9636 7.59405C25.9082 7.59405 25.0192 7.86027 24.2966 8.39272C23.5834 8.91567 23.1223 9.65254 22.9131 10.6033H27.3629C27.6006 10.6033 27.8003 10.6889 27.9619 10.8601C28.133 11.0217 28.2186 11.2214 28.2186 11.4591C28.2186 11.6968 28.133 11.9012 27.9619 12.0723C27.8003 12.234 27.6006 12.3148 27.3629 12.3148H22.8418C22.9654 13.3892 23.398 14.2354 24.1397 14.8534C24.8908 15.462 25.8321 15.7662 26.9636 15.7662C27.6196 15.7662 28.2186 15.6806 28.7606 15.5095C29.3025 15.3384 29.6829 15.1149 29.9015 14.8392C29.9776 14.7441 30.0727 14.668 30.1868 14.611C30.3104 14.5539 30.4292 14.5254 30.5433 14.5254ZM34.1073 17.6203C33.8601 17.6203 33.6462 17.5347 33.4655 17.3636C33.2849 17.1924 33.1945 16.9928 33.1945 16.7646V6.72406C33.1945 6.47685 33.2896 6.26292 33.4798 6.08227C33.6794 5.89211 33.9124 5.79703 34.1786 5.79703C34.4734 5.79703 34.7206 5.92538 34.9202 6.1821L41.3382 14.0833L41.4523 14.3115V6.53865C41.4523 6.31046 41.5426 6.11079 41.7232 5.93965C41.9039 5.7685 42.1178 5.68293 42.365 5.68293C42.6122 5.68293 42.8262 5.7685 43.0068 5.93965C43.197 6.11079 43.2921 6.31046 43.2921 6.53865V16.5078C43.2921 16.7551 43.1922 16.9737 42.9926 17.1639C42.7929 17.3445 42.56 17.4349 42.2937 17.4349C42.1606 17.4349 42.0275 17.4016 41.8944 17.335C41.7613 17.259 41.6472 17.1639 41.5521 17.0498L35.1484 9.1914L35.0343 8.94894V16.7646C35.0343 16.9928 34.9393 17.1924 34.7491 17.3636C34.5684 17.5347 34.3545 17.6203 34.1073 17.6203ZM53.4633 5.98243C53.701 5.98243 53.9006 6.06801 54.0623 6.23915C54.2334 6.40079 54.319 6.60046 54.319 6.83816C54.319 7.07586 54.2334 7.28028 54.0623 7.45143C53.9006 7.61306 53.701 7.69388 53.4633 7.69388H50.5681V16.736C50.5681 16.9737 50.473 17.1782 50.2828 17.3493C50.1022 17.5109 49.8882 17.5918 49.641 17.5918C49.3938 17.5918 49.1799 17.5109 48.9992 17.3493C48.8186 17.1782 48.7283 16.9737 48.7283 16.736V7.69388H45.8188C45.5811 7.69388 45.3767 7.61306 45.2055 7.45143C45.0439 7.28028 44.9631 7.07586 44.9631 6.83816C44.9631 6.60046 45.0439 6.40079 45.2055 6.23915C45.3767 6.06801 45.5811 5.98243 45.8188 5.98243H53.4633ZM61.5144 17.8057C60.4115 17.8057 59.4179 17.5537 58.5337 17.0498C57.6494 16.5364 56.9506 15.8233 56.4371 14.9105C55.9332 13.9977 55.6812 12.9566 55.6812 11.7871C55.6812 10.6176 55.9332 9.57647 56.4371 8.6637C56.9506 7.75093 57.6494 7.04258 58.5337 6.53865C59.4179 6.02522 60.4115 5.7685 61.5144 5.7685C62.6174 5.7685 63.611 6.02522 64.4952 6.53865C65.3794 7.04258 66.0735 7.75093 66.5775 8.6637C67.0814 9.57647 67.3334 10.6176 67.3334 11.7871C67.3334 12.9566 67.0814 13.9977 66.5775 14.9105C66.0735 15.8233 65.3794 16.5364 64.4952 17.0498C63.611 17.5537 62.6174 17.8057 61.5144 17.8057ZM61.5144 15.9659C62.2751 15.9659 62.9549 15.7947 63.5539 15.4524C64.1624 15.1007 64.6378 14.611 64.9801 13.9835C65.3224 13.3464 65.4935 12.6143 65.4935 11.7871C65.4935 10.9599 65.3224 10.2325 64.9801 9.605C64.6378 8.96796 64.1624 8.4783 63.5539 8.13601C62.9549 7.78421 62.2751 7.60831 61.5144 7.60831C60.7538 7.60831 60.0692 7.78421 59.4607 8.13601C58.8522 8.4783 58.3768 8.96796 58.0345 9.605C57.6922 10.2325 57.521 10.9599 57.521 11.7871C57.521 12.6143 57.6922 13.3464 58.0345 13.9835C58.3768 14.611 58.8522 15.1007 59.4607 15.4524C60.0692 15.7947 60.7538 15.9659 61.5144 15.9659ZM76.6967 16.0942C76.7918 16.1703 76.8917 16.2892 76.9962 16.4508C77.1103 16.6124 77.1674 16.7646 77.1674 16.9072C77.1674 17.1449 77.0866 17.335 76.9249 17.4777C76.7633 17.6203 76.5589 17.6916 76.3117 17.6916C76.074 17.6916 75.8981 17.6536 75.784 17.5775C75.4036 17.3683 75.1279 17.0878 74.9568 16.736C74.7856 16.3747 74.662 15.8565 74.586 15.1815C74.5574 14.8962 74.5289 14.5634 74.5004 14.1831C74.4719 13.7933 74.4481 13.4748 74.4291 13.2276C74.4101 12.7807 74.1628 12.4432 73.6874 12.215C73.2215 11.9868 72.6511 11.8727 71.976 11.8727H71.0347V16.736C71.0347 16.9737 70.9491 17.1782 70.778 17.3493C70.6163 17.5109 70.4167 17.5918 70.179 17.5918C69.9413 17.5918 69.7368 17.5109 69.5657 17.3493C69.4041 17.1782 69.3232 16.9737 69.3232 16.736V6.7098C69.3232 6.44357 69.4041 6.22964 69.5657 6.06801C69.7273 5.90637 69.9365 5.81604 70.1932 5.79703C70.5165 5.78752 70.9681 5.78276 71.5481 5.78276C72.1281 5.77326 72.6083 5.7685 72.9886 5.7685C73.7017 5.7685 74.334 5.89686 74.8855 6.15358C75.4464 6.41029 75.879 6.7716 76.1833 7.2375C76.4971 7.70339 76.654 8.23584 76.654 8.83485C76.654 10.0519 76.0454 10.8648 74.8284 11.2737C75.6366 11.616 76.074 12.2197 76.1405 13.0849L76.1976 13.741C76.2166 14.0453 76.2499 14.4684 76.2974 15.0103C76.3544 15.5808 76.4876 15.9421 76.6967 16.0942ZM71.0347 10.2896H72.9743C73.6589 10.2896 74.1581 10.1802 74.4719 9.96155C74.7856 9.74287 74.9425 9.3673 74.9425 8.83485C74.9425 8.40698 74.7714 8.0742 74.4291 7.8365C74.0868 7.5988 73.6066 7.47995 72.9886 7.47995H71.0347V10.2896ZM82.426 17.6631C81.6843 17.6631 80.9807 17.4824 80.3152 17.1211C79.6496 16.7503 79.1267 16.2559 78.7464 15.6379C78.6703 15.5047 78.6323 15.3479 78.6323 15.1672C78.6323 14.8725 78.7036 14.6395 78.8462 14.4684C78.9983 14.2972 79.198 14.2116 79.4452 14.2116C79.6544 14.2116 79.835 14.2544 79.9872 14.34C80.1393 14.4256 80.2724 14.5634 80.3865 14.7536C80.5671 15.0579 80.8476 15.3098 81.228 15.5095C81.6178 15.6997 82.0171 15.7947 82.426 15.7947C83.7951 15.7947 84.4797 15.3193 84.4797 14.3685C84.4797 13.9597 84.3086 13.5889 83.9663 13.2561C83.6335 12.9233 83.101 12.5858 82.3689 12.2435C81.5037 11.8441 80.8286 11.4828 80.3437 11.1596C79.8683 10.8268 79.526 10.475 79.3168 10.1042C79.1077 9.72385 79.0031 9.27697 79.0031 8.76354C79.0031 8.17404 79.16 7.65109 79.4737 7.19471C79.7875 6.72881 80.2201 6.36751 80.7716 6.11079C81.323 5.84457 81.9411 5.71145 82.6256 5.71145C83.3863 5.71145 84.0851 5.8826 84.7222 6.22489C85.3592 6.55767 85.8441 7.01406 86.1769 7.59405C86.272 7.74618 86.3195 7.90306 86.3195 8.0647C86.3195 8.29289 86.2435 8.49256 86.0913 8.6637C85.9487 8.83485 85.768 8.92042 85.5494 8.92042C85.3877 8.92042 85.2213 8.87763 85.0502 8.79206C84.879 8.69698 84.7459 8.58288 84.6509 8.44977C84.4322 8.14551 84.1564 7.92207 83.8237 7.77945C83.5004 7.63683 83.101 7.56552 82.6256 7.56552C82.0647 7.56552 81.6225 7.67011 81.2993 7.87929C80.9855 8.07896 80.8286 8.37371 80.8286 8.76354C80.8286 9.00124 80.8857 9.20091 80.9998 9.36254C81.1234 9.51467 81.3278 9.67155 81.613 9.83319C81.9078 9.99483 82.3879 10.2278 83.0535 10.532C84.2135 11.074 85.0454 11.6397 85.5494 12.2292C86.0628 12.8187 86.3195 13.5318 86.3195 14.3685C86.3195 15.0246 86.1579 15.6046 85.8346 16.1085C85.5113 16.6029 85.0549 16.988 84.4654 17.2637C83.8759 17.53 83.1961 17.6631 82.426 17.6631ZM96.3533 5.89686C96.6005 5.89686 96.8145 5.98243 96.9951 6.15358C97.1853 6.31521 97.2804 6.51488 97.2804 6.75258V16.736C97.2804 16.9737 97.1853 17.1782 96.9951 17.3493C96.8145 17.5109 96.6005 17.5918 96.3533 17.5918C96.1061 17.5918 95.8922 17.5109 95.7115 17.3493C95.5309 17.1782 95.4405 16.9737 95.4405 16.736V12.0438H90.0352V16.736C90.0352 16.9737 89.9401 17.1782 89.75 17.3493C89.5693 17.5109 89.3554 17.5918 89.1082 17.5918C88.861 17.5918 88.647 17.5109 88.4664 17.3493C88.2857 17.1782 88.1954 16.9737 88.1954 16.736V6.75258C88.1954 6.51488 88.2857 6.31521 88.4664 6.15358C88.647 5.98243 88.861 5.89686 89.1082 5.89686C89.3554 5.89686 89.5693 5.98243 89.75 6.15358C89.9401 6.31521 90.0352 6.51488 90.0352 6.75258V10.3324H95.4405V6.75258C95.4405 6.51488 95.5309 6.31521 95.7115 6.15358C95.8922 5.98243 96.1061 5.89686 96.3533 5.89686ZM101.557 16.736C101.557 16.9737 101.472 17.1782 101.3 17.3493C101.139 17.5109 100.939 17.5918 100.701 17.5918C100.464 17.5918 100.259 17.5109 100.088 17.3493C99.9266 17.1782 99.8457 16.9737 99.8457 16.736V6.62423C99.8457 6.38652 99.9266 6.18686 100.088 6.02522C100.259 5.85407 100.464 5.7685 100.701 5.7685C100.939 5.7685 101.139 5.85407 101.3 6.02522C101.472 6.18686 101.557 6.38652 101.557 6.62423V16.736ZM107.851 5.7685C108.992 5.7685 109.886 6.03948 110.532 6.58144C111.189 7.1234 111.517 7.87453 111.517 8.83485C111.517 9.50041 111.369 10.0804 111.074 10.5748C110.78 11.0692 110.357 11.4543 109.805 11.73C109.263 11.9963 108.621 12.1294 107.88 12.1294H105.969V16.6077C105.969 16.8454 105.874 17.0498 105.683 17.2209C105.503 17.3826 105.289 17.4634 105.042 17.4634C104.794 17.4634 104.58 17.3826 104.4 17.2209C104.219 17.0498 104.129 16.8454 104.129 16.6077V6.7098C104.129 6.46259 104.214 6.25341 104.386 6.08227C104.566 5.91112 104.794 5.81604 105.07 5.79703C105.393 5.78752 105.845 5.78276 106.425 5.78276C107.005 5.77326 107.48 5.7685 107.851 5.7685ZM107.88 10.4179C108.469 10.4179 108.916 10.2896 109.22 10.0329C109.534 9.77614 109.691 9.42435 109.691 8.97747C109.691 8.57813 109.534 8.2501 109.22 7.99338C108.916 7.73667 108.46 7.60831 107.851 7.60831L105.969 7.62257V10.4179H107.88Z" fill="white"/>
<defs>
<filter id="filter0_f_1782_2664" x="3.14713e-05" y="0.360993" width="116.856" height="23.1757" filterUnits="userSpaceOnUse" color-interpolation-filters="sRGB">
<feFlood flood-opacity="0" result="BackgroundImageFix"/>
<feBlend mode="normal" in="SourceGraphic" in2="BackgroundImageFix" result="shape"/>
<feGaussianBlur stdDeviation="2.5468" result="effect1_foregroundBlur_1782_2664"/>
</filter>
<linearGradient id="paint0_linear_1782_2664" x1="113.199" y1="9.60784" x2="-20.2869" y2="9.60784" gradientUnits="userSpaceOnUse">
<stop stop-color="#A315D6"/>
<stop offset="0.5" stop-color="#FDAB60"/>
<stop offset="1" stop-color="#A315D6"/>
</linearGradient>
</defs>
</svg>
