<svg width="78" height="24" viewBox="0 0 78 24" fill="none" xmlns="http://www.w3.org/2000/svg">
<g filter="url(#filter0_f_1780_2656)">
<path d="M15.3623 14.9286C15.617 14.9286 15.8309 15.0202 16.0041 15.2036C16.1875 15.3768 16.2791 15.5907 16.2791 15.8454C16.2791 16.0899 16.1926 16.3089 16.0194 16.5025C15.5508 17.0017 14.8937 17.4142 14.0481 17.7402C13.2026 18.056 12.3622 18.2139 11.5268 18.2139C10.3145 18.2139 9.21942 17.9491 8.24145 17.4193C7.26348 16.8896 6.49434 16.1459 5.93405 15.1883C5.37375 14.2307 5.09361 13.1305 5.09361 11.8877C5.09361 10.655 5.37375 9.55482 5.93405 8.58703C6.49434 7.61925 7.26348 6.87049 8.24145 6.34076C9.21942 5.80084 10.3145 5.53088 11.5268 5.53088C12.3622 5.53088 13.1975 5.69896 14.0329 6.03514C14.8682 6.37132 15.5253 6.81446 16.0041 7.36457C16.1773 7.56831 16.2639 7.78734 16.2639 8.02164C16.2639 8.27632 16.1722 8.49535 15.9888 8.67872C15.8054 8.8519 15.5864 8.93849 15.3317 8.93849C15.2095 8.93849 15.0872 8.91302 14.965 8.86209C14.8427 8.81115 14.746 8.73984 14.6747 8.64816C14.3792 8.2916 13.9412 8.01146 13.3605 7.80771C12.7798 7.60397 12.1686 7.5021 11.5268 7.5021C10.396 7.5021 9.44354 7.78734 8.66931 8.35782C7.90527 8.91812 7.41119 9.70762 7.18707 10.7263H11.9547C12.2094 10.7263 12.4233 10.818 12.5965 11.0014C12.7798 11.1746 12.8715 11.3885 12.8715 11.6432C12.8715 11.8979 12.7798 12.1169 12.5965 12.3003C12.4233 12.4734 12.2094 12.56 11.9547 12.56H7.11067C7.2431 13.7112 7.70662 14.6179 8.50122 15.28C9.30601 15.932 10.3145 16.258 11.5268 16.258C12.2297 16.258 12.8715 16.1663 13.4522 15.9829C14.0329 15.7996 14.4404 15.5602 14.6747 15.2647C14.7562 15.1629 14.858 15.0814 14.9803 15.0202C15.1127 14.9591 15.24 14.9286 15.3623 14.9286ZM27.7992 5.46975C28.0641 5.46975 28.2831 5.56144 28.4563 5.74481C28.6396 5.91799 28.7313 6.12683 28.7313 6.37132C28.7313 6.51394 28.7058 6.63619 28.6549 6.73806L23.6887 17.6791C23.597 17.8828 23.4747 18.0306 23.3219 18.1222C23.1691 18.2241 23.0061 18.2751 22.8329 18.2751C22.6903 18.2751 22.5528 18.219 22.4203 18.107C22.2879 18.0051 22.1759 17.8574 22.0842 17.6638L17.2096 6.64637C17.1587 6.5445 17.1332 6.42225 17.1332 6.27963C17.1332 6.00458 17.2198 5.79065 17.393 5.63784C17.5763 5.47485 17.8005 5.39335 18.0653 5.39335C18.2691 5.39335 18.4524 5.44938 18.6154 5.56144C18.7886 5.66331 18.916 5.80084 18.9975 5.97402L20.7242 9.9623L22.7412 14.6382L22.8941 15.0814L23.0469 14.6535L26.9435 5.9129C27.0148 5.76009 27.1166 5.64803 27.2491 5.57672C27.3917 5.50541 27.5751 5.46975 27.7992 5.46975ZM40.0682 14.9286C40.3229 14.9286 40.5368 15.0202 40.71 15.2036C40.8934 15.3768 40.9851 15.5907 40.9851 15.8454C40.9851 16.0899 40.8985 16.3089 40.7253 16.5025C40.2567 17.0017 39.5996 17.4142 38.7541 17.7402C37.9085 18.056 37.0681 18.2139 36.2328 18.2139C35.0205 18.2139 33.9254 17.9491 32.9474 17.4193C31.9694 16.8896 31.2003 16.1459 30.64 15.1883C30.0797 14.2307 29.7995 13.1305 29.7995 11.8877C29.7995 10.655 30.0797 9.55482 30.64 8.58703C31.2003 7.61925 31.9694 6.87049 32.9474 6.34076C33.9254 5.80084 35.0205 5.53088 36.2328 5.53088C37.0681 5.53088 37.9035 5.69896 38.7388 6.03514C39.5742 6.37132 40.2312 6.81446 40.71 7.36457C40.8832 7.56831 40.9698 7.78734 40.9698 8.02164C40.9698 8.27632 40.8781 8.49535 40.6947 8.67872C40.5114 8.8519 40.2923 8.93849 40.0377 8.93849C39.9154 8.93849 39.7932 8.91302 39.6709 8.86209C39.5487 8.81115 39.4519 8.73984 39.3806 8.64816C39.0852 8.2916 38.6471 8.01146 38.0664 7.80771C37.4858 7.60397 36.8745 7.5021 36.2328 7.5021C35.102 7.5021 34.1495 7.78734 33.3752 8.35782C32.6112 8.91812 32.1171 9.70762 31.893 10.7263H36.6606C36.9153 10.7263 37.1292 10.818 37.3024 11.0014C37.4858 11.1746 37.5775 11.3885 37.5775 11.6432C37.5775 11.8979 37.4858 12.1169 37.3024 12.3003C37.1292 12.4734 36.9153 12.56 36.6606 12.56H31.8166C31.949 13.7112 32.4126 14.6179 33.2072 15.28C34.0119 15.932 35.0205 16.258 36.2328 16.258C36.9357 16.258 37.5775 16.1663 38.1581 15.9829C38.7388 15.7996 39.1463 15.5602 39.3806 15.2647C39.4621 15.1629 39.564 15.0814 39.6862 15.0202C39.8186 14.9591 39.946 14.9286 40.0682 14.9286ZM43.1227 18.2445C42.8578 18.2445 42.6286 18.1528 42.4351 17.9694C42.2415 17.7861 42.1447 17.5721 42.1447 17.3276V6.56997C42.1447 6.3051 42.2466 6.07589 42.4504 5.88233C42.6643 5.67859 42.9139 5.57672 43.1991 5.57672C43.5149 5.57672 43.7798 5.71425 43.9937 5.9893L50.8701 14.4549L50.9923 14.6993V6.37132C50.9923 6.12683 51.0891 5.9129 51.2827 5.72953C51.4762 5.54616 51.7054 5.45447 51.9703 5.45447C52.2352 5.45447 52.4644 5.54616 52.6579 5.72953C52.8617 5.9129 52.9635 6.12683 52.9635 6.37132V17.0526C52.9635 17.3175 52.8566 17.5518 52.6426 17.7555C52.4287 17.9491 52.1791 18.0458 51.8939 18.0458C51.7513 18.0458 51.6086 18.0102 51.466 17.9389C51.3234 17.8574 51.2012 17.7555 51.0993 17.6333L44.2382 9.21355L44.116 8.95377V17.3276C44.116 17.5721 44.0141 17.7861 43.8103 17.9694C43.6168 18.1528 43.3876 18.2445 43.1227 18.2445ZM63.0972 5.77537C63.3519 5.77537 63.5658 5.86705 63.739 6.05042C63.9224 6.2236 64.0141 6.43754 64.0141 6.69222C64.0141 6.9469 63.9224 7.16592 63.739 7.34929C63.5658 7.52247 63.3519 7.60906 63.0972 7.60906H59.9952V17.2971C59.9952 17.5518 59.8933 17.7708 59.6896 17.9542C59.496 18.1273 59.2668 18.2139 59.002 18.2139C58.7371 18.2139 58.5079 18.1273 58.3143 17.9542C58.1208 17.7708 58.024 17.5518 58.024 17.2971V7.60906H54.9067C54.652 7.60906 54.433 7.52247 54.2496 7.34929C54.0765 7.16592 53.9899 6.9469 53.9899 6.69222C53.9899 6.43754 54.0765 6.2236 54.2496 6.05042C54.433 5.86705 54.652 5.77537 54.9067 5.77537H63.0972ZM68.6826 18.2903C67.888 18.2903 67.1341 18.0968 66.421 17.7097C65.7079 17.3124 65.1476 16.7826 64.7401 16.1205C64.6586 15.9778 64.6179 15.8098 64.6179 15.6162C64.6179 15.3004 64.6943 15.0508 64.8471 14.8674C65.0101 14.6841 65.224 14.5924 65.4889 14.5924C65.713 14.5924 65.9066 14.6382 66.0696 14.7299C66.2326 14.8216 66.3752 14.9693 66.4974 15.1731C66.691 15.499 66.9915 15.769 67.399 15.9829C67.8167 16.1867 68.2445 16.2886 68.6826 16.2886C70.1495 16.2886 70.883 15.7792 70.883 14.7605C70.883 14.3224 70.6996 13.9251 70.3329 13.5686C69.9764 13.212 69.4059 12.8504 68.6215 12.4836C67.6944 12.0558 66.9711 11.6687 66.4516 11.3223C65.9422 10.9657 65.5755 10.5888 65.3514 10.1915C65.1273 9.78403 65.0152 9.30523 65.0152 8.75512C65.0152 8.12352 65.1833 7.56322 65.5195 7.07424C65.8556 6.57506 66.3192 6.18795 66.91 5.9129C67.5009 5.62765 68.163 5.48503 68.8965 5.48503C69.7115 5.48503 70.4602 5.6684 71.1428 6.03514C71.8253 6.39169 72.3449 6.88068 72.7014 7.5021C72.8033 7.66509 72.8542 7.83318 72.8542 8.00636C72.8542 8.25086 72.7727 8.46479 72.6097 8.64816C72.4569 8.83153 72.2634 8.92321 72.0291 8.92321C71.8559 8.92321 71.6776 8.87737 71.4942 8.78568C71.3109 8.68381 71.1683 8.56157 71.0664 8.41894C70.8321 8.09295 70.5367 7.85356 70.1801 7.70075C69.8337 7.54794 69.4059 7.47154 68.8965 7.47154C68.2955 7.47154 67.8218 7.58359 67.4754 7.80771C67.1392 8.02164 66.9711 8.33745 66.9711 8.75512C66.9711 9.0098 67.0323 9.22373 67.1545 9.39692C67.2869 9.55991 67.506 9.728 67.8116 9.90118C68.1274 10.0744 68.6418 10.3239 69.3549 10.6499C70.5978 11.2306 71.4892 11.8367 72.0291 12.4684C72.5792 13.1 72.8542 13.864 72.8542 14.7605C72.8542 15.4634 72.6811 16.0848 72.3347 16.6247C71.9883 17.1545 71.4993 17.567 70.8677 17.8625C70.2361 18.1477 69.5077 18.2903 68.6826 18.2903Z" fill="url(#paint0_linear_1780_2656)"/>
</g>
<path d="M14.9296 14.5344C15.1673 14.5344 15.367 14.62 15.5286 14.7912C15.6997 14.9528 15.7853 15.1525 15.7853 15.3902C15.7853 15.6184 15.7045 15.8228 15.5429 16.0034C15.1055 16.4693 14.4922 16.8544 13.703 17.1587C12.9139 17.4534 12.1295 17.6008 11.3498 17.6008C10.2183 17.6008 9.19623 17.3536 8.28346 16.8592C7.37068 16.3647 6.65283 15.6707 6.12988 14.7769C5.60694 13.8831 5.34547 12.8563 5.34547 11.6963C5.34547 10.5458 5.60694 9.51895 6.12988 8.61569C6.65283 7.71242 7.37068 7.01358 8.28346 6.51916C9.19623 6.01524 10.2183 5.76327 11.3498 5.76327C12.1295 5.76327 12.9091 5.92016 13.6888 6.23392C14.4684 6.54769 15.0817 6.96129 15.5286 7.47472C15.6902 7.66488 15.771 7.8693 15.771 8.08799C15.771 8.32569 15.6855 8.53011 15.5143 8.70126C15.3432 8.8629 15.1388 8.94371 14.9011 8.94371C14.787 8.94371 14.6729 8.91994 14.5588 8.8724C14.4447 8.82486 14.3543 8.75831 14.2878 8.67274C14.0121 8.33995 13.6032 8.07848 13.0613 7.88832C12.5193 7.69816 11.9488 7.60308 11.3498 7.60308C10.2944 7.60308 9.40541 7.86931 8.68279 8.40176C7.96969 8.9247 7.50855 9.66157 7.29937 10.6124H11.7491C11.9868 10.6124 12.1865 10.6979 12.3481 10.8691C12.5193 11.0307 12.6049 11.2304 12.6049 11.4681C12.6049 11.7058 12.5193 11.9102 12.3481 12.0814C12.1865 12.243 11.9868 12.3238 11.7491 12.3238H7.22806C7.35167 13.3982 7.78428 14.2445 8.52591 14.8625C9.27705 15.471 10.2183 15.7752 11.3498 15.7752C12.0059 15.7752 12.6049 15.6897 13.1468 15.5185C13.6888 15.3474 14.0691 15.1239 14.2878 14.8482C14.3639 14.7531 14.4589 14.6771 14.573 14.62C14.6966 14.563 14.8155 14.5344 14.9296 14.5344ZM27.2505 5.70622C27.4977 5.70622 27.7021 5.7918 27.8637 5.96294C28.0349 6.12458 28.1204 6.31949 28.1204 6.54769C28.1204 6.6808 28.0967 6.7949 28.0491 6.88998L23.414 17.1016C23.3284 17.2918 23.2143 17.4296 23.0717 17.5152C22.929 17.6103 22.7769 17.6578 22.6153 17.6578C22.4822 17.6578 22.3538 17.6055 22.2302 17.501C22.1066 17.4059 22.002 17.268 21.9164 17.0874L17.3668 6.8044C17.3193 6.70932 17.2955 6.59523 17.2955 6.46211C17.2955 6.2054 17.3763 6.00573 17.538 5.86311C17.7091 5.71098 17.9183 5.63491 18.1655 5.63491C18.3557 5.63491 18.5268 5.68721 18.6789 5.7918C18.8406 5.88688 18.9594 6.01524 19.0355 6.17687L20.6471 9.89927L22.5297 14.2635L22.6723 14.6771L22.8149 14.2777L26.4518 6.11983C26.5183 5.9772 26.6134 5.87262 26.737 5.80606C26.8701 5.7395 27.0413 5.70622 27.2505 5.70622ZM39.4147 14.5344C39.6524 14.5344 39.852 14.62 40.0137 14.7912C40.1848 14.9528 40.2704 15.1525 40.2704 15.3902C40.2704 15.6184 40.1896 15.8228 40.0279 16.0034C39.5906 16.4693 38.9773 16.8544 38.1881 17.1587C37.399 17.4534 36.6145 17.6008 35.8349 17.6008C34.7034 17.6008 33.6813 17.3536 32.7685 16.8592C31.8558 16.3647 31.1379 15.6707 30.615 14.7769C30.092 13.8831 29.8305 12.8563 29.8305 11.6963C29.8305 10.5458 30.092 9.51895 30.615 8.61569C31.1379 7.71242 31.8558 7.01358 32.7685 6.51916C33.6813 6.01524 34.7034 5.76327 35.8349 5.76327C36.6145 5.76327 37.3942 5.92016 38.1739 6.23392C38.9535 6.54769 39.5668 6.96129 40.0137 7.47472C40.1753 7.66488 40.2561 7.8693 40.2561 8.08799C40.2561 8.32569 40.1705 8.53011 39.9994 8.70126C39.8283 8.8629 39.6238 8.94371 39.3861 8.94371C39.272 8.94371 39.1579 8.91994 39.0438 8.8724C38.9297 8.82486 38.8394 8.75831 38.7729 8.67274C38.4971 8.33995 38.0883 8.07848 37.5463 7.88832C37.0044 7.69816 36.4339 7.60308 35.8349 7.60308C34.7795 7.60308 33.8905 7.86931 33.1679 8.40176C32.4548 8.9247 31.9936 9.66157 31.7845 10.6124H36.2342C36.4719 10.6124 36.6716 10.6979 36.8332 10.8691C37.0044 11.0307 37.0899 11.2304 37.0899 11.4681C37.0899 11.7058 37.0044 11.9102 36.8332 12.0814C36.6716 12.243 36.4719 12.3238 36.2342 12.3238H31.7131C31.8367 13.3982 32.2694 14.2445 33.011 14.8625C33.7621 15.471 34.7034 15.7752 35.8349 15.7752C36.4909 15.7752 37.0899 15.6897 37.6319 15.5185C38.1739 15.3474 38.5542 15.1239 38.7729 14.8482C38.8489 14.7531 38.944 14.6771 39.0581 14.62C39.1817 14.563 39.3006 14.5344 39.4147 14.5344ZM42.9786 17.6293C42.7314 17.6293 42.5175 17.5437 42.3368 17.3726C42.1562 17.2015 42.0658 17.0018 42.0658 16.7736V6.73309C42.0658 6.48588 42.1609 6.27195 42.3511 6.0913C42.5508 5.90114 42.7837 5.80606 43.0499 5.80606C43.3447 5.80606 43.5919 5.93442 43.7916 6.19114L50.2095 14.0923L50.3236 14.3205V6.54769C50.3236 6.31949 50.4139 6.11982 50.5946 5.94868C50.7752 5.77753 50.9891 5.69196 51.2364 5.69196C51.4836 5.69196 51.6975 5.77753 51.8782 5.94868C52.0683 6.11982 52.1634 6.31949 52.1634 6.54769V16.5169C52.1634 16.7641 52.0636 16.9828 51.8639 17.1729C51.6642 17.3536 51.4313 17.4439 51.165 17.4439C51.0319 17.4439 50.8988 17.4106 50.7657 17.3441C50.6326 17.268 50.5185 17.1729 50.4234 17.0588L44.0198 9.20043L43.9057 8.95798V16.7736C43.9057 17.0018 43.8106 17.2015 43.6204 17.3726C43.4398 17.5437 43.2258 17.6293 42.9786 17.6293ZM62.3346 5.99147C62.5723 5.99147 62.772 6.07704 62.9336 6.24818C63.1047 6.40982 63.1903 6.60949 63.1903 6.84719C63.1903 7.08489 63.1047 7.28931 62.9336 7.46046C62.772 7.6221 62.5723 7.70291 62.3346 7.70291H59.4394V16.7451C59.4394 16.9828 59.3443 17.1872 59.1541 17.3583C58.9735 17.52 58.7596 17.6008 58.5123 17.6008C58.2651 17.6008 58.0512 17.52 57.8706 17.3583C57.6899 17.1872 57.5996 16.9828 57.5996 16.7451V7.70291H54.6901C54.4524 7.70291 54.248 7.6221 54.0768 7.46046C53.9152 7.28931 53.8344 7.08489 53.8344 6.84719C53.8344 6.60949 53.9152 6.40982 54.0768 6.24818C54.248 6.07704 54.4524 5.99147 54.6901 5.99147H62.3346ZM68.2607 17.6721C67.5191 17.6721 66.8155 17.4914 66.1499 17.1301C65.4844 16.7593 64.9614 16.2649 64.5811 15.6469C64.505 15.5138 64.467 15.3569 64.467 15.1762C64.467 14.8815 64.5383 14.6485 64.6809 14.4774C64.8331 14.3063 65.0327 14.2207 65.2799 14.2207C65.4891 14.2207 65.6698 14.2635 65.8219 14.349C65.974 14.4346 66.1071 14.5725 66.2212 14.7626C66.4019 15.0669 66.6824 15.3189 67.0627 15.5185C67.4525 15.7087 67.8519 15.8038 68.2607 15.8038C69.6299 15.8038 70.3144 15.3284 70.3144 14.3776C70.3144 13.9687 70.1433 13.5979 69.801 13.2651C69.4682 12.9323 68.9358 12.5948 68.2037 12.2525C67.3384 11.8532 66.6633 11.4919 66.1784 11.1686C65.703 10.8358 65.3607 10.484 65.1516 10.1132C64.9424 9.73288 64.8378 9.286 64.8378 8.77257C64.8378 8.18307 64.9947 7.66013 65.3085 7.20374C65.6222 6.73785 66.0548 6.37654 66.6063 6.11983C67.1578 5.8536 67.7758 5.72049 68.4604 5.72049C69.221 5.72049 69.9199 5.89163 70.5569 6.23392C71.1939 6.5667 71.6788 7.02309 72.0116 7.60308C72.1067 7.75521 72.1542 7.91209 72.1542 8.07373C72.1542 8.30192 72.0782 8.50159 71.9261 8.67274C71.7834 8.84388 71.6028 8.92945 71.3841 8.92945C71.2225 8.92945 71.0561 8.88667 70.8849 8.80109C70.7138 8.70601 70.5807 8.59192 70.4856 8.4588C70.2669 8.15455 69.9912 7.93111 69.6584 7.78849C69.3351 7.64587 68.9358 7.57456 68.4604 7.57456C67.8994 7.57456 67.4573 7.67914 67.134 7.88832C66.8202 8.08799 66.6633 8.38274 66.6633 8.77257C66.6633 9.01027 66.7204 9.20994 66.8345 9.37158C66.9581 9.52371 67.1625 9.68059 67.4478 9.84223C67.7425 10.0039 68.2227 10.2368 68.8882 10.5411C70.0482 11.083 70.8802 11.6488 71.3841 12.2383C71.8975 12.8278 72.1542 13.5409 72.1542 14.3776C72.1542 15.0336 71.9926 15.6136 71.6693 16.1175C71.3461 16.612 70.8897 16.997 70.3002 17.2728C69.7107 17.539 69.0309 17.6721 68.2607 17.6721Z" fill="white"/>
<defs>
<filter id="filter0_f_1780_2656" x="3.14713e-05" y="0.299714" width="77.9478" height="23.0842" filterUnits="userSpaceOnUse" color-interpolation-filters="sRGB">
<feFlood flood-opacity="0" result="BackgroundImageFix"/>
<feBlend mode="normal" in="SourceGraphic" in2="BackgroundImageFix" result="shape"/>
<feGaussianBlur stdDeviation="2.5468" result="effect1_foregroundBlur_1780_2656"/>
</filter>
<linearGradient id="paint0_linear_1780_2656" x1="71.2677" y1="9.8262" x2="-10.8778" y2="9.8262" gradientUnits="userSpaceOnUse">
<stop stop-color="#A315D6"/>
<stop offset="0.5" stop-color="#FDAB60"/>
<stop offset="1" stop-color="#A315D6"/>
</linearGradient>
</defs>
</svg>
