<svg width="327" height="159" viewBox="0 0 327 159" fill="none" xmlns="http://www.w3.org/2000/svg">
<path d="M303.232 1.01527C303.484 0.95819 303.674 1.05944 304.036 1.34732C304.398 1.6352 305.811 3.08874 305.811 3.08874C305.811 3.08874 309.672 7.6306 311.1 11.0954C311.912 13.0646 312.431 14.2124 312.617 16.3341C312.859 19.0972 311.435 23.3375 311.435 23.3375C311.435 23.3375 309.354 29.0838 308.793 30.2555C308.232 31.4272 308.023 32.3055 307 33.1617C305.977 34.0186 304.722 34.753 303.821 34.4166" stroke="#F2F2F2" stroke-width="2" stroke-linecap="round"/>
<rect y="31.9736" width="300" height="127" rx="10" fill="#F7AAF6"/>
<path d="M304.062 18.1528C309.585 18.153 314.062 22.6301 314.062 28.1528V141.974C314.062 147.497 309.585 151.974 304.062 151.974H16.0623C10.5396 151.974 6.06252 147.497 6.06226 141.974V28.1528C6.06226 22.63 10.5394 18.1528 16.0623 18.1528H304.062ZM302.497 27.4175C300.565 27.3486 298.946 28.9427 298.881 30.978C298.815 33.0136 300.328 34.7204 302.26 34.7896C304.191 34.8585 305.81 33.2636 305.876 31.228C305.941 29.1926 304.428 27.4866 302.497 27.4175Z" fill="url(#paint0_linear_1775_2606)"/>
<path d="M302.439 33.6237C300.44 31.0085 302.3 25.1955 302.3 25.1955C302.3 25.1955 303.439 21.7284 304.664 19.7677C306.32 17.1162 306.573 16.3771 309.465 14.0083C313.411 10.7751 319.424 12.6097 321.891 17.0757C323.492 19.9752 324.84 23.2269 324.693 25.7759" stroke="#F2F2F2" stroke-width="2" stroke-linecap="round"/>
<path d="M271.672 76.0536C271.139 76.0536 270.629 75.9736 270.142 75.8136C269.655 75.647 269.272 75.4336 268.992 75.1736L269.362 74.3936C269.629 74.627 269.969 74.8203 270.382 74.9736C270.795 75.127 271.225 75.2036 271.672 75.2036C272.079 75.2036 272.409 75.157 272.662 75.0636C272.915 74.9703 273.102 74.8436 273.222 74.6836C273.342 74.517 273.402 74.3303 273.402 74.1236C273.402 73.8836 273.322 73.6903 273.162 73.5436C273.009 73.397 272.805 73.2803 272.552 73.1936C272.305 73.1003 272.032 73.0203 271.732 72.9536C271.432 72.887 271.129 72.8103 270.822 72.7236C270.522 72.6303 270.245 72.5136 269.992 72.3736C269.745 72.2336 269.545 72.047 269.392 71.8136C269.239 71.5736 269.162 71.267 269.162 70.8936C269.162 70.5336 269.255 70.2036 269.442 69.9036C269.635 69.597 269.929 69.3536 270.322 69.1736C270.722 68.987 271.229 68.8936 271.842 68.8936C272.249 68.8936 272.652 68.947 273.052 69.0536C273.452 69.1603 273.799 69.3136 274.092 69.5136L273.762 70.3136C273.462 70.1136 273.145 69.9703 272.812 69.8836C272.479 69.7903 272.155 69.7436 271.842 69.7436C271.449 69.7436 271.125 69.7936 270.872 69.8936C270.619 69.9936 270.432 70.127 270.312 70.2936C270.199 70.4603 270.142 70.647 270.142 70.8536C270.142 71.1003 270.219 71.297 270.372 71.4436C270.532 71.5903 270.735 71.707 270.982 71.7936C271.235 71.8803 271.512 71.9603 271.812 72.0336C272.112 72.1003 272.412 72.177 272.712 72.2636C273.019 72.3503 273.295 72.4636 273.542 72.6036C273.795 72.7436 273.999 72.9303 274.152 73.1636C274.305 73.397 274.382 73.697 274.382 74.0636C274.382 74.417 274.285 74.747 274.092 75.0536C273.899 75.3536 273.599 75.597 273.192 75.7836C272.792 75.9636 272.285 76.0536 271.672 76.0536ZM274.783 75.9736L277.953 68.9736H278.943L282.123 75.9736H281.073L278.243 69.5336H278.643L275.813 75.9736H274.783ZM276.133 74.2236L276.403 73.4236H280.343L280.633 74.2236H276.133ZM284.816 75.9736L281.736 68.9736H282.816L285.646 75.4336H285.026L287.876 68.9736H288.876L285.806 75.9736H284.816ZM290.679 71.9936H294.279V72.8436H290.679V71.9936ZM290.769 75.1036H294.849V75.9736H289.769V68.9736H294.709V69.8436H290.769V75.1036Z" fill="white"/>
<path d="M275.571 42.4736H288.429C288.738 42.4737 288.964 42.5657 289.188 42.7881C289.411 43.0102 289.5 43.2305 289.5 43.5293V61.7041L282.588 58.7607L282 58.5098L281.412 58.7607L274.5 61.7041V43.5293C274.5 43.2305 274.589 43.0102 274.812 42.7881C275.036 42.5657 275.262 42.4737 275.571 42.4736Z" stroke="white" stroke-width="3"/>
<defs>
<linearGradient id="paint0_linear_1775_2606" x1="17.4653" y1="7.75121" x2="260.957" y2="91.4728" gradientUnits="userSpaceOnUse">
<stop stop-color="#56269F"/>
<stop offset="1" stop-color="#916490"/>
</linearGradient>
</defs>
</svg>
