<svg width="327" height="159" viewBox="0 0 327 159" fill="none" xmlns="http://www.w3.org/2000/svg">
<path d="M303.232 1.01527C303.484 0.95819 303.674 1.05944 304.036 1.34732C304.398 1.6352 305.811 3.08874 305.811 3.08874C305.811 3.08874 309.672 7.6306 311.1 11.0954C311.912 13.0646 312.431 14.2124 312.617 16.3341C312.859 19.0972 311.435 23.3375 311.435 23.3375C311.435 23.3375 309.354 29.0838 308.793 30.2555C308.232 31.4272 308.023 32.3055 307 33.1617C305.977 34.0186 304.722 34.753 303.821 34.4166" stroke="#F2F2F2" stroke-width="2" stroke-linecap="round"/>
<rect y="31.9736" width="300" height="127" rx="10" fill="#B7A2B6"/>
<path d="M304.062 18.1528C309.585 18.153 314.062 22.6301 314.062 28.1528V141.974C314.062 147.497 309.585 151.974 304.062 151.974H16.0623C10.5396 151.974 6.06252 147.497 6.06226 141.974V28.1528C6.06226 22.63 10.5394 18.1528 16.0623 18.1528H304.062ZM302.497 27.4175C300.565 27.3486 298.946 28.9427 298.881 30.978C298.815 33.0136 300.328 34.7204 302.26 34.7896C304.191 34.8585 305.81 33.2636 305.876 31.228C305.941 29.1926 304.428 27.4866 302.497 27.4175Z" fill="url(#paint0_linear_2032_2991)"/>
<path d="M302.439 33.6237C300.44 31.0085 302.3 25.1955 302.3 25.1955C302.3 25.1955 303.439 21.7284 304.664 19.7677C306.32 17.1162 306.573 16.3771 309.465 14.0083C313.411 10.7751 319.425 12.6097 321.891 17.0757C323.492 19.9752 324.84 23.2269 324.693 25.7759" stroke="#F2F2F2" stroke-width="2" stroke-linecap="round"/>
<defs>
<linearGradient id="paint0_linear_2032_2991" x1="17.4653" y1="7.75121" x2="260.957" y2="91.4728" gradientUnits="userSpaceOnUse">
<stop stop-color="#494057"/>
<stop offset="1" stop-color="#7C727C"/>
</linearGradient>
</defs>
</svg>
