<svg width="353" height="176" viewBox="0 0 353 176" fill="none" xmlns="http://www.w3.org/2000/svg">
<g filter="url(#filter0_f_884_1326)">
<path d="M17.98 72.57C16.42 72.57 14.94 72.19 13.54 71.43C12.14 70.65 11.04 69.61 10.24 68.31C10.08 68.03 10 67.7 10 67.32C10 66.7 10.15 66.21 10.45 65.85C10.77 65.49 11.19 65.31 11.71 65.31C12.15 65.31 12.53 65.4 12.85 65.58C13.17 65.76 13.45 66.05 13.69 66.45C14.07 67.09 14.66 67.62 15.46 68.04C16.28 68.44 17.12 68.64 17.98 68.64C20.86 68.64 22.3 67.64 22.3 65.64C22.3 64.78 21.94 64 21.22 63.3C20.52 62.6 19.4 61.89 17.86 61.17C16.04 60.33 14.62 59.57 13.6 58.89C12.6 58.19 11.88 57.45 11.44 56.67C11 55.87 10.78 54.93 10.78 53.85C10.78 52.61 11.11 51.51 11.77 50.55C12.43 49.57 13.34 48.81 14.5 48.27C15.66 47.71 16.96 47.43 18.4 47.43C20 47.43 21.47 47.79 22.81 48.51C24.15 49.21 25.17 50.17 25.87 51.39C26.07 51.71 26.17 52.04 26.17 52.38C26.17 52.86 26.01 53.28 25.69 53.64C25.39 54 25.01 54.18 24.55 54.18C24.21 54.18 23.86 54.09 23.5 53.91C23.14 53.71 22.86 53.47 22.66 53.19C22.2 52.55 21.62 52.08 20.92 51.78C20.24 51.48 19.4 51.33 18.4 51.33C17.22 51.33 16.29 51.55 15.61 51.99C14.95 52.41 14.62 53.03 14.62 53.85C14.62 54.35 14.74 54.77 14.98 55.11C15.24 55.43 15.67 55.76 16.27 56.1C16.89 56.44 17.9 56.93 19.3 57.57C21.74 58.71 23.49 59.9 24.55 61.14C25.63 62.38 26.17 63.88 26.17 65.64C26.17 67.02 25.83 68.24 25.15 69.3C24.47 70.34 23.51 71.15 22.27 71.73C21.03 72.29 19.6 72.57 17.98 72.57ZM46.8259 66.63C46.9859 66.43 47.1859 66.27 47.4259 66.15C47.6859 66.03 47.9359 65.97 48.1759 65.97C48.6759 65.97 49.0959 66.15 49.4359 66.51C49.7959 66.85 49.9759 67.27 49.9759 67.77C49.9759 68.25 49.8059 68.68 49.4659 69.06C48.5459 70.04 47.2559 70.85 45.5959 71.49C43.9359 72.11 42.2859 72.42 40.6459 72.42C38.2659 72.42 36.1159 71.9 34.1959 70.86C32.2759 69.82 30.7659 68.36 29.6659 66.48C28.5659 64.6 28.0159 62.44 28.0159 60C28.0159 57.58 28.5659 55.42 29.6659 53.52C30.7659 51.62 32.2759 50.15 34.1959 49.11C36.1159 48.05 38.2659 47.52 40.6459 47.52C42.2859 47.52 43.9259 47.85 45.5659 48.51C47.2059 49.17 48.4959 50.04 49.4359 51.12C49.7759 51.52 49.9459 51.95 49.9459 52.41C49.9459 52.91 49.7659 53.34 49.4059 53.7C49.0459 54.04 48.6159 54.21 48.1159 54.21C47.8759 54.21 47.6359 54.16 47.3959 54.06C47.1559 53.96 46.9659 53.82 46.8259 53.64C46.2459 52.94 45.3859 52.39 44.2459 51.99C43.1059 51.59 41.9059 51.39 40.6459 51.39C38.9259 51.39 37.3959 51.74 36.0559 52.44C34.7359 53.12 33.7059 54.11 32.9659 55.41C32.2459 56.69 31.8859 58.22 31.8859 60C31.8859 61.76 32.2559 63.29 32.9959 64.59C33.7359 65.87 34.7659 66.86 36.0859 67.56C37.4059 68.24 38.9259 68.58 40.6459 68.58C42.0259 68.58 43.2859 68.4 44.4259 68.04C45.5659 67.68 46.3659 67.21 46.8259 66.63ZM69.4127 47.82C69.9327 47.82 70.3827 48 70.7627 48.36C71.1627 48.7 71.3627 49.12 71.3627 49.62V70.62C71.3627 71.12 71.1627 71.55 70.7627 71.91C70.3827 72.25 69.9327 72.42 69.4127 72.42C68.8927 72.42 68.4427 72.25 68.0627 71.91C67.6827 71.55 67.4927 71.12 67.4927 70.62V60.75H56.1227V70.62C56.1227 71.12 55.9227 71.55 55.5227 71.91C55.1427 72.25 54.6927 72.42 54.1727 72.42C53.6527 72.42 53.2027 72.25 52.8227 71.91C52.4427 71.55 52.2527 71.12 52.2527 70.62V49.62C52.2527 49.12 52.4427 48.7 52.8227 48.36C53.2027 48 53.6527 47.82 54.1727 47.82C54.6927 47.82 55.1427 48 55.5227 48.36C55.9227 48.7 56.1227 49.12 56.1227 49.62V57.15H67.4927V49.62C67.4927 49.12 67.6827 48.7 68.0627 48.36C68.4427 48 68.8927 47.82 69.4127 47.82ZM94.2189 65.97C94.7189 65.97 95.1389 66.15 95.4789 66.51C95.8389 66.85 96.0189 67.27 96.0189 67.77C96.0189 68.25 95.8489 68.68 95.5089 69.06C94.5889 70.04 93.2989 70.85 91.6389 71.49C89.9789 72.11 88.3289 72.42 86.6889 72.42C84.3089 72.42 82.1589 71.9 80.2389 70.86C78.3189 69.82 76.8089 68.36 75.7089 66.48C74.6089 64.6 74.0589 62.44 74.0589 60C74.0589 57.58 74.6089 55.42 75.7089 53.52C76.8089 51.62 78.3189 50.15 80.2389 49.11C82.1589 48.05 84.3089 47.52 86.6889 47.52C88.3289 47.52 89.9689 47.85 91.6089 48.51C93.2489 49.17 94.5389 50.04 95.4789 51.12C95.8189 51.52 95.9889 51.95 95.9889 52.41C95.9889 52.91 95.8089 53.34 95.4489 53.7C95.0889 54.04 94.6589 54.21 94.1589 54.21C93.9189 54.21 93.6789 54.16 93.4389 54.06C93.1989 53.96 93.0089 53.82 92.8689 53.64C92.2889 52.94 91.4289 52.39 90.2889 51.99C89.1489 51.59 87.9489 51.39 86.6889 51.39C84.4689 51.39 82.5989 51.95 81.0789 53.07C79.5789 54.17 78.6089 55.72 78.1689 57.72H87.5289C88.0289 57.72 88.4489 57.9 88.7889 58.26C89.1489 58.6 89.3289 59.02 89.3289 59.52C89.3289 60.02 89.1489 60.45 88.7889 60.81C88.4489 61.15 88.0289 61.32 87.5289 61.32H78.0189C78.2789 63.58 79.1889 65.36 80.7489 66.66C82.3289 67.94 84.3089 68.58 86.6889 68.58C88.0689 68.58 89.3289 68.4 90.4689 68.04C91.6089 67.68 92.4089 67.21 92.8689 66.63C93.0289 66.43 93.2289 66.27 93.4689 66.15C93.7289 66.03 93.9789 65.97 94.2189 65.97ZM100.336 72.27C99.7556 72.27 99.2656 72.09 98.8656 71.73C98.4856 71.35 98.2956 70.89 98.2956 70.35V49.65C98.2956 49.11 98.4856 48.66 98.8656 48.3C99.2656 47.92 99.7556 47.73 100.336 47.73H105.316C107.876 47.73 110.196 48.24 112.276 49.26C114.356 50.28 115.986 51.69 117.166 53.49C118.366 55.27 118.966 57.29 118.966 59.55C118.966 61.89 118.366 64.03 117.166 65.97C115.966 67.91 114.326 69.45 112.246 70.59C110.166 71.71 107.856 72.27 105.316 72.27H100.336ZM102.166 68.4H105.316C107.196 68.4 108.876 68.04 110.356 67.32C111.856 66.58 113.016 65.54 113.836 64.2C114.676 62.86 115.096 61.31 115.096 59.55C115.096 57.97 114.676 56.58 113.836 55.38C113.016 54.18 111.856 53.25 110.356 52.59C108.876 51.93 107.196 51.6 105.316 51.6H102.166V68.4ZM136.789 49.53C136.789 49.03 136.979 48.61 137.359 48.27C137.739 47.91 138.189 47.73 138.709 47.73C139.229 47.73 139.679 47.91 140.059 48.27C140.459 48.61 140.659 49.03 140.659 49.53V62.43C140.659 64.51 140.279 66.32 139.519 67.86C138.759 69.38 137.659 70.55 136.219 71.37C134.799 72.19 133.109 72.6 131.149 72.6C129.189 72.6 127.499 72.19 126.079 71.37C124.659 70.55 123.569 69.38 122.809 67.86C122.049 66.32 121.669 64.51 121.669 62.43V49.26C121.669 48.76 121.859 48.34 122.239 48C122.619 47.64 123.069 47.46 123.589 47.46C124.109 47.46 124.559 47.64 124.939 48C125.339 48.34 125.539 48.76 125.539 49.26V62.43C125.539 64.41 126.029 65.96 127.009 67.08C128.009 68.18 129.389 68.73 131.149 68.73C132.929 68.73 134.309 68.18 135.289 67.08C136.289 65.96 136.789 64.41 136.789 62.43V49.53ZM153.918 68.49C154.418 68.49 154.838 68.67 155.178 69.03C155.538 69.37 155.718 69.79 155.718 70.29C155.718 70.79 155.538 71.22 155.178 71.58C154.838 71.92 154.418 72.09 153.918 72.09H145.878C145.318 72.09 144.858 71.91 144.498 71.55C144.138 71.19 143.958 70.73 143.958 70.17V49.38C143.958 48.88 144.128 48.46 144.468 48.12C144.828 47.76 145.258 47.58 145.758 47.58C146.258 47.58 146.678 47.76 147.018 48.12C147.378 48.46 147.558 48.88 147.558 49.38V68.49H153.918ZM177.692 65.97C178.192 65.97 178.612 66.15 178.952 66.51C179.312 66.85 179.492 67.27 179.492 67.77C179.492 68.25 179.322 68.68 178.982 69.06C178.062 70.04 176.772 70.85 175.112 71.49C173.452 72.11 171.802 72.42 170.162 72.42C167.782 72.42 165.632 71.9 163.712 70.86C161.792 69.82 160.282 68.36 159.182 66.48C158.082 64.6 157.532 62.44 157.532 60C157.532 57.58 158.082 55.42 159.182 53.52C160.282 51.62 161.792 50.15 163.712 49.11C165.632 48.05 167.782 47.52 170.162 47.52C171.802 47.52 173.442 47.85 175.082 48.51C176.722 49.17 178.012 50.04 178.952 51.12C179.292 51.52 179.462 51.95 179.462 52.41C179.462 52.91 179.282 53.34 178.922 53.7C178.562 54.04 178.132 54.21 177.632 54.21C177.392 54.21 177.152 54.16 176.912 54.06C176.672 53.96 176.482 53.82 176.342 53.64C175.762 52.94 174.902 52.39 173.762 51.99C172.622 51.59 171.422 51.39 170.162 51.39C167.942 51.39 166.072 51.95 164.552 53.07C163.052 54.17 162.082 55.72 161.642 57.72H171.002C171.502 57.72 171.922 57.9 172.262 58.26C172.622 58.6 172.802 59.02 172.802 59.52C172.802 60.02 172.622 60.45 172.262 60.81C171.922 61.15 171.502 61.32 171.002 61.32H161.492C161.752 63.58 162.662 65.36 164.222 66.66C165.802 67.94 167.782 68.58 170.162 68.58C171.542 68.58 172.802 68.4 173.942 68.04C175.082 67.68 175.882 67.21 176.342 66.63C176.502 66.43 176.702 66.27 176.942 66.15C177.202 66.03 177.452 65.97 177.692 65.97Z" fill="url(#paint0_linear_884_1326)"/>
</g>
<path d="M18.3052 71.532C16.8492 71.532 15.4679 71.1773 14.1612 70.468C12.8546 69.74 11.8279 68.7693 11.0812 67.556C10.9319 67.2947 10.8572 66.9867 10.8572 66.632C10.8572 66.0533 10.9972 65.596 11.2772 65.26C11.5759 64.924 11.9679 64.756 12.4532 64.756C12.8639 64.756 13.2186 64.84 13.5172 65.008C13.8159 65.176 14.0772 65.4467 14.3012 65.82C14.6559 66.4173 15.2066 66.912 15.9532 67.304C16.7186 67.6773 17.5026 67.864 18.3052 67.864C20.9932 67.864 22.3372 66.9307 22.3372 65.064C22.3372 64.2613 22.0012 63.5333 21.3292 62.88C20.6759 62.2267 19.6306 61.564 18.1932 60.892C16.4946 60.108 15.1692 59.3987 14.2172 58.764C13.2839 58.1107 12.6119 57.42 12.2012 56.692C11.7906 55.9453 11.5852 55.068 11.5852 54.06C11.5852 52.9027 11.8932 51.876 12.5092 50.98C13.1252 50.0653 13.9746 49.356 15.0572 48.852C16.1399 48.3293 17.3532 48.068 18.6972 48.068C20.1906 48.068 21.5626 48.404 22.8132 49.076C24.0639 49.7293 25.0159 50.6253 25.6692 51.764C25.8559 52.0627 25.9492 52.3707 25.9492 52.688C25.9492 53.136 25.7999 53.528 25.5012 53.864C25.2212 54.2 24.8666 54.368 24.4372 54.368C24.1199 54.368 23.7932 54.284 23.4572 54.116C23.1212 53.9293 22.8599 53.7053 22.6732 53.444C22.2439 52.8467 21.7026 52.408 21.0492 52.128C20.4146 51.848 19.6306 51.708 18.6972 51.708C17.5959 51.708 16.7279 51.9133 16.0932 52.324C15.4772 52.716 15.1692 53.2947 15.1692 54.06C15.1692 54.5267 15.2812 54.9187 15.5052 55.236C15.7479 55.5347 16.1492 55.8427 16.7092 56.16C17.2879 56.4773 18.2306 56.9347 19.5372 57.532C21.8146 58.596 23.4479 59.7067 24.4372 60.864C25.4452 62.0213 25.9492 63.4213 25.9492 65.064C25.9492 66.352 25.6319 67.4907 24.9972 68.48C24.3626 69.4507 23.4666 70.2067 22.3092 70.748C21.1519 71.2707 19.8172 71.532 18.3052 71.532ZM46.6281 65.988C46.7774 65.8013 46.9641 65.652 47.1881 65.54C47.4308 65.428 47.6641 65.372 47.8881 65.372C48.3548 65.372 48.7468 65.54 49.0641 65.876C49.4001 66.1933 49.5681 66.5853 49.5681 67.052C49.5681 67.5 49.4094 67.9013 49.0921 68.256C48.2334 69.1707 47.0294 69.9267 45.4801 70.524C43.9308 71.1027 42.3908 71.392 40.8601 71.392C38.6388 71.392 36.6321 70.9067 34.8401 69.936C33.0481 68.9653 31.6388 67.6027 30.6121 65.848C29.5854 64.0933 29.0721 62.0773 29.0721 59.8C29.0721 57.5413 29.5854 55.5253 30.6121 53.752C31.6388 51.9787 33.0481 50.6067 34.8401 49.636C36.6321 48.6467 38.6388 48.152 40.8601 48.152C42.3908 48.152 43.9214 48.46 45.4521 49.076C46.9828 49.692 48.1868 50.504 49.0641 51.512C49.3814 51.8853 49.5401 52.2867 49.5401 52.716C49.5401 53.1827 49.3721 53.584 49.0361 53.92C48.7001 54.2373 48.2988 54.396 47.8321 54.396C47.6081 54.396 47.3841 54.3493 47.1601 54.256C46.9361 54.1627 46.7588 54.032 46.6281 53.864C46.0868 53.2107 45.2841 52.6973 44.2201 52.324C43.1561 51.9507 42.0361 51.764 40.8601 51.764C39.2548 51.764 37.8268 52.0907 36.5761 52.744C35.3441 53.3787 34.3828 54.3027 33.6921 55.516C33.0201 56.7107 32.6841 58.1387 32.6841 59.8C32.6841 61.4427 33.0294 62.8707 33.7201 64.084C34.4108 65.2787 35.3721 66.2027 36.6041 66.856C37.8361 67.4907 39.2548 67.808 40.8601 67.808C42.1481 67.808 43.3241 67.64 44.3881 67.304C45.4521 66.968 46.1988 66.5293 46.6281 65.988ZM69.109 48.432C69.5944 48.432 70.0144 48.6 70.369 48.936C70.7424 49.2533 70.929 49.6453 70.929 50.112V69.712C70.929 70.1787 70.7424 70.58 70.369 70.916C70.0144 71.2333 69.5944 71.392 69.109 71.392C68.6237 71.392 68.2037 71.2333 67.849 70.916C67.4944 70.58 67.317 70.1787 67.317 69.712V60.5H56.705V69.712C56.705 70.1787 56.5184 70.58 56.145 70.916C55.7904 71.2333 55.3704 71.392 54.885 71.392C54.3997 71.392 53.9797 71.2333 53.625 70.916C53.2704 70.58 53.093 70.1787 53.093 69.712V50.112C53.093 49.6453 53.2704 49.2533 53.625 48.936C53.9797 48.6 54.3997 48.432 54.885 48.432C55.3704 48.432 55.7904 48.6 56.145 48.936C56.5184 49.2533 56.705 49.6453 56.705 50.112V57.14H67.317V50.112C67.317 49.6453 67.4944 49.2533 67.849 48.936C68.2037 48.6 68.6237 48.432 69.109 48.432ZM93.6615 65.372C94.1282 65.372 94.5202 65.54 94.8375 65.876C95.1735 66.1933 95.3415 66.5853 95.3415 67.052C95.3415 67.5 95.1829 67.9013 94.8655 68.256C94.0069 69.1707 92.8029 69.9267 91.2535 70.524C89.7042 71.1027 88.1642 71.392 86.6335 71.392C84.4122 71.392 82.4055 70.9067 80.6135 69.936C78.8215 68.9653 77.4122 67.6027 76.3855 65.848C75.3589 64.0933 74.8455 62.0773 74.8455 59.8C74.8455 57.5413 75.3589 55.5253 76.3855 53.752C77.4122 51.9787 78.8215 50.6067 80.6135 49.636C82.4055 48.6467 84.4122 48.152 86.6335 48.152C88.1642 48.152 89.6949 48.46 91.2255 49.076C92.7562 49.692 93.9602 50.504 94.8375 51.512C95.1549 51.8853 95.3135 52.2867 95.3135 52.716C95.3135 53.1827 95.1455 53.584 94.8095 53.92C94.4735 54.2373 94.0722 54.396 93.6055 54.396C93.3815 54.396 93.1575 54.3493 92.9335 54.256C92.7095 54.1627 92.5322 54.032 92.4015 53.864C91.8602 53.2107 91.0575 52.6973 89.9935 52.324C88.9295 51.9507 87.8095 51.764 86.6335 51.764C84.5615 51.764 82.8162 52.2867 81.3975 53.332C79.9975 54.3587 79.0922 55.8053 78.6815 57.672H87.4175C87.8842 57.672 88.2762 57.84 88.5935 58.176C88.9295 58.4933 89.0975 58.8853 89.0975 59.352C89.0975 59.8187 88.9295 60.22 88.5935 60.556C88.2762 60.8733 87.8842 61.032 87.4175 61.032H78.5415C78.7842 63.1413 79.6335 64.8027 81.0895 66.016C82.5642 67.2107 84.4122 67.808 86.6335 67.808C87.9215 67.808 89.0975 67.64 90.1615 67.304C91.2255 66.968 91.9722 66.5293 92.4015 65.988C92.5509 65.8013 92.7375 65.652 92.9615 65.54C93.2042 65.428 93.4375 65.372 93.6615 65.372ZM100.77 71.252C100.229 71.252 99.7718 71.084 99.3985 70.748C99.0438 70.3933 98.8665 69.964 98.8665 69.46V50.14C98.8665 49.636 99.0438 49.216 99.3985 48.88C99.7718 48.5253 100.229 48.348 100.77 48.348H105.418C107.808 48.348 109.973 48.824 111.914 49.776C113.856 50.728 115.377 52.044 116.478 53.724C117.598 55.3853 118.158 57.2707 118.158 59.38C118.158 61.564 117.598 63.5613 116.478 65.372C115.358 67.1827 113.828 68.62 111.886 69.684C109.945 70.7293 107.789 71.252 105.418 71.252H100.77ZM102.478 67.64H105.418C107.173 67.64 108.741 67.304 110.122 66.632C111.522 65.9413 112.605 64.9707 113.37 63.72C114.154 62.4693 114.546 61.0227 114.546 59.38C114.546 57.9053 114.154 56.608 113.37 55.488C112.605 54.368 111.522 53.5 110.122 52.884C108.741 52.268 107.173 51.96 105.418 51.96H102.478V67.64ZM136.193 50.028C136.193 49.5613 136.371 49.1693 136.725 48.852C137.08 48.516 137.5 48.348 137.985 48.348C138.471 48.348 138.891 48.516 139.245 48.852C139.619 49.1693 139.805 49.5613 139.805 50.028V62.068C139.805 64.0093 139.451 65.6987 138.741 67.136C138.032 68.5547 137.005 69.6467 135.661 70.412C134.336 71.1773 132.759 71.56 130.929 71.56C129.1 71.56 127.523 71.1773 126.197 70.412C124.872 69.6467 123.855 68.5547 123.145 67.136C122.436 65.6987 122.081 64.0093 122.081 62.068V49.776C122.081 49.3093 122.259 48.9173 122.613 48.6C122.968 48.264 123.388 48.096 123.873 48.096C124.359 48.096 124.779 48.264 125.133 48.6C125.507 48.9173 125.693 49.3093 125.693 49.776V62.068C125.693 63.916 126.151 65.3627 127.065 66.408C127.999 67.4347 129.287 67.948 130.929 67.948C132.591 67.948 133.879 67.4347 134.793 66.408C135.727 65.3627 136.193 63.916 136.193 62.068V50.028ZM153.58 67.724C154.047 67.724 154.439 67.892 154.756 68.228C155.092 68.5453 155.26 68.9373 155.26 69.404C155.26 69.8707 155.092 70.272 154.756 70.608C154.439 70.9253 154.047 71.084 153.58 71.084H146.076C145.554 71.084 145.124 70.916 144.788 70.58C144.452 70.244 144.284 69.8147 144.284 69.292V49.888C144.284 49.4213 144.443 49.0293 144.76 48.712C145.096 48.376 145.498 48.208 145.964 48.208C146.431 48.208 146.823 48.376 147.14 48.712C147.476 49.0293 147.644 49.4213 147.644 49.888V67.724H153.58ZM177.169 65.372C177.636 65.372 178.028 65.54 178.345 65.876C178.681 66.1933 178.849 66.5853 178.849 67.052C178.849 67.5 178.691 67.9013 178.373 68.256C177.515 69.1707 176.311 69.9267 174.761 70.524C173.212 71.1027 171.672 71.392 170.141 71.392C167.92 71.392 165.913 70.9067 164.121 69.936C162.329 68.9653 160.92 67.6027 159.893 65.848C158.867 64.0933 158.353 62.0773 158.353 59.8C158.353 57.5413 158.867 55.5253 159.893 53.752C160.92 51.9787 162.329 50.6067 164.121 49.636C165.913 48.6467 167.92 48.152 170.141 48.152C171.672 48.152 173.203 48.46 174.733 49.076C176.264 49.692 177.468 50.504 178.345 51.512C178.663 51.8853 178.821 52.2867 178.821 52.716C178.821 53.1827 178.653 53.584 178.317 53.92C177.981 54.2373 177.58 54.396 177.113 54.396C176.889 54.396 176.665 54.3493 176.441 54.256C176.217 54.1627 176.04 54.032 175.909 53.864C175.368 53.2107 174.565 52.6973 173.501 52.324C172.437 51.9507 171.317 51.764 170.141 51.764C168.069 51.764 166.324 52.2867 164.905 53.332C163.505 54.3587 162.6 55.8053 162.189 57.672H170.925C171.392 57.672 171.784 57.84 172.101 58.176C172.437 58.4933 172.605 58.8853 172.605 59.352C172.605 59.8187 172.437 60.22 172.101 60.556C171.784 60.8733 171.392 61.032 170.925 61.032H162.049C162.292 63.1413 163.141 64.8027 164.597 66.016C166.072 67.2107 167.92 67.808 170.141 67.808C171.429 67.808 172.605 67.64 173.669 67.304C174.733 66.968 175.48 66.5293 175.909 65.988C176.059 65.8013 176.245 65.652 176.469 65.54C176.712 65.428 176.945 65.372 177.169 65.372Z" fill="white"/>
<defs>
<filter id="filter0_f_884_1326" x="0" y="37.43" width="189.492" height="45.17" filterUnits="userSpaceOnUse" color-interpolation-filters="sRGB">
<feFlood flood-opacity="0" result="BackgroundImageFix"/>
<feBlend mode="normal" in="SourceGraphic" in2="BackgroundImageFix" result="shape"/>
<feGaussianBlur stdDeviation="5" result="effect1_foregroundBlur_884_1326"/>
</filter>
<linearGradient id="paint0_linear_884_1326" x1="215.244" y1="61.5" x2="-38.0382" y2="61.5" gradientUnits="userSpaceOnUse">
<stop stop-color="#A315D6"/>
<stop offset="0.5" stop-color="#FDAB60"/>
<stop offset="1" stop-color="#A315D6"/>
</linearGradient>
</defs>
</svg>
