<svg width="105" height="12" viewBox="0 0 105 12" fill="none" xmlns="http://www.w3.org/2000/svg">
<path opacity="0.5" d="M13.454 10.8359C13.454 11.0786 13.3607 11.2932 13.174 11.4799C12.9967 11.6666 12.782 11.7599 12.53 11.7599C12.334 11.7599 12.1474 11.6946 11.97 11.5639C11.802 11.4426 11.6994 11.2932 11.662 11.1159C11.4474 10.1919 11.1487 8.9179 10.766 7.2939C10.3834 5.66056 10.094 4.44256 9.89803 3.6399L9.84203 3.3039C9.81403 3.3879 9.79537 3.46256 9.78604 3.5279C9.78604 3.5839 9.78137 3.62123 9.77203 3.6399L7.50403 10.7659C7.4387 10.9619 7.3267 11.1206 7.16803 11.2419C7.0187 11.3539 6.84603 11.4099 6.65003 11.4099C6.4447 11.4099 6.25337 11.3492 6.07603 11.2279C5.90803 11.1066 5.79137 10.9572 5.72603 10.7799L3.33203 3.6539L3.27603 3.3319C3.22937 3.4999 3.20603 3.60723 3.20603 3.6539C3.01003 4.58723 2.75337 5.8379 2.43603 7.4059C2.1187 8.96456 1.8807 10.1592 1.72203 10.9899C1.6847 11.1672 1.57737 11.3212 1.40003 11.4519C1.23203 11.5732 1.04537 11.6339 0.840034 11.6339C0.606701 11.6339 0.406034 11.5499 0.238034 11.3819C0.0793676 11.2139 3.42131e-05 11.0179 3.42131e-05 10.7939C3.42131e-05 10.7566 0.00936755 10.6912 0.0280342 10.5979C0.112034 10.2526 0.877368 6.98123 2.32403 0.783896C2.3707 0.578562 2.47337 0.415229 2.63203 0.293896C2.80003 0.172563 2.9867 0.111896 3.19203 0.111896C3.38803 0.111896 3.5607 0.172563 3.71003 0.293896C3.8687 0.405896 3.9807 0.559896 4.04603 0.755896L6.46803 8.2319C6.46803 8.2599 6.49603 8.39523 6.55203 8.6379C6.60803 8.39523 6.63603 8.2599 6.63603 8.2319L9.01603 0.657896C9.08137 0.471229 9.19803 0.317229 9.36603 0.195896C9.53403 0.0745625 9.7207 0.0138958 9.92603 0.0138958C10.15 0.0138958 10.3554 0.0745625 10.542 0.195896C10.7287 0.317229 10.8407 0.471229 10.878 0.657896C11.074 1.39523 11.3774 2.58523 11.788 4.2279C12.208 5.87056 12.628 7.50856 13.048 9.1419L13.426 10.6539L13.454 10.8359ZM24.5428 8.6799C24.7761 8.6799 24.9721 8.7639 25.1308 8.9319C25.2988 9.09056 25.3828 9.28656 25.3828 9.5199C25.3828 9.7439 25.3035 9.94456 25.1448 10.1219C24.7155 10.5792 24.1135 10.9572 23.3388 11.2559C22.5641 11.5452 21.7941 11.6899 21.0288 11.6899C19.9181 11.6899 18.9148 11.4472 18.0188 10.9619C17.1228 10.4766 16.4181 9.79523 15.9048 8.9179C15.3915 8.04056 15.1348 7.03256 15.1348 5.8939C15.1348 4.76456 15.3915 3.75656 15.9048 2.8699C16.4181 1.98323 17.1228 1.29723 18.0188 0.811896C18.9148 0.317229 19.9181 0.0698959 21.0288 0.0698959C21.7941 0.0698959 22.5595 0.223896 23.3248 0.531896C24.0901 0.839896 24.6921 1.2459 25.1308 1.7499C25.2895 1.93656 25.3688 2.13723 25.3688 2.3519C25.3688 2.58523 25.2848 2.7859 25.1168 2.9539C24.9488 3.11256 24.7481 3.1919 24.5148 3.1919C24.4028 3.1919 24.2908 3.16856 24.1788 3.1219C24.0668 3.07523 23.9781 3.0099 23.9128 2.9259C23.6421 2.59923 23.2408 2.34256 22.7088 2.1559C22.1768 1.96923 21.6168 1.8759 21.0288 1.8759C19.9928 1.8759 19.1201 2.13723 18.4108 2.6599C17.7108 3.17323 17.2581 3.89656 17.0528 4.8299H21.4208C21.6541 4.8299 21.8501 4.9139 22.0088 5.0819C22.1768 5.24056 22.2608 5.43656 22.2608 5.6699C22.2608 5.90323 22.1768 6.1039 22.0088 6.2719C21.8501 6.43056 21.6541 6.5099 21.4208 6.5099H16.9828C17.1041 7.56456 17.5288 8.39523 18.2568 9.0019C18.9941 9.59923 19.9181 9.8979 21.0288 9.8979C21.6728 9.8979 22.2608 9.8139 22.7928 9.6459C23.3248 9.4779 23.6981 9.25856 23.9128 8.9879C23.9875 8.89456 24.0808 8.8199 24.1928 8.7639C24.3141 8.7079 24.4308 8.6799 24.5428 8.6799ZM28.0413 11.7179C27.7986 11.7179 27.5886 11.6339 27.4113 11.4659C27.2339 11.2979 27.1453 11.1019 27.1453 10.8779V1.0219C27.1453 0.779229 27.2386 0.569229 27.4253 0.391896C27.6213 0.205229 27.8499 0.111896 28.1113 0.111896C28.4006 0.111896 28.6433 0.237896 28.8393 0.489896L35.1393 8.2459L35.2513 8.4699V0.839896C35.2513 0.615896 35.3399 0.419896 35.5173 0.251896C35.6946 0.083896 35.9046 -0.00010407 36.1473 -0.00010407C36.3899 -0.00010407 36.5999 0.083896 36.7773 0.251896C36.9639 0.419896 37.0573 0.615896 37.0573 0.839896V10.6259C37.0573 10.8686 36.9593 11.0832 36.7633 11.2699C36.5673 11.4472 36.3386 11.5359 36.0773 11.5359C35.9466 11.5359 35.8159 11.5032 35.6853 11.4379C35.5546 11.3632 35.4426 11.2699 35.3493 11.1579L29.0633 3.4439L28.9513 3.2059V10.8779C28.9513 11.1019 28.8579 11.2979 28.6713 11.4659C28.4939 11.6339 28.2839 11.7179 28.0413 11.7179ZM47.0416 0.293896C47.2749 0.293896 47.4709 0.377896 47.6296 0.545896C47.7976 0.704562 47.8816 0.900563 47.8816 1.1339C47.8816 1.36723 47.7976 1.5679 47.6296 1.7359C47.4709 1.89456 47.2749 1.9739 47.0416 1.9739H44.1996V10.8499C44.1996 11.0832 44.1062 11.2839 43.9196 11.4519C43.7422 11.6106 43.5322 11.6899 43.2896 11.6899C43.0469 11.6899 42.8369 11.6106 42.6596 11.4519C42.4822 11.2839 42.3936 11.0832 42.3936 10.8499V1.9739H39.5376C39.3042 1.9739 39.1036 1.89456 38.9356 1.7359C38.7769 1.5679 38.6976 1.36723 38.6976 1.1339C38.6976 0.900563 38.7769 0.704562 38.9356 0.545896C39.1036 0.377896 39.3042 0.293896 39.5376 0.293896H47.0416ZM54.9448 11.8999C53.8621 11.8999 52.8868 11.6526 52.0188 11.1579C51.1508 10.6539 50.4648 9.9539 49.9608 9.0579C49.4661 8.1619 49.2188 7.1399 49.2188 5.9919C49.2188 4.8439 49.4661 3.8219 49.9608 2.9259C50.4648 2.0299 51.1508 1.33456 52.0188 0.839896C52.8868 0.335896 53.8621 0.0838957 54.9448 0.0838957C56.0275 0.0838957 57.0028 0.335896 57.8708 0.839896C58.7388 1.33456 59.4201 2.0299 59.9148 2.9259C60.4095 3.8219 60.6568 4.8439 60.6568 5.9919C60.6568 7.1399 60.4095 8.1619 59.9148 9.0579C59.4201 9.9539 58.7388 10.6539 57.8708 11.1579C57.0028 11.6526 56.0275 11.8999 54.9448 11.8999ZM54.9448 10.0939C55.6915 10.0939 56.3588 9.9259 56.9468 9.5899C57.5441 9.24456 58.0108 8.7639 58.3468 8.1479C58.6828 7.52256 58.8508 6.8039 58.8508 5.9919C58.8508 5.1799 58.6828 4.4659 58.3468 3.8499C58.0108 3.22456 57.5441 2.7439 56.9468 2.4079C56.3588 2.06256 55.6915 1.8899 54.9448 1.8899C54.1981 1.8899 53.5261 2.06256 52.9288 2.4079C52.3315 2.7439 51.8648 3.22456 51.5288 3.8499C51.1928 4.4659 51.0248 5.1799 51.0248 5.9919C51.0248 6.8039 51.1928 7.52256 51.5288 8.1479C51.8648 8.7639 52.3315 9.24456 52.9288 9.5899C53.5261 9.9259 54.1981 10.0939 54.9448 10.0939ZM69.8481 10.2199C69.9414 10.2946 70.0394 10.4112 70.1421 10.5699C70.2541 10.7286 70.3101 10.8779 70.3101 11.0179C70.3101 11.2512 70.2308 11.4379 70.0721 11.5779C69.9134 11.7179 69.7128 11.7879 69.4701 11.7879C69.2368 11.7879 69.0641 11.7506 68.9521 11.6759C68.5788 11.4706 68.3081 11.1952 68.1401 10.8499C67.9721 10.4952 67.8508 9.98656 67.7761 9.3239C67.7481 9.0439 67.7201 8.71723 67.6921 8.3439C67.6641 7.96123 67.6408 7.64856 67.6221 7.4059C67.6034 6.96723 67.3608 6.6359 66.8941 6.4119C66.4368 6.1879 65.8768 6.0759 65.2141 6.0759H64.2901V10.8499C64.2901 11.0832 64.2061 11.2839 64.0381 11.4519C63.8794 11.6106 63.6834 11.6899 63.4501 11.6899C63.2168 11.6899 63.0161 11.6106 62.8481 11.4519C62.6894 11.2839 62.6101 11.0832 62.6101 10.8499V1.0079C62.6101 0.746563 62.6894 0.536563 62.8481 0.377896C63.0068 0.219229 63.2121 0.130563 63.4641 0.111896C63.7814 0.102563 64.2248 0.0978963 64.7941 0.0978963C65.3634 0.0885626 65.8348 0.0838957 66.2081 0.0838957C66.9081 0.0838957 67.5288 0.209896 68.0701 0.461896C68.6208 0.713896 69.0454 1.06856 69.3441 1.5259C69.6521 1.98323 69.8061 2.5059 69.8061 3.0939C69.8061 4.28856 69.2088 5.08656 68.0141 5.4879C68.8074 5.8239 69.2368 6.41656 69.3021 7.2659L69.3581 7.9099C69.3768 8.20856 69.4094 8.6239 69.4561 9.1559C69.5121 9.7159 69.6428 10.0706 69.8481 10.2199ZM64.2901 4.5219H66.1941C66.8661 4.5219 67.3561 4.41456 67.6641 4.1999C67.9721 3.98523 68.1261 3.61656 68.1261 3.0939C68.1261 2.6739 67.9581 2.34723 67.6221 2.1139C67.2861 1.88056 66.8148 1.7639 66.2081 1.7639H64.2901V4.5219ZM75.4721 11.7599C74.7441 11.7599 74.0534 11.5826 73.4001 11.2279C72.7467 10.8639 72.2334 10.3786 71.8601 9.7719C71.7854 9.64123 71.7481 9.48723 71.7481 9.3099C71.7481 9.02056 71.8181 8.7919 71.9581 8.6239C72.1074 8.4559 72.3034 8.3719 72.5461 8.3719C72.7514 8.3719 72.9287 8.4139 73.0781 8.4979C73.2274 8.5819 73.3581 8.71723 73.4701 8.9039C73.6474 9.20256 73.9227 9.4499 74.2961 9.6459C74.6787 9.83256 75.0707 9.9259 75.4721 9.9259C76.8161 9.9259 77.4881 9.45923 77.4881 8.5259C77.4881 8.12456 77.3201 7.76056 76.9841 7.4339C76.6574 7.10723 76.1347 6.7759 75.4161 6.4399C74.5667 6.0479 73.9041 5.69323 73.4281 5.3759C72.9614 5.04923 72.6254 4.7039 72.4201 4.3399C72.2147 3.96656 72.1121 3.5279 72.1121 3.0239C72.1121 2.44523 72.2661 1.9319 72.5741 1.4839C72.8821 1.02656 73.3067 0.671896 73.8481 0.419896C74.3894 0.158563 74.9961 0.0278956 75.6681 0.0278956C76.4147 0.0278956 77.1007 0.195896 77.7261 0.531896C78.3514 0.858563 78.8274 1.30656 79.1541 1.8759C79.2474 2.02523 79.2941 2.17923 79.2941 2.3379C79.2941 2.5619 79.2194 2.7579 79.0701 2.9259C78.9301 3.0939 78.7527 3.1779 78.5381 3.1779C78.3794 3.1779 78.2161 3.1359 78.0481 3.0519C77.8801 2.95856 77.7494 2.84656 77.6561 2.7159C77.4414 2.41723 77.1707 2.1979 76.8441 2.0579C76.5267 1.9179 76.1347 1.8479 75.6681 1.8479C75.1174 1.8479 74.6834 1.95056 74.3661 2.1559C74.0581 2.3519 73.9041 2.64123 73.9041 3.0239C73.9041 3.25723 73.9601 3.45323 74.0721 3.6119C74.1934 3.76123 74.3941 3.91523 74.6741 4.0739C74.9634 4.23256 75.4347 4.46123 76.0881 4.7599C77.2267 5.2919 78.0434 5.84723 78.5381 6.4259C79.0421 7.00456 79.2941 7.70456 79.2941 8.5259C79.2941 9.1699 79.1354 9.73923 78.8181 10.2339C78.5007 10.7192 78.0527 11.0972 77.4741 11.3679C76.8954 11.6292 76.2281 11.7599 75.4721 11.7599ZM89.1435 0.209896C89.3862 0.209896 89.5962 0.293896 89.7735 0.461896C89.9602 0.620563 90.0535 0.816563 90.0535 1.0499V10.8499C90.0535 11.0832 89.9602 11.2839 89.7735 11.4519C89.5962 11.6106 89.3862 11.6899 89.1435 11.6899C88.9008 11.6899 88.6908 11.6106 88.5135 11.4519C88.3362 11.2839 88.2475 11.0832 88.2475 10.8499V6.2439H82.9415V10.8499C82.9415 11.0832 82.8482 11.2839 82.6615 11.4519C82.4842 11.6106 82.2742 11.6899 82.0315 11.6899C81.7888 11.6899 81.5788 11.6106 81.4015 11.4519C81.2242 11.2839 81.1355 11.0832 81.1355 10.8499V1.0499C81.1355 0.816563 81.2242 0.620563 81.4015 0.461896C81.5788 0.293896 81.7888 0.209896 82.0315 0.209896C82.2742 0.209896 82.4842 0.293896 82.6615 0.461896C82.8482 0.620563 82.9415 0.816563 82.9415 1.0499V4.5639H88.2475V1.0499C88.2475 0.816563 88.3362 0.620563 88.5135 0.461896C88.6908 0.293896 88.9008 0.209896 89.1435 0.209896ZM94.2518 10.8499C94.2518 11.0832 94.1678 11.2839 93.9998 11.4519C93.8411 11.6106 93.6451 11.6899 93.4118 11.6899C93.1784 11.6899 92.9778 11.6106 92.8098 11.4519C92.6511 11.2839 92.5718 11.0832 92.5718 10.8499V0.923896C92.5718 0.690563 92.6511 0.494563 92.8098 0.335896C92.9778 0.167896 93.1784 0.0838957 93.4118 0.0838957C93.6451 0.0838957 93.8411 0.167896 93.9998 0.335896C94.1678 0.494563 94.2518 0.690563 94.2518 0.923896V10.8499ZM100.43 0.0838957C101.55 0.0838957 102.427 0.349896 103.062 0.881896C103.706 1.4139 104.028 2.15123 104.028 3.0939C104.028 3.74723 103.883 4.31656 103.594 4.8019C103.305 5.28723 102.889 5.66523 102.348 5.9359C101.816 6.19723 101.186 6.3279 100.458 6.3279H98.5821V10.7239C98.5821 10.9572 98.4888 11.1579 98.3021 11.3259C98.1248 11.4846 97.9148 11.5639 97.6721 11.5639C97.4295 11.5639 97.2195 11.4846 97.0421 11.3259C96.8648 11.1579 96.7761 10.9572 96.7761 10.7239V1.0079C96.7761 0.765229 96.8601 0.559896 97.0281 0.391896C97.2055 0.223896 97.4295 0.130563 97.7001 0.111896C98.0175 0.102563 98.4608 0.0978963 99.0301 0.0978963C99.5995 0.0885626 100.066 0.0838957 100.43 0.0838957ZM100.458 4.6479C101.037 4.6479 101.475 4.5219 101.774 4.2699C102.082 4.0179 102.236 3.67256 102.236 3.2339C102.236 2.8419 102.082 2.5199 101.774 2.2679C101.475 2.0159 101.027 1.8899 100.43 1.8899L98.5821 1.9039V4.6479H100.458Z" fill="white"/>
</svg>
