<svg width="66" height="12" viewBox="0 0 66 12" fill="none" xmlns="http://www.w3.org/2000/svg">
<path opacity="0.5" d="M9.40803 8.73605C9.64137 8.73605 9.83737 8.82005 9.99603 8.98805C10.164 9.14672 10.248 9.34272 10.248 9.57605C10.248 9.80005 10.1687 10.0007 10.01 10.178C9.5807 10.6354 8.9787 11.0134 8.20403 11.312C7.42937 11.6014 6.65937 11.746 5.89403 11.746C4.78337 11.746 3.78003 11.5034 2.88403 11.018C1.98803 10.5327 1.28337 9.85138 0.770034 8.97405C0.256701 8.09672 3.42131e-05 7.08872 3.42131e-05 5.95005C3.42131e-05 4.82072 0.256701 3.81271 0.770034 2.92605C1.28337 2.03938 1.98803 1.35338 2.88403 0.868049C3.78003 0.373382 4.78337 0.126048 5.89403 0.126048C6.65937 0.126048 7.4247 0.280048 8.19003 0.588048C8.95537 0.896048 9.55737 1.30205 9.99603 1.80605C10.1547 1.99271 10.234 2.19338 10.234 2.40805C10.234 2.64138 10.15 2.84205 9.98204 3.01005C9.81403 3.16871 9.61337 3.24805 9.38003 3.24805C9.26803 3.24805 9.15603 3.22471 9.04403 3.17805C8.93203 3.13138 8.84337 3.06605 8.77803 2.98205C8.50737 2.65538 8.10603 2.39872 7.57403 2.21205C7.04203 2.02538 6.48203 1.93205 5.89403 1.93205C4.85803 1.93205 3.98537 2.19338 3.27603 2.71605C2.57603 3.22938 2.12337 3.95272 1.91803 4.88605H6.28603C6.51937 4.88605 6.71537 4.97005 6.87403 5.13805C7.04203 5.29672 7.12603 5.49272 7.12603 5.72605C7.12603 5.95938 7.04203 6.16005 6.87403 6.32805C6.71537 6.48672 6.51937 6.56605 6.28603 6.56605H1.84803C1.96937 7.62072 2.39403 8.45138 3.12203 9.05805C3.85937 9.65538 4.78337 9.95405 5.89403 9.95405C6.53803 9.95405 7.12603 9.87005 7.65803 9.70205C8.19003 9.53405 8.56337 9.31472 8.77803 9.04405C8.8527 8.95072 8.94603 8.87605 9.05803 8.82005C9.17937 8.76405 9.29603 8.73605 9.40803 8.73605ZM21.5025 0.0700481C21.7452 0.0700481 21.9458 0.154048 22.1045 0.322048C22.2725 0.480715 22.3565 0.672048 22.3565 0.896048C22.3565 1.02671 22.3332 1.13871 22.2865 1.23205L17.7365 11.256C17.6525 11.4427 17.5405 11.578 17.4005 11.662C17.2605 11.7554 17.1112 11.802 16.9525 11.802C16.8218 11.802 16.6958 11.7507 16.5745 11.648C16.4532 11.5547 16.3505 11.4194 16.2665 11.242L11.8005 1.14805C11.7538 1.05472 11.7305 0.942715 11.7305 0.812049C11.7305 0.560048 11.8098 0.364048 11.9685 0.224049C12.1365 0.074715 12.3418 4.81606e-05 12.5845 4.81606e-05C12.7712 4.81606e-05 12.9392 0.0513817 13.0885 0.154049C13.2472 0.247382 13.3638 0.373382 13.4385 0.532048L15.0205 4.18605L16.8685 8.47005L17.0085 8.87605L17.1485 8.48405L20.7185 0.476049C20.7838 0.336048 20.8772 0.233382 20.9985 0.168049C21.1292 0.102715 21.2972 0.0700481 21.5025 0.0700481ZM33.4432 8.73605C33.6765 8.73605 33.8725 8.82005 34.0312 8.98805C34.1992 9.14672 34.2832 9.34272 34.2832 9.57605C34.2832 9.80005 34.2039 10.0007 34.0452 10.178C33.6159 10.6354 33.0139 11.0134 32.2392 11.312C31.4645 11.6014 30.6945 11.746 29.9292 11.746C28.8185 11.746 27.8152 11.5034 26.9192 11.018C26.0232 10.5327 25.3185 9.85138 24.8052 8.97405C24.2919 8.09672 24.0352 7.08872 24.0352 5.95005C24.0352 4.82072 24.2919 3.81271 24.8052 2.92605C25.3185 2.03938 26.0232 1.35338 26.9192 0.868049C27.8152 0.373382 28.8185 0.126048 29.9292 0.126048C30.6945 0.126048 31.4599 0.280048 32.2252 0.588048C32.9905 0.896048 33.5925 1.30205 34.0312 1.80605C34.1899 1.99271 34.2692 2.19338 34.2692 2.40805C34.2692 2.64138 34.1852 2.84205 34.0172 3.01005C33.8492 3.16871 33.6485 3.24805 33.4152 3.24805C33.3032 3.24805 33.1912 3.22471 33.0792 3.17805C32.9672 3.13138 32.8785 3.06605 32.8132 2.98205C32.5425 2.65538 32.1412 2.39872 31.6092 2.21205C31.0772 2.02538 30.5172 1.93205 29.9292 1.93205C28.8932 1.93205 28.0205 2.19338 27.3112 2.71605C26.6112 3.22938 26.1585 3.95272 25.9532 4.88605H30.3212C30.5545 4.88605 30.7505 4.97005 30.9092 5.13805C31.0772 5.29672 31.1612 5.49272 31.1612 5.72605C31.1612 5.95938 31.0772 6.16005 30.9092 6.32805C30.7505 6.48672 30.5545 6.56605 30.3212 6.56605H25.8832C26.0045 7.62072 26.4292 8.45138 27.1572 9.05805C27.8945 9.65538 28.8185 9.95405 29.9292 9.95405C30.5732 9.95405 31.1612 9.87005 31.6932 9.70205C32.2252 9.53405 32.5985 9.31472 32.8132 9.04405C32.8879 8.95072 32.9812 8.87605 33.0932 8.82005C33.2145 8.76405 33.3312 8.73605 33.4432 8.73605ZM36.9417 11.774C36.699 11.774 36.489 11.69 36.3117 11.522C36.1343 11.354 36.0457 11.158 36.0457 10.934V1.07805C36.0457 0.835382 36.139 0.625382 36.3257 0.448048C36.5217 0.261382 36.7503 0.168049 37.0117 0.168049C37.301 0.168049 37.5437 0.294049 37.7397 0.546049L44.0397 8.30205L44.1517 8.52605V0.896048C44.1517 0.672048 44.2403 0.476048 44.4177 0.308048C44.595 0.140048 44.805 0.0560483 45.0477 0.0560483C45.2903 0.0560483 45.5003 0.140048 45.6777 0.308048C45.8643 0.476048 45.9577 0.672048 45.9577 0.896048V10.682C45.9577 10.9247 45.8597 11.1394 45.6637 11.326C45.4677 11.5034 45.239 11.592 44.9777 11.592C44.847 11.592 44.7163 11.5594 44.5857 11.494C44.455 11.4194 44.343 11.326 44.2497 11.214L37.9637 3.50005L37.8517 3.26205V10.934C37.8517 11.158 37.7583 11.354 37.5717 11.522C37.3943 11.69 37.1843 11.774 36.9417 11.774ZM55.942 0.350049C56.1753 0.350049 56.3713 0.434048 56.53 0.602048C56.698 0.760715 56.782 0.956715 56.782 1.19005C56.782 1.42338 56.698 1.62405 56.53 1.79205C56.3713 1.95072 56.1753 2.03005 55.942 2.03005H53.1V10.906C53.1 11.1394 53.0066 11.34 52.82 11.508C52.6426 11.6667 52.4326 11.746 52.19 11.746C51.9473 11.746 51.7373 11.6667 51.56 11.508C51.3826 11.34 51.294 11.1394 51.294 10.906V2.03005H48.438C48.2046 2.03005 48.004 1.95072 47.836 1.79205C47.6773 1.62405 47.598 1.42338 47.598 1.19005C47.598 0.956715 47.6773 0.760715 47.836 0.602048C48.004 0.434048 48.2046 0.350049 48.438 0.350049H55.942ZM61.7592 11.816C61.0312 11.816 60.3405 11.6387 59.6872 11.284C59.0338 10.92 58.5205 10.4347 58.1472 9.82805C58.0725 9.69738 58.0352 9.54338 58.0352 9.36605C58.0352 9.07672 58.1052 8.84805 58.2452 8.68005C58.3945 8.51205 58.5905 8.42805 58.8332 8.42805C59.0385 8.42805 59.2158 8.47005 59.3652 8.55405C59.5145 8.63805 59.6452 8.77338 59.7572 8.96005C59.9345 9.25872 60.2098 9.50605 60.5832 9.70205C60.9658 9.88872 61.3578 9.98205 61.7592 9.98205C63.1032 9.98205 63.7752 9.51538 63.7752 8.58205C63.7752 8.18072 63.6072 7.81672 63.2712 7.49005C62.9445 7.16338 62.4218 6.83205 61.7032 6.49605C60.8538 6.10405 60.1912 5.74938 59.7152 5.43205C59.2485 5.10538 58.9125 4.76005 58.7072 4.39605C58.5018 4.02272 58.3992 3.58405 58.3992 3.08005C58.3992 2.50138 58.5532 1.98805 58.8612 1.54005C59.1692 1.08271 59.5938 0.728048 60.1352 0.476049C60.6765 0.214715 61.2832 0.0840479 61.9552 0.0840479C62.7018 0.0840479 63.3878 0.252048 64.0132 0.588048C64.6385 0.914715 65.1145 1.36272 65.4412 1.93205C65.5345 2.08138 65.5812 2.23538 65.5812 2.39405C65.5812 2.61805 65.5065 2.81405 65.3572 2.98205C65.2172 3.15005 65.0398 3.23405 64.8252 3.23405C64.6665 3.23405 64.5032 3.19205 64.3352 3.10805C64.1672 3.01471 64.0365 2.90272 63.9432 2.77205C63.7285 2.47338 63.4578 2.25405 63.1312 2.11405C62.8138 1.97405 62.4218 1.90405 61.9552 1.90405C61.4045 1.90405 60.9705 2.00672 60.6532 2.21205C60.3452 2.40805 60.1912 2.69738 60.1912 3.08005C60.1912 3.31338 60.2472 3.50938 60.3592 3.66805C60.4805 3.81738 60.6812 3.97138 60.9612 4.13005C61.2505 4.28872 61.7218 4.51738 62.3752 4.81605C63.5138 5.34805 64.3305 5.90338 64.8252 6.48205C65.3292 7.06072 65.5812 7.76072 65.5812 8.58205C65.5812 9.22605 65.4225 9.79538 65.1052 10.29C64.7878 10.7754 64.3398 11.1534 63.7612 11.424C63.1825 11.6854 62.5152 11.816 61.7592 11.816Z" fill="white"/>
</svg>
