<svg width="49" height="52" viewBox="0 0 49 52" fill="none" xmlns="http://www.w3.org/2000/svg">
<path d="M48.9945 25.7146C48.9945 39.9164 38.0267 51.4292 24.4974 51.4292C22.9648 51.4292 21.4651 51.2814 20.0105 50.9988C15.9328 50.2065 12.2094 48.3541 9.10955 45.7241C7.40642 44.2791 5.8915 42.5994 4.60943 40.7318C1.70894 36.5067 0.000244141 31.3201 0.000244141 25.7146C0.000244141 23.433 0.283333 21.2207 0.814648 19.1145C2.94061 10.6869 9.04083 3.95623 16.8822 1.26668C19.2792 0.444544 21.8388 0 24.4974 0C26.1699 0 27.8033 0.175948 29.3817 0.51117C30.9573 0.845813 32.4781 1.33918 33.9282 1.97469C39.8734 4.58005 44.6313 9.5744 47.1133 15.815C48.3252 18.8621 48.9945 22.2063 48.9945 25.7146Z" fill="#EE83CE"/>
<path fill-rule="evenodd" clip-rule="evenodd" d="M24.4971 0C37.9361 20.0845 39.3299 31.3445 24.4971 51.4292C38.0264 51.4292 48.9942 39.9164 48.9942 25.7146C48.9942 22.2063 48.3249 18.8621 47.113 15.815C44.631 9.5744 39.8731 4.58005 33.928 1.97469C32.4778 1.33918 30.957 0.845813 29.3814 0.51117C27.803 0.175948 26.1696 0 24.4971 0Z" fill="#DA70BC"/>
<path opacity="0.5" fill-rule="evenodd" clip-rule="evenodd" d="M33.9283 1.97449C39.8734 4.57985 44.6313 9.5742 47.1133 15.8148C45.3952 18.2173 42.6589 19.7715 39.5767 19.7715C34.3754 19.7715 30.1589 15.3454 30.1589 9.88563C30.1589 6.6503 31.6395 3.77796 33.9283 1.97449Z" fill="#D83CA9"/>
<path opacity="0.5" d="M1.68762 19.0859C9.29409 19.0859 15.46 25.5585 15.4601 33.543C15.4601 35.3822 15.1309 37.1406 14.5343 38.7588C18.0108 40.2128 20.4689 43.7756 20.4689 47.9434C20.4689 49.0097 20.3084 50.0368 20.0109 50.999C15.9332 50.2067 12.2094 48.3537 9.1095 45.7236C8.89659 45.543 8.68655 45.3588 8.47961 45.1709C7.85895 44.6074 7.26512 44.0121 6.70129 43.3867C6.417 43.0714 6.14308 42.7461 5.87415 42.416C5.43176 41.873 5.00819 41.3122 4.6095 40.7314C1.70911 36.5065 0.00019922 31.3202 0.00012207 25.7148C0.00012207 23.4332 0.283259 21.2205 0.814575 19.1143C1.10327 19.0953 1.39437 19.0859 1.68762 19.0859Z" fill="#D83CA9"/>
<path opacity="0.5" fill-rule="evenodd" clip-rule="evenodd" d="M23.1366 7.54295C26.5941 7.54295 29.397 4.60078 29.397 0.97144C29.397 0.816709 29.3919 0.663228 29.3819 0.51117C27.8035 0.175947 26.1701 0 24.4976 0C21.839 0 19.2794 0.444543 16.8824 1.26668C17.0295 4.75901 19.7734 7.54295 23.1366 7.54295Z" fill="#D83CA9"/>
<ellipse opacity="0.5" cx="2.59354" cy="5.86827" rx="2.59354" ry="5.86827" transform="matrix(-0.842846 0.538155 -0.501374 -0.86523 43.0433 33.0122)" fill="#D83CA9"/>
<path opacity="0.5" d="M22.4311 40.6713C20.8062 37.8672 20.4676 34.969 21.6749 34.1982C22.8822 33.4274 25.1781 35.0757 26.803 37.8799C28.428 40.684 28.7666 43.5822 27.5593 44.353C26.352 45.1238 24.0561 43.4755 22.4311 40.6713Z" fill="#D83CA9"/>
</svg>
