<svg width="327" height="159" viewBox="0 0 327 159" fill="none" xmlns="http://www.w3.org/2000/svg">
<g opacity="0.5">
<path d="M303.232 1.01527C303.484 0.95819 303.674 1.05944 304.036 1.34732C304.398 1.6352 305.811 3.08874 305.811 3.08874C305.811 3.08874 309.672 7.6306 311.1 11.0954C311.912 13.0646 312.431 14.2124 312.617 16.3341C312.859 19.0972 311.435 23.3375 311.435 23.3375C311.435 23.3375 309.354 29.0838 308.793 30.2555C308.232 31.4272 308.023 32.3055 307 33.1617C305.977 34.0186 304.722 34.753 303.821 34.4166" stroke="#F2F2F2" stroke-width="2" stroke-linecap="round"/>
<rect y="31.9736" width="300" height="127" rx="10" fill="#F7AAF6"/>
<path d="M304.062 18.1528C309.585 18.153 314.062 22.6301 314.062 28.1528V141.974C314.062 147.497 309.585 151.974 304.062 151.974H16.0623C10.5396 151.974 6.06252 147.497 6.06226 141.974V28.1528C6.06226 22.63 10.5394 18.1528 16.0623 18.1528H304.062ZM302.497 27.4175C300.565 27.3486 298.946 28.9427 298.881 30.978C298.815 33.0136 300.328 34.7204 302.26 34.7896C304.191 34.8585 305.81 33.2636 305.876 31.228C305.941 29.1926 304.428 27.4866 302.497 27.4175Z" fill="url(#paint0_linear_4007_3207)"/>
<path d="M302.439 33.6237C300.44 31.0085 302.3 25.1955 302.3 25.1955C302.3 25.1955 303.439 21.7284 304.664 19.7677C306.32 17.1162 306.573 16.3771 309.465 14.0083C313.411 10.7751 319.425 12.6097 321.891 17.0757C323.492 19.9752 324.84 23.2269 324.693 25.7759" stroke="#F2F2F2" stroke-width="2" stroke-linecap="round"/>
</g>
<path d="M267.541 76.0536C267.008 76.0536 266.498 75.9736 266.011 75.8136C265.525 75.647 265.141 75.4336 264.861 75.1736L265.231 74.3936C265.498 74.627 265.838 74.8203 266.251 74.9736C266.665 75.127 267.095 75.2036 267.541 75.2036C267.948 75.2036 268.278 75.157 268.531 75.0636C268.785 74.9703 268.971 74.8436 269.091 74.6836C269.211 74.517 269.271 74.3303 269.271 74.1236C269.271 73.8836 269.191 73.6903 269.031 73.5436C268.878 73.397 268.675 73.2803 268.421 73.1936C268.175 73.1003 267.901 73.0203 267.601 72.9536C267.301 72.887 266.998 72.8103 266.691 72.7236C266.391 72.6303 266.115 72.5136 265.861 72.3736C265.615 72.2336 265.415 72.047 265.261 71.8136C265.108 71.5736 265.031 71.267 265.031 70.8936C265.031 70.5336 265.125 70.2036 265.311 69.9036C265.505 69.597 265.798 69.3536 266.191 69.1736C266.591 68.987 267.098 68.8936 267.711 68.8936C268.118 68.8936 268.521 68.947 268.921 69.0536C269.321 69.1603 269.668 69.3136 269.961 69.5136L269.631 70.3136C269.331 70.1136 269.015 69.9703 268.681 69.8836C268.348 69.7903 268.025 69.7436 267.711 69.7436C267.318 69.7436 266.995 69.7936 266.741 69.8936C266.488 69.9936 266.301 70.127 266.181 70.2936C266.068 70.4603 266.011 70.647 266.011 70.8536C266.011 71.1003 266.088 71.297 266.241 71.4436C266.401 71.5903 266.605 71.707 266.851 71.7936C267.105 71.8803 267.381 71.9603 267.681 72.0336C267.981 72.1003 268.281 72.177 268.581 72.2636C268.888 72.3503 269.165 72.4636 269.411 72.6036C269.665 72.7436 269.868 72.9303 270.021 73.1636C270.175 73.397 270.251 73.697 270.251 74.0636C270.251 74.417 270.155 74.747 269.961 75.0536C269.768 75.3536 269.468 75.597 269.061 75.7836C268.661 75.9636 268.155 76.0536 267.541 76.0536ZM270.652 75.9736L273.822 68.9736H274.812L277.992 75.9736H276.942L274.112 69.5336H274.512L271.682 75.9736H270.652ZM272.002 74.2236L272.272 73.4236H276.212L276.502 74.2236H272.002ZM280.685 75.9736L277.605 68.9736H278.685L281.515 75.4336H280.895L283.745 68.9736H284.745L281.675 75.9736H280.685ZM286.548 71.9936H290.148V72.8436H286.548V71.9936ZM286.638 75.1036H290.718V75.9736H285.638V68.9736H290.578V69.8436H286.638V75.1036ZM292.337 75.9736V68.9736H295.287C296.034 68.9736 296.69 69.1203 297.257 69.4136C297.83 69.707 298.274 70.117 298.587 70.6436C298.907 71.1703 299.067 71.7803 299.067 72.4736C299.067 73.167 298.907 73.777 298.587 74.3036C298.274 74.8303 297.83 75.2403 297.257 75.5336C296.69 75.827 296.034 75.9736 295.287 75.9736H292.337ZM293.337 75.1036H295.227C295.807 75.1036 296.307 74.9936 296.727 74.7736C297.154 74.5536 297.484 74.247 297.717 73.8536C297.95 73.4536 298.067 72.9936 298.067 72.4736C298.067 71.947 297.95 71.487 297.717 71.0936C297.484 70.7003 297.154 70.3936 296.727 70.1736C296.307 69.9536 295.807 69.8436 295.227 69.8436H293.337V75.1036Z" fill="white"/>
<path d="M275.571 42.4736H288.429C288.738 42.4737 288.964 42.5657 289.188 42.7881C289.411 43.0102 289.5 43.2305 289.5 43.5293V61.7041L282.588 58.7607L282 58.5098L281.412 58.7607L274.5 61.7041V43.5293C274.5 43.2305 274.589 43.0102 274.812 42.7881C275.036 42.5657 275.262 42.4737 275.571 42.4736Z" fill="white" stroke="white" stroke-width="3"/>
<defs>
<linearGradient id="paint0_linear_4007_3207" x1="17.4653" y1="7.75121" x2="260.957" y2="91.4728" gradientUnits="userSpaceOnUse">
<stop stop-color="#56269F"/>
<stop offset="1" stop-color="#916490"/>
</linearGradient>
</defs>
</svg>
