<svg width="36" height="36" viewBox="0 0 36 36" fill="none" xmlns="http://www.w3.org/2000/svg">
<path d="M3.54117 35.08C3.00784 35.08 2.49784 35 2.01117 34.84C1.52451 34.6733 1.14117 34.46 0.861172 34.2L1.23117 33.42C1.49784 33.6533 1.83784 33.8467 2.25117 34C2.66451 34.1533 3.09451 34.23 3.54117 34.23C3.94784 34.23 4.27784 34.1833 4.53117 34.09C4.78451 33.9967 4.97117 33.87 5.09117 33.71C5.21117 33.5433 5.27117 33.3567 5.27117 33.15C5.27117 32.91 5.19117 32.7167 5.03117 32.57C4.87784 32.4233 4.67451 32.3067 4.42117 32.22C4.17451 32.1267 3.90117 32.0467 3.60117 31.98C3.30117 31.9133 2.99784 31.8367 2.69117 31.75C2.39117 31.6567 2.11451 31.54 1.86117 31.4C1.61451 31.26 1.41451 31.0733 1.26117 30.84C1.10784 30.6 1.03117 30.2933 1.03117 29.92C1.03117 29.56 1.12451 29.23 1.31117 28.93C1.50451 28.6233 1.79784 28.38 2.19117 28.2C2.59117 28.0133 3.09784 27.92 3.71117 27.92C4.11784 27.92 4.52117 27.9733 4.92117 28.08C5.32117 28.1867 5.66784 28.34 5.96117 28.54L5.63117 29.34C5.33117 29.14 5.01451 28.9967 4.68117 28.91C4.34784 28.8167 4.02451 28.77 3.71117 28.77C3.31784 28.77 2.99451 28.82 2.74117 28.92C2.48784 29.02 2.30117 29.1533 2.18117 29.32C2.06784 29.4867 2.01117 29.6733 2.01117 29.88C2.01117 30.1267 2.08784 30.3233 2.24117 30.47C2.40117 30.6167 2.60451 30.7333 2.85117 30.82C3.10451 30.9067 3.38117 30.9867 3.68117 31.06C3.98117 31.1267 4.28117 31.2033 4.58117 31.29C4.88784 31.3767 5.16451 31.49 5.41117 31.63C5.66451 31.77 5.86784 31.9567 6.02117 32.19C6.17451 32.4233 6.25117 32.7233 6.25117 33.09C6.25117 33.4433 6.15451 33.7733 5.96117 34.08C5.76784 34.38 5.46784 34.6233 5.06117 34.81C4.66117 34.99 4.15451 35.08 3.54117 35.08ZM6.65211 35L9.82211 28H10.8121L13.9921 35H12.9421L10.1121 28.56H10.5121L7.68211 35H6.65211ZM8.00211 33.25L8.27211 32.45H12.2121L12.5021 33.25H8.00211ZM16.6852 35L13.6052 28H14.6852L17.5152 34.46H16.8952L19.7452 28H20.7452L17.6752 35H16.6852ZM22.5479 31.02H26.1479V31.87H22.5479V31.02ZM22.6379 34.13H26.7179V35H21.6379V28H26.5779V28.87H22.6379V34.13ZM28.3371 35V28H31.2871C32.0338 28 32.6904 28.1467 33.2571 28.44C33.8304 28.7333 34.2738 29.1433 34.5871 29.67C34.9071 30.1967 35.0671 30.8067 35.0671 31.5C35.0671 32.1933 34.9071 32.8033 34.5871 33.33C34.2738 33.8567 33.8304 34.2667 33.2571 34.56C32.6904 34.8533 32.0338 35 31.2871 35H28.3371ZM29.3371 34.13H31.2271C31.8071 34.13 32.3071 34.02 32.7271 33.8C33.1538 33.58 33.4838 33.2733 33.7171 32.88C33.9504 32.48 34.0671 32.02 34.0671 31.5C34.0671 30.9733 33.9504 30.5133 33.7171 30.12C33.4838 29.7267 33.1538 29.42 32.7271 29.2C32.3071 28.98 31.8071 28.87 31.2271 28.87H29.3371V34.13Z" fill="white"/>
<path d="M11.5713 1.5H24.4287C24.7378 1.50003 24.9637 1.59207 25.1875 1.81445C25.411 2.03658 25.5 2.2569 25.5 2.55566V20.7305L18.5879 17.7871L18 17.5361L17.4121 17.7871L10.5 20.7305V2.55566C10.5 2.2569 10.589 2.03658 10.8125 1.81445C11.0363 1.59207 11.2622 1.50003 11.5713 1.5Z" fill="white" stroke="white" stroke-width="3"/>
</svg>
