<svg width="100" height="100" viewBox="0 0 100 100" fill="none" xmlns="http://www.w3.org/2000/svg">
  <path d="M50 10 
           C 58 10, 62 18, 70 20 
           C 78 22, 88 22, 90 30 
           C 92 38, 86 42, 86 50 
           C 86 58, 92 62, 90 70 
           C 88 78, 78 78, 70 80 
           C 62 82, 58 90, 50 90 
           C 42 90, 38 82, 30 80 
           C 22 78, 12 78, 10 70 
           C 08 62, 14 58, 14 50 
           C 14 42, 08 38, 10 30 
           C 12 22, 22 22, 30 20 
           C 38 18, 42 10, 50 10 Z" 
        fill="#FFB368" stroke="#FF7543" stroke-width="4" stroke-linejoin="round"/>
  
  <circle cx="50" cy="50" r="24" fill="#FFB368"/>
  <circle cx="50" cy="50" r="20" fill="#FFD78D"/>
  <circle cx="50" cy="50" r="14" fill="#FFE7A6"/>
  <circle cx="50" cy="50" r="9" fill="#FFF0C7"/>
  <circle cx="50" cy="50" r="4.5" fill="#FFF4D4"/>
  
  <path d="M62 32 C 63 31, 65 30, 66 29" stroke="#FF895E" stroke-width="2" stroke-linecap="round"/>
</svg>