<svg width="28" height="41" viewBox="0 0 28 41" fill="none" xmlns="http://www.w3.org/2000/svg">
<path d="M3.67203 35.08C3.1387 35.08 2.6287 35 2.14203 34.84C1.65536 34.6733 1.27203 34.46 0.992031 34.2L1.36203 33.42C1.6287 33.6533 1.9687 33.8467 2.38203 34C2.79536 34.1533 3.22536 34.23 3.67203 34.23C4.0787 34.23 4.4087 34.1833 4.66203 34.09C4.91536 33.9967 5.10203 33.87 5.22203 33.71C5.34203 33.5433 5.40203 33.3567 5.40203 33.15C5.40203 32.91 5.32203 32.7167 5.16203 32.57C5.0087 32.4233 4.80536 32.3067 4.55203 32.22C4.30536 32.1267 4.03203 32.0467 3.73203 31.98C3.43203 31.9133 3.1287 31.8367 2.82203 31.75C2.52203 31.6567 2.24536 31.54 1.99203 31.4C1.74536 31.26 1.54536 31.0733 1.39203 30.84C1.2387 30.6 1.16203 30.2933 1.16203 29.92C1.16203 29.56 1.25536 29.23 1.44203 28.93C1.63536 28.6233 1.9287 28.38 2.32203 28.2C2.72203 28.0133 3.2287 27.92 3.84203 27.92C4.2487 27.92 4.65203 27.9733 5.05203 28.08C5.45203 28.1867 5.7987 28.34 6.09203 28.54L5.76203 29.34C5.46203 29.14 5.14536 28.9967 4.81203 28.91C4.4787 28.8167 4.15536 28.77 3.84203 28.77C3.4487 28.77 3.12536 28.82 2.87203 28.92C2.6187 29.02 2.43203 29.1533 2.31203 29.32C2.1987 29.4867 2.14203 29.6733 2.14203 29.88C2.14203 30.1267 2.2187 30.3233 2.37203 30.47C2.53203 30.6167 2.73536 30.7333 2.98203 30.82C3.23536 30.9067 3.51203 30.9867 3.81203 31.06C4.11203 31.1267 4.41203 31.2033 4.71203 31.29C5.0187 31.3767 5.29536 31.49 5.54203 31.63C5.79536 31.77 5.9987 31.9567 6.15203 32.19C6.30537 32.4233 6.38203 32.7233 6.38203 33.09C6.38203 33.4433 6.28536 33.7733 6.09203 34.08C5.8987 34.38 5.5987 34.6233 5.19203 34.81C4.79203 34.99 4.28536 35.08 3.67203 35.08ZM6.78297 35L9.95297 28H10.943L14.123 35H13.073L10.243 28.56H10.643L7.81297 35H6.78297ZM8.13297 33.25L8.40297 32.45H12.343L12.633 33.25H8.13297ZM16.8161 35L13.7361 28H14.8161L17.6461 34.46H17.0261L19.8761 28H20.8761L17.8061 35H16.8161ZM22.6788 31.02H26.2788V31.87H22.6788V31.02ZM22.7688 34.13H26.8488V35H21.7688V28H26.7088V28.87H22.7688V34.13Z" fill="white"/>
<path d="M7.57129 1.5H20.4287C20.7378 1.50003 20.9637 1.59207 21.1875 1.81445C21.411 2.03658 21.5 2.2569 21.5 2.55566V20.7305L14.5879 17.7871L14 17.5361L13.4121 17.7871L6.5 20.7305V2.55566C6.5 2.2569 6.589 2.03658 6.8125 1.81445C7.03627 1.59207 7.26221 1.50003 7.57129 1.5Z" stroke="white" stroke-width="3"/>
</svg>
