<svg width="261" height="47" viewBox="0 0 261 47" fill="none" xmlns="http://www.w3.org/2000/svg">
<rect width="261" height="47" rx="23.5" fill="#401A79"/>
<path d="M98.5292 30.452C98.6426 30.5427 98.7616 30.6844 98.8864 30.8772C99.0225 31.07 99.0905 31.2515 99.0905 31.4216C99.0905 31.7051 98.9941 31.932 98.8013 32.1021C98.6085 32.2722 98.3647 32.3572 98.0699 32.3572C97.7863 32.3572 97.5765 32.3119 97.4404 32.2211C96.9868 31.9716 96.6579 31.6371 96.4538 31.2175C96.2496 30.7865 96.1022 30.1684 96.0115 29.3632C95.9774 29.023 95.9434 28.6261 95.9094 28.1724C95.8754 27.7074 95.847 27.3275 95.8243 27.0327C95.8017 26.4996 95.5068 26.097 94.9397 25.8248C94.384 25.5527 93.7036 25.4166 92.8984 25.4166H91.7756V31.2175C91.7756 31.501 91.6735 31.7448 91.4694 31.949C91.2766 32.1418 91.0385 32.2382 90.7549 32.2382C90.4714 32.2382 90.2276 32.1418 90.0234 31.949C89.8306 31.7448 89.7342 31.501 89.7342 31.2175V19.2584C89.7342 18.9409 89.8306 18.6857 90.0234 18.4929C90.2162 18.3001 90.4657 18.1924 90.7719 18.1697C91.1575 18.1584 91.6962 18.1527 92.388 18.1527C93.0798 18.1413 93.6525 18.1357 94.1062 18.1357C94.9568 18.1357 95.7109 18.2888 96.3687 18.595C97.0378 18.9012 97.5538 19.3321 97.9167 19.8879C98.291 20.4436 98.4781 21.0787 98.4781 21.7931C98.4781 23.2448 97.7523 24.2144 96.3007 24.7021C97.2646 25.1104 97.7863 25.8305 97.8657 26.8625L97.9338 27.6451C97.9564 28.008 97.9961 28.5127 98.0528 29.1591C98.1209 29.8395 98.2797 30.2705 98.5292 30.452ZM91.7756 23.5283H94.0892C94.9057 23.5283 95.5011 23.3979 95.8754 23.137C96.2496 22.8762 96.4368 22.4282 96.4368 21.7931C96.4368 21.2828 96.2326 20.8859 95.8243 20.6023C95.4161 20.3188 94.8433 20.177 94.1062 20.177H91.7756V23.5283ZM112.372 28.5807C112.655 28.5807 112.893 28.6828 113.086 28.8869C113.29 29.0797 113.392 29.3179 113.392 29.6014C113.392 29.8736 113.296 30.1174 113.103 30.3329C112.581 30.8886 111.85 31.3479 110.909 31.7108C109.967 32.0624 109.032 32.2382 108.102 32.2382C106.752 32.2382 105.533 31.9433 104.444 31.3536C103.355 30.7638 102.499 29.9359 101.875 28.8699C101.252 27.8038 100.94 26.579 100.94 25.1954C100.94 23.8232 101.252 22.5983 101.875 21.5209C102.499 20.4436 103.355 19.61 104.444 19.0203C105.533 18.4192 106.752 18.1187 108.102 18.1187C109.032 18.1187 109.962 18.3058 110.892 18.68C111.822 19.0543 112.553 19.5476 113.086 20.16C113.279 20.3869 113.375 20.6307 113.375 20.8915C113.375 21.175 113.273 21.4189 113.069 21.623C112.865 21.8158 112.621 21.9122 112.338 21.9122C112.201 21.9122 112.065 21.8839 111.929 21.8272C111.793 21.7704 111.685 21.6911 111.606 21.589C111.277 21.1921 110.789 20.8802 110.143 20.6534C109.497 20.4265 108.816 20.3131 108.102 20.3131C106.843 20.3131 105.782 20.6307 104.921 21.2658C104.07 21.8895 103.52 22.7685 103.27 23.9026H108.578C108.862 23.9026 109.1 24.0046 109.292 24.2088C109.497 24.4016 109.599 24.6397 109.599 24.9232C109.599 25.2068 109.497 25.4506 109.292 25.6547C109.1 25.8475 108.862 25.9439 108.578 25.9439H103.185C103.333 27.2255 103.849 28.2348 104.733 28.972C105.629 29.6978 106.752 30.0607 108.102 30.0607C108.884 30.0607 109.599 29.9586 110.245 29.7545C110.892 29.5504 111.345 29.2838 111.606 28.955C111.697 28.8415 111.81 28.7508 111.946 28.6828C112.094 28.6147 112.235 28.5807 112.372 28.5807ZM117.575 20.3642V23.2901H121.658C121.941 23.2901 122.18 23.3922 122.372 23.5963C122.577 23.7891 122.679 24.0273 122.679 24.3108C122.679 24.5944 122.577 24.8382 122.372 25.0423C122.18 25.2351 121.941 25.3315 121.658 25.3315H117.575V31.2005C117.575 31.484 117.473 31.7278 117.269 31.932C117.076 32.1248 116.838 32.2211 116.555 32.2211C116.271 32.2211 116.027 32.1248 115.823 31.932C115.63 31.7278 115.534 31.484 115.534 31.2005V19.4115C115.534 19.094 115.636 18.8331 115.84 18.629C116.044 18.4249 116.305 18.3228 116.623 18.3228H122.27C122.554 18.3228 122.792 18.4249 122.985 18.629C123.189 18.8218 123.291 19.06 123.291 19.3435C123.291 19.627 123.189 19.8708 122.985 20.075C122.792 20.2678 122.554 20.3642 122.27 20.3642H117.575ZM134.463 30.452C134.576 30.5427 134.695 30.6844 134.82 30.8772C134.956 31.07 135.024 31.2515 135.024 31.4216C135.024 31.7051 134.927 31.932 134.735 32.1021C134.542 32.2722 134.298 32.3572 134.003 32.3572C133.72 32.3572 133.51 32.3119 133.374 32.2211C132.92 31.9716 132.591 31.6371 132.387 31.2175C132.183 30.7865 132.036 30.1684 131.945 29.3632C131.911 29.023 131.877 28.6261 131.843 28.1724C131.809 27.7074 131.78 27.3275 131.758 27.0327C131.735 26.4996 131.44 26.097 130.873 25.8248C130.317 25.5527 129.637 25.4166 128.832 25.4166H127.709V31.2175C127.709 31.501 127.607 31.7448 127.403 31.949C127.21 32.1418 126.972 32.2382 126.688 32.2382C126.405 32.2382 126.161 32.1418 125.957 31.949C125.764 31.7448 125.668 31.501 125.668 31.2175V19.2584C125.668 18.9409 125.764 18.6857 125.957 18.4929C126.15 18.3001 126.399 18.1924 126.705 18.1697C127.091 18.1584 127.63 18.1527 128.321 18.1527C129.013 18.1413 129.586 18.1357 130.04 18.1357C130.89 18.1357 131.644 18.2888 132.302 18.595C132.971 18.9012 133.487 19.3321 133.85 19.8879C134.224 20.4436 134.411 21.0787 134.411 21.7931C134.411 23.2448 133.686 24.2144 132.234 24.7021C133.198 25.1104 133.72 25.8305 133.799 26.8625L133.867 27.6451C133.89 28.008 133.929 28.5127 133.986 29.1591C134.054 29.8395 134.213 30.2705 134.463 30.452ZM127.709 23.5283H130.023C130.839 23.5283 131.434 23.3979 131.809 23.137C132.183 22.8762 132.37 22.4282 132.37 21.7931C132.37 21.2828 132.166 20.8859 131.758 20.6023C131.349 20.3188 130.777 20.177 130.04 20.177H127.709V23.5283ZM148.305 28.5807C148.588 28.5807 148.827 28.6828 149.019 28.8869C149.224 29.0797 149.326 29.3179 149.326 29.6014C149.326 29.8736 149.229 30.1174 149.036 30.3329C148.515 30.8886 147.783 31.3479 146.842 31.7108C145.901 32.0624 144.965 32.2382 144.035 32.2382C142.685 32.2382 141.466 31.9433 140.378 31.3536C139.289 30.7638 138.433 29.9359 137.809 28.8699C137.185 27.8038 136.873 26.579 136.873 25.1954C136.873 23.8232 137.185 22.5983 137.809 21.5209C138.433 20.4436 139.289 19.61 140.378 19.0203C141.466 18.4192 142.685 18.1187 144.035 18.1187C144.965 18.1187 145.895 18.3058 146.825 18.68C147.755 19.0543 148.486 19.5476 149.019 20.16C149.212 20.3869 149.309 20.6307 149.309 20.8915C149.309 21.175 149.207 21.4189 149.002 21.623C148.798 21.8158 148.554 21.9122 148.271 21.9122C148.135 21.9122 147.999 21.8839 147.863 21.8272C147.727 21.7704 147.619 21.6911 147.539 21.589C147.211 21.1921 146.723 20.8802 146.076 20.6534C145.43 20.4265 144.75 20.3131 144.035 20.3131C142.776 20.3131 141.716 20.6307 140.854 21.2658C140.003 21.8895 139.453 22.7685 139.204 23.9026H144.511C144.795 23.9026 145.033 24.0046 145.226 24.2088C145.43 24.4016 145.532 24.6397 145.532 24.9232C145.532 25.2068 145.43 25.4506 145.226 25.6547C145.033 25.8475 144.795 25.9439 144.511 25.9439H139.119C139.266 27.2255 139.782 28.2348 140.667 28.972C141.563 29.6978 142.685 30.0607 144.035 30.0607C144.818 30.0607 145.532 29.9586 146.178 29.7545C146.825 29.5504 147.279 29.2838 147.539 28.955C147.63 28.8415 147.744 28.7508 147.88 28.6828C148.027 28.6147 148.169 28.5807 148.305 28.5807ZM155.55 32.3232C154.665 32.3232 153.826 32.1077 153.032 31.6768C152.238 31.2345 151.615 30.6448 151.161 29.9076C151.07 29.7488 151.025 29.5617 151.025 29.3462C151.025 28.9946 151.11 28.7168 151.28 28.5127C151.462 28.3085 151.7 28.2064 151.995 28.2064C152.244 28.2064 152.46 28.2575 152.641 28.3596C152.822 28.4616 152.981 28.6261 153.117 28.8529C153.333 29.2158 153.667 29.5163 154.121 29.7545C154.586 29.9813 155.062 30.0947 155.55 30.0947C157.183 30.0947 158 29.5277 158 28.3936C158 27.9059 157.795 27.4636 157.387 27.0667C156.99 26.6697 156.355 26.2671 155.482 25.8589C154.45 25.3825 153.645 24.9516 153.066 24.566C152.499 24.1691 152.091 23.7494 151.841 23.3072C151.592 22.8535 151.467 22.3205 151.467 21.7081C151.467 21.0049 151.654 20.3812 152.029 19.8368C152.403 19.2811 152.919 18.8502 153.577 18.5439C154.234 18.2264 154.972 18.0676 155.788 18.0676C156.695 18.0676 157.529 18.2718 158.289 18.68C159.049 19.077 159.627 19.6213 160.024 20.3131C160.137 20.4946 160.194 20.6817 160.194 20.8745C160.194 21.1467 160.103 21.3849 159.922 21.589C159.752 21.7931 159.536 21.8952 159.275 21.8952C159.083 21.8952 158.884 21.8442 158.68 21.7421C158.476 21.6287 158.317 21.4926 158.204 21.3338C157.943 20.9709 157.614 20.7044 157.217 20.5343C156.831 20.3642 156.355 20.2791 155.788 20.2791C155.119 20.2791 154.592 20.4039 154.206 20.6534C153.832 20.8915 153.645 21.2431 153.645 21.7081C153.645 21.9916 153.713 22.2298 153.849 22.4226C153.996 22.604 154.24 22.7911 154.58 22.9839C154.932 23.1767 155.505 23.4546 156.298 23.8175C157.682 24.4639 158.674 25.1387 159.275 25.8419C159.888 26.545 160.194 27.3956 160.194 28.3936C160.194 29.1761 160.001 29.8679 159.616 30.469C159.23 31.0587 158.686 31.518 157.983 31.8469C157.279 32.1644 156.469 32.3232 155.55 32.3232ZM172.162 18.2888C172.457 18.2888 172.712 18.3908 172.928 18.595C173.154 18.7878 173.268 19.0259 173.268 19.3095V31.2175C173.268 31.501 173.154 31.7448 172.928 31.949C172.712 32.1418 172.457 32.2382 172.162 32.2382C171.867 32.2382 171.612 32.1418 171.397 31.949C171.181 31.7448 171.073 31.501 171.073 31.2175V25.6207H164.626V31.2175C164.626 31.501 164.513 31.7448 164.286 31.949C164.07 32.1418 163.815 32.2382 163.52 32.2382C163.225 32.2382 162.97 32.1418 162.755 31.949C162.539 31.7448 162.432 31.501 162.432 31.2175V19.3095C162.432 19.0259 162.539 18.7878 162.755 18.595C162.97 18.3908 163.225 18.2888 163.52 18.2888C163.815 18.2888 164.07 18.3908 164.286 18.595C164.513 18.7878 164.626 19.0259 164.626 19.3095V23.5793H171.073V19.3095C171.073 19.0259 171.181 18.7878 171.397 18.595C171.612 18.3908 171.867 18.2888 172.162 18.2888Z" fill="white"/>
</svg>
