<svg width="289" height="126" viewBox="0 0 289 126" fill="none" xmlns="http://www.w3.org/2000/svg">
<path d="M73.5757 50.4774L65.0444 23.9946L75.3964 20.7783L87.1345 16.8925H114.879L124.838 20.7783L129.64 16.8925H172.858L178.015 20.7783L181.928 16.8925H251.312L258.426 20.7783V31.5107L254.336 34.8414L258.426 37.247V77.9968L258.604 78.141L265.363 74.2552L268.725 71.4747L277.44 75.3605L289 115.885L283.836 124.771L264.087 125.838L260.174 119.731H241.322L235.275 125.838H225.849L223.715 122.877L221.403 125.838H214.289L208.954 119.731H187.79L184.41 125.838H171.961L167.693 119.731H158.622L154.532 125.838H138.17L134.435 119.731H124.297L118.784 125.838H76.456L71.2984 121.582L67.2079 125.838H55.292L51.735 121.582H22.5678L18.6551 125.838H10.3014L4.43614 113.752L13.6828 78.6962L17.2398 70.4897L18.6626 67.4087H13.505L73.5757 50.4774Z" fill="url(#paint0_linear_633_5635)"/>
<path d="M46.5674 0L52.2549 3.73242H73.9385L79.626 0H87.624L94.7334 5.6875V16.8848L106.464 13.1523H134.191L144.145 16.8848L148.943 13.1523H192.134L197.288 16.8848L201.198 13.1523H244.21L251.319 16.8848V27.1934L247.231 30.3926L251.319 32.7031V33.415H251.497V68.251H261.096L269.805 71.9834L281.357 110.908L276.914 116.773H263.229L259.318 110.908H240.478L234.435 116.773H225.015L222.882 113.93L220.571 116.773H213.462L208.13 110.908H186.979L183.603 116.773H171.16L166.895 110.908H157.83L153.742 116.773H137.391L133.658 110.908H123.527L118.018 116.773H75.7158L70.5615 112.686L66.4736 116.773H54.5654L51.0107 112.686H21.8613L17.9512 116.773H6.93164L4.62109 114.463L0 105.754L6.93164 72.5166L11.0195 63.4521L18.4844 58.8311H30.0371V5.6875L36.4355 0H46.5674Z" fill="#62318E"/>
<path d="M36.204 63.9847C36.204 66.7215 36.204 67.4688 36.204 70.2055C30.4976 70.2055 25.7357 71.3734 23.7483 72.6938C20.5825 74.7972 20.5024 75.0324 19.7977 77.315C19.5782 78.0259 19.3588 79.6256 19.7977 79.981C20.2367 80.3365 20.9718 80.1588 21.5535 80.1588C26.092 80.1588 27.9209 80.1588 32.0842 80.1588C33.5536 80.1588 36.204 77.315 36.204 77.315C36.204 77.315 38.4081 80.2762 39.8775 80.2762C47.4156 80.2762 48.0806 80.2841 49.8997 80.2841C50.4879 80.2841 53.3778 80.3618 53.5973 80.1588C53.8168 79.9557 53.8168 78.5592 53.5973 77.8482C52.9586 75.7791 51.7261 74.392 48.7688 72.6938C46.3013 71.2769 41.9104 70.2055 36.204 70.2055C36.204 67.4688 36.204 66.7215 36.204 63.9847C51.2686 63.9847 56.2311 65.4066 59.4693 74.9536C62.7076 84.5005 64.9583 100.852 65.2033 104.813C65.4484 108.774 63.9644 110.907 61.5299 110.907H59.9985C57.5639 110.907 57.2708 109.266 56.2912 106.22C55.3116 103.173 55.3116 96.9985 53.5973 91.0922C53.4118 90.4529 53.1308 89.2698 52.1465 88.0452C51.5876 87.3498 47.3133 87.4671 46.7346 87.4671C40.6554 87.4671 44.5735 87.4671 39.8775 87.4671C38.4081 87.4671 36.204 91.8894 36.204 91.8894C36.204 91.8894 33.9999 87.4671 32.5305 87.4671C28.0717 87.4671 31.0468 87.4671 25.4285 87.4671C24.9387 87.4671 21.5437 87.5467 20.601 88.4672C19.6583 89.3876 19.2094 89.8877 18.8867 91.0922C16.8459 98.7095 17.1539 103.173 16.1743 106.337C15.1947 109.501 15.1283 110.907 12.6938 110.907H11.7142C9.2796 110.907 7.06123 109.079 7.306 104.813C7.55078 100.548 9.52987 84.6022 13.4285 74.9536C17.327 65.3049 21.1394 63.9848 36.204 63.9847Z" fill="white"/>
<path d="M38.8701 97.6058C38.8701 97.6058 37.686 98.0638 37.0596 98.6229C36.5276 99.0976 36.0537 100.657 36.0537 100.657C36.0537 100.657 35.5886 99.1407 35.0478 98.6229C34.4671 98.0668 33.2372 97.6058 33.2372 97.6058C33.2372 97.6058 34.4671 97.3483 35.0478 96.7922C35.5886 96.2744 36.0537 94.5547 36.0537 94.5547C36.0537 94.5547 36.5276 96.3175 37.0596 96.7922C37.686 97.3513 38.8701 97.6058 38.8701 97.6058Z" fill="white"/>
<path d="M38.8701 106.138C38.8701 106.138 37.686 106.596 37.0596 107.155C36.5276 107.629 36.0537 109.189 36.0537 109.189C36.0537 109.189 35.5886 107.672 35.0478 107.155C34.4671 106.599 33.2372 106.138 33.2372 106.138C33.2372 106.138 34.4671 105.88 35.0478 105.324C35.5886 104.806 36.0537 103.086 36.0537 103.086C36.0537 103.086 36.5276 104.849 37.0596 105.324C37.686 105.883 38.8701 106.138 38.8701 106.138Z" fill="white"/>
<path d="M86.2776 76.8243C95.9159 75.6132 104.993 76.0491 109.411 76.8243C113.83 77.5994 117.209 79.1952 118.249 82.7184C118.823 84.6633 118.024 86.1035 115.91 86.5061C115.22 86.6373 113.485 86.6195 112.791 86.5061C110.895 86.1963 110.191 85.6613 109.411 85.0685C108.632 84.4758 106.193 83.7427 104.897 83.6283C98.0501 83.0235 97.8655 82.7468 91.4503 83.1801C88.8422 83.3562 85.9405 83.7133 83.8188 84.0688C81.6971 84.4242 80.1488 85.2637 79.8974 86.5061C79.4309 88.8128 83.2744 89.1319 83.8188 89.2231C85.9405 89.5786 86.3848 89.6178 89.1342 89.8345C89.6091 89.8719 90.7681 89.8345 91.6281 89.7563C93.5832 89.5785 95.8938 86.557 95.8938 86.557C95.8938 86.557 98.5419 89.7559 99.804 89.8345C101.404 89.934 102.818 89.8345 103.714 89.8345C108.452 89.8345 109.849 90.2593 112.791 91.1782C116.341 92.2872 119.355 96.1075 119.355 97.7544V101.377C119.355 108.063 112.423 109.485 104.799 110.514C96.9524 111.572 90.5029 111.388 84.5245 110.514C78.2862 109.602 73.9983 107.708 72.8275 104.783C72.273 103.398 71.7878 100.239 75.1669 99.4486C76.3312 99.1763 77.4999 99.2992 78.286 99.4486C79.0721 99.598 80.3655 100.981 81.6651 101.377C82.8608 101.883 85.7567 102.641 87.1236 102.808C93.6218 103.598 97.4101 103.481 100.159 103.264C102.909 103.048 105.855 103.211 107.802 102.376C109.486 101.653 111.179 100.693 111.179 99.4486C111.179 98.2044 110.468 97.7544 107.802 97.0435C105.046 96.3085 102.706 96.4365 99.804 96.5103C98.6661 96.5392 95.8938 99.7095 95.8938 99.7095C95.8938 99.7095 93.2207 96.372 91.8058 96.3325C88.9319 96.2524 86.2248 96.2121 84.5245 95.9771C76.3278 94.8442 71.6282 93.8442 71.6282 88.7514V85.0685C71.6283 80.514 79.5567 77.6687 86.2776 76.8243Z" fill="white"/>
<path d="M166.895 77.1375C168.662 77.1375 170.094 79.0926 170.094 80.3367V81.2254C170.094 82.6473 168.662 84.4247 166.895 84.4247C166.895 84.4247 157.648 84.4247 151.61 84.4247C151.124 84.4247 150.887 84.4366 150.543 84.7801C150.2 85.1237 150.188 85.3607 150.188 85.8466C150.188 88.4842 150.188 87.8017 150.188 90.4677C150.188 92.3354 153.565 94.2002 153.565 94.2002C153.565 94.2002 150.188 95.9775 150.188 97.5772C150.188 100.421 150.188 108.064 150.188 108.064C150.188 109.831 148.756 111.263 146.989 111.263H145.567C143.8 111.263 142.367 109.831 142.367 108.064C142.367 108.064 142.367 100.599 142.367 97.5772C142.367 95.9568 138.99 94.2002 138.99 94.2002C138.99 94.2002 142.367 92.2455 142.367 90.4677C142.367 87.8017 142.367 88.3349 142.367 85.6688C142.367 85.3635 142.278 85.0458 142.012 84.7801C141.746 84.5144 141.546 84.4247 141.123 84.4247C134.903 84.4247 125.66 84.4247 125.66 84.4247C123.893 84.4247 122.461 82.6473 122.461 81.2254V80.3367C122.461 78.9148 123.893 77.1375 125.66 77.1375H166.895Z" fill="white"/>
<path fill-rule="evenodd" clip-rule="evenodd" d="M212.218 76.4261C216.128 77.0441 217.017 77.848 217.372 78.3812C218.181 79.594 217.669 80.6918 217.195 81.7582C216.721 82.8246 215.595 84.0688 213.995 85.8461C212.396 87.6235 210.618 88.8676 210.618 89.0454C210.618 89.2231 214.994 89.0624 215.24 89.0624C218.794 89.0454 220.216 92.4223 220.216 94.1997V106.231C220.216 107.935 219.292 109.84 217.55 109.84H216.661C214.718 109.84 213.462 108.224 213.462 106.231V98.6432C213.462 97.0436 212.218 95.4439 210.263 95.4439H194.978C193.809 95.4439 192.136 98.6395 192.134 98.6432C192.131 98.6396 190.103 95.4439 188.934 95.4439H183.549C183.158 95.4439 182.661 95.3926 182.376 95.7994C182.003 96.3326 182.18 98.2779 182.18 98.6432V106.231C182.18 108.224 180.605 109.84 178.661 109.84H177.879C175.936 109.84 174.36 108.224 174.36 106.231V79.3608C174.36 77.4781 175.766 76.25 177.559 76.1636C187.157 75.7012 208.308 75.8082 212.218 76.4261ZM182.127 82.4691C181.915 82.7866 181.942 83.4483 181.933 84.0687C181.913 85.501 182.003 85.8461 182.003 87.268C182.003 87.7753 182.18 88.1759 182.376 88.5122C182.639 88.9654 183.112 89.0454 183.549 89.0454C187.172 89.0454 185.611 89.0624 188.934 89.0624C190.104 89.0624 192.122 85.8654 192.134 85.8465C192.144 85.8664 193.808 89.0624 194.978 89.0624C196.147 89.0624 197.434 89.0627 198.177 89.0627C198.601 89.0627 200.035 89.2122 201.909 88.5125C202.62 88.2472 203.509 87.8013 205.642 86.0239C207.775 84.2466 209.676 83.3578 209.321 82.4694C209.036 81.7585 208.788 81.7582 205.588 81.5805C202.389 81.4027 196.551 81.4027 192.969 81.4027C186.57 81.4027 185.588 81.5436 183.549 81.7582C183.016 81.8143 182.482 81.9359 182.127 82.4691Z" fill="white"/>
<path d="M248.965 76.0707C248.965 78.0403 248.965 79.5831 248.965 81.5528C245.395 81.5124 241.848 82.576 240.239 83.5263C237.675 85.0401 236.074 86.6873 236.074 88.3806C236.074 88.7834 236.059 89.0948 236.258 89.2578C236.456 89.4209 236.991 89.4714 237.462 89.4714C241.138 89.4714 242.619 89.4714 245.99 89.4714C247.18 89.4714 249.009 86.7349 249.009 86.7349C249.009 86.7349 250.75 89.4714 251.94 89.4714C258.044 89.4714 258.583 89.4771 260.056 89.4771C260.532 89.4771 261.019 89.4446 261.246 89.2578C261.473 89.0711 261.459 88.6505 261.459 88.1613C261.459 86.6264 259.888 84.7485 257.493 83.5263C255.495 82.5066 252.535 81.5931 248.965 81.5528C248.965 79.5831 248.965 78.0403 248.965 76.0707C255.51 76.0707 266.021 76.5092 267.806 83.9649C269.591 91.4206 272.251 102.604 272.449 105.455C272.648 108.306 271.446 109.841 269.474 109.841H268.234C266.263 109.841 264.618 108.744 263.824 106.551C263.031 104.359 263.031 102.938 261.643 98.6871C261.493 98.227 261.265 97.3755 260.468 96.4942C260.015 95.9937 257.962 95.9937 257.493 95.9937C252.57 95.9937 255.743 95.9937 251.94 95.9937C250.75 95.9937 248.965 99.1765 248.965 99.1765C248.965 99.1765 247.18 95.9937 245.99 95.9937C242.379 95.9937 244.789 95.9937 240.239 95.9937C239.842 95.9937 238.226 96.051 237.462 96.7135C236.699 97.3759 236.336 97.7358 236.074 98.6027C234.421 104.085 234.671 104.274 233.878 106.551C233.084 108.829 231.898 109.841 229.926 109.841H229.133C227.161 109.841 225.365 108.525 225.563 105.455C225.761 102.385 228.595 91.4206 230.521 83.9649C232.448 76.5092 243.214 76.0707 248.965 76.0707Z" fill="white"/>
<path d="M119.75 19.5498C119.75 21.5194 119.75 23.0623 119.75 25.0319C116.18 24.9915 112.634 26.0551 111.024 27.0055C108.46 28.5192 106.859 30.1664 106.859 31.8597C106.859 32.2625 106.844 32.5739 107.043 32.7369C107.241 32.9 107.776 32.9505 108.248 32.9505C111.923 32.9505 113.404 32.9505 116.775 32.9505C117.965 32.9505 119.795 30.214 119.795 30.214C119.795 30.214 121.535 32.9505 122.725 32.9505C128.83 32.9505 129.368 32.9562 130.841 32.9562C131.318 32.9562 131.804 32.9237 132.031 32.7369C132.258 32.5502 132.245 32.1296 132.245 31.6405C132.245 30.1055 130.673 28.2276 128.278 27.0055C126.28 25.9857 123.32 25.0722 119.75 25.0319C119.75 23.0623 119.75 21.5194 119.75 19.5498C126.295 19.5498 136.806 19.9883 138.591 27.444C140.376 34.8997 143.036 46.0833 143.234 48.9341C143.433 51.7848 142.231 53.3198 140.26 53.3198H139.019C137.048 53.3198 135.403 52.2234 134.609 50.0305C133.816 47.8376 133.816 46.417 132.428 42.1662C132.278 41.7061 132.05 40.8547 131.253 39.9733C130.8 39.4729 128.747 39.4729 128.278 39.4729C123.355 39.4729 126.528 39.4729 122.725 39.4729C121.535 39.4729 119.75 42.6556 119.75 42.6556C119.75 42.6556 117.965 39.4729 116.775 39.4729C113.165 39.4729 115.574 39.4729 111.024 39.4729C110.627 39.4729 109.011 39.5301 108.248 40.1926C107.484 40.8551 107.121 41.215 106.859 42.0818C105.207 47.5639 105.456 47.7533 104.663 50.0305C103.87 52.3077 102.683 53.3198 100.711 53.3198H99.9181C97.9465 53.3198 96.15 52.0041 96.3483 48.9341C96.5465 45.864 99.3798 34.8997 101.306 27.444C103.233 19.9884 113.999 19.5498 119.75 19.5498Z" fill="white"/>
<path d="M41.3382 6.39697C43.4732 6.39697 45.204 8.01297 45.204 10.0064C45.204 10.0064 45.204 17.2252 45.204 21.4362C45.204 21.9315 45.204 22.4389 45.4188 22.6394C45.6335 22.8399 46.1972 22.8399 46.7074 22.8399C50.6874 22.8399 55.0832 22.8399 58.7342 22.8399C60.0228 22.8399 61.9557 20.0326 61.9557 20.0326C61.9557 20.0326 63.8886 22.8399 65.1772 22.8399C71.7878 22.8399 76.4678 22.8399 78.0631 22.8399C78.5789 22.8399 79.1369 22.8399 79.3517 22.6394C79.5665 22.4389 79.5665 22.0378 79.5665 21.4362C79.5665 16.8242 79.5665 10.0064 79.5665 10.0064C79.5665 8.01297 81.2972 6.39697 83.4322 6.39697H84.2913C86.4263 6.39697 88.1571 8.01297 88.1571 10.0064V49.7101C88.1571 51.7035 86.4263 53.3195 84.2913 53.3195H83.4322C81.2972 53.3195 79.5665 51.7035 79.5665 49.7101C79.5665 49.7101 79.5665 39.469 79.5665 32.2645C79.5665 31.6629 79.5665 31.2619 79.3517 31.0614C79.1369 30.8608 78.7074 30.8608 78.0631 30.8608C72.7319 30.8608 69.2954 30.8608 65.1772 30.8608C63.8886 30.8608 61.9557 34.0692 61.9557 34.0692C61.9557 34.0692 60.0228 30.8608 58.7342 30.8608C54.824 30.8608 51.6344 30.8608 46.7074 30.8608C46.2778 30.8608 45.688 30.81 45.4188 31.0614C45.1496 31.3127 45.204 31.8996 45.204 32.2645C45.204 39.0774 45.204 49.7101 45.204 49.7101C45.204 51.7035 43.4732 53.3195 41.3382 53.3195H40.4792C38.3442 53.3195 36.6134 51.7035 36.6134 49.7101V10.0064C36.6134 8.01297 38.3442 6.39697 40.4792 6.39697H41.3382Z" fill="white"/>
<path d="M65.6731 12.5922C65.6731 12.5922 64.1834 13.1167 63.3952 13.7571C62.726 14.3008 62.1298 16.0867 62.1298 16.0867C62.1298 16.0867 61.5446 14.3501 60.8643 13.7571C60.1337 13.1202 58.5864 12.5922 58.5864 12.5922C58.5864 12.5922 60.1337 12.2973 60.8643 11.6604C61.5446 11.0673 62.1298 9.09778 62.1298 9.09778C62.1298 9.09778 62.726 11.1167 63.3952 11.6604C64.1834 12.3007 65.6731 12.5922 65.6731 12.5922Z" fill="white"/>
<path d="M65.4504 42.1212C65.4504 42.1212 63.924 42.6586 63.1164 43.3147C62.4307 43.8718 61.8198 45.7018 61.8198 45.7018C61.8198 45.7018 61.2202 43.9224 60.5231 43.3147C59.7745 42.6621 58.1891 42.1212 58.1891 42.1212C58.1891 42.1212 59.7745 41.819 60.5231 41.1664C61.2202 40.5587 61.8198 38.5406 61.8198 38.5406C61.8198 38.5406 62.4307 40.6093 63.1164 41.1664C63.924 41.8225 65.4504 42.1212 65.4504 42.1212Z" fill="white"/>
<path d="M175.248 36.0788C175.248 36.0788 173.305 36.9058 172.277 37.9154C171.405 38.7727 170.627 41.5886 170.627 41.5886C170.627 41.5886 169.864 38.8505 168.977 37.9154C168.024 36.9112 166.006 36.0788 166.006 36.0788C166.006 36.0788 168.024 35.6137 168.977 34.6095C169.864 33.6744 170.627 30.569 170.627 30.569C170.627 30.569 171.405 33.7522 172.277 34.6095C173.305 35.6191 175.248 36.0788 175.248 36.0788Z" fill="white"/>
<path d="M184.856 20.3029C189.274 21.0781 192.653 22.674 193.693 26.1973C194.267 28.1422 193.468 29.5823 191.354 29.9849C190.665 30.1161 188.929 30.0984 188.235 29.9849C186.339 29.6751 185.635 29.1402 184.856 28.5474C184.076 27.9546 181.637 27.2216 180.341 27.1072C173.494 26.5024 172.277 26.4573 165.861 26.8905C163.253 27.0667 160.451 27.5185 159.263 28.1903C158.648 28.5378 157.548 28.984 156.697 29.9233C155.732 30.9888 154.864 32.7832 154.864 34.6892V37.0721C154.864 38.8503 155.707 41.0489 156.697 42.2712C157.12 42.7932 157.613 43.636 159.263 44.2209C161.096 44.8708 161.829 45.0874 164.578 45.304C167.328 45.5206 172.899 45.7921 179.397 45.0018C180.764 44.8355 183.66 44.0772 184.856 43.571C186.155 43.1758 187.449 41.7921 188.235 41.6427C189.021 41.4933 190.19 41.3704 191.354 41.6427C194.733 42.4331 194.248 45.5925 193.693 46.9777C191.953 51.3247 188.235 51.7959 181.996 52.7078C176.018 53.5818 167.18 53.4623 161.722 52.7078C153.525 51.5749 147.166 48.7701 147.166 37.722V34.0393C147.166 24.7242 155.001 21.1474 161.722 20.3029C171.36 19.0919 180.437 19.5277 184.856 20.3029Z" fill="white"/>
<path d="M231.057 27.7261C233.368 25.4156 234.968 23.9524 236.745 22.0383C238.522 20.1242 240.463 19.7277 241.899 20.4386C242.348 20.6607 242.959 21.102 243.321 21.505C244.261 22.5499 243.795 24.1711 243.321 25.2375C242.847 26.3039 241.366 27.3704 239.767 29.1477C238.167 30.9251 236.745 32.347 236.745 32.5247C236.745 32.7025 241.121 32.5417 241.366 32.5417C244.921 32.5247 246.343 35.9017 246.343 37.6791V49.7105C246.343 51.4147 245.419 53.3197 243.677 53.3197H242.788C240.844 53.3197 239.589 51.7039 239.589 49.7105V42.1225C239.589 40.5229 238.345 38.9232 236.39 38.9232H221.104C219.935 38.9232 218.26 42.1225 218.26 42.1225C218.26 42.1225 216.231 38.9232 215.061 38.9232H209.676C209.285 38.9233 208.787 38.872 208.503 39.2787C208.129 39.8119 208.307 41.7572 208.307 42.1225V49.7105C208.307 51.7039 206.731 53.3197 204.788 53.3197H204.006C202.062 53.3197 200.487 51.7039 200.487 49.7105V22.8403C200.487 20.8469 202.062 20.033 204.006 20.033H204.788C206.731 20.033 208.307 20.8469 208.307 22.8403V30.7474C208.307 31.1026 208.307 31.6552 208.503 31.9915C208.766 32.4448 209.239 32.5247 209.676 32.5247C213.299 32.5247 211.737 32.5417 215.061 32.5417C216.234 32.5417 218.26 29.3257 218.26 29.3257C218.26 29.3257 219.931 32.5417 221.104 32.5417C222.675 32.5417 223.906 32.5417 224.837 32.5417C225.548 32.5417 227.325 31.4583 231.057 27.7261Z" fill="white"/>
<defs>
<linearGradient id="paint0_linear_633_5635" x1="4.43616" y1="71.3651" x2="289" y2="71.3651" gradientUnits="userSpaceOnUse">
<stop stop-color="#FFAE5E"/>
<stop offset="0.466346" stop-color="#9802E4"/>
<stop offset="1" stop-color="#FFBB62"/>
</linearGradient>
</defs>
</svg>
