<svg width="393" height="295" viewBox="0 0 393 295" fill="none" xmlns="http://www.w3.org/2000/svg">
<path d="M33.2338 385.176C24.3601 357.932 28.5634 254.872 50.9813 228.718" stroke="#A9A9B9" stroke-width="3.73632" stroke-linecap="round"/>
<g style="mix-blend-mode:screen" opacity="0.7">
<path d="M62.1704 165.957C15.8161 222.022 2.41451 272.814 -2.18878 297.42C-8.19043 329.478 -7.76486 362.57 -7.58247 373.817C-7.11346 401.741 -4.06483 425.296 -0.981491 442.823C7.99927 439.783 17.6227 436.848 27.8629 434.138C36.2183 431.932 44.2784 430.056 52.0085 428.475C42.3589 428.423 34.9849 427.467 31.5629 426.269C30.5554 425.921 28.7228 425.244 27.2462 423.524C26.0824 422.169 25.6655 420.762 25.4657 420.093C24.5972 417.114 22.1913 408.655 19.0819 397.129C12.8978 367.963 7.58236 324.441 16.3894 275.211C23.4073 235.979 36.5744 208.889 39.3364 203.313C47.2314 187.384 55.5782 174.851 62.1618 165.948L62.1704 165.957Z" fill="#EB9840"/>
</g>
<path d="M246.136 401.702C289.946 401.702 325.46 366.188 325.46 322.378C325.46 278.569 289.946 243.054 246.136 243.054C202.326 243.054 166.812 278.569 166.812 322.378C166.812 366.188 202.326 401.702 246.136 401.702Z" fill="#3263C3"/>
<path d="M310.07 325.605C312.046 289.236 284.165 258.151 247.796 256.175C211.427 254.199 180.343 282.08 178.366 318.449C176.39 354.818 204.271 385.902 240.64 387.878C277.009 389.854 308.094 361.974 310.07 325.605Z" fill="#CBCBEB"/>
<path d="M207.318 126.312C259.762 153.509 312.205 180.707 364.649 207.904V207.895C374.038 223.086 385.894 245.504 394.44 274.426C396.812 282.435 402.787 304.009 405.384 337.699C409.058 385.425 403.247 422.434 401.536 433.5C392.304 493.256 371.337 647.084 341.737 855.283C337.394 858.896 332.44 859.948 328.097 863.561C240.293 857.667 157.592 856.725 69.6628 862.627C65.3202 859.014 61.6059 857.962 57.2632 854.349C27.6632 646.15 6.69654 492.322 -2.5361 432.566C-4.24717 421.5 -10.0576 384.491 -6.3837 336.765C-3.78677 303.075 2.18862 281.5 4.5598 273.492C13.1063 244.57 24.9619 222.152 34.3509 206.961V206.97C86.7896 179.776 139.228 152.58 191.667 125.386C191.647 122.979 191.628 120.573 191.609 118.166L198.599 121.791C201.53 120.271 204.46 118.752 207.391 117.232C207.367 120.258 207.342 123.285 207.318 126.312Z" fill="#E6E7E8"/>
<path d="M365.766 386.11C374.64 358.866 370.436 255.806 348.018 229.652" stroke="#A9A9B9" stroke-width="3.73632" stroke-linecap="round"/>
<path d="M25.4239 386.11C16.5502 358.866 20.7535 255.806 43.1714 229.652" stroke="#A9A9B9" stroke-width="3.73632" stroke-linecap="round"/>
<g style="mix-blend-mode:screen" opacity="0.7">
<path d="M336.83 166.892C383.184 222.956 396.586 273.749 401.189 298.355C407.19 330.413 406.765 363.504 406.583 374.752C406.114 402.676 403.065 426.23 399.982 443.758C391.001 440.718 381.377 437.782 371.137 435.072C362.782 432.866 354.722 430.99 346.992 429.409C356.641 429.357 364.015 428.402 367.437 427.203C368.445 426.856 370.277 426.178 371.754 424.459C372.918 423.104 373.335 421.697 373.534 421.028C374.403 418.049 376.809 409.589 379.918 398.064C386.102 368.898 391.418 325.375 382.611 276.146C375.593 236.914 362.426 209.824 359.664 204.248C351.769 188.319 343.422 175.785 336.838 166.883L336.83 166.892Z" fill="#EB9840"/>
</g>
<g style="mix-blend-mode:screen" opacity="0.1">
<path d="M206.981 237.75C213.643 237.594 224.283 238.184 236.347 242.623C242.965 245.063 254.595 250.344 265.495 261.435C274.711 270.807 279.696 280.561 282.345 287.049C284.873 293.224 288.199 303.594 288.251 316.727C288.329 336.782 280.73 351.399 277.585 356.828C267.58 374.112 253.761 382.91 247.542 386.375C272.93 366.877 285.454 335.166 279.679 304.68C273.078 269.825 243.686 242.501 206.973 237.75H206.981Z" fill="#D1E7FF"/>
</g>
<path d="M201.296 401.702C245.105 401.702 280.62 366.188 280.62 322.378C280.62 278.569 245.105 243.054 201.296 243.054C157.486 243.054 121.972 278.569 121.972 322.378C121.972 366.188 157.486 401.702 201.296 401.702Z" fill="#3263C3"/>
<path d="M265.229 325.605C267.205 289.236 239.324 258.151 202.956 256.175C166.587 254.199 135.502 282.08 133.526 318.449C131.55 354.818 159.431 385.902 195.8 387.878C232.169 389.854 263.253 361.974 265.229 325.605Z" fill="#CBCBEB"/>
<path opacity="0.1" d="M189.405 256.794C186.973 257.159 184.246 257.715 181.31 258.549C178.253 259.417 175.543 260.434 173.216 261.441C182.578 303.618 191.933 345.794 201.296 387.962C204.197 387.91 207.636 387.632 211.449 386.92C215.357 386.19 218.736 385.165 221.515 384.132C210.806 341.686 200.106 299.24 189.397 256.786L189.405 256.794Z" fill="#D1E7FF"/>
<path opacity="0.1" d="M207.324 256.543C219.318 294.759 231.304 332.975 243.299 371.191C244.541 369.914 245.783 368.637 247.025 367.343C248.058 366.266 249.092 365.198 250.117 364.121C238.365 328.71 226.605 293.308 214.854 257.897C213.838 257.567 212.683 257.255 211.397 257.012C209.895 256.725 208.522 256.595 207.324 256.534V256.543Z" fill="#D1E7FF"/>
<g style="mix-blend-mode:screen" opacity="0.7">
<path d="M60.1045 166.892C13.7502 222.956 0.348591 273.749 -4.2547 298.355C-10.2563 330.413 -9.83079 363.504 -9.64839 374.752C-9.17937 402.676 -6.13075 426.23 -3.04741 443.758C5.93335 440.718 15.5568 437.782 25.797 435.072C34.1524 432.866 42.2125 430.99 49.9426 429.409C40.293 429.357 32.919 428.402 29.497 427.203C28.4894 426.856 26.6568 426.178 25.1803 424.459C24.0165 423.104 23.5996 421.697 23.3998 421.028C22.5313 418.049 20.1254 409.589 17.016 398.064C10.8319 368.898 5.51645 325.375 14.3235 276.146C21.3413 236.914 34.5085 209.824 37.2705 204.248C45.1655 188.319 53.5123 175.785 60.0959 166.883L60.1045 166.892Z" fill="#EB9840"/>
</g>
<path d="M201.835 155.527C127.856 155.527 43.9758 211.883 17.3545 230.72C35.102 150.389 165.873 -0.675501 201.835 0.0024537C237.797 0.680409 369.347 182.148 379.31 230.72C354.869 211.883 275.814 155.527 201.835 155.527Z" fill="#EB9840"/>
<path d="M201.361 156.463C146.006 156.399 83.0601 187.058 63.1245 201.13C76.4731 141.038 174.453 28.1163 201.361 28.6545C228.269 29.1927 326.544 165.089 333.958 201.442C315.686 187.326 256.715 156.527 201.361 156.463Z" fill="#DE7A40"/>
</svg>
