<svg width="151" height="57" viewBox="1 0 151 57" fill="none" xmlns="http://www.w3.org/2000/svg" style="">
<rect x="2.11133" y="2.11133" width="143" height="47" rx="23.5" fill="#401A79" stroke="url(#paint0_linear_633_6034)" stroke-width="4.2227"/>
<path d="M36.4311 4.22351H57.2923L35.7581 46.9987H14.897L36.4311 4.22351Z" fill="#894697" fill-opacity="0.49"/>
<path d="M49.5544 33.5248C48.6698 33.5248 47.8306 33.3093 47.0367 32.8783C46.2428 32.436 45.6191 31.8463 45.1654 31.1091C45.0747 30.9504 45.0293 30.7632 45.0293 30.5478C45.0293 30.1962 45.1144 29.9183 45.2845 29.7142C45.466 29.5101 45.7041 29.408 45.999 29.408C46.2485 29.408 46.464 29.459 46.6454 29.5611C46.8269 29.6632 46.9857 29.8276 47.1217 30.0544C47.3372 30.4173 47.6718 30.7179 48.1254 30.956C48.5904 31.1828 49.0667 31.2963 49.5544 31.2963C51.1875 31.2963 52.004 30.7292 52.004 29.5951C52.004 29.1074 51.7999 28.6652 51.3916 28.2682C50.9947 27.8713 50.3596 27.4687 49.4863 27.0604C48.4543 26.5841 47.6491 26.1531 47.0707 25.7675C46.5037 25.3706 46.0954 24.951 45.8459 24.5087C45.5964 24.0551 45.4716 23.522 45.4716 22.9096C45.4716 22.2065 45.6588 21.5827 46.033 21.0384C46.4073 20.4826 46.9233 20.0517 47.5811 19.7455C48.2388 19.4279 48.976 19.2692 49.7925 19.2692C50.6998 19.2692 51.5334 19.4733 52.2932 19.8816C53.0531 20.2785 53.6315 20.8229 54.0284 21.5147C54.1418 21.6961 54.1985 21.8833 54.1985 22.0761C54.1985 22.3482 54.1078 22.5864 53.9263 22.7905C53.7562 22.9947 53.5407 23.0967 53.2799 23.0967C53.0871 23.0967 52.8886 23.0457 52.6845 22.9436C52.4803 22.8302 52.3216 22.6941 52.2082 22.5354C51.9473 22.1724 51.6184 21.9059 51.2215 21.7358C50.8359 21.5657 50.3596 21.4807 49.7925 21.4807C49.1234 21.4807 48.5961 21.6054 48.2105 21.8549C47.8362 22.0931 47.6491 22.4446 47.6491 22.9096C47.6491 23.1931 47.7171 23.4313 47.8532 23.6241C48.0007 23.8055 48.2445 23.9927 48.5847 24.1855C48.9363 24.3783 49.509 24.6561 50.3029 25.019C51.6865 25.6655 52.6788 26.3403 53.2799 27.0434C53.8923 27.7465 54.1985 28.5971 54.1985 29.5951C54.1985 30.3776 54.0057 31.0694 53.6201 31.6705C53.2345 32.2602 52.6902 32.7195 51.987 33.0484C51.2839 33.366 50.473 33.5248 49.5544 33.5248ZM65.8434 19.5924C66.1269 19.5924 66.3651 19.6944 66.5579 19.8986C66.762 20.0914 66.8641 20.3295 66.8641 20.6131C66.8641 20.8966 66.762 21.1404 66.5579 21.3446C66.3651 21.5374 66.1269 21.6338 65.8434 21.6338H62.39V32.419C62.39 32.7025 62.2766 32.9464 62.0498 33.1505C61.8343 33.3433 61.5792 33.4397 61.2843 33.4397C60.9894 33.4397 60.7343 33.3433 60.5188 33.1505C60.3033 32.9464 60.1956 32.7025 60.1956 32.419V21.6338H56.7252C56.4417 21.6338 56.1979 21.5374 55.9937 21.3446C55.8009 21.1404 55.7046 20.8966 55.7046 20.6131C55.7046 20.3295 55.8009 20.0914 55.9937 19.8986C56.1979 19.6944 56.4417 19.5924 56.7252 19.5924H65.8434ZM78.5647 31.9257C78.6215 32.0618 78.6498 32.1695 78.6498 32.2489C78.6498 32.5438 78.5477 32.7989 78.3436 33.0144C78.1508 33.2185 77.907 33.3206 77.6121 33.3206C77.408 33.3206 77.2152 33.2639 77.0337 33.1505C76.8636 33.0371 76.7388 32.884 76.6595 32.6912L75.3326 29.2549H70.1441L68.8342 32.7082C68.7662 32.8897 68.6414 33.0371 68.4599 33.1505C68.2898 33.2639 68.097 33.3206 67.8816 33.3206C67.5867 33.3206 67.3429 33.2185 67.1501 33.0144C66.9573 32.8103 66.8609 32.5664 66.8609 32.2829C66.8609 32.1922 66.8892 32.0788 66.9459 31.9427L71.8622 20.0007C71.953 19.7852 72.072 19.6207 72.2195 19.5073C72.3782 19.3939 72.5427 19.3372 72.7128 19.3372C72.9056 19.3372 73.0871 19.3939 73.2572 19.5073C73.4273 19.6207 73.5577 19.7908 73.6484 20.0177L78.5647 31.9257ZM72.5937 22.8586L70.8756 27.3666H74.6011L72.8659 22.8586L72.7298 22.3823L72.5937 22.8586ZM89.8344 31.6535C89.9478 31.7442 90.0669 31.886 90.1917 32.0788C90.3278 32.2716 90.3958 32.453 90.3958 32.6231C90.3958 32.9067 90.2994 33.1335 90.1066 33.3036C89.9138 33.4737 89.67 33.5588 89.3751 33.5588C89.0916 33.5588 88.8818 33.5134 88.7457 33.4227C88.2921 33.1732 87.9632 32.8386 87.759 32.419C87.5549 31.9881 87.4075 31.37 87.3167 30.5648C87.2827 30.2245 87.2487 29.8276 87.2147 29.374C87.1806 28.909 87.1523 28.5291 87.1296 28.2342C87.1069 27.7012 86.8121 27.2986 86.245 27.0264C85.6893 26.7542 85.0088 26.6181 84.2036 26.6181H83.0809V32.419C83.0809 32.7025 82.9788 32.9464 82.7747 33.1505C82.5819 33.3433 82.3437 33.4397 82.0602 33.4397C81.7767 33.4397 81.5328 33.3433 81.3287 33.1505C81.1359 32.9464 81.0395 32.7025 81.0395 32.419V20.46C81.0395 20.1424 81.1359 19.8872 81.3287 19.6944C81.5215 19.5017 81.771 19.3939 82.0772 19.3712C82.4628 19.3599 83.0015 19.3542 83.6933 19.3542C84.3851 19.3429 84.9578 19.3372 85.4115 19.3372C86.262 19.3372 87.0162 19.4903 87.674 19.7965C88.3431 20.1027 88.8591 20.5337 89.222 21.0894C89.5963 21.6451 89.7834 22.2802 89.7834 22.9947C89.7834 24.4463 89.0576 25.416 87.6059 25.9036C88.5699 26.3119 89.0916 27.0321 89.171 28.0641L89.239 28.8466C89.2617 29.2095 89.3014 29.7142 89.3581 30.3606C89.4262 31.0411 89.5849 31.472 89.8344 31.6535ZM83.0809 24.7298H85.3944C86.211 24.7298 86.8064 24.5994 87.1806 24.3386C87.5549 24.0777 87.742 23.6298 87.742 22.9947C87.742 22.4843 87.5379 22.0874 87.1296 21.8039C86.7213 21.5203 86.1486 21.3786 85.4115 21.3786H83.0809V24.7298ZM101.993 19.5924C102.276 19.5924 102.514 19.6944 102.707 19.8986C102.911 20.0914 103.013 20.3295 103.013 20.6131C103.013 20.8966 102.911 21.1404 102.707 21.3446C102.514 21.5374 102.276 21.6338 101.993 21.6338H98.5394V32.419C98.5394 32.7025 98.426 32.9464 98.1991 33.1505C97.9837 33.3433 97.7285 33.4397 97.4336 33.4397C97.1388 33.4397 96.8836 33.3433 96.6681 33.1505C96.4526 32.9464 96.3449 32.7025 96.3449 32.419V21.6338H92.8746C92.591 21.6338 92.3472 21.5374 92.1431 21.3446C91.9503 21.1404 91.8539 20.8966 91.8539 20.6131C91.8539 20.3295 91.9503 20.0914 92.1431 19.8986C92.3472 19.6944 92.591 19.5924 92.8746 19.5924H101.993Z" fill="white"/>
<defs>
<linearGradient id="paint0_linear_633_6034" x1="2.11133" y1="25.6113" x2="145.111" y2="25.6113" gradientUnits="userSpaceOnUse">
<stop stop-color="#A315D6"/>
<stop offset="0.514423" stop-color="#FDAB60"/>
<stop offset="1" stop-color="#A315D6"/>
</linearGradient>
</defs>
</svg>