<svg width="148" height="52" viewBox="0 0 148 52" fill="none" xmlns="http://www.w3.org/2000/svg">
<rect x="2.11133" y="2.11133" width="143" height="47" rx="23.5" fill="#401A79" stroke="url(#paint0_linear_633_5736)" stroke-width="4.2227"/>
<path d="M36.4311 4.22351H57.2923L35.7581 46.9987H14.897L36.4311 4.22351Z" fill="#894697" fill-opacity="0.49"/>
<path d="M49.8016 34.4345C48.917 34.4345 48.0777 34.2191 47.2839 33.7881C46.49 33.3458 45.8663 32.7561 45.4126 32.0189C45.3219 31.8601 45.2765 31.673 45.2765 31.4575C45.2765 31.106 45.3616 30.8281 45.5317 30.624C45.7132 30.4198 45.9513 30.3178 46.2462 30.3178C46.4957 30.3178 46.7112 30.3688 46.8926 30.4709C47.0741 30.5729 47.2328 30.7374 47.3689 30.9642C47.5844 31.3271 47.919 31.6277 48.3726 31.8658C48.8376 32.0926 49.3139 32.206 49.8016 32.206C51.4347 32.206 52.2512 31.639 52.2512 30.5049C52.2512 30.0172 52.0471 29.5749 51.6388 29.178C51.2419 28.7811 50.6068 28.3785 49.7335 27.9702C48.7015 27.4939 47.8963 27.0629 47.3179 26.6773C46.7509 26.2804 46.3426 25.8608 46.0931 25.4185C45.8436 24.9648 45.7188 24.4318 45.7188 23.8194C45.7188 23.1163 45.906 22.4925 46.2802 21.9481C46.6545 21.3924 47.1705 20.9615 47.8282 20.6553C48.486 20.3377 49.2232 20.179 50.0397 20.179C50.947 20.179 51.7806 20.3831 52.5404 20.7914C53.3003 21.1883 53.8786 21.7327 54.2756 22.4245C54.389 22.6059 54.4457 22.793 54.4457 22.9858C54.4457 23.258 54.355 23.4962 54.1735 23.7003C54.0034 23.9045 53.7879 24.0065 53.5271 24.0065C53.3343 24.0065 53.1358 23.9555 52.9317 23.8534C52.7275 23.74 52.5688 23.6039 52.4554 23.4452C52.1945 23.0822 51.8656 22.8157 51.4687 22.6456C51.0831 22.4755 50.6068 22.3904 50.0397 22.3904C49.3706 22.3904 48.8433 22.5152 48.4577 22.7647C48.0834 23.0029 47.8963 23.3544 47.8963 23.8194C47.8963 24.1029 47.9643 24.3411 48.1004 24.5339C48.2479 24.7153 48.4917 24.9025 48.8319 25.0953C49.1835 25.2881 49.7562 25.5659 50.5501 25.9288C51.9337 26.5753 52.926 27.25 53.5271 27.9532C54.1395 28.6563 54.4457 29.5069 54.4457 30.5049C54.4457 31.2874 54.2529 31.9792 53.8673 32.5803C53.4817 33.17 52.9373 33.6293 52.2342 33.9582C51.5311 34.2758 50.7202 34.4345 49.8016 34.4345ZM66.0906 20.5022C66.3741 20.5022 66.6122 20.6042 66.805 20.8084C67.0092 21.0012 67.1113 21.2393 67.1113 21.5229C67.1113 21.8064 67.0092 22.0502 66.805 22.2543C66.6122 22.4471 66.3741 22.5435 66.0906 22.5435H62.6372V33.3288C62.6372 33.6123 62.5238 33.8562 62.297 34.0603C62.0815 34.2531 61.8264 34.3495 61.5315 34.3495C61.2366 34.3495 60.9815 34.2531 60.766 34.0603C60.5505 33.8562 60.4428 33.6123 60.4428 33.3288V22.5435H56.9724C56.6889 22.5435 56.4451 22.4471 56.2409 22.2543C56.0481 22.0502 55.9517 21.8064 55.9517 21.5229C55.9517 21.2393 56.0481 21.0012 56.2409 20.8084C56.4451 20.6042 56.6889 20.5022 56.9724 20.5022H66.0906ZM78.8119 32.8355C78.8686 32.9716 78.897 33.0793 78.897 33.1587C78.897 33.4536 78.7949 33.7087 78.5908 33.9242C78.398 34.1283 78.1542 34.2304 77.8593 34.2304C77.6552 34.2304 77.4624 34.1737 77.2809 34.0603C77.1108 33.9469 76.986 33.7938 76.9067 33.601L75.5798 30.1647H70.3913L69.0814 33.618C69.0133 33.7995 68.8886 33.9469 68.7071 34.0603C68.537 34.1737 68.3442 34.2304 68.1287 34.2304C67.8339 34.2304 67.5901 34.1283 67.3973 33.9242C67.2045 33.7201 67.1081 33.4762 67.1081 33.1927C67.1081 33.102 67.1364 32.9886 67.1931 32.8525L72.1094 20.9104C72.2002 20.695 72.3192 20.5305 72.4667 20.4171C72.6254 20.3037 72.7899 20.247 72.96 20.247C73.1528 20.247 73.3343 20.3037 73.5044 20.4171C73.6745 20.5305 73.8049 20.7006 73.8956 20.9275L78.8119 32.8355ZM72.8409 23.7684L71.1228 28.2764H74.8483L73.1131 23.7684L72.977 23.292L72.8409 23.7684ZM90.0816 32.5633C90.195 32.654 90.3141 32.7958 90.4389 32.9886C90.575 33.1814 90.643 33.3628 90.643 33.5329C90.643 33.8165 90.5466 34.0433 90.3538 34.2134C90.161 34.3835 89.9172 34.4686 89.6223 34.4686C89.3388 34.4686 89.129 34.4232 88.9929 34.3325C88.5393 34.083 88.2104 33.7484 88.0062 33.3288C87.8021 32.8978 87.6547 32.2798 87.5639 31.4746C87.5299 31.1343 87.4959 30.7374 87.4619 30.2838C87.4278 29.8188 87.3995 29.4389 87.3768 29.144C87.3541 28.611 87.0593 28.2084 86.4922 27.9362C85.9365 27.664 85.256 27.5279 84.4508 27.5279H83.3281V33.3288C83.3281 33.6123 83.226 33.8562 83.0219 34.0603C82.8291 34.2531 82.5909 34.3495 82.3074 34.3495C82.0239 34.3495 81.78 34.2531 81.5759 34.0603C81.3831 33.8562 81.2867 33.6123 81.2867 33.3288V21.3698C81.2867 21.0522 81.3831 20.797 81.5759 20.6042C81.7687 20.4114 82.0182 20.3037 82.3244 20.281C82.71 20.2697 83.2487 20.264 83.9405 20.264C84.6323 20.2527 85.205 20.247 85.6586 20.247C86.5092 20.247 87.2634 20.4001 87.9212 20.7063C88.5903 21.0125 89.1063 21.4435 89.4692 21.9992C89.8435 22.5549 90.0306 23.19 90.0306 23.9045C90.0306 25.3561 89.3048 26.3258 87.8531 26.8134C88.8171 27.2217 89.3388 27.9418 89.4182 28.9739L89.4862 29.7564C89.5089 30.1193 89.5486 30.624 89.6053 31.2704C89.6733 31.9509 89.8321 32.3818 90.0816 32.5633ZM83.3281 25.6396H85.6416C86.4582 25.6396 87.0536 25.5092 87.4278 25.2484C87.8021 24.9875 87.9892 24.5396 87.9892 23.9045C87.9892 23.3941 87.7851 22.9972 87.3768 22.7137C86.9685 22.4301 86.3958 22.2884 85.6586 22.2884H83.3281V25.6396ZM102.24 20.5022C102.523 20.5022 102.762 20.6042 102.954 20.8084C103.159 21.0012 103.261 21.2393 103.261 21.5229C103.261 21.8064 103.159 22.0502 102.954 22.2543C102.762 22.4471 102.523 22.5435 102.24 22.5435H98.7866V33.3288C98.7866 33.6123 98.6732 33.8562 98.4463 34.0603C98.2309 34.2531 97.9757 34.3495 97.6808 34.3495C97.386 34.3495 97.1308 34.2531 96.9153 34.0603C96.6998 33.8562 96.5921 33.6123 96.5921 33.3288V22.5435H93.1218C92.8382 22.5435 92.5944 22.4471 92.3903 22.2543C92.1975 22.0502 92.1011 21.8064 92.1011 21.5229C92.1011 21.2393 92.1975 21.0012 92.3903 20.8084C92.5944 20.6042 92.8382 20.5022 93.1218 20.5022H102.24Z" fill="white"/>
<defs>
<linearGradient id="paint0_linear_633_5736" x1="2.11133" y1="25.6113" x2="145.111" y2="25.6113" gradientUnits="userSpaceOnUse">
<stop stop-color="#A315D6"/>
<stop offset="0.514423" stop-color="#FDAB60"/>
<stop offset="1" stop-color="#A315D6"/>
</linearGradient>
</defs>
</svg>
