<svg width="151" height="57" viewBox="1 0 151 57" fill="none" xmlns="http://www.w3.org/2000/svg" style="">
<path d="M60.6235 92.3673C59.8235 92.3673 59.0608 92.17 58.3355 91.7753C57.6101 91.3807 57.0395 90.8473 56.6235 90.1753C56.5488 90.026 56.5115 89.8767 56.5115 89.7273C56.5115 89.4607 56.5808 89.2473 56.7195 89.0873C56.8581 88.9273 57.0448 88.8473 57.2795 88.8473C57.6635 88.8473 57.9568 89.018 58.1595 89.3593C58.3941 89.7433 58.7301 90.0527 59.1675 90.2873C59.6155 90.522 60.1008 90.6393 60.6235 90.6393C61.4235 90.6393 62.0368 90.4793 62.4635 90.1593C62.9008 89.8287 63.1195 89.3753 63.1195 88.7993C63.1195 88.298 62.9115 87.834 62.4955 87.4073C62.0901 86.9807 61.4555 86.57 60.5915 86.1753C59.6528 85.738 58.9221 85.338 58.3995 84.9753C57.8768 84.6127 57.4981 84.2287 57.2635 83.8233C57.0288 83.4073 56.9115 82.9167 56.9115 82.3513C56.9115 81.722 57.0821 81.1567 57.4235 80.6553C57.7648 80.1433 58.2288 79.7487 58.8155 79.4713C59.4128 79.1833 60.0795 79.0393 60.8155 79.0393C61.6475 79.0393 62.3995 79.2207 63.0715 79.5833C63.7541 79.9353 64.2875 80.4313 64.6715 81.0713C64.7568 81.1993 64.7995 81.3487 64.7995 81.5193C64.7995 81.7327 64.7301 81.9193 64.5915 82.0793C64.4635 82.2393 64.2981 82.3193 64.0955 82.3193C63.9461 82.3193 63.7915 82.2767 63.6315 82.1913C63.4715 82.0953 63.3435 81.9833 63.2475 81.8553C62.9808 81.482 62.6501 81.2047 62.2555 81.0233C61.8608 80.842 61.3808 80.7513 60.8155 80.7513C60.1435 80.7513 59.6048 80.8953 59.1995 81.1833C58.8048 81.4713 58.6075 81.8607 58.6075 82.3513C58.6075 82.65 58.6821 82.906 58.8315 83.1193C58.9808 83.322 59.2368 83.5353 59.5995 83.7593C59.9621 83.9727 60.5061 84.2447 61.2315 84.5753C62.5115 85.162 63.4288 85.786 63.9835 86.4473C64.5488 87.1087 64.8315 87.8927 64.8315 88.7993C64.8315 89.5033 64.6555 90.1273 64.3035 90.6713C63.9515 91.2047 63.4555 91.6207 62.8155 91.9193C62.1861 92.218 61.4555 92.3673 60.6235 92.3673ZM74.547 90.8473C74.7176 90.986 74.803 91.1833 74.803 91.4393C74.803 91.6633 74.723 91.8553 74.563 92.0153C74.4136 92.1647 74.227 92.2393 74.003 92.2393C73.7896 92.2393 73.6083 92.1647 73.459 92.0153L69.235 88.2393C69.2243 89.2633 69.219 90.3247 69.219 91.4233C69.219 91.6793 69.1283 91.882 68.947 92.0313C68.7763 92.1807 68.5896 92.2553 68.387 92.2553C68.1523 92.2553 67.9656 92.1807 67.827 92.0313C67.6883 91.8713 67.619 91.6687 67.619 91.4233C67.619 90.314 67.6296 88.7033 67.651 86.5913C67.6723 84.4793 67.6936 82.3887 67.715 80.3193C67.7256 80.1167 67.699 79.9087 67.635 79.6953C67.571 79.4713 67.4803 79.3167 67.363 79.2313C67.203 79.1033 67.0803 78.986 66.995 78.8793C66.9096 78.762 66.867 78.618 66.867 78.4473C66.867 78.2447 66.9576 78.0847 67.139 77.9673C67.3203 77.85 67.5283 77.7913 67.763 77.7913C68.2323 77.7913 68.6056 77.994 68.883 78.3993C69.171 78.8047 69.315 79.4073 69.315 80.2073C69.315 80.8047 69.3043 81.8927 69.283 83.4713C69.2616 84.666 69.251 85.5727 69.251 86.1913L73.523 83.8553C73.6403 83.77 73.7736 83.7273 73.923 83.7273C74.147 83.7273 74.3336 83.8073 74.483 83.9673C74.643 84.1167 74.723 84.3033 74.723 84.5273C74.723 84.6767 74.6856 84.8153 74.611 84.9433C74.5363 85.0607 74.4403 85.146 74.323 85.1993L70.483 87.2633L74.547 90.8473ZM78.3262 81.7913C78.0382 81.7913 77.7929 81.6953 77.5902 81.5033C77.3982 81.3007 77.3022 81.0553 77.3022 80.7673C77.3022 80.49 77.3982 80.2553 77.5902 80.0633C77.7929 79.8607 78.0382 79.7593 78.3262 79.7593C78.6035 79.7593 78.8382 79.8607 79.0302 80.0633C79.2329 80.2553 79.3342 80.49 79.3342 80.7673C79.3342 81.0553 79.2329 81.3007 79.0302 81.5033C78.8382 81.6953 78.6035 81.7913 78.3262 81.7913ZM78.4222 92.3033C78.2302 92.3033 78.0542 92.234 77.8942 92.0953C77.7342 91.9567 77.6542 91.7753 77.6542 91.5513C77.6542 90.8047 77.6862 89.0873 77.7502 86.3993C77.7502 86.1753 77.7235 85.962 77.6702 85.7593C77.6169 85.546 77.5315 85.3967 77.4142 85.3113C77.2542 85.194 77.1315 85.082 77.0462 84.9753C76.9609 84.858 76.9129 84.714 76.9022 84.5433C76.9022 84.3407 76.9929 84.1807 77.1742 84.0633C77.3662 83.9353 77.5849 83.8713 77.8302 83.8713C78.3102 83.8713 78.6835 84.0847 78.9502 84.5113C79.2275 84.938 79.3609 85.562 79.3502 86.3833C79.2862 89.114 79.2542 90.8367 79.2542 91.5513C79.2542 91.786 79.1689 91.9727 78.9982 92.1113C78.8275 92.2393 78.6355 92.3033 78.4222 92.3033ZM86.7642 83.6313C87.5749 83.6313 88.3002 83.8233 88.9402 84.2073C89.5909 84.5913 90.0975 85.1193 90.4602 85.7913C90.8335 86.4527 91.0202 87.1993 91.0202 88.0313C91.0202 88.874 90.8335 89.6367 90.4602 90.3193C90.0869 91.002 89.5695 91.5353 88.9082 91.9193C88.2575 92.3033 87.5215 92.4953 86.7002 92.4953C86.1989 92.4953 85.7242 92.3887 85.2762 92.1753C84.8389 91.962 84.4549 91.6633 84.1242 91.2793L84.0922 93.7433C84.0709 95.13 84.0602 95.8287 84.0602 95.8393C84.0495 96.042 83.9695 96.2233 83.8202 96.3833C83.6815 96.5433 83.4842 96.6233 83.2282 96.6233C82.9935 96.6233 82.8069 96.5433 82.6682 96.3833C82.5295 96.234 82.4602 96.0527 82.4602 95.8393C82.4602 95.2847 82.4815 93.29 82.5242 89.8553C82.5242 88.8953 82.5349 87.7433 82.5562 86.3993C82.5669 86.1967 82.5402 85.9887 82.4762 85.7753C82.4122 85.5513 82.3215 85.3967 82.2042 85.3113C82.0442 85.1833 81.9215 85.066 81.8362 84.9593C81.7509 84.842 81.7082 84.698 81.7082 84.5273C81.7082 84.3247 81.7989 84.1647 81.9802 84.0473C82.1615 83.93 82.3695 83.8713 82.6042 83.8713C83.2869 83.8713 83.7509 84.2607 83.9962 85.0393C84.3589 84.602 84.7749 84.2607 85.2442 84.0153C85.7242 83.7593 86.2309 83.6313 86.7642 83.6313ZM86.7002 90.8953C87.2229 90.8953 87.6869 90.7727 88.0922 90.5273C88.5082 90.282 88.8335 89.9407 89.0682 89.5033C89.3029 89.066 89.4202 88.5753 89.4202 88.0313C89.4202 87.498 89.3029 87.018 89.0682 86.5913C88.8335 86.1647 88.5082 85.834 88.0922 85.5993C87.6762 85.354 87.2122 85.2313 86.7002 85.2313C86.2095 85.2313 85.7722 85.354 85.3882 85.5993C85.0042 85.834 84.7055 86.1647 84.4922 86.5913C84.2789 87.018 84.1722 87.498 84.1722 88.0313C84.1722 88.874 84.4015 89.562 84.8602 90.0953C85.3295 90.6287 85.9429 90.8953 86.7002 90.8953Z" fill="white"/>
<rect x="2.11133" y="2.11133" width="143" height="47" rx="23.5" fill="#401A79" stroke="url(#paint0_linear_633_6034)" stroke-width="4.2227"/>
<path d="M36.4311 4.22351H57.2923L35.7581 46.9987H14.897L36.4311 4.22351Z" fill="#894697" fill-opacity="0.49"/>
<path d="M49.5544 33.5248C48.6698 33.5248 47.8306 33.3093 47.0367 32.8783C46.2428 32.436 45.6191 31.8463 45.1654 31.1091C45.0747 30.9504 45.0293 30.7632 45.0293 30.5478C45.0293 30.1962 45.1144 29.9183 45.2845 29.7142C45.466 29.5101 45.7041 29.408 45.999 29.408C46.2485 29.408 46.464 29.459 46.6454 29.5611C46.8269 29.6632 46.9857 29.8276 47.1217 30.0544C47.3372 30.4173 47.6718 30.7179 48.1254 30.956C48.5904 31.1828 49.0667 31.2963 49.5544 31.2963C51.1875 31.2963 52.004 30.7292 52.004 29.5951C52.004 29.1074 51.7999 28.6652 51.3916 28.2682C50.9947 27.8713 50.3596 27.4687 49.4863 27.0604C48.4543 26.5841 47.6491 26.1531 47.0707 25.7675C46.5037 25.3706 46.0954 24.951 45.8459 24.5087C45.5964 24.0551 45.4716 23.522 45.4716 22.9096C45.4716 22.2065 45.6588 21.5827 46.033 21.0384C46.4073 20.4826 46.9233 20.0517 47.5811 19.7455C48.2388 19.4279 48.976 19.2692 49.7925 19.2692C50.6998 19.2692 51.5334 19.4733 52.2932 19.8816C53.0531 20.2785 53.6315 20.8229 54.0284 21.5147C54.1418 21.6961 54.1985 21.8833 54.1985 22.0761C54.1985 22.3482 54.1078 22.5864 53.9263 22.7905C53.7562 22.9947 53.5407 23.0967 53.2799 23.0967C53.0871 23.0967 52.8886 23.0457 52.6845 22.9436C52.4803 22.8302 52.3216 22.6941 52.2082 22.5354C51.9473 22.1724 51.6184 21.9059 51.2215 21.7358C50.8359 21.5657 50.3596 21.4807 49.7925 21.4807C49.1234 21.4807 48.5961 21.6054 48.2105 21.8549C47.8362 22.0931 47.6491 22.4446 47.6491 22.9096C47.6491 23.1931 47.7171 23.4313 47.8532 23.6241C48.0007 23.8055 48.2445 23.9927 48.5847 24.1855C48.9363 24.3783 49.509 24.6561 50.3029 25.019C51.6865 25.6655 52.6788 26.3403 53.2799 27.0434C53.8923 27.7465 54.1985 28.5971 54.1985 29.5951C54.1985 30.3776 54.0057 31.0694 53.6201 31.6705C53.2345 32.2602 52.6902 32.7195 51.987 33.0484C51.2839 33.366 50.473 33.5248 49.5544 33.5248ZM65.8434 19.5924C66.1269 19.5924 66.3651 19.6944 66.5579 19.8986C66.762 20.0914 66.8641 20.3295 66.8641 20.6131C66.8641 20.8966 66.762 21.1404 66.5579 21.3446C66.3651 21.5374 66.1269 21.6338 65.8434 21.6338H62.39V32.419C62.39 32.7025 62.2766 32.9464 62.0498 33.1505C61.8343 33.3433 61.5792 33.4397 61.2843 33.4397C60.9894 33.4397 60.7343 33.3433 60.5188 33.1505C60.3033 32.9464 60.1956 32.7025 60.1956 32.419V21.6338H56.7252C56.4417 21.6338 56.1979 21.5374 55.9937 21.3446C55.8009 21.1404 55.7046 20.8966 55.7046 20.6131C55.7046 20.3295 55.8009 20.0914 55.9937 19.8986C56.1979 19.6944 56.4417 19.5924 56.7252 19.5924H65.8434ZM78.5647 31.9257C78.6215 32.0618 78.6498 32.1695 78.6498 32.2489C78.6498 32.5438 78.5477 32.7989 78.3436 33.0144C78.1508 33.2185 77.907 33.3206 77.6121 33.3206C77.408 33.3206 77.2152 33.2639 77.0337 33.1505C76.8636 33.0371 76.7388 32.884 76.6595 32.6912L75.3326 29.2549H70.1441L68.8342 32.7082C68.7662 32.8897 68.6414 33.0371 68.4599 33.1505C68.2898 33.2639 68.097 33.3206 67.8816 33.3206C67.5867 33.3206 67.3429 33.2185 67.1501 33.0144C66.9573 32.8103 66.8609 32.5664 66.8609 32.2829C66.8609 32.1922 66.8892 32.0788 66.9459 31.9427L71.8622 20.0007C71.953 19.7852 72.072 19.6207 72.2195 19.5073C72.3782 19.3939 72.5427 19.3372 72.7128 19.3372C72.9056 19.3372 73.0871 19.3939 73.2572 19.5073C73.4273 19.6207 73.5577 19.7908 73.6484 20.0177L78.5647 31.9257ZM72.5937 22.8586L70.8756 27.3666H74.6011L72.8659 22.8586L72.7298 22.3823L72.5937 22.8586ZM89.8344 31.6535C89.9478 31.7442 90.0669 31.886 90.1917 32.0788C90.3278 32.2716 90.3958 32.453 90.3958 32.6231C90.3958 32.9067 90.2994 33.1335 90.1066 33.3036C89.9138 33.4737 89.67 33.5588 89.3751 33.5588C89.0916 33.5588 88.8818 33.5134 88.7457 33.4227C88.2921 33.1732 87.9632 32.8386 87.759 32.419C87.5549 31.9881 87.4075 31.37 87.3167 30.5648C87.2827 30.2245 87.2487 29.8276 87.2147 29.374C87.1806 28.909 87.1523 28.5291 87.1296 28.2342C87.1069 27.7012 86.8121 27.2986 86.245 27.0264C85.6893 26.7542 85.0088 26.6181 84.2036 26.6181H83.0809V32.419C83.0809 32.7025 82.9788 32.9464 82.7747 33.1505C82.5819 33.3433 82.3437 33.4397 82.0602 33.4397C81.7767 33.4397 81.5328 33.3433 81.3287 33.1505C81.1359 32.9464 81.0395 32.7025 81.0395 32.419V20.46C81.0395 20.1424 81.1359 19.8872 81.3287 19.6944C81.5215 19.5017 81.771 19.3939 82.0772 19.3712C82.4628 19.3599 83.0015 19.3542 83.6933 19.3542C84.3851 19.3429 84.9578 19.3372 85.4115 19.3372C86.262 19.3372 87.0162 19.4903 87.674 19.7965C88.3431 20.1027 88.8591 20.5337 89.222 21.0894C89.5963 21.6451 89.7834 22.2802 89.7834 22.9947C89.7834 24.4463 89.0576 25.416 87.6059 25.9036C88.5699 26.3119 89.0916 27.0321 89.171 28.0641L89.239 28.8466C89.2617 29.2095 89.3014 29.7142 89.3581 30.3606C89.4262 31.0411 89.5849 31.472 89.8344 31.6535ZM83.0809 24.7298H85.3944C86.211 24.7298 86.8064 24.5994 87.1806 24.3386C87.5549 24.0777 87.742 23.6298 87.742 22.9947C87.742 22.4843 87.5379 22.0874 87.1296 21.8039C86.7213 21.5203 86.1486 21.3786 85.4115 21.3786H83.0809V24.7298ZM101.993 19.5924C102.276 19.5924 102.514 19.6944 102.707 19.8986C102.911 20.0914 103.013 20.3295 103.013 20.6131C103.013 20.8966 102.911 21.1404 102.707 21.3446C102.514 21.5374 102.276 21.6338 101.993 21.6338H98.5394V32.419C98.5394 32.7025 98.426 32.9464 98.1991 33.1505C97.9837 33.3433 97.7285 33.4397 97.4336 33.4397C97.1388 33.4397 96.8836 33.3433 96.6681 33.1505C96.4526 32.9464 96.3449 32.7025 96.3449 32.419V21.6338H92.8746C92.591 21.6338 92.3472 21.5374 92.1431 21.3446C91.9503 21.1404 91.8539 20.8966 91.8539 20.6131C91.8539 20.3295 91.9503 20.0914 92.1431 19.8986C92.3472 19.6944 92.591 19.5924 92.8746 19.5924H101.993Z" fill="white"/>
<defs>
<linearGradient id="paint0_linear_633_6034" x1="2.11133" y1="25.6113" x2="145.111" y2="25.6113" gradientUnits="userSpaceOnUse">
<stop stop-color="#A315D6"/>
<stop offset="0.514423" stop-color="#FDAB60"/>
<stop offset="1" stop-color="#A315D6"/>
</linearGradient>
</defs>
</svg>